<?xml version="1.0" encoding="utf-8"?>
<!-- Uploaded to: SVG Repo, www.svgrepo.com, Generator: SVG Repo Mixer Tools -->
<svg width="800px" height="800px" viewBox="0 0 1024 1024" class="icon"  version="1.1" xmlns="http://www.w3.org/2000/svg"><path d="M513.6 507.7m-487.8 0a487.8 487.8 0 1 0 975.6 0 487.8 487.8 0 1 0-975.6 0Z" fill="#60C13D" /><path d="M21.657 29.95l14.142-14.143 225.848 225.848-14.142 14.142zM364.042 511.764l14.142-14.142 103.802 103.803-14.142 14.142zM503.432 372.36l14.142-14.141L621.376 462.02l-14.142 14.142z" fill="" /><path d="M557.6 318.2L324.1 551.7 232.3 460c-54.7-54.7-54.7-143.3 0-198l35.5-35.5c54.7-54.7 143.3-54.7 198 0l91.8 91.7z" fill="#B6B7B7" /><path d="M324.1 561.7c-2.6 0-5.1-1-7.1-2.9L225.2 467c-28.3-28.3-43.9-66-43.9-106.1s15.6-77.7 43.9-106.1l35.5-35.5c58.5-58.5 153.7-58.5 212.2 0l91.8 91.8c3.9 3.9 3.9 10.2 0 14.1L331.1 558.8c-1.9 2-4.5 2.9-7 2.9z m42.7-366.2c-33.3 0-66.6 12.7-91.9 38L239.4 269c-24.6 24.6-38.1 57.2-38.1 91.9s13.5 67.4 38.1 91.9l84.7 84.7 219.4-219.4-84.7-84.7c-25.4-25.2-58.7-37.9-92-37.9z" fill="" /><path d="M270.104 497.853l233.484-233.485 53.881 53.881-233.484 233.485z" fill="#75736F" /><path d="M324.1 561.7c-2.6 0-5.1-1-7.1-2.9l-53.9-53.9c-1.9-1.9-2.9-4.4-2.9-7.1s1.1-5.2 2.9-7.1l233.5-233.5c3.9-3.9 10.2-3.9 14.1 0l53.9 53.9c1.9 1.9 2.9 4.4 2.9 7.1s-1.1 5.2-2.9 7.1L331.1 558.8c-1.9 2-4.5 2.9-7 2.9z m-39.8-63.9l39.8 39.8 219.4-219.4-39.8-39.8-219.4 219.4zM765.394 773.777l14.142-14.142 225.848 225.847-14.142 14.142z" fill="" /><path d="M469.6 697.2l233.5-233.5 91.8 91.8c54.7 54.7 54.7 143.3 0 198L759.3 789c-54.7 54.7-143.3 54.7-198 0l-91.7-91.8z" fill="#B6B7B7" /><path d="M660.3 840c-40.1 0-77.7-15.6-106.1-43.9l-91.8-91.8c-1.9-1.9-2.9-4.4-2.9-7.1s1.1-5.2 2.9-7.1L696 456.7c3.9-3.9 10.2-3.9 14.1 0l91.8 91.8c28.3 28.3 43.9 66 43.9 106.1s-15.6 77.7-43.9 106.1l-35.5 35.5c-28.3 28.2-66 43.8-106.1 43.8zM483.7 697.2l84.7 84.7c24.6 24.6 57.2 38.1 91.9 38.1s67.4-13.5 91.9-38.1l35.5-35.5c24.6-24.6 38.1-57.2 38.1-91.9s-13.5-67.4-38.1-91.9L703 477.9 483.7 697.2z" fill="" /><path d="M757.015 517.619L523.531 751.103l-53.881-53.881 233.484-233.484z" fill="#75736F" /><path d="M523.5 761.1c-2.6 0-5.1-1-7.1-2.9l-53.9-53.9c-1.9-1.9-2.9-4.4-2.9-7.1s1.1-5.2 2.9-7.1L696 456.7c3.9-3.9 10.2-3.9 14.1 0l53.9 53.9c1.9 1.9 2.9 4.4 2.9 7.1s-1.1 5.2-2.9 7.1L530.5 758.2c-1.9 2-4.5 2.9-7 2.9z m-39.8-63.9l39.8 39.8 219.4-219.4-39.8-39.8-219.4 219.4z" fill="" /></svg>