<?xml version="1.0" encoding="utf-8"?>
<!-- Uploaded to: SVG Repo, www.svgrepo.com, Generator: SVG Repo Mixer Tools -->
<svg width="800px" height="800px" viewBox="0 0 1024 1024" class="icon"  version="1.1" xmlns="http://www.w3.org/2000/svg"><path d="M793.5 883.9H457.3c-78.2 0-141.6-63.4-141.6-141.6L283.1 184c0-78.2 63.4-141.6 141.6-141.6h401.4c78.2 0 141.6 63.4 141.6 141.6l-32.6 558.3c0 78.2-63.4 141.6-141.6 141.6z" fill="#A3E588" /><path d="M793.5 893.9H457.3c-83.5 0-151.4-67.8-151.6-151.3l-32.6-558v-0.6c0-83.6 68-151.6 151.6-151.6h401.4c83.6 0 151.6 68 151.6 151.6v0.6l-32.6 558C945 826 877 893.9 793.5 893.9zM293.1 183.7l32.6 558v0.6c0 72.5 59 131.6 131.6 131.6h336.3c72.5 0 131.6-59 131.6-131.6v-0.6l32.6-558c-0.2-72.4-59.1-131.3-131.6-131.3H424.7c-72.5 0-131.4 58.9-131.6 131.3z" fill="" /><path d="M293 354.1l22.7 388.2c0 78.2 63.4 141.6 141.6 141.6h336.3c78.2 0 141.6-63.4 141.6-141.6l22.7-388.2H293z" fill="#60C13D" /><path d="M793.5 893.9H457.3c-83.5 0-151.4-67.8-151.6-151.3l-22.6-387.9c-0.2-2.7 0.8-5.4 2.7-7.4 1.9-2 4.5-3.1 7.3-3.1h664.7c2.8 0 5.4 1.1 7.3 3.1 1.9 2 2.9 4.7 2.7 7.4l-22.6 387.9C945 826 877 893.9 793.5 893.9zM303.6 364.1l22 377.6v0.6c0 72.5 59 131.6 131.6 131.6h336.3c72.5 0 131.6-59 131.6-131.6v-0.6l22-377.6H303.6z" fill="" /><path d="M814.5 282.5H436.3c-1.6 0-2.9-1.3-2.9-2.9V42.4h383.9v237.2c0 1.6-1.2 2.9-2.8 2.9z" fill="#60C13D" /><path d="M814.5 292.5H436.3c-7.1 0-12.9-5.8-12.9-12.9V42.4c0-5.5 4.5-10 10-10h383.9c5.5 0 10 4.5 10 10v237.2c0 7.2-5.7 12.9-12.8 12.9z m-371-20h363.9V52.4H443.5v220.1z" fill="" /><path d="M302.8 433.1v-89.7H187.5v89.7c0 35.8-29 64.8-64.8 64.8-35.2 0-63.8 28.6-63.8 63.8v422.9h372.5V561.7c0-35.2-28.6-63.8-63.8-63.8-35.8 0-64.8-29-64.8-64.8z" fill="#80F9E7" /><path d="M431.4 994.6H58.9c-5.5 0-10-4.5-10-10V561.7c0-40.7 33.1-73.8 73.8-73.8 30.2 0 54.8-24.6 54.8-54.8v-89.7c0-5.5 4.5-10 10-10h115.3c5.5 0 10 4.5 10 10v89.7c0 30.2 24.6 54.8 54.8 54.8 40.7 0 73.8 33.1 73.8 73.8v422.9c0 5.5-4.5 10-10 10z m-362.5-20h352.5V561.7c0-29.7-24.1-53.8-53.8-53.8-41.2 0-74.8-33.6-74.8-74.8v-79.7h-95.3v79.7c0 41.2-33.6 74.8-74.8 74.8-29.7 0-53.8 24.1-53.8 53.8v412.9z" fill="" /><path d="M58.9 936.8l372.5-191.2V575.4L58.9 766.6z" fill="#DEF9F4" /><path d="M431.4 994.6H58.9c-5.5 0-10-4.5-10-10V561.7c0-40.7 33.1-73.8 73.8-73.8 30.2 0 54.8-24.6 54.8-54.8v-89.7c0-5.5 4.5-10 10-10h115.3c5.5 0 10 4.5 10 10v89.7c0 30.2 24.6 54.8 54.8 54.8 40.7 0 73.8 33.1 73.8 73.8v422.9c0 5.5-4.5 10-10 10z m-362.5-20h352.5V561.7c0-29.7-24.1-53.8-53.8-53.8-41.2 0-74.8-33.6-74.8-74.8v-79.7h-95.3v79.7c0 41.2-33.6 74.8-74.8 74.8-29.7 0-53.8 24.1-53.8 53.8v412.9z" fill="" /><path d="M150.1 256.6h190v103.1h-190z" fill="#75736F" /><path d="M340.1 369.7h-190c-5.5 0-10-4.5-10-10V256.6c0-5.5 4.5-10 10-10h190c5.5 0 10 4.5 10 10v103.1c0 5.5-4.4 10-10 10z m-180-20h170v-83.1h-170v83.1z" fill="" /><path d="M114.5 766.1c-5.5 0-10-4.5-10-10V592.4c0-5.5 4.5-10 10-10s10 4.5 10 10v163.7c0 5.5-4.5 10-10 10zM114.5 892.8c-5.5 0-10-4.5-10-10V821c0-5.5 4.5-10 10-10s10 4.5 10 10v61.8c0 5.5-4.5 10-10 10z" fill="" /></svg>