<?xml version="1.0" ?>

<!-- Uploaded to: SVG Repo, www.svgrepo.com, Generator: SVG Repo Mixer Tools -->
<svg width="800px" height="800px" viewBox="-52.05 0 684.34 684.34" id="Layer_1" version="1.1" xml:space="preserve" xmlns="http://www.w3.org/2000/svg" xmlns:xlink="http://www.w3.org/1999/xlink">

<style type="text/css">
	.st0{clip-path:url(#SVGID_2_);}
	.st1{clip-path:url(#SVGID_4_);}
	.st2{clip-path:url(#SVGID_6_);}
	.st3{clip-path:url(#SVGID_8_);}
	.st4{clip-path:url(#SVGID_10_);}
	.st5{clip-path:url(#SVGID_12_);}
	.st6{clip-path:url(#SVGID_14_);}
	.st7{clip-path:url(#SVGID_16_);}
	.st8{clip-path:url(#SVGID_18_);}
	.st9{clip-path:url(#SVGID_20_);}
	.st10{clip-path:url(#SVGID_22_);}
	.st11{clip-path:url(#SVGID_24_);}
	.st12{clip-path:url(#SVGID_26_);}
	.st13{clip-path:url(#SVGID_28_);}
	.st14{clip-path:url(#SVGID_30_);}
	.st15{clip-path:url(#SVGID_32_);}
	.st16{clip-path:url(#SVGID_34_);}
	.st17{clip-path:url(#SVGID_36_);}
	.st18{clip-path:url(#SVGID_38_);}
	.st19{clip-path:url(#SVGID_40_);}
</style>

<g>

<defs>

<rect height="684.34" id="SVGID_39_" width="580.24" y="0"/>

</defs>

<clipPath id="SVGID_2_">

<use style="overflow:visible;" xlink:href="#SVGID_39_"/>

</clipPath>

<g class="st0">

<path d="M479.7,646.98c0.77,0.94,1.55,1.87,2.47,2.99c4.31-5.82,8.6-11.61,12.88-17.4c0.25,0.19,0.5,0.38,0.75,0.57    c-3.29,5.92-6.59,11.84-9.88,17.76c0.08,0.13,0.16,0.27,0.25,0.4c1.15-0.94,2.31-1.87,3.46-2.81c0.2,0.14,0.4,0.28,0.6,0.42    c-0.65,1.36-1.3,2.73-2.31,4.83c12.73-14.2,24.85-27.88,39.22-38.97c14.31-11.04,29.11-21.22,45.76-27.98    c-33.92,20.53-63.38,46.46-86.85,79.73c0.19,0.3,0.38,0.59,0.57,0.89c1-0.62,2.18-1.05,2.98-1.89c3.99-4.19,7.79-8.6,11.85-12.73    c3.41-3.46,7.07-6.64,10.62-9.95c0.27,0.3,0.55,0.6,0.82,0.91c-2.06,2-4.16,3.95-6.15,6.02c-2.06,2.15-4.01,4.42-5.62,7.15    c0.75-0.48,1.49-0.97,2.24-1.45c0.15,0.16,0.3,0.33,0.45,0.49c-3.65,3.75-7.29,7.5-10.94,11.25c0.24,0.4,0.47,0.8,0.71,1.21    c2.35-1.25,5.03-2.08,7-3.83c7.21-6.41,14.18-13.12,21.3-19.6c-6.56,7.55-13.12,15.11-19.64,22.62c2.41,0,5.21,0,8.02,0    c0.05,0.38,0.11,0.76,0.16,1.15c-3.58,0.84-7.13,2.17-10.75,2.44c-15.44,1.14-30.9,2.69-46.36,2.79    c-83.53,0.53-167.07,0.7-250.61,0.91c-27.63,0.07-55.27,0.2-82.89-0.3c-20.79-0.38-41.56-1.6-62.33-2.74    c-4.45-0.24-8.84-1.76-13.25-2.69c0.04-0.35,0.08-0.69,0.11-1.04c3.74,0,7.48,0,11.22,0c0.23-0.29,0.47-0.58,0.7-0.87    c-6.27-9.28-12.55-18.56-18.82-27.84c0.28-0.27,0.57-0.54,0.85-0.82c2.76,3.13,5.62,6.17,8.24,9.43    c2.72,3.37,5.21,6.94,8.07,10.78c-2.58-10.84-7.85-19.38-15.19-26.8c1.89,1.34,3.77,2.68,6.44,4.57    c-5.29-14.41-13.06-26.36-19.97-38.79c0.36-0.24,0.71-0.48,1.07-0.72c7.66,11.99,15.6,23.8,22.9,36.04    C56.9,644.88,63.3,657.04,71.42,668c-4.96-17.6-11.87-34.05-22.37-48.62c0.26-0.21,0.53-0.42,0.79-0.63    c1.82,2.22,3.68,4.42,5.46,6.67c1.8,2.28,3.59,4.58,5.29,6.94c1.76,2.45,3.42,4.99,5.12,7.48c0.27-0.13,0.53-0.26,0.8-0.4    c-7.21-16.86-14.42-33.71-21.62-50.57c0.12-0.1,0.25-0.19,0.37-0.29c0.9,1.4,1.83,2.77,2.68,4.2c0.93,1.55,1.79,3.14,2.67,4.72    c8.93,16.06,16.35,32.88,22.84,50.2c2.41,6.42,5.8,12.42,8.75,18.61c0.41-0.2,0.82-0.39,1.23-0.59    c-4.43-11.29-8.85-22.58-13.28-33.86c0.23-0.15,0.46-0.29,0.69-0.44c5.68,6.92,7.98,16.14,13.51,23.69    c-2.64-9.16-5.46-17.86-7.63-26.73c-2.19-8.93-3.74-18.03-5.17-27.19c3.84,9.56,6.93,19.44,12.62,28.91    c2.68,9.61,5.6,20.06,8.25,29.57c0.5-4.79,1.45-10.51,1.56-16.24c0.06-3.07-1.13-6.26-2.14-9.26    c-5.32-15.8-10.76-31.56-16.14-47.34c-0.46-1.36-0.76-2.78-0.62-4.36c4.06,8.39,8.12,16.78,12.17,25.17    c0.33-0.09,0.66-0.19,0.99-0.28c-1.14-4.58-1.85-9.35-3.5-13.71c-7.62-20.13-15.51-40.15-23.31-60.21    c-0.53-1.37-1.09-2.73-1.64-4.09c0.27-0.16,0.54-0.31,0.8-0.47c8.26,15.97,16.52,31.95,24.88,48.12    c-2.18-15.36-4.33-30.54-6.49-45.71c0.28-0.05,0.57-0.11,0.85-0.16c5.73,28.01,8.21,56.77,16.62,83.46    c0.93-27.24,1.87-55.14,2.83-83.37c-3.89-0.73-7.35-1.37-10.89-2.03c2.41,0,4.75,0,7.09,0c-0.15-0.49-0.3-0.99-0.5-1.67    c1.21,0.29,2.23,0.54,3.78,0.91c0-19.64,0-39.01,0-58.7c-1.01-0.09-2.37-0.2-3.72-0.32c-0.08-0.22-0.15-0.43-0.23-0.65    c4.04-1.58,8.08-3.17,12.83-5.02c-4.33-2.05-8.7-1.92-12.83-2.12c-4.38-0.22-8.81,0.61-13.51,0.38    c6.15-2.63,12.29-5.25,17.76-7.59c-6.56-3.53-13.44-7.25-20.35-10.92c-1.73-0.92-3.52-1.76-5.34-2.43    c-5.91-2.17-7.3-1.63-10.73,3.88c0.05-4.31,4.52-8.91,9.83-9.94c9.47-1.84,18.71-0.28,27.9,2.14c1.24,0.33,2.56,0.36,4.19,0.58    c0-6.41-0.48-12.31,0.12-18.08c0.76-7.36-3.26-13.15-4.7-19.76c-0.15-0.7-1.15-1.31-1.87-1.74c-12.6-7.55-25.22-15.07-39.49-18.62    c-1.97-0.49-3.95-0.92-5.88-2.17c4.5,0.3,9,0.53,13.49,0.93c4.63,0.42,9.28,0.78,13.85,1.61c4.44,0.81,8.86,1.9,13.14,3.37    c4.35,1.49,8.51,3.61,12.91,5.51c-1.54-5.13-4.26-8.24-8.99-10.3c-9.79-4.28-16.84-12.59-24.96-21.03    c3.55,0.68,6.17,1.17,9.48,1.81c-6.06-7.18-12.81-11.43-20.95-13.44c4.92,0.3,9.84,0.59,14.76,0.89c0.2-0.35,0.4-0.71,0.59-1.06    c-4.39-3.97-8.78-7.94-13.17-11.91c-0.17,0.18-0.34,0.37-0.51,0.55c1.25-0.08,2.49-0.15,3.89-0.24c-2.68-3.15-5.19-6.1-7.7-9.05    c0.09-0.22,0.19-0.43,0.28-0.65c2.36,0.72,4.71,1.44,7.07,2.15c0.18-0.21,0.36-0.42,0.53-0.62c-2.97-3.82-5.95-7.64-8.98-11.54    c0.33,0.07,0.73,0.15,1.14,0.23c0.4,0.08,0.8,0.14,1.81,0.33c-2.13-1.48-3.74-2.59-5.35-3.71c0.06-0.2,0.13-0.4,0.19-0.61    c1.82,0.57,3.64,1.15,5.89,1.86c-2.49-3.69-4.71-6.98-7.2-10.68c1.66,0.48,2.94,0.86,4.22,1.23c0.07-0.1,0.15-0.21,0.22-0.31    c-1.45-1.1-2.9-2.19-5.09-3.84c1.76,0.18,2.75,0.28,4.32,0.44c-1.29-1.02-2.22-1.75-3.23-2.54c0.58-0.68,0.92-1.09,1.02-1.21    c-0.82-1.17-1.63-2.31-2.43-3.45c0.25-0.17,0.5-0.34,0.76-0.51c-2.1-1.97-4.2-3.95-6.31-5.92c0.12-0.18,0.24-0.36,0.36-0.54    c1.75,0.97,3.49,1.94,5.24,2.91c0.16-0.21,0.32-0.42,0.48-0.63c-1.13-0.71-2.26-1.42-3.39-2.13c0.26-0.37,0.51-0.75,0.77-1.12    c0.98,0.26,1.95,0.51,3.73,0.98c-1.06-1.77-1.76-2.93-2.86-4.77c1.84,1.62,3.15,2.76,4.81,4.22c-0.54-2.34-0.97-4.18-1.39-6.02    c0.24-0.11,0.48-0.22,0.72-0.33c1.44,3.26,2.87,6.53,4.6,10.46c0.29-1.55,0.46-2.46,0.65-3.47c1.52,4.44,3,8.74,4.79,13.97    c0.53-2.5,0.86-4.05,1.34-6.33c1.26,4.95,2.36,9.27,3.56,14c0.73-1.68,1.29-2.96,1.85-4.24c0.25,0.04,0.51,0.08,0.76,0.12    c0.77,4.33,1.54,8.67,2.46,13.85c0.96-2.38,1.65-4.11,2.39-5.94c1,5.28,1.96,10.4,3.11,16.43c0.99-3.48,1.75-6.12,2.5-8.76    c1.55,5.21,1.68,10.63,4.73,15.51c1.15-1.58,2.04-2.81,3.3-4.53c1.47,5.4,2.81,10.31,4.35,15.96c1.14-1.7,1.78-2.65,2.42-3.61    c0.17,0.06,0.33,0.13,0.5,0.19c-0.89,4.36-1.79,8.72-2.43,11.85c2.33,3.83,4.07,6.68,6.1,10.02c0.17-0.82,0.32-1.16,0.31-1.5    c-0.22-7.94-0.4-15.87-0.75-23.8c-0.07-1.53-0.58-3.17-1.29-4.52c-13.13-24.64-25.13-50-40.57-73.19    c-5.99-8.99-12.25-17.78-18.52-26.87c12.54,11.8,22.53,25.68,31.68,40.21c9.17,14.57,17.84,29.48,26.94,44.2    C85.37,241.95,63.93,167.7,35.5,95.73c17.25,33.41,29.88,68.92,41.85,104.73c11.98,35.84,21.14,72.57,29.92,109.6    c13.59-0.79,26.63,0.47,38.93,6.31c0.2-0.24,0.46-0.44,0.43-0.53c-3.89-11.57-8.36-22.89-15.55-32.63    c-5.74-7.76-13.05-11.99-22.72-9.16c-0.41,0.12-0.86,0.14-1.28,0.15c-0.18,0-0.35-0.18-0.75-0.39c6.52-3.41,12.74-1.65,18.83,0.65    c7.93,3,13.58,9.29,18.89,15.84c6.88,8.49,11.34,18.38,13.55,29.32c0.55,2.69,0.08,5.61-0.66,8.62c1.61,3.43,3.23,6.86,4.84,10.29    c0.29-0.08,0.59-0.15,0.88-0.23c-3.82-48.71-7.92-97.39-13.94-146.35c-10.13-5.39-19.23-12.41-26.77-22.6    c4.01,1.07,7.46,1.99,11.45,3.06c-3.42-7.55-6.64-14.66-9.94-21.94c2.48,1.14,4.79,2.2,7.1,3.26c0.16-0.15,0.33-0.3,0.49-0.46    c-3.78-5.77-7.57-11.54-11.74-17.91c3.49,1.68,6.47,3.1,9.75,4.67c-2.78-9.5-7.06-17.25-16.4-20.81c4.95,0.96,9.89,1.92,15.97,3.1    c-3.7-7.41-7.06-14.15-10.36-20.75c2.06,1.52,4.38,3.24,6.7,4.96c0.17-0.11,0.34-0.22,0.51-0.32c-1.7-2.84-3.4-5.68-5.43-9.08    c1.99,0.67,3.54,1.18,5.83,1.95c-2.35-2.93-4.3-5.35-6.25-7.78c0.07-0.14,0.15-0.28,0.22-0.42c1.25,0.65,2.51,1.31,4.02,2.09    c-2.72-5.41-5.27-10.48-8.04-15.97c1.88,0.99,3.46,1.83,5.04,2.66c0.14-0.1,0.27-0.21,0.41-0.31c-2.46-3.65-4.92-7.31-7.71-11.45    c2.02,0.64,3.5,1.11,5.14,1.63c-1.89-3.03-3.64-5.84-5.68-9.11c1.5,0.56,2.55,0.95,3.61,1.34c0.28-0.16,0.56-0.33,0.85-0.49    c-0.97-1.93-1.93-3.85-2.89-5.76c0.3,0,0.77,0,2.04,0c-1.59-2.56-2.92-4.72-4.5-7.25c0.92,0.12,1.46,0.19,2.23,0.29    c-0.88-1.73-1.7-3.31-2.82-5.5c1.22,0.63,1.89,0.98,2.9,1.5c-1.79-4.57-3.47-8.89-5.16-13.21c0.2-0.11,0.4-0.23,0.59-0.34    c2.39,4.58,4.78,9.16,7.27,13.95c0.2-1.59,0.39-3.05,0.7-5.44c0.95,4.2,1.71,7.55,2.46,10.9c0.19-0.01,0.38-0.02,0.56-0.03    c0.26-1.28,0.53-2.57,0.89-4.31c1.34,5.25,2.55,10.02,3.88,15.24c0.43-2.62,0.78-4.75,1.14-6.88c0.15,0.01,0.3,0.02,0.45,0.03    c0.76,4.91,1.52,9.81,2.35,15.16c0.95-1.96,1.7-3.52,2.46-5.07c0.16,0.03,0.31,0.07,0.47,0.1c0,3.81,0,7.63,0,12.21    c1.5-1.96,2.54-3.32,4.25-5.56c-0.32,5.63-0.57,10.26-0.83,14.88c0.18-0.02,0.36-0.04,0.54-0.05c0.19,2.18,0.37,4.36,0.59,6.82    c1.24-2.08,2.46-4.12,3.69-6.16c0.22,0.02,0.44,0.05,0.65,0.07c0,7.25,0,14.5,0,21.76c0.43,0.26,0.85,0.52,1.28,0.78    c0.91-1.7,1.82-3.39,2.74-5.09c0.35,0.29,0.71,0.57,1.06,0.86c-0.68,2.09-1.37,4.18-2.36,7.23c2.28-2.66,3.98-4.64,6.14-7.17    c-3.37,9.31-1.71,18.21-2.02,27.01c0.31,0.12,0.62,0.24,0.92,0.36c2.1-2.94,4.2-5.89,6.9-9.66c-1.2,8.01-2.25,15.08-3.46,23.16    c2.42-3.18,4.27-5.61,6.44-8.47c-0.86,7.73-1.65,14.8-2.43,21.88c0.21,0.11,0.43,0.22,0.64,0.33c1.64-2.17,3.28-4.33,4.93-6.5    c-1.94,13.33-1.92,27.29-10.9,37.74c5.29,53.65,10.53,106.91,15.84,160.8c8.06,2.94,14.97,8.91,20.87,16.17    c5.87,7.23,9.32,15.83,11.64,25.09c-0.27-4.62-0.5-9.25-0.81-13.87c-1.93-28.22-3.83-56.44-5.9-84.65    c-0.12-1.69-1.33-3.52-2.48-4.86c-5.21-6.12-10.57-12.1-15.88-18.12c0.25-0.32,0.49-0.64,0.74-0.96c1.9,1.16,3.8,2.32,6.62,4.03    c-3.51-8.48-6.63-16.02-9.76-23.56c0.14-0.12,0.28-0.25,0.42-0.37c1.91,1.79,3.82,3.59,5.73,5.38c0.23-0.18,0.47-0.37,0.7-0.55    c-2.44-4.08-4.87-8.16-7.52-12.6c1.84,0.58,3.38,1.07,4.92,1.55c0.18-0.2,0.37-0.4,0.55-0.61c-3.89-6.35-7.79-12.7-11.47-18.71    c3.13,1.79,6.85,3.93,10.89,6.24c-1.83-8.86-4.78-16.78-9.44-24.14c2.47,1.74,4.94,3.48,7.42,5.22c0.24-0.17,0.47-0.34,0.71-0.51    c-2.15-4.04-4.3-8.08-6.64-12.47c1.59,0.91,2.97,1.7,4.36,2.5c0.25-0.27,0.49-0.53,0.74-0.8c-2.4-2.68-4.81-5.35-7.23-8.06    c0.96,0.18,1.99,0.37,3.46,0.64c-0.76-1.98-1.43-3.75-2.39-6.24c2.45,1.95,4.31,3.42,6.88,5.46c-1.49-5.27-2.75-9.72-4.15-14.66    c1.11-0.87,2.3-1.81,3.73-2.93c-0.76-1.78-1.79-4.19-3.02-7.06c1.25,0.55,2.2,0.96,3.81,1.66c-1.67-2.82-3-5.07-4.82-8.15    c1.67,1.01,2.58,1.57,3.95,2.39c-0.88-2.63-1.61-4.79-2.34-6.96c0.16-0.08,0.33-0.15,0.49-0.23c0.99,1.55,1.98,3.1,2.97,4.66    c0.32-0.08,0.64-0.16,0.96-0.24c-0.41-5.38-0.82-10.75-1.25-16.45c0.66,1.48,1.24,2.8,1.84,4.16c0.85-2.58,1.65-5.02,2.45-7.45    c0.08,0.03,0.16,0.05,0.25,0.08c-0.45,5.24-0.9,10.48-1.35,15.72c0.23,0.05,0.46,0.1,0.68,0.14c0.63-2,1.25-3.99,1.88-5.99    c0.15,0.03,0.3,0.06,0.45,0.09c0,4.62,0,9.24,0,13.86c0.14,0.02,0.28,0.05,0.42,0.07c0.61-1.62,1.21-3.25,2.01-5.4    c0,3.1,0,5.66,0,8.9c1.02-1.38,1.66-2.25,2.83-3.83c-0.31,3.78-0.55,6.77-0.88,10.86c1.44-2.5,2.39-4.12,3.84-6.63    c-0.72,6.12-1.32,11.19-1.91,16.27c0.19,0.07,0.39,0.14,0.58,0.2c1.33-2.14,2.67-4.28,4.39-7.06c0,7.63,0,14.52,0,21.96    c1.59-2.43,3.02-4.62,5-7.64c-0.85,7.07-1.58,13.11-2.3,19.15c0.23,0.08,0.46,0.17,0.69,0.25c0.8-0.96,1.6-1.92,2.4-2.88    c0.2,0.08,0.4,0.15,0.6,0.23c-0.54,5.45-1.08,10.9-1.7,17.19c3.09-3.82,5.58-6.92,8.08-10.01c-2.41,8.6-3.9,17.18-3.98,26.8    c3.12-2.77,5.69-5.04,8.9-7.9c-2.24,6.52-4.18,12.15-6.12,17.79c0.2,0.13,0.39,0.27,0.59,0.4c2.6-4.25,5.2-8.49,7.89-12.89    c0.27,0.48,0.45,0.66,0.43,0.8c-1.99,10.66-3.76,21.38-6.09,31.96c-1.68,7.59-5.78,13.78-12.06,18.37    c5.49,72.95,8.92,146,17.5,218.66c2.9-2.78,5.56-5.33,8.69-8.33c-1.43,0.17-2.21,0.27-3.87,0.47c1.67-1.1,2.6-1.71,3.83-2.51    c0.35-5.74,0.59-11.71,1.1-17.64c4.8-56.19,3.1-112.51,3.29-168.8c0.01-1.5,0.03-2.99,0.07-4.49c0.01-0.45,0.1-0.9,0.15-1.35    c0.34-0.01,0.68-0.02,1.01-0.02c1.79,56.07,3.57,112.14,5.23,164.19c2.25-28.05,6.27-59.94,11.69-91.61    c2.34-13.7,2.68-27.4,1.91-41.22c-1.16-20.92-2.18-41.84-3.29-62.76c-0.08-1.49-0.34-2.96-1.03-3.92    c-3.95-3.61-7.91-7.23-11.86-10.84c0.12-0.22,0.23-0.43,0.35-0.65c0.68,0.13,1.37,0.25,2.74,0.5c-2.27-4.35-4.26-8.18-6.51-12.5    c1.79,1.04,3.09,1.79,5.12,2.98c-1.91-4.08-3.46-7.4-5.23-11.2c1.27,0.23,2.13,0.38,3.55,0.64c-2.55-3.41-4.83-6.45-7.08-9.46    c1.77,0.71,3.77,1.52,6.11,2.46c-1.84-4-3.57-7.74-5.36-11.61c0.83,0.18,1.72,0.38,3.14,0.69c-1.27-2.46-2.34-4.54-3.91-7.59    c1.9,0.88,2.89,1.33,4.37,2.01c-1.19-1.77-2.12-3.16-3.32-4.94c1.14,0.15,1.88,0.25,2.84,0.38c-1.16-1.85-2.17-3.46-3.18-5.07    c0.24-0.02,0.47-0.03,0.71-0.05c0-1.27,0.26-2.61-0.06-3.78c-0.44-1.58-1.32-3.03-2.26-5.06c1.2,0.16,1.89,0.25,2.82,0.37    c-0.77-2.3-1.52-4.53-2.5-7.43c1.28,1.69,2.18,2.88,3.08,4.07c0.1-0.12,0.21-0.25,0.31-0.37c0.93,2.39,1.86,4.78,3.11,7.96    c0.35-1.95,0.54-3.03,0.73-4.12c0.79,4.13,1.55,8.14,2.47,12.95c0.64-2.13,1.02-3.43,1.41-4.73c0.15,0,0.29,0,0.44,0    c0.25,3.28,0.51,6.55,0.78,10.01c0.62-0.87,1.13-1.58,2.15-3c0.23,5.34,0.42,9.85,0.64,15.16c1.42-1.78,2.29-2.86,3.49-4.37    c0,5.17,0,9.89,0,14.61c0.18,0.08,0.36,0.16,0.53,0.24c0.82-1.57,1.65-3.14,2.47-4.71c0.25,0.04,0.5,0.09,0.75,0.13    c-0.45,3.77-0.9,7.55-1.44,12.03c1.31-2.05,2.32-3.61,3.73-5.82c-0.59,9.23,0.05,17.89-3.18,26.16c-0.67,1.72-0.22,3.98-0.1,5.98    c0.76,12.97,1.58,25.94,2.31,37.86c7.17-79.3,22.21-157.51,56.29-230.48c-7.38,20.41-14.76,40.82-21.75,60.18    c5.14,7.61,9.57,14.24,14.1,20.79c0.67,0.96,1.76,1.65,2.76,2.28c4.98,3.18,9.22,7.16,12.25,12.51c0.76,1.35,1.67,2.59,2.62,4.05    c-0.79-8.81-1.55-17.31-2.31-25.8c0.17-0.05,0.35-0.1,0.52-0.15c1.44,3.71,2.87,7.43,4.31,11.14c0.19-0.07,0.38-0.15,0.57-0.22    c-1.2-5.6-2.4-11.2-3.6-16.81c0.18-0.11,0.36-0.21,0.55-0.32c1.01,1.35,2.02,2.7,3.04,4.05c0.26-0.04,0.53-0.07,0.79-0.11    c-0.63-6.15-1.26-12.3-1.94-18.98c0.77,1.16,1.37,2.06,1.96,2.96c0.62,0.93,1.23,1.86,2.39,3.63c-0.84-3.46-1.46-5.97-2.28-9.38    c0.96,1.3,1.43,1.94,2.19,2.97c-0.55-3.29-1.03-6.14-1.51-9c0.12-0.03,0.25-0.07,0.37-0.1c0.61,1.11,1.23,2.23,1.84,3.34    c0.18-0.05,0.35-0.09,0.53-0.14c-0.21-2.98-0.43-5.97-0.64-8.95c0.14-0.06,0.27-0.11,0.41-0.17c0.41,1.01,0.83,2.01,1.51,3.68    c0-4.09,0-7.53,0-11.99c0.63,1.51,0.88,2.1,1.19,2.85c0.46-0.46,0.8-0.8,1.37-1.36c0,4.99,0,9.73,0,14.47    c0.3-0.1,0.6-0.2,0.9-0.29c0.53,1.47,1.05,2.95,1.57,4.4c0.5-1.23,1.1-2.69,1.7-4.16c0.22,0.05,0.43,0.11,0.65,0.16    c-0.6,3.95-1.2,7.9-1.83,12.04c0.9-0.78,1.7-1.48,2.98-2.59c-0.85,5.36-1.61,10.21-2.47,15.6c1.44-0.88,2.48-1.51,3.88-2.36    c-0.45,1.91-0.83,3.49-1.24,5.21c1.82-1.11,3.51-2.14,5.07-3.09c-2.01,6.3-4.01,12.57-6.2,19.45c3.14-2.13,5.65-3.83,7.74-5.25    c-1.61,5.59-3.31,11.47-5,17.35c0.31,0.18,0.63,0.35,0.94,0.53c0.64-0.3,1.28-0.61,2.46-1.17c-1.1,3.51-2.03,6.47-3.2,10.18    c3.61-3.32,6.74-6.19,9.84-9.05c-3.06,8.22-6.12,16.44-9.52,25.57c3.08-2.52,5.38-4.4,7.77-6.35    c-1.06,14.5-7.07,31.54-15.38,43.41c1.99,13.27-1.19,27.26,2.91,41.23c1.87-3.76,3.32-7.2,5.19-10.36    c7.63-12.86,17.29-23.58,30.22-30.43c6.44-3.41,13.32-5.48,20.66-3.89c2.9,0.63,5.36,2.13,6.69,5.34c-4.64-4.84-10.26-6.2-16-3.82    c-3.78,1.57-7.69,4.15-10.28,7.4c-15.23,19.14-26.03,40.9-32.35,65.08c-0.9,3.43-0.91,7.12-1.43,11.51    c6.35-6.38,12.2-11.83,17.52-17.83c2.28-2.57,3.43-6.26,5.06-9.47c0.71-1.41,1.3-2.88,2.46-4.13c-1.33,3.89-2.67,7.79-4.25,12.41    c10.43-5.04,20.72-6.87,31.49-4.91c-9.87-1.26-16.39,5.32-23.13,11.19c-2.58,2.25-5.04,4.8-7.08,7.59    c-1.8,2.47-3.19,5.37-4.33,8.26c-5.05,12.77-9.94,25.6-14.87,38.42c-0.4,1.05-0.97,2.17-0.94,3.24    c0.4,11.72,0.91,23.45,1.42,35.98c1.98-2.91,3.48-5.1,5.35-7.84c-0.12,1.03-0.05,1.41-0.2,1.62c-4.37,6.21-4.54,13.26-4.19,20.65    c0.68,14.37,0.88,28.76,1.29,43.15c0.03,1.11,0.13,2.22,0.22,3.54c4.76-5.33,9.34-10.46,13.92-15.59    c0.18,0.19,0.37,0.37,0.55,0.56c-4.15,5.62-8.31,11.23-12.58,17c3.1,4.2,5.94,8.06,8.88,12.04c2.5-3.48,4.92-6.86,7.34-10.23    c0.27,0.19,0.54,0.37,0.81,0.56c-2.24,3.82-4.49,7.64-6.68,11.37c2.76,4.58,5.42,9,8.16,13.55c2.98-4.83,6.07-9.82,9.07-14.66    c-2.26-45.9-8.23-91.09-16.95-135.91c10.85,46.54,19.84,93.43,24.43,141.46c2.79-0.75,4.35-1.77,4.51-4.61    c0.29-5.32,0.79-10.64,1.27-16.85c-1.96,1.76-3.11,2.79-4.26,3.82c5.07-5.83,4.72-13.2,5.44-20.26    c4.13-40.07,9.05-80.02,16.78-119.53c3.65-18.64,6.63-37.43,9.93-56.15c0.06-0.32,0.19-0.62,0.68-0.87    c-10.82,61.38-21.18,122.81-22.66,183.69c6.19-29.79,12.73-61.23,19.27-92.68c0.23,0.05,0.45,0.1,0.68,0.15    c-5.53,31.03-11.06,62.05-16.59,93.08c0.23,0.11,0.46,0.23,0.69,0.34c0.74-1.02,1.51-2.01,2.21-3.06    c3.67-5.53,7.42-10.99,10.92-16.64c1.46-2.36,2.53-5.03,3.49-7.68c7.98-21.84,15.23-44.01,25.39-64.88    c2.22-4.56,4.71-8.96,7.07-13.44c0.23,0.13,0.46,0.26,0.7,0.39c-1.36,2.9-2.71,5.81-4.09,8.7c-9.77,20.4-17.29,41.79-24.35,63.36    c-2.48,7.59-6.16,14.29-10.69,20.65c-2.77,3.89-4.99,8.23-7.72,12.54c-0.83,1.26-1.6,2.29-1.91,3.45c-1.89,7-3.97,13.96-5.4,21.06    c-1.07,5.31-1.26,10.82-1.91,16.91c1.86-2.78,3.53-4.72,4.57-6.98c2.25-4.9,3.87-10.14,6.32-14.91    c2.84-5.54,4.97-10.83,1.04-16.72c0.94,1.06,1.88,2.12,3.3,3.72c5.2-22.82,15.84-42.72,27.77-62.06    c-0.25,0.71-0.45,1.45-0.75,2.14c-7.25,16.69-15.75,32.8-21.02,50.43c-1.01,3.37-2.09,6.72-2.98,10.13    c-0.41,1.58-0.44,3.27-0.63,4.91c0.3,0.18,0.61,0.36,0.91,0.53c1.4-1.72,2.8-3.45,4.56-5.62c-0.9,3.15-1.99,5.77-2.32,8.5    c-0.32,2.63,0.14,5.37,0.29,8.62c5.02-8.65,9.99-16.27,13.97-24.43c2.06-4.23,2.54-9.39,3.4-14.2c1.28-7.19,2.26-14.43,3.32-21.27    c1.48,9.64-2.16,19.34-2.47,30.06c10.92-17.51,24.86-30.92,40.68-42.28c-5.42,5.37-10.99,10.59-16.24,16.15    c-5.28,5.6-10.24,11.53-15.35,17.34c4.6,26.19,6.34,52.38,7.81,78.78c17.03-42.14,41.48-78.37,73.35-108.95    c-26.98,29.9-45.62,65.35-60.97,103.16c21.9-11.24,44.03-21.46,66.65-26.65c8.54-8.96,16.34-17.15,24.14-25.34    c0.28,0.27,0.56,0.55,0.84,0.82c-4.2,5.68-8.4,11.36-12.74,17.23c10.03-2.24,19.63-4.39,29.23-6.54c0.01,0.14,0.01,0.28,0.02,0.43    c-9.3,3.11-18.6,6.21-27.9,9.31c-3.37,1.12-5.57,3.68-7.61,6.6c-9.63,13.75-17.86,28.4-25.24,43.6c-0.2,0.4-0.3,0.86-0.41,1.19    c7.61-0.58,15.22-1.16,23.35-1.77c13.25-14.72,28.59-27.17,46.24-36.32c-13.36,9.53-25.77,20.2-36.41,33.46    c6.79,0,13.36,0,19.93,0c0,0.17,0,0.34,0,0.51c-4.48,0.34-8.95,0.67-13.43,1.01c-5.2,0.4-9.61,1.96-13.28,6.53    c-9.05,11.28-17.56,22.93-24.31,36.04c4.19-4.73,8.18-9.68,12.61-14.12c4.52-4.53,9.48-8.57,14.46-12.5    c-7.78,9.51-15.55,19.02-23.33,28.52c0.17,0.18,0.34,0.36,0.51,0.54c8.22-2.28,16.43-4.57,24.65-6.85    c0.09,0.33,0.17,0.66,0.26,0.99c-5.14,1.91-10.29,3.79-15.41,5.75c-3.74,1.44-7.48,2.9-11.15,4.53    c-4.26,1.89-7.89,4.62-10.09,9.16c-5.41,11.15-10.88,22.27-16.29,33.42c-0.47,0.97-0.61,2.11-0.58,3.45    c15.28-18.87,31.22-36.78,52.96-47.34c-19.56,12.84-34.56,30.69-48.53,49.67c-0.61,0.83-0.92,1.91-1.04,3.16    c5.22-4.79,9.92-10.17,16.64-12.54c-3.47,3.61-7.02,7.06-10.29,10.78c-1.74,1.98-3.12,4.37-4.42,6.72    c-0.36,0.65,0.17,1.86,0.16,3.13c-4.09,4.56-5.34,10.12-6.53,15.74c2.51-3.89,5.02-7.78,7.51-11.64    C480.2,649.63,479.95,648.31,479.7,646.98z M193.74,528.77c-0.24,2.86-2.69,5.68,0,8.91c0.98-2.11,1.86-3.99,2.95-6.32    c-1.04-1.05-2.04-2.05-3.05-3.57c0.93-3.35-0.61-5.94-1.96-8.56c-3.54,4.32-3.33,8.57-0.28,12.82    C192.18,530.78,192.97,529.49,193.74,528.77z M107.96,426.67c0,3.82,0,7.64,0,11.53c1.29,0.43,2.55,0.86,3.98,1.35    c0-3.19,0-6.12,0-8.53c-1.5-1.9-2.65-3.35-3.44-5c0.95,0.4,1.89,0.8,3.23,1.36c-1.67-5.02,0.78-10.93-4.47-15.23    c0,3.66-0.11,6.51,0.04,9.34C107.39,423.1,107.9,424.68,107.96,426.67z M184.31,513.32c1.2,3.1,2.4,6.2,3.8,9.79    c1.01-2.38,1.79-4.22,2.53-5.98c-2.55-6.66-5.01-13.08-7.47-19.5c-0.28,0.08-0.56,0.16-0.84,0.24c0.36,4.18,0.71,8.36,0.57,12.81    c0.26,10.42,0.52,20.84,0.79,31.82c1.93-1.13,3.03-1.78,3.97-1.99c-1.45,1.18-2.89,2.36-4.34,3.55c0.24,0.25,0.49,0.5,0.73,0.74    c0.43,2.21,0.85,4.43,1.38,7.16c2.54-4.14,4.85-7.91,7.11-11.58c-0.59-1.42-1.05-2.53-1.51-3.63c-0.64,0.3-1.11,0.52-1.29,0.24    c1.71-4.56-0.92-7.98-2.4-11.9c-0.8,0.7-1.31,1.14-1.47,1.29c-0.16-1.65-0.23-3.36-0.49-5.04    C184.96,518.56,184.42,515.8,184.31,513.32z M339.37,526.8c-0.49,1.86-0.97,3.72-1.56,5.98c1.52,3.28,3.13,6.76,5.11,11.05    c1.33-9.8,4.35-17.82,8.69-25.22c2.12-3.61,1.18-6.48-0.86-10.72c-2.99,4.37-5.63,8.04-8.07,11.86c-1.34,2.09-2.36,4.42-3.5,6.1    c1.73-3.94,3.46-7.88,5.38-12.26c-1.75,0.86-3.02,1.49-4.3,2.11c-0.08-0.17-0.17-0.33-0.25-0.5c3.49-2.65,6.98-5.3,10.5-7.98    c-1.91-4.38-3.76-8.62-5.66-12.97c-7.79,6.8-8.71,8.83-8.93,18.56c-0.07,2.98-0.45,5.96-0.38,8.93c0.07,2.81,0.54,5.6,0.92,9.3    C337.75,528.86,338.51,527.57,339.37,526.8z M156.11,520.37c-0.24,6.83,1.72,11.61,7.26,17.36c-0.8-2.95-1.51-5.54-1.78-7.96    c2.17,6.22,4.34,12.45,6.51,18.67c0.15-1.45,0.04-2.82-0.19-4.16c-1.38-8.33-2.91-16.63-4.14-24.98    c-1.67-11.34-2.61-22.88-8.46-31.67c0,4.89-0.15,10.93,0.05,16.96C155.53,509.71,156.09,514.83,156.11,520.37z M503.36,559    c4.29-5.75,8.57-11.51,12.86-17.26c-0.1-0.26-0.19-0.53-0.29-0.79c-7.24,1.02-14.47,2.03-21.44,3.01    c-3.19,6.17-6.08,11.75-9.1,17.6c1.4,0.94,2.63,1.78,3.08,2.08c5.33-1.61,9.95-3,14.19-4.13c-3.99,1.72-7.99,3.45-12.33,5.33    c2.19,1.87,4.01,3.42,6.33,5.4C498.84,566.39,500.89,562.77,503.36,559z M293.92,407.17c5.68,6.24,11.36,12.49,17.15,18.86    c4.49-13.19,8.94-26.27,13.3-39.09c-6.5-8.97-16.1-13.01-23.46-9.78c-1.47,6.59-2.92,13.51-4.56,20.38    c-0.77,3.23-1.91,6.37-2.86,8.97c-0.1-1.13-0.52-2.36-0.25-3.38c2.59-9.83,5.3-19.63,7.83-28.88c7.43-3.46,12.91,0.81,18.64,4.34    c-4.29-6.43-7.08-14.31-15.24-16.62c2.24-2.26,4.8-2.17,8.25,0.4c6.33,4.71,9.42,11.79,12.25,19.04c1,2.57,1.85,5.21,2.77,7.82    c0.44-5.19,0.78-10.27,0.31-15.26c-0.27-2.82-1.53-5.71-2.95-8.18c-3.76-6.55-7.77-12.95-11.84-19.28    c-2.22-3.45-2.68-6.61,0.05-9.97c0.68-0.83,1.01-1.97,1.59-3.14c-1.03-2.15-2.01-4.21-3.31-6.92c-0.54,1.36-0.78,1.94-1,2.54    c-8.07,22.07-13.88,44.86-19.07,67.84c-5.95,26.33-12.57,52.52-14.97,79.62c-1.47,16.61-1.37,33.21-0.86,50.72    c2.62-11.74,4.92-22.64,7.51-33.47c2.58-10.8,5.43-21.52,8.16-32.28c0.26,0.08,0.53,0.16,0.79,0.24    c-3.11,15.69-6.23,31.37-9.34,47.06c0.31,0.07,0.62,0.13,0.93,0.2c0.45-0.37,0.89-0.73,1.17-0.96c-0.71,2.58-1.94,5.21-2.1,7.92    c-0.8,13.52-1.31,27.05-1.93,40.58c1.44-3.51,2.34-7.14,3.57-10.64c2.58-7.39,6.34-14.49,7.8-22.1c3.43-17.88,5.79-35.99,8.59-54    c-5.2-9.82-10.38-19.62-15.57-29.42c0.36-0.23,0.71-0.46,1.07-0.69c4.99,8.25,9.97,16.51,15.1,25.01    c2.68-12.07,5.27-23.74,7.88-35.48c-5.05-6.69-9.97-13.21-15.16-20.09c-2.01,9.22-3.87,17.77-5.73,26.33    c-0.37-0.75-0.47-1.45-0.36-2.1c1.52-8.77,3.06-17.54,4.64-26.3C292.71,406.97,293.21,407.04,293.92,407.17z M276.93,283.55    c13.96-0.51,24.98,6.7,35.64,15.32c-2.03-9.71-5.03-18.88-10.03-27.21c-5.19-8.65-12.55-14.05-22.13-15.97    c9.96-0.38,18.83,2.81,26.93,9.2c-0.73-9.1-1.41-17.58-2.1-26.05c0.21-0.02,0.42-0.04,0.63-0.05c0.78,8.8,1.57,17.6,2.3,25.83    c4.76,5.68,9.25,11.06,13.18,15.74c0-10.59,0-22.09,0-33.34c-6.06-6.12-10.35-12.96-13.22-20.77c-3.53-9.6-7.08-19.2-10.47-28.86    c-5.04-14.36-9.91-28.79-14.98-43.14c-0.87-2.48-2.32-4.72-3.51-7.07c-4.35,13.81-8.37,27.34-11.29,41.13    c-4.31,20.33-8.17,40.79-11.59,61.32c-2.56,15.36-4.19,30.9-6.12,46.38c-1.34,10.71-2.85,21.41-3.61,32.17    c-0.58,8.3-0.12,16.68-0.12,25.03c0.33,0.02,0.67,0.04,1,0.06c5.64-27.36,12.74-54.25,22.99-80.15c-1.1,4.33-2.2,8.66-3.26,12.79    C270.37,285.12,273.38,284.37,276.93,283.55z M166.87,386.55c-1.03-10.63-2.26-21.25-3.04-31.9c-0.71-9.72-3.04-18.71-8.73-26.77    c-16.71-2-30.9-12.47-47.29-17.13c0.18,1.09,0.23,1.65,0.37,2.19c4.25,16.32,8.94,32.53,12.66,48.98    c7.42,32.85,14.36,65.82,21.38,98.77c1.59,7.46,3.45,15,3.8,22.58c0.28,6.08,2.25,10.92,5.54,16.48    c-0.64-22.01-1.26-43.19-1.87-64.38c0.53,1.26,0.84,2.56,1.11,3.88c2.3,10.95,2.81,22.06,2.73,33.24    c-0.01,1.6-0.11,3.39,0.51,4.76c1.83,4.08,3.99,7.99,5.95,11.85c-0.71-7.94-0.87-16.26-2.3-24.33    c-1.95-10.99-1.59-22.5-5.29-33.23c-0.27,0.09,0.3-0.1,1.13-0.38c-2.45-17.65-4.89-35.16-7.41-53.32    c8.13,29.28,11.3,59.01,16.48,88.33c1.58-0.17,2.64-0.28,3.73-0.4c0.55-0.7,1.06-1.34,1.79-2.27c-0.09,0.81-0.14,1.22-0.2,1.76    c1.98,0.51,3.97,1.01,6.11,1.56c-0.19-1.76-0.36-3.11-0.48-4.46c-1.03-11.78-2.04-23.56-3.08-35.34    C169.29,413.72,168.11,400.45,166.87,386.55z M262.5,450.71c0.71,5.28,1.42,10.56,1.99,14.88c3.85-24.31,7.82-49.41,11.85-74.89    c-1.78-2.5-3.87-5.44-5.96-8.38c0.15-0.12,0.29-0.24,0.44-0.37c2.18,1.98,4.35,3.96,6.8,6.18c4.27-15.07,10.52-28.91,17.86-42.23    c-1.73,6.34-3.72,12.57-5.56,18.86c-5.08,17.33-7.77,35.19-10.46,53.06c-0.64,4.28-1.75,8.52,1.87,12.47    c0.84-8.93,4.93-17.04,3.73-26.12c0.33,0.23,0.8,0.57,1.15,0.81c8.59-26.35,12.71-54.24,24.38-79.7c-1.19-2.24-2.4-4.67-3.73-7.03    c-6.52-11.55-14.38-21.81-24.94-29.5c-4.8-3.5-9.81-3.51-15.19-1.08c-1.16,4.53-2.62,8.99-3.41,13.59    c-3.15,18.38-6.24,36.78-9,55.23c-0.81,5.38-0.87,10.98-0.55,16.44c0.34,5.82,1.57,11.58,2.34,17.38    c1.13,8.63,2.2,17.27,3.41,26.86c1.04-4.62,1.84-8.27,2.68-11.91c0.84-3.63,1.72-7.25,2.59-10.87c0.35,0.04,0.7,0.08,1.04,0.12    C261.16,412.85,259.81,431.36,262.5,450.71z M462.76,548.81c3.69,1.86,7.38,3.72,11.14,5.62c1.67-0.99,3.25-2.28,5.04-2.93    c3.23-1.17,4.85-3.74,6.39-6.71c8.55-16.47,17.57-32.62,29.27-48.08c-23.92,7.95-46.47,16.95-67.48,29.92    c0.5,5.93,0.95,11.3,1.39,16.48C453.29,544.99,457.82,546.76,462.76,548.81z M180.52,480.12c-0.3,4.99,1.27,9.38,3.58,13.65    c1.7,3.16,2.98,6.59,4.38,9.94c1.38,3.31,2.65,6.66,3.51,8.81c5.54-5.32,11.22-10.77,16.76-16.09c-0.7-8.48-1.3-16.49-2.07-24.49    c-0.14-1.4-0.72-2.93-1.53-4.06c-2.42-3.37-4.89-6.74-7.64-9.8c-3.65-4.05-13.51-6.95-19.89-1.33c1.54,7.47,0.31,15.75,6.17,22.12    c-0.37,0.2-0.74,0.4-1.11,0.6c-0.64-1.05-1.28-2.1-1.92-3.15c-0.18,0.13-0.37,0.25-0.55,0.38    C180.26,477.66,180.33,478.62,180.52,480.12z M434.21,502.44c-0.87-17.46-2.83-34.78-5.9-52.61c-1.53,2.38-2.56,4.27-3.84,5.93    c-5.37,6.97-7.26,14.66-6.75,23.83c0.78,13.86,0.23,27.81,0.26,41.72c0,1.19,0.13,2.38,0.21,3.85c2.07-1.65,3.8-3.04,5.54-4.42    c-3.32,4.92-5.97,9.87-5.54,15.6c5.33-2.93,10.89-5.99,17.01-9.36C434.91,519.6,434.57,511.35,434.21,502.44z M240.7,473.53    c0.19,20.21,0.37,40.43,0.56,60.64c0.34,0,0.67,0,1.01,0c0.11-1.8,0.09-3.62,0.37-5.39c3.08-19.56,6.26-39.1,9.31-58.66    c0.91-5.85,2.5-11.84,2.07-17.61c-1.24-16.58-3.37-33.09-5.14-49.63c-0.2-1.83-0.38-3.65-0.6-5.47c-0.21-1.77-0.47-3.54-0.71-5.31    c-0.24,0.02-0.48,0.03-0.71,0.05c-2.27,22.8-4.53,45.6-6.84,68.8c1.05-0.46,1.34-0.59,1.45-0.63    C241.21,464.64,240.97,468.76,240.7,473.53z M318.74,444.83c-1.17-1.97-2.35-3.93-4.06-6.79c-2.64,16.94-5.1,32.76-7.51,48.26    c4.64,4.61,8.86,8.79,13.27,13.17c2.78-6.79,5.25-13.38,8.17-19.74c1.85-4.03,2.19-8.13,0.63-11.95    C326.14,460.12,322.45,452.74,318.74,444.83z M188.2,415.63c-4.49-3.43-8.98-6.88-15.23-6.28c1.14,11.36,2.24,22.24,3.36,33.39    c5.51-3.4,10.76-3.96,16.28-0.95c5.18,2.83,8.47,7.44,11.37,12.63c-0.16-5.6-0.52-11.08-1-16.55c-0.22-2.47-0.02-4.88-2.04-7.07    C196.59,426.07,192.67,420.9,188.2,415.63z M168.73,371.04c1.36,12.32,2.73,24.65,4.12,37.26c13.14-5.55,22.26-1.12,28.56,12.08    c0-2.73,0-4.42,0-6.2c-1.04-0.38-1.9-0.69-2.58-0.94c-11.15-22.31-23.45-40.47-30.38-44.83    C168.52,369.15,168.57,369.83,168.73,371.04z M315.93,434.69c4.87,9.34,9.73,18.68,14.32,27.49c-0.54-21.94-1.09-44.69-1.65-67.44    c-0.37-0.03-0.74-0.06-1.11-0.09c-0.3,0.54-0.71,1.04-0.9,1.62c-3.86,11.96-7.72,23.93-11.49,35.92    C314.93,432.76,315.47,433.58,315.93,434.69z M414.99,471.75c-3.44,7.84-6.9,15.67-10.28,23.53c-0.38,0.88-0.59,2.06-0.38,2.96    c2.3,9.71,4.7,19.39,7.14,29.38c1.01-0.06,2.01-0.12,3.29-0.19c0.49-19.41,0.97-38.56,1.45-57.86    C415.88,470.23,415.58,470.81,414.99,471.75z M313.4,496.79c-2.01-2.34-4.02-4.68-6.24-7.25c-2.37,17.67-4.66,34.75-6.99,52.13    c6.53-12.25,13-24.38,19.56-36.69C317.67,502.3,315.69,499.72,313.4,496.79z M431.62,572.12c-1.56,4.51,1.31,7.66,2.73,10.97    c3.46-4.42,6.93-8.78,10.3-13.21c0.78-1.03,1.78-2.29,1.81-3.47c0.17-6.74,0.08-13.48,0.08-20.51c-2.27,0-4.28,0-6.68,0    C437.18,554.32,434.42,562.94,431.62,572.12z M211.82,536.26c0-5.12,0-10.25,0-15.37c-0.46-0.24-0.92-0.48-1.38-0.72    c-3.97,3.51-7.93,7.02-11.9,10.54c4.29,13.13,8.39,25.64,12.48,38.15c0.28,0,0.55,0,0.83,0    C211.85,558.22,211.85,547.58,211.82,536.26z M171.71,509.82c-0.26-2.35-0.52-4.7-0.79-7.05c0.13-0.03,0.27-0.05,0.4-0.08    c1.3,4.56,2.61,9.12,3.91,13.69c0.34-0.03,0.68-0.06,1.02-0.09c-0.66-13.93-1.32-27.85-1.92-40.7c-3.98-2.77-7.11-4.96-10.79-7.52    c3.44,20.51,6.75,40.3,10.07,60.09c0.21-0.03,0.42-0.07,0.62-0.1C173.41,522.17,172.57,516.3,171.71,509.82z M454.63,600.06    c6.67-11.49,13.34-22.98,20.19-34.78c-2.4,0.91-5.22,1.13-6.81,2.73c-9.39,9.41-17.46,19.9-22.22,33.36    c1.56,1.85,3.14,3.73,4.81,5.71C452.04,604.58,453.22,602.54,454.63,600.06z M253.56,535.71c1.03-5.39,2.37-10.73,3-16.17    c0.63-5.42,0.49-10.93,0.82-16.4c0.33-5.51,2.54-10.66,1.37-16.57c-1.01-5.1-0.21-10.61-0.21-15.94c-0.3,0.01-0.6,0.01-0.9,0.02    c-4.2,23.61-9.72,51.8-6.25,77.69C252.16,543.9,252.83,540.1,253.56,535.71z M210.58,513.37c-0.5-4.69-1.01-9.37-1.51-14.06    c-0.32-0.14-0.64-0.29-0.96-0.43c-5.1,5.7-10.19,11.4-15.32,17.13c1.75,4.53,3.35,8.67,4.87,12.59c4.56-3.78,8.95-7.42,13.51-11.2    C211,516.41,210.8,515.19,210.58,513.37z M104.08,576.2c1.46,7.73,2.91,15.46,4.37,23.19c1.89-11.14,1.54-22.04-0.8-32.93    c-1.17-5.46-1.53-11.11-2.26-16.67c0.37-0.08,0.75-0.16,1.12-0.24c1.19,3.68,2.37,7.37,3.8,11.81c0-8.56,0-16.29,0-24.23    c-2.05-1.12-4.01-2.19-6.23-3.4C104.08,547.99,104.08,561.76,104.08,576.2z M474.12,594.6c-0.72,1.71-1.45,3.42-2.04,4.83    c11.62-4.84,16.02-16.49,22.54-26.83c-3.3-2.43-6.23-4.58-9.84-7.23c-3.4,8.4-6.49,16.03-9.57,23.66c0.23,0.1,0.45,0.19,0.68,0.29    c0.97-0.55,1.94-1.09,2.9-1.64c0.12,0.21,0.23,0.43,0.35,0.64C477.55,590.28,475.98,592.23,474.12,594.6z M110.47,507.24    c0-3.4,0-6.8,0-10.29c-2.74-0.7-5.11-1.3-8-2.03c0.41,11.63,0.8,22.82,1.2,34.01c2.48,1.07,4.51,1.93,6.79,2.91    C110.46,523.54,110.46,515.74,110.47,507.24z M450.23,581.6c7.43-7.82,14.85-15.65,22.44-23.64c-1.59-1.08-2.83-1.93-3.85-2.62    c-8.03,3.63-15.1,8.06-19.99,14.47c-0.51,5.48-0.93,10.11-1.43,15.42C448.48,583.85,449.21,582.92,450.23,581.6z M115.87,526.99    c0.17,1.8,0.33,3.61,0.46,5.02c3.88,2.54,7.39,4.84,11.68,7.64c-2.91-9.55-3.65-18.95-8.71-27.19c0.83,0.46,1.44,0.8,2.3,1.28    c-1.07-4.7-2.06-9.09-3.08-13.54c-0.95-0.23-1.81-0.44-2.68-0.65C115.84,508.66,115.84,517.51,115.87,526.99z M379.65,522.02    c0,4.18,0,8.35,0,12.53c0.45,0.07,0.9,0.15,1.36,0.22c4.74-15.52,10.12-30.72,18.71-43.8c-0.39-2.48-0.69-4.33-1.04-6.59    c-0.73,0.74-1.2,1.05-1.46,1.5c-3.79,6.75-7.76,13.39-11.24,20.31C383.52,511.07,381.74,516.32,379.65,522.02z M145.29,573.96    c0.13-2.17,0.25-4.35,0.43-7.45c-3.56-2.32-7.33-4.77-11.28-7.35c0.93,9.13,6,16.81,3.14,25.54c-0.94,0.3-1.68,0.53-2.07,0.66    c2.12,7.94,4.16,15.58,6.29,23.56c0.39-1.26,0.67-2.11,0.92-2.97c1.69-5.86,1.84-11.25-3.63-15.25c-1.07-0.78-1.72-2.23-2.56-3.36    c0.22-0.21,0.44-0.42,0.67-0.63c1.57,1.39,3.13,2.79,5.24,4.66c-0.88-9.43-1.67-17.85-2.46-26.27c0.25-0.03,0.5-0.06,0.75-0.09    c1.21,5.93,2.42,11.87,3.63,17.8c0.13-0.03,0.25-0.06,0.38-0.09C144.88,580.02,145.03,577.3,145.29,573.96z M118.24,420.98    c-0.62-1.07-1.24-2.14-1.86-3.21c-0.23,0.29-0.45,0.58-0.68,0.86c0,3.29,0,6.58,0,9.71c6.32,4.82,7.07,12.91,10.82,19.14    c0.51-1.83,0.98-3.55,1.46-5.27c0.25,0.04,0.49,0.08,0.74,0.12c0.62,5.18,1.24,10.36,1.86,15.54c0.14-0.03,0.28-0.06,0.42-0.09    c0.22-1.23,0.44-2.45,0.66-3.68c0.27-0.01,0.55-0.02,0.82-0.03c0.79,1.89,1.58,3.78,2.37,5.67c0.13-2.27,0.15-4.49-0.41-6.55    c-1.29-4.77-2.46-9.65-4.42-14.13c-1.51-3.45-4.16-6.34-6.26-9.51C121.99,426.86,120.26,424.1,118.24,420.98z M106.38,345.9    c-0.44-1.11-0.87-2.23-1.48-3.78c-0.66,12.42,0.5,31.09,5.38,36.69c0.24-1.68,0.49-3.43,0.74-5.18c0.88,3.63,0.43,7.48,1.54,10.72    c1.11,3.23,3.79,5.85,5.78,8.74c0.1-0.08,0.2-0.16,0.3-0.24C114.59,377.37,110.56,361.89,106.38,345.9z M220.18,516.15    c0-3.14,0-6.28,0-9.56c-7.25,4.23-8.62,6.85-7.17,15.07c1.48,8.39,3.33,16.7,5.02,25.05c0.18-0.01,0.36-0.02,0.53-0.02    C219.1,536.73,219.63,526.77,220.18,516.15z M110.02,494.06c0.28-0.33,0.83-0.68,0.82-0.99c-0.3-5.26-0.58-10.52-1.08-15.77    c-0.22-2.31-0.91-4.56-1.37-6.81c-2.5-0.28-4.51-0.5-6.46-0.72c0,7.63,0,15.03,0,22.72C104.71,493.03,107.12,493.49,110.02,494.06    z M391.44,576.93c-1.24-1.5-2.49-2.99-3.78-4.54c-1.24,1.05-2.15,1.82-3.2,2.72c0,4.12,0,8.22,0,12.37    c3.25,2.61,6.57,5.26,9.92,7.95c0.49-1.51,1.02-3.09,1.51-4.69c0.49-1.61,0.94-3.23,1.38-4.77    C395.35,582.97,393.54,580.14,391.44,576.93z M136.46,530.98c-1.8,6.36-1.12,7.94,4.46,10.58c2.14,1.01,4.24,2.11,6.51,3.24    c0.52-4.01,1.06-7.85,1.51-11.69c0.39-3.38-1.06-5.52-4.16-6.07C141.45,526.44,138.55,527.18,136.46,530.98z M406.99,546.53    c1.04-0.5,2.08-1.01,3.3-1.59c-0.74-4.19-1.49-8.39-2.42-13.63c-4.71,3.7-8.81,6.92-12.83,10.09c1.29,4.07,2.38,7.5,3.44,10.87    C401.33,550.38,403.98,548.64,406.99,546.53z M124.82,489.82c-0.26-3.66-0.52-7.32-0.79-11.06c-2.3-1.56-4.51-3.06-7.32-4.96    c0,7.55,0,14.3,0,21.32c2.68,0.82,5.56,1.71,8.84,2.71C125.3,495.18,125.08,492.81,124.82,489.82z M236.58,478.83    c1.72-19.28,3.43-38.55,5.15-57.83c-3.65,15.63-10.84,80.63-7.92,88.2C234.73,499.29,235.64,489.38,236.58,478.83z M387.29,533.06    c-0.77,0.82-1.89,1.5-2.26,2.5c-2.53,6.76-3.93,13.67-1.61,20.38c2.91-5.61,6.11-11.66,9.2-17.78c1.15-2.27,1.48-4.56-0.02-5.39    c-1.41-3.39-2.42-5.8-3.81-9.13c-0.89,3.1-1.59,5.21-2.05,7.39C386.64,531.56,387.3,532.29,387.29,533.06z M131.88,511.76    c0.31,6.21,0.63,12.41,0.97,19.08c4.13-6.16,9.22-7.32,15.55-4.63c-4.36-7.2-10.41-11.92-16.53-17.46    C131.86,510.05,131.86,510.61,131.88,511.76z M450.74,562.83c4.65-3.18,9.29-6.35,14.69-10.04c-5.79-2.48-11.06-4.75-16.72-7.18    c0,6.75,0,12.52,0,18.63C449.45,563.71,449.89,563.4,450.74,562.83z M197,556.88c-1.04-4.66-2.08-9.31-3.12-13.97    c-0.44-0.03-0.89-0.06-1.33-0.09c-2.15,4.61-4.31,9.21-6.61,14.13c4.46,4.01,8.48,7.62,12.5,11.23c0.19-0.25,0.38-0.49,0.58-0.74    C198.36,564.13,197.71,560.8,197,556.88z M156.41,542.1c0.19,9.55,4.39,17.81,8,26.98c0.55,0.17,1.65,0.51,3.4,1.04    c-1.2-12.82-5.72-23.52-10.96-33.94c-0.28,0.09-0.57,0.17-0.85,0.26C156.11,538.12,156.22,539.81,156.41,542.1z M326.49,530.27    c0.73-0.99,1.45-1.98,2.59-3.53c-1.9-4.59-3.89-9.41-5.89-14.22c-0.29,0.05-0.58,0.1-0.88,0.15c-1.38,7.29-2.77,14.58-4.15,21.87    c0.25,0.11,0.5,0.22,0.76,0.33c1.06-0.99,2.13-1.98,3.19-2.96c0.13,0.1,0.25,0.21,0.38,0.32c-1.09,2.03-2.18,4.06-3.34,6.21    c0.26,1.02,0.55,2.12,0.96,3.68C322.34,538.01,324.31,534.36,326.49,530.27z M119.58,554.29c1.47,7.65,2.94,15.3,4.58,23.77    c0.49-6.89,0.92-13.04,1.36-19.22c-0.58-0.81-1.14-1.59-1.85-2.58c0.82,0,1.37,0,1.9,0c0.14-2.46,0.28-4.71,0.44-7.43    c-2.68-2.59-5.57-5.39-8.46-8.18c-0.3,0.17-0.6,0.35-0.9,0.52C117.58,545.36,118.52,549.55,119.58,554.29z M312.26,603.57    c3.31-14.45,6.63-28.91,9.94-43.36c-0.35-0.09-0.69-0.17-1.04-0.26c-8.82,17.09-9.73,36.13-12.19,54.79    c0.27,0.07,0.54,0.14,0.81,0.21C310.55,611.33,311.31,607.72,312.26,603.57z M317.31,524.01c1.37-4.84,2.74-9.68,4.11-14.52    c-0.33-0.1-0.65-0.21-0.98-0.31c-7.69,14.99-11.43,31.33-14.33,48.96C312.12,547.13,314.82,535.9,317.31,524.01z M401.12,566.65    c-0.69-1.26-1.38-2.52-2.21-4.03c-3.68,1.74-7.12,3.36-10.86,5.13c3.71,4.36,7.35,8.65,11.23,13.21c1.36-3.6,2.58-6.84,3.75-9.92    C402.43,569.59,401.92,568.34,401.12,566.65z M400.23,503.58c-0.27-0.9-0.54-1.81-1.14-3.84c-3.79,8.07-7.14,15.22-10.28,21.91    c1.85,3.41,3.26,5.99,4.69,8.62c2.29-7.64,4.54-15,6.67-22.4C400.51,506.7,400.33,505.38,400.23,503.58z M198.91,552.1    c1.72,4.3,3.48,8.58,5.14,12.91c0.75,1.96,1.91,2.77,4.14,2.36c-3.44-11.29-6.81-22.34-10.26-33.65    c-1.29,2.32-2.43,4.36-3.61,6.46C195.83,544.03,197.3,547.81,198.91,552.1z M107.2,613.76c-1.45-9.3-2.91-18.61-4.36-27.91    c0.97,13.37-2.67,26.86,0.74,40.17c1.21-1.38,2.36-2.7,3.63-4.14C107.21,619.66,107.21,617.03,107.2,613.76z M181.43,453.42    c3.88-2.17,7.95-2.38,12.54-0.97c-8.21-9.63-12.55-11.59-17.35-7.83c0.31,3.33,0.63,6.83,0.99,10.69    C178.89,454.69,179.93,454.18,181.43,453.42z M296.98,561.68c-0.67,4.75-1.33,9.49-2,14.24c0.24,0.05,0.47,0.09,0.71,0.14    c3.94-14.42,7.88-28.84,11.61-42.5C301.29,541.06,297.5,550.36,296.98,561.68z M133.45,623.01c0.66,2.92,1.32,5.83,1.98,8.75    c-0.51-14.95,0.39-30.02-4.93-44.36c-0.19,3.04-0.44,6.12-0.14,9.14C131.22,605.18,132.31,613.8,133.45,623.01z M195.28,571.88    c-0.56,1.59-1.12,3.17-1.86,5.27c1.8,5.06,3.7,10.4,5.61,15.75c0.35-0.13,0.69-0.26,1.04-0.39c-0.37-2.3-0.74-4.59-1.11-6.89    c0.13-0.04,0.26-0.09,0.39-0.13c0.6,1.58,1.19,3.15,1.84,4.86c1.39-11.33-0.49-18.33-5.4-20.26    C195.7,570.53,195.61,570.98,195.28,571.88z M433.58,531.11c-5.42,2.7-10.32,6.13-13.77,11.48c-0.63,0.98-0.88,2.25-1.39,3.61    c4.16-0.99,7.69-1.83,11.48-2.73c1.59-3.9,3.2-7.85,4.77-11.83C434.72,531.55,434.24,531.23,433.58,531.11z M328.21,355.35    c-0.13-3.18-0.1-6.38-0.45-9.53c-0.3-2.67-1.33-5.25-1.52-7.91c-0.27-3.83-0.07-7.69-0.07-11.81c-2.18,3.09-4.13,5.85-6.02,8.53    c1.3,3.8,2.63,7.65,3.93,11.52c1.26,3.74,2.49,7.5,3.73,11.25c0.14-0.05,0.27-0.1,0.41-0.14    C328.21,356.78,328.21,356.33,328.21,355.35z M311.37,564.61c1.69-7.1,3.38-14.2,5.07-21.31c-5.92,9.51-12.8,35.08-11.65,41.77    C307.13,577.98,309.23,571.58,311.37,564.61z M344.83,332.26c-3.54,6.19-7.08,12.38-10.52,18.38c-1.39-0.26-2.28-0.43-3.17-0.59    c-0.3,6.54-0.59,12.77-0.91,19.92c0.76-2.13,1.15-3.39,1.65-4.61c4.42-10.66,8.86-21.31,13.27-31.97    C345.31,332.98,345.15,332.42,344.83,332.26z M444.71,586.1c0.5-4.29,0.99-8.59,1.49-12.88c-0.3-0.08-0.61-0.16-0.91-0.24    c-3.17,4.52-6.34,9.04-9.5,13.54c1.29,2.4,2.33,4.32,3.47,6.43c1.9-1.64,3.5-3.03,5.4-4.66    C444.66,588.05,444.66,587.37,444.71,586.1z M232.71,588.58c0,1.23,0,2.46,0,3.7c0.21-0.01,0.41-0.02,0.62-0.04    c0.93-23.53,1.86-47.06,2.79-70.59c-0.32-0.01-0.63-0.03-0.95-0.04C232.68,543.64,233.02,565.8,232.71,588.58z M154.72,585.29    c-0.31-0.9-0.61-1.79-0.92-2.69c-0.18,0.06-0.36,0.11-0.54,0.17c0.26,1.29,0.51,2.59,0.77,3.88c-0.33-0.01-0.65-0.01-0.98-0.02    c0,2.77-0.63,5.74,0.12,8.26c2.07,6.92,4.72,13.64,7.25,20.75C161.39,605.05,158.49,595.35,154.72,585.29z M390.17,560.59    c5.6-3.93,6.88-9.03,3.71-15.35c-0.06-0.12-0.24-0.18-0.42-0.32c-2.87,5.53-5.79,10.96-8.49,16.52c-0.64,1.32-0.54,3.05-0.78,4.6    c0.3,0.11,0.6,0.23,0.9,0.34C386.69,564.58,388.28,562.77,390.17,560.59z M400.18,522.14c-1.25,4.01-2.5,8.01-3.93,12.58    c3.98-2.4,7.31-4.39,10.72-6.45c-1.26-4.63-2.49-9.14-3.96-14.56C401.91,516.99,401.14,519.31,400.18,522.14z M388.75,606.68    c0.32,0.57,0.65,1.14,1.22,2.15c1.27-3.59,2.41-6.82,3.67-10.39c-2.96-2.85-5.78-5.56-9.11-8.77c-0.68,8.91-0.68,8.91,3.11,14.75    C388,604.99,388.28,605.61,388.75,606.68z M105.05,640.16c1.31,5.94,2.62,11.89,3.92,17.83c0.21-0.05,0.43-0.1,0.64-0.15    c-0.5-11.02-1-22.04-1.52-33.47c-0.68,0.94-1.21,1.67-1.42,1.95c0.4,2.5,0.69,4.38,1.14,7.2c-1.9-1.74-2.96-2.71-4.68-4.28    C103.81,633.35,104.33,636.48,105.05,640.16z M129.5,497.79c2,1.22,4,2.44,6.44,3.92c-0.72-3.91-1.66-7.31-1.91-10.77    c-0.33-4.61-2.7-7.11-6.64-8.75C128.06,487.32,128.71,492.28,129.5,497.79z M468.67,612.24c-1.64,1.98-3.28,3.96-4.7,5.68    c1.64,2.22,2.81,3.79,4.05,5.47c3.58-7.06,7.24-14.27,10.89-21.48c-0.19-0.17-0.37-0.34-0.56-0.5    C475.23,604.9,472.12,608.4,468.67,612.24z M115.82,616.92c0.33,10.24,0.66,20.48,1,30.73c0.5-0.02,1-0.04,1.49-0.06    c-1.29-16.92,0.26-33.93-2.52-50.81C115.79,603.27,115.79,609.77,115.82,616.92z M147.04,510.56c0.8,0.64,1.6,1.28,2.41,1.93    c0.27-0.2,0.54-0.39,0.82-0.59c-0.77-6.53-5.45-11.42-6.73-18.44c-1.63,3.86-2.89,6.81-4.03,9.51    C142.05,505.57,144.35,507.92,147.04,510.56z M313.41,423.14c-0.34,1.97-0.68,3.94-1.01,5.9c0.1-0.01,0.21-0.01,0.31-0.02    c4.69-12.42,9.38-24.84,14.34-37.96c-0.13-0.2-0.78-1.27-1.73-2.81C321.26,400.13,317.43,411.37,313.41,423.14z M273.7,465.01    c0,1.36,0,2.71,0,4.07c2.04-9.78,3.81-19.53,5.55-29.29c0.64-3.58,0.73-7.09-1.77-10.6C276.2,441.17,274.96,452.78,273.7,465.01z     M338.22,561.27c2.11-4.24,6.25-8.13,1.32-13.62c1.74,0,2.78,0,4.04,0c-1.63-3.04-3.75-4.11-6.87-3.11c0,6.56,0,13.05,0,19.4    C337.04,563.38,337.54,562.55,338.22,561.27z M322.56,501.23c0.41,1.59,0.82,3.18,1.23,4.75c7.1-6.16,5.93-14.39,6.4-23.04    c-1.54,3.4-2.8,5.99-3.9,8.67C325.06,494.63,323.97,497.71,322.56,501.23z M353.73,561.65c2.16-3.8,4.31-7.61,6.34-11.18    c-0.32-2.75-0.61-5.19-0.92-7.82C351.7,551.05,351.2,552.82,353.73,561.65z M334.78,478.76c0,4.74,0,9.48,0,14.23    c0.28,0.07,0.55,0.15,0.83,0.22c1.67-1.9,3.35-3.8,5.03-5.71c-0.28-4.61-2.81-9.15-5.78-10.33    C334.85,477.51,334.82,477.86,334.78,478.76z M119.37,564.85c-0.45-3.02-0.9-6.03-1.36-9.05c0.15,11.02-1.47,22.19,2.23,32.86    c0.37-0.03,0.75-0.07,1.12-0.1C120.74,580.86,120.11,573.16,119.37,564.85z M255.3,563.73c0.47,1.51,0.93,3.02,1.4,4.54    c0.22-0.06,0.44-0.12,0.66-0.18c1.18-11.6,2.37-23.2,3.55-34.79c-0.29-0.04-0.59-0.08-0.88-0.12    C258.48,543.17,256.93,553.16,255.3,563.73z M417.65,562.31c-0.38-0.87-0.76-1.73-1.35-3.07c-1.19,6.23-6.14,11.93,0.21,17.47    C419.16,571.35,419.48,568.09,417.65,562.31z M346.25,544.15c2.84-7.24,5.77-14.45,8.43-21.76c0.51-1.4-0.09-3.24-0.17-4.88    c-0.27-0.03-0.54-0.06-0.81-0.09c-1.6,4.68-3.27,9.34-4.79,14.06c-1.52,4.72-2.89,9.49-4.33,14.23c0.18,0.07,0.35,0.14,0.53,0.21    C345.39,545.44,345.66,544.97,346.25,544.15z M363.49,509.43c-0.81,1.46-1.62,2.92-2.41,4.33c0.52,2.11,0.99,4.04,1.57,6.4    c1.57-1.92,2.86-3.49,4.11-5.03c-0.66-4.29-1.29-8.36-2.02-13.1c-2.07,3.45-3.8,6.33-5.53,9.22c0.26,0.19,0.51,0.37,0.77,0.56    c1.45-1.95,2.9-3.89,4.34-5.84c0.12,0.08,0.25,0.16,0.37,0.24C364.38,507.15,364.07,508.08,363.49,509.43z M323.03,544.46    c-1.11,3.04-3.06,5.79-2.68,9.37c3.72-6.27,9.6-11.53,8.45-20.01c-0.35-0.17-0.71-0.35-1.06-0.52    C326.2,536.84,324.66,540.39,323.03,544.46z M356.34,502.52c0.3,2.06,0.6,4.13,0.91,6.19c7.68-14.95,7.68-14.95,6.56-18.81    C361.34,494.07,358.97,498.08,356.34,502.52z M146.95,549.22c-0.35-1.4-0.71-2.79-1.08-4.26c-2.54-1.18-4.91-2.28-7.52-3.5    c1.75,8.16,2.62,9.92,9.25,10.98C147.41,551.49,147.23,550.62,146.95,549.22z M295.64,169c4.13,5.86,8.26,11.72,12.39,17.58    c0.45-0.32,0.89-0.65,1.34-0.97c-2.24-3.91-4.15-8.11-6.84-11.63C300.78,171.69,297.88,170.39,295.64,169z M135.81,558.39    c1.23,0.36,2.47,0.71,4.56,1.32c-2.87-4.35-1.77-9.97-7.3-11.78c-0.23,3.01-0.46,5.9-0.69,8.84    C133.59,557.34,134.47,557.75,135.81,558.39z M361.35,561.62c-0.13-0.46-0.25-0.92-0.64-2.31c-1.98,6.09-7.15,9.73-6.19,17.02    C357.67,571.51,362.75,568.68,361.35,561.62z M429.83,593.96c-0.95,3.7-1.9,7.41-2.85,11.11c0.15,0.03,0.31,0.06,0.46,0.09    c2.71-3.34,5.42-6.69,8.18-10.09c-1.13-1.39-2.22-2.73-3.48-4.27C431.28,591.93,430.68,592.72,429.83,593.96z M431.3,618.01    c1.24-3.91,2.48-7.81,3.76-11.84c0.4,0.47,0.63,0.74,0.96,1.14c0.54-2.33,1.02-4.45,1.51-6.57c-0.28-0.15-0.56-0.29-0.84-0.44    c-1.71,2.68-3.23,5.52-5.17,8C429.03,611.45,428.2,614.5,431.3,618.01z M365.79,544.27c0.08,0.33,0.16,0.66,0.31,1.3    c6.41-5.14,1.7-11.53,2.12-17.21C365.82,533.22,365.36,538.4,365.79,544.27z M137.96,501.28c1.67-3.21,3.34-6.43,4.8-9.23    c-2.82-1.44-5.09-2.6-7.25-3.7C136.25,492.38,137.02,496.62,137.96,501.28z M406.74,556.17c1.15-2.21,2.3-4.42,3.44-6.64    c-0.2-0.23-0.41-0.45-0.61-0.68c-3.16,1.87-6.33,3.74-9.61,5.68c0.63,1.64,0.97,2.54,1.48,3.86    C403.21,557.7,404.78,557.09,406.74,556.17z M421.58,548.96c-0.81,0.75-1.62,1.5-3.19,2.95c3.07,0.91,5.22,1.55,7.58,2.25    c0.92-2.58,1.69-4.75,2.79-7.83C426.04,547.24,423.99,547.93,421.58,548.96z M357.59,537.12c0.38-1.03,0.76-2.07,1.13-3.07    c-0.3-1.68-0.62-3.42-0.93-5.16c-0.23-0.05-0.46-0.11-0.69-0.16c-1.84,4.62-3.69,9.23-5.53,13.85c0.28,0.22,0.55,0.44,0.83,0.66    C354.11,541.35,355.82,539.49,357.59,537.12z M367.94,579.85c-0.19,1.75-0.39,3.5-0.68,6.13c4.12-5.37,6.6-10.34,4.79-17.8    C370.47,572.46,369.21,575.87,367.94,579.85z M460.27,603.26c2.87-6.21,5.74-12.42,8.61-18.63c-0.29-0.17-0.59-0.33-0.88-0.5    c-3.66,6.61-7.31,13.21-11.41,20.62C458.37,604.24,459.24,603.99,460.27,603.26z M124.51,502.74c-1.13-0.44-2.27-0.88-3.9-1.52    c1.23,4.9,2.3,9.17,3.36,13.44c0.33-0.04,0.66-0.09,0.98-0.13C124.96,510.68,124.96,506.83,124.51,502.74z M444.34,534.65    c-1.14,2.77-2.28,5.55-3.53,8.61c2.22,0,3.89,0,5.94,0c-0.31-3.72-0.6-7.23-0.96-11.57C445.14,533.06,444.86,533.64,444.34,534.65    z M329.33,548.64c0-0.82,0-1.64,0-2.46c-0.31-0.07-0.63-0.14-0.94-0.21c-1.27,5-2.53,10.01-3.95,15.6    C330.13,558.47,329.12,553.54,329.33,548.64z M130.5,519.94c-0.26-1.88-0.52-3.76-0.78-5.65c-0.2,7.1-2.82,14.31,0.58,21.19    c0.37-0.02,0.73-0.04,1.1-0.05C131.12,530.47,130.84,525.51,130.5,519.94z M358.2,586.07c1.09-3.74,2.18-7.47,3.28-11.21    c-0.29-0.13-0.59-0.26-0.88-0.39c-2.01,3.73-4.03,7.47-5.84,10.83c1.01,1.98,1.63,3.2,2.39,4.7    C357.56,588.53,357.85,587.57,358.2,586.07z M412.31,576.22c-0.13-0.18-0.25-0.36-0.39-0.53c-0.05-0.06-0.24-0.08-0.24-0.08    c-0.48,1.6-0.94,3.2-1.4,4.76c1.81,2.19,3.49,4.23,5.21,6.33c1.78-2.67,1.55-4.78-0.59-6.8    C413.96,579.01,413.35,577.72,412.31,576.22z M206.59,595.3c-0.7-2.24-1.41-4.47-2.16-6.86c-1.69,6.56,0.29,12.29,3.14,17.9    C207.28,602.86,206.98,599.37,206.59,595.3z M473.74,641.4c-0.46-0.6-0.92-1.2-1.75-2.28c-1.92,4.51-3.67,8.61-5.44,12.77    c0.71,0.79,1.23,1.38,1.72,1.93C470.08,649.68,471.79,645.75,473.74,641.4z M174.38,367.88c0.64,0.5,1.28,0.99,1.92,1.49    c0.12-0.14,0.23-0.27,0.35-0.41c-2.98-4.03-5.95-8.06-8.93-12.09c-0.22,0.16-0.45,0.32-0.67,0.48c0.27,2.13,0.54,4.26,0.77,6.07    C170.08,364.91,172.09,366.22,174.38,367.88z M461.67,638.03c0.73-1.46,1.47-2.92,2.39-4.76c-1.9,0.98-3.24,1.67-4.86,2.5    c-2.78,6.73-2.81,7-1.08,9.7C459.27,643.13,460.39,640.82,461.67,638.03z M392.63,485.78c-0.9,2.06-1.8,4.12-2.71,6.18    c0.19,0.1,0.38,0.21,0.57,0.31c2.52-3.79,5.04-7.57,7.57-11.38c-0.39-1.26-0.78-2.5-1.23-3.95    C395.43,479.86,394.12,482.58,392.63,485.78z M388.15,610.15c-0.9-1.84-1.8-3.69-3.01-6.17c-0.63,5.1-0.84,9.24,3.92,12.55    C388.81,614.13,388.63,612.34,388.15,610.15z M399.95,608.7c-0.28,1.09-0.56,2.19-0.93,3.65c0.82,2.07,1.73,4.36,2.81,7.08    c2.83-4.81,0.47-8.26-1.06-11.82C400.6,607.84,400.41,608.08,399.95,608.7z M171.06,596.87c-0.21-2.25-0.41-4.5-0.62-6.76    c-0.24-0.01-0.47-0.01-0.71-0.02c-0.64,1.15-1.27,2.3-1.75,3.17c0.92,4.34,1.77,8.35,2.62,12.37c0.17-0.01,0.34-0.03,0.5-0.04    C171.11,602.89,171.11,600.19,171.06,596.87z M198.26,595.08c-0.31-1.06-0.61-2.11-0.92-3.17c-0.27,0.08-0.55,0.16-0.82,0.24    c1.94,7.67,3.87,15.34,5.81,23c0.34-0.09,0.67-0.19,1.01-0.28C201.67,608.46,200,602.03,198.26,595.08z M369.05,548.3    c-1.02,0.8-2.04,1.59-2.86,2.23c0,3.54,0,6.74,0,9.95c0.32,0.06,0.64,0.12,0.96,0.17C367.92,556.54,368.7,552.42,369.05,548.3z     M190.8,564.33c-1-1.22-2.01-2.43-3.01-3.65c-0.2,0.2-0.4,0.39-0.61,0.59c1.54,4.15,3.09,8.29,4.69,12.58    C193.87,570.32,193.17,567.44,190.8,564.33z M283.62,566.99c-0.04,1.03-0.11,2.07-0.1,3.1c0.01,1.01,0.11,2.01,0.17,3.02    c0.32,0,0.63,0.01,0.95,0.01c0.76-6.32,1.52-12.64,2.28-18.96c-0.23-0.04-0.46-0.07-0.69-0.11    C285.4,558.17,284.57,562.29,283.62,566.99z M338.79,565.54c-2.45,3.09-2.49,6.69-1.37,10.59c1.3-4.22,2.59-8.45,3.89-12.67    c-0.33-0.15-0.66-0.3-1-0.46C339.89,563.71,339.47,564.41,338.79,565.54z M327.28,601.46c0-0.75,0-1.5,0-2.24    c-2.21,6.12-1.45,12.31-1.48,18.48c0.51,0.01,1.02,0.02,1.53,0.03C327.33,612.47,327.33,607.22,327.28,601.46z M372.43,601.01    c-0.54-0.53-1.08-1.05-1.63-1.59c-1.1,3.85-1.41,7.54,2.01,10.71C372.81,607.2,372.81,604.29,372.43,601.01z M374.49,594.79    c0.17-2.53,0.34-5.07,0.51-7.6c-0.26-0.07-0.51-0.13-0.77-0.2c-1.09,3-2.17,6.01-3.32,9.18c1.14,0.83,2.05,1.48,3.24,2.34    C374.29,597.14,374.38,596.25,374.49,594.79z M354.94,509.2c-2.13-4.68-4.25-9.35-6.38-14.03c-0.32,0.17-0.64,0.34-0.96,0.51    c2.5,5.49,5.01,10.97,7.51,16.46c0.16-0.06,0.32-0.13,0.47-0.19C355.41,511.2,355.24,510.45,354.94,509.2z M404.38,599.82    c-0.35-1.51-0.69-3.03-1.24-5.43c-2.32,6.58-2.01,8.07,2.05,11.65C404.91,604,404.66,602.2,404.38,599.82z M158.55,579.08    c-0.98-3.63-1.96-7.26-3.13-11.56C152.84,573.27,156.08,576.24,158.55,579.08z M336.36,495.9c-0.31,1.12-0.61,2.23-0.92,3.35    c0.26,0.12,0.52,0.24,0.78,0.37c2.37-3.22,4.75-6.45,7.12-9.67c-0.21-0.15-0.41-0.3-0.62-0.45    C340.71,491.51,338.71,493.53,336.36,495.9z M326.19,510.93c0.62,1.55,1.25,3.1,1.87,4.65c0.21-0.08,0.42-0.16,0.63-0.23    c0-3.36,0-6.71,0-10.07c-0.19-0.05-0.38-0.09-0.57-0.14C327.4,506.92,326.67,508.7,326.19,510.93z M134.84,581.54    c2.38-1.93,2.02-4.75-1.84-8.11C133.44,576.1,133.87,578.77,134.84,581.54z M329.4,562.35c0-0.22,0.02-0.45,0.01-0.67    c0-0.05-0.1-0.08-0.15-0.13c-1.92,3.35-4.3,6.5-4.4,11.25C328.12,569.86,329.11,566.53,329.4,562.35z M328.55,580.13    c0.12-1.38,0.24-2.76,0.36-4.14c-0.31-0.06-0.62-0.11-0.93-0.17c-0.92,3.92-1.85,7.84-2.77,11.75c0.45,0.13,0.89,0.25,1.34,0.38    C327.16,585.52,327.76,583.1,328.55,580.13z M451.09,621.28c-0.22-1.04-0.44-2.09-0.76-3.61c-1.47,1.04-2.48,1.76-3.65,2.59    c1.1,1.84,2.04,3.42,3.36,5.63C450.5,623.95,450.75,622.88,451.09,621.28z M462.41,665.4c-0.04,0.44-0.08,0.88-0.12,1.32    c1.82-3.84,4.96-7.26,3.08-12.18C464.43,657.99,463.51,661.46,462.41,665.4z M445.79,631.19c0.62,0.18,1.75,0.59,1.78,0.51    c0.4-1,1.05-2.18,0.84-3.1c-0.38-1.61-1.33-3.06-2.45-5.47C445.78,626.26,445.66,628.49,445.79,631.19z M257.8,511.62    c-0.1,0.67-0.25,1.34-0.29,2.02c-0.04,0.56,0.04,1.14,0.07,1.71c0.35,0.02,0.7,0.03,1.05,0.05c0.5-4.98,1-9.96,1.49-14.94    c-0.24-0.03-0.48-0.07-0.72-0.1C258.92,503.92,258.43,507.5,257.8,511.62z M371.7,560.32c-1.4,2.87-2.8,5.74-4.2,8.61    C370.27,566.73,373.51,564.78,371.7,560.32z M361.4,592.43c0-2.14,0-4.27,0-6.41c-0.39-0.02-0.79-0.04-1.18-0.06    c-0.36,3.28-0.72,6.57-1.08,9.85c0.31,0.06,0.62,0.13,0.93,0.19C360.48,595,360.9,593.99,361.4,592.43z M343.43,597.8    c0.21,0.62,0.42,1.24,0.66,1.96c2.35-4.59,2.34-7.92-0.11-8.95C343.77,593,343.56,595.14,343.43,597.8z M444.66,608.4    c0,1.41,0,2.83,0,4.97c1.66-1.26,2.74-2.08,3.88-2.94c-1.19-1.62-2.22-3.02-3.48-4.74C444.88,606.79,444.8,607.33,444.66,608.4z     M374.2,494.03c-0.57,0.24-1.15,0.48-1.94,0.81c0.37,3.03,0.71,5.9,1.06,8.77c0.14-0.01,0.29-0.01,0.43-0.02    C374.07,500.37,374.4,497.15,374.2,494.03z M421.98,555.97c-0.44-0.1-0.89-0.21-1.6-0.37c0.76,2.35,1.42,4.35,2.3,7.07    c0.9-2.44,1.51-4.12,2.14-5.82C423.82,556.5,423.11,556.25,421.98,555.97z M111.13,473.78c0.27,2.69,0.53,5.38,0.8,8.08    c0.01-3.41,2.23-6.97-0.56-11.19C111.23,472.19,111.18,472.71,111.13,473.78z M164.54,584.48c0.31,1.01,0.61,2.01,1.2,3.95    c0.95-2.38,1.59-3.98,2.29-5.73c-1.69-0.5-2.76-0.81-3.98-1.17C164.21,582.49,164.33,583.23,164.54,584.48z M356.66,605.26    c-0.25-1.85-0.5-3.7-0.75-5.55c-0.34,0.03-0.68,0.06-1.03,0.1c-0.53,2.92,0.07,5.79,1.27,8.64    C356.32,607.56,356.49,606.67,356.66,605.26z M210.44,578.32c-0.28-1.32-0.55-2.63-0.87-4.13c-0.81-0.36-1.64-0.72-2.46-1.08    c-0.17,0.18-0.33,0.36-0.5,0.54c1.16,2.26,2.33,4.51,3.49,6.77c0.15-0.08,0.3-0.15,0.46-0.23    C210.52,579.73,210.49,579.28,210.44,578.32z M346.22,568.43c-0.44-0.09-1.22-0.34-1.27-0.24c-0.98,2.33-1.88,4.7-2.79,7.07    c0.31,0.14,0.63,0.29,0.94,0.43C344.21,573.43,345.31,571.16,346.22,568.43z M128.62,617.39c0.14,0.23,0.27,0.46,0.58,0.97    c-0.53-4.48-1.02-8.61-1.51-12.74c-0.14,0.01-0.29,0.02-0.43,0.04C127.65,609.42,128.03,613.19,128.62,617.39z M384.96,615.24    c-0.15-0.13-0.29-0.27-0.45-0.38c-0.04-0.03-0.21,0.07-0.21,0.11c-0.12,2.18-0.22,4.36-0.35,6.91    C387.51,620.08,386.18,617.79,384.96,615.24z M346.49,559.17c0.43,1.4,0.86,2.79,1.29,4.19c0.31-0.08,0.62-0.15,0.93-0.23    c-0.29-2.36-0.59-4.71-0.88-7.07c-0.17,0.02-0.34,0.04-0.51,0.06C347.06,556.97,346.8,557.82,346.49,559.17z"/>

<path d="M437.2,270.49c-0.9,2.24-1.94,4.32-3.27,6.95c1.27-0.36,2.07-0.59,3.16-0.91c-1.69,2.56-3.26,4.92-5.09,7.68    c1.11-0.12,1.79-0.2,2.86-0.31c-1.74,2.43-3.31,4.64-5.18,7.25c1.69-0.57,3.01-1.01,4.47-1.5c-2.74,4.8-5.37,9.41-8.41,14.74    c2.62-0.62,4.34-1.03,6.4-1.52c-2.82,3.96-5.41,7.59-8.37,11.75c2.15-0.59,3.54-0.97,5.39-1.48c-2.51,4.44-4.74,8.38-7.21,12.75    c1.67-0.74,2.9-1.29,4.13-1.83c0.14,0.13,0.27,0.26,0.41,0.39c-1.49,2.14-2.97,4.28-4.66,6.71c0.94-0.19,1.65-0.33,3.31-0.66    c-2.77,4.75-5.19,8.9-7.71,13.22c0.69-0.06,1.16-0.11,1.62-0.15c0.19,0.28,0.38,0.55,0.56,0.83c-4.35,3.52-8.7,7.03-13.16,10.64    c-0.91-10.16-1.82-20.26-2.73-30.36c0.35-0.09,0.7-0.19,1.06-0.28c0.89,1.89,1.79,3.78,2.68,5.67c0.17-0.06,0.34-0.13,0.51-0.19    c0.39-6.65,0.77-13.31,1.16-19.96c0.16-0.06,0.31-0.11,0.47-0.17c0.96,2.31,1.91,4.62,3.12,7.54c0.32-6.51,0.61-12.35,0.95-19.19    c0.97,2.85,1.66,4.87,2.35,6.9c0.16-0.02,0.31-0.03,0.47-0.05c0-3.1,0-6.19,0-10.26c1.04,1.57,1.56,2.36,2.43,3.66    c0.87-5.88,1.65-11.24,2.5-16.99c0.48,1.7,0.86,3.06,1.47,5.24c0.51-3.21,0.88-5.52,1.25-7.83c0.15-0.04,0.3-0.08,0.45-0.12    c0.26,0.99,0.53,1.99,0.9,3.38c1.53-3.75,2.96-7.26,4.38-10.76c0.22,0.07,0.44,0.14,0.67,0.2c0.03,0.7,0.07,1.4,0.12,2.45    c1.56-3.37,2.99-6.46,4.61-9.95c0.14,0.98,0.22,1.52,0.37,2.52c1.34-1.54,2.5-2.88,3.51-4.04    C438.48,265,437.76,267.66,437.2,270.49z"/>

<path d="M502.34,633.86c6.19-6.34,12.22-12.5,15.31-15.67c-6.35,6.79-15.55,16.62-24.75,26.46c-0.08-0.08-0.17-0.16-0.25-0.24    C495.83,640.95,499,637.49,502.34,633.86z"/>

</g>

</g>

</svg>