<?xml version="1.0" ?>

<!-- Uploaded to: SVG Repo, www.svgrepo.com, Generator: SVG Repo Mixer Tools -->
<svg width="800px" height="800px" viewBox="-52.05 0 684.34 684.34" id="Layer_1" version="1.1" xml:space="preserve" xmlns="http://www.w3.org/2000/svg" xmlns:xlink="http://www.w3.org/1999/xlink">

<style type="text/css">
	.st0{clip-path:url(#SVGID_2_);}
	.st1{clip-path:url(#SVGID_4_);}
	.st2{clip-path:url(#SVGID_6_);}
	.st3{clip-path:url(#SVGID_8_);}
	.st4{clip-path:url(#SVGID_10_);}
	.st5{clip-path:url(#SVGID_12_);}
	.st6{clip-path:url(#SVGID_14_);}
	.st7{clip-path:url(#SVGID_16_);}
	.st8{clip-path:url(#SVGID_18_);}
	.st9{clip-path:url(#SVGID_20_);}
	.st10{clip-path:url(#SVGID_22_);}
	.st11{clip-path:url(#SVGID_24_);}
	.st12{clip-path:url(#SVGID_26_);}
	.st13{clip-path:url(#SVGID_28_);}
	.st14{clip-path:url(#SVGID_30_);}
	.st15{clip-path:url(#SVGID_32_);}
	.st16{clip-path:url(#SVGID_34_);}
	.st17{clip-path:url(#SVGID_36_);}
	.st18{clip-path:url(#SVGID_38_);}
	.st19{clip-path:url(#SVGID_40_);}
</style>

<g>

<defs>

<rect height="684.34" id="SVGID_9_" width="580.24" y="0"/>

</defs>

<clipPath id="SVGID_2_">

<use style="overflow:visible;" xlink:href="#SVGID_9_"/>

</clipPath>

<g class="st0">

<path d="M153.3,625.63c-0.08-1.79-0.16-3.58-0.28-6.4c-1.33-3.14-3.07-7.23-4.71-11.81c0.56-0.97,1.02-1.45,1.67-1.84    c0.49,0.57,0.79,1.04,1.12,1.8c6.42,15.23,13.58,29.71,23.25,43.85c-0.69-2.75-0.99-4.62-1.61-6.36    c-3.11-8.76-6.31-17.49-9.41-26.2c0.07,0.02,0.21,0.06,0.24-0.04c0.08-0.29,0.07-0.49-0.07-0.99c-0.97-5.53-3.54-9.58-7.31-12.95    c-1.38-1.23-2.33-3.01-3.48-4.53c1.5,0.52,3,1.04,4.63,1.61c-4.45-11.1-6.6-23.69-16.91-31.55c-0.04-0.31,0.09-0.46,0.09-0.46    c0.82,0.47,1.64,0.93,2.41,1.37c-1.18-12.84-7.09-23.83-11.95-35.2c-0.62-1.44-2.63-2.63-4.21-3.06c-10.93-3-21.82-6.33-32.9-8.46    c-9.76-1.88-19.76-2.33-29.75-3.43c10.93-3.15,21.98-5.63,33.36-5.95c11.36-0.32,22.41,1.86,34.34,5.77    c-5.09-9.94-9.24-19.15-14.36-27.67c-4.39-7.32-19.57-9.85-26.61-5.32c-0.77,0.5-1.52,1.03-2.85,1.94    c4.9-7.18,13.38-7.66,26.19-2.1C113,474.8,35,340.84,19.29,323.5c1.03,0.7,2.25,1.21,3.06,2.13c7.84,8.84,16.25,17.2,23.28,26.74    c24.4,33.09,48.28,66.62,72.47,99.88c2.16,2.97,5.1,5.3,7.72,7.87c6.09,5.94,12.23,11.83,18.29,17.8    c0.66,0.65,0.98,1.72,1.28,2.85c-2.47-1.94-4.75-4.14-7.03-6.34c-3.9-3.75-7.8-7.49-11.69-11.24c4.16,8.31,8.61,16.15,13.03,23.99    c4.8,8.5,9.29,17.24,14.48,25.45c2.99,4.73,7.25,8.49,10.63,12.96c1.8,2.39,2.95,5.35,4.13,8.01c-4.22-4.46-8.18-8.87-12.14-13.28    c1.81,9.31,4.7,17.63,14.44,20.48c-0.75-2.52-1.46-4.9-1.95-7.46c0.27-0.68,0.44-1.22,0.34-1.69c-2.3-10.64-5-21.1-10.69-30.37    c-1.39-2.26-2.36-4.83-3.52-7.26c0.82,0.46,1.64,0.93,3.44,1.95c-1.66-5.71-2.58-10.81-4.56-15.36    c-9.05-20.81-17.64-41.91-27.83-62.05c-11.63-22.99-24.82-45.09-40.53-65.19c-11.17-14.28-23.51-27.33-37.9-37.94    c-2.07-1.53-3.81-3.58-5.77-5.51c-0.07-0.13,0.22-0.08,0.36-0.13c0.4-0.18,0.66-0.31,0.92-0.45c3.18,1.13,6.61,1.78,9.52,3.48    c22.3,13.03,40.9,30.93,56.96,51.93c8.46,11.07,16.33,22.67,24.97,33.97c-8.82-24.88-17.63-49.77-26.42-74.56    c-7.92-2.21-15.04-4.21-22.17-6.2c0.03-0.22,0.05-0.43,0.08-0.65c6.11,0.44,12.21,0.88,18.68,1.35    c-5.12-10.99-10.02-22.03-15.34-32.83c-6.62-13.44-13.54-26.71-20.4-40.01c-5.08-9.84-10.27-19.62-15.32-29.67    c0.09-0.24,0.02-0.17,0.02-0.17c2.09,1.87,4.17,3.74,5.46,4.9c5.66,8.58,10.74,16.27,15.35,23.26c2.31,3.9,4.35,6.93,5.99,10.2    c10.53,20.93,20.98,41.92,31.45,62.89c0.56,1.12,1.08,2.27,1.83,3.84c17.71,3.92,31.76,16,46.32,27.01    c0.3-0.26,0.59-0.53,0.89-0.79c-2.47-8.91-4.94-17.82-7.41-26.73c0.31-0.11,0.61-0.22,0.92-0.33c2.29,7.21,4.79,14.34,6.79,21.64    c1.09,3.98,2.5,7.01,6.09,9.2c3.08,1.88,5.42,5.15,8.13,7.75c2.27,2.17,4.61,4.26,7.27,6.11c-4.95-16.64-14.83-30.02-24.99-43.05    c-10.06-12.89-22.54-22.72-36.46-30.43c7.16,1.94,13.64,5.41,19.79,9.75c1.36,0.96,3.03,1.43,4.68,1.73    c0.32-0.59,0.51-0.78,0.71-0.97c7.55,8.61,15.18,17.16,22.62,25.88c2.39,2.8,4.32,6.06,6.56,9.25c1.62-4.14-1.92-17.85-7.84-31.01    c-5.4,0-10.92,0-16.43,0c-0.02-0.25-0.04-0.5-0.06-0.75c5.2-0.32,10.39-0.64,16.05-0.99c-5.16-15.16-11.78-29.69-19.34-44.09    c0.44-0.79,0.74-1.17,1.04-1.55c1.75,2.38,3.78,4.58,5.19,7.17c6.48,11.92,12.79,23.95,18.82,35.29    c7.92,1.06,15.85,1.76,23.64,3.27c5.56,1.08,9.48,4.79,11.39,10.93c1.6,5.17,3.78,10.13,5.71,15.18c0.32-0.13,0.64-0.26,0.96-0.39    c-1.01-3.08-1.84-6.24-3.06-9.22c-5.2-12.61-10.42-25.22-15.87-37.7c-1.38-3.15-3.62-5.86-5.47-8.78c-0.34-0.53-0.92-1-1.01-1.57    c-0.89-6.11-5.05-9.98-8.33-14.47c-0.81-1.11-1.13-2.65-1.68-4c0.34-0.28,0.68-0.57,1.02-0.85c4.19,5.13,8.38,10.27,14.19,17.4    c9.21,5.96,20.26,13.87,29.72,24.08c2.6,2.18,5.2,4.36,8.18,6.86c-0.96-2.22-1.77-4.1-2.59-5.97    c-9.42-6.44-23.54-27.08-21.9-33.27c4.99,4.69,9.7,9.12,14.7,13.82c-0.26-1.16-0.37-2.67-0.93-3.96c-1.39-3.2-2.99-6.29-4.54-9.91    c-0.24-0.61-0.44-0.73-0.65-0.85c0,0,0,0.01,0.04-0.27c-0.19-0.75-0.43-1.21-0.67-1.67c-0.2-2.7-0.13-5.46-0.66-8.08    c-1.04-5.18-2.41-10.29-3.64-15.42c0.41-0.23,0.83-0.46,1.24-0.68c-0.09,0.58-0.17,1.16-0.26,1.74c0.38-0.24,0.76-0.48,1.14-0.71    c-0.1-1.98-0.2-3.95-0.34-6.9c8.34,13.32,16.24,25.94,24.6,39.3c-2.17-7.24-4.1-13.68-6.03-20.12c0.18-0.1,0.37-0.2,0.55-0.31    c0.67,1.05,1.34,2.11,2.63,4.14c0-7.64,0.04-14.23-0.05-20.83c-0.01-0.92-0.53-1.98-1.09-2.73c-9.4-12.61-18.87-25.17-28.25-37.79    c-1.31-1.77-2.28-3.84-3.31-6.18c0.22-0.59,0.34-0.79,0.43-1.17c-0.01-0.18,0.09-0.54,0.07-0.52c-0.01,0.02-0.05,0.05-0.05,0.05    c4.52,4.14,9.16,8.13,13.53,12.45c7.65,7.57,15.44,15.03,22.58,23.15c5.3,6.03,9.66,13.02,14.43,19.6    c0.71,0.98,1.35,2.01,2.75,2.77c-0.81-4.83-1.62-9.65-2.44-14.48c-0.86-5.06-1.91-10.08-2.57-15.17    c-0.53-4.07-2.28-7.1-4.52-10.45c-9.09-13.6-18.69-27.03-24.18-42.94c-4.05-11.73-7.22-23.82-10.75-35.76    c-0.14-0.46-0.02-1-0.02-1.93c14.78,17.9,26.28,37.52,34.2,59.65c-0.44-2.63-0.63-5.33-1.36-7.86c-1.95-6.79-4.1-13.52-6.22-20.25    c-0.3-0.95-0.61-2.12-1.28-2.68c-7.34-6.16-9.76-15.47-13.31-24.05c-3.31-7.99-6.57-16.01-9.79-24.04    c-0.53-1.33-0.72-2.83-1.18-4.71c18.5,14.59,33.15,30.9,30.27,57.98c2.53-21.64-0.15-49-14.75-63.97    c-8.06-0.63-28.71-12.97-29.3-17.27c11.83-1.69,21.78,2.64,30.3,11.68c-1.5-6.4-7.07-8.86-10.89-12.33    c-3.89-3.54-10.1-4.11-16.29-6.33c2.58-0.49,4.22-0.8,5.31-1.01c-3.72-2.59-7.79-5.42-11.85-8.25c0.07-0.5,0.13-0.99,0.2-1.49    c3.65-0.85,7.31-1.71,11.24-2.63c-4.49-2.33-9.01-4.69-13.15-6.84c-0.69-1.73-1.22-3.04-2.06-5.14c2.55,0,4.9,0,7.74,0    c-2.02-2.55-3.9-4.91-5.77-7.27c-0.16,0.15-0.33,0.29-0.49,0.43c0.32,0.63,0.64,1.25,1.02,2.01c-2.41,2.41-4.43,1.63-6.71-0.79    c1.02-0.69,1.84-1.26,2.79-1.91c-0.69-0.83-1.47-1.78-2.87-3.49c1.86-0.22,2.95-0.34,4.56-0.53c0.11-0.16,0.58-0.87,1.28-1.92    c1.98,2.85,3.89,5.59,5.82,8.35c1.44-2.91,2.61-5.26,4.05-8.16c4.34,5.32,3.99,11.61,6,17.12c-0.15-3.26-0.31-6.51-0.46-9.77    c0.29-0.04,0.57-0.09,0.86-0.13c0.71,1.55,1.42,3.11,2.3,5.03c0.16-1.14,0.27-1.99,0.49-3.57c0.41,1.18,0.61,1.76,0.85,2.47    c0.3-0.97,0.59-1.88,1.13-3.61c3.7,5.9,4.47,11.98,5.32,18.51c0.41-3.1,0.76-5.76,1.12-8.42c0.27-0.04,0.54-0.07,0.81-0.11    c0.37,1.97,0.74,3.95,1.17,6.25c0.12-3.02,0.24-5.76,0.35-8.49c8.13,9.94,11.56,29.59,7.24,36.29c0.58,1.9,1.17,3.84,1.81,5.92    c-0.5,1.07-1.02,2.2-1.59,3.44c1.75,2.78,3.55,5.63,5.34,8.48c-2.56-6.36-2.82-13.03-2.08-19.67c0.74-6.67,2.07-13.26,3.14-19.88    c0.38-0.02,0.76-0.03,1.14-0.05c0.71,2.68,1.43,5.35,2.14,8.03c0.12-0.02,0.23-0.03,0.35-0.05c-0.2-2.42-0.39-4.84-0.68-8.43    c0.74,1.2,0.93,1.5,1.25,2.02c0.19-0.75,0.34-1.38,0.5-2.04c0.17,0.15,0.46,0.27,0.47,0.43c0.7,9.6,1.77,19.2,1.95,28.82    c0.15,7.86-0.54,8.44-4.94,13.34c2.29,8.99,4.53,17.8,6.57,25.81c1.03-7.06,2.2-15.1,3.37-23.15c0.44,0.06,0.88,0.12,1.32,0.18    c-0.89,8.64-1.78,17.29-2.67,25.93c0.24,0.04,0.49,0.09,0.73,0.13c1.13-4.52,2.26-9.05,3.39-13.57c0.34-0.3,0.68-0.6,1.03-0.9    c0.29,0.88,0.57,1.76,1.07,3.3c0.25-2.29,0.41-3.75,0.57-5.22c1.93,11.91,1.76,23.86,1.03,35.78c-0.9,14.77-1.87,29.55-3.42,44.25    c-1.02,9.66,2.36,18.45,3.36,27.69c0.99,9.17,2.64,18.25,4.12,27.35c0.28,1.72,0.92,3.45,1.72,4.98    c3.08,5.9,6.29,11.71,9.73,18.07c0.15-2.22,0.38-4.06,0.38-5.89c0.06-18.06-0.58-36.15,0.33-54.15    c0.73-14.46,3.33-28.81,5.12-43.2c1.35-10.84,2.78-21.67,4.07-32.52c2.11-17.75,6.1-34.98,10.85-49.29    c-2.44,19.04-5.2,40.63-7.96,62.22c0.37,0.1,0.74,0.21,1.11,0.31c0.44-1.03,0.96-2.03,1.32-3.09    c4.46-13.04,11.08-24.74,19.39-35.24c3.1-3.92,7.21-6.89,11.17-10.55c0.51-0.37,0.61-0.54,0.62-0.79c0,0,0.04,0.01,0.21-0.07    c0.38-0.22,0.52-0.42,0.58-0.68c0,0-0.02-0.01,0.14-0.04s0.34-0.33,0.34-0.33s-0.2-0.29-0.2-0.29c1.87-1.97,3.66-4.05,5.65-5.86    c0.65-0.59,1.83-0.52,2.97-0.53c0.21,0.22,0.33,0.42,0.38,0.62c1.08-0.05,2.11-0.3,3.21-0.62c0.17-0.17,0.27-0.26,0.42-0.48    c0.03-0.15,0.32-0.19,0.33-0.19s0,0,0,0c-0.29,0.97-0.32,2.21-0.91,2.88c-17.61,20.11-27.38,44.8-34.33,70.79    c-3.98,14.87-6.47,30.26-8.77,45.57c-0.82,5.48,0.83,11.4,1.46,17.11c1.13,10.21,2.34,20.41,3.54,30.61    c0.08,0.7,0.35,1.38,1.35,2.05c1.17-19.53,2.33-39.06,3.43-57.46c6.4,53.96,0.09,108.82-2.92,164.36c0.7-0.53,1.55-0.83,1.87-1.46    c5.76-11.34,11.49-22.7,17.14-34.1c0.46-0.93,0.54-2.19,0.51-3.3c-0.17-6.57-0.32-13.14-0.68-19.69    c-0.63-11.67-1.19-23.35-2.22-34.98c-0.47-5.28-1.97-10.46-2.97-15.49c4.22,2.21,11,13.87,11.91,20.8    c1.63-4.98,1.63-17.08,0.94-24.82c-1.79-20.13-3.17-40.3-4.69-60.46c-0.08-1.12-0.01-2.25-0.01-4.44    c6.62,12.32,10.63,24.39,11.88,37.62c1.26,13.34-1.31,26.21-3.47,40.38c12.6-16.64,24.57-32.46,36.55-48.27    c0.22,0.15,0.45,0.3,0.67,0.45c-0.1,0.69,0.03,1.67-0.34,2.02c-6.24,5.93-6.69,14.84-9.94,22.3c-3.72,8.55-7.42,17.13-10.8,25.85    c-3.98,10.24-7.62,20.64-10.7,29.07c2.83,12.86,5.23,23.77,7.63,34.66c1.13-1.83,2.5-4.04,3.87-6.25    c-3.34,7.07-5.31,14.26-2.63,22.31c1.24-1.17,2.69-2.55,4.53-4.31c1.21,6.47-7.46,6.72-6.39,12.85c0.69-0.25,1.22-0.45,1.33-0.49    c0,10.51,0,21.16,0,31.86c0.52-0.27,1.58-0.8,2.58-1.25c-0.77,1.77-1.47,3.46-2.2,5.14c-2.05,4.66-4.8,9.12-5.97,14.02    c-1.14,4.75-0.57,9.96-0.92,14.95c-0.41,5.67-0.61,11.42-1.65,16.97c-1.01,5.42-2.95,10.64-4.49,15.94    c0.51,0.21,1.01,0.42,1.52,0.63c1.31-3.27,2.96-6.44,3.86-9.84c2.54-9.54,4.5-19.26,7.18-28.75c3-10.6,4.48-21.39,4.81-32.41    c1.28-6.86,2.52-13.73,3.84-20.59c5.58-29.18,13.26-57.65,24.72-84.83c0.14-0.34,0.41-0.61,0.94-0.83    c-12.37,36.5-20.57,74.04-24.32,112.89c0.72-1.25,1.48-2.46,2.16-3.74c9.91-18.84,21.33-36.52,35.09-52.32    c4.88-5.61,10.57-10.39,15.72-15.75c1.55-1.61,3.12-3.72,3.64-5.89c2.39-9.92,4.04-20.06,6.69-29.9    c2.24-8.34,5.04-16.58,8.44-24.44c1.95-4.5,5.59-8.14,9.2-11.75c-0.42,19.85-7.79,37.21-15.3,54.65c0.61-0.62,1.27-1.18,1.81-1.86    c3.3-4.22,6.4-8.64,9.9-12.65c5.6-6.41,7.44-14.31,8.84-22.62c0.75-4.45,2.51-8.7,3.81-13.05c0.29,0.07,0.57,0.15,0.86,0.22    c-0.12,1.09-0.23,2.18-0.47,4.38c0.98-2.07,1.48-3.14,1.98-4.2c0.31-0.02,0.62-0.05,0.93-0.07c0.32,2.44,0.64,4.88,0.97,7.32    c-0.18-0.07-0.36-0.15-0.55-0.22c1.51-4.3,3.02-8.59,4.54-12.89c0.49,0.08,0.98,0.15,1.46,0.23c0.34,1.96,0.69,3.93,1.05,6.02    c1.66-4.33,1.56-9.65,6.23-13.14c1.21,2.94,2.31,5.61,3.87,9.39c0.57-5.71,1.06-10.63,1.55-15.54c1.7-0.23,2.67-0.37,4.19-0.58    c0,3.3,0,6.54,0,10.14c1.13-0.09,1.87-0.14,2.79-0.03c-0.02,0.82-0.2,1.48-0.39,2.14c-0.6,0.9-1.19,1.8-1.85,2.79    c2.55,0.5,4.84,0.96,7.45,1.47c-0.53,4.46-4.05,4.9-6.69,6.27c-2.71,1.41-5.52,2.59-8.78,4.1c3.99,0.74,7.25,1.34,11.61,2.15    c-1.44,1.72-2.24,3.46-3.52,4.07c-5.59,2.69-11.32,5.05-16.97,7.52c-1.18-2-2.08-3.54-2.6-4.42c-3.74,3.3-7.34,6.24-10.67,9.5    c-1.39,1.36-2.2,3.42-2.93,5.66c9.32-8.09,19.14-13.81,31.6-10.53c-1.31,0.13-2.54,0.25-3.77,0.37c0,0.11,0,0.21,0.01,0.32    c2.34,0,4.68,0,7,0c-2.57,5.85-26.71,16.48-34.82,15.14c-0.34-1.04-0.73-2.22-1.37-4.19c-3.64,4.34-7.2,8.25-10.38,12.48    c-3.2,4.25-6.04,8.83-8.9,13.53c13.85-7.3,28.07-12.29,43.44-9.79c-0.06,0.02-0.39,0.14-1.53,0.53c4.19,0.34,7.62,0.55,11.02,0.91    c3.39,0.37,6.77,0.89,10.18,1.66c-21.75,8.56-44.56,11.46-67.59,14.8c-5.59,18.31-8.82,37.01-12.15,54.66    c7.94-4.7,16.07-9.95,24.59-14.33c3.9-2,8.56-2.27,12.87-3.34c1.38-0.34,2.75-0.71,4.12-1.07c0.07,0.35,0.14,0.7,0.21,1.05    c-2.07,0.7-4.17,1.33-6.22,2.1c-11.77,4.45-21.68,11.96-30.88,20.99c-5.3,5.2-8.45,10.87-9.06,18.6    c-0.55,6.88-1.87,13.69-2.69,20.73c0.16,0.2,0.14,0.17,0.14,0.17c-1.07,6.91-2.15,13.82-3.37,21.73    c4.31-3.95,7.82-7.72,11.82-10.72c10.46-7.83,20.97-15.59,31.77-22.84c7.75-5.19,14.91-10.93,21.35-17.95    c15.29-16.66,33.12-28.76,54.68-33.57c3.28-0.73,6.66-0.92,10.19-0.6c-12.08,5.1-24.51,8.97-35.48,16.67    c-11.17,7.84-21.23,16.97-29.33,27.2c7.12,0.91,15.05,0.86,22.35,3.14c7.37,2.31,14.13,6.93,20.78,11.23    c-6.2-1.91-12.32-4.31-18.63-5.64c-12.63-2.66-25.14-0.91-36.45,5.39c-4.71,2.62-7.79,8.63-11.3,13.41    c21.17-1.58,32.62,1.25,40.57,10.56c-12.55-9.98-26.49-11.53-41.9-8.24c-4.31,9.56-8.71,19.34-13.42,29.79    c16.98-5.18,33.43-5.74,50.02-2.05c2.5-2.06,4.98-4.1,7.46-6.14c0.26,0.3,0.53,0.59,0.79,0.89c-1.4,1.92-2.8,3.83-4.26,5.84    c16.18,6.77,28.96,18.35,39.41,33.19c-12.59-13.46-27.56-21.77-45.46-25.11c-4.73,6.48-9.48,12.99-14.56,19.96    c6.47,0.87,12.16,1.42,17.78,2.42c18.47,3.27,35.92,9.59,51.59,20.9c4.68,3.37,9.39,6.81,13.56,10.86    c10.51,10.2,21.14,20.35,28.61,33.73c-32.05-39.77-74.18-53.92-121.75-56.61c-5.1,8.96-10.17,17.85-14.95,26.25    c11.02-2.81,21.94-6.21,33.08-8.26c10.18-1.88,20.46-1.57,29.2,4.77c-4.07-1.19-8.48-3-13.05-3.73    c-12.62-2.03-24.67,1.6-36.45,5.71c-18.99,6.63-14.35,3.43-23.43,22.48c-0.59,1.24-1.01,2.57-1.59,4.07    c5.24-0.69,10.39-1.51,14.02,4.93c-13.9,19.74-27.46,39.85-32.13,64.83c0.58,0.26,1.15,0.52,1.73,0.79    c1.17-3.81,2.38-7.61,3.51-11.43c1.04-3.51,1.87-7.11,3.06-10.56c0.46-1.34,1.67-2.37,3.16-3.2c-0.93,3.25-1.86,6.5-2.79,9.75    c0.19,0.07,0.37,0.14,0.56,0.2c0.52-1.2,1.04-2.4,1.67-3.85c0.98,0.45,1.88,0.87,3.19,1.47c0.91-1.34,1.87-2.75,3.06-4.48    c0.63-0.55,1.04-0.77,1.45-0.99c-1.21,3.24-2.35,6.53-3.66,9.72c-1.77,4.3-3.69,8.54-5.57,12.87c0.59,0.8,1.09,1.47,1.68,2.27    c0.36-0.48,0.56-0.75,0.76-1.01c3.24-4.17,6.61-8.24,9.69-12.54c5.42-7.56,10.4-15.51,16.07-22.84c6.03-7.8,12.43-15.3,19.07-22.5    c9.63-10.45,21.14-13.35,34.15-8.48c3,1.12,5.93,2.48,8.61,4.57c-2.99-1.08-6.02-2.04-8.96-3.25c-11.3-4.66-20.94-1.62-29.58,6.99    c-11.01,10.98-20.04,23.77-29.15,36.5c-4.59,6.42-9.3,12.75-14.01,19.08c-6.45,8.67-9.38,18.74-10.51,29.97    c2.85-2.58,3.12-3.57,5.99-18.83c0,2.53,0,5.07,0,7.6c0.21,0.02,0.43,0.03,0.64,0.05c2.61-4.59,5.22-9.19,8.04-14.17    c-0.52-0.29-1.13-0.63-1.74-0.97c0.13-0.22,0.25-0.44,0.38-0.65c1.02,0.32,2.05,0.65,3.88,1.23c2.41-2.8,5.06-6.11,7.93-9.17    c4.8-5.13,9.53-10.36,14.69-15.05c2.59-2.36,6.05-3.6,9.52-4.73c-2.66,2.35-5.55,4.47-7.94,7.1    c-7.84,8.63-15.51,17.45-23.21,26.23c-0.44,0.51-0.56,1.35-0.95,2.39c-0.18,0.52-0.18,0.69-0.14,0.86    c-0.87,2.21-1.52,4.56-2.66,6.6c-1.76,3.17-3.96,6.06-5.77,9.2c-2.33,4.05-3.82,8.38-2.35,13.38c0.92-3.25,1.85-6.5,2.77-9.74    c0.11,0.02,0.22,0.03,0.33,0.05c0,2.13,0,4.26,0,6.52c1.05,0.5,1.99,0.95,3.45,1.64c1.84-4.21,3.62-8.3,5.41-12.4    c0.12,0.04,0.24,0.08,0.35,0.12c-1.17,4.32-2.34,8.64-3.51,12.97c0.23,0.22,0.46,0.44,0.69,0.66c2.1-2.83,4.49-5.46,6.23-8.53    c7.19-12.67,16.37-23.33,27.24-32.34c0.62-0.51,1.33-0.87,2.48-1.61c-5.64,6.51-11.11,12.31-16.03,18.6    c-11.1,14.18-12.61,17.27-11.04,19.23c-0.67,2.38-1.26,4.48-2,7.09c1.56,0.11,2.53,0.19,3.6,0.26c0.68-2.07,1.27-3.87,1.85-5.67    c0.55-1.68,1.09-3.36,2.16-4.89c-0.63,2.74-1.26,5.47-1.96,8.51c0.34,0.75,0.79,1.74,1.3,2.88c0.99,0.11,2.03,0.22,3.08,0.34    c0.06,0.37,0.12,0.74,0.18,1.11c-5.98,1.31-11.92,3.32-17.96,3.8c-23.91,1.92-47.83,3.98-71.78,4.84    c-30.17,1.08-60.39,1.65-90.57,1.29c-31.25-0.37-62.52-1.55-93.52-6.62c-3.29-0.54-6.54-1.46-9.75-2.4    c-1.16-0.34-2.18-1.25-3.72-2.17c1.28-1.54,2.2-2.65,3.14-3.78c1.19,0.76,2.35,1.5,3.72,2.38c0-2.36,0-4.31,0-6.26    c0.13-0.02,0.25-0.03,0.38-0.05c0.35,1.94,0.7,3.88,0.98,5.43c1.08-0.37,2.11-0.72,3.28-1.12c-0.68-3.4-1.43-7.1-2.17-10.8    c0.3-0.1,0.61-0.2,0.91-0.3c1.27,3.95,2.53,7.91,3.8,11.88c1.06-0.62,2.16-1.26,3.36-1.96c-1.42-4.28-2.84-8.57-4.45-13.41    c5.06,3.74,3.85,11.83,10.32,14.18c-3.18-10.39-6.53-20.33-12.05-29.71C153.71,625.93,153.5,625.78,153.3,625.63z M363.7,529.38    c0.08-0.19,0.16-0.39,0.49-0.78c0.24-0.07,0.36-0.24,0.68-0.93c0.98-2.35,1.95-4.7,2.93-7.06c-0.17-0.07-0.34-0.14-0.52-0.21    c-1.35,1.29-2.7,2.59-4,3.33c4.38-5.76,6.48-12.23,4.85-19.38c-0.29,0.37-1.1,1.12-1.62,2.07c-4.93,8.96-9.85,17.93-14.67,26.97    c-0.6,1.12-0.56,2.65-0.78,3.99c0,0-0.01-0.04-0.36,0.11c-0.13,0.22-0.27,0.45-0.85,0.97c-0.85,2.86-1.71,5.72-2.56,8.57    c0.46,0.23,0.93,0.47,1.39,0.7c1.02-1.22,2.23-2.31,3.03-3.68c2.03-3.44,3.88-7.01,6.06-10.93c0.84-0.91,1.69-1.81,2.66-2.87    c0.1-0.18,0.13-0.38,0.11-1.07c0.43-0.1,0.86-0.2,1.65-0.29c0.12,0,0.24,0,0.64,0.25C363.04,529.28,363.24,529.41,363.7,529.38z     M364.17,560.96c0,0,0.07,0.38-0.15,0.96c-0.54,1.78-0.95,3.62-1.65,5.33c-1.62,3.99-3.37,7.92-5.06,11.88    c2.7-3.34,5.03-6.78,7.12-10.38c2.43-4.18,6.18-7.97,4.32-13.54c-1.17,1.2-2.3,2.35-3.71,3.39c-0.19,0.1-0.33,0.25-0.79,0.47    c-0.13-0.01-0.26-0.01-0.57,0.02c0,0-0.17,0.04-0.43-0.49c0.69-1.4,1.08-3.18,2.13-4.12c4.14-3.71,3.86-8.47,3.34-13.79    c-1.95,2.46-4.23,4.34-5.27,6.82c-2.73,6.48-4.92,13.23-7.29,19.88c-0.06,0.17,0.37,0.54,0.95,0.98c1.42-1.41,2.94-2.72,4.23-4.25    c0.81-0.96,1.27-2.27,2.27-3.53c0.13-0.01,0.26-0.01,0.4,0.03C364,560.61,364.05,560.6,364.17,560.96z M209.37,380.24    c-1.6-1.84-3.2-3.68-5.04-5.8c-0.45,1.2-0.75,1.96-1.17,3.08c2.29,1.48,4.48,2.89,6.98,4.66c1.17,0.92,2.33,1.84,3.67,2.9    c0.41-4.56,0.38-4.61-3.78-6.43C209.98,379.17,209.93,379.67,209.37,380.24z M278.52,466.59c-0.24,0.09-0.48,0.18-1.18,0.54    c-2.31,6.03-2.53,9.24-0.97,15.01c0.21-1.92,0.35-3.69,0.61-5.44C277.46,473.44,278.01,470.19,278.52,466.59z M229,441.6    c0.84,2.3,1.68,4.61,2.52,6.91c0.44-0.12,0.88-0.23,1.32-0.35c-0.4-2.33-0.4-4.86-1.27-6.96c-2.27-5.42-4.92-10.66-7.43-15.96    c-0.25-0.53-0.59-1-1-1.67c-0.12,1.44-0.22,2.62-0.54,3.28c-2.27-4.38-4.55-8.77-6.82-13.15c-0.18,0.11-0.36,0.22-0.53,0.34    c-0.4-1.81-0.8-3.62-1.31-5.92c-0.75,1.72-1.3,2.97-1.75,3.99c3.03,16.87,6.01,33.48,9,50.09c-0.19,0.05-0.38,0.09-0.56,0.14    c-0.55-0.99-1.11-1.98-1.66-2.98c-0.35,0.23-0.71,0.47-1.06,0.7c3.05,5.4,6.11,10.81,9.16,16.21c0.27-0.12,0.53-0.24,0.8-0.36    c0.75-4.49,1.51-8.98,2.37-14.16c-2.32-4.33-4.97-9.03-7.4-13.86c-2.48-4.94-3.85-10.22-4.22-16.81    c4.58,9.94,8.66,18.79,12.71,27.58c-0.05-0.45-0.03-1.09-0.19-1.68c-1.1-4.15-2.23-8.3-3.15-12.95    C228.17,443.14,228.36,442.25,229,441.6z M255.05,383.01c-0.22,1.72-0.45,3.44-0.67,5.16c0.2,0.04,0.39,0.08,0.59,0.12    c1.55-2.99,3.09-5.98,4.64-8.97c-0.24-0.14-0.48-0.28-0.71-0.42c-1.28,1.21-2.56,2.43-3.92,3.08c1.03-1.7,2.05-3.39,3.09-5.11    c-1.83-5.56-3.64-11.05-5.64-17.1c0.45,7.52,0.83,14.41,1.32,21.29C253.79,381.54,254.68,381.95,255.05,383.01z M208.45,531.56    c0.45,1.57,0.9,3.13,1.35,4.7c1.69,5.87,3.36,11.74,5.07,17.6c0.2,0.67,0.64,1.26,0.97,1.89c-0.99-7.77-2.41-15.37-4.12-22.89    c-0.18-0.8-2.08-1.14-3.44-2.22c-2.4-11.86-4.8-23.72-7.01-34.66c-1.05,6.56-0.88,14,1.92,21.18    C205,521.78,206.84,526.4,208.45,531.56z M397.15,492.55c-2.09,0.69-4.19,1.38-6.59,2.17c-1.1,5.84-2.23,11.86-3.43,18.19    c2.28-0.77,4.18-1.42,6.1-2.07c1.46-6.45,2.88-12.73,4.66-19.26c1.38-6,2.77-12,4.19-18.16c-10.21,2.56-8.43,12.29-11.06,20.14    C393.51,492.91,395.53,492.37,397.15,492.55z M315.25,463.59c-7.66,7.57-7.13,17.96-8.08,27.85c2.19-6.5,4.38-13,6.57-19.49    c0.18,0.08,0.35,0.16,0.53,0.23c-1.47,6.42-2.93,12.84-4.4,19.26c0.39,0.12,0.77,0.23,1.16,0.35c0.38-0.74,0.91-1.44,1.11-2.24    c1.29-5.01,2.64-10,3.73-15.06c1.09-5.05,1.9-10.17,2.98-15.88c1.22-6.27,2.44-12.54,3.67-18.81c-0.28-0.1-0.56-0.2-0.84-0.29    c-2.96,7.65-5.92,15.31-9.04,23.38C313.92,462.96,314.58,463,315.25,463.59z M243.37,483.76c-3.11-1.39-4.16-4.16-4.74-7.53    c-0.47-2.72-1.07-5.68-4.46-6.87c0.58,6.66,1.14,12.97,1.69,19.28c0.34-0.01,0.67-0.02,1.01-0.02c0.3-1.02,0.6-2.05,1.1-3.73    c4.02,5.7,2.11,11.82,2.32,17.51c0.32-0.03,0.64-0.06,0.97-0.09c0.12-2.25,0.24-4.5,0.42-7.66c1.06,4.65,1.9,8.35,2.98,13.1    c1.85-8.64,0.17-16.04-0.22-23.37c0.29-3.9,1.39-7.98,0.69-11.66c-1.03-5.42-3.33-10.55-5.21-16.16    c-0.47,0.92-0.73,1.42-1.04,2.03c-0.5-1.32-0.96-2.53-1.41-3.74c-0.26,2.06-0.46,4.15,0.03,6.03    C239.52,468.68,241.75,476.43,243.37,483.76z M206.32,501.42c1.44,2.87,2.88,5.74,4.28,8.55c-0.75-9.06-2.14-18.3-2.09-27.54    c0.04-8.1-3.25-14.54-6.27-21.33c-0.14,0.93-0.07,1.81,0.02,2.68c0.7,6.89,1.38,13.78,2.12,20.67c0.55,5.15,1.19,10.29,1.27,15.35    c-0.67-0.22-1.35-0.45-2.2-0.73c2.86,8.6,2.48,18.03,6.32,26.18c0.41-0.11,0.81-0.22,1.22-0.33    C209.23,517.03,207.46,509.16,206.32,501.42z M157.58,585.2c1.87,4.75,3.73,9.49,5.55,14.11c0-2.4,0-5.01,0-7.58    c-1.07-1.97-2.26-4.17-2.96-6.23c0.2,0.09,0.42,0.28,0.6,0.25c0.14-0.02,0.38-0.32,0.36-0.47c-0.52-6.72,1.32-14.22-5.38-18.94    c-0.86-0.61-1.42-1.7-2.18-2.51c-2.99-3.2-6-6.37-9-9.56c1.39,7.08,3.21,13.63,5.11,20.15c0.3,1.05,0.79,2.14,1.46,2.93    C153.27,579.85,155.51,582.22,157.58,585.2z M415.28,548.39c-6.37-0.87-10.87,2-10.72,7.94c-1.6,4.24-3.28,8.46-4.79,12.74    c-1.51,4.28-2.89,8.62-4.27,12.95c-1.32,4.13-2.56,8.28-3.84,12.43c0.38,0.17,0.75,0.35,1.13,0.52    c5.71-16.97,15.95-30.75,27.55-44.48C418.01,549.72,416.8,549.32,415.28,548.39z M234.25,375.45c1.84,7.06,3.69,14.13,5.53,21.19    c0.31-0.09,0.61-0.19,0.92-0.28c-0.23-1.49-0.46-2.98-0.21-4.84c0.49-3.55,1.42-7.11,1.37-10.64c-0.08-5.45,0.54-11.65-1.59-16.18    c-3.96-8.43-9.69-15.88-14.68-23.74c-0.32,0.18-0.64,0.35-0.95,0.53c1.39,4.28,2.9,8.53,4.15,12.86    C230.74,361.14,232.53,368,234.25,375.45z M349.31,514.31c0.11,0.46,0.22,0.92,0.29,1.97c-4.88,11.99-4.88,11.99-3.2,19.75    c7.04-12.84,14.32-26.12,21.49-39.21c0-3.25,0-6.46,0-9.94c-1.05,1.22-1.99,2.31-2.97,3.45c-0.63-0.4-1.13-0.73-1.39-1.5    c1.27-3.99,6.07-6.39,4.53-12.29c-12.14,15.03-21.49,31.31-28.56,49.14c5.92-9.54,11.64-19.22,17.58-28.73    c1.43-2.29,3.64-4.03,5.55-5.48c-0.02,0.89,0.28,2-0.1,2.65c-3.4,5.8-6.9,11.54-10.43,17.25c-0.4,0.65-1.19,1.02-2.13,1.5    l-0.29,0.17c0,0,0.01,0.35-0.14,0.67C349.56,513.69,349.6,514.05,349.31,514.31z M376.77,539.37c0.31,2.46,1.03,4.94,0.87,7.36    c-0.44,6.57-1.26,13.11-1.92,19.55c4.78-3.34,8-7.52,8.74-13.95c0.88-7.58,2.48-15.07,3.89-22.57c1.01-5.42,2.22-10.8,3.47-16.86    c-3.51,1.88-6.54,3.5-9.58,5.13c0.09,0.24,0.18,0.48,0.28,0.72c1.16-0.37,2.32-0.74,3.48-1.11c-1.31,1.44-2.82,2.51-4.46,3.2    c-2.75,1.16-4.07,2.97-4.1,6.35c-0.03,3.96-0.69,7.92-1,12.61c-0.96,3.9-1.91,7.81-2.87,11.71c0.49,0.1,0.97,0.2,1.46,0.31    C375.48,547.57,375.92,543.31,376.77,539.37z M271.61,286.07c-0.22-0.98-0.22-2.11-0.7-2.91c-2.95-4.97-6.01-9.86-9.63-15.73    c1.01,12.86,1.92,24.6,2.85,36.43c2.54-6.03,4.92-11.66,7.45-16.69c-0.12,1.01-0.06,2.09-0.38,3.03    c-5.57,16.81-9.03,33.88-6.91,51.93c1.26,10.72,1.9,21.52,2.86,32.78c0.56-2.71,1.19-5,1.49-7.35c2.35-18.56,4.73-37.11,6.89-55.7    C276.56,303.07,275.81,294.47,271.61,286.07z M322.23,339.7c-1.16,2.46-2.85,4.8-3.38,7.41c-1.91,9.47-3.64,18.99-5.04,28.56    c-1.23,8.35-1.93,16.79-2.87,25.19c-0.17,1.52-0.4,3.03-0.6,4.54c0.29,0.13,0.59,0.25,0.88,0.38c1.32-2.21,2.8-4.32,3.92-6.64    c4.3-8.9,9.95-17.27,9.02-28.2c-0.19-2.21,0.52-4.6,1.18-6.77c1.83-6.05,3.32-12.31,5.95-17.95c2.33-5.01,3.46-9.72,2.38-15.49    c-1.38,0.47-2.33,0.79-2.69,0.69c0.68-1.39,1.37-2.78,2.27-4.61c-1.33-6.95-2.73-14.33-4.29-22.48    c-4.4,11.89-8.09,22.88-8.52,34.72C321.22,339.1,321.81,339.15,322.23,339.7z M339.54,492.7c0.13,2.95,0.26,5.89,0.39,8.9    c0.58-0.97,1.23-1.98,1.82-3.02c7.27-12.97,14.88-25.67,24.34-37c1.54-1.84,2.44-4.65,2.89-7.16c1.4-7.93,2.29-15.97,3.68-23.9    c0.8-4.57,2.19-9.02,3.32-13.52c-0.3-0.18-0.61-0.35-0.91-0.53c-4.44,8.08-9.35,15.91-13.22,24.31    c-7.81,16.97-15.05,34.25-22.75,51.94c-1.59,4.56-3.17,9.12-4.76,13.69c0.33,0.12,0.66,0.24,0.99,0.37    C338.64,502.55,339.2,497.41,339.54,492.7z M411.6,503.9c-2.84,0.73-5.66,1.54-8.51,2.18c-3.17,0.71-4.05,2.99-3.98,6.14    c0.76-0.13,1.43-0.24,2.03,0.1c-1.12,1.33-2.87,2.48-3.26,4.03c-1.63,6.35-3.29,12.76-4.11,19.27    c-0.74,5.91-3.75,11.66-1.55,18.08c0.88-0.51,1.65-1.17,2.52-1.41c4.84-1.35,7.63-4.63,9.58-9.65c2.46-6.34,5.64-12.38,8.82-18.36    c4.64-8.72,9.57-17.27,14.88-26.8C422.17,499.94,417.05,502.09,411.6,503.9z M297.49,416.54c-0.77-1.1-1.54-2.21-2.7-3.88    c-0.36,8.31-0.69,15.89-1.05,24.08c2.28-4.96,4.36-9.48,6.88-14.27c1.28-4.75,3.31-9.43,3.7-14.27    c1.65-20.26,5.07-40.1,9.99-59.72c1.77-7.07,2.6-14.43,3.85-21.65c-1.78,3.34-2.6,6.92-4.16,10.08    c-3.44,6.97-7.51,13.58-10.85,20.61c-5.86,12.33-11.11,24.92-8.68,39.44c0.27,1.62,0.01,3.34,0.01,5.02c0,2.68,0,5.37,0,8.05    c0.44-0.09,0.88-0.19,1.32-0.28C296.54,412,297.27,414.25,297.49,416.54z M188.38,412.26c0.17-3.18,1.42-6.9,0.32-9.44    c-3.74-8.68-8.17-17.02-12.6-25.33c-2.1-3.94-4.78-7.52-7.06-11.05c-14.78-16.32-31.04-30.12-50.76-37.41    c8.14,23.47,16.3,46.98,24.14,69.57c-0.12-0.69-0.4-2.39-0.84-4.99c0.8,1.14,1.16,1.49,1.33,1.92c0.88,2.23,1.78,4.46,2.57,6.73    c8.68,25.28,17.34,50.57,26.04,75.84c0.67,1.94,1.66,3.75,2.5,5.62c0.14-0.12,0.29-0.24,0.43-0.36c0-26.27,0-52.53,0-78.8    c0.29,0,0.58,0,0.86,0c0.86,26.28,1.72,52.57,2.57,78.85c0.36,0,0.72-0.01,1.08-0.01c0.3-3.45,0.6-6.89,0.91-10.34    c0.88-9.85,1.38-19.77,2.77-29.54C184.1,433.25,186.4,423.12,188.38,412.26z M370.15,416.71c5.34-8.64,10.78-17.21,15.96-25.96    c1.36-2.3,2.29-5.06,2.81-7.74c2.41-12.69,4.49-25.46,6.94-38.15c1.23-6.37,3.01-12.62,4.54-18.93    c-5.3,4.71-10.12,9.69-14.45,15.14c-11.7,14.74-21.77,30.78-30.72,47.58c-3.08,5.78-5.43,12.27-6.88,18.76    c-3.1,13.82-3.55,28.22-7.92,41.85c-2.39,7.44-3.94,15.25-5.27,23.01c-0.82,4.77-0.51,9.76-0.71,14.66    c0.41,0.13,0.82,0.25,1.23,0.38c1.3-2.74,2.73-5.41,3.88-8.22c4.51-10.97,8.4-22.29,13.55-32.89    C358.01,436.13,364.21,426.81,370.15,416.71z M178.36,315.62c1.79,5.8,3.58,11.59,4.84,15.7c9.24,7.16,17.35,13.45,25.34,19.64    c-0.02,0.05,0.3-0.5,0.47-1.09c1.04-3.63,3.59-7.78,2.74-10.81c-2.19-7.84-4.64-16.29-9.28-22.48    c-6.74-8.97-17.11-11.68-28.13-12.32C175.74,308.16,176.97,311.6,178.36,315.62z M436.06,486.39c5.39-7.07,10.77-14.14,16.68-21.9    c-15.01-0.55-28.76,0.86-42.17,5.26c-1.13,0.37-2.44,1.78-2.78,3c-1.6,5.66-2.9,11.42-4.35,17.33c10.18,0,19.88,0,29.9,0    C433.95,489.23,434.83,488.02,436.06,486.39z M255.48,258.71c-4.36-4.99-8.71-9.98-13.56-15.53c2.26,13.62,4.1,26.53,6.59,39.3    c2.33,11.92,2.07,24.53,7.94,35.58c1.7,3.2,2.82,6.76,4.21,10.15c0.76-6.35,1.1-12.41,0.7-18.43    c-1.02-15.16-2.32-30.29-3.65-45.42C257.53,262.57,256.47,260.88,255.48,258.71z M268.73,392.81c0.3,15.05,0.53,30.11,0.94,45.16    c0.12,4.47,0.74,8.93,1.17,13.91c1.53-18.94,3-37.23,4.47-55.44c-0.16,0.07-0.46,0.22-1.24,0.58c7.21-21.83,6.2-43.85,5.39-66.05    c-1.13,5.68-2.15,11.15-3.31,16.58C273,362.27,266.54,376.33,268.73,392.81z M252.08,349.01c2.3,7.84,4.61,15.68,7.06,24.03    c3.38-10.66,4.24-20.49,2.75-30.96c-1.48-10.41-6.72-18.84-9.83-28.32c-0.61,6.98-0.74,13.88-1.44,20.71    C250.12,339.31,250.14,343.91,252.08,349.01z M280.62,384.32c-4.08,27.66-8.03,55.33-5.21,83.62c2.05-4.76,4.55-9.6,4.84-14.59    c0.75-12.96,0.24-26.01,0.79-38.99c0.38-8.96,1.68-17.88,2.6-26.82c0.6-5.87,1.24-11.74,1.87-17.61    c-0.36-0.06-0.72-0.12-1.08-0.19C283.21,374.39,281.99,379.03,280.62,384.32z M395.49,456.52c1.82-5.63,3.63-11.27,5.57-17.29    c-6.44,6.28-12.7,12.04-18.54,18.28c-2.14,2.29-3.97,5.49-4.69,8.62c-0.98,4.26-0.77,8.85-1.02,12.58    c2.73-2.22,5.51-5.05,8.74-6.98C391.03,468.44,395.08,464.36,395.49,456.52z M170.34,511.68c1.57,8.51,3.15,17.01,4.89,26.44    c0-14.16-0.16-27.37,0.07-40.58c0.1-5.76-1.67-10.6-4.02-15.57c-3-6.33-5.39-13.01-8.02-19.54c-0.71-1.76-1.36-3.55-2.02-5.33    c-0.58-1.58-1.13-3.18-1.69-4.76c0.16,0,0.33,0.01,0.49,0.01C163.43,471.9,166.83,491.45,170.34,511.68z M160.28,568.89    c-0.16-5.64-0.18-11.28-0.57-16.9c-0.11-1.6-0.94-3.78-2.09-4.54c-6.11-4-12.42-7.62-18.66-11.37c-0.25,0.31-0.49,0.63-0.74,0.94    c2.09,6.63,3.53,13.47,8.98,18.45C151.7,559.59,155.65,564.4,160.28,568.89z M267.01,412.56c-0.86-9.06,0.76-18.4-2.53-28.41    c-3.11,6.17-6.63,11.01-5.75,17.45c1.31,9.62,2.8,19.22,4.37,28.79c0.6,3.68,1.64,7.28,2.49,10.92c0.49-0.08,0.99-0.15,1.48-0.23    C267.07,431.82,267.07,422.56,267.01,412.56z M152.1,527.14c-0.81-2.11-1.57-4.24-2.43-6.32c-1.05-2.53-1.62-5.71-3.39-7.4    c-6.04-5.76-12.51-10.99-18.82-16.42c-0.31,0.3-0.61,0.6-0.92,0.9c3.63,7.55,7.13,15.17,10.96,22.6c0.92,1.78,2.74,3.26,4.46,4.24    c3.59,2.05,7.39,3.67,11.49,5.66C152.99,529.13,152.71,528.33,152.1,527.14z M427.58,496.71c1.5-1.21,3-2.42,5.17-4.17    c-10.64-2.45-20.19-2.17-29.78-0.89c-0.9,4.85-1.72,9.29-2.64,14.24C409.65,502.8,418.38,499.9,427.58,496.71z M277.26,291.6    c1.55,4.92,3.09,9.84,4.51,14.38c0-22.74,0-45.82,0-68.9c-0.3-0.02-0.61-0.03-0.91-0.05c-1.43,12.87-3.09,25.71-4.18,38.61    C276.26,280.71,274.1,286.01,277.26,291.6z M187.83,347.88c0.82,2.64,1.64,5.27,2.55,8.16c4.99,1.54,9.99,3.09,15.05,4.65    c0.36-0.94,0.65-1.63,0.89-2.34c0.27-0.81,0.49-1.63,0.66-2.19c-5.44-9.19-13.61-14.2-22.27-19.56    C185.81,340.53,186.76,343.9,187.83,347.88z M377.61,515.76c0,1.08,0,2.16,0,3.85c3.03-3.36,6.72-4.88,7.01-9.82    c0.26-4.41,1.48-8.76,2.25-13.14c0.77-4.4,1.5-8.8,2.33-13.66c-10.47,6.72-12.3,10.12-11.07,19.91c0.87-2.51,1.71-4.92,2.6-7.5    C379.65,502.15,378.62,508.62,377.61,515.76z M385.3,404.06c0-0.72,0-1.43,0-2.59c-3.16,4.25-6.2,7.8-6.46,13.47    c-0.28,6.08-1.76,12.08-2.5,18.15c-0.7,5.78-1.1,11.6-1.72,18.34c2.96-3.95,5.48-6.77,5.96-11.44    C381.79,428.16,383.57,416.4,385.3,404.06z M414.67,437.74c1.45-3.19,2.9-6.38,4.59-10.1c-13.89,6.97-16.09,20.91-20.44,34.33    c8.04-5.31,7.98-5.34,10.28-11.19C410.76,446.55,412.61,442.41,414.67,437.74z M238.14,522.75c1.23,2.61,0.41,6.65,5.2,8.06    c-2.25-12.15-4.34-23.48-6.41-34.65c-1.04-0.22-1.89-0.4-2.7-0.57c-0.44,0.7-0.79,1.28-1.69,2.71c-0.51-4.03-0.91-7.16-1.32-10.39    c-0.77-0.9-1.66-1.93-2.99-3.47c0.74,4.65,1.02,8.9,2.12,12.9C232.64,505.69,235.36,513.91,238.14,522.75z M173.89,612.38    c-3.31-15.28-6.62-30.56-9.93-45.85c-0.25,18.44,0.47,36.65,10.97,52.44C174.63,616.99,174.33,615,173.89,612.38z M333,279.87    c0.49-1.42,0.98-2.85,1.47-4.27c-0.16-0.09-0.33-0.17-0.49-0.26c-3.6,3.89-7.2,7.78-10.37,11.21c-0.71,5.44-1.57,10.22-1.89,15.06    c-0.31,4.74-0.07,9.53-0.07,14.29c0.24,0.04,0.48,0.07,0.72,0.11C325.82,304.13,329.28,292.25,333,279.87z M175.16,562.27    c-0.72-5.68-6.03-11.81-10.54-12.66c2.55,8.42,5.06,16.67,7.89,26.01c0.21-2.05,0.3-2.91,0.37-3.62    c2.34,4.86,4.68,9.71,7.01,14.55c0.23-0.11,0.46-0.22,0.69-0.33C178.84,578.44,177.1,570.66,175.16,562.27z M229.57,544.51    c0.29-1.12,1.01-2.35,0.81-3.35c-2.71-13.35-5.56-26.67-8.49-40.55c0.4-10.01-5.48-18.86-7.29-28.87    c-0.39,2.3-0.77,4.63-0.32,6.75c2.14,10.08,4.48,20.11,6.8,30.14C223.82,520.44,226.61,532.22,229.57,544.51z M307.28,443.19    c-3.71,8.67-5.4,17.79-5.05,27.4c4.97-14.23,10.16-28.37,12.66-43.38c-0.57-0.22-1.14-0.45-1.72-0.67    C311.23,431.89,309.3,437.24,307.28,443.19z M287.31,491.57c0.08-0.96,0.17-1.92,0.25-2.88c0.25,0.04,0.49,0.09,0.74,0.13    c-0.1,1.96-0.21,3.91-0.31,5.87c2.46-7.75,3.78-15.58,1.7-24.63c-2.64,8.89-5.03,16.96-7.26,24.46c-0.27-1.63-0.65-3.97-1.04-6.3    c-0.12,0.02-0.24,0.04-0.35,0.06c0.63,7.97,1.25,15.95,1.88,23.92c0.27,0.04,0.54,0.09,0.81,0.13    C284.92,505.62,286.12,498.91,287.31,491.57z M284.41,404.62c-0.3,3.58-0.28,7.22-0.95,10.71c-1.18,6.14,2.14,10.18,4.65,14.66    c0.37-0.08,0.74-0.15,1.1-0.23c-0.59-13.49-1.17-26.97-1.76-40.46c-0.29-0.01-0.59-0.03-0.88-0.04    C285.86,394.15,285.14,399.04,284.41,404.62z M334.3,393.45c2.52-7.01,2.82-14.27,2.42-21.76c-6.96,8.47-11.16,17.38-5.2,29.73    C332.54,398.38,333.27,396.18,334.3,393.45z M238.7,295.29c-1.3-5.3-2.1-10.81-5.36-16.18c0.41,8.21,0.65,15.39,1.2,22.54    c0.18,2.3,1.03,4.58,1.81,6.77c0.81,2.3,1.9,4.49,3.06,7.18c0.21,0.05,1.02,0.22,2.14,0.46    C240.65,309.08,239.79,302.49,238.7,295.29z M245.34,325.94c0.71,2.61,1.43,5.21,2.31,8.45c0.4-1.13,0.69-1.58,0.71-2.05    c0.32-7.57,0.63-15.15,0.86-22.73c0.02-0.81-0.37-1.77-0.83-2.45c-2.07-2.99-4.23-5.9-6.39-8.88    C243.05,307.35,244.09,316.34,245.34,325.94z M227.08,330.89c3.17,4.94,6.35,9.88,9.83,15.31c0.56-14.37-1.23-18.3-8.25-25.04    C228.01,324.46,227.43,327.41,227.08,330.89z M288.1,259.78c0.54,14.79,1.09,29.57,1.63,44.36c2.36-22.7,1.65-45.32-1.63-67.72    C288.1,243.84,288.1,251.43,288.1,259.78z M207.35,296.03c3.86,9.35,7.72,18.69,11.79,28.56c4.33-9.64,3.05-12.15-2.01-17.54    C213.77,303.47,210.76,299.49,207.35,296.03z M208.66,463.75c0.83,2.54,1.65,5.07,2.48,7.61c2.22-6.49-2.68-33.07-7.14-41.33    c0,2.71-0.24,4.56,0.04,6.32C205.45,445.28,206.99,454.2,208.66,463.75z M280.87,320.15c-0.82-4.16-1.63-8.32-2.45-12.48    c-0.09,4.8,0.11,9.55,0.58,14.26c0.79,7.75,2.1,15.46,2.55,23.23c0.45,7.71,0.1,15.48,0.1,23.23c1.05-1.43,2.04-2.99,1.96-4.49    C282.83,349.54,281.86,335.18,280.87,320.15z M226.24,390.1c-1.67,0-3.34,0-5.14,0c0.19,1.79,0.3,2.9,0.37,3.5    c1.84,2.14,3.35,3.89,4.86,5.66c1.43,1.67,2.77,3.42,4.29,4.99c1.47,1.52,3.11,2.84,4.67,4.25c0.28-0.21,0.56-0.42,0.85-0.63    c-1.46-3.94-2.92-7.89-4.39-11.83c-0.21,0.16-0.42,0.32-0.63,0.48C229.58,394.53,228.06,392.54,226.24,390.1z M239.65,351.24    c1.54,4.04,3.09,8.09,4.97,13.02c1.74-14.69,0.84-18.64-5.83-27.29C239,341.48,239.2,346.05,239.65,351.24z M286.42,443.52    c1.51-6.49,1.22-12.6-3.68-18.25c-0.47,9.6-0.92,18.77-1.41,29.01C283.21,450.15,284.62,447.07,286.42,443.52z M196.33,496.37    c1.63-5.56,0.91-10.08-3.34-19.03c0.31,9.66-3.93,18.69,2.4,27.87c0.14-2.68,0.23-4.29,0.32-5.89c0.16,0,0.32-0.01,0.48-0.01    c0.16,0.54,0.33,1.09,0.49,1.63c0.12-0.03,0.24-0.06,0.37-0.1C196.81,499.54,196.57,498.23,196.33,496.37z M233.37,387.33    c0.21,0.21,0.42,0.42,0.63,0.63c0.05-0.11,0.17-0.25,0.14-0.33c-1.4-3.77-3.03-7.46-4.18-11.31    c-3.51-11.81-6.84-23.69-10.24-35.55c-0.31,0.05-0.63,0.1-0.94,0.16c0.09,1.41-0.05,2.9,0.3,4.22    C222.9,359.4,225.82,374.02,233.37,387.33z M186.95,486.27c-0.18-8.7-0.37-17.4-0.55-26.09c-2.9,5.45-3.75,32.24-1.63,35.02    C185.49,492.3,186.16,489.62,186.95,486.27z M324.58,390.8c-5.12,7.73-6.01,16.36-4.83,26.18c3.35-8.31,6.27-15.96,6.15-24.49    C325.89,391.79,325.26,391.08,324.58,390.8z M357.38,549.27c1.62-3.4,3.23-6.8,4.91-10.32c0,1.09,0,2.11,0,3.16    c5.39-1.78,6.88-5.94,5.36-12.92c-5.45,7.5-11.86,14.24-13.91,23.8c0.35,0.25,0.7,0.49,1.05,0.74    C355.59,552.42,356.39,551.11,357.38,549.27z M174.84,365.79c5,9.36,10,18.73,14.84,27.79c1.46-5.48-13.27-33.11-19.48-36.12    C171.62,359.97,173.12,362.62,174.84,365.79z M198.51,473.45c0.28-5.92-0.68-11.56-3.2-16.88c0.2,7.88-5.48,16.6,3.17,23.43    C198.48,477.95,198.48,476.06,198.51,473.45z M332.31,498.66c-0.12-0.16-0.21-0.35-0.36-0.48c-0.05-0.05-0.27,0.02-0.32,0.1    c-4.38,6.66-6.56,14.33-8.45,22.09c-0.73,3-1.05,6.11-1.56,9.17c0.41,0.12,0.83,0.24,1.24,0.37    C325.97,519.68,329.09,509.45,332.31,498.66z M172.74,588.79c2.18,9.34,4.37,18.67,6.55,28.01c0.42-0.09,0.84-0.18,1.26-0.26    c-1.09-7.4-1.96-14.85-3.4-22.17c-0.47-2.39-2.4-4.44-3.67-6.64C173.21,587.91,172.94,588.11,172.74,588.79z M191.73,549.73    c-0.34-6.39-0.68-12.77-1.02-19.16c-0.36,0.01-0.73,0.03-1.09,0.04c0,7.24,0,14.47,0,21.71c0.06,0,0.12,0.01,0.17,0.01    c0.08-0.88,0.17-1.76,0.25-2.64c0.28,0.01,0.56,0.02,0.84,0.04c0,6.59,0,13.17,0,19.76c0.31-0.01,0.63-0.02,0.94-0.02    C191.82,563.13,191.82,556.79,191.73,549.73z M207.13,393.65c1.24,1.11,2.48,2.22,3.83,3.43c0.34-2.05,0.65-3.86,0.97-5.78    c-2.85-4.14-6.17-7.64-11.82-9.71C202.72,386.08,204.78,389.63,207.13,393.65z M288.01,509.08c0.88-3.79,1.76-7.59,2.65-11.41    c-0.41,0-0.76-0.06-1.09,0.01c-0.43,0.1-0.84,0.3-1.24,0.45c-2.21,9.85-5.09,19.43-3.6,30.58    C285.89,521.8,286.9,515.77,288.01,509.08z M182.07,523.25c2.45-10.29,2.18-13.55-1.76-18.4c0,8.52,0,16.65,0,24.78    c0.23,0.03,0.46,0.07,0.69,0.1C181.33,527.78,181.66,525.83,182.07,523.25z M241.46,429.51c-0.83-1.11-1.66-2.21-2.67-3.56    c-0.93,5.87,2.42,16.08,6.62,17.82C244.05,438.66,242.89,434.32,241.46,429.51z M332.93,490.68c0-4.28,0-8.57,0-12.85    c-0.21-0.05-0.42-0.1-0.63-0.15c-1.54,6.87-3.08,13.74-4.61,20.6c0.42,0.17,0.83,0.34,1.25,0.51    C330.15,496.26,331.37,493.74,332.93,490.68z M374.04,481.64c0.44-4.74,0.88-9.48,1.34-14.43c-6.41,4.86-3.04,12.22-4.51,18.25    C371.84,484.37,372.8,483.27,374.04,481.64z M224.27,412.27c2.07,3.01,4.15,6.03,6.22,9.04c0.45-0.34,0.91-0.69,1.36-1.03    c-4.51-7.3-9.02-14.6-13.53-21.9c-0.38,0.26-0.77,0.53-1.15,0.79C219.49,403.36,221.81,407.54,224.27,412.27z M259.26,495.22    c1.15,4.88,2.3,9.75,3.44,14.63c-1.39-8.8,0.76-18.33-4.36-26.37c-0.38,0.06-0.75,0.13-1.13,0.19    C257.86,487.32,258.5,490.96,259.26,495.22z M213.56,356.03c-0.56,1.38-1.11,2.76-1.61,4c1.92,2.27,3.68,4.34,5.43,6.4    c-0.12,0.13-0.24,0.26-0.36,0.39c0.87,0.41,1.74,0.81,2.81,1.31c-1.54-5.34-3.02-10.45-4.55-15.72    C214.75,353.55,214.29,354.55,213.56,356.03z M257.87,439.49c1.57,5.26,3.15,10.52,5,16.72c0.41-10.24-2.96-18.26-7.14-26.06    C256.36,433.07,257,435.99,257.87,439.49z M281.4,459.44c-0.5,1.35-1,2.7-1.5,4.05c1.89-2.04,2.69-4.82,4.41-6.54    c4.62-4.63,5.32-10.35,5.13-17.13C286.68,446.52,284.13,452.7,281.4,459.44z M265,547.31c0.37,4.63,0.74,9.26,1.12,13.89    c0.33-0.03,0.66-0.05,0.99-0.08c-0.69-10.77-1.37-21.53-2.06-32.3c-0.44,0.02-0.89,0.04-1.33,0.06    C264.12,534.79,264.53,540.69,265,547.31z M247.93,397.57c2.3-4.87,1.42-9.63-0.59-14.77c-1,6.61-3.3,12.7-1.18,19.88    C246.88,400.74,247.37,399.45,247.93,397.57z M333.14,357.22c3.13-5.79,1.79-12.07,1.68-18.23c0.47,5.67-0.49,10.78-3.61,15.62    c-1.79,2.77-2.38,6.45-3.51,9.71c0.26,0.1,0.51,0.19,0.77,0.29C329.94,362.31,331.41,360.01,333.14,357.22z M204.13,394.66    c-0.35-0.32-0.69-0.65-1.93-1.79c1.9,6.42,3.47,11.74,5.04,17.06c0.25,0.02,0.5,0.03,0.75,0.05c0.55-2.27,1.09-4.54,1.64-6.8    C207.8,400.33,206.12,397.71,204.13,394.66z M248.82,449.73c0.7,1.97,1.41,3.93,2.27,6.34c2.12-5.93,2.13-11.15-1.34-16.27    C249.39,442.91,249.02,446.01,248.82,449.73z M197.07,364.38c1.74,1.44,3.47,2.88,5.32,4.41c0.59-1.6,1.1-3.01,1.58-4.31    c-4.37-2.08-8.71-4.14-13.05-6.2c-0.18,0.28-0.36,0.55-0.54,0.83C192.47,360.74,194.56,362.37,197.07,364.38z M286.51,463.33    c0.52-2.2,1.05-4.4,1.57-6.6c-4.12,7.53-7.05,15.41-7.06,24.28C282.78,475.32,284.55,469.62,286.51,463.33z M373.14,538.75    c0.38-4.65,0.76-9.3,1.14-13.95c-0.45-0.05-0.9-0.11-1.35-0.16c-3.61,5.19-1.11,11.33-1.2,17.19    C372.13,540.98,372.53,540.13,373.14,538.75z M316.55,518.69c-2.83,7.13-4.7,14.5-4.55,22.35c1.16-3.19,2.27-6.41,2.97-9.73    c0.94-4.46,1.56-9.01,2.31-13.52c-0.18,0.01-0.37-0.01-0.54,0.05C316.69,517.86,316.7,518.08,316.55,518.69z M189.23,501.98    c0.23,11.41,0.23,11.41,2,14.22c4.52-6.44-1.64-11.58-2.02-17.45C189.2,499.63,189.2,500.52,189.23,501.98z M213.89,370.21    c-1.49-1.69-2.97-3.37-4.81-5.46c-0.58,2.45-0.98,4.13-1.53,6.44c2.54,1.26,5.07,2.51,7.6,3.77c0.21-0.25,0.42-0.5,0.63-0.76    C215.25,373.03,214.72,371.85,213.89,370.21z M212.57,430.62c-0.48-0.98-0.97-1.95-1.45-2.93c-0.18,0.08-0.36,0.16-0.55,0.24    c1.85,7.38,3.7,14.77,5.55,22.15c0.5-0.15,1-0.3,1.51-0.45C216,443.48,214.37,437.32,212.57,430.62z M230.05,427.73    c1.39,2.4,2.77,4.81,4.48,7.77c0.79-5.08-2.54-11.23-7.89-14.97C227.91,423.19,228.88,425.2,230.05,427.73z M296.12,499.86    c0.14-1.98,0.28-3.97,0.41-5.95c-0.38-0.05-0.75-0.09-1.13-0.14c-0.94,7.26-1.88,14.53-2.83,21.79c0.42,0.07,0.83,0.14,1.25,0.21    C294.56,510.67,295.28,505.57,296.12,499.86z M383.78,561.12c-3.12,3.85-7.36,6.96-7.43,13.46    C380.24,570.72,382.74,566.54,383.78,561.12z M247.48,512.73c0.2,0.6,0.39,1.21,0.59,1.81c0.45-0.02,0.9-0.05,1.34-0.07    c0.3-7.65,0.6-15.31,0.9-22.96c-0.44-0.02-0.88-0.04-1.32-0.06c0,1.26,0.08,2.53-0.01,3.77    C248.53,500.89,248.04,506.56,247.48,512.73z M326.87,393.27c-0.6,4.9-1.2,9.8-1.8,14.69c0.27,0.17,0.55,0.35,0.82,0.52    c1.03-2.25,2.06-4.5,2.78-6.06c-0.36-4.02-0.66-7.25-0.95-10.49C327.51,392.23,327.29,392.53,326.87,393.27z M294.39,524.03    c-0.75,4.87-1.66,9.74-0.92,14.63c0.45,0.02,0.89,0.03,1.34,0.05c0.25-5.42,0.49-10.83,0.74-16.25c-0.25-0.02-0.5-0.04-0.75-0.06    C294.68,522.76,294.57,523.11,294.39,524.03z M255.69,406.27c-0.17-0.24-0.34-0.47-0.51-0.71c-0.07,0.1-0.19,0.19-0.2,0.29    c-0.08,2.29-0.2,4.58-0.2,6.86c0.02,4.66,0.54,5.83,3.69,8.71c-0.3-2.5-0.59-4.9-0.93-7.76c-0.34,0.93-0.5,1.37-0.7,1.91    C256.46,412.56,256.09,409.68,255.69,406.27z M325.82,442.4c1.45-5.25,4.25-10.21,3.36-15.97c-0.37-0.08-0.73-0.16-1.1-0.23    C327.2,431.65,326.32,437.1,325.82,442.4z M262.34,379.56c0.51,0.98,1.02,1.97,1.55,2.99c0-5.38,0-10.49,0-15.6    c-0.18-0.01-0.37-0.03-0.55-0.04c-0.84,3.11-1.67,6.23-2.5,9.3C261.32,377.19,261.76,378.1,262.34,379.56z M338.12,539.96    c3.37-3.43,3.42-8.24,4.6-12.58C339.97,531.17,337.71,535.17,338.12,539.96z M202.66,454.29c0.69,2.31,1.38,4.61,2.07,6.92    c0.37-0.12,0.74-0.24,1.11-0.36c-0.83-5.08-1.65-10.16-2.48-15.24c-0.26,0.02-0.53,0.04-0.79,0.07    C202.57,448.35,202.57,451.01,202.66,454.29z M380.49,578.24c-0.48-0.47-0.96-0.94-1.92-1.89c-0.65,4.74-1.19,8.64-1.72,12.54    c0.43,0.07,0.86,0.14,1.29,0.21C378.9,585.69,379.68,582.28,380.49,578.24z M216.97,509.39c1.09,6.48,2.19,12.96,3.28,19.44    c0.32-0.07,0.64-0.14,0.96-0.21c-1.36-7.91-2.72-15.83-4.08-23.74c-0.3,0.06-0.59,0.13-0.89,0.19    C216.45,506.3,216.67,507.53,216.97,509.39z M195.62,523.17c0.68,0.37,1.36,0.74,2.43,1.33c-0.5-4.9-0.98-9.51-1.45-14.12    c-0.24-0.01-0.48-0.02-0.71-0.03C195.73,514.44,195.58,518.54,195.62,523.17z M394.05,559.47c-3.16,3.35-4.99,7.3-4.64,12.26    c1.99-3.75,3.75-7.61,5.46-11.5C394.97,559.99,394.6,559.5,394.05,559.47z M296.52,443.87c-3.21,3.48-2.94,7.65-2.46,11.86    c0.36,0.07,0.73,0.13,1.09,0.2C295.65,452.08,296.16,448.23,296.52,443.87z M204.37,281.59c3.17,3.6,6.33,7.2,9.5,10.8    c0.06-0.07,0.12-0.14,0.18-0.21c-3.58-4.26-7.16-8.53-10.75-12.79c-0.13,0.14-0.25,0.28-0.38,0.42    C203.32,280.27,203.73,280.72,204.37,281.59z M354.63,567.92c0.97-2.8,1.95-5.6,3.17-9.12c-3.76,3.71-6.09,9.6-5.54,13.8    C353.1,571,353.76,569.74,354.63,567.92z M260.22,457.2c-0.38-1.12-0.76-2.24-1.14-3.37c-0.16,0.06-0.32,0.11-0.48,0.17    c1.14,5.36,2.28,10.72,3.43,16.08c0.82-1.28,1.02-2.45,0.78-3.51C262.13,463.59,261.28,460.66,260.22,457.2z M370.37,582.89    c-0.27,2.91-0.54,5.81-0.85,9.13c1.27-1.63,2.09-2.67,3.43-4.38C372.33,586.14,371.56,584.29,370.37,582.89z M258.85,473.9    c-0.75-1.76-1.51-3.53-2.26-5.29c-0.33,0.14-0.66,0.27-0.99,0.41c0.56,2.96,1.12,5.92,1.68,8.88c0.31-0.01,0.63-0.02,0.94-0.03    C258.5,476.72,258.78,475.56,258.85,473.9z M237.72,532.62c-0.81-1.94-1.62-3.88-2.44-5.83c-0.23,0.06-0.45,0.12-0.68,0.18    c0.7,3.65,1.41,7.29,2.11,10.94c0.55-0.11,1.11-0.21,1.66-0.32C238.2,536.13,238.02,534.66,237.72,532.62z M342.51,538.81    c-1.24,3.3-2.48,6.6-3.72,9.91c0.31,0.13,0.62,0.26,0.94,0.4c1.16-2.47,2.45-4.88,3.39-7.44    C343.46,540.76,342.96,539.49,342.51,538.81z M200.07,431.32c-0.14-5.77-0.29-11.53-0.43-17.3c-0.36,0.02-0.72,0.03-1.09,0.05    C198.89,419.77,199.24,425.47,200.07,431.32z M325.37,462.11c0.3,1.99,0.6,3.98,0.93,6.19c0.85-4.04,1.66-7.87,2.46-11.7    c-0.17-0.08-0.34-0.15-0.51-0.23C327.29,458.07,326.32,459.79,325.37,462.11z M332.36,363.91c-0.06-0.11-0.11-0.24-0.2-0.32    c-0.04-0.04-0.21-0.02-0.23,0.03c-2.43,4.23-5.13,8.35-5.29,14.7C328.77,373.03,330.5,368.73,332.36,363.91z M221.65,415.84    c0.48,0.67,0.95,1.35,1.43,2.02c0.24-0.16,0.48-0.32,0.72-0.48c-1.4-2.87-2.8-5.74-4.2-8.6c-0.49,0.29-0.99,0.59-1.48,0.88    C219.21,411.55,220.31,413.45,221.65,415.84z M235.52,555.02c0.3,1.59,0.61,3.18,0.91,4.78c0.31-0.08,0.62-0.15,0.93-0.23    c-0.87-4.71-1.74-9.42-2.61-14.13c-0.22,0.03-0.44,0.07-0.66,0.1C234.49,548.5,234.88,551.46,235.52,555.02z M259.8,513.04    c0.64-3.41,2.18-6.93-0.86-9.85c0,3.69,0,7.42,0,11.23C259.17,514.1,259.36,513.82,259.8,513.04z M397.92,554.12    c-4.53,1.14-7.63,4.09-7.93,7.63c1.27-1.18,2.5-2.31,3.72-3.46C395.03,557.04,396.33,555.77,397.92,554.12z M303.5,485.17    c0.42-2,0.84-4.01,1.26-6.01c-0.45-0.1-0.9-0.19-1.34-0.29c-0.72,4.47-1.44,8.95-2.16,13.42c0.28,0.06,0.57,0.11,0.85,0.17    C302.53,490.22,302.96,487.98,303.5,485.17z M201.9,486.87c0.12,0.35,0.25,0.7,0.37,1.05c0.1-0.02,0.2-0.03,0.29-0.05    c-0.54-4.65-1.08-9.3-1.62-13.95c-0.25,0.03-0.51,0.07-0.76,0.1C200.7,478.14,201.22,482.27,201.9,486.87z M219.89,570.53    c-0.17-0.09-0.34-0.19-0.51-0.28c-0.01,0.13-0.03,0.25-0.03,0.38c0,3.93,0,7.85,0,11.78c0.22,0.01,0.43,0.02,0.65,0.03    C220,578.61,220,574.8,219.89,570.53z M242.63,291.97c-1.46-2.27-2.91-4.54-4.37-6.81c-0.2,0.12-0.39,0.25-0.59,0.37    c1.64,3.25,3.28,6.5,4.92,9.75c0.39-0.19,0.78-0.39,1.17-0.58C243.48,293.95,243.21,293.21,242.63,291.97z M270.13,501.01    c0,1.04,0,2.09,0,3.13c0.14,0,0.27-0.01,0.41-0.01c0-5.64,0-11.29,0-16.93c-0.13,0-0.26-0.01-0.39-0.01    C270.15,491.57,270.15,495.95,270.13,501.01z M460.43,253.41c-3.63-1.26-3.34,2.34-4.6,4.01c0.27,0.31,0.54,0.62,0.81,0.94    C457.97,256.87,459.3,255.38,460.43,253.41z M197.92,372.05c0.14,0.02,0.27,0.03,0.41,0.05    C198.27,372.01,198.21,371.94,197.92,372.05z"/>

<path d="M353.96,163.25c4.34-2.48,8.84-2.62,13.91-1.27c-7.81,8.16-14.24,17.42-25.98,21.01c-3.26,14.34-6.73,29.65-10.22,45.5    c-0.18,1.1-0.34,1.65-0.51,2.2c-0.41,0.42-0.82,0.83-1.23,1.25c-0.34-0.08-0.67-0.16-1.01-0.24c2.74-14.16,5.48-28.31,8.26-42.69    c-3.35-0.72-4.37-4.33-4.42-7.71c-0.21-12.85,0.01-25.7,0.09-38.55c0-0.35,0.3-0.69,0.62-1.37c7.13,10.48,8.18,22.46,8.24,35.27    c3.97-9.17,4.62-12.96,2.76-14.62c-0.23,1.79-0.48,3.67-0.73,5.55c-0.39-0.05-0.77-0.11-1.16-0.16    c-0.51-7.19-2.84-14.33-0.64-22.57c0.39,1.51,0.55,2.08,0.89,3.4c0.31-1.62,0.5-2.58,0.75-3.9c0.18,1.1,0.3,1.85,0.55,3.36    c0.47-2.16,0.64-3.71,1.15-5.11c0.44-1.21,1.26-2.27,2.34-4.13c1.66,3.09,2.76,5.15,3.92,7.32c0.45-5.04,0.9-10.04,1.35-15.04    c0.26-0.01,0.51-0.02,0.77-0.03c0.17,0.72,0.34,1.44,0.59,2.48c0.85-1.21,1.6-2.26,3.13-4.42c0.87,3.56,1.53,6.29,2.31,9.52    c0.56-5.93-2.17-12.06,2.13-17.23c0,1.26,0,2.37,0,4.57c1.31-3.12,2.2-5.24,3.09-7.37c0.42-0.05,0.83-0.1,1.25-0.15    c0.74,3.48,1.48,6.95,2.06,9.69c3.12-8.45,5.42-10.9,9.43-8.97c-1.04,1.01-1.97,1.91-3.13,3.04c1.23,0.35,2.34,0.66,3.4,0.96    c-0.07,3.85-0.07,3.85-7.37,4.35c-0.64,1.05-1.34,2.19-2.1,3.42c2.16-0.42,4.18-0.81,6.21-1.2c0.06,0.29,0.12,0.58,0.19,0.87    c-3.3,4.06-6.6,8.12-9.77,12.02c1.63,0,4.06,0,6.48,0c0.01,0.25,0.02,0.5,0.03,0.75c-0.82,0.18-1.64,0.37-2.47,0.55    c0.02,0.13,0.04,0.26,0.06,0.39c1.52,0.07,3.05,0.15,5.31,0.25c-5.78,6.87-11.75,12.51-18.89,16.77c0.2-1.88,0.61-3.59,1.01-5.3    c-0.25-0.1-0.5-0.21-0.75-0.31c-1.4,2.82-2.8,5.65-4.62,9.32C352.74,163.9,353.35,163.57,353.96,163.25z"/>

<path d="M188.44,199.77c0.12-2.22,0.24-4.44,0.37-6.94c5.35,3.67,8.32,8.73,8.99,16.39c0.05-0.53,0.1-1.06,0.15-1.59    c0.14,0.07,0.28,0.14,0.43,0.2c0.34,1.56,0.68,3.12,1.02,4.67c0.15-0.02,0.31-0.05,0.46-0.07c-0.27-2.94-0.55-5.89-0.86-9.28    c6.68,8.74,11.24,28.9,7.92,35.01c1.47,2.98,3.12,6.07,4.54,9.28c1.35,3.06,3.81,5.76,3.45,9.47c-0.4,0.2-0.79,0.41-1.19,0.61    c-4.6-9.38-9.2-18.76-13.9-28.33c-0.82,0.22-1.95,0.53-3.46,0.94c-5.67-3.91-11.54-7.96-17.64-12.17c0.06-0.54,0.16-1.37,0.25-2.2    c8.72-1.73,11.13-1.18,17.14,3.92c0.22-0.28,0.45-0.56,0.67-0.84c-2.55-2.29-5.1-4.59-7.52-6.76c-4.13,2.34-12.66-1.28-16.29-6.86    c2.28-1.09,4.47-2.14,7.03-3.36c-1.81-1.38-3.5-2.46-4.96-3.82c-1.45-1.36-2.68-3.02-4.01-4.56c1.61-1.24,1.61-1.24,10.04,2.81    c-0.27-2.51-0.55-5.03-0.83-7.59c6.74,0.29,6.05,6.64,7.97,10.93c-0.84,1.39-1.54,2.49-2.57,4.11c1.29,1.23,2.49,2.38,3.89,3.71    C189.14,204.67,188.79,202.22,188.44,199.77z"/>

<path d="M331.13,231.02c0.19-0.88,0.36-1.43,0.54-2.21c3.35-6.92,5.98-14.21,10.22-20.16c4.73-6.64,10.92-12.06,16.51-17.97    c0.37-0.39,1.04-0.43,2.27-0.9c-10.26,22.89-17.42,46.73-31.76,66.51c-0.49-0.16-0.97-0.32-1.46-0.48    C328.68,247.66,329.89,239.5,331.13,231.02z"/>

<path d="M191.81,245.7c-4.21-4.94-9.03-8.98-12.38-14.33c0.38-0.45,0.76-0.9,1.14-1.35c6.12,3.8,12.45,7.26,18.27,11.53    c3.66,2.68,6.58,6.54,9.79,9.93c1.98,2.09,1.95,4.42,0.35,7.12C202.15,256.14,197.16,250.87,191.81,245.7z"/>

<path d="M409.11,593.88c-0.67,0.25-1.08,0.47-1.65,0.75c2.49-4.54,4.77-9.46,7.9-13.65c3.87-5.2,8.44-9.79,13.26-14.01    C422.2,575.93,415.79,584.9,409.11,593.88z"/>

<path d="M96.52,599.68c14.44,0.58,28.28,2.6,40.64,11.06c-13.13-8.04-27.85-8.68-42.27-10.92    C95.35,599.76,95.81,599.72,96.52,599.68z"/>

<path d="M146.81,597.53c1.01,2.65,1.93,5.04,2.91,7.7c-0.4,0.75-0.86,1.23-1.45,1.93c-3.56-5.41-6.99-11.03-10.42-16.66    c0.06-0.15,0.12-0.3,0.19-0.45C140.93,592.46,143.82,594.87,146.81,597.53z"/>

<path d="M468.1,243.84c-0.07-0.66,0.11-1.31,0.37-2.21c1.24-1.06,2.33-2.36,3.58-2.58c1.67-0.29,3.47,0.25,5.22,0.43    c0.13,0.7,0.25,1.39,0.38,2.09c-1.33,0.8-2.58,1.97-3.99,2.29C471.97,244.23,470.13,243.88,468.1,243.84z"/>

<path d="M173.95,186.59c0.7-2.21,0.29-5.33,4.5-5.43c0.27,2.89,0.53,5.76,0.81,8.84c-1.5,0.17-2.41,0.28-3.22,0.37    c-0.71-1.14-1.38-2.24-2.1-3.6C173.9,186.51,173.95,186.59,173.95,186.59z"/>

<path d="M471.46,237.68c-1.04,0.82-1.87,1.51-2.74,2.23c-0.77-3.18,4.06-8.19,8.86-8C475.13,234.25,473.4,235.89,471.46,237.68z"/>

<path d="M368.04,115.22c0.83-3.01,2.33-2.75,4.84-1.06c-0.73,1.95-1.48,3.94-2.23,5.93c-0.55-0.04-1.09-0.08-1.64-0.11    C368.67,118.48,368.32,116.98,368.04,115.22z"/>

<path d="M140.33,569.99c-6.71-4.59-13.35-9.26-20.17-14.06c7.57,3.16,14.01,7.97,20.25,13.61    C140.53,569.76,140.4,569.92,140.33,569.99z"/>

<path d="M199.07,24.17c2.86,2.21,1.6,4.68,0.65,8c-1.47-2.32-2.59-4.08-3.99-6.28C197.05,25.15,197.93,24.66,199.07,24.17z"/>

<path d="M388.73,417.78c4.7-4.17,9.41-8.33,14.13-12.5c0.24,0.32,0.49,0.65,0.73,0.97c-4.79,3.94-9.59,7.88-14.63,11.67    C388.71,417.75,388.74,417.77,388.73,417.78z"/>

<path d="M172.87,184.87c0.24,0.52,0.48,1.05,0.9,1.64c0.18,0.07,0.14,0,0.1-0.03c-0.7,1.06-1.29,3-2.04,3.07    c-1.41,0.15-2.92-0.78-4.38-1.26c0.05-0.55,0.1-1.1,0.15-1.64c1.67-0.43,3.35-0.86,5.17-1.56    C172.91,184.82,172.87,184.87,172.87,184.87z"/>

<path d="M438.43,644.07c-0.25,4.44-0.61,9.12-0.98,13.8c-0.51-0.08-1.01-0.16-1.52-0.23    C436.73,653.19,437.52,648.75,438.43,644.07z"/>

<path d="M435.57,649.68c-0.5,3.11-0.97,5.9-1.44,8.7c-0.43-0.08-0.86-0.16-1.29-0.24c0.67-4.07,1.33-8.15,2-12.22    c0.26,0.03,0.51,0.07,0.76,0.1C435.59,647.14,435.59,648.25,435.57,649.68z"/>

<path d="M149.65,258.44c-0.38,0.65-0.68,1.03-1.09,1.55c-1.51-1.88-2.9-3.89-4.29-5.91c0.31-0.29,0.62-0.59,0.94-0.88    C147.88,253.37,148.21,256.52,149.65,258.44z"/>

<path d="M172.93,184.8c-1.89-0.21-3.8-0.4-6.22-0.64c0.37-1.6,0.6-2.56,1.05-4.5c1.98,2.02,3.37,3.44,4.94,5.03    C172.87,184.87,172.91,184.82,172.93,184.8z"/>

<path d="M146.88,301.71c-0.12,0.45-0.32,0.64-0.64,0.99c-1.87-2.93-3.6-6.01-5.33-9.09c0.26-0.17,0.52-0.35,0.77-0.52    C143.39,295.87,145.1,298.66,146.88,301.71z"/>

<path d="M40.97,309.82c-0.8-0.66-1.6-1.33-2.48-2.08c0.18-0.21,0.45-0.32,0.93-0.53c-0.7-0.37-1.07-0.58-1.45-0.78    c-0.27-0.32-0.54-0.65-0.81-0.97c0.06-0.15,0.13-0.31,0.19-0.46c1.59,0.76,3.17,1.51,4.65,2.54c-0.5,0.43-0.88,0.58-1.24,0.7    c0.02-0.03,0.07-0.09-0.03,0.01c-0.04,0.34,0.02,0.58,0.07,0.79c-0.02-0.03-0.05-0.08,0.07,0.12    C40.97,309.51,40.97,309.66,40.97,309.82z"/>

<path d="M52.93,213.66c0,0-0.27-0.05-0.48-0.18c-0.46,0-0.71,0.13-0.95,0.27c-0.18-0.62-0.36-1.24-0.6-1.96    c0.16-0.2,0.37-0.3,0.78-0.39c0.34-0.02,0.47-0.05,0.61-0.07c0,0,0,0.07,0.04,0.22c0.24,0.07,0.43-0.02,0.63-0.11    c0.47,0.68,0.94,1.35,1.25,2.22c-0.3,0.15-0.43,0.1-0.54,0.07c0.03,0.01,0.08,0.03-0.03,0.06c-0.34-0.06-0.56-0.07-0.75-0.02    C52.9,213.72,52.93,213.66,52.93,213.66z"/>

<path d="M333.22,86.8c1.05-0.75,2.09-1.5,3.24-2.44c0.11-0.19,0.02-0.2,0.02-0.2c-0.75,1-1.5,2.01-2.41,3.2    c-0.16,0.19-0.13,0.24-0.22,0.05c-0.3-0.36-0.52-0.53-0.71-0.67C333.16,86.75,333.22,86.8,333.22,86.8z"/>

<path d="M328.09,91c0,0-0.13-0.21-0.12-0.17c0.86-0.76,1.72-1.56,2.81-2.42c0.23-0.07,0.19-0.12,0.12,0.11    C329.91,89.49,329,90.24,328.09,91z"/>

<path d="M202.77,184.3c-0.46-0.34-0.91-0.68-1.32-1.39c0.23-0.55,0.4-0.72,0.58-0.89c0.47,0.36,0.94,0.72,1.41,1.32    c-0.01,0.24,0.03,0.2-0.1,0.32c-0.3,0.32-0.47,0.51-0.63,0.69C202.72,184.34,202.77,184.3,202.77,184.3z"/>

<path d="M50.03,210.55c0.01-0.24,0.03-0.48,0.2-1.16c0.3-0.64,0.46-0.85,0.61-1.05c0.44,0.63,0.89,1.27,1.19,2.14    c-0.27,0.23-0.4,0.21-0.7,0.06C50.77,210.45,50.4,210.5,50.03,210.55z"/>

<path d="M54.22,215.67c-0.07,0.32,0,0.25,0.03,0.25c-0.36-0.58-0.75-1.16-1.22-2c-0.09-0.26-0.12-0.19,0.08-0.2    c0.35,0.01,0.5,0.02,0.65,0.04c0,0-0.05-0.02-0.02,0.17c0.23,0.39,0.42,0.57,0.62,0.76C54.33,214.91,54.31,215.13,54.22,215.67z"/>

<path d="M40.75,308.23c0.32-0.08,0.65-0.19,1.25-0.37c0.24,0.13,0.22,0.34-0.02,0.89c-0.56,0.3-0.9,0.25-1.24,0.2    c0,0,0.03,0.05,0.04-0.15c0.02-0.35,0.03-0.51,0.04-0.66C40.82,308.14,40.77,308.2,40.75,308.23z"/>

<path d="M331.77,87.58c0.34-0.24,0.68-0.47,1.23-0.75c0.21-0.04,0.16-0.08,0.13,0.12c-0.03,0.35-0.03,0.5-0.02,0.62    c0.02-0.03,0.07-0.08-0.18-0.05c-0.59,0.01-0.93-0.01-1.24,0C331.73,87.54,331.77,87.58,331.77,87.58z"/>

<path d="M42.65,309.8c-0.23-0.09-0.31-0.23-0.44-0.62c0.28-0.18,0.6-0.11,1.14,0.07C43.31,309.48,43.05,309.62,42.65,309.8z"/>

<path d="M414.54,626.98c-0.08-0.01-0.07-0.18,0.01-0.42C414.59,626.48,414.58,626.82,414.54,626.98z"/>

<path d="M332.19,89.7c-0.1,0.2-0.09,0.2-0.13,0.04c0.07-0.36,0.22-0.51,0.38-0.63c-0.03-0.02-0.08-0.05-0.08-0.05    C332.33,89.21,332.31,89.36,332.19,89.7z"/>

<path d="M333.1,88.3c-0.08,0.25-0.22,0.45-0.59,0.68c-0.16,0.09-0.1,0.12,0.02-0.03c0.27-0.34,0.45-0.49,0.65-0.61    C333.15,88.33,333.1,88.3,333.1,88.3z"/>

<path d="M151.46,621.35c0.05-0.04,0.07,0.11,0.07,0.11S151.41,621.38,151.46,621.35z"/>

<path d="M333.9,87.51c-0.17,0.17-0.33,0.37-0.65,0.68c-0.15,0.11-0.1,0.14-0.07-0.06c0.03-0.34,0.02-0.49,0.02-0.63    c0,0-0.05,0.05,0.14,0.08c0.32,0.03,0.46,0.02,0.6,0.02C333.94,87.6,333.91,87.54,333.9,87.51z"/>

<path d="M336.59,84.13c0.03-0.03,0.03-0.02-0.04,0.01C336.48,84.16,336.57,84.17,336.59,84.13z"/>

<path d="M331.03,88.36c0.13-0.22,0.24-0.46,0.55-0.74c0.19-0.04,0.15-0.08,0.1,0.11c-0.27,0.31-0.49,0.43-0.71,0.56    C330.97,88.28,331.01,88.34,331.03,88.36z"/>

<path d="M50.04,208.48c0.02,0.02,0.03,0.16,0.07,0.51C49.95,209.01,49.92,208.81,50.04,208.48z"/>

<path d="M203.41,184.23c-0.11,0.2-0.22,0.4-0.45,0.72c-0.17,0.01-0.23-0.11-0.25-0.44c0.05-0.21,0.01-0.17,0.17-0.23    C203.16,184.23,203.29,184.23,203.41,184.23z"/>

<path d="M201.07,182.01c0.24,0.15,0.28,0.29,0.3,0.64c-0.21,0-0.4-0.22-0.64-0.67c-0.05-0.24-0.09-0.31-0.09-0.31    C200.72,181.77,200.8,181.88,201.07,182.01z"/>

<path d="M200.73,181.74c0.04,0-0.21,0.08-0.21,0.08s0.24,0.05,0.19-0.05C200.64,181.66,200.69,181.73,200.73,181.74z"/>

<path d="M223.49,429.31c0.51,0.15,1.33,0.5,1.56,1.11c1.25,3.41,2.35,6.89,3.5,10.64c-0.19,1.19-0.37,2.08-0.66,3.22    C226.37,439.57,224.95,434.6,223.49,429.31z"/>

<path d="M363.78,559.06c0.09-0.02,0.07,0.22-0.13,0.46c-0.27,0.55-0.35,0.86-0.42,1.17c-0.62,1.15-1.08,2.45-1.89,3.42    c-1.29,1.54-2.8,2.85-4.42,4.17c1.89-3.07,3.98-6.06,6.34-9.11C363.52,559.12,363.69,559.08,363.78,559.06z"/>

<path d="M331.35,90.58c-0.18-0.16-0.12-0.33,0.25-0.38C331.62,90.32,331.51,90.4,331.35,90.58z"/>

<path d="M163.57,618.64c-0.03-0.04-0.03-0.17-0.02-0.49C163.64,618.15,163.65,618.34,163.57,618.64z"/>

<path d="M361.91,528.44c-0.01-0.15,0.3-0.26,0.45-0.3c0.15-0.04,0.13-0.09,0.14,0.1s0.1,0.56,0.09,0.58    c-0.01,0.02-0.03,0.07-0.03,0.07c-0.12,0-0.24,0-0.54-0.01C361.83,528.88,361.92,528.59,361.91,528.44z"/>

<path d="M363.45,529.55c-0.21-0.14-0.41-0.27-0.76-0.53c-0.14-0.12-0.12-0.17,0.08-0.23c0.32-0.03,0.44,0.01,0.61,0.21    C363.43,529.18,363.45,529.55,363.45,529.55z"/>

<path d="M360.38,530.33c-0.06,0.08,0.03-0.29,0.09-0.48C360.57,529.87,360.54,530.07,360.38,530.33z"/>

<path d="M51.41,210.67c0.17,0.05,0.16,0.21,0.16,0.58c-0.12,0.21-0.26,0.18-0.6,0.19C50.92,211.24,51.08,211,51.41,210.67z"/>

<path d="M362.51,528.13c0.24-0.13,0.46-0.28,0.69-0.42c0.04,0.17,0.08,0.33-0.08,0.42c-0.35-0.07-0.49-0.07-0.64-0.08    C362.48,528.05,362.51,528.1,362.51,528.13z"/>

<path d="M363.4,528.97c-0.23-0.18-0.25-0.33-0.23-0.69c0.17-0.22,0.3-0.22,0.62-0.21c0.23,0.15,0.27,0.29,0.26,0.65    C363.88,528.95,363.74,528.98,363.4,528.97z"/>

</g>

</g>

</svg>