<?xml version="1.0" ?>

<!-- Uploaded to: SVG Repo, www.svgrepo.com, Generator: SVG Repo Mixer Tools -->
<svg width="800px" height="800px" viewBox="-52.05 0 684.34 684.34" id="Layer_1" version="1.1" xml:space="preserve" xmlns="http://www.w3.org/2000/svg" xmlns:xlink="http://www.w3.org/1999/xlink">

<style type="text/css">
	.st0{clip-path:url(#SVGID_2_);}
	.st1{clip-path:url(#SVGID_4_);}
	.st2{clip-path:url(#SVGID_6_);}
	.st3{clip-path:url(#SVGID_8_);}
	.st4{clip-path:url(#SVGID_10_);}
	.st5{clip-path:url(#SVGID_12_);}
	.st6{clip-path:url(#SVGID_14_);}
	.st7{clip-path:url(#SVGID_16_);}
	.st8{clip-path:url(#SVGID_18_);}
	.st9{clip-path:url(#SVGID_20_);}
	.st10{clip-path:url(#SVGID_22_);}
	.st11{clip-path:url(#SVGID_24_);}
	.st12{clip-path:url(#SVGID_26_);}
	.st13{clip-path:url(#SVGID_28_);}
	.st14{clip-path:url(#SVGID_30_);}
	.st15{clip-path:url(#SVGID_32_);}
	.st16{clip-path:url(#SVGID_34_);}
	.st17{clip-path:url(#SVGID_36_);}
	.st18{clip-path:url(#SVGID_38_);}
	.st19{clip-path:url(#SVGID_40_);}
</style>

<g>

<defs>

<rect height="684.34" id="SVGID_37_" width="580.24" y="0"/>

</defs>

<clipPath id="SVGID_2_">

<use style="overflow:visible;" xlink:href="#SVGID_37_"/>

</clipPath>

<g class="st0">

<path d="M109.19,544.17c3.83,0.82,4.66,4.58,6.59,7.17c-1.48-1.29-2.71-2.73-4.4-4.74c-1.35,10.7-5.98,20.79,1.31,30.6    c1.07-4.97,2.4-9.76,3.06-14.64c0.49-3.6,0.11-7.31,0.12-10.98c2.16-3.66,2.24-7.57,1.07-11.48c-1.5-5.04-1.34-10,0.26-14.97    c0.26,0.43,0.31,0.84,0.36,1.25c1.01-0.77,1.89-1.43,2.72-1.83c-2.81,3.99-3.56,8.3-2.85,12.69c0.86,5.28,2.26,10.46,3.49,15.95    c0.77-2.83,1.53-5.5,2.22-8.18c0.4-1.57,0.69-3.17,1.25-4.59c1.21-3.62,2.19-7.4,3.41-10.99c0.18,2.1,0.31,4.04-0.01,5.9    c-0.96,5.65-2.09,11.27-3.07,17.17c0.08,2.71,0.08,5.16,0.08,7.66c0.58-0.24,1.02-0.42,1.4-0.31c-1.92,5.05,1.37,8.82,2.71,13.11    c1.48-4.25,2.96-8.5,4.35-12.48c-1.93-2.68-3.46-4.79-4.99-7.2c-0.06-1.1-0.13-1.9-0.2-2.81c-1.32,0.7-2.44,1.29-3.48,1.66    c0.87-1.39,1.66-2.54,2.46-3.7c1.31-0.69,2.64-1.45,3.4-2.59c2.6-3.89,5-7.9,7.72-11.98c2.99-6.18,5.73-12.26,8.72-18.39    c0.25-1.2,0.48-2.42,0.2-3.5c-0.34-1.3-1.13-2.48-1.48-3.68c1.21,1.11,2.18,2.2,3.15,3.28c0.32-0.07,0.64-0.15,0.97-0.22    c-0.27-3.02-0.55-6.05-0.58-9.08c0.82-0.26,1.83-0.42,1.91-0.78c1.52-6.68,3.35-13.38,0.54-19.99c0.68,0.31,1.07,0.48,1.46,0.65    c0-11.53,0-22.89,0-34.25c-0.32-0.08-0.63-0.15-0.95-0.23c-1.91,7.54-3.81,15.07-5.91,23.36c0.03,0.1,0.28,1.02,0.28,1.89    c-0.54-0.24-0.83-0.42-1.13-0.6c-0.83,2.79-1.65,5.57-2.78,8.28c-0.99,0.36-1.9,0.64-2.33,1.25c-1.34,1.92-2.49,3.98-3.73,5.72    c0-0.77,0.01-1.28,0.01-1.79c2.1-3.95,4.37-7.83,6.26-11.88c2.01-4.32,0.69-8.72-1-12.71c-2.72-6.45-5.99-12.67-9.13-19.18    c3.91,2.61,8.08,5.4,12.09,8.08c3.47-16.1-1.11-30.98-8.86-45.41c-8.17-15.2-23.74-20.05-37.56-27.54    c10.89,1.32,21.93,1.56,30.59,8.14c0-3.65-0.31-7.4,0.09-11.07c0.39-3.71,1.48-7.34,2.29-11.13c-3.84-0.96-7.6-1.9-11.22-2.8    c0.57-5.12,3.6-7.35,8.98-7.51c5.13-0.15,8.44,2.83,9.28,8.69c2.15,1.06,4.5,2.22,7.18,3.54c-0.76-10.42-4.37-19.65-8.74-28.63    c-5.15-10.59-13.34-18.58-22.45-25.74c-6.19-4.87-12.42-9.69-19.37-15.1c17.98,4.4,33.02,12.14,45.4,25.51    c-1.9-6.92-3.52-13.94-5.81-20.74c-1.37-4.08-3.66-7.88-5.76-11.68c-4.95-8.95-9.99-17.86-15.1-26.72    c-3.61-6.27-7.38-12.44-11.07-18.64c7.08,4.32,13.5,9.67,18.59,16.42c6.19,8.21,11.77,16.84,13.4,27.28    c0.31,1.97-0.38,4.09-0.61,6.22c4.07,15.36,8.35,30.96,12.27,46.65c1.05,4.22,1.34,8.7,1.44,13.08    c0.31,14.92,0.21,29.85,0.61,44.76c0.17,6.32,1.69,12.62,1.76,18.93c0.11,9.36-0.54,18.73-0.84,28.09    c-0.06,2.03-0.01,4.07-0.01,6.11c0.47,0.08,0.95,0.16,1.42,0.24c0.84-3.25,2.33-6.48,2.43-9.75c0.98-32.03,2.26-64.06,2.3-96.09    c0.02-14.96-1.58-30.09-4.1-44.86c-3.22-18.89-4.73-37.75-3.69-56.82c0.73-13.43,1.9-26.84,2.89-40.25    c0.01-0.17,0.26-0.33,0.58-0.7c0.54,12.78,1.18,25.34,1.57,37.92c0.41,13.21,0.76,26.42,0.8,39.63    c0.03,9.46-1.65,18.88-0.14,28.39c0.93,5.87,1.22,11.85,1.79,17.77c0.32,0.01,0.65,0.02,0.97,0.04c0.11-1.79,0.54-3.63,0.29-5.37    c-0.92-6.33,0.72-12.1,3.42-17.69c5.74-11.87,11.57-23.67,20.74-33.42c0.83-0.88,1.11-2.35,1.47-3.6    c3.34-11.58,6.65-23.17,10.19-34.56c-3.19,11.95-6.62,23.71-10.04,35.47c1.27,0.37,1.82,0.53,2.39,0.7    c-5.8,19.2-15.55,36.14-25.89,52.8c-0.74,1.2-1.45,2.68-1.46,4.04c-0.12,11.12-0.1,22.24-0.03,33.36c0,0.36,0.91,0.72,1.36,1.36    c-0.56,1.75-1.7,3.3-1.5,4.67c1.12,7.82,2.56,15.59,3.88,23.38c0.15-0.09,0.3-0.18,0.45-0.26c1.67-8.5,3.33-17,5.03-25.63    c-1.14-1.49-2.69-3.5-4.29-5.59c-1.17,1.06-2.41,2.18-3.68,3.03c0.97-1.5,1.87-2.81,2.96-3.94c7.16-7.4,16.3-11.04,26.02-13.47    c2.9-0.72,5.34,0.4,6.91,2.96c0.66,1.07,0.97,2.36,1.44,3.55c2.09-0.33,3.97-0.63,5.96-0.95c0.69-40.23-1.26-80.03-6.76-119.7    c-0.52,0.48-0.86,0.8-1.21,1.11c2.19-6.58,0.39-13.09-0.81-19.44c-3.53-18.7-7.31-37.36-11.5-55.92    c-0.95-4.22-4.35-7.84-5.93-11.99c-6.77-17.85-13.29-35.8-19.9-53.71c-1.13-3.05-2.3-6.08-3.51-9.27    c8.01,5.57,19.44,28.04,29.65,58.31c1.44-5.35,2.72-10.11,4-14.87c0.12,0.04,0.23,0.08,0.35,0.11    c-1.53,8.76-3.07,17.52-4.21,24.07c5.29,26.84,10.2,51.71,15.11,76.58c-0.33,0.04-0.65,0.08-0.98,0.12    c0.29,3.83,0.39,7.69,0.89,11.5c4.91,37.66,6.64,75.5,6.24,113.45c-0.13,12.96-0.24,25.93-0.76,38.88    c-0.41,10.11-1.43,20.19-2.2,30.49c0.76,0,1.88,0,3.2,0c1.18-9.71,2.36-19.37,3.54-29.03c0.28,0.03,0.55,0.06,0.83,0.09    c-0.54,5.09-1.08,10.19-1.73,16.28c0.91-1.19,1.11-1.45,1.54-1.47c-0.62,4.72-1.47,9.2-2.18,12.98c1.1,1.38,1.76,2.21,2.14,3.01    c-0.73-0.18-1.18-0.34-1.89-0.59c-0.47,7.45-3.57,14.54-2.18,23.02c-1.59,4.23-3.39,9.41,0.38,14.7    c4.51-11.27,6.94-22.88,6.31-34.92c0.6,1.95,0.99,3.75,1.45,5.88c5.17-13.15,3.02-26.91,4.78-40.73c-0.88,1.09-1.46,1.79-2.03,2.5    c1.72-4.28-0.53-7.9-1.78-11.76c0.51,0.76,1.01,1.51,2.01,3c0-7.66,0-14.6,0-21.75c0.35,0.55,0.66,1.04,0.61,0.97    c3.22-10.52,6.83-21.35,9.73-32.37c0.98-3.73,0.16-7.95,0.37-12.01c0.4,3.06,0.8,6.12,1.23,9.42c2.07-3.05,4.1-6.04,6.06-8.92    c-3.08,10.02-6.14,19.99-9.1,29.63c5.26-4.35,10.43-8.62,15.59-12.88c1.93-13.02,4.19-26.46,5.85-39.98    c1.7-13.81,7.91-25.39,16.02-36.32c3.09-4.16,5.37-8.91,7.77-12.97c-1.46-1.55-2.57-2.72-3.68-3.9c2.61-3.43,5.03-2.38,7.73-0.72    c2.54-6.92,5.06-13.51,7.32-20.19c0.4-1.18,0.06-2.94-0.58-4.08c-5.21-9.22-10.58-18.36-15.89-27.53    c-0.23-0.39-0.44-0.8-0.19-1.67c5.52,4.8,11.03,9.6,16.83,14.69c2.17,3,4.06,5.7,6.4,9.04c0.57-9.16,1.09-17.59,1.63-26.36    c-1.26,2.09-2.32,3.84-3.37,5.58c1.02-2.84,2.05-5.68,3.13-8.69c-0.66-0.95-1.32-1.89-2.43-3.49c1.36,0.85,2.1,1.31,3.73,2.32    c1.26-5.36,2.57-10.32,3.56-15.34c2.88-14.57,4.91-29.36,8.6-43.72c6.11-23.77,18.52-44.64,32.59-64.48    c6.83-9.63,14.4-18.74,21.64-28.09c0.32,0.24,0.65,0.48,0.97,0.72c-8.37,12.44-16.74,24.89-25.06,37.27    c0.52,1.26,0.88,2.13,1.16,3.06c-0.68-0.28-1.29-0.61-2.39-1.21c-8.44,14.38-13.97,29.85-19.72,45.29c0.2,0.86,0.41,1.79,0.4,2.75    c-0.56,0.32-1.1,0.56-1.2,0.93c-2.04,7.35-3.96,14.74-6.03,22.08c-1.67,5.92-3.5,11.79-4.85,16.32c4.35-3.6,9.49-7.86,14.64-12.13    c-0.21-0.24-0.42-0.48-0.64-0.72c-0.06-1.16-0.12-2.33-0.2-4.04c0.91,1.22,1.46,1.95,2,2.68c0.92-0.38,1.68-0.69,2.43-0.72    c-0.54,2.2-1.07,4.11-1.76,6.63c1.82-0.56,2.59-0.79,3.28-0.79c-0.58,1.22-1.58,2.24-1.51,3.18c0.76,9.62,1.64,19.23,2.61,28.83    c1.07,10.62,4.62,21,2.64,32.64c6.07-9.51,8.64-19.36,10.78-29.34c2.18-10.13,4.21-20.29,6.2-29.91    c-4.39-10.16-8.67-20.05-12.95-29.93c6.93,6.96,12.02,14.99,15.32,24.16c4.95-11.69,9.82-23.18,14.75-34.84    c-0.46-0.54-1.14-1.34-1.82-2.14c0.27-0.25,0.54-0.51,0.82-0.76c2.17,1.97,4.33,3.94,6.23,5.86c-1.18-0.58-2.09-1.11-3.89-2.14    c-2.91,9.21-5.99,17.94-8.3,26.87c-0.78,3,0.39,6.51,0.4,9.74c-0.66-0.29-1.05-0.54-2.18-1.26c-1.52,9.47-2.96,18.44-4.39,27.4    c0.21,0.06,0.42,0.12,0.63,0.18c3.77-6.87,7.54-13.73,11.54-20.7c5.01-7.39,9.8-14.67,14.56-21.96c1.44-2.2,2.82-4.44,4.47-6.68    c1.89-1.95,3.52-3.89,5.7-6.47c-10.44-11.3-20.85-22.57-31.28-33.83c-2.14-2.32-4.34-4.59-6.51-6.88    c6.45,6.05,13.16,11.86,19.29,18.23c6.22,6.46,11.85,13.47,17.79,20.2c0.56,0.64,1.45,0.99,2,1.36c0.56,1.31,1.14,2.68,1.48,4.35    c-0.79-0.12-1.33-0.55-2.6-1.54c-2.72,6.67-5.29,12.96-7.85,19.25c0.3,0.15,0.6,0.31,0.91,0.46c2.45-2.27,4.9-4.54,7.36-6.8    c0.08,0.09,0.17,0.17,0.25,0.26c-4.92,6.26-9.84,12.51-14.77,18.77c5.99,10.69,11.75,20.96,17.24,30.76    c3.4-13.75,6.94-28.08,10.59-42.86c-0.96-1.61-2.11-3.6-3.3-5.56c-2.55-4.22-5.12-8.42-7.68-12.64    c3.62,4.91,7.69,9.57,10.78,14.79c8.12,13.74,14.44,28.32,18.71,43.89c-0.66-0.74-1.15-1.68-1.57-2.65    c-4.43-10.27-8.82-20.56-13.28-30.82c-0.53-1.22-1.45-2.28-2.26-3.52c-1.88,8.59-3.67,16.66-5.4,24.75    c-1.6,7.5-3.37,14.98-4.64,22.54c-1.58,9.37,1.93,18.01,4.49,26.78c2.37,8.1,4.41,16.29,6.6,24.44c-0.23,0.06-0.45,0.12-0.68,0.18    c-3.92-13.57-7.85-27.13-12.1-41.85c-1.66,10.86-3.16,20.68-4.53,29.67c5.1,4.3,9.64,7.97,13.97,11.87    c1.44,1.29,3.18,2.98,1.74,5.46c-2.08-1.52-3.83-2.81-5.59-4.09c-0.12,0.14-0.24,0.29-0.37,0.43c1.83,3.02,3.65,6.04,5.76,9.52    c4.98-21.81,6.65-43.99,18.29-63.49c-1.24-0.68-2.01-1.1-2.86-1.57c1.06-1.93,2.02-3.69,2.98-5.45c0.95-1.98,2.57-3.9,2.74-5.94    c0.6-6.93,0.96-13.9,0.83-20.85c-0.04-2.32-2.26-4.53-2.77-6.94c-1.85-8.81-4.09-17.63-4.89-26.56    c-1.02-11.4-1.04-22.9-0.98-34.36c0.04-7.04,2.3-13.72,5.97-19.86c-0.54,1.56-0.99,3.16-1.65,4.66    c-3.31,7.49-3.15,14.99-1.06,22.83c4.38,16.41,7.43,33.1,7.83,50.11c0.19,8.11-0.83,16.24-1.3,24.37    c0.38,0.08,0.76,0.16,1.14,0.24c1.24-4.04,3.11-8.01,3.59-12.14c0.9-7.82,3.71-14.88,7.27-21.7    c11.17-21.39,22.63-42.64,33.63-64.12c10.16-19.83,19.87-39.9,29.8-59.85c0.69-1.39,1.57-2.7,3.05-3.72    c-16.6,38.49-33.2,76.98-49.56,114.89c5.67-4.37,12.48-8.22,21-10.31c-5.27,5.37-10.11,10.1-14.74,15.03    c-9.2,9.81-18.68,19.4-27.2,29.77c-3.02,3.68-3.65,9.34-5.24,14.15c-0.49,1.48-0.52,3.11-0.84,5.19c2.32-2.73,4.32-5.07,6.31-7.41    c-1.55,4.99-5.87,8.69-5.57,14.43c1.84-0.96,3.57-1.86,5.3-2.76c0.19,0.24,0.38,0.49,0.57,0.73c-2.23,1.71-4.45,3.41-6.68,5.12    c0.49,0.31,0.99,0.61,1.48,0.92c0,13.69,0.18,27.38-0.05,41.06c-0.21,12.59-0.91,25.17-1.3,37.76c-0.06,1.92,0.43,3.85,0.4,6.04    c-7.21-8.56-14.15-17.38-21.38-26.56c-0.45,2.89-0.79,5.05-1.12,7.21c-2.41,15.77-4.38,31.61-9.39,46.88    c-1.35,4.11-1.81,8.57-2.29,12.91c-1.57,14.2-2.74,28.45-4.52,42.63c-1.01,7.98-2.93,15.85-4.43,23.77    c0.34,0.11,0.69,0.22,1.03,0.33c1.64-3.49,3.38-6.94,4.91-10.48c6.52-15.17,12.84-30.44,19.51-45.55    c6.76-15.31,15.94-29.68,18.04-46.77c0.17-1.35-0.18-2.77-0.28-4.16c0.44,0.19,0.87,0.37,1.95,0.83    c-0.84-20.06,11.61-30.73,26.4-39.04c-5.32,8.33-10.92,17.16-16.58,25.94c-1.12,1.74-2.42,3.38-3.76,4.95    c-6.59,7.69-6.18,9.51-2.05,17.2c8.99-12.15,17.85-24.13,26.71-36.11c0.27,0.2,0.55,0.41,0.82,0.61    c-9.03,12.34-18.06,24.68-27.3,37.3c1.87,4.95,3.88,10.26,5.96,15.78c2.01-3.55,3.85-6.81,5.7-10.07    c0.21,0.09,0.42,0.19,0.64,0.28c-1.77,3.75-3.53,7.49-5.7,12.1c2.18-1.2,3.46-1.91,5.18-2.86c1.56,1.23,3.07,2.42,4.2,3.31    c-0.12,5.73-5.38,5.56-7.71,8.43c9.18,7.07,21.03,9.92,28.08,18.76c-1.4-25.1-2.82-50.57-4.24-76.04c0.29-0.05,0.58-0.1,0.87-0.15    c1.2,5.7,2.54,11.37,3.56,17.1c3.82,21.42,6.44,42.98,6.93,64.76c0.04,1.59,0.94,3.21,1.65,4.72c3.41,7.21,6.88,14.39,10.15,21.19    c1.42-8.01,3.06-16.92,4.57-25.85c2.22-13.11,4.77-26.19,6.41-39.38c2.25-18.19,4.46-36.43,5.46-54.72    c1.79-32.98,2.63-66.01,3.95-99.01c0.17-4.36,0.86-8.7,1.6-13.01c-0.6,20.01-1.02,40.02-1.83,60.02    c-0.82,20.29-1.6,40.59-3.18,60.83c-1.56,20.02-4.09,39.96-6.02,58.28c2.52-5.77,5.75-13.15,8.97-20.54    c0.32,0.12,0.64,0.25,0.96,0.37c-1.19,5.08-2.31,10.18-3.57,15.25c-2.39,9.56-4.74,19.14-7.39,28.63c-0.58,2.09-2.39,3.83-3.5,5.8    c-0.63,1.12-1.22,2.35-1.46,3.61c-3.67,19.19-7.2,38.4-10.93,57.58c-4.57,23.46-9.31,46.89-13.98,70.33    c0.43,0.05,0.81,0.1,0.64,0.08c-0.98,5.2-2.15,10.28-2.85,15.43c-0.66,4.89-2.31,9.72-1.67,14.6c-0.69,1.76-1.61,3.48-2.03,5.3    c-2.73,12.01-5.34,24.05-8.04,36.27c2.4,0,5.13,0,8.38,0c5.44,1,11.52,2.12,17.43,3.53c-3.42-0.31-6.69-0.91-9.51-1.43    c-1.65,1.01-2.85,1.74-4.05,2.21c0.48-0.77,0.96-1.28,1.99-2.36c-5.29-0.35-9.93-0.66-14.97-0.99c-0.54,1.44-1.08,2.87-1.61,4.3    c0.08,0.01,0.15,0.02,0.23,0.03c-1.6,3.04-3.19,6.08-5.06,9.11c-4.82,3.21-12.31,15.81-11.46,20.42c2.6-4.11,4.75-7.44,6.81-10.81    c1.32-2.16,2.51-4.4,3.66-6.29c-0.96,3.81-1.81,7.29-2.59,10.5c1.15-0.53,2.56-1.17,4.23-1.71c1.75-0.68,3.34-1.3,4.71-2.25    c9.43-6.58,18.81-13.23,28.28-19.92c0.07,0.14-0.14-0.29-0.35-0.72c1.5-0.29,3.13-0.31,4.47-0.93c6.72-3.1,13.36-6.37,20.05-9.54    c0.61-0.29,1.35-0.3,2.48-0.54c-7.48,3.59-14.5,6.96-21.53,10.34c0.03,0.27,0.06,0.55,0.09,0.82c3.95,0.98,7.91,1.96,11.86,2.95    c-0.05,0.2-0.1,0.39-0.14,0.59c-3.52-0.72-7-1.71-10.56-2.07c-2.12-0.22-4.69-0.06-6.45,0.97c-11.47,6.73-22.5,14.1-31.49,23.21    c-0.5,3.24-0.91,5.84-1.34,8.61c4.24-0.94,8.37-1.85,12.84-2.83c0.01,0.01,0.51,0.58,0.93,1.06c-0.75,0.68-1.54,1.39-2.44,1.96    c-0.98-0.57-1.94-1.47-2.72-1.34c-6.4,1.1-10.49,5.36-14.6,10.98c4.33,0,7.94,0.17,11.52-0.09c1.32-0.1,2.57-1.22,3.85-1.87    c0,0.73,0,1.45,0,2.75c5.74-5.11,11.21-9.98,16.69-14.86c0.17,0.18,0.33,0.36,0.5,0.53c-5.01,5.22-9.91,10.53-15.07,15.6    c-2.67,2.63-4.08,5.45-3.8,9.23c0.13,1.85-0.29,3.75-0.53,6.46c1.98-1.27,3.37-2.15,5.11-3.27c-2.14,2.77-3.98,5.16-6.44,8.35    c2.78-0.38,4.37-0.59,6.46-0.88c-0.64,2.18-1.14,3.9-1.94,6.59c2.78-2.5,4.76-4.28,6.74-6.06c0.2,0.21,0.39,0.43,0.59,0.64    c-2.07,1.72-4.14,3.44-6.21,5.15c0.24,0.27,0.47,0.55,0.71,0.82c0.78,0.07,1.56,0.15,2.34,0.22c0.03,0.15,0.05,0.3,0.08,0.46    c-1.07,0.18-2.14,0.35-3.96,0.65c-1.29,4.12-2.64,8.45-3.7,11.85c0.66,3.15,1.12,5.32,1.76,8.35c2.69-4.25,4.93-7.81,7.17-11.36    c0.2,0.08,0.41,0.16,0.61,0.23c-1.2,4.11-2.4,8.22-3.6,12.33c6.11-4.66,5.4-12.26,8.9-18.13c-0.29,3.61-0.58,7.23-0.86,10.84    c0.43,0.2,0.85,0.39,1.28,0.59c1.91-2.75,3.83-5.49,5.74-8.24c0.23,0.12,0.46,0.24,0.7,0.36c-1.78,3.84-3.55,7.67-5.33,11.51    c0.16,0.13,0.32,0.25,0.49,0.38c1.3-1.67,2.6-3.35,3.9-5.02c0.2,0.09,0.39,0.17,0.59,0.26c-0.64,2.09-1.28,4.17-1.92,6.26    c0.12,0.09,0.23,0.18,0.35,0.28c1.78-2.48,3.56-4.96,5.35-7.44c0.24,0.12,0.47,0.24,0.71,0.36c-0.54,2.32-1.08,4.64-1.73,7.43    c6.14-4.97,6.63-12.23,9.64-19.04c0.68,8.74-4.46,16.21-3.5,24.26c0.65,0.13,1.31,0.26,1.96,0.38c2.44-8.83,4.88-17.67,7.32-26.5    c0.15,0,0.29-0.01,0.44-0.01c-0.32,2.36-0.64,4.72-0.98,7.07c-0.36,2.53-0.76,5.06-1.1,7.59c-0.41,3.01-1.13,6.04-1.01,9.04    c0.07,1.89,1.41,3.74,2.18,5.61c0.34-0.09,0.69-0.18,1.03-0.27c3.22-6.75,6.43-13.49,9.65-20.24c0.24,0.05,0.48,0.1,0.71,0.15    c-1.02,3.78-1.99,7.58-3.08,11.34c-1.11,3.81-3.27,7.53,0.11,11.77c2.43-6.51,4.85-13.03,7.28-19.54c0.1,0.02,0.2,0.05,0.3,0.07    c-0.78,4.22-1.55,8.44-2.33,12.67c0.33,0.13,0.65,0.25,0.98,0.38c2.75-4.85,5.51-9.71,8.21-14.47c0.39,8.34-5.42,16.01-3.79,24.85    c6.88-7.61,9.74-17.14,13.41-26.26c0.3,0.09,0.6,0.18,0.9,0.27c-1.17,4.46-2.3,8.94-3.52,13.39c-1.2,4.41-2.49,8.79-3.74,13.19    c0.37,0.3,0.74,0.6,1.11,0.9c1.15-1.03,2.74-1.84,3.38-3.12c3.18-6.38,6.12-12.89,9.48-19.39c-1.51,6.86-3.03,13.72-4.54,20.58    c0.36,0.13,0.72,0.26,1.09,0.39c5.37-4.56,9.44-10.06,11.94-16.91c-0.6,4.35-1.2,8.69-1.88,13.69    c6.27-4.31,8.34-10.83,12.01-16.13c0.38,0.2,0.77,0.4,1.15,0.59c-2.92,6.16-5.83,12.32-8.54,18.03    c9.37-4.51,14.13-14.09,18.98-23.59c0.3,0.16,0.6,0.33,0.89,0.49c-2.01,4.84-3.76,9.8-6.11,14.47c-2.33,4.63-5.27,8.96-8.42,14.23    c11.24-4.53,19.37-11.96,27.64-19.16c0.23,0.24,0.47,0.48,0.7,0.72c-5.93,6.12-11.86,12.23-18.21,18.78    c3.54-1.09,6.62-2.04,9.71-2.99c0.07,0.09,0.14,0.19,0.2,0.28c-1.4,0.89-2.8,1.78-4.2,2.67c0.03,0.16,0.06,0.32,0.09,0.48    c5.22-1.03,10.44-2.07,15.66-3.1c-7.86,4.06-16.22,6.56-24.88,7.36c-29.55,2.72-59.16,2.24-88.76,1.06    c-36.9-1.48-73.74-5.42-110.71-3.78c-20.62,0.91-41.25,2.53-61.74,4.96c-36.91,4.38-73.75,9.36-111,9.3    c-20.53-0.03-41.11-0.03-61.47-3.43c-2.51-0.42-4.98-1.14-7.46-1.77c-0.54-0.14-1.02-0.48-2.25-1.08    c6.8,0.49,12.98,3.33,19.88-1.29c-3.28-1.71-5.73-2.99-8.17-4.27c0.04-0.13,0.09-0.26,0.13-0.39c1.93,0.48,3.85,0.96,6.45,1.61    c-1.85-2.64-3.3-4.7-4.75-6.76c-32.94-1.13-65.74,4.06-98.42-0.3c0.01-0.37,0.02-0.73,0.03-1.1c3.66,0.49,7.33,0.97,10.99,1.46    c0.12-0.28,0.24-0.56,0.36-0.84c-10.49-5.27-21.36-9.98-29.6-18.8c10.35,6.38,21.19,11.56,33.07,14.38    c-9.76-6.45-20.53-11.43-28.01-20.23c5.72,3.07,11.74,6.3,17.76,9.53c0.06-0.18,0.11-0.36,0.17-0.54    c-5.21-7.05-10.43-14.1-15.64-21.14c0.47-0.17,0.94-0.35,1.41-0.52c0-2.21,0-4.42,0-6.63c2.06,7.32,7.16,12.62,11.82,18.24    c4.83,5.81,10.35,10.58,18.59,13.65c-7.18-8.45-12.15-16.96-14.4-27.37c3.85,5.39,7.43,10.38,11,15.38    c0.32-0.19,0.64-0.39,0.97-0.58c-4.1-6.12-9.28-11.7-10.55-19.85c4.77,6.62,9.23,12.8,13.68,18.99c0.1-0.12,0.21-0.24,0.31-0.35    c-1.99-6.93-3.97-13.86-5.96-20.79c0.37-0.14,0.74-0.28,1.11-0.41c2.8,9.44,6.93,18.04,15.02,24.33    c-6.63-9.25-7.69-19.5-6.17-29.86c1.1,6.12,1.8,12.75,3.56,19.08c1.8,6.47,4.91,12.45,11.51,15.98    c-2.49-5.92-5.19-11.53-7.21-17.36c-2.07-5.95-3.45-12.13-1.36-19.21c1.79,9.21,4.47,17.1,11.25,23    c-5.57-10.88-9.1-22.17-7.34-34.6c0.65,9.82,3.08,19.03,9.04,27.18c-4.68-14.58-2.3-29,0.04-41.94    c-0.24,7.26-1.17,16.04-0.64,24.73c0.53,8.64,2.22,17.28,6.66,25.13c1.64-0.19,2.91-0.34,4.59-0.54    c-4.12-11.65-7.92-23.33-5.05-36.07c0.94,11.58,0.83,23.33,10.83,31.49c-1-8.48-1.47-16.96-5.77-24.69    c-2.16-3.88-3.06-8.47-3.9-12.91c2.07,4.58,4.15,9.16,6.22,13.75c0.36-0.1,0.73-0.2,1.09-0.3c-0.31-3.25-0.72-6.49-0.92-9.75    c-0.72-11.59-1.73-23.18-1.89-34.78c-0.08-5.51,1.52-11.05,2.58-16.42c-3.53,21.59-1.84,42.58,5.13,63.17    c0.67-1.16,0.85-2.31,0.9-3.47c0.29-6.22,0.42-12.46,0.87-18.67c0.19-2.61,1.01-5.17,1.47-7.38c-0.58,8.96,0.05,17.37,4.07,25.5    c3.43-9.53-0.83-17.57-4.06-26.02c0.23-0.9,0.43-1.56,0.75-2.56c1.59,3.83,3.02,7.28,4.46,10.73c0.44-0.07,0.88-0.15,1.33-0.22    c-0.2-3.79,0.26-7.76-0.71-11.34c-3.12-11.53-6.2-23-5.45-35c-0.77-0.67-1.37-1.19-1.97-1.71c0.6,0,1.19,0,1.79,0    c0.35-2.78,0.69-5.45,1.02-8.13c0.32,0.03,0.64,0.07,0.97,0.1c-0.31,2.65-0.62,5.3-0.95,8.14c0.76,0.58,1.49,1.13,2.06,1.98    c-0.7,0.19-1.23,0.08-1.95-0.07c-0.14,11.67,1.23,22.74,5.74,32.66c1.48-6.96,3.01-14.13,4.53-20.99    c-0.77,7.53-1.61,14.76-2.27,22c-0.46,5.08,1.69,9.41,4.42,14.01c2.04-11.13,4.04-21.76,5.88-32.43    C110.13,546.92,109.45,545.51,109.19,544.17z M289.68,460.98c0.51-2.88,1.02-5.76,1.97-8.6c0.91-2.55,1.83-5.1,2.74-7.65    c-0.38-0.15-0.75-0.29-1.13-0.44c-1.02,2.49-2.04,4.97-3.25,7.96c-1.1,2.23-2.19,4.47-3.64,7.08c-0.36,2.38-0.72,4.75-1.08,7.13    c0.48,0.14,0.97,0.28,1.45,0.43C287.57,465.02,288.39,463.17,289.68,460.98z M393.57,542.05c-2.11,2.07-5.64,3.21-4.33,7.53    c1.88-2.36,3.77-4.73,6.13-7.21c1.09-2.06,2.18-4.12,3.73-6.41c1.65-3.15,3.31-6.3,5.24-9.99c-2.66-0.43-4.73-0.76-6.94-1.12    c-1.43,3.33-2.7,6.28-3.78,8.81c1.87,0.55,3.42,1,4.36,1.29c-3.46,0.35-4.93,2.85-6.42,5.52    C392.58,541.07,393.31,541.5,393.57,542.05z M118.32,563.12c-0.09-0.08-0.18-0.17-0.28-0.23c-0.09-0.05-0.29-0.07-0.29-0.06    c-0.3,1.1-0.71,2.19-0.85,3.32c-0.39,3.3-0.67,6.61-1,9.92c0.37,0.03,0.74,0.06,1.1,0.09c1.97-4.1,3.37-8.28,2.2-12.91    c0.49,0.78,0.97,1.57,1.56,2.51c1.53-6.28,1.44-6.77-2.61-10.54C118.43,558.57,118.62,560.95,118.32,563.12z M334.28,414.97    c-0.52-0.11-1.04-0.21-1.97-0.4c0.26,4.31,0.51,8.27,0.75,12.23c0.24,0,0.48,0,0.72,0.01c1.12-2.85,2.25-5.71,3.2-8.13    c-0.95-1.59-1.6-2.69-1.79-3.57c2.22,1.02,1.94-0.87,1.61-1.72c-0.59-1.56-1.66-2.94-2.53-4.4c-0.46,0.21-0.93,0.43-1.39,0.64    C333.53,411.42,334.18,413.2,334.28,414.97z M379.87,486.79c0.33-0.29,0.96-0.59,0.95-0.87c-0.19-4.83-0.46-9.65-0.71-14.48    c-0.44-0.04-0.88-0.08-1.32-0.12c-0.54,5-1.08,10.01-2.05,15.17c-0.35,5.01-0.69,10.03-1.04,15.04c0.49,0.08,0.97,0.16,1.46,0.24    c0.33-0.76,0.79-1.5,0.96-2.3c0.7-3.3,1.4-6.61,1.9-9.94C380.15,488.7,379.58,487.77,379.87,486.79z M304.97,453.65    c1.25-3.63,2.5-7.26,3.75-10.9c-0.56-0.18-1.12-0.35-1.67-0.53c-3.41,2.91-2.68,7.23-3.29,10.85c-1.48,0.11-2.97,0.21-4.93,0.35    c-0.97,2.67-2.02,5.56-3.51,8.83c-0.56,5.51-1.13,11.03-1.69,16.54c0.37,0.04,0.74,0.08,1.12,0.12c4.15-4.82,5.29-10.7,5.87-16.93    c-1.15,0.24-2.19,0.45-2.98,0.25c0.53-1.03,1.05-2.06,1.46-2.86c0.52,0.43,1.22,1,2.21,1.81    C302.51,458.39,303.49,456.11,304.97,453.65z M430.69,539.9c1.73-0.19,3.46-0.38,5.19-0.57c1.08-4.45,2.12-8.71,3.23-13.23    c-0.77,0.28-1.2,0.44-1.61,0.04c0.61-0.72,1.57-1.36,1.76-2.18c1.23-5.33,2.29-10.69,3.56-16.77    c-8.98,8.05-18.4,14.63-21.64,26.32c-0.05,0.18-0.34,0.3-0.8,0.19c-0.17-0.19-0.34-0.37-0.35-1.05c1.24-2.87,2.49-5.74,4.07-9.38    c-1.93,0.52-2.93,0.79-3.71,0.4c0.27-1.41,0.35-2.89,0.85-4.2c0.87-2.27,1.49-4.99,3.13-6.55c3.56-3.38,7.97-5.87,11.52-9.26    c2.88-2.76,5.82-5.97,7.29-9.57c1.94-4.75,2.66-10.05,3.56-15.17c1.91-10.86,3.59-21.76,5.4-32.85c-0.63,0.28-1.06,0.46-1.55,0.1    c1.27-2.6,3.25-5.07,3.71-7.81c3.13-18.65,6.1-37.32,8.81-56.03c1.79-12.32,3.07-24.71,4.63-37.51c-2.76-3.27-5.59-6.63-7.94-9.42    c-6.09,1.08-9.91,3.5-12.7,7.71c-8.49,12.78-17.1,25.48-25.63,38.23c-0.6,0.9-0.95,1.97-1.8,3.77    c15.04-14.18,23.18-18.63,29.52-16.47c-11.07,7.04-18.94,17.51-28.06,26.64c-0.16,0.16,0.17,0.82,0.17,1.78    c-5.29,1.96-9.42,5.41-12.8,9.88c-6.37,8.43-9.14,18.29-11.42,28.36c-1.11,4.9-2.2,9.81-3.08,13.91    c0.71-5.93,1.42-11.86,2.13-17.79c-0.56-0.09-1.12-0.17-1.68-0.26c-0.63,4.04-1.25,8.08-2.25,12.52    c-2.78,5.92-5.59,11.83-8.31,17.78c-0.37,0.8-0.25,1.83-0.36,2.75c0.33,0.06,0.67,0.12,1,0.19c-0.86,0.78-1.73,1.57-2.8,2.54    c0,5.69,0,11.46,0,18.27c1.25-1.89,2.27-2.86,2.61-4.03c2.08-7.06,4.3-14.1,5.88-21.28c1.21-5.48,1.55-11.15,2.49-16.06    c0.35,2.05,0.7,4.1,1.27,6.66c-0.41,1.81-1.1,3.61-1.12,5.42c-0.01,1.02-1.83,3.21,0.94,3.6c-3.12,1.21-1.91,4.24-2.6,6.43    c-1.4,4.47-1.18,9.46-4.33,13.37c0.36,0.53,0.7,1.04,1.05,1.56c-0.36-0.1-0.72-0.2-1.08-0.3c-1.35,2.6-2.69,5.2-4.11,7.94    c1.25,0.99,2.13,1.69,3.44,2.72c0.82-2.19,1.44-3.85,2.06-5.52c1.02-2.79,2.03-5.57,2.99-7.77c-0.04,2.03-0.08,4.07-0.14,6.64    c-0.51,3.37-1.03,6.74-1.4,9.18c-0.89,1.9-1.46,3.11-2.18,4.66c2.82-0.23,4.97-0.41,7.35-0.27c0.28,0.75,0.56,1.51,0.43,2.64    c-2.12,0.4-4.23,0.79-6.69,1.25c-1.18,4.82-2.34,9.58-3.5,14.34c0.23,0.05,0.47,0.1,0.7,0.15c1.79-1.77,3.58-3.53,5.36-4.78    c-1.8,2.63-3.6,5.25-5.49,8.01c1.65,0,3.18,0,4.68,0c1.03-1.3,1.9-2.46,2.84-3.56c1.26-1.47,2.58-2.88,3.81-3.78    c-1.19,2.16-2.37,4.33-3.56,6.49c-2.27,4.12-4.54,8.23-6.88,12.42c0,0,0.11,0.03-0.33,0.44c-0.54,1.27-1.09,2.53-1.88,4.38    c6.33-1.82,7.76-6.82,10.54-10.87c-1.31-0.81-2.33-1.45-3.47-2.16c1.54-0.14,2.79-0.26,4.06-0.38c-0.32-1.81-0.57-3.19-0.83-4.68    c2.85-0.9,5.01-3.72,8.36-1.34c-0.76,2.06-1.45,3.95-2.24,6.08c0.98,0.33,1.97,0.67,3.3,1.12c1.66-2.88,3.22-5.59,5.03-8.04    c0.18,0.16,0.36,0.32,0.47,1c-1.33,3.14-2.66,6.28-4.36,10.29c2.36-0.39,3.66-0.6,5.11-0.85c-0.29,0.93-0.6,1.9-0.92,2.93    c0.99,0.86,1.85,1.61,2.65,2.31c1.53-1.3,2.82-2.38,4.06-2.96c-1,1.3-2.01,2.6-2.97,3.84c0.31,1.09,0.59,2.07,0.41,2.88    c-0.39-0.44-0.79-0.88-1.5-1.67c-1.76,2.47-3.37,4.73-5.04,7.07c1.11,0.87,1.82,1.43,2.03,2.07c-0.69-0.13-1.39-0.25-2.47-0.45    c-1.37,2.87-2.75,5.77-4.13,8.67c0.37,0.27,0.74,0.54,1.12,0.8c1.97-0.78,3.88-1.75,5.91-2.28c2.36-0.61,3.21-1.92,3.35-4.02    c1.17,1.69,2.34,3.38,3.59,5.19c2.27-1.54,4.31-2.91,6.46-3.76c-1,1.58-1.99,3.15-2.99,4.73c0.52,0.35,0.92,0.62,1.38,0.93    c-5.68,5.05-11.43,15.31-10.95,20.14c4.34-4.94,8.36-9.52,12.37-14.09c0.32,0.26,0.64,0.52,0.96,0.78    c-3.81,5.97-7.61,11.94-11.42,17.9c2.35-0.89,4.34-1.95,5.96-3.41c3.04-2.74,6.97-5.21,8.58-8.69c3.57-7.75,5.93-16.05,8.94-24.55    c-2.24,0-3.89,0-5.58-0.33C430.18,540.36,430.13,540.03,430.69,539.9z M446.29,607.81c-1.35,1.8-2.7,3.6-4.05,5.4    c0.41,0.32,0.81,0.63,1.22,0.95c1.93-2.08,3.85-4.17,6.41-6.93c-1.94,0.12-2.78,0.17-3.55-0.22c0.97-3.01,1.94-6.01,2.91-9.02    c-0.34-0.19-0.69-0.37-1.03-0.56c-2.12,1.28-4.25,2.57-6.39,3.86c0.33,2.74,0.62,5.16,0.93,7.81    C444.3,608.34,445.35,607.83,446.29,607.81z M135,550.91c1.55-4.11,4.13-7.96,3.39-12.84c-7.77,5.6-10.67,14.34-6.33,17.76    c1.03-1.51,2.07-3.02,3.03-3.9c-0.36,2.2-0.71,4.41-1.1,6.79c1.24-0.09,1.83-0.13,1.33-0.09c1.23,4.73,2.34,9.01,3.45,13.29    c0.43-0.06,0.85-0.12,1.28-0.18c0-5.59,0-11.18,0-15.53c-0.8-3.8-1.37-6.5-2.03-9.64C136.88,548.41,135.97,549.91,135,550.91z     M247.82,449.6c0-0.12,0.02-0.25-0.01-0.37c-0.02-0.08-0.15-0.22-0.17-0.22c-1.63,0.9-3.25,1.81-4.85,2.19    c1.81-2.07,3.27-4.72,5.51-6.08c3.93-2.39,4.73-6.01,5.63-9.97c-1.69,0.16-3.13,0.3-4.56,0.43c-2.03-6.1-1.51-11.08,4.14-14.32    c4.25,4.28,2.76,9.42,1.81,14.55c5.24-6.22,6.65-13.37,6.78-21.02c-0.89,0.06-1.58,0.11-2.07-0.37c2.79-2.63,0.91-5.32,0.26-7.94    c-1.92-1-3.7-1.92-5.03-2.61c-3.02,4.67-5.78,8.94-8.69,12.7c1.42-3.3,2.83-6.61,4.29-10.01c-0.59-0.48-1.12-0.92-1.97-1.62    c-1.11,3.65-2.17,6.96-3.06,10.32c-0.12,0.45,0.66,1.13,0.91,2.27c-1.87,4.02-3.81,8.02-5.58,12.09    c-0.44,1.01-0.36,2.25-1.08,3.35c-3.86,3.98-4.47,6.16-3.34,12.23c0.72-1.29,1.4-2.5,2.03-3.15c-1.09,4.42-2.19,8.84-3.42,13.86    c2.71-1.42,4.81-2.52,6.87-3.08c-6.01,9.56-9.58,18.42-9.09,23.62c1.79-2.9,3.11-5.26,4.64-7.48c2.24-3.25,3.22-7.51,7.49-9.2    c0.54-0.22,0.51-1.88,1.29-2.83c1.41-3.24,2.83-6.47,4.24-9.71c-0.42-0.21-0.83-0.42-1.25-0.63    C248.87,447.75,248.21,448.92,247.82,449.6z M234.93,486.83c-0.92,3.01-1.83,6.02-2.75,9.03c0.31,0.1,0.62,0.2,0.94,0.3    c5.5-10.63,12.01-20.86,13.52-34.32c-2.22,2.82-3.85,4.75-5.32,6.79c-3.35,4.67-6.86,9.25-9.82,14.17c-1.56,2.6-2.25,5.8-0.5,8.95    c1.03-2.11,2.07-4.22,3.4-6.02C234.61,485.91,234.83,486.09,234.93,486.83z M361.28,446.33c-1.8,5.76-7.02,10.15-6.87,16.76    c0.77,0.52,1.45,0.97,2.05,1.38c0.16,1.38,0.31,2.69,0.49,4.28c2.47-0.85,4.74-1.62,7.61-2.6c-0.21-4.73-0.43-9.51-0.6-13.26    c0.45-3.74,0.79-6.56,1.22-10.14c-1.42,1.04-2.08,1.53-2.68,1.43c1.36-2.43,2.72-4.85,4.08-7.28c-0.46-0.22-0.93-0.45-1.39-0.67    C363.92,439.41,362.63,442.59,361.28,446.33z M308.57,265.31c-2.14,3.24-4.51,6.34-6.37,9.73c-3.59,6.56-2.23,13.33-0.65,19.9    c3.69-4.27,7.25-8.39,11.76-13.62c-0.83-3.54-1.88-8.04-2.43-12.46c0.49,0.65,0.99,1.29,2.06,2.7c0.63-7.53,1.18-14.23,1.74-20.94    c-0.36-0.09-0.71-0.19-1.07-0.28C312.12,255.36,310.61,260.37,308.57,265.31z M367.26,369.63c-2.14,1.52-4.28,3.05-7.32,5.22    c-0.61,5.99-1.35,13.34-2.13,21.02c6.19-4.17,12.08-8.14,18.26-12.3c-1.16-2.47-1.85-4.41-2.91-6.12    c-1.73-2.78-3.69-5.41-5.02-8.08c2.47,2.91,4.95,5.82,7.79,9.17c0.27-3.78,0.51-6.93,0.72-10.07c0.37-5.48-0.49-6.53-6.42-7.61    c-1.1,1.88-2.25,3.84-3.32,5.68C367.24,367.66,367.49,368.56,367.26,369.63z M300.13,351.59c4.12-6.4,4.23-9.67,0.24-14.26    c-1.06,5.5-2.07,10.77-3.1,16.17c0.65-0.11,1.1-0.19,1.47,0.26c-2.35,2.29-2.82,5.12-2.86,8.31c-0.14,11.6-0.49,23.19-0.83,34.78    c-0.06,2.04-0.48,4.07-0.73,6.11c12.03-16.21,7.55-35.06,9.71-53.51C302.25,350.67,301.16,351.42,300.13,351.59z M263.48,366.26    c0.92-0.68,1.84-1.37,2.76-2.05c-0.17-0.33-0.34-0.66-0.51-0.99c-3.25,0-6.5,0-10.09,0c-3.19,3.05-4.97,7.13-4.75,12.59    c-1.14,4.02-2.28,8.04-3.43,12.06c0.32,0.08,0.65,0.16,0.97,0.24c2.57-2.31,5.14-4.62,7.93-6.48c1.65,0.84,3.29,1.68,5.41,2.37    c1.57-1.84,3.14-3.68,4.62-5.41c2.16,1.01,3.54,1.66,4.8,2.26c-0.24,2.25-0.44,4.13-0.66,6.19c-2.89-0.29-5.53-0.56-8.99-0.91    c1.18,4.61,2.12,8.31,3.06,11.97c0.24-0.02-0.4,0.04-1.07,0.11c0,1.84,0,3.53,0,5.21c0.6,0.34,1.11,0.65,1.64,0.91    c0.52,0.25,1.08,0.43,1.89,0.74c4.36-12.54,7.9-25.06,9.38-38.09c-0.44-0.13-0.89-0.26-1.33-0.39c-1.2,4.02-2.41,8.03-3.41,11.36    c-0.32-3.05-0.73-6.9-1.24-11.77c-2.22,2.94-4.21,5.57-6.2,8.21c-0.14-0.04-0.27-0.08-0.41-0.12c0.83-2.34,1.65-4.68,2.65-7.5    C265.19,366.76,264.28,366.76,263.48,366.26z M170.96,511.3c1.12-5.09,2.24-10.19,3.36-15.28c0.23,0,0.47-0.01,0.7-0.01    c0,4.67,0,9.33,0,14c3.43-6.99,6.4-13.87,9.2-20.82c1.34-3.32,2.82-6.71,1.76-10.58c1.26-4.14,2.69-8.25,3.66-12.46    c0.25-1.08-0.97-2.49-1.1-4.25c1.26-6.28,2.45-12.58,3.79-18.85c1.55-7.3,3.27-14.57,4.79-21.89c0.21-1.01-0.29-2.18-0.23-3.82    c0.55-1.94,1.36-3.84,1.59-5.82c0.82-7.08,1.44-14.18,2.23-22.19c-1.89,1.18-3.06,1.62-3.84,2.44    c-8.33,8.77-16.62,17.57-24.85,26.42c-2.67,2.87-4.77,5.95-4.98,10.25c-0.3,6.06-1.4,12.08-1.86,18.14    c-0.2,2.62,0.44,5.29,0.52,7.95c0.06,2.29,0.13,4.63-0.26,6.87c-1.26,7.15-2.73,14.27-4.11,21.4c0.17,0.06,0.33,0.13,0.5,0.19    c1.32-2.11,2.63-4.22,4.03-5.77c-0.94,2.19-1.88,4.38-2.81,6.58c-2.49,5.91-2.56,12.05-1.82,18.3c4.16-4.47,3.83-10.04,4.05-15.2    c0.8-0.65,1.48-1.2,2.07-1.05c-0.51,4-1.03,8-1.57,12.23c0.75-0.46,1.15-0.71,1.61-0.39c-4.06,8.19-5.47,16.96-5.84,25.88    c1.49,1.63,2.87,3.13,4.48,4.88c0.74-1.87,1.37-3.45,2.52-5.09C170.02,519.69,172.49,516.22,170.96,511.3z M284.03,355.1    c-0.56,3-1.32,5.99-1.64,9.02c-0.43,4.14-0.52,8.31-0.76,12.47c0.37,0.06,0.73,0.12,1.1,0.18c3.26-9.03,9.61-16.81,10.73-27.19    c-3.38,1.84-6.31,3.44-9.14,4.57c3.02-2.23,6.04-4.46,9.26-6.84c5.16-21.23,4.91-42.88,1.16-64.8c-1.96,3.17-3.82,6.17-5.48,8.85    c1.54,0.55,2.73,0.98,4.29,1.53c-0.66,2.06-1.16,3.62-1.75,5.46c2.46,6.02,0.94,11.13-4.85,14.49c-0.52,8.61-1,16.76-1.51,25.11    c2.35-2.99,4.38-5.59,6.55-8.35c-2.49,5.13-5.11,9.78-7,14.7c-1.19,3.08-1.29,6.58-1.83,9.9    C283.16,354.25,283.92,354.41,284.03,355.1z M448.57,487.25c-2.29,4.47-4.59,8.95-6.57,12.82c4.29,0,8.92,0,13.92,0    c1.44-8.44,2.88-16.9,4.31-25.36c-0.32-0.27-0.64-0.55-0.96-0.82c-1.68,2.02-3.35,4.04-4.93,5.51c2.13-3.03,5.4-5.8,6.18-9.15    c3-12.81,5.22-25.8,7.65-38.74c0.07-0.36-0.68-0.87-0.53-1.71c0.66-1.4,1.65-2.73,1.93-4.2c3.57-18.8,7.05-37.61,10.51-56.43    c0.21-1.16,0.37-2.58-0.11-3.56c-2.72-5.54-5.61-11.01-8.54-16.44c-0.56-1.04-1.58-1.84-2.2-2.53    c-3.66,26.04-7.26,51.79-10.94,77.53c-0.82,5.76-1.95,11.47-3.07,17.75c-0.74,1.63-1.87,3.2-2.15,4.91    c-2.22,13.72-4.29,27.46-6.42,41.32C447.32,487.65,447.98,487.18,448.57,487.25z M225.97,388.18c-0.23,1.99-0.46,3.97-0.75,6.58    c0.42,1.34,0.84,2.68,1.26,4.02c-0.2-0.04-0.4-0.08-0.6-0.12c-0.45,2.97-0.89,5.93-1.81,9.13c-0.97,4.45-2.07,8.87-2.86,13.35    c-0.54,3.05,0.06,5.9,3.75,8.73c0.4-6.57,0.74-12.21,1.58-17.59c2.3,6.28,3.13,12.52-0.92,18.68c0.56,0.38,1.12,0.75,1.68,1.13    c3.24-3.74,6.48-7.49,9.74-10.72c-2.78,3.05-5.65,6.03-8.29,9.19c-0.94,1.13-1.5,2.65-1.95,4.09c-0.58,1.85-0.86,3.79-1.27,5.69    c-0.1-0.02-0.19-0.03-0.29-0.05c-0.45,3.41-0.91,6.82-1.36,10.23c0.37,0.15,0.75,0.3,1.12,0.45c3.76-5.98,8.03-11.71,11.14-18.01    c2.67-5.41,4.03-11.47,6.04-17.81c0.73-2.61,1.46-5.23,1.92-6.88c-2.16-0.48-4.06-0.72-5.77-1.44c-0.31-0.13-0.01-3.16,0.41-3.27    c1.95-0.5,4.05-0.44,6.09-0.59c0.07,0.36,0.13,0.72,0.2,1.08c0.6-1.38,1.19-2.77,2.19-5.09c-2.43,0.95-3.88,1.53-5.72,2.25    c-1.04-1.64-2.08-3.29-3.5-5.55c2.7-0.89,4.77-1.56,6.76-2.22c1.93-9.03,4.06-18.31,5.84-27.67c0.73-3.86,2.82-7.85,0.87-11.81    c0.54-2.51,1.46-5.01,1.53-7.53c0.12-4.12,0-8.36-3.9-11.53c-2.59,0-5.33,0-7.84,0c-1.87,4.56,0.99,7.49,2.29,10.4    c-1.02-0.97-2.04-1.95-2.91-2.78c-0.98,2.18-1.93,4.3-2.97,5.82c0.82-4.1,1.64-8.2,2.47-12.3c-0.47-0.33-0.94-0.66-1.41-0.99    c-2.85,2.07-6.51,3.6-8.38,6.34c-3.02,4.43-5.83,9.45-7.03,14.61c-2.62,11.27-4.34,22.76-6.07,34.21    c-0.76,5.06-0.64,10.26-0.92,15.4c0.4,0.11,0.79,0.22,1.19,0.34c1.16-1.87,2.32-3.73,3.6-5.79c-1.45-1.57-2.6-2.8-3.88-4.18    c0.17-3.15,2.17-3.83,4.39-3.41c1.63-2.1,3.07-3.96,4.4-5.38C225.98,387.32,225.95,387.47,225.97,388.18z M383.46,406.73    c-4.2,7.54-8.41,15.07-13.02,23.35c3.47-1.84,6.29-2.94,8.79-0.09c0.41,4.53-3.06,7-7.95,5c-0.15-0.33-0.61-1.32-1.07-2.32    c-0.46,0.13-0.93,0.27-1.39,0.4c-0.6,2.49-1.61,4.97-1.72,7.48c-0.41,9.88-0.55,19.77-0.75,29.66c-0.07,3.43-0.01,6.87-0.01,11.34    c4.05-8.02,7.93-14.87,11.02-22.06c2.57-5.97,4.73-12.22,6.14-18.56c1.23-5.54,1.81-11.4,1.51-17.05    c-0.29-5.67-4.14-11.08-1.33-17.06c0.08-0.16-0.13-0.46,0.24-0.13c4.47,2.35,6.06,6.19,6.11,11.33    c3.95-5.92,4.92-12.82,6.71-19.37c1.86-6.81,3.38-13.72,5.06-20.58c-0.49-0.19-0.98-0.38-1.46-0.58    c-5.4,9.56-10.79,19.12-16.21,28.66C384.07,406.26,383.69,406.18,383.46,406.73z M379.38,393.97c1.35,3.01,2.69,6.03,3.8,8.51    c6.01-9.1,12.09-18.3,18.2-27.55c-0.16-0.13-0.56-0.44-0.95-0.75c0.35,0.13,0.69,0.26,1.04,0.39    c5.19-10.12,8.95-20.92,13.87-31.24c-10.71,7.73-21.7,15.23-29.23,26.12c-4.89,7.07-9.21,15.02-7.6,24.28    c-0.44,0.41-1.16,0.75-1.28,1.24c-3.04,11.54-6.01,23.1-8.99,34.65c0.32,0.16,0.64,0.32,0.95,0.48    c4.32-8.69,8.64-17.37,12.74-25.61C380.79,400.47,379.85,397.14,379.38,393.97z M383.23,306.79c-2.91,4.48-6.02,8.85-8.65,13.49    c-1.46,2.57-2.12,5.6-3.15,8.44c3.2,2.05,5.5,3.54,7.64,4.92c1.84-9.31,3.66-18.49,5.5-27.79c-0.66,0.24-1.1,0.4-1.54,0    c1.03-2.05,2.06-4.1,3.09-6.15c-0.33-0.08-0.66-0.16-0.99-0.24c-2.48-16.34,6.1-30.72,8.96-46.15    c-5.12-9.5-8.77-13.31-15.45-15.93c-1.12,12.98-2.23,25.87-3.38,39.17c3.47-2.62,5.62-7.17,10.97-4.63    c-3.43,6.18-6.82,12.08-10,18.08c-4.6,8.69-9.1,17.44-13.48,26.24c-0.75,1.5-0.66,3.42-1.03,5.55c2.66,1.03,4.89,1.9,7.06,2.74    c-1.07,0.97-2.28,2.07-3.98,3.61c2.56,0.37,4.4,0.63,5.94,0.85C371.11,319.03,378.42,313.34,383.23,306.79z M420.59,339.15    c6.86-5.54,15.11-7.16,23.87-8.36c-0.76-0.39-1.28-0.91-1.77-0.88c-5.53,0.35-11.11,0.47-16.58,1.32    c-3.53,0.55-5.82,4.53-5.94,8.83c-0.81,1.06-1.86,2-2.38,3.18c-6.29,14.33-13.56,28.26-16.67,43.84    c-2.03,10.2-4.63,20.3-6.99,30.51c2.56-0.65,4.84-1.23,7.47-1.91c13.78-27.92,29.34-55.26,49.23-79.09    c-2.12-1.56-4.01-2.93-6.25-4.58c-0.74,0.08-1.94,0.25-3.14,0.34C433.73,332.95,426.98,336.31,420.59,339.15z M162.76,415.48    c0.91,3.01,1.83,6.01,2.97,9.77c1.11-2.47,1.77-4.29,2.71-5.96c3.75-6.66,7.22-13.51,11.49-19.82c3.47-5.12,8.57-8.63,14.82-10    c1.87-0.41,3.77-0.69,6.21-1.12c0-13.23,0-26.24,0-40.13c-2.61,0.83-5.19,1.32-7.46,2.44c-4,1.98-8.07,1.43-10.77-1.9    c-0.11-1.27-0.22-2.54-0.41-4.85c-4.71,1.92-8.83,3.6-13.17,5.37c2.69,2.25,4.64,3.89,7.1,5.94c-1.81,2.13-2.83,4.41-4.45,4.98    c-3.02,1.07-4.32,3.15-4.95,5.79c-0.86,3.65-1.63,7.36-1.91,11.09c-0.41,5.48-0.17,11-0.54,16.48c-0.5,7.27-1.32,14.51-2.52,21.37    c-0.89-3.87-2.14-7.71-2.57-11.63c-0.45-4.11,0.06-8.32-0.18-12.47c-0.18-3.02-0.9-6.01-1.38-9.01c-0.46,0.04-0.93,0.08-1.39,0.12    c0,20.27,0,40.53,0,60.8c0.81,17.16-0.29,34.27-1.61,51.48c2.13-5.48,4.16-11.03,4.68-16.71c0.92-9.97,1.01-20.03,1.26-30.05    c0.18-7.14,0.74-14.14,4.22-20.41C164.04,423,163.19,419.12,162.76,415.48z M289.52,261.51c-0.43,0.27-1.23,0.51-1.24,0.8    c-0.44,9.01-0.81,18.01-1.16,27.02c-0.01,0.25,0.39,0.51,0.84,1.05c3.76-6.26,8.78-11.83,6.32-19.8    c-0.82-2.64-2.05-5.16-2.57-7.63c1.01,1.37,2.02,2.73,3.47,4.69c0-3.21,0.05-5.65-0.01-8.09c-0.21-8.38,2.85-17-2.12-25.11    c-0.49-0.8,1.54-3.79,3.04-4.92c0.76-0.58,4.17,0.54,4.24,1.15c0.22,1.9-0.32,4.03-1.06,5.86c-0.38,0.92-1.85,1.4-2.46,1.83    c0,9.92,0,19.43,0,28.95c3.69-6.71,6.78-13.64,9.91-20.57c2.84-6.3,5.55-12.67,8.6-18.86c2.97-6.02,5.69-11.9,1.75-18.53    c-0.42-0.71-0.53-1.61-0.75-2.43c-3.76-14.07-4.7-28.36-3.78-42.86c0.33-5.17,0.05-10.37,0.05-15.49    c-0.37,0.46-1.05,1.12-1.52,1.89c-5.29,8.61-10.56,17.24-15.8,25.88c-0.37,0.6-0.58,1.36-0.65,2.07    c-1.1,11.18-2.28,22.35-3.22,33.54c-0.85,10.2-1.67,20.41-2.06,30.64C289.08,248.97,287.64,255.43,289.52,261.51z M319.66,340.19    c1.52-14.3,1.79-28.52-2.78-42.48c5.59,7.33,8.15,15.93,9.9,24.57c1.76-2.3,3.48-4.54,5.2-6.78c-5.55,15.08-6.93,30.82-8.46,46.62    c7.48-15.39,18.84-27.54,31.74-38.57c-0.35-3.91-0.71-7.77-1.06-11.63c0.27-0.04,0.55-0.08,0.82-0.13    c0.59,3.64,1.17,7.28,1.77,11.02c1.37-0.23,2.74-0.45,4.24-0.7c-0.22-3.97-0.82-7.75-0.56-11.46c1.02-14.82,4.36-29.21,8.92-43.31    c3.09-9.55,5.04-19.27,5.59-30.05c-18.55,5.48-32.18,17.39-45.07,30.08c3.07,1.92,5.91,3.71,8.76,5.49    c-0.13,0.43-0.26,0.86-0.39,1.29c-1.32,0.46-2.62,1.04-3.98,1.34c-3.45,0.76-7.06,1-10.35,2.19c-4.78,1.72-8.36,4.66-8.6,10.52    c-0.19,4.86-1.26,9.68-1.6,14.54c-0.64,9.02-1.37,18.05-1.41,27.09c-0.02,4.45,1.01,8.81-0.84,13.21    c-0.46,1.09,0.78,2.88,1.05,4.87c-0.39,0.96-1.13,1.94-1.1,2.89c0.19,5.31,0.57,10.61,0.95,17.04c1.42-1.66,2.82-2.57,3.1-3.75    c1.2-4.94,2.17-9.95,3.02-14.96C319,346.34,319.09,343.5,319.66,340.19z M360.24,215.75c-4.97-3.02-9.94-6.04-15.5-9.42    c-3.47,2.18-7.54,3.55-9.8,6.36c-7.67,9.58-15.35,19.3-16.4,32.35c-0.33,4.12-1.47,8.16-1.98,12.27    c-0.51,4.15-0.7,8.34-1.11,13.53c2.2-2.81,3.7-4.71,5.19-6.62c-4.63,7.93-5.95,12.06-5.15,16.03c8.82-8.52,17.7-17.73,27.27-26.15    c9.64-8.48,20.62-15.08,32.77-18.85c0.95-3.46-0.07-5.97-2.3-8.01C369.08,223.47,364.86,219.77,360.24,215.75z M339.93,196.71    c-0.12,1.2-0.25,2.4-0.38,3.63c14.63,0.87,17.68,1.49,22.05,4.48c-2.38,0.23-4.64,0.41-6.89,0.68c-2.16,0.25-4.3,0.6-6.81,0.95    c10.45,6.61,20.75,12.4,27.98,22.16c1.68-10.11,2.72-19.96,5.06-29.5c2.48-10.09,1.46-19.06-4.34-27.73    c-3.75-5.61-6.86-11.64-10.1-17.21C357.61,168.35,348.89,182.28,339.93,196.71z M257.1,332.36c2.35-4.66,4.75-9.3,7.04-13.98    c3.92-8.02,9.27-15.59,7.8-25.59c-0.73-1.25-1.64-2.82-2.74-4.69c1.23-0.93,2.34-1.76,3.49-2.62c1.75,0.72,3.26,1.34,5.13,2.11    c2.15-8.98,4.25-17.72,6.23-25.99c-2.5-8.26-4.99-16.04-13.81-20.11c-1.43,2.8-2.79,5.48-4.16,8.16c0.3,0.26,0.6,0.52,0.89,0.78    c2.63-1.3,5.26-2.59,8.32-4.1c1.01,1.18,2.32,2.71,3.53,4.14c-2.51,4.42-4.42,4.65-8.58,1.21c-0.62,1.35-1.19,2.68-1.84,3.96    c-7.12,13.98-14.34,27.9-21.3,41.95c-1.29,2.61-2.58,5.9-2.11,8.57C246.75,315.81,251.1,324.51,257.1,332.36z M273.54,335.47    c0.37,1.77,0.75,3.54,1.1,5.21c1.8,0.98,3.39,1.84,4.83,2.62c0.42,1.22,0.78,2.23,1.13,3.24c0.24-0.04,0.47-0.07,0.71-0.11    c0.54-8.12,1.09-16.24,1.65-24.57c-3.67,0.87-6.94,1.85-9.18-1.28c-0.65-0.9-0.67-3.1-0.02-3.95c2.52-3.26,5.85-1.4,8.99-0.59    c0-6.3,0-12.34,0-18.32c-4.89-0.69-7.74,0.61-9.48,4.22c-4.43,9.19-8.98,18.33-13.14,27.64c-3.38,7.57-4.98,15.59-4.74,24.09    c1.69-0.5,3.07-0.91,4.96-1.46c2.09,3.36,4.14,6.67,5.88,9.47c2.53-1.61,4.44-2.82,6.77-4.3c0.95-2.88,2.12-6.42,2.79-8.47    c-3.25-9.91-4.28-18.71-4.68-27.62C271.85,325.84,272.6,330.36,273.54,335.47z M333.99,400.11c-0.04-1.31,0.29-2.79-0.19-3.91    c-2.25-5.25-0.7-9.67,5-12.35c0.37,1.07,1.16,2.17,0.99,3.08c-0.49,2.58-0.86,5.4-2.2,7.55c-3.57,5.7-2.94,10.97,1.34,16.39    c1.49-15.01,2.98-30.02,4.46-44.96c-8.5,4.27-16.1,10.5-23.25,17.34c-0.94,0.9-1.88,2.14-2.11,3.36    c-0.99,5.23-1.71,10.52-2.42,15.1c5.68,2.58,10.81,4.9,15.68,7.11C332.13,406.22,333.01,403.44,333.99,400.11z M370.54,412.88    c2.07-9.1,4.13-18.21,6.28-27.65c-5.71,3.72-11.06,6.99-16.14,10.64c-1.47,1.05-2.94,3.15-3.06,4.86    c-0.93,13.28-1.55,26.57-2.22,39.87c-0.12,2.44-0.02,4.89-0.02,7.89c2.5-4,4.62-7.37,6.7-10.77c1.14-1.86,2.59-3.65,3.2-5.68    C367.13,425.88,368.64,419.63,370.54,412.88z M342.8,403.94c1.37,0.84,2.74,1.68,4.2,2.58c2.03-2.22,3.54-4.13,5.32-5.77    c1.99-1.83,3.02-3.82,3.2-6.63c0.35-5.48,1.24-10.91,1.82-16.38c0.63-5.87,1.17-11.75,1.8-18.13c-3.52,1.09-6.51,2.07-9.53,2.93    c-2.57,0.73-3.78,2.31-3.99,4.99C344.74,379.45,343.74,391.36,342.8,403.94z M430.32,297.6c-1.56-4.17-3.13-8.33-4.97-13.24    c-9.81,12.04-13.66,26.21-20.25,39.01c7.51-1.46,14.62-2.84,21.79-4.23c1.13-2.18,2.24-4.32,3.41-6.57    c-2.67-3.12-0.86-6.18-0.07-9.34C430.65,301.6,430.47,299.82,430.32,297.6z M133.07,388.49c6.3,6.5,11.47,13.75,14.72,23.01    c-0.28-5.43-0.62-10.04-0.74-14.65c-0.23-8.79-0.26-17.59-0.52-26.38c-0.11-3.82-3.69-6.68-8.65-7.43    c-3.94-0.59-5.53,1.88-6.56,4.96C129.03,374.86,128.9,381.61,133.07,388.49z M455.04,504.36c0.09-1.02,0.18-2.03,0.29-3.31    c-2.91,1.05-5.52,1.72-7.86,2.92c-1.35,0.7-2.95,2.08-3.26,3.43c-2.5,10.72-4.72,21.51-7.03,32.28c0.57,0.16,1.05,0.29,1.82,0.51    c-2.42,0.83-8.12,16.14-7.66,20c2.01-2.22,3.71-4.69,5.95-6.46c5.45-4.3,8.46-9.83,9.94-16.53    C449.62,526.4,452.32,515.67,455.04,504.36z M396.52,340.67c-3.07,7.45-6.14,14.9-9.21,22.36c0.9,0.05,1.27-0.19,1.6-0.47    c8.72-7.2,17.45-14.41,26.16-21.62c0.55-0.46,1.24-0.89,1.54-1.49c3-6.07,5.93-12.17,9.09-18.67c-1.88,0.48-3.57,0.92-4.98,1.28    c-2.58,4.24-2.73,4.45-8.03,6.21C406.04,330.48,400.36,333.9,396.52,340.67z M331.49,435.76c-0.4-7.73-0.81-15.46-1.27-24.19    c-4.69-0.71-9.97-1.51-15.64-2.37c-0.52,7.98-0.99,15.13-1.46,22.46c1.75,0.42,3.13,0.75,3.88,0.93c2.77,1.84,5.06,3.36,7.25,4.82    c1.58-1.5,2.53-2.67,3.73-3.46C329.56,432.92,331.06,432.8,331.49,435.76z M195.12,481.79c7.36-5.08,5.91-14.07,9.24-21.93    c-0.01-0.18-0.09-1.36-0.2-2.87c-1.06,0.41-1.97,0.76-2.59,1c-0.4-2.98-0.8-6.04-1.21-9.1c-6.5,23.14-11.64,46.36-14.73,69.99    c0.42,0.1,0.83,0.21,1.25,0.31c1.05-3.99,2.1-7.97,3.05-11.55c0.14,1.17,0.33,2.79,0.52,4.41c2.36-3.96,6.58-6.73,6.22-11.8    c-0.32-4.62-0.59-9.25-0.88-13.8c1.38-1.17,2.65-2.25,3.92-3.33c-0.26-0.36-0.52-0.71-0.78-1.07c-1.71,1.02-3.42,2.05-5.32,3.19    C194.02,484.06,194.37,483.06,195.12,481.79z M370.94,330.97c-2.23-0.25-4.45-0.5-7.19-0.81c-0.51,7.53-0.98,14.42-1.39,20.45    c3.34,1.77,5.86,3.1,8.06,4.27c0.15,1.73,0.25,2.77,0.36,4.01c2.11,1,4.16,1.97,6.4,3.03c-0.48-6.08-1.42-11.79-1.23-17.45    C376.11,339.29,375.21,334.9,370.94,330.97z M343.7,356.73c1.46-0.85,2.91-1.7,4.34-2.53c0.51-4.76,1-9.31,1.57-14.7    c-1.64,1.35-2.74,2.07-3.62,3c-7.46,7.91-14.77,15.95-22.34,23.75c-3.19,3.29-2.92,6.99-2.8,10.13    C328.2,370,335.71,363.48,343.7,356.73z M217.21,426.37c-1,5.62-2.02,11.23-3,16.85c-0.2,1.16,0.03,2.49-0.47,3.48    c-3.43,6.75-3.08,14.05-3.23,21.69c1.63-0.45,3.47-0.97,4.06-2.13c2.07-4.05,4.12-8.19,5.4-12.53c1.08-3.69,1.09-7.7,1.57-11.56    c0.36-2.85,0.72-5.71,1.07-8.56c-0.34-0.08-0.69-0.16-1.03-0.25c-1.52,3.73-3.03,7.46-4.55,11.18c-0.33-0.07-0.66-0.15-0.98-0.22    c2.88-6.65,6.54-13.25,1.74-20.73C217.61,424.55,217.48,425.23,217.21,426.37z M285.25,254.06c0.48,0.41,0.95,0.82,1.81,1.55    c0-7.03-0.53-13.55,0.14-19.94c0.74-6.99-2.56-12.18-5.95-18.1c-2.23,6.21-4.3,11.99-6.11,17.03c2.07,1,4,1.46,5.12,2.66    c0.77,0.82,0.41,2.69,0.61,4.65c-3.04-0.29-5.24-0.5-7.43-0.7c0.2-0.16,0.41-0.32,0.61-0.48    C277.69,245.02,281.31,249.31,285.25,254.06z M286.51,442.75c-0.09,1.85-0.19,3.69-0.32,6.3c7.96-12.99,13.2-25.98,14.17-40.86    c-2.15,0.92-4.4,1.91-5.62,3.63c-2.92,4.11-3.54,8.95-3.2,13.95c0.18,2.7,0.03,5.43,0.03,8.14c-0.21,0-0.42,0-0.63,0    c-0.25-1.33-0.49-2.67-0.74-4c-0.34-0.01-0.69-0.02-1.03-0.04C288.37,433.98,287.57,438.08,286.51,442.75z M361.25,344.87    c0.29-4.71,0.59-9.42,0.91-14.65c-2.04,1.04-3.88,1.58-5.19,2.73c-2.12,1.86-4.92,3.84-5.59,6.27c-1.26,4.59-1.21,9.55-1.71,14.42    c3.78-0.93,7.41-1.82,11.17-2.74C360.98,348.93,361.1,347.24,361.25,344.87z M302.41,434.92c0.04,0.6,0.08,1.2,0.13,2.03    c3.25-1.04,6.01-2.54,6.61-6.01c1.24-7.11,2.2-14.27,3.31-21.59c-3.32-0.3-5.78-0.52-8.37-0.76    C303.53,417.33,302.98,425.81,302.41,434.92z M283.27,410.87c-6.49,11.44-7.03,24.38-9.73,36.77c3.1-5.94,6.01-11.89,8.71-17.94    c3.03-6.8,5.66-13.75,5.42-21.39c-0.04-1.16-0.46-2.3-0.71-3.45c-0.27,0.01-0.55,0.02-0.82,0.03    C285.22,406.7,284.3,408.51,283.27,410.87z M291.28,366.18c0-0.92,0-1.83,0-2.55c-7.57,10.62-11.84,22.43-11.22,35.79    c1.06,0.23,2.21,0.49,3.46,0.77c0.22-0.59,0.43-1.03,0.53-1.48C286.44,388.06,288.82,377.42,291.28,366.18z M198.21,449.38    c1.75-10.27,3.5-20.54,5.31-31.12c-1.56,0-2.58,0-3.63,0c-2.17,13.83-5.61,27.31-6.88,41.1c0.51,0.12,1.01,0.23,1.52,0.35    C195.73,456.45,196.93,453.2,198.21,449.38z M176.53,517.16c-0.66,4.64-2.33,9.24-0.41,14.17c1.75-2.19,3.39-4.42,4.34-6.92    c0.87-2.27,1.18-4.8,1.39-7.25c0.23-2.62,0.05-5.27,0.05-7.91c0.29,0.01,0.58,0.02,0.88,0.04c0,1.78,0,3.57,0,5.35    c0.08,0,0.17-0.01,0.25-0.01c0.84-5.92,1.69-11.84,2.53-17.76C180.11,502.41,178.72,509.62,176.53,517.16z M245.03,329.81    c2.35-0.26,4.69-0.52,6.91-0.77c-2.58-6.61-5.33-13.64-8.08-20.68c-0.2-0.04-0.41-0.08-0.61-0.12    c-0.97,7.69-1.95,15.39-3.03,23.96C242.37,331.08,243.43,330.53,245.03,329.81z M305.67,388.44c0.16,2.3,0.33,4.61,0.5,7.02    c2.97-3.13,5.63-5.93,8.76-9.22c0.25-2.29,0.57-5.3,0.91-8.44c-1.76-1.41-3.38-2.71-5.29-4.25    C308.83,378.67,307.3,383.26,305.67,388.44z M185.04,538.04c1.45-3.32,2.73-6.72,4.37-9.93c2.88-5.62,5.04-11.42,5.52-17.79    c-2.21,2.93-4.44,5.82-6.05,9.02c-1.58,3.16-2.54,6.63-3.77,9.96c-0.12-0.01-0.23-0.03-0.35-0.04c0.57-2.76,1.13-5.53,1.7-8.29    c-0.4-0.06-0.8-0.12-1.2-0.18c-1.23,7.95-2.45,15.89-3.68,23.84c0.25,0.02,0.5,0.03,0.76,0.05    C183.19,542.65,184.03,540.61,185.04,538.04z M449.95,326c0.69,0.09,1.39,0.17,2.72,0.34c-7.17-5.82-14.77-7.88-23.32-6.99    c-0.79,1.48-1.47,2.75-2.15,4.02c-0.69,1.28-1.39,2.55-2.36,4.33C433.38,324.96,441.28,323.38,449.95,326z M409.59,215.6    c-2.03,3.97-4.06,7.93-5.95,11.63c2.35,4.59,4.47,8.73,6.58,12.86c0.32-0.09,0.64-0.18,0.96-0.27c0-8.96,0-17.93,0-26.87    C410.8,213.55,410.29,214.33,409.59,215.6z M306.07,355.89c0,8.07,0,16.14,0,23.77c0.69-2.11,1.32-4.83,2.44-7.33    c2.9-6.47,2.47-13.08,1.01-19.71c-0.32-1.45-1.45-2.73-2.2-4.09c-0.41,0.17-0.83,0.33-1.24,0.5    C306.08,351.09,306.08,353.13,306.07,355.89z M146.25,531.1c-1.75,2.22-3.51,4.44-6.05,7.66c1.04,5.25,2.45,12.39,3.86,19.53    c0.35-0.04,0.7-0.08,1.05-0.12c0.19-1.78,0.45-3.56,0.54-5.35C146.02,545.49,146.33,538.16,146.25,531.1z M373.58,500.4    c0-4.23,0-8.47,0-12.7c-0.43-0.12-0.87-0.24-1.3-0.36c-3.07,6.99-6.15,13.98-9.24,21.02c3.56-1.31,6.57-2.42,9.85-3.63    C373.02,503.81,373.22,502.38,373.58,500.4z M353.07,435.91c0-2.27,0-4.55,0-7.57c-2.32,1.29-4.11,2.28-6.18,3.43    c1.19,1.37,1.96,2.25,2.99,3.44c-1.19,5.76-2.41,11.7-3.74,18.16c2.6-1.04,4.35-1.74,6.21-2.48    C352.6,446.12,352.84,441.37,353.07,435.91z M439.52,589.68c-4.66,0.21-8.31,2.91-9.83,7.42c4.28,0,8.5,0,12.83,0    c2.3-2.18,4.59-4.36,6.89-6.54c-0.18-0.29-0.36-0.58-0.54-0.87C445.98,589.69,443.09,589.69,439.52,589.68z M206.94,488.01    c-3.06,8.94-6.81,17.68-7.77,27.23c5.61-10,9.71-20.49,11.13-31.84c-0.52-0.17-1.03-0.34-1.55-0.51    C208.24,484.43,207.73,485.97,206.94,488.01z M223.9,455.74c-0.25,2.5,1.94,4.31,4.46,3.16c1.88-0.86,4.19-2.46,4.73-4.22    c1.25-4.07,1.55-8.43,2.24-12.68c-0.23,0.04-0.46,0.07-0.69,0.11C231.14,446.49,227.64,450.88,223.9,455.74z M392.43,425.47    c-0.32-1-0.64-2-1.03-3.22c-1.4,0.63-2.56,1.14-3.5,1.56c-1,7.39-1.96,14.5-3.01,22.29c1.49-2.48,2.75-4.38,3.83-6.38    C391,435.47,393.65,431.29,392.43,425.47z M324.94,445.98c-2.26-1.72-4.52-3.44-6.78-5.15c-2.34,2.71-3.36,13.67-1.7,16.79    c1.03-0.25,2.02-0.5,3.49-0.86c2.01-2.14-3.07-6.34,1.51-8.53c1.14,0.4,2.25,0.79,3.67,1.29    C325.13,448.35,325.13,447.44,324.94,445.98z M353.8,498.92c0.32-2.96,0.64-5.92,1.02-9.47c-2.32,1-4.14,1.77-6.18,2.65    c0,5.69,0,11.17,0,17.29C352.78,506.87,352.71,502.91,353.8,498.92z M357.68,473.92c-0.6,2.74-1.2,5.48-1.97,8.94    c2.42-0.35,3.79-0.54,5.3-0.76c0.56,0.49,1.29,1.14,2.67,2.35c0-6.02,0-11.21,0-16.55c-0.45,0.73-0.82,1.32-1.22,1.97    c-0.5-0.61-0.86-1.05-1.33-1.63c-1.51,1.1-2.82,2.04-4.12,2.99c0.19,0.5,0.38,0.99,0.56,1.49c1.83-0.19,3.67-0.38,5.96-0.62    C362.3,474.63,360.44,474.74,357.68,473.92z M155.54,517.21c0.05-0.47,0.09-0.94,0.2-2.02c0.65,1.56,1.09,2.61,1.53,3.67    c0.2-0.03,0.4-0.06,0.6-0.09c0.53-3.9,1.06-7.8,1.59-11.69c-0.27-0.03-0.54-0.06-0.81-0.09c-0.43,1.07-0.86,2.13-1.29,3.2    c-0.33-0.05-0.67-0.1-1-0.14c0.7-5.66,1.4-11.32,2.19-17.76c-4.62,7.11-6.53,24.02-3.41,27.57    C155.26,519.05,155.37,518.36,155.54,517.21z M282.55,294.52c0.41-6.85,0.83-13.7,1.24-20.55c-0.33-0.04-0.66-0.08-0.99-0.12    c-2.29,7.68-4.57,15.37-6.99,23.47C278.29,296.49,280.33,295.81,282.55,294.52z M284.11,436.63c0.24-1.45,0.47-2.9,0.71-4.35    c-0.31-0.09-0.62-0.18-0.93-0.27c-1.99,4.97-3.99,9.92-5.95,14.9c-1.27,3.22-2.27,6.41,2.16,7.99c3.41-2.66,2.97-6.07,2-8.64    C282.87,442.65,283.46,439.92,284.11,436.63z M120.09,585.96c1.08,2.25,2.16,4.5,3.61,7.51c2.52-8.26-0.53-14.81-3.18-21.55    c-0.98,3.19-1.97,6.37-2.85,9.24C118.51,582.89,119.15,584.2,120.09,585.96z M98.74,586.57c1.2,3.48,2.4,6.96,3.73,10.8    c1.69-9.14,1.23-17.41-5.42-24.49C97.52,577.27,97.99,581.65,98.74,586.57z M171.96,544.25c-0.76,6.15-3.36,12.16-0.75,18.66    c1.96-8.47,3.91-16.94,5.88-25.45c-0.97-0.45-1.62-0.75-2.52-1.17C173.75,538.87,172.98,541.28,171.96,544.25z M322.99,480.84    c-0.94,3.56-2.86,7.22,1.04,10.4c2.38-4.65,6.21-8.64,6.21-14.34c-2.02,0-3.78,0-5.56,0C324.12,478.08,323.6,479.18,322.99,480.84    z M251.93,460.27c0.76-1.07,1.28-2.54,2.31-3.15c3.73-2.23,5.94-5.39,6.83-9.74c-2.14,0-4.19,0-6.7,0    c-1.71,4.8-3.46,9.72-5.21,14.64c0.28,0.14,0.56,0.27,0.84,0.41C250.61,461.88,251.21,461.33,251.93,460.27z M266.75,428.4    c-0.81-0.45-1.63-0.9-2.58-1.44c-1.75,5.86-3.49,11.7-5.31,17.83c1.47,0,2.38,0,3.55,0c2.15-6.22,4.26-12.35,6.38-18.48    c-0.22-0.1-0.43-0.19-0.65-0.29C267.76,426.68,267.39,427.34,266.75,428.4z M302.54,478.14c0,4.68,0,9.36,0,14.03    c0.31,0.1,0.61,0.2,0.92,0.3c2.32-4.41,4.64-8.82,6.83-13C307.59,478.81,305.2,478.22,302.54,478.14z M372.97,536.64    c4.08-7.53,8.05-15.1,9.06-23.83c-3.75,9.93-10.36,18.62-13.07,28.98c0.29,0.13,0.58,0.27,0.87,0.4    C370.83,540.52,371.84,538.85,372.97,536.64z M170.27,527.97c-2.85,7.24-4.97,14.62-5.16,23.38c4.35-7.11,7.26-19.85,5.95-24.74    C170.81,526.93,170.6,527.2,170.27,527.97z M337.73,436.7c1.62-4.18,3.02-8.37,0.02-13.03c-1.69,6.86-3.39,13.72-5.08,20.59    c0.62,0.22,1.23,0.44,1.85,0.65C335.55,442.37,336.6,439.83,337.73,436.7z M307.5,309.44c0.35,0.91,0.7,1.82,1.06,2.73    c0.22-0.02,0.44-0.05,0.65-0.07c0.89-7.07,1.77-14.14,2.66-21.2c-0.32-0.11-0.65-0.21-0.97-0.32c-1.83,3.23-3.66,6.46-5.5,9.69    c0.33,0.21,0.66,0.42,0.99,0.63c0.99-0.76,1.98-1.52,3.62-2.78c-1.71,2.49-2.92,4.25-3.94,5.73    C306.6,305.87,306.99,307.39,307.5,309.44z M268.6,459.97c0.89-4.09,1.77-8.19,2.66-12.28c-5.3,6.33-7.51,13.42-6.32,21.48    C266.09,466.29,267.24,463.4,268.6,459.97z M128.22,578.45c-1.39-4.93-2.77-9.87-4.45-15.83c-0.91,3.11-1.5,5.14-2.03,6.93    c1.09,5.09,2.85,9.48,6.01,13.09c0.31-0.17,0.61-0.34,0.92-0.5C128.58,581.05,128.47,579.97,128.22,578.45z M303.02,511.34    c0.59-2.32,1.17-4.64,1.85-7.32c-1.61-0.41-2.92-0.74-4.84-1.23c-0.37,5.31-0.71,10.09-1.05,14.88c0.48,0.11,0.96,0.22,1.44,0.33    C301.23,515.97,302.03,513.94,303.02,511.34z M271.32,405.65c-0.27,1.16-0.53,2.31-0.9,3.88c0.97,0.59,1.9,1.16,2.68,1.64    c-0.54,1.18-0.86,1.89-1.18,2.59c5-3.35,3.63-8.67,4.9-13.37c-1.52-0.12-2.59-0.2-3.73-0.28    C272.51,401.88,271.99,403.48,271.32,405.65z M223.91,477.74c1.72-3.9,3.43-7.81,5.29-12.04c-2.63,0.64-4.63,1.13-7,1.71    c0,4.18,0,8.58,0,13.42C222.82,479.8,223.29,479.03,223.91,477.74z M348.85,415.38c3.94-4.24,6.82-8.92,6.21-15.75    C351.35,404.54,346.64,408.28,348.85,415.38z M121.42,596.42c-1.24-4.14-2.48-8.28-3.72-12.42c-3.23,5.98,0.16,10.89,0.99,17.18    C119.92,599.15,120.59,598.04,121.42,596.42z M287.66,310.82c4.31-3.33,5.11-6.48,2.73-11.02c-1.21,0-2.47,0-4.23,0    C286.51,303.65,286.82,307.23,287.66,310.82z M276.02,459.73c-0.4,3.61-0.81,7.22-1.21,10.84c0.41,0.13,0.83,0.25,1.24,0.38    c0.98-1.43,1.96-2.85,3.19-4.66c-0.2-0.99-0.49-2.49-0.78-3.98c0.92,0.15,1.81,0.3,2.86,0.47c0.45-1.29,0.84-2.37,1.14-3.23    c-2.26-0.59-4.26-1.12-6.28-1.65C276.17,457.99,276.13,458.58,276.02,459.73z M152.61,560.66c-0.46,2.51-1.09,5-1.32,7.53    c-0.23,2.49-0.05,5.01-0.05,7.52c1.9-8.37,5.37-16.52,3.15-25.87C153.75,553.6,153.19,556.81,152.61,560.66z M345.77,484.91    c0.96-3.71,1.93-7.43,3.11-11.97c-6,4.49-6.5,10.28-7.67,15.79c0.32,0.21,0.65,0.43,0.97,0.64    C343.31,488.07,344.45,486.76,345.77,484.91z M99.64,594.76c-0.59-1.47-1.18-2.94-1.77-4.41c-1.03,5.49-3.31,11.1,2.14,15.25    c0.4-0.06,0.81-0.13,1.21-0.19C100.74,602.05,100.26,598.69,99.64,594.76z M159.03,558.17c1.35-6.56,2.62-13.13-0.13-19.8    c-0.6,7.97-1.2,15.94-1.79,23.91c0.13,0.02,0.26,0.05,0.39,0.07C157.92,561.13,158.34,559.91,159.03,558.17z M205.57,464.81    c-0.47,2.7-0.93,5.39-1.53,8.85c1.92-1.35,3.31-2.34,4.88-3.45c0-4.25,0-8.4,0-12.56c-0.24-0.08-0.47-0.17-0.71-0.25    C207.4,459.68,206.59,461.96,205.57,464.81z M312.95,395.96c0.16-1.35,0.32-2.7,0.47-4.05c-0.33-0.15-0.66-0.29-0.99-0.44    c-2.57,3.37-5.13,6.75-8.03,10.56c3.26-0.19,5.39-0.32,7.82-0.46C312.44,399.89,312.64,398.23,312.95,395.96z M219.54,510.22    c0.12,0.18,0.24,0.37,0.36,0.55c0.09-0.08,0.19-0.15,0.27-0.24c4.27-5.29,5.89-11.62,7.08-18.12    C222.57,497.28,220.87,503.48,219.54,510.22z M328.32,512.72c0.32-0.04,0.86,0.01,0.92-0.14c1.98-4.86,3.93-9.74,5.8-14.64    c0.12-0.33-0.46-0.92-0.87-1.68C329.6,500.89,327.32,505.93,328.32,512.72z M151.11,539.05c-0.09-4.08-0.19-8.15-0.28-12.23    c-3.66,6.07-2.5,12.32-2.55,18.49c0.31,0.05,0.63,0.09,0.94,0.14C149.84,543.53,150.47,541.62,151.11,539.05z M399.06,420.39    c0.28-0.79,0.55-1.57,1.15-3.25c-2.97,1.1-5.32,1.97-7.68,2.84c0.66,3.6,1.19,6.48,1.72,9.35c0.27,0.03,0.53,0.06,0.8,0.09    C396.29,426.56,397.53,423.7,399.06,420.39z M115.3,600.08c-0.75-2-1.5-4-2.59-6.92c-3.05,5.05-2.66,9.04-0.87,13.32    C114.43,605.09,115.78,603.36,115.3,600.08z M267.19,417.03c-3.02-0.36-3.8,1.67-2.45,7.05c1.9-0.41,3.81-0.82,5.85-1.26    c0.42-1.88,0.77-3.44,1.22-5.45C270.12,417.27,268.96,417.2,267.19,417.03z M304.13,471.05c-0.2,0.62-0.39,1.24-0.65,2.05    c2.93-1.37,5.55-2.6,8.23-3.85c-0.63-2.44-1.32-5.1-2.21-8.57C307.58,464.49,306.02,467.59,304.13,471.05z M310.6,450.28    c0,1.12,0,2.25,0,3.81c4.06-3.15,6.28-9.4,4.15-11.71c-0.65-0.09-1.66-0.23-2.99-0.42C311.35,444.73,310.98,447.21,310.6,450.28z     M334.92,468.28c0.85,0.03,2.26,0.39,2.46,0.04c1.41-2.47,2.58-5.07,4.25-8.52c-3.08,0.4-4.72,0.61-6.89,0.88    C334.74,463.17,334.74,465.43,334.92,468.28z M321.33,521.13c-0.28-1.55-0.55-3.09-0.85-4.78c-2.65,6.11-3.35,13.13-1.63,16.38    C321.13,529.34,322.05,525.71,321.33,521.13z M220.85,418.58c0.41-4.74,0.81-9.48,1.24-14.42c-4.54,5.08-5.35,12.24-2.13,17.84    C220.24,421.04,220.51,420.11,220.85,418.58z M341.15,455.33c0.39-1.65,0.77-3.31,1.25-5.35c-2.32-0.32-4.02-0.56-5.98-0.83    c-0.24,3.08-0.45,5.68-0.69,8.69C337.52,457.08,339.12,456.4,341.15,455.33z M406.36,559.66c2.13-1.74,4.27-3.48,7.08-5.78    c-6.23,0.22-12.88,5.33-13.37,9.97C402.22,562.45,404.08,561.22,406.36,559.66z M210.01,502.7c0.25-3.96,0.49-7.91,0.74-11.87    c-0.33-0.04-0.66-0.08-0.99-0.12c-1.26,6.22-2.51,12.44-3.77,18.66c0.33,0.1,0.66,0.2,1,0.31    C207.96,507.55,208.93,505.42,210.01,502.7z M106.53,576.46c-0.42,1.81-0.85,3.61-1.27,5.42c0.28-0.2,0.56-0.4,0.84-0.61    c1.14,1.47,2.27,2.95,3.41,4.42c0.35-0.06,0.7-0.12,1.05-0.19c-0.82-4.33-1.64-8.66-2.45-12.99c-0.33,0.04-0.67,0.09-1,0.13    C106.87,573.79,106.65,574.93,106.53,576.46z M351.82,473.81c-1.4,3.26-2.79,6.52-4.41,10.29c5.33-1.48,7.44-5.48,6.8-11.5    C353.55,472.94,352.92,473.26,351.82,473.81z M325.34,494.9c-0.56,1.46-1.17,2.91-1.65,4.4c-0.47,1.48-0.81,3-1.4,5.26    c4.26-4.69,7.33-8.99,6.41-15.18C327.68,491.06,326.65,492.75,325.34,494.9z M144.47,571.9c-0.18-1.88-0.36-3.76-0.54-5.64    c-0.37,0.02-0.73,0.04-1.1,0.06c0,6.26,0,12.51,0,18.77c0.44,0.03,0.88,0.06,1.31,0.09C144.26,580.98,144.37,576.77,144.47,571.9z     M275.74,391.58c-0.55,2.08-1.1,4.15-1.69,6.39c1.08,0.3,2.07,0.57,3.47,0.96c0.52-5.65,1-10.94,1.49-16.22    c-0.27-0.03-0.53-0.07-0.8-0.1C277.45,385.41,276.68,388.2,275.74,391.58z M282,404.56c0.18-0.78,0.36-1.57,0.56-2.46    c-1.26-0.4-2.27-0.72-3.46-1.09c-0.66,4.9-1.3,9.61-1.93,14.32c0.33,0.08,0.66,0.16,0.99,0.24    C279.39,412.09,280.62,408.61,282,404.56z M132.82,572.2c0.93,2.43,1.86,4.86,2.79,7.28c0.47-0.1,0.93-0.2,1.4-0.3    c-0.6-4.81-1.2-9.63-1.79-14.44c-0.42-0.01-0.84-0.03-1.26-0.04C133.56,567,133.16,569.29,132.82,572.2z M297.68,484.14    c-0.28,3.27-1.9,6.53-0.61,9.82c0.41,0.04,0.81,0.08,1.22,0.12c0.89-5.24,1.78-10.47,2.67-15.71c-0.35-0.1-0.7-0.2-1.05-0.3    C299.22,479.9,298.53,481.73,297.68,484.14z M363.89,359.73c-3.58,0.78-2.55,3.5-2.74,5.89c1.79,0.19,3.31,0.34,5.26,0.55    c0.56-2,1.09-3.9,1.71-6.13C366.62,359.87,365.58,359.75,363.89,359.73z M437.86,604.23c-1,0.63-2,1.25-2.79,1.75    c0.22,1.9,0.4,3.49,0.68,5.93c2.26-1.45,4.04-2.58,6.83-4.37C440.6,605.87,439.45,604.9,437.86,604.23z M349.7,419.93    c0.06,2.46,0.26,4.85,3.24,5.9c0.34-4.35,0.67-8.66,1-12.96c-0.27-0.05-0.54-0.1-0.81-0.15    C352.07,414.95,351.01,417.19,349.7,419.93z M292.76,395.23c0.24-2.21,0.48-4.41,0.74-6.83c-2.82,0.97-6.04,8.51-4.54,10.24    c0.85-0.04,1.88-0.09,2.81-0.13C292.09,397.43,292.33,396.62,292.76,395.23z M202.47,492.07c0.09,0.08,0.16,0.19,0.27,0.25    c0.07,0.04,0.25,0.03,0.26-0.01c1.71-4.06,3.42-8.13,5.36-12.78C202.38,481.42,202.46,484.88,202.47,492.07z M254.76,494.61    c0.1,1.83,0.2,3.67,0.29,5.5c0.53,0.01,1.06,0.03,1.6,0.04c0.64-4.09,1.28-8.17,1.92-12.26c-0.61-0.14-1.22-0.27-1.83-0.41    C256.08,489.66,255.43,491.84,254.76,494.61z M104.55,589.43c0.21,1.92,0.41,3.84,0.66,6.14c4.5-5.87,4.44-8.29-0.13-11.79    C104.95,585.56,104.83,587.21,104.55,589.43z M348.81,457.79c-0.32,3-0.64,6-0.96,9.01c0.63,0.1,1.25,0.21,1.88,0.31    c0.91-3.57,1.82-7.14,2.74-10.71c-0.25-0.22-0.5-0.44-0.75-0.66C350.82,456.26,349.92,456.77,348.81,457.79z M266.5,446.8    c-0.18,0.96-0.36,1.93-0.54,2.89c0.29,0.11,0.58,0.21,0.87,0.32c2.25-5.47,4.5-10.94,6.76-16.41c-0.48-0.2-0.95-0.4-1.43-0.6    C270.27,437.42,268.38,441.83,266.5,446.8z M336.97,483.31c-0.51,2.95-1.02,5.9-1.6,9.24c1.47-0.91,2.55-1.58,3.52-2.18    c1.21-7.56,1.21-7.56-0.85-9.54C337.72,481.48,337.41,482.12,336.97,483.31z M435.72,317.35c1.84,0,3.67,0,5.51,0    c0.05-0.32,0.1-0.64,0.15-0.97c-2.42-1.2-4.85-2.4-7.53-3.73c-1.3,1.6-2.32,2.84-3.78,4.64    C432.24,317.29,433.66,317.29,435.72,317.35z M358.17,504.82c0.71-2.39,1.42-4.78,2.24-7.54c-4.29,3.18-6.65,9.05-5.02,13    C356.39,508.41,357.19,506.88,358.17,504.82z M251.13,463.12c-1.32,3.33-2.64,6.67-3.96,10c0.47,0.2,0.94,0.41,1.41,0.61    c1.91-3.75,3.81-7.51,5.72-11.26c-0.25-0.22-0.5-0.43-0.75-0.65C252.86,462.12,252.18,462.4,251.13,463.12z M336.91,497.87    c-0.55,2.06-1.1,4.11-1.65,6.17c0.42,0.15,0.84,0.29,1.27,0.44c2.37-3.35,3.67-7.2,4.95-11.05c-0.37-0.23-0.74-0.45-1.11-0.68    C339.26,494.29,338.15,495.83,336.91,497.87z M312.93,495.59c0,1.22,0,2.45,0,3.67c0.4,0.09,0.81,0.18,1.21,0.27    c1.31-3.12,2.62-6.25,4.18-9.99C313.54,489.78,313.92,492.88,312.93,495.59z M439.41,621.4c-0.6,2.28-1.19,4.56-1.98,7.57    c5.27-1.98,5.58-5.19,5.02-9.2C441.46,620.23,440.63,620.61,439.41,621.4z M329.83,456.48c0.35,1.74,0.69,3.48,1.18,5.94    c1.04-0.94,1.69-1.45,2.19-2.08c0.06-0.08-0.67-0.78-0.46-0.54c0.15-3.11,0.28-5.8,0.41-8.5c-0.42-0.07-0.83-0.14-1.25-0.21    C331.2,452.69,330.49,454.3,329.83,456.48z M294.22,369.34c-0.03-0.36-0.07-0.73-0.11-1.18c-0.91,5.02-1.78,9.89-2.72,15.07    c1,0.13,1.86,0.25,2.84,0.38C294.23,378.87,294.23,374.37,294.22,369.34z M371.99,265.78c-0.13-0.08-0.25-0.19-0.38-0.21    c-0.07-0.01-0.2,0.15-0.23,0.26c-1.83,5.86-3.64,11.73-5.46,17.6c0.47,0.13,0.94,0.26,1.42,0.39    C368.87,277.96,370.4,272.09,371.99,265.78z M300.14,431.68c0.01-0.49,0.03-0.97,0.02-1.46c-0.02-0.48-0.07-0.96-0.11-1.44    c-0.25-0.02-0.5-0.04-0.75-0.06c-1.12,3.74-2.24,7.48-3.36,11.22c0.4,0.12,0.8,0.24,1.2,0.36    C300.12,438.4,299.57,435.11,300.14,431.68z M321.33,470.22c-5.57,2.36-6.71,3.96-5,7.38    C319.51,476.36,321.19,474.04,321.33,470.22z M450.26,612.58c-2.06,1.42-4.13,2.85-6.19,4.27c0.09,0.29,0.19,0.58,0.28,0.88    c1.69,0,3.38,0,5.25,0c0.98-1.87,1.93-3.71,3.21-6.17C451.6,612.05,451.17,612.23,450.26,612.58z M265.02,476.41    c-0.24,1.42-0.48,2.85-0.72,4.27c0.51,0.16,1.03,0.31,1.54,0.47c1.28-3.22,2.56-6.44,3.84-9.66c-0.39-0.19-0.78-0.39-1.17-0.58    C267.38,472.57,266.24,474.22,265.02,476.41z M407.31,531.97c-0.1-1.32-0.21-2.63-0.31-3.95c-0.51-0.01-1.02-0.02-1.53-0.03    c-1.26,2.67-2.53,5.34-3.79,8.01c0.53,0.38,1.05,0.75,1.58,1.13C404.48,535.53,405.71,533.94,407.31,531.97z M341.79,498.07    c-0.49,1.81-0.98,3.63-1.48,5.44c0.5,0.16,1.01,0.32,1.51,0.47c1.37-3.58,2.73-7.15,4.1-10.73c-0.46-0.21-0.91-0.42-1.37-0.63    C343.71,494.28,342.86,495.92,341.79,498.07z M315.24,459.32c-0.42-0.81-0.83-1.63-1.25-2.44c-0.17,0.05-0.34,0.1-0.51,0.15    c0,4.15,0,8.29,0,12.44c0.48,0.01,0.96,0.03,1.45,0.04C315.11,466.28,315.28,463.05,315.24,459.32z M95.49,608.6    c-0.59-1.14-1.17-2.28-1.76-3.43c-0.41,0.16-0.83,0.31-1.24,0.47c0.82,3.86,1.64,7.72,2.46,11.59c0.29-0.03,0.58-0.07,0.87-0.1    C95.82,614.46,95.82,611.78,95.49,608.6z M330,485.09c1.12-0.63,2.83-1.01,3.23-1.95c0.92-2.18,2.55-4.61,0.11-7.74    C332.06,478.91,331.01,481.82,330,485.09z M425.16,589.87c-0.5,1.4-0.99,2.8-1.49,4.2c2.75,0.83,4.58-0.35,7.05-4.63    C428.78,589.44,427.11,589.44,425.16,589.87z M421.33,280.31c-0.56,2.63-1.12,5.25-1.68,7.88c0.2,0.07,0.4,0.14,0.6,0.21    c1.43-1.88,2.86-3.76,4.25-5.59c-0.8-1.86-1.47-3.42-2.14-4.98c-0.23,0.07-0.45,0.14-0.68,0.21    C421.57,278.61,421.47,279.18,421.33,280.31z M215.16,512.96c0.83-2.85,1.67-5.69,2.5-8.54c-0.44-0.11-0.88-0.21-1.32-0.32    c-1.28,5.05-2.55,10.1-3.83,15.15c0.5,0.11,1,0.22,1.51,0.33C214.35,517.56,214.67,515.53,215.16,512.96z M370.56,480.13    c-0.78,1.33-1.56,2.66-2.42,4.12c0.55,1.33,1.08,2.61,1.61,3.89c0.35,0.02,0.7,0.04,1.05,0.06c0.42-2.76,0.85-5.52,1.22-8.28    C372.02,479.91,371.23,479.79,370.56,480.13z M303.72,339.26c0.17,1.86,0.34,3.73,0.51,5.59c0.51-0.05,1.02-0.09,1.53-0.14    c-0.22-3.88-0.45-7.76-0.67-11.64c-0.5,0.02-1.01,0.04-1.51,0.05C303.58,334.97,303.58,336.81,303.72,339.26z M162.83,438.04    c-0.24,4.13-0.47,8.27-0.71,12.4c0.22,0.01,0.45,0.02,0.67,0.04c0.74-6.21,1.48-12.43,2.22-18.64c-0.24-0.06-0.48-0.12-0.72-0.18    C163.81,433.58,163.33,435.51,162.83,438.04z M343.33,513.78c-1.26,3.39-2.53,6.78-3.79,10.17    C343.52,521.43,344.92,516.93,343.33,513.78z M221.13,474.15c-0.09-0.73-0.18-1.47-0.27-2.2c-0.2-0.01-0.4-0.01-0.61-0.02    c-0.82,4.39-1.64,8.77-2.46,13.16c0.55,0.1,1.1,0.2,1.66,0.3C220.02,481.82,220.6,478.25,221.13,474.15z M274.98,356.98    c-0.13,0.39-0.27,0.77-0.78,2.26c2.6-1.58,4.25-2.59,5.84-3.56c-0.21-1.94-0.37-3.37-0.65-6.02    C277.62,352.52,276.4,354.5,274.98,356.98z M300.98,327.7c0.07,1.16,0.15,2.33,0.25,4.07c1.27-0.82,2.08-1.34,3.05-1.96    c-1.03-2.97-1.94-5.62-3.02-8.74c-0.17,0.69-0.22,0.81-0.22,0.93C301.02,323.69,301.01,325.39,300.98,327.7z M362.33,490.82    c0.26-0.83,0.51-1.65,0.86-2.78c-6.47,3.52-6.47,3.52-5.98,6.9C358.89,493.64,360.45,492.43,362.33,490.82z M444.98,629.17    c-0.68,1.83-1.36,3.67-2.04,5.5c0.45,0.18,0.91,0.36,1.36,0.54c1.58-3.2,3.15-6.4,4.73-9.6c-0.34-0.18-0.67-0.37-1.01-0.55    C447.1,626.28,446.18,627.5,444.98,629.17z M322.91,510.31c0,0.66,0,1.32,0,1.98c0.37,0.12,0.75,0.25,1.12,0.37    c1.09-2.51,2.17-5.02,3.51-8.1C323.2,504.95,324.01,508.02,322.91,510.31z M365.44,539.33c0-0.86,0-1.72,0-2.58    c-0.3-0.05-0.59-0.09-0.89-0.14c-1.24,3.02-2.48,6.04-3.72,9.05c0.41,0.18,0.82,0.37,1.23,0.55    C363.15,544.1,364.24,541.98,365.44,539.33z M311.97,236.16c-0.85,1.93-1.69,3.85-2.54,5.78c0.32,0.14,0.63,0.28,0.95,0.42    c2.1-4.16,4.19-8.32,6.29-12.47c-0.29-0.15-0.58-0.3-0.87-0.45C314.57,231.49,313.34,233.56,311.97,236.16z M221.98,487.39    c-0.38-0.43-0.76-0.86-1.79-2.03c-0.7,4.18-1.25,7.47-1.8,10.76c0.33,0.08,0.67,0.15,1,0.23    C220.22,493.54,221.06,490.74,221.98,487.39z M306.81,507.17c-0.66,2.77-1.31,5.53-1.97,8.3c0.28,0.08,0.55,0.15,0.83,0.23    c1.12-3.32,2.23-6.65,3.42-10.18c-0.87-0.26-1.46-0.43-2.25-0.67C306.85,505.65,306.85,506.12,306.81,507.17z M146.02,519.37    c-0.26,1.55-0.52,3.1-0.87,5.15c1.78-1.55,2.82-2.47,4.27-3.73c0.04-0.49,0.12-1.5,0.21-2.62    C148.3,518.46,147.26,518.69,146.02,519.37z M162.26,535.21c0,0.54,0,1.08,0,1.62c0.84-2.81,3.66-5.69-0.73-8.27    C161.77,530.61,162.02,532.65,162.26,535.21z M331.43,465.5c-0.12,1.94-0.25,3.88-0.37,5.82c0.4,0.03,0.8,0.06,1.2,0.09    c2.02-2.7,0.45-5.85,1.02-8.73c-0.4-0.07-0.79-0.15-1.19-0.22C331.9,463.3,331.71,464.14,331.43,465.5z M151.97,533.65    c0.17,0.64,0.35,1.27,0.52,1.91c0.2,0,0.4,0,0.59,0c0.58-2.42,1.15-4.84,1.53-6.43c-1.22-1.42-1.93-2.24-2.68-3.12    C151.93,528.42,151.93,530.74,151.97,533.65z M150.25,556.86c0.13-1.4,0.27-2.81,0.4-4.21c-0.42-0.01-0.84-0.02-1.26-0.04    c-0.62,2.3-3,4.48-0.19,7.4C149.62,558.92,149.91,558.15,150.25,556.86z M183.91,555.23c0.42-2.26,0.85-4.52,1.27-6.78    c-0.32-0.07-0.63-0.15-0.95-0.22c-1,2.93-2,5.86-2.99,8.78c0.37,0.19,0.74,0.38,1.11,0.57    C182.78,556.96,183.21,556.35,183.91,555.23z M374.74,474.07c3.97-1.96,3.82-5.68,3.55-9.47    C377.03,467.6,375.77,470.61,374.74,474.07z M337.34,516.82c0.62-2.31,3.32-4.04,2.15-7.78c-1.54,2.3-2.77,3.82-3.6,5.54    C335.64,515.1,336.51,516.16,337.34,516.82z M342.15,466.16c-0.33,2.01-0.67,4.02-1,6.04c0.37,0.06,0.74,0.12,1.1,0.18    c0.64-3.11,1.28-6.21,1.92-9.32c-0.4-0.12-0.79-0.25-1.19-0.37C342.73,463.65,342.48,464.62,342.15,466.16z M337.27,443.5    c1.34,0.31,2.68,0.62,4.61,1.06c-0.19-2.46-0.32-4.3-0.51-6.75C339.77,439.99,338.65,441.53,337.27,443.5z M436.98,576.12    c-0.1-0.46-0.2-0.93-0.39-1.81c-2.18,1.76-3.98,3.21-5.78,4.66c0.22,0.32,0.43,0.64,0.65,0.96    C433.83,579.96,435.7,578.99,436.98,576.12z M256.46,398.42c0.3,1.33,0.61,2.67,0.93,4.09c1.62-0.57,2.49-0.88,3.88-1.36    c-0.31-1.28-0.62-2.58-0.94-3.89c-0.32,0.09-0.63,0.17-0.95,0.26c0.27,0.63,0.53,1.27,0.91,2.15    C258.87,399.04,257.84,398.58,256.46,398.42z M190.79,533.03c0.14-0.96,0.28-1.92,0.43-2.88c-0.29-0.07-0.59-0.14-0.88-0.22    c-0.97,2.92-1.95,5.84-2.92,8.76c0.31,0.14,0.62,0.28,0.92,0.42C189.14,537.27,189.94,535.42,190.79,533.03z M129.91,576.93    c0.24,1.27,0.48,2.53,0.72,3.8c0.38-0.04,0.77-0.08,1.15-0.12c0-2.79,0-5.57,0-8.36c-0.13-0.06-0.25-0.11-0.38-0.17    C130.89,573.5,130.38,574.93,129.91,576.93z M116.55,607.18c-0.15-0.62-0.31-1.24-0.66-2.67c-1.28,1.89-2.12,3.13-2.95,4.36    c0.69,1.04,1.26,1.91,2.34,3.53C115.8,610.37,116.14,609.05,116.55,607.18z M382.45,497.69c-0.2-0.9-0.39-1.8-0.59-2.69    c-0.36,0.02-0.71,0.03-1.07,0.05c-0.42,2.3-0.84,4.61-1.26,6.91c0.43,0.12,0.86,0.24,1.29,0.36    C381.35,500.96,381.89,499.59,382.45,497.69z M265,406.64c-0.64-0.14-1.28-0.27-2.27-0.48c0.34,2.17,0.62,3.99,1.01,6.53    C265.49,410.49,267.41,409.22,265,406.64z M427.43,586.97c0.87,0.48,1.9,1.54,2.56,1.34c1.51-0.45,2.85-1.52,4.25-2.33    c-0.23-0.4-0.45-0.79-0.68-1.19C431.68,585.46,429.8,586.12,427.43,586.97z M255.38,338.19c-0.26-1.55-0.53-3.11-0.79-4.66    c-0.44,0.08-0.89,0.15-1.33,0.23c-2.09,2.64,0.97,4.61,1.41,6.98C254.89,340.05,255.11,339.37,255.38,338.19z M132.79,583.54    c0.08,1.13,0.16,2.26,0.25,3.64c2.46-2.72,2.52-3.75,0.57-8.35C133.29,580.38,133.02,581.67,132.79,583.54z M434.01,600.45    c0.35,0.66,0.71,1.32,1.27,2.38c1.74-1.39,3.14-2.5,4.54-3.62c-0.2-0.38-0.41-0.77-0.61-1.15    C437.57,598.69,435.93,599.33,434.01,600.45z M230.26,502.48c0.21-2.98,0.41-5.96,0.62-8.94c-0.24-0.03-0.48-0.06-0.71-0.09    c-0.49,4.3-0.99,8.59-1.48,12.89c0.2,0.04,0.39,0.08,0.59,0.12C229.55,505.32,229.83,504.18,230.26,502.48z M307.47,493.6    c3.34-1.02,2.57-3.39,2.02-6.17c-1.01,1.44-1.94,2.46-2.47,3.65C306.69,491.82,306.97,492.84,307.47,493.6z M231.28,474.98    c0.51-2.3,1.01-4.61,1.52-6.91c-0.39-0.07-0.78-0.15-1.17-0.22c-0.68,2.98-1.36,5.97-2.05,8.95c0.28,0.08,0.57,0.16,0.85,0.24    C230.69,476.51,230.95,475.98,231.28,474.98z M342.22,509.31c0.12,0.01,0.24,0.02,0.36,0.03    C342.53,509.27,342.47,509.21,342.22,509.31z"/>

<path d="M136.26,485.73c0.26,0.59,0.25,1.1,0.22,2.12c-0.93,2.48-1.84,4.45-2.76,6.44c0.59,1.29,1.13,2.48,1.68,3.66    c0.3-0.25,0.6-0.51,0.9-0.76c1.28,1.72,2.56,3.44,3.6,5.13c-1.12-0.68-2-1.32-2.79-1.9c-0.84,1.34-1.49,2.37-2.15,3.12    c0.25-1.45,0.5-2.62,0.76-3.82c-0.89-1.01-1.7-1.94-2.88-3.28c-0.48,2.35-0.84,4.12-1.14,5.61c0.67,1.24,1.21,2.22,1.53,3.28    c-0.56,0.2-0.91,0.33-1.34,0.35c-0.21-0.25-0.33-0.39-0.45-0.49c0.02,0.03,0.06,0.08-0.11-0.16c-1.13-1.33-2.09-2.41-3.62-4.14    c-0.35,4.76-0.63,8.51-0.91,12.15c1.2-0.72,2.09-1.25,2.95-1.51c-1,5.4-1.96,10.52-3.13,15.53c-0.4-0.91-0.58-1.71-0.76-2.51    c-0.2,0.01-0.4,0.02-0.59,0.03c-0.66,4.84-1.31,9.69-2.21,14.65c-0.52,1.5-0.79,2.88-1.06,4.25c0.07-5.02,1.02-9.85,1.76-14.71    c0.47-3.14,0.62-6.34,0.97-9.79c0.52-1.86,1.32-3.43,1.39-5.03c0.19-4.22,0.06-8.46,0.06-13.41c-0.2-0.35-0.83-1.48-1.24-2.5    c0.73,0.92,1.22,1.74,1.71,2.56c0.55-0.22,1.11-0.43,1.66-0.65c0-3.15,0-6.3,0-9.45c1.43,1,2.86,2,4.14,2.9    C133.61,490.91,134.8,488.28,136.26,485.73z M129.1,497.48c0.13,1.33,0.26,2.67,0.44,4.55c3.22-3.94,3-7.2-0.46-9.27    C129.08,494.26,129.08,495.55,129.1,497.48z"/>

<path d="M73.71,462.87c11.55,1.15,22.28,3.89,32.24,9.31c1.06,0.58,2.12,1.15,3.08,2.09c-15.53-8.12-31.86-12.17-49.48-9.91    c0.01-0.33,0.03-0.66,0.04-0.99C64.19,463.19,68.78,463.01,73.71,462.87z"/>

<path d="M59.97,530.58c-0.57,0.23-0.92,0.3-1.27,0.38c6.18-3.28,12.78-4.12,18.91-3.59C72.24,528.31,66.22,529.37,59.97,530.58z"/>

<path d="M122.54,484.81c0.23,3.63,0.45,6.99,0.69,10.65c-0.6-2.29-1.14-4.9-1.83-7.48c-0.69-2.55-1.54-5.06-2.53-8.27    C120.27,481.56,121.41,483.05,122.54,484.81z"/>

<path d="M396.63,503.21c0.15-0.73,0.55-1.39,1.1-2.32c-0.63-0.17-1.12-0.29-1.79-0.46c-0.45-0.79-0.74-1.54-1.13-2.45    c2.74-2.8,5.6-5.43,8.74-7.85c-1.42,2.9-3.12,5.59-5.07,8.67c4.85-0.02,7.77-2.82,10.55-5.48c-1.03,1.81-1.98,3.33-3.15,5.2    c1.36,0.08,2.16,0.13,2.97,0.18c-1.76,1.46-3.53,2.92-5.55,4.35c0.26-1.4,0.78-2.78,1.41-4.43c-1.81,0.51-3.74,1.05-5.67,1.59    c0.15,0.18,0.31,0.36,0.46,0.55C398.62,501.6,397.75,502.44,396.63,503.21z"/>

<path d="M409.03,515.75c2.42-5.69,4.96-11.26,7.71-17.27c-2.11-0.16-3.44-0.27-4.82-0.46c2.16-1.96,4.36-3.83,6.56-5.71    c-0.25,1.28-0.7,2.56-0.7,3.85c0,1.24,0.46,2.48,0.7,3.61c-0.53,0.61-1.63,1.45-2.16,2.56c-2.16,4.53-4.14,9.14-6.4,13.86    C409.52,516.19,409.33,516.04,409.03,515.75z"/>

<path d="M234.25,485.57c2.57-5.18,5.29-10.2,8.01-15.22c0.42,0.22,0.85,0.45,1.27,0.67c-2.69,4.99-5.38,9.99-8.28,15.12    C234.83,486.09,234.61,485.91,234.25,485.57z"/>

<path d="M225.94,387.9c2.54-1.57,4.81-4.4,8.24-2.16c-0.22,0.55-0.3,0.96-0.39,0.97c-4.96,0.18-6.24,4.18-8.26,7.55    C225.51,392.15,225.74,390.16,225.94,387.9z"/>

<path d="M412.76,545.23c0.57-2.97,3.32-5.76,1.26-9.61c0.7,0.32,1.47,0.93,2.53,1.78c1.01-1.41,1.95-2.72,3.11-4.16    c0.39,0.07,0.56,0.26,0.87,0.57c-0.15,0.91-0.43,1.69-0.72,2.47c-0.06-0.11-0.13-0.22-0.19-0.34    C417.42,539,415.21,542.05,412.76,545.23z"/>

<path d="M436.71,527.31c-2.05,4.03-4.37,8.1-6.63,12.44c0.05,0.28,0.1,0.61,0.12,0.77c-0.8,0.61-1.62,1.06-2.69,1.46    c0.46-1.4,1.17-2.75,2-4.33c-1.21-0.12-2.2-0.21-3.2-0.31c3.73-0.2,5.37-2.82,6.99-5.58    C434.22,530.21,435.39,528.81,436.71,527.31z"/>

<path d="M319.53,143.46c-0.38-1.87-0.5-3.96-0.64-6.47c-0.78,0.63-1.12,0.91-1.66,1.19c0.26-0.96,0.72-1.91,1.24-3.02    c-1.21-3.61-2.49-7.41-3.89-11.49c0.22-0.17,0.78-0.14,0.84,0.05C317.61,130.07,321.09,136.13,319.53,143.46z"/>

<path d="M374.35,123.24c-2.03-1.49-4.22-3.13-6.23-4.97c-1.69-1.54-3.16-3.32-4.76-5.26    C366.97,116.16,370.62,119.58,374.35,123.24z"/>

<path d="M131.32,506.59c-0.47-0.18-0.95-0.56-1.43-0.95c0.37-0.19,0.73-0.38,1.36-0.46c0.26,0.1,0.22,0.05,0.18,0.03    c-0.04-0.01-0.08,0.02-0.3,0.03c-0.07,0.29,0.07,0.56,0.18,0.81c-0.03-0.03-0.1-0.07-0.1-0.07    C131.25,506.11,131.28,506.25,131.32,506.59z"/>

<path d="M131.9,505.69c-0.04,0.15-0.17,0.19-0.49,0.26c-0.2,0.03-0.13,0.08-0.05-0.11c0.05-0.33,0.02-0.47-0.01-0.61    c0,0,0.04-0.03,0.06-0.05C131.56,505.3,131.69,505.44,131.9,505.69z"/>

<path d="M394.41,480.95c0.49-2.55,1.29-5.19,1.9-7.87c0.39-1.75,0.5-3.57,0.7-5.66c0.87-3.14,1.83-5.96,2.65-8.82    c0.25-0.87,0.12-1.85-0.1-2.82c5.26-7.38,4.67-16.53,7.07-24.8c0.45-1.54,0.99-3.04,1.49-4.56c0.34,0.02,0.68,0.04,1.02,0.07    c0.48,1.99,0.96,3.98,1.56,6.48c7.27-10.93,14.29-21.47,20.97-31.5c-2.24-5.61-5.88-5.55-10.1-4.78c2.62-0.62,5.53-1.2,9.42-1.99    c1.02-2.27,3.94-3.3,7.49-2.5c3.09,0.7,5.92,2.69,5.5,5.87c-0.81,6.15,0.3,12.8-4.03,18.32c-0.24,0.03-0.2,0.07-0.2-0.21    c2.25-4.12,2.9-8.18,1.77-12.65c-2.82-0.77-5.6-1.53-8.32-2.28c-14.42,20.63-26.15,42.63-34.61,66.3c0.28,0.15,0.56,0.3,0.84,0.45    c1.4-2.03,2.81-4.05,4.36-5.95c0.33,0.3,0.51,0.49,0.69,0.67C401.21,468.76,397.92,474.79,394.41,480.95z"/>

<path d="M404.71,462.61c-0.41-0.07-0.59-0.25-0.84-0.8c0.17-0.79,0.38-1.24,0.66-1.63c10.96-15.2,22.08-30.28,35.23-43.72    c0,0-0.05-0.03-0.07-0.05c0.23,0.54,0.47,1.09,0.86,1.96C426.32,431.06,415.79,446.91,404.71,462.61z"/>

<path d="M443.53,454.58c-3.04,4.03-6.7,7.83-9.6,12.13c-4.79,7.1-9.09,14.52-13.83,21.96c-0.08-0.66-0.1-1.55,0.23-2.28    C425.85,474.26,433.7,463.79,443.53,454.58z"/>

<path d="M416.17,490.35c-1-0.75-2.05-1.75-3.34-2.77c-1.36-1.01-2.47-2-3.66-3.05c-0.96,1.11-1.78,2.05-2.84,3.03    c1.4-2.95,3.01-5.97,4.7-8.94c1.48-2.6,3.06-5.15,4.9-7.79c0.3-0.06,0.48,0.11,0.48,0.11c-2.36,4.28-4.73,8.55-7.09,12.83    c0.17,0.2,0.34,0.4,0.5,0.6c1.48-1.51,2.96-3.01,4.45-4.52c0.09,0.06,0.18,0.13,0.27,0.19c-0.95,1.58-1.9,3.17-2.88,4.81    C413.19,486.65,414.65,488.38,416.17,490.35z"/>

<path d="M416.13,470.69c2.33-4.92,4.76-9.76,7.18-14.6c0.33,0.17,0.67,0.34,1,0.51c-2.5,4.68-5,9.36-7.7,14.19    C416.41,470.95,416.22,470.78,416.13,470.69z"/>

<path d="M421.26,511.08c5.05-8.46,10.11-16.92,15.16-25.38c-4.4,8.83-7.53,18.39-15,25.44    C421.2,511.03,421.26,511.08,421.26,511.08z"/>

<path d="M429.54,506.1c-0.95,1.1-1.75,1.98-2.55,2.86c-0.23-0.18-0.46-0.37-0.69-0.55c3.74-4.68,7.48-9.36,11.22-14.04    c0.21,0.16,0.41,0.31,0.62,0.47C435.33,498.52,432.51,502.2,429.54,506.1z"/>

<path d="M421.18,511.01c-1.01,1.91-1.84,3.93-3.02,5.73c-1.47,2.24-3.23,4.29-4.86,6.43c-0.31-0.23-0.62-0.46-0.92-0.69    c2.82-3.72,5.65-7.45,8.68-11.29C421.26,511.08,421.2,511.03,421.18,511.01z"/>

<path d="M226.97,384.37c1.13-5.22,2.3-10.68,3.9-16.02c1.96-6.52,4.28-12.93,6.71-19.47c-2.53,9.31-5.3,18.72-8.11,28.11    C228.76,379.4,227.96,381.78,226.97,384.37z"/>

<path d="M168.21,481.24c0.06-2.88,0.33-5.99,0.54-9.42c1.47-4.42,3-8.52,4.8-12.62c-0.73,3.4-1.85,6.78-2.69,10.22    C169.92,473.26,169.22,477.15,168.21,481.24z"/>

<path d="M179.57,480.81c-3.02,4.48-6.26,9.09-9.54,13.67c-0.7,0.97-1.52,1.85-2.55,2.78    C171.26,491.82,175.29,486.38,179.57,480.81z"/>

<path d="M227.99,364.31c-0.52,4.97-1.01,9.64-1.51,14.3c-0.2-0.02-0.41-0.04-0.61-0.06c0.57-5.88,1.14-11.77,1.71-17.65    c0.2,0.01,0.4,0.03,0.6,0.04C228.12,361.96,228.06,362.98,227.99,364.31z"/>

<path d="M131.69,507.54c-0.2-0.24-0.21-0.37-0.33-0.65c0.37,0.05,0.85,0.25,1.34,0.45C132.43,507.44,132.16,507.54,131.69,507.54z    "/>

<path d="M460.1,545.59c-5.96,7.14-12.17,14.25-18.65,21.38c0.99-1.94,1.98-4.14,3.52-5.83    C449.81,555.84,454.87,550.73,460.1,545.59z"/>

</g>

</g>

</svg>