<?xml version="1.0" ?>

<!-- Uploaded to: SVG Repo, www.svgrepo.com, Generator: SVG Repo Mixer Tools -->
<svg width="800px" height="800px" viewBox="-52.05 0 684.34 684.34" id="Layer_1" version="1.1" xml:space="preserve" xmlns="http://www.w3.org/2000/svg" xmlns:xlink="http://www.w3.org/1999/xlink">

<style type="text/css">
	.st0{clip-path:url(#SVGID_2_);}
	.st1{clip-path:url(#SVGID_4_);}
	.st2{clip-path:url(#SVGID_6_);}
	.st3{clip-path:url(#SVGID_8_);}
	.st4{clip-path:url(#SVGID_10_);}
	.st5{clip-path:url(#SVGID_12_);}
	.st6{clip-path:url(#SVGID_14_);}
	.st7{clip-path:url(#SVGID_16_);}
	.st8{clip-path:url(#SVGID_18_);}
	.st9{clip-path:url(#SVGID_20_);}
	.st10{clip-path:url(#SVGID_22_);}
	.st11{clip-path:url(#SVGID_24_);}
	.st12{clip-path:url(#SVGID_26_);}
	.st13{clip-path:url(#SVGID_28_);}
	.st14{clip-path:url(#SVGID_30_);}
	.st15{clip-path:url(#SVGID_32_);}
	.st16{clip-path:url(#SVGID_34_);}
	.st17{clip-path:url(#SVGID_36_);}
	.st18{clip-path:url(#SVGID_38_);}
	.st19{clip-path:url(#SVGID_40_);}
</style>

<g>

<defs>

<rect height="684.34" id="SVGID_17_" width="580.24" y="0"/>

</defs>

<clipPath id="SVGID_2_">

<use style="overflow:visible;" xlink:href="#SVGID_17_"/>

</clipPath>

<g class="st0">

<path d="M497.08,491.03c0.21,0.98,0.79,2.1,0.59,2.92c-1.78,7.21-3.71,14.36-5.74,22.1c7.47-7.11,14.61-13.9,21.86-20.8    c2.54-14.97,4.15-30.37,8.96-44.41c-8,58.49-16.03,117.26-24.12,176.48c3.21,0,5.64,0,8.55,0c6.37-36.74,14.95-72.85,28.92-106.7    c-10.35,34.93-19.94,70.11-24.77,107.6c3.65,0.56,6.96,1.06,10.65,1.63c5.05-18.87,8.67-38.36,16.63-56.88    c-4.73,19.59-9.23,38.22-13.76,56.99c12.03,3.33,23.57,6.53,35.1,9.72c-0.03,0.26-0.05,0.52-0.08,0.79    c-2.94-0.28-5.9-0.46-8.83-0.84c-18.83-2.42-37.73-3.73-56.64-2.74c-13.19,0.69-26.39,2.08-39.48,4.22    c-23.08,3.77-46.04,8.56-69.1,12.51c-17.98,3.09-35.98,6.05-54.04,8.17c-21.41,2.51-42.88,3.71-64.39,1.26    c-15.52-1.77-31.09-2.88-46.58-4.99c-14.23-1.94-28.37-4.84-42.56-7.29c-15.5-2.67-30.99-5.43-46.51-7.93    c-11.75-1.89-23.51-4.14-35.32-4.95c-14.01-0.97-28.1-1.12-42.13-0.61c-12.76,0.46-25.49,2.29-38.34,3.22    c11.04-3.26,22.07-6.52,33.99-10.04c-6.65-26.92-13.32-53.95-20-80.98c10,25.67,15.97,53.07,22.07,80.26c1.98,0,3.62,0,5.57,0    c0.11-1.45,0.26-2.79,0.31-4.13c0.47-12.5,1.01-25,1.31-37.5c0.06-2.43-0.7-4.97-1.37-7.33c-4.21-14.91-8.51-29.78-12.74-44.68    c-0.33-1.15-0.43-2.4-0.19-3.74c6.65,15.09,10.5,31.5,15.53,48.06c2.81-47.41,2.66-94.18,2.08-140.97    c0.32-0.03,0.63-0.05,0.95-0.08c0.23,1.87,0.52,3.74,0.66,5.62c0.16,2.04,0.31,4.1,0.22,6.13c-0.42,9.78,1.68,18.67,6.03,26.77    c0.62,1.16,1.57,2.35,2.59,2.83c6.45,3.08,12.43,6.71,17.15,13.46c3.1,4.44,7.3,7.68,10.87,11.65c1.27,1.41,2.13,3.37,3.82,4.76    c-2.38-8.67-4.75-17.34-7.13-26.02c-0.39,0.15-0.78,0.3-1.18,0.45c0.68,3.54,1.35,7.09,2.03,10.63c-0.15,0.05-0.3,0.09-0.45,0.14    c-3.5-12.97-6.99-25.93-10.49-38.9c5.06,7.8,6.48,18.88,14.4,24.02c-0.34-4.68-0.7-9.56-1.05-14.45c0.19-0.03,0.39-0.06,0.58-0.09    c0.31,3.02,0.71,6.03,0.91,9.06c0.27,4.16,0.91,7.66,4.05,10.45c4.2,3.73,7.86,8.4,11.77,12.64c0.74,0.8,1.58,1.45,2.37,2.16    c0.34-0.22,0.67-0.43,1.01-0.65c-7.12-23.96-14.24-47.91-21.23-71.45c1.34,2.68,3.02,5.8,4.49,9.06c1.49,3.3,2.94,6.66,4.13,10.14    c5.4,15.84,10.91,31.63,15.95,47.64c2.46,7.81,5.95,14.67,9.98,21.24c6.84,11.15,12.39,23.22,16.84,36.08    c0.31,0.88,0.69,1.72,1.5,2.38c-10.25-53.6-23.17-106.11-41.45-156.48c0.23-0.14,0.46-0.27,0.69-0.41    c1.06,2.11,2.16,4.2,3.17,6.35c1.07,2.3,2.03,4.68,3.08,7c10.21,22.38,20.41,44.77,30.65,67.13    c12.72,27.75,21.99,57.24,29.05,87.86c0.61,2.66,1.37,5.28,2.25,7.86c-3.52-35.29-11.24-69.38-19.17-103.44    c11.54,30.26,18.41,62.37,24.95,94.73c-0.2-1.95-0.34-3.92-0.6-5.86c-0.29-2.13-0.72-4.22-1.05-6.34    c-3.7-23.8-9.69-46.83-15.41-69.94c-4.55-18.35-9.22-36.66-13.82-54.99c-0.08-0.34-0.01-0.74-0.01-2.27    c14.56,38.07,25.87,76.42,34.95,115.91c-5.33-31.84-10.66-63.69-15.98-95.53c0.06-0.05,0.11-0.09,0.17-0.14    c1.67,5.57,3.35,11.13,5,16.72c6.4,21.75,11.08,44.07,14.28,66.88c2.26,16.09,4.65,32.15,6.7,48.28    c1.89,14.84,3.4,29.75,5.08,44.63c0.04,0.36,0.17,0.71,0.46,1.04c-2.53-66.85-11.07-132.8-19.27-198.91    c0.66,2.46,1.35,4.91,1.96,7.39c0.66,2.66,1.38,5.32,1.83,8.04c3.58,21.59,7.45,43.13,10.53,64.83    c2.61,18.38,4.22,36.97,6.4,55.44c1.22,10.28,2.72,20.52,4.58,30.73c-1.96-24.4-4.05-48.79-5.84-73.22    c-1.81-24.62-3.32-49.28-4.98-74.28c1.47,8.03,3.32,15.74,4.24,23.61c1.58,13.61,2.53,27.32,3.86,40.98    c1.75,17.93,3.65,35.84,5.43,53.77c1.13,11.38,2.15,22.78,3.25,34.17c0.14,1.46,0.5,2.88,0.77,4.32c0.25-0.03,0.5-0.07,0.75-0.1    c-2.51-39.31-5.02-78.61-7.52-117.92c4.4,21.2,6.5,42.89,8.33,64.57c1.82,21.69,2.7,43.51,4.12,65.27    c2.04-45.29-2.86-90.13-5.91-135.13c6.58,44.62,10.51,89.62,12.4,134.93c0.28,0,0.57,0,0.85-0.01c0.39-13.25,1.11-26.5,1.07-39.75    c-0.05-13.29-0.64-26.6-1.4-39.86c-0.76-13.31-2.03-26.58-3.08-39.87c0.35-0.07,0.7-0.14,1.05-0.2    c2.74,18.66,5.48,37.32,8.37,57.04c0.46-4.06,0.73-7.22,1.18-10.33c2.16-14.64,1.47-29.29,0.37-43.97    c-1.18-15.78-2.34-31.56-3.36-47.36c-0.34-5.2-1.06-9.17-5.88-11.27c-5.04-2.19-8.34-7.67-11.41-13.03    c-6.1-10.64-8.87-23.09-12.45-35.1c-1.76-5.91-3.44-11.87-4.89-18.04c10.64,9.32,19.55,20.83,28.28,34.03    c-2.37-9.92-4.11-18.78-6.71-27.23c-1.01-3.28-3.73-5.97-6.04-8.38c-17.65-18.44-35.28-36.92-53.16-55.02    c-7.39-7.48-15.36-14.06-23.07-21.06c-0.56-0.51-1.09-1.07-2.25-2.23c13.18,4.81,24.65,11.89,35.22,20.92    c14.21,12.13,28.06,24.92,42.01,37.51c2.4,2.16,4.53,4.78,7.29,7.74c-0.55-6.11-0.87-11.59-1.55-17    c-3.74-29.79-11.59-58.04-21.56-85.38c-8.25-22.62-17.03-44.95-25.58-67.41c-0.12-0.31-0.18-0.66,0.1-1.31    c2.02,3.2,4.1,6.36,6.04,9.63c2.01,3.38,3.99,6.79,5.8,10.33c16.52,32.28,30,66.33,38.6,103.14c1.31,5.59,2.3,11.34,2.93,17.1    c0.33,3.02-0.04,6.4-0.83,9.31c-1.4,5.17-0.18,9.58,1.57,14.84c2.06-12.05,3.98-23.33,5.91-34.62c0.38,0.01,0.77,0.02,1.15,0.04    c5.14,20.91,8.15,42.19,6.71,65.1c21.35,22.21,37.75,50,51.03,80.83c1.31-7.27-5.82-69.12-10.56-96.81    c-5.45-31.87-11.97-63.34-20.64-94.11c-8.68-30.8-19.58-60.38-31.74-89.29c-12.17-28.95-26.64-56.14-41.94-82.68    c0.21-0.3,0.41-0.59,0.62-0.89c0.74,0.41,1.59,0.65,2.2,1.25c8.34,8.21,16.14,17.14,22.41,27.84    c7.35,12.54,14.9,24.98,21.46,38.15c10.77,21.62,19.98,44.31,27.75,67.85c0.5,1.52,0.81,3.14,1.13,4.74    c0.32,1.6,0.54,3.22,0.98,5.83c2.54-15.23,4.94-29.61,7.35-43.99c0.34,0.03,0.68,0.06,1.02,0.09c0.54,4.23,1.2,8.44,1.58,12.69    c1.16,12.69,2.24,25.39,3.3,38.1c1.38,16.54,1.02,32.93-3.15,48.23c6.9,31.16,13.01,61.82,16.75,93.1    c2.53,21.17,4.57,42.43,6.86,63.65c0.97,8.94,1.39,18.07,3.23,26.73c1.75,8.23,5.02,15.97,7.6,23.86    c7.09-31.24,14.44-62.49,23.66-93.02c1-3.3,0.64-7.61,0.01-11.21c-3.55-20.14-7.06-40.31-11.19-60.28    c-5.99-28.95-15.1-56.63-23.41-84.62c-1.34-4.5-2.83-8.92-4.25-13.38c0.24-0.15,0.49-0.31,0.73-0.46    c3.78,9.07,7.75,18.02,11.29,27.23c3.64,9.49,7.05,19.13,10.22,28.88c3.11,9.6,5.95,19.36,8.61,29.17c2.7,9.96,5.23,20,7.47,30.12    c2.2,9.96,3.95,20.07,6.23,30.08c1.06-13.06,1.91-26.16,3.23-39.18c1.79-17.71,3.88-35.37,5.95-53.03    c1.17-9.96,2.68-19.86,3.77-29.83c0.21-1.93-0.57-4.23-1.31-6.1c-7.37-18.67-8.97-38.75-9.75-59.09    c-0.65-16.94-1.62-33.86-2.45-50.79c2.53,5.33,5.17,10.89,7.81,16.46c-1.95-44.58-7.29-88.57-15.74-132    c20.18,56.02,28.94,114.63,26.04,176.39c2.92-7.06,5.45-13.88,8.49-20.35c3.03-6.44,6.56-12.52,10.57-18.47    c-0.2,3.32-0.24,6.67-0.64,9.95c-2.18,17.9-4.31,35.82-6.77,53.66c-1.04,7.52-3.15,14.72-6.99,20.9    c-3.34,5.37-3.33,11.93-4.08,18.15c-1.91,15.75-3.69,31.52-5.36,47.31c-1.26,11.86-2.3,23.75-3.38,35.64    c-0.56,6.16-1,12.34-1.49,18.51c0.28,0.1,0.57,0.2,0.85,0.29c1.24-3.24,2.53-6.46,3.71-9.73c12.2-33.68,23.84-67.69,36.72-100.97    c14.66-37.86,33.21-72.86,53.72-106.32c19.91-32.46,41.45-63.04,65.77-90.54c12.18-13.78,25-26.53,39.81-35.86    c0.88-0.56,1.79-1.05,2.9-1.2c-5.78,7.51-11.58,15-17.35,22.52c-11.3,14.75-23.15,28.93-33.74,44.43    c-13.02,19.05-24.98,39.2-37.4,58.87c-13.89,22-25.39,45.97-37.41,69.51c-10.01,19.61-18.1,40.44-25.83,61.51    c-11.65,31.73-22.12,64.05-31.71,96.83c-9.02,30.8-17.02,61.96-23.1,93.85c-1.16,6.06-2.26,12.19-2.74,18.37    c-0.37,4.65,0.19,9.43,0.51,14.13c1.17,17.32,2.42,34.63,3.61,51.96c0.66,9.65,1.24,19.31,2.21,28.96    c1.11-8.94,2.02-17.92,3.37-26.8c3.02-19.89,5.79-39.87,9.51-59.56c6.03-31.91,13.99-63.14,23.41-93.79    c0.58-1.89,1.16-3.81,1.94-5.58c0.73-1.65,1.73-3.11,2.74-4.88c-1.72-19.15,1.76-37.85,6.1-56.24    c4.25-17.99,9.32-35.68,14.04-53.49c0.22-0.82,0.52-1.61,1.11-3.4c1.5,13.81,2.82,26.57,0.57,39.46    c9.1-21.52,20.44-40.98,32.01-60.31c12.02-20.1,25.89-38.07,40.46-55.27c8.66-10.23,18.24-18.99,28.89-25.88    c0.7-0.45,1.47-0.74,3.08-1.53c-4.82,6.51-8.93,12.26-13.2,17.83c-15.27,19.92-29.56,40.82-42.75,62.92    c-11.42,19.12-22.52,38.53-31.61,59.43c-7.12,16.36-12.77,33.71-19.06,50.63c-0.68,1.82-1.22,3.73-2,6.15    c10.49-9.53,22.21-13.76,35.08-17.01c-3.1,5.14-5.72,9.71-8.52,14.11c-6.24,9.81-12.25,19.9-19.02,29.13    c-2.97,4.05-7.41,6.65-11.49,9.16c-2.51,1.54-4.26,3.36-5.15,6.49c-3.15,11-6.37,21.97-9.37,33.03    c-6.47,23.84-11.27,48.22-14.93,72.93c-2.2,14.86-4.49,29.73-5.98,44.71c-1.2,12.02-1.3,24.22-1.79,36.34    c-0.16,4.08-0.03,8.17,0.15,12.33c3.13-22,6.02-44.06,9.46-65.99c3.45-22.02,7.57-43.88,13.41-65.18    c-4.13,32.14-11.22,63.63-13.39,96.16c7.48-43.74,16.97-86.81,27.62-129.52c-7.67,48.49-18.4,96.2-24.11,145.15    c9.97-53.2,18.32-106.95,37.19-156.95c-3.03,14.26-6.23,28.46-9.03,42.78c-2.83,14.48-5.24,29.08-7.42,43.74    c5.19-18.02,10.07-36.18,15.65-54.01c5.64-18.02,11.98-35.7,18.6-53.2c-7.74,31.06-15.98,61.95-23.07,93.24    c-7.12,31.44-13.36,63.22-15.24,96.03c0.9-4.63,1.84-9.25,2.7-13.9c0.87-4.68,1.75-9.36,2.47-14.08    c3.4-22.03,8.59-43.39,15.33-64.21c8.48-26.23,21.42-49.29,33.51-72.95c8.18-16.01,16.71-31.75,25.11-47.58    c0.72-1.36,1.62-2.59,2.88-3.52c-5.91,15.93-11.82,31.86-18,48.5c6.68-7.37,13.21-13.57,22.09-16.85    c-4.47,4.76-8.3,8.9-12.2,12.96c-8.71,9.08-14.39,20.73-18.44,33.68c-6.49,20.74-12.84,41.54-19.24,62.33    c-0.68,2.19-1.29,4.41-1.94,6.62c0.24,0.16,0.49,0.33,0.73,0.49c1.29-2.41,2.71-4.74,3.86-7.26    c7.12-15.65,16.51-29.07,26.35-42.13c2.07-2.75,3.23-6.68,4.45-10.25c6.29-18.4,12.3-36.95,18.78-55.25    c2.32-6.56,5.71-12.54,9.19-18.47c-10.3,23.8-16.15,49.67-23.21,75.33c9.17-12.26,20.87-19.57,32.42-27.08    c-5.54,9.14-6.88,20.13-9.52,30.7c5.9-11.09,14.09-18.34,24.63-23.32c-3.03,2.73-5.4,5.05-7.92,7.08    c-4.31,3.46-8.5,6.99-10.45,13.28c-0.07,0.22-0.55,0.24-1.1,0.68c-5.19,7.42-6.55,16.17-7.67,25.04c1.75-4.85,3.26-9.81,4.69-14.8    C495.23,498.05,496.14,494.53,497.08,491.03z M405.66,581.67c-0.9,4.95-1.79,9.89-2.69,14.84c0.17,0.04,0.35,0.09,0.52,0.13    c1.09-4.82,2.19-9.64,3.67-14.77c3.11-11.77,6.23-23.53,9.3-35.32c0.4-1.52,0.53-3.14,0.79-4.71c-0.31-0.06-0.61-0.12-0.92-0.18    c-1.34,4.85-2.75,9.66-4,14.54C410.19,564.57,408.14,572.96,405.66,581.67z M132.53,580.53c1.48,3.01,2.96,6.01,4.44,9.02    c0.28-0.18,0.56-0.37,0.84-0.55c-1.33-3.59-2.65-7.19-4.01-11.36c-4.69-12.51-9.39-25.02-14.08-37.52    c-0.27,0.16-0.55,0.31-0.82,0.47C119.26,555.87,125.76,567.99,132.53,580.53z M70.29,549.26c5.74,19.67,11.48,39.34,17.22,59.01    c0.16-2.21,0.04-4.34-0.26-6.43c-1.33-9.47-2.17-19.11-4.18-28.35c-4.35-19.93-9.31-39.65-14.02-59.45    c0.43-0.16,0.85-0.33,1.28-0.49c4.74,18.48,9.47,36.97,14.43,56.3c0-1.39,0.08-1.91-0.01-2.38c-3.33-16.28-6.54-32.6-10.12-48.79    c-1.23-5.59-5.3-7.77-9.8-9.67c0.4,9.16,0.63,17.72,1.22,26.25c0.21,3.07,1.27,6.06,1.54,9.45c0.77,7.04,1.71,14.05,2.29,21.11    c1.15,14.08,1.92,28.22,3.21,42.28c0.61,6.73,2.04,13.34,3.09,19.93c2.64,0,4.64,0,6.68,0c0-0.78,0.07-1.31-0.01-1.8    c-3.21-19.07-6.44-38.14-9.65-57.21C72.07,562.37,70.98,555.7,70.29,549.26z M268.95,513.53c-0.17-0.46-0.39-0.9-0.51-1.38    c-4.15-15.94-8.06-31.99-14.59-46.8c-2.06-4.67-3.94-9.46-6.25-15.03c5.49,4.64,8.6,10.47,11.53,16.44    c9.99,20.34,16.68,42.45,22.27,65.09c2.27,9.19,3.99,18.58,5.74,26.87c0.53-6.63,1.21-14.2,1.72-21.79    c0.84-12.48,1.25-25.03,2.47-37.45c1-10.18-0.06-19.22-4.28-28.37c-9.3-20.19-19.46-39.56-31.93-56.96    c-3.29-4.59-6.92-8.82-10.26-13.06c-1.44,8.83-3.3,17.22-4.06,25.76c-0.6,6.75-0.05,13.71,0.36,20.54    c0.57,9.65,1.41,19.27,2.28,28.89c0.78,8.59,1.75,17.16,2.66,25.74c0.58,5.46,1.22,10.91,1.84,16.36    c1.89-6.99,3.05-14.03,4.5-20.99c1.48-7.13,1.63-13.93-1.23-20.7c-1.45-3.44-2.23-7.3-3.4-10.93c-0.57-1.79-1.32-3.5-1.98-5.24    c0.32-0.24,0.64-0.48,0.97-0.72c1.41,2.33,3,4.53,4.19,7.02c8.9,18.57,13.78,39.05,17.98,59.76c3.82,18.83,6.07,38.03,6.92,57.43    c0.56,12.63,0.85,25.28,1.06,37.93c0.08,5-0.37,10.01-0.58,15.02c0.61-0.26,0.78-0.56,0.85-0.89c4.04-18.96,6.35-37.94,3.77-57.73    C278.15,556.58,274.57,535.1,268.95,513.53z M255.86,513.97c-0.28,1.48-0.62,2.94-0.82,4.44c-1.14,8.37-3.25,16.78-3.11,25.12    c0.16,9.28,2.59,18.47,3.69,27.76c2.12,17.89,4,35.82,5.98,53.73c0.43,3.91,0.82,7.83,1.26,11.73c0.44,3.86,0.91,7.7,1.37,11.56    c1.41-23.78,2.73-47.52,2.78-71.26c0.05-23.68-5.11-46.52-9.78-69.5C256.81,509.48,256.39,511.42,255.86,513.97z M500.27,544.62    c2.8-13.83,5.59-27.67,8.45-41.8c-0.81,0.57-1.59,0.91-2.14,1.55c-4.89,5.69-9.76,11.4-14.56,17.21    c-0.77,0.93-1.38,2.29-1.66,3.58c-2.73,12.85-5.96,25.59-7.82,38.64c-0.99,6.96,0.4,14.44,0.73,21.68    c0.06,1.27,0.17,2.54,0.26,3.81c1.29-4.87,2.19-9.73,3.25-14.54c1.1-4.99,2.28-9.96,3.55-14.89c1.2-4.64,2.56-9.22,3.84-13.82    c0.09,0.06,0.19,0.12,0.28,0.18c-4.24,22.83-8.48,45.67-12.73,68.5c1.06-1.47,1.48-3.16,1.88-4.84    c2.22-9.33,4.32-18.71,6.68-27.98C493.44,569.62,496.78,557.42,500.27,544.62z M326.72,583.35c2.06,11.25,4.13,22.49,6.36,34.66    c5.56-36.91,4.18-73.03,2.67-109.9c-4.13,19.21-8.13,37.74-12.08,56.27c-0.25,1.18-0.47,2.53-0.24,3.66    C324.4,572.96,325.55,577.83,326.72,583.35z M97.81,598.61c-0.5-6.99-0.88-13.99-1.51-20.96c-0.85-9.37-1.89-18.72-2.85-28.07    c-0.55-5.36-0.51-10.86-4-15.15c-2.4-2.95-4.34-6.47-6.63-9.58c-1.31-1.78-2.91-3.24-4.38-4.84c0.89,7.35,2.27,14.17,3.57,21.01    c2.19,11.56,4.95,23.02,6.34,34.73c2,16.83,5.07,33.29,8.85,49.59c0.26,1.13,1.03,2.08,1.56,3.11c0.26-0.19,0.52-0.39,0.78-0.58    C98.96,618.36,98.39,608.84,97.81,598.61z M296.57,612.13c-0.55,9.57-0.6,19.1,1.3,28.81c1.04,0.32,2.05,0.63,3.6,1.11    c-0.59-14.83-1.16-28.96-1.73-43.09c0.16-0.03,0.32-0.06,0.49-0.08c0.91,9.26,1.82,18.52,2.71,27.66    c0.24-1.07,0.57-2.35,0.82-3.66c2.8-15.08,4.59-30.5,9.56-44.88c0.27-0.78,0.4-1.8,0.26-2.61c-1.61-8.81-3.28-17.59-5.08-27.12    C302.15,569.19,298.41,590.02,296.57,612.13z M332.45,453.64c-0.47,1.54-1,3.05-1.39,4.62c-4.56,18.49-8.7,37.16-13.83,55.4    c-2.17,7.7-0.7,15.68-2.85,23.15c-0.25,0.86,0.03,2.03,0.23,3c0.79,3.79,1.64,7.57,2.5,11.49c0.14-0.29,0.22-0.38,0.24-0.5    c4.86-24.33,9.99-48.56,17.17-72.05c0.4-1.31,0.25-3.05-0.03-4.48c-1.71-9.05-2.87-18.01,1.32-26.63    c0.54-1.12,0.58-2.62,0.85-3.95c-0.2-0.07-0.4-0.15-0.6-0.22C334.95,446.68,333.83,449.91,332.45,453.64z M111.46,595.67    c-1.45-8.54-2.74-17.13-4.41-25.6c-1.67-8.53-5.14-16.02-9.38-22.95c-0.26,0.09-0.52,0.18-0.78,0.28    c3.77,26.76,7.54,53.52,11.36,80.64c2.14,0.46,3.74,0.8,6.13,1.31C113.36,617.84,112.41,607.1,111.46,595.67z M462.21,607.47    c1.93-7.85,3.76-15.74,5.81-23.54c2.76-10.48,5.61-20.9,4.1-32.85c-12.78,23.84-15.39,51.09-20.23,78.13    c2.32-0.44,4.11-0.78,6.07-1.15C459.34,621.27,460.68,614.66,462.21,607.47z M296.25,510.84c-0.38,3.27-0.79,6.54-1.15,9.82    c-1.17,10.73-2.18,21.49-3.54,32.19c-1,7.94-0.77,15.65,1.25,23.41c3.16-14.11,5.98-28.16,9.52-41.92    c2.02-7.85,2.42-15.06-0.49-22.6c-1.74-4.48-2.93-9.29-4.59-14.7C296.89,502.03,296.6,506.09,296.25,510.84z M494.68,476.31    c0.59-1.98,1.18-3.95,1.79-5.97c-16.31,8.83-21.32,26.85-24.52,43.48c2.74-2.94,6.53-7.77,10.93-11.5    c5.67-4.82,8.32-11.58,10.01-19.33C493.34,480.91,493.9,478.87,494.68,476.31z M136.57,547.63c-1.76-4.11-3.63-8.16-5.27-12.35    c-5.04-12.88-10.83-25.1-19.22-35.15c-1.63-1.96-3.36-3.79-5.39-6.07c0.53,11.57,2.35,16.9,7.87,23.34    c-0.57-2.64-1.06-4.95-1.66-7.73c3.34,5.92,6.37,11.4,9.49,16.8c8.75,15.16,16.72,30.88,22.63,48.09    c0.28,0.81,0.79,1.51,1.19,2.25c0.29-0.18,0.59-0.37,0.88-0.55C145.01,566.18,140.38,557.42,136.57,547.63z M81.36,507.69    c2.72,8.07,5.89,15.79,11.26,22.93c-0.37-5.04-0.54-9.1-0.99-13.12c-0.46-4.14-1.28-8.21-1.8-12.34    c-1.2-9.51-9.11-19.24-18.13-22.94C75.02,491.04,78.05,499.12,81.36,507.69z M106.47,548.18c-0.21-4.71-0.24-9.44-0.67-14.12    c-0.43-4.65-0.3-9.94-2.11-13.72c-3.05-6.36-7.43-11.75-11.25-17.54c0.86,9.41,2.17,18.21,3.59,26.97    c0.5,3.07,0.76,6.44,2.02,9.01c2.42,4.91,5.47,9.34,8.44,14.28C106.49,551.48,106.49,550.14,106.47,548.18z M472.59,598.1    c-2.07,9.92-4.33,19.8-4.96,30.04c0.27,0.08,0.55,0.16,0.82,0.25c0.81-3.44,1.62-6.88,2.43-10.32c0.15,0.03,0.3,0.07,0.45,0.1    c-0.42,3.28-0.84,6.57-1.27,9.96c1.34,0,2.34,0,3.19,0c5.04-20.12,6.91-40.67,7.23-61.61    C477.92,576.86,475.36,587.19,472.59,598.1z M477.79,516.83c-5.8,7.43-9.08,16.13-9.61,27.07c6.02-7.78,11.5-14.84,16.93-21.93    c0.47-0.61,0.81-1.48,1-2.31c1.54-6.61,3.03-13.24,4.8-21.01C486.28,505.1,482.19,510.77,477.79,516.83z M328.57,639.72    c0.57-21.58-0.96-42.85-5.99-63.71c-0.8,4.53-1.91,9.19-1.48,13.62c1.4,14.35,3.37,28.61,5.09,42.91    c0.43,3.57,0.78,7.16,1.17,10.74c0.18,0,0.36-0.01,0.54-0.01C328.12,642.31,328.32,641.35,328.57,639.72z M442.84,542.76    c-3.83,9.42-6.69,19.28-8.95,29.46c8.09-18.73,19.94-34.96,24.12-56.97C451.76,523.72,447.29,532.88,442.84,542.76z     M500.54,582.64c0.36-2.11,0.76-4.22,1.09-6.34c2.87-18.8,5.69-37.61,8.59-56.4c1.01-6.54,2.17-13.05,3.31-19.87    c-4.86,4.07-15.1,69.1-14.04,88.84C499.87,586.42,500.13,584.83,500.54,582.64z M64.94,489.55c0,5.62,0,11.24,0,16.58    c3.05,1.9,5.81,3.61,8.28,5.14c-0.64-7.02-0.78-14.48-2.11-21.6c-1.28-6.85-3.79-13.36-5.75-20.01c-0.14,0.13-0.27,0.26-0.41,0.39    C64.94,476.29,64.94,482.54,64.94,489.55z M492.36,607.1c2.18-13.68,4.37-27.36,6.55-41.04c-0.29-0.07-0.58-0.15-0.88-0.22    c-6.34,20.02-10.56,40.69-12.45,62.55c1.44-0.41,2.49-0.71,3.23-0.92C490.03,620.62,491.17,614.19,492.36,607.1z M482.41,543.26    c1.14-4.54,2.28-9.08,3.43-13.62c-0.32-0.23-0.64-0.46-0.97-0.68c-3.58,5.96-7.23,11.86-10.67,17.94    c-0.68,1.21-0.91,3.15-0.78,4.68c0.59,6.87,1.39,13.71,1.97,19.22C477.45,562.72,479.86,553.29,482.41,543.26z M472.05,500.59    c0.82-2.38,1.64-4.77,2.76-8.04c-10.67,11.42-13.58,26.66-17.7,41.12c2.69-3.43,5.27-6.91,7.67-10.56    c1.29-1.97,2.65-4.09,3.34-6.43C469.6,511.6,470.67,506.34,472.05,500.59z M454.4,583c1.82-8.85,2.01-12.82,0.91-18.03    c-6.12,11.07-9.72,23.22-8.57,37C448.47,601.7,449.95,598.09,454.4,583z M63.74,564.89c-0.01,2.04,0.07,4.1-0.03,6.13    c-0.62,12.16,0.25,24,5.44,35.02c-1.48-20.43-2.95-40.86-4.43-61.29c-0.32,0-0.64,0-0.97,0    C63.75,551.21,63.75,557.67,63.74,564.89z M61.08,620.2c0,2.86,0,5.73,0,8.85c2.58-0.22,4.47-0.38,7.19-0.61    c-2.15-12.21-4.21-23.85-6.26-35.48c-0.31,0.06-0.62,0.11-0.93,0.17C61.07,601.91,61.07,610.68,61.08,620.2z M169.49,592.45    c0.19,0.67,0.38,1.35,0.58,2.02c-2.47-26.19-12.3-49.38-19.13-73.8c0.7,4.73,1.78,9.32,2.99,13.85    C159.03,553.68,164.17,572.82,169.49,592.45z M427.07,539.29c0.97-4.08,1.94-8.16,2.91-12.24c-0.28-0.12-0.56-0.24-0.83-0.37    c-0.2,0.21-0.51,0.38-0.59,0.65c-4.93,16.26-9.85,32.52-14.71,48.8c-0.3,1-0.04,2.26-0.04,3.4c0.31,0.07,0.63,0.14,0.94,0.21    C418.76,566.43,422.78,553.12,427.07,539.29z M108.99,527.88c1.39,7.61,3.38,14.92,6.67,21.61c0.33-10.4,0.46-20.7-7.33-28.09    C108.57,523.51,108.77,525.38,108.99,527.88z M319.88,617.35c0,8.57,0,17.13,0,26.16c1.59,0.51,3.13,1.01,4.92,1.59    c-1.56-10.94-3.01-21.14-4.46-31.34c-0.11,0.01-0.22,0.02-0.33,0.03C319.97,614.77,319.94,615.73,319.88,617.35z M129.99,619.56    c0.44,1.81,1.02,3.6,1.29,5.45c0.52,3.6,2.26,4.38,5.06,3.67c-2.59-8.65-5.13-17.12-7.66-25.59c-0.36,0.09-0.71,0.17-1.07,0.26    C128.32,608.57,129.03,613.79,129.99,619.56z M160.48,530.38c5.03,18.54,10.06,37.08,15.23,56.14    c0.27-6.29-13.83-57.15-17.3-62.47C159.17,526.33,159.76,528.07,160.48,530.38z M437.77,626.11c2.32-11.62,4.64-23.23,6.96-34.85    c-4.55,11.96-7.45,24.49-9.49,37.33c0.39,0.36,0.79,0.71,1.18,1.07C436.85,628.68,437.29,627.7,437.77,626.11z M461.1,563.7    c2.47-6.36,3.68-13.85,2.81-18.39c-3.26,6.76-8.15,12.53-4.44,21.54C459.98,565.82,460.4,564.99,461.1,563.7z M79.56,516.78    c1.24,0.96,2.48,1.91,4.2,3.23c-3.35-8.94-6.46-17.22-9.57-25.51c-0.07,2.86,0.07,5.55,0.73,8.04    C76.16,507.25,75.7,512.8,79.56,516.78z M110.9,559.32c0.3,1.71,0.6,3.41,0.93,5.3c0.82,0.13,1.59,0.26,2.49,0.4    c1.57-7.98-1.86-13.98-4.76-20.22C110,549.43,110.42,554.04,110.9,559.32z M446.48,564.88c-4.95,10.24-5.79,12.87-4.95,15.56    c5.91-11.26,8.08-17.1,7.16-19.97C447.99,561.94,447.39,563.2,446.48,564.88z M141.83,608.15c0.66,2.35,1.31,4.7,1.97,7.04    c0.66,2.34,1.33,4.67,1.99,7c0.31-0.13,0.62-0.27,0.92-0.4c-2.37-8.83-4.74-17.66-7.11-26.49c-0.37,0.15-0.74,0.29-1.11,0.44    C139.53,599.71,140.56,603.67,141.83,608.15z M122.93,585.65c-2.16,6.47,1.69,11.48,2.27,17.92    C127.11,596.73,125.56,591.29,122.93,585.65z M115.82,582.42c0.14,2.06,0.28,4.13,0.49,7.15c2.82-7.39,1.07-13.78,0.25-20.18    C116.32,573.5,116.08,577.61,115.82,582.42z M119.5,602.75c-0.3-1.18-0.61-2.35-0.91-3.53c-0.28,0.08-0.56,0.16-0.83,0.25    c0.95,6.03,1.91,12.06,2.86,18.1c0.3-0.07,0.59-0.13,0.89-0.2C120.84,612.7,120.18,608.04,119.5,602.75z M442.04,483.44    c1.61-3.86,3.21-7.71,4.82-11.57c-0.46-0.28-0.93-0.56-1.39-0.84c-1.52,3.94-3.05,7.87-4.52,11.83    C440.9,483,441.4,483.45,442.04,483.44z M146.1,590.32c-1.1-3.6-2.19-7.21-3.29-10.81c-0.19,5.6,1.53,10.44,4.11,14.96    C146.67,593.29,146.41,592.1,146.1,590.32z M462.02,541.31c1.52-3.58,3.03-7.15,4.55-10.73c-0.32-0.21-0.63-0.43-0.95-0.64    c-1.53,3.11-3.12,6.17-4.5,9.37C460.88,539.84,461.59,541,462.02,541.31z M143.22,481.02c0.87,2.81,1.73,5.62,2.6,8.43    c0.24-0.11,0.48-0.22,0.73-0.34c-1.98-6.51-3.96-13.02-5.94-19.53c-0.24,0.11-0.49,0.22-0.73,0.33    C140.95,473.42,142.02,476.93,143.22,481.02z M124.61,576.16c-0.7-1.77-1.39-3.54-2.09-5.32c-0.31,0.19-0.61,0.38-0.92,0.57    c1.54,3.85,3.08,7.69,4.62,11.54c0.35-0.2,0.7-0.41,1.05-0.61C126.47,580.43,125.68,578.52,124.61,576.16z M422.3,523.43    c-0.45,1.52-0.9,3.03-1.35,4.55c0.28,0.12,0.56,0.25,0.83,0.37c1.39-4.16,2.77-8.32,4.16-12.48c-0.18-0.1-0.36-0.21-0.55-0.31    C424.43,518,423.45,520.44,422.3,523.43z"/>

</g>

</g>

</svg>