<?xml version="1.0" ?>

<!-- Uploaded to: SVG Repo, www.svgrepo.com, Generator: SVG Repo Mixer Tools -->
<svg width="800px" height="800px" viewBox="-52.05 0 684.34 684.34" id="Layer_1" version="1.1" xml:space="preserve" xmlns="http://www.w3.org/2000/svg" xmlns:xlink="http://www.w3.org/1999/xlink">

<style type="text/css">
	.st0{clip-path:url(#SVGID_2_);}
	.st1{clip-path:url(#SVGID_4_);}
	.st2{clip-path:url(#SVGID_6_);}
	.st3{clip-path:url(#SVGID_8_);}
	.st4{clip-path:url(#SVGID_10_);}
	.st5{clip-path:url(#SVGID_12_);}
	.st6{clip-path:url(#SVGID_14_);}
	.st7{clip-path:url(#SVGID_16_);}
	.st8{clip-path:url(#SVGID_18_);}
	.st9{clip-path:url(#SVGID_20_);}
	.st10{clip-path:url(#SVGID_22_);}
	.st11{clip-path:url(#SVGID_24_);}
	.st12{clip-path:url(#SVGID_26_);}
	.st13{clip-path:url(#SVGID_28_);}
	.st14{clip-path:url(#SVGID_30_);}
	.st15{clip-path:url(#SVGID_32_);}
	.st16{clip-path:url(#SVGID_34_);}
	.st17{clip-path:url(#SVGID_36_);}
	.st18{clip-path:url(#SVGID_38_);}
	.st19{clip-path:url(#SVGID_40_);}
</style>

<g>

<defs>

<rect height="684.34" id="SVGID_35_" width="580.24" y="0"/>

</defs>

<clipPath id="SVGID_2_">

<use style="overflow:visible;" xlink:href="#SVGID_35_"/>

</clipPath>

<g class="st0">

<path d="M253.61,246.78c-1.74,1.5-3.49,3.01-5.69,4.9c-1.76,21.61-3.56,43.61-5.35,65.6c8.3-20.59,17.23-40.85,28.53-59.89    c11.38-19.19,24.83-36.94,40.39-53.15c-1.2,1.89-2.52,3.71-3.57,5.68c-8.17,15.36-16.32,30.74-24.38,46.16    c-0.74,1.42-0.86,3.17-1.56,5.1c-1.38,2.12-2.72,3.8-3.52,5.71c-5.24,12.55-10.36,25.14-15.52,37.73    c-0.65,1.59-1.28,3.18-1.91,4.78c0.28,0.13,0.55,0.26,0.83,0.39c7.79-13.32,15.58-26.65,22.71-38.84c0-2.68,0-4.26,0-5.84    c3.73,6.95,7.46,13.9,11.31,21.07c6.31-5.58,12.88-11.29,20.69-13.28c-6.15,8.07-12.72,16.69-18.14,23.81    c6.82,22.77,13.13,43.88,19.45,64.98c0.32-0.04,0.65-0.08,0.97-0.12c-1.65-12.13-3.29-24.25-5.04-37.15    c6.61,19.8,9.93,39.55,12.84,59.4c2.9,19.8,5.82,39.6,8.59,58.45c-0.41,3.03-0.69,5.11-1.09,8.04    c8.83-9.29,13.4-21.45,25.98-26.24c0.31-3.13,0.63-6.29,1-10c-1.08,0.58-1.66,0.89-2.25,1.21c-0.05-0.25-0.23-0.59-0.13-0.71    c4.11-5.28,3.75-11.89,5.14-17.92c4.37-18.89,8.31-37.88,12.55-56.79c1.2-5.37,3.05-10.59,4.29-15.95c0.41-1.76,0.29-3.95-0.4-5.6    c-5.44-13.02-9.77-26.38-12.42-40.23c-3.51-18.28-7.08-36.57-9.86-54.96c-2.33-15.4-3.57-30.97-5.29-46.46    c0.41-0.08,0.81-0.17,1.22-0.25c2.82,10.42,6.06,20.76,8.36,31.3c3.43,15.76,6.44,31.63,9.17,47.53    c2.5,14.54,4.31,29.19,6.59,43.76c0.86,5.5,2.21,10.93,3.34,16.4c0.58-0.08,1.17-0.15,1.75-0.23c-0.29-3.69-0.31-7.43-0.91-11.07    c-1.92-11.59-4.2-23.12-6.07-34.72c-1.66-10.29-2.71-20.67-4.48-30.94c-5.8-33.62-5.24-67.51-4.69-101.42    c0.1-6.44,0.02-12.89,0.19-19.37c7.52,63.11,11.52,126.58,17.7,190.06c1.05-3.14,2-6.32,3.15-9.42    c5.84-15.81,11.85-31.57,17.51-47.45c1.05-2.94,0.82-6.33,1.2-9.56c0.61,0.38,1.2,0.81,1.72,1.18    c4.12-10.46,7.9-20.91,12.36-31.06c3.39-7.72,6.36-15.23,3.08-23.7c0.65-6.03,0.92-11.97-1.53-17.81    c-1.22-2.9-2.26-6.08-2.42-9.18c-0.7-14.09-1.04-28.19-1.57-42.28c-0.08-2.03-0.51-4.06-0.78-6.08c0.34-0.15,0.68-0.29,1.02-0.44    c2.52,5.66,5.75,11.13,7.39,17.04c2.38,8.59,4.03,17.45,5.15,26.31c0.46,3.59-0.37,8-2.2,11.1c-3.53,5.99-3.17,12.36-3.45,18.7    c-0.17,3.88,0.54,7.79,0.86,11.69c0.34,0.01,0.68,0.01,1.02,0.02c4.48-9.54,8.81-19.16,13.5-28.6c3.77-7.58,7.96-14.94,12-22.38    c2.41-4.45,5.64-8.65,3.95-13.12c1.94-2.83,3.4-4.96,4.94-7.2c0.49,0.1,1.09,0.21,1.92,0.37c0-2.68,0-5.32,0-8.14    c0.98,0,1.96,0,3.36,0c0.36-1.47,0.71-2.93,1.12-4.66c0.42,0.05,1.23,0.15,2.15,0.27c0.53-1.8,1.09-3.71,1.63-5.57    c1.34-0.81,2.61-1.58,4.01-2.43c-1.16-1.52-1.98-2.6-2.91-3.81c1.61,0.21,2.99,0.4,5.05,0.67c-1.71-2.32-3.06-4.15-4.37-5.92    c1.52,0.16,2.96,0.32,4.78,0.52c0-2.45,0-4.65,0-6.85c0.27-0.27,0.55-0.55,0.82-0.82c0.4,0.88,0.8,1.77,1.26,2.81    c1.3-1.38,2.37-2.52,3.46-3.68c-0.64-1.18-1.42-2.62-2.64-4.87c2.61,1.24,4.17,1.98,5.74,2.73c-0.45-3.31-0.85-6.21-1.23-8.94    c2.14,0.58,3.93,1.07,6,1.54c0.28-0.02,0.21-0.05,0.21-0.05c1.69,0.34,3.38,0.68,5.39,1.09c-2.1,2.26-4.32,4.35-2.87,7.8    c0.25,0.59-0.94,1.66-1.09,2.57c-0.25,1.58-0.2,3.21-0.03,4.87c0.24,0.06,0.16,0,0.16,0c1.38,1.03,2.76,2.05,4.11,3.06    c-1.73,0.61-3.73,1.32-5.91,2.08c0.29,0.76,0.68,1.79,1.24,3.29c-2.26,0.16-4.34,0.31-6.73,0.48c0.89,1.11,1.67,2.08,2.62,3.25    c-1.25,0.59-2.45,1.16-3.8,1.81c-0.97-0.37-2.03-0.78-3.95-1.53c0.63,1.82,1.03,3,1.39,4.03c-5.31,6.37-10.61,12.71-15.9,19.06    c0.05,0.23,0.11,0.45,0.16,0.68c1.56-0.64,3.41-0.94,4.63-1.98c13.65-11.66,29.72-18.18,46.91-22.36    c0.36-0.09,0.75-0.01,0.23-0.01c-16.02,12.53-32.55,25.46-49.14,38.44c-3.74-1.91-7.12-0.84-8.46,2.81    c-3.39-0.02-8.95,7.66-8.82,11.73c23.26-8.51,46.64-17.08,70.02-25.64c0.24,0.46,0.49,0.92,0.73,1.39    c-6.45,4.61-12.75,9.43-19.37,13.78c-12.85,8.44-25.23,17.64-39.46,23.88c-6.22,2.73-12.2,3.54-19.13,0.79    c-2.8,5.77-5.54,11.4-8.28,17.03c0.33,0.31,0.67,0.62,1,0.93c2.63-1.87,5.22-3.81,7.91-5.6c4.78-3.18,9.37-6.79,14.49-9.3    c15.78-7.73,31.77-15.03,47.69-22.48c0.3-0.14,0.66-0.17,1.36,0.34c-7.32,5.18-14.55,10.48-21.97,15.49    c-8.82,5.96-17.66,11.92-26.78,17.4c-4.53,2.72-9.68,3.96-15.25,3.08c-3.91-0.62-9.53,3.39-11.43,7.97c6.09,0,11.88,0,17.67,0    c-0.01,0.25-0.03,0.51-0.04,0.76c0.81-0.58,1.62-1.17,2.43-1.75c0.2,0.16,0.39,0.31,0.59,0.47c-1.09,1.54-2.18,3.09-3.27,4.63    c0.1,0.12,0.19,0.23,0.29,0.35c2.21-1.55,4.43-3.1,7-4.91c1.58,2.17,3,4.13,4.4,6.05c-1.15,0.41-2.63,0.94-5.18,1.85    c2.29,0.63,3.43,0.94,4.57,1.25c-0.02,0.24-0.04,0.49-0.06,0.73c-3.95,0-7.89,0-12.37,0c-0.24,0.59-0.79,1.96-1.34,3.33    c-0.17-0.02-0.34-0.04-0.52-0.06c0.25-2.81,0.5-5.63,0.82-9.3c-0.9,1.54-1.36,2.31-2.3,3.92c0-2.46,0-3.93,0-5.85    c-4.67,0-9.1,0-14.18,0c-6.28,15.98-12.71,32.36-19.56,49.8c30.85-6.98,60.33-14.31,90.72-16.51    c-29.63,8.72-59.85,14.6-91.28,18.56c-8.07,22-16.15,44.02-24.23,66.04c0.52,0.28,1.04,0.56,1.56,0.84    c4.04-5.03,8.09-10.06,12.1-15.11c0.21-0.27,0.26-0.71,0.28-1.08c0.86-15.5,10.37-23.95,23.83-29.11    c20.97-8.05,42.74-12.68,64.98-15.53c23.33-2.99,46.69-3.66,70.14-2.35c0.75,0.04,1.49,0.21,2.99,0.44    c-38.43,4.57-73.07,19.25-108.61,30.88c0.13,0.44,0.26,0.88,0.39,1.32c5.04-1.8,10.08-3.61,15.12-5.41    c0.17,0.35,0.34,0.7,0.51,1.05c-0.29,0.32-0.51,0.78-0.87,0.92c-10.37,4.06-16.51,12.18-21.13,21.83    c-9.32,19.45-21.01,37.51-32.65,55.61c-3.73,5.8-7.1,11.82-10.57,17.78c-0.52,0.89-0.67,2-0.24,3.45    c5.87-7.68,11.75-15.37,17.62-23.05c0.51,0.37,1.02,0.74,1.53,1.11c-19.35,31.15-36.81,63.51-60.72,91.72    c0.33,0.37,0.66,0.73,0.99,1.1c4.24-2.98,8.49-5.96,13.56-9.52c0.6,0.45,2.19,1.2,3.02,2.45c0.44,0.66-0.15,2.96-0.79,3.21    c-2.06,0.82-4.36,1.03-6.56,1.48c-0.1-0.36-0.2-0.73-0.31-1.09c-2.94,1.83-6.07,3.41-8.74,5.57c-1.43,1.16-2.76,3.23-2.95,5.01    c-1.74,16.82-3.36,33.65-4.74,50.51c-1.24,15.18-2.2,30.39-3.14,45.6c-0.87,14.07-1.83,28.14-2.26,42.23    c-0.75,24.6-1.12,49.21-1.68,73.82c-0.04,1.68-0.29,3.35-0.47,5.24c-2.72,0-5.37,0-8.6,0c0-7.95-0.12-15.82,0.03-23.69    c0.21-11.79,1.36-23.62,0.69-35.36c-0.55-9.65-3.06-19.2-4.9-28.75c-2.28-11.81-4.77-23.59-6.94-34.31    c-1.93,9.6-3.97,20.1-6.19,30.57c-1.28,6.05,1.21,11.62,1.85,17.42c1.09,9.87,2.8,19.69,3.36,29.59    c0.84,14.71,0.91,29.46,1.32,44.54c-2.55,0-4.51,0-6.22,0c-0.8-24.79-1.59-49.54-2.39-74.3c-0.36-0.01-0.72-0.02-1.08-0.04    c-6.52,24.75-13.05,49.5-19.64,74.49c-3.53,0.18-7.06,0.37-10.62,0.55c0-18.5,0-36.51,0-54.8c-6.59,18.35-13.06,36.38-19.54,54.45    c-2.33,0.1-4.22,0.19-6.58,0.29c2.87-7.4,5.84-14.53,8.4-21.8c5.27-14.97,10.46-29.97,15.32-45.07c0.89-2.75,0.17-6.07-0.04-9.12    c-0.43-6.41-1.01-12.81-1.94-19.32c-9.21,32.51-21.89,63.68-35.41,94.84c-4.57,0-9.55,0-15.24,0c0-5.49,0.37-10.66-0.08-15.77    c-0.93-10.66-2.04-21.31-3.53-31.9c-2.05-14.54-3.96-29.13-6.92-43.5c-5.33-25.91-14.82-50.08-31.54-71.07    c-15.71-19.72-36.59-31.25-59.9-39.27c-25.31-8.72-51.48-10.47-77.9-9.15c-10.11,0.51-20.15,2.69-30.21,4.2    c-4.27,0.64-8.5,1.52-13.53,2.43c25.77-10.94,52.14-15.49,79.12-15.94c27.06-0.45,53.43,3.98,78.34,15.51    c-31.36-47.83-72.73-85.1-121.13-116.36c9.29-0.81,45.15,17.48,71.79,36.16c21.86,15.34,41.34,33.37,57.93,54.3    c16.67,21.02,29.98,44.09,40.27,68.9c10.28,24.79,16.32,50.61,19.34,77.24c0-12.76,0.21-25.52-0.06-38.27    c-0.27-12.95-0.91-25.9-1.57-38.84c-0.65-12.74-1.47-25.48-2.3-38.21c-0.83-12.88-1.76-25.75-2.61-38.14    c-9.74-10.73-16.64-23.68-30.09-30.13c0.42-0.23,0.84-0.46,1.27-0.7c-0.92-2.4-1.32-5.2-2.84-7.13    c-8.8-11.2-17.96-22.11-26.79-33.28c-6.02-7.62-11.71-15.51-17.13-23.62c17.13,16,34.15,32.06,47.44,51.53    c6.52,9.17,13.03,18.34,19.55,27.51c0.53-0.36,1.06-0.71,1.59-1.07c-2.54-4.01-4.84-8.21-7.66-12.02    c-17.34-23.44-35.1-46.59-52.1-70.27c-8.65-12.05-16-25.02-24.16-37.92c4.31,1.71,25.16,22.92,33.52,33.84    c9.65,12.61,20,24.76,28.71,37.99c8.48,12.87,15.27,26.84,22.93,40.55c0.77-6.55-1.89-12.27-3.56-18.32    c1.12,1.9,2.24,3.81,3.97,6.74c1.17-9.81,2.04-18.47,3.25-27.07c2.44-17.37,5.45-34.66,7.47-52.07    c1.52-13.06,1.67-26.28,2.76-39.4c0.98-11.81,2.29-23.59,3.69-35.36c0.57-4.82-2.95-7.98-4.4-12.41    c-0.49-0.54-0.66-0.73-1.02-1.11c-0.85-1.33-1.51-2.49-2.04-3.76c0.3-0.25,0.46-0.4,0.64-0.85c-4.47-6.11-8.95-11.93-13.41-18.02    c-1.06-1.38-2.16-2.49-3.27-3.57c-0.02,0.03-0.08,0.07,0.11-0.06c-0.33-0.36-0.85-0.58-1.5-1.03c-1.85-2.39-3.58-4.55-5.31-6.71    c-0.64-1.19-1.09-2.55-1.95-3.56c-15.14-17.75-31.9-33.75-51.05-47.16c-0.62-0.44-1.17-0.99-1.52-1.81    c25.39,7.2,43.24,25.45,63.02,43.14c-7.29-25.75-14.35-50.66-21.4-75.56c0.1-0.07,0.19-0.15,0.29-0.22    c1.59,2.67,3.26,5.29,4.75,8.01c11.49,21,22.11,42.41,29.71,65.19c0.74,2.23,2.13,4.25,3.52,6.76c1.07,2.38,1.71,4.44,2.65,6.34    c3.74,7.58,4.07,13.64-1.63,19.95c-0.2,5.71,1.88,10.73,5.24,16.07c1.59-12.26,3.07-23.72,4.44-34.36    c-1.49-2.22-2.47-3.69-3.45-5.15c0.98,0.16,1.96,0.33,3.14,0.53c-0.72-9.78-3.8-18.63-8.8-27.16c0.66-0.37,1.14-0.64,1.71-0.96    c-2.03-5.2-4.48-10.3-5.97-15.66c-1-3.59-1.43-7.7-0.74-11.32c1.79-9.4,4.34-18.65,7.3-28.02c0.32,12.23,1.31,24.49,0.76,36.68    c-0.51,11.33-0.6,22.26,5.22,32.44c0.83,1.46,1.19,3.18,1.69,4.54c2.6-15.58,5.23-31.37,7.93-47.52c0.26-0.11,1.13-0.45,0.97-0.39    c0.58-3.02,1.02-5.3,1.46-7.59c0.31,0.04,0.62,0.08,0.93,0.12c-0.25-0.94-0.51-1.87-0.8-2.95c1.12-0.54,2.13-1.03,3.1-1.5    c-0.58-0.82-1.17-1.67-2-2.85c1.18-0.51,1.93-0.83,2.82-1.21c-0.28-0.65-0.61-1.42-0.94-2.18c0.42-0.08,0.85-0.16,1.27-0.25    c-0.17-1.1-0.35-2.2-0.53-3.34c0.57,0,1.45,0,2.59,0c-0.2-1.41-0.39-2.73-0.62-4.38c0.92,0.1,1.72,0.2,2.2,0.25    c0.44-2.51,0.88-4.98,1.36-7.69c0.39,0.26,0.78,0.52,1.65,0.96c1.47,0.52,2.46,0.85,3.45,1.19c1.12,0.18,2.25,0.36,3.37,0.53    c0.14,0.3,0.28,0.6,0.43,0.89c-1.48,0.93-2.97,1.86-4.22,2.63c0.18,0.1,0.92,0.5,1.96,1.06c-1.04,2.04-1.97,3.88-3.25,6.41    c-0.04-0.16,0.15,0.65,0.39,1.68c-0.7,0.37-1.53,0.81-2.6,1.37c0.46,0.73,0.82,1.29,0.88,1.39c-2.22,4.43-4.32,8.61-6.69,13.34    c4.21-1,4.52-1.41,9.16-7.53c8.27-10.92,16.81-21.61,27.5-30.34c0.99-0.81,2.14-1.44,3.6-1.73    c-7.57,16.06-18.49,29.72-28.72,43.97c14.57-9.94,28.06-21.59,44.72-28.05c0.2,0.26,0.4,0.52,0.6,0.78    c-10.32,9.48-20.63,18.96-31.32,28.73c-3.07,2.58-5.77,4.87-8.73,7.21c-6.96,4.74-12.73,11.37-22.92,9.94    c-1.8,12.3-3.54,24.2-5.4,36.95c1.96-1.62,2.91-2.4,3.87-3.19c1.3-0.76,2.6-1.52,4.41-2.38c0.71-0.08,0.91-0.05,1.11-0.02    c-1.61,1.94-2.92,4.31-4.91,5.73c-3.23,2.31-4.58,5.17-4.96,9c-1.12,11.38-2.47,22.73-3.78,34.48c1.01-0.35,1.64-0.56,2.68-0.71    C252.77,245.95,253.19,246.37,253.61,246.78z M239.76,418.04c-3.22,3.9-4.01,8.31-3.45,13.31c1.09,9.74,1.88,19.51,2.64,29.28    c0.56,7.21,0.8,14.45,1.34,21.66c1.22,16.2,2.81,32.37,3.72,48.58c0.72,12.9,0.88,25.84,0.88,38.76c0,15.16-0.49,30.32-0.65,45.48    c-0.11,10.65-0.02,21.31-0.02,31.96c1.27-2.34,2.04-4.72,2.7-7.14c6.72-24.44,14.07-48.72,19.91-73.37    c3.87-16.33,6.49-33.09,7.94-49.81c1.2-13.87,0.6-28.03-0.55-41.95c-1.55-18.88-4.32-37.66-6.72-56.46    c-0.79-6.15-2.06-12.24-3.11-18.36c2.41,6.4,4.39,12.88,6.19,19.41c5.39,19.55,7.85,39.55,9.41,59.71    c1.8,23.33,1.11,46.58-3.41,69.53c-3.39,17.21-7.59,34.28-11.98,51.27c-5.06,19.56-10.81,38.93-16.09,58.44    c-1.61,5.96-2.66,12.07-3.97,18.11c0.41,0.13,0.83,0.26,1.24,0.38c1.19-2.87,2.31-5.77,3.58-8.61    c11.79-26.32,22.36-53.09,30.25-80.87c3.08-10.85,6.48-21.53,6.36-33.16c-0.16-16.4,0.4-32.84,1.5-49.21    c1.12-16.61,3.21-33.16,4.99-49.72c1.25-11.56,2.31-23.16,4.14-34.64c2.71-17.01,6.08-33.91,9.04-50.89    c0.42-2.44,0.4-5.06,0.04-7.51c-0.91-6.24-1.93-12.48-3.27-18.65c-2.57-11.76-5.39-23.47-8.11-35.2c-0.48-0.1-0.96-0.2-1.43-0.3    c-11.37,19.62-22.64,39.29-34.15,58.83c-4.66,7.92-8.98,16.3-18.36,20.08c-0.68,7.32-1.36,14.61-1.99,21.87    c0,0,0.04-0.04-0.3,0.21c-0.84,3.41-1.68,6.81-2.65,10.72c1.65-1.18,2.75-1.97,4.17-2.54    C239.81,417.43,240.02,417.59,239.76,418.04z M377.41,366.44c-3.29,19.63-8.31,39-9.08,59.01c1.06-2.33,1.53-4.76,1.8-7.22    c0.62-5.63,0.89-11.26,4.46-16.16c10.59-14.53,20.41-29.67,31.65-43.67c14.86-18.51,29.8-36.91,42.88-56.75    c1.18-1.78,2.24-3.65,3.46-5.65c-9.47,5.65-18.53,11.06-27.96,16.69c3.21,2.25,5.62,3.94,8.98,6.3c-3.88,0.71-6.65,1.22-9.42,1.73    c0.02,0.17,0.03,0.34,0.05,0.51c0.96,0.13,1.91,0.26,2.87,0.39c-0.02,0.3-0.05,0.59-0.07,0.89c-2.6-0.13-5.19-0.26-8.05-0.4    c-0.22,0.85-0.53,2.02-1.13,4.29c-0.22-2.69-0.35-4.28-0.5-6.04c-1.13-0.3-2.19-0.59-3.18-0.85c-1.19-3.45-4.8-5.57-7.94-4.64    c-2.95,0.87-5.8,2.14-8.79,2.75c-5.53,1.13-8.45,5.31-9.78,9.81C383.91,340.12,380.98,353.04,377.41,366.44z M297.12,586.36    c0.42,27.87,0.84,55.73,1.27,83.98c6.86-25.56,13.63-50.79,20.24-75.4c-0.67-2.22-1.16-3.82-1.88-6.19    c1.32,0.97,1.86,1.37,2.58,1.9c2.38-14.66,4.95-28.98,6.97-43.38c1.15-8.21-2.24-37.8-4.46-43.36c-0.55,1.85-1.1,3.28-1.38,4.75    c-3.45,17.73-8.62,35.02-17.61,50.62c-4.66,8.08-6.58,15.85-5.76,24.74C297.12,584.54,297.1,585.06,297.12,586.36z M305.54,484.29    c4.79-26.93,4.11-53.99,1.99-81.11c1.5,10.58,3.04,21.15,3.46,31.77c0.49,12.25,1.26,24.72-0.38,36.78    c-2.22,16.35-6.58,32.41-10.1,48.57c-1.14,5.25-2.53,10.44-3.81,15.65c0.45,0.14,0.91,0.28,1.36,0.42    c4.11-9.56,8.45-19.03,12.24-28.71c2.51-6.41,5.59-13.02,6.06-19.71c1.03-14.43,1.65-29.06,0.41-43.43    c-1.75-20.35-5.29-40.56-8.14-60.81c-0.54-3.88-1.4-7.71-2.11-11.57c-0.5,0.01-0.99,0.02-1.49,0.03    c-4.11,54.9-12.41,109.45-12.9,164.73C296.57,519.58,301,502.26,305.54,484.29z M337.65,486.94c-1.85,6-4.97,11.93-5.3,18.01    c-0.7,12.7-0.92,25.59,0.51,38.2c1.47,12.92,5.13,25.59,7.85,38.36c0.97,4.56,2.02,9.09,3.05,13.71    c2.98-42.72,5.95-85.23,8.92-127.7c-7.44,0.77-8.23,1.21-11.04,8C340.18,479.05,339.17,482.76,337.65,486.94z M258.98,328.08    c-3.76,6.4-7.52,12.81-11.28,19.21c0.44,0.29,0.88,0.58,1.32,0.87c14.52-19.78,29.04-39.57,43.63-59.45    c-2.08-5.14-4.07-10.08-6.49-16.07C276.83,291.78,268.08,309.7,258.98,328.08z M449.07,289.95c-10.74,4.66-21.41,9.48-32.24,13.91    c-4.2,1.72-8.77,2.56-14.48,4.18c-1.74,2.08-4.53,5.42-7.32,8.77c0.22,0.25,0.43,0.5,0.65,0.75c4.67-2.17,9.31-4.44,14.06-6.43    c1.09-0.46,2.58,0.02,3.89,0.05c0.19,0,0.38-0.08,0.46-0.1c0.16-1.19,0.31-2.31,0.44-3.27c13.15-6.13,26.1-12.16,39.04-18.19    c-0.09-0.26-0.17-0.52-0.26-0.78C452.05,289.12,450.78,289.4,449.07,289.95z M233.11,389.46c-1.58,6.82-2.09,25.4-0.75,30.71    c5.64-10.58,5.51-21.9,5.94-33.1c-1.69-0.5-3.26-0.97-4.94-1.47C233.3,386.74,233.25,387.77,233.11,389.46z M352.26,464.19    c0.75-0.7,1.51-1.4,2.14-1.99c1.16-8.93,2.3-17.65,3.44-26.36c-0.24-0.07-0.49-0.13-0.73-0.2c-4.28,10.48-8.56,20.96-12.84,31.44    c0.31,0.24,0.61,0.48,0.92,0.72C347.39,466.71,349.59,465.62,352.26,464.19z M244.62,354.94c3.71-5.04,3.71-5.04,1.59-7.3    c-1.34,3.11-2.59,6-3.84,8.89c0.28,0.13,0.56,0.25,0.84,0.38C243.54,356.37,243.87,355.84,244.62,354.94z"/>

<path d="M362.37,609.23c7.65-26.7,17.3-52.15,34.08-74.29c12.2-16.09,27.59-28.49,45.05-38.51c15.15-8.69,31.16-15.14,48.12-19.25    c0.72-0.18,1.53-0.02,2.54-0.02C433.65,511,394.75,560.13,375,624.56c20.79,2.57,47.25,18.17,57.84,34.48    c-16.97-13.87-34.84-25.59-59.18-24.7c-3.25,14.75-6.56,29.79-9.9,44.94c-3.77,0-7.37,0-11.61,0    C353.45,655.64,355.17,632.23,362.37,609.23z"/>

<path d="M348.92,388.73c1.29-20.69,0.18-40.97-1.18-61.24c-0.4-5.95-0.51-11.91-0.94-17.86c-1.38-19.47-2.12-39.03-4.5-58.38    c-2-16.29-5.93-32.34-9.01-48.49c-0.19-1-0.34-2,0.17-3.26c2.83,6.22,5.98,12.32,8.45,18.69c8.2,21.12,15.81,42.47,20.11,64.78    c2.83,14.66,5.91,29.49,4.79,44.48c-1.19,15.91-3.58,31.75-8.32,47.09c-5.19,16.81-10.48,33.6-16.25,50.14    C344.46,412.81,346.67,400.95,348.92,388.73z"/>

<path d="M220.25,394.08c-0.66-0.02-1.71-0.04-2.11-0.56c-15.71-20.31-24.69-43.7-31.69-68.14c-9.29-32.44-21.75-63.68-37.22-93.7    c-0.41-0.8-0.63-1.71-0.94-2.56c0.58-0.47,1.16-0.95,1.74-1.42c0.46,1.07,0.78,2.22,1.39,3.18c8.67,13.77,17.76,27.29,25.96,41.34    c7.54,12.92,14.71,26.13,20.95,39.72c6.92,15.06,12.97,30.55,18.68,46.12c3.23,8.81,2.78,18.2,1.47,27.53    C218.1,388.22,219.55,391.1,220.25,394.08z"/>

<path d="M403.14,236.72c-2.57-0.82-3,1.23-3.62,2.81c-3.38,8.64-6.67,17.31-10.03,25.96c-0.77,1.99-1.67,3.94-2.71,6.11    c-0.19,0.21-0.17,0.27-0.17,0.27c0.27-18.19-0.21-36.44,1.03-54.57c1.31-19.02,4.33-37.92,6.5-56.89    c1.35-11.78,2.49-23.59,3.73-35.39c0.04-0.34,0.16-0.67,0.93-1.06c0.97,7.63,1.94,15.26,2.91,22.9c1.99-0.86,3.94-1.7,6.48-2.8    c1.39,3.48,2.62,6.53,3.85,9.59c-0.3,0.11-0.6,0.23-0.9,0.34c0.63,1.16,1.25,2.31,1.83,3.39c-1.1,0.26-1.91,0.45-3,0.71    c0.52,1.2,0.96,2.22,1.13,3.45c-1.81-1.22-3.35-2.63-4.89-4.05c-0.33,0.25-0.65,0.5-0.98,0.75c0.51,4.31,1.36,8.61,1.47,12.93    c0.39,15.23,0.77,30.47,0.63,45.69c-0.06,6.33-1.38,12.68-5.11,18.12C402.55,235.61,402.84,236.16,403.14,236.72z"/>

<path d="M223.06,638.98c6.04,12.84,8.79,26.2,10.23,40.25c-3.31,0-6.37,0-10.02,0c-0.78-2.9-1.6-6.04-2.48-9.17    c-4.19-14.84-11.17-28.16-21.97-39.28c-13.18-13.58-28.78-23.54-46.86-29.03c-12.74-3.87-25.85-6.52-38.8-9.72    c-0.45-0.11-0.87-0.35-1.24-1.32c8.3,0,16.62-0.29,24.91,0.06c18.58,0.77,36.45,4.61,52.77,13.91    C203.9,612.83,215.5,623.77,223.06,638.98z"/>

<path d="M474.37,221.03c31.19-5.81,62.33-6.9,93.61-6.25c-49.88,11.29-100.34,19.72-150.45,32.62    C433.61,231.58,452.49,223.44,474.37,221.03z"/>

<path d="M453.48,116.6c-2.97,15.39-6.91,30.12-14.8,43.47c-0.5-0.01-0.99-0.02-1.49-0.03c-0.44-5.85-1.2-11.71-1.24-17.56    c-0.09-14.07,6.28-26.3,11.9-38.63c2.92-6.4,6.72-12.41,10.16-18.57c0.53-0.95,1.28-1.79,2.46-2.36    c-1.31,5.32-2.77,10.6-3.89,15.96C455.39,104.64,454.52,110.48,453.48,116.6z"/>

<path d="M497.13,66.65c0.21-1.34,0.47-2.67,0.62-4.02c0.13-1.16,0.15-2.33,1.14-3.51c0.63,1.05,1.27,2.11,1.98,3.29    c0.28-1.8,0.53-3.37,0.72-4.6c-0.36-2.04-0.66-3.79-0.99-5.7c1.95,1.12,3.43,1.97,4.86,2.79c-0.67-2.72-1.21-4.94-1.93-7.84    c1.72,1.35,2.75,2.16,4.67,3.67c-0.9-2.81-1.46-4.56-2.11-6.61c0.92,0,1.55,0,2.41,0c-0.49-1-0.92-1.87-1.7-3.45    c1.26,0.84,1.97,1.31,2.99,1.99c0.5-3.06,0.98-5.94,1.42-8.66c0.91,0.05,1.75,0.11,2.73,0.16c0-1.82,0-3.39,0-6.04    c1.07,1.91,1.58,2.82,2.09,3.74c0.23-0.06,0.46-0.12,0.69-0.17c0-1.94,0-3.89,0-6.08c0.32,0.58,0.56,1.02,1.2,2.17    c0-3.08,0-5.47,0-8.34c1.24,1.12,2.22,2.01,3.87,3.51c-0.31-3.31-0.55-5.97-0.86-9.3c1.27,1.7,2.22,2.98,3.8,5.1    c-0.24-4.26-0.42-7.48-0.66-11.76c1.11,1.85,1.7,2.82,2.98,4.96c0.62-2.95,1.04-4.94,1.57-7.44c0.22,1.72,0.37,2.97,0.57,4.53    c0.79-0.38,1.49-0.73,2.55-1.24c-0.13,0.8-0.23,1.41-0.33,2.04c0.6,0.28,1.23,0.59,2.44,1.16c-2.68,0.96-4.84,1.73-7.01,2.51    c0.04,0.3,0.07,0.6,0.11,0.89c1.55-0.14,3.1-0.29,5.71-0.53c-1.97,1.85-3.35,3.14-4.92,4.61c0.01,6.18-0.46,6.8-6.62,8.66    c1.21-0.1,2.42-0.2,4.05-0.33c-0.99,2.15-1.93,4.19-3.02,6.57c-0.57,0.17-1.53,0.46-2.44,0.73c-0.09,1.88-0.17,3.62-0.26,5.65    c-2.03,0.87-4.11,1.77-6.2,2.67c0.02,0.11,0.04,0.23,0.06,0.34c1.51-0.2,3.02-0.39,4.54-0.59c0.08,0.17,0.15,0.34,0.23,0.5    c-1.77,1.17-3.53,2.34-6.04,3.99c1.9-0.21,2.98-0.34,4.07-0.46c0.16,0.24,0.33,0.48,0.49,0.72c-1.61,1.39-3.23,2.77-4.84,4.16    c0.71,0.25,1.43,0.5,3.47,1.22c-3.39,2.24-5.98,3.96-9.35,6.18c2.29-0.32,3.77-0.52,5.25-0.73c0.17,0.39,0.35,0.78,0.52,1.17    c-2.89,1.42-5.78,2.84-9.46,4.65c2.38,0.2,3.86,0.33,5.55,0.48c-1.95,3.56-5.34,3.85-9.05,4.26    C497.88,67.68,497.51,67.16,497.13,66.65z"/>

<path d="M291.55,149.2c4.1-2.18,8.2-4.36,12.41-6.59c-1.7,2.19-3.4,4.59-5.32,6.8c-10.07,11.58-20.17,23.13-30.33,34.63    c-2.86,3.24-5.94,6.27-9.13,9.18c-0.22-2.4-0.08-4.6-0.25-6.77c-0.52-6.48,2.42-11.44,6.98-15.51c5.58-4.96,11.4-9.65,17.4-14.44    C286.25,154.08,288.9,151.64,291.55,149.2z"/>

<path d="M247.19,133.13c3.32-13.96,6.61-27.59,9.9-41.22c0.28,0.06,0.57,0.12,0.85,0.18c0,4.14,0.05,8.27-0.01,12.41    c-0.08,5.92-0.71,11.87-0.28,17.74c0.86,11.88-3.95,22.26-7.82,32.93c-0.99,2.74-1.99,5.48-2.93,8.07    C245.19,158.4,245.29,141.53,247.19,133.13z"/>

<path d="M212.75,203.94c2,2.17,3.73,4.33,5.37,6.82c0.58,1.29,1.26,2.26,1.96,3.46c0.3,0.37,0.57,0.51,0.93,0.65    c0.08,0.01,0.24,0.03,0.35,0s0.31-0.07,0.27,0.21c0.29,1.08,0.49,1.98,0.99,2.67c2.89,4.01,5.89,7.93,8.75,11.96    c0.59,0.84,0.73,1.99,1.08,3c-0.79-0.22-1.79-0.21-2.34-0.71c-6.52-5.78-12.71-11.99-19.58-17.31c-3.19-2.47-7.7-3.24-12-4.93    c0.76-0.28,1.24-0.46,1.89-0.7c-0.86-1.27-1.69-2.5-3.14-4.65c2.21,0.73,3.49,1.15,5.75,1.9c-0.14-1.44,0.18-2.97-0.43-3.82    c-3.95-5.46-8.1-10.77-12.2-16.12c-0.75-0.98-1.54-1.93-2.06-3.14C197.97,188.31,204.11,197.43,212.75,203.94z"/>

<path d="M257.12,237.44c3.26-5.6,6.31-11.33,9.81-16.78c7.38-11.53,15.48-22.45,28.03-29.02c0.53-0.28,1.06-0.55,2.12-0.19    c-10.59,13.27-21.18,26.54-31.79,39.79c-1.31,1.64-2.71,3.22-4.2,5.29c-0.28,0.84-0.44,1.22-0.78,1.43    c-0.81-0.29-1.43-0.4-2.25-0.54c-0.34-0.03-0.47-0.04-0.69-0.03C257.28,237.41,257.12,237.44,257.12,237.44z"/>

<path d="M529.21,74.27c0.85,0.21,1.71,0.41,3.01,0.73c-3.57,1.03-6.71,1.94-9.84,2.84c0.04,0.22,0.08,0.44,0.12,0.66    c0.83,0.14,1.65,0.27,3.19,0.53c-4.12,1.33-7.58,2.45-11.51,3.72c1.22,0.74,2.08,1.26,3.79,2.28c-2.79-0.29-4.69-0.48-7.23-0.74    c0.87,1.38,1.42,2.24,2.14,3.39c-2.68,0.19-5.23,0.37-7.77,0.56c-0.14,0.35-0.29,0.7-0.43,1.05c1.04,0.71,2.07,1.41,3.9,2.65    c-3.37,0-5.66,0-8.31,0c0.15,1.04,0.28,1.91,0.54,3.65c-2.33-0.25-4.38-0.48-6.74-0.67c-0.32,0.03-0.24,0.09-0.21,0.12    c-0.22-0.79-0.46-1.62-0.72-2.49c2.39-3.35,4.8-6.72,7.47-10.46c0.22,1.8,0.38,3.12,0.65,5.41c2.1-3.68,3.77-6.62,5.72-10.04    c0.6,1.27,0.99,2.08,1.55,3.28c1.4-1.87,2.59-3.44,4.12-5.47c0.47,1.04,0.73,1.63,1.17,2.6c0.25-0.79,0.42-1.31,0.59-1.83    c0.3,0.34,0.59,0.68,0.91,1.04c0.63-1.38,1.21-2.63,1.78-3.88c0.31,0,0.63,0,0.94,0c0.18,1.41,0.35,2.83,0.56,4.49    c1.05-2.55,2.06-5.03,3.08-7.5c0.32,0.1,0.64,0.2,0.96,0.3c0.06,1.13,0.13,2.26,0.22,4.02c0.95-2.41,1.69-4.3,2.43-6.2    c0.38,0.15,0.77,0.29,1.15,0.44c0,1.39,0,2.77,0,4.7c0.76,0.33,1.73,0.75,2.77,0.99C529.27,74.24,529.21,74.27,529.21,74.27z"/>

<path d="M260.49,238.12c0.15-0.38,0.3-0.76,0.57-1.31c1.09-0.65,2.21-0.97,3.02-1.64c13.48-11.17,26.85-22.48,40.42-33.54    c3.72-3.03,8.02-5.33,12.42-7.49c-20.6,17.94-40.44,36.72-63.07,52.57c-0.67-0.33-1.1-0.75-1.67-1.32    c0.44-0.93,1.02-1.69,1.97-2.49c0.35-0.03,0.58,0,0.86-0.02C257.03,241.28,258.76,239.7,260.49,238.12z"/>

<path d="M263.16,196.87c-0.45,0.07-0.65,0.04-1.15-0.02c7.36-9.13,15.05-18.21,22.68-27.34c2.02-2.42,3.86-5.01,6.42-8.36    c0,1.73,0.25,2.52-0.04,2.98c-4.8,7.76-9.71,15.47-14.5,23.24c-0.96,1.55-1.54,3.33-1.61,5.44c2.16-1.47,4.23-3.12,6.52-4.34    c0.91-0.48,2.32-0.02,3.5,0.01c-0.13,1.18,0.19,2.86-0.46,3.44c-2.27,2-4.83,3.69-7.39,5.34c-1.11,0.72-2.46,1.04-4.12,1.72    c-1.03-1.82-2.24-3.98-3.7-6.57C267.3,193.9,265.35,195.34,263.16,196.87z"/>

<path d="M275.13,113.31c-1.35-0.34-2.33-0.68-3.54-1.11c0.2-2.36,0.61-4.63,1.06-7.03c1.16-0.14,2.27-0.28,3.62-0.45    c-1.22-0.15-2.21-0.27-3.31-0.4c0.41-2.46,0.78-4.73,1.17-7.11c0.68,0.16,1.57,0.36,2.21,0.51c-0.12-1.98-0.23-3.83-0.35-5.81    c1.56-0.4,2.77-0.71,3.92-1c-0.81-0.62-1.64-1.25-2.47-1.88c0.72-0.83,1.44-1.66,2.63-2.41c1.01,0.25,1.55,0.41,2.09,0.57    c0.89,0.66,1.77,1.32,2.86,2.13c-0.4,1.03-0.84,2.17-1.35,3.5c-1.39-0.27-2.59-0.51-4.14-0.81c0.92,1.02,1.59,1.76,2.8,3.1    c2.62-1.78,5.27-3.59,8.39-5.72c-0.49,6.58-5.51,10.32-7.93,15.5c-0.86,0.09-1.71,0.18-2.84,0.3c0.54,1.14,1,2.12,1.58,3.33    c-0.62,0.1-1.24,0.21-1.95,0.33c0,0.94,0,1.89,0,2.81C278.11,112.24,276.8,112.78,275.13,113.31z"/>

<path d="M293.82,57.38c-0.49-0.89-0.98-1.78-1.5-2.73c0.79-2.73,1.6-5.54,2.47-8.33c0.03-0.08,0.71,0.04,1.28,0.08    c-0.13-2.4-0.37-4.96,2.95-5.37c-0.13-2.53-0.26-5.07-0.41-7.84c0.99-0.29,1.9-0.55,2.92-0.84c-0.22-1.47-0.4-2.69-0.58-3.9    c0.06,2.08,6.32,1.62,1.96,5.42c1.01,0.17,1.69,0.29,3.31,0.56c-1.35,1.26-2.27,2.12-3.32,3.11c0.26,0.31,0.7,0.84,1.25,1.49    c-0.88,1.69-1.76,3.38-2.92,5.6c0.05,0.15,0.33,1.06,0.71,2.25c-0.74,0.39-1.43,0.76-2.11,1.13c0.35,0.14,0.68,0.29,1.14,0.48    c-0.4,0.54-0.77,1.06-1.6,2.2c-0.63-0.09-2.06-0.3-3.5-0.51c-0.04,0.16-0.07,0.32-0.11,0.48c1.32,0.34,2.64,0.69,4.45,1.16    c-1.03,0.89-1.91,1.65-2.89,2.5c0.54,0.18,1.11,0.37,2.14,0.72c-1.18,0.86-2.14,1.55-3.45,2.48    C295.05,57.63,294.44,57.5,293.82,57.38z"/>

<path d="M386.56,271.79c-0.02,7.76-0.02,15.54-0.02,23.33c-0.28,0.01-0.56,0.02-0.83,0.03c-2.1-24.74-4.21-49.48-6.31-74.22    c0.33-0.03,0.67-0.06,1-0.09c1.26,12.56,2.46,25.12,3.82,37.67c0.47,4.3,1.34,8.56,2.21,13.1    C386.61,271.87,386.59,271.81,386.56,271.79z"/>

<path d="M286.28,80.33c-0.95-0.63-1.91-1.25-2.92-1.92c0.35-1.43,0.67-2.75,1.13-4.6c-0.27-0.49-0.8-1.45-1.68-3.06    c1.19,0.77,1.75,1.13,2.9,1.88c0-2.81,0-5.23,0-7.79c0.62,0.49,1.3,1.01,1.41,1.1c1.98-0.39,3.41-0.67,4.69-0.92    c-1.04-0.39-2.26-0.83-3.93-1.45c0.98-1.12,1.6-1.84,2.22-2.55c-0.35-0.87-0.71-1.75-1.07-2.62c0.27-0.11,0.53-0.21,0.8-0.32    c0.48,1.17,0.95,2.35,1.57,3.87c1.29,0.18,2.91,0.41,4.53,0.65c-1.03,3.65-1.81,7.48-7.07,6.6c1.42,0.13,2.84,0.26,5.12,0.47    c-1.53,1.36-2.52,2.25-3.56,3.18c0.57,0.24,1.12,0.48,2.94,1.26c-2.69,0.93-4.39,1.51-6.25,2.15c0.91,0.35,1.94,0.74,4.29,1.65    c-2.16,1.1-3.4,1.74-4.91,2.38C286.22,80.28,286.28,80.33,286.28,80.33z"/>

<path d="M178.14,398.57c0.5-1.73,0.77-3.37,1.04-5.04c0.65,0,1.97,0,2.99,0c2.33,1.35,4.6,2.66,7.41,4.28    c0.03,0.54,0.12,2.08,0.21,3.73c2.76,2.04,5.55,4.11,8.34,6.18c-0.16,0.18-0.32,0.36-0.48,0.54c-6.24-2.51-12.48-4.99-18.7-7.54    c-0.66-0.27-1.19-0.87-1.78-1.31C177.42,399.16,177.67,398.91,178.14,398.57z"/>

<path d="M380.68,438.93c-0.41-0.14-0.55-0.28-0.68-0.43c0.66-0.37,1.29-0.82,1.98-1.09c3.97-1.57,7.77-3.31,8.89-8.33    c1.04,0.53,1.72,0.88,2.38,1.23c1.88-1.55,3.72-3.06,6.01-4.94c-0.13,1.75-0.22,2.91-0.33,4.32c1.33-0.56,2.37-1,4.32-1.82    c-1.49,1.22-2.25,1.84-3.38,2.77c0.84,0.43,1.45,0.74,2.39,1.21c-1.55,1.11-2.92,2.08-4.28,3.05    C392.57,436.2,386.33,435.37,380.68,438.93z"/>

<path d="M194.59,419.5c1.93,0.7,3.88,1.63,5.7,2.51c-0.13-0.93-0.31-2.28-0.5-3.63c0.21-0.12,0.42-0.23,0.62-0.35    c1.32,1.74,2.63,3.47,4.04,5.34c0.63-0.98,1.2-1.87,1.77-2.75c0.4,0.09,0.8,0.18,1.2,0.27c-0.32,1.6-0.67,3.2-0.95,4.81    c-0.3,1.73-0.53,3.46-0.92,6.06c-0.98-1.89-1.62-3.14-2.27-4.38c-0.02,0.36-0.04,0.72-0.07,1.08c-1.92-0.2-4.72,0.3-5.56-0.76    C195.94,425.54,192.03,423.69,194.59,419.5z"/>

<path d="M496.9,66.5c0.61,0.67,0.98,1.18,1.5,1.84c2.3,0.58,4.46,1.02,7.82,1.69c-3.15,1.3-5.37,2.22-7.91,3.28    c0.85,0.65,1.51,1.15,3.34,2.54c-3.65,1.06-6.31,1.83-9.22,2.68c-0.24,0.08-0.17,0.11-0.14,0.14c-0.63-2-1.29-4.03-2.03-6.3    c2.45-0.26,3.78-0.4,5.23-0.55c-0.78-2.51-1.42-4.57-2.34-7.57C494.99,65.35,495.83,65.85,496.9,66.5z"/>

<path d="M529.3,74.22c-4.4-2.33-0.46-5-0.01-7.66c0.37,0.9,0.75,1.81,1.22,2.96c1.03-1.64,1.93-3.06,3.46-5.49    c-0.19,2.13-0.28,3.09-0.47,5.18c1.61-2.14,2.6-3.45,4.04-5.37c-0.4,1.88-0.65,3.06-0.92,4.33c1.62-0.68,3.06-1.28,4.5-1.88    c0.13,0.3,0.25,0.59,0.38,0.89c-0.94,0.46-1.89,0.93-3.22,1.58c0.91,0.4,1.48,0.65,2.21,0.97c-2.06,0.38-3.93,0.73-6.71,1.25    c1.57,0.95,2.27,1.38,2.57,1.56c-1.98,0.38-4.29,0.83-6.87,1.5C529.21,74.27,529.27,74.24,529.3,74.22z"/>

<path d="M228.61,155.86c0.26,0.69,0.49,1.11,0.94,1.92c-3.1,0.06-6.22,0.66-7.45-2.48c-0.53-1.35,0.82-3.43,1.32-5.2    C227.4,150.69,228.34,152.85,228.61,155.86z"/>

<path d="M217.89,231.79c-0.56-1.26-0.9-2.3-1.32-3.52c1.22-0.88,2.21-1.6,3.51-2.54c1.52,1.41,2.89,2.68,4.32,4    C222.85,232.65,220.97,233.76,217.89,231.79z"/>

<path d="M282.44,87.15c-0.83-0.12-1.37-0.28-2.11-0.53c-0.15-1.61-0.1-3.13,0.31-4.63c2.35,0.74,4.33,1.45,6.31,2.17    C285.55,85.14,284.14,86.13,282.44,87.15z"/>

<path d="M287.2,84.09c-2.23-0.65-4.21-1.36-6.37-2.25c-0.09-0.99-0.01-1.82,0.08-2.7c1.99,0.47,3.38,0.8,5.07,1.16    c0.29,0.03,0.24-0.02,0.21-0.04c0.7,0.82,1.43,1.66,2.23,2.59C288.08,83.26,287.76,83.64,287.2,84.09z"/>

<path d="M293.61,57.24c0.83,0.27,1.45,0.39,2.26,0.49c0.78,0.07,1.36,0.17,1.94,0.27c0.13,0.31,0.26,0.62,0.4,0.93    c-1.89,1.09-3.78,2.17-6.32,3.63c0-2.65,0-4.34,0-6.32C292.41,56.54,292.9,56.81,293.61,57.24z"/>

<path d="M233.93,233.72c0.16-0.24,0.29-0.23,0.68-0.02c0.48,0.3,0.7,0.42,0.95,0.55c0.02,0.02,0.07,0.05,0.07,0.05    c0.66,1.16,1.32,2.32,2.15,3.66c0.17,0.19,0.13,0.21-0.07,0.27c-0.34,0.3-0.48,0.54-0.6,0.75c0.02-0.02,0.06-0.06,0.06-0.06    C236.08,237.26,234.99,235.61,233.93,233.72z"/>

<path d="M254.31,241.97c0.59-1.45,1.17-2.89,2.1-4.28c0.58,0.17,0.82,0.3,0.98,0.66c-0.37,0.62-0.66,1-0.93,1.4    c0.03,0.01,0.05,0.07-0.19,0.12c-0.85,0.77-1.47,1.49-2.06,2.19C254.25,242.02,254.31,241.97,254.31,241.97z"/>

<path d="M237.97,238.13c0.19,0.19,0.36,0.39,0.65,0.74c-0.4,0.29-0.91,0.41-1.44,0.29c-0.01-0.25-0.05-0.21,0.09-0.31    c0.31-0.3,0.48-0.49,0.64-0.69C237.91,238.16,237.95,238.14,237.97,238.13z"/>

<path d="M254.74,242.89c0,0-0.22-0.03-0.34-0.04c-0.12-0.15-0.14-0.3-0.12-0.66c0.03-0.22-0.03-0.16,0.08-0.04    C254.7,242.42,254.79,242.62,254.74,242.89z"/>

<path d="M239.44,417.15c3.73-3.61,7.47-7.31,11.61-10.49c1.08-0.83,4.23-0.78,4.94,0.09c1.52,1.86,1.4,4.48-1.26,5.8    c-1.87,0.92-4.01,2.08-5.94,1.94c-3.39-0.24-5.98,0.57-8.31,3.22C240.02,417.59,239.81,417.43,239.44,417.15z"/>

<path d="M235.71,233.54c0,0,0.34,0.02,0.51,0.05c0.01,0.19-0.15,0.35-0.45,0.59c-0.13,0.1-0.18,0.07-0.16-0.12    C235.63,233.88,235.71,233.54,235.71,233.54z"/>

<path d="M220.72,213.99c0.16,0.2,0.35,0.37,0.54,0.72c-0.01,0.19-0.18,0.17-0.27-0.06C220.84,214.27,220.78,214.13,220.72,213.99z    "/>

<path d="M258.05,237.41c0.03,0.25-0.14,0.49-0.52,0.78c-0.23-0.1-0.24-0.25-0.17-0.62C257.58,237.37,257.71,237.38,258.05,237.41z    "/>

<path d="M238.36,408.89c1.13-3.12,2.56-6.19,3.36-9.42c1.54-6.24,4.26-11.65,8.77-16.37c4.77-4.99,9.03-10.45,13.85-16.09    c0.26,1.05,0.77,1.89,0.54,2.34c-4.66,8.99-9.09,18.12-14.25,26.81c-2.78,4.68-6.83,8.61-10.36,12.83    c-0.21,0.25-0.9,0.09-1.6-0.02C238.43,408.82,238.39,408.87,238.36,408.89z"/>

<path d="M219.72,211.75c0.07-0.04,0.12-0.04,0.05,0.01C219.64,211.82,219.7,211.78,219.72,211.75z"/>

<path d="M220.79,213.86c-0.1,0.21-0.25,0.2-0.61,0.21C220.22,213.94,220.48,213.79,220.79,213.86z"/>

<path d="M256.46,239.74c0.03-0.04,0.1-0.07,0.1-0.02C256.51,239.81,256.49,239.75,256.46,239.74z"/>

</g>

</g>

</svg>