<?xml version="1.0" ?>

<!-- Uploaded to: SVG Repo, www.svgrepo.com, Generator: SVG Repo Mixer Tools -->
<svg width="800px" height="800px" viewBox="-52.05 0 684.34 684.34" id="Layer_1" version="1.1" xml:space="preserve" xmlns="http://www.w3.org/2000/svg" xmlns:xlink="http://www.w3.org/1999/xlink">

<style type="text/css">
	.st0{clip-path:url(#SVGID_2_);}
	.st1{clip-path:url(#SVGID_4_);}
	.st2{clip-path:url(#SVGID_6_);}
	.st3{clip-path:url(#SVGID_8_);}
	.st4{clip-path:url(#SVGID_10_);}
	.st5{clip-path:url(#SVGID_12_);}
	.st6{clip-path:url(#SVGID_14_);}
	.st7{clip-path:url(#SVGID_16_);}
	.st8{clip-path:url(#SVGID_18_);}
	.st9{clip-path:url(#SVGID_20_);}
	.st10{clip-path:url(#SVGID_22_);}
	.st11{clip-path:url(#SVGID_24_);}
	.st12{clip-path:url(#SVGID_26_);}
	.st13{clip-path:url(#SVGID_28_);}
	.st14{clip-path:url(#SVGID_30_);}
	.st15{clip-path:url(#SVGID_32_);}
	.st16{clip-path:url(#SVGID_34_);}
	.st17{clip-path:url(#SVGID_36_);}
	.st18{clip-path:url(#SVGID_38_);}
	.st19{clip-path:url(#SVGID_40_);}
</style>

<g>

<defs>

<rect height="635" id="SVGID_1_" width="559.28" x="10.48" y="24.67"/>

</defs>

<clipPath id="SVGID_2_">

<use style="overflow:visible;" xlink:href="#SVGID_1_"/>

</clipPath>

<path class="st0" d="M151.76,574.48c-3.09-3.24-6.64-6.21-9.17-9.79c-4.58-6.46-8.54-13.29-12.37-20.18   c8.99,8.45,12.93,20.27,22.82,28.07c0.32-0.18,0.64-0.35,0.97-0.53c-3.45-5.04-6.91-10.09-10.87-15.88   c2.19,0.97,3.65,1.62,5.29,2.35c-10.74-16.55-21.27-32.96-29.61-50.47c13.7,19.44,25.05,40.25,41.8,58.93c0-2.84,0-4.88,0-6.92   c0.13-0.01,0.27-0.02,0.4-0.03c0.13,0.87,0.25,1.75,0.39,2.72c0.65-0.2,1.19-0.36,2.33-0.7c-0.7,2.48-1.26,4.49-1.83,6.5   c0.23,0.2,0.46,0.39,0.69,0.59c1.52-0.99,3.04-1.97,4.66-3.02c-2.02-9.62-6.16-18.37-11.08-26.93c1.82,2.5,3.65,5.01,5.47,7.51   c0.34-0.17,0.69-0.34,1.03-0.51c-5.46-9.58-10.92-19.15-16.37-28.73c0.2-0.12,0.4-0.25,0.6-0.37c0.78,1.05,1.58,2.1,2.34,3.16   c0.84,1.17,1.65,2.37,2.7,3.91c2.46,3.53,4.69,6.7,6.91,9.87c0.27-0.14,0.54-0.29,0.81-0.43c-1.58-3.58-3.16-7.16-4.73-10.71   c-1.15,0.51-2.16,0.96-3.18,1.41c1.09-1.1,2.19-2.2,3.95-3.98c-2.64-3.32-5.08-6.84-8.02-9.98c-2.98-3.18-6.45-5.99-9.7-8.96   c0.2-0.2,0.39-0.41,0.59-0.61c4.95,3.86,9.89,7.72,15.06,11.75c-1.89-8.51-3.78-16.98-5.65-25.39c-10.35-3.15-20.6-2.26-30.76-2.16   c-0.01-0.33-0.03-0.65-0.04-0.98c9.59-0.39,19.17-0.79,29.19-1.2c-0.29-1.79-0.58-3.64-1-6.25c-1.62-1.46-3.66-3.31-5.71-5.16   c0.04-0.05,0.07-0.1,0.11-0.15c1.56,1.22,3.11,2.44,5.1,4.01c-2.28-11.19-4.46-21.92-6.7-32.92c-6.15-1.74-12.21-3.45-18.27-5.16   c0.05-0.24,0.11-0.47,0.16-0.71c5.65,1.12,11.29,2.24,17.28,3.43c-0.22-1.61-0.44-3.25-0.67-4.9c0.19-0.08,0.39-0.16,0.58-0.24   c0.81,1.85,1.62,3.7,2.39,5.44c7.63,2.8,15.26,5.61,23.11,8.5c-0.18-0.96-0.41-2.12-0.58-3.02c2.03-9.36,4.03-18.61,6.04-27.86   c0.44,0.06,0.88,0.11,1.32,0.17c-0.6,11.69-1.19,23.37-1.79,34.97c4.5,3.54,8.87,6.98,12.65,9.96c0.28-3.97,0.67-9.32,1.03-14.67   c0.03-0.42,0.01-0.93-0.21-1.27c-4.11-6.32-3.87-13.49-4.94-20.41c-0.27-1.73-1.2-3.48-2.24-4.99   c-12.95-18.66-31.09-32.54-50.49-45.23c-0.96-0.63-1.89-1.31-2.81-1.99c-0.27-0.2-0.45-0.49-0.35-1.36   c3.03,1.35,6.11,2.62,9.08,4.08c3.23,1.59,6.4,3.29,9.53,5.06c3.02,1.71,5.99,3.51,8.91,5.37c2.9,1.85,5.71,3.82,9.37,6.28   c-1.22-2.99-2.17-5.22-3.05-7.47c-3.13-8.01-6.28-16.02-9.32-24.06c-0.82-2.16-2.21-3.47-4.52-4.53   c-10.47-4.79-20.82-9.83-31.2-14.8c-0.92-0.44-1.74-1.03-2.43-1.95c11.17,1.81,21.04,6.88,32.04,10.84   c-4.66-8.84-9.06-17.19-13.47-25.55c0.32-0.16,0.64-0.32,0.97-0.48c1.35,1.93,2.83,3.8,4.03,5.81c4.03,6.72,7.94,13.51,11.98,20.23   c0.59,0.98,1.41,2.14,2.45,2.57c9.66,4.04,19.39,7.95,29.7,12.13c-0.88-1.24-1.57-2.21-2.26-3.18c0.15-0.03,0.3-0.06,0.46-0.09   c-3.49-10.74-6.98-21.47-10.47-32.21c0.51-0.17,1.02-0.34,1.53-0.51c3.49,7.48,6.98,14.96,10.47,22.45   c1.71-7.27,0.42-14.33-1.48-22.61c-5.89-3.56-12.57-8.08-19.73-11.83c-16.07-8.43-33.18-14.6-51.17-18.79   c-15.29-3.56-30.79-4.73-46.47-3.98c-13.36,0.64-26.71,1.57-40.06,2.35c-1.47,0.09-2.95,0.01-4.43,0.01   c-0.06-0.4-0.11-0.79-0.17-1.19c9.84-1.5,19.63-3.37,29.53-4.39c9.82-1.01,19.74-1.16,30.7-1.75c-9.91-1.37-18.85-2.61-27.78-3.85   c0.12-0.49,0.23-0.99,0.35-1.48c38.89-0.94,75.29,7.42,110.06,25.46c-1.08-1.42-1.66-2.14-2.17-2.89   c-0.53-0.77-0.98-1.58-1.47-2.37c0.25-0.17,0.5-0.35,0.76-0.52c2.75,3.13,5.49,6.25,8.7,9.91c0.46-1.56,0.68-2.29,0.99-3.33   c3.68,2.45,7.13,4.74,10.57,7.03c-16.84-17.06-37.59-29.65-57.96-42.77c12.39,3.8,23.07,10.39,33.68,17.04   c10.62,6.65,20.81,13.78,27.58,24.22c0.34-0.27,0.68-0.53,1.02-0.8c-2.31-2.97-4.62-5.94-7.16-9.22c1.1-0.07,1.72-0.1,3.02-0.18   c-5.64-9.81-11.15-19.39-16.66-28.97c7.55,5.51,12.07,13.31,18.08,20.49c0.15-1.14,0.22-1.75,0.29-2.28   c0.22-0.13,0.31-0.18,0.41-0.23c1.32,3.57,2.63,7.14,4.19,11.36c1.02-1.92,1.53-3.01,2.2-4.02c0.08-0.12,0.95,0.19,1.6,0.32   c0.65-4.63,1.54-9.29,1.87-13.97c0.16-2.22-0.26-4.71-1.26-6.72c-3.93-7.92-8.2-15.69-12.35-23.52c0.34-0.21,0.68-0.43,1.01-0.64   c2.62,2.94,5.25,5.87,7.87,8.81c0.09-0.1,0.18-0.21,0.27-0.31c1.79,1.23,3.58,2.46,5.34,3.68c0.22-0.84,0.47-1.77,0.78-2.95   c-16.72-18.66-40.16-20.7-64.16-21.35c2.14-1.49,11.67-2.56,18.71-1.73c6.3,0.74,12.55,1.9,18.93,2.89   c-4.35-4.43-9.06-8.63-12.99-13.36c-7.69-9.23-19.62-9.37-30.2-11.47c-15.71-3.12-31.8-4.6-47.73-6.78   c-0.55-0.07-1.09-0.16-1.58-0.62c24.26-2.33,48.12-1.22,71.14,7.38c0.26-0.3,0.52-0.6,0.78-0.9   c-11.44-14.61-22.88-29.22-33.95-43.36c4.82,1.49,14.33,10.79,43.73,43.25c18.17,3.53,35.17,10.11,51.67,17.9   c0.24-0.26,0.49-0.52,0.73-0.78c-1.55-1.51-2.9-3.26-4.67-4.5c-8.57-5.98-17.27-11.8-25.9-17.71c-1.48-1.01-2.85-2.14-3.96-3.6   c15.95,7.52,31.91,14.96,44.49,27.16c0.39-0.38,0.77-0.76,1.16-1.15c-3.34-3.46-6.67-6.92-10.01-10.37c0.05-0.1,0.1-0.21,0.15-0.32   c1.8,1.09,3.6,2.19,5.49,3.34c-0.36-2.55-0.7-4.71-0.96-6.87c-0.39-3.29-2.03-5.73-4.99-7.78c-16.34-11.32-34.52-19.59-53.18-27.11   c-6.39-2.57-12.69-5.33-19-8.05c-1.14-0.49-2.15-1.22-3-2.24c18.79,5.58,37.37,11.54,54.48,20.78c0.2-0.25,0.39-0.51,0.59-0.76   c-4.82-3.44-9.53-7.02-14.49-10.29c-5.09-3.36-10.32-6.56-15.67-9.55c-5.34-2.99-10.81-5.83-16.42-8.39   c-5.55-2.54-11.33-4.64-16.81-7.29c31.75,3.76,56.62,20.04,81.49,37.09c-1.45-3.2-2.91-6.39-4.36-9.59   c-11.93-14.08-28.1-23.87-43.77-34.31c14.16,4.04,26.27,11.49,38.13,19.38c0.33-0.12,0.66-0.24,1-0.35   c-4.11-11.62-8.21-23.23-12.32-34.85c0.19-0.1,0.38-0.19,0.57-0.29c1.96,3.15,4.22,6.17,5.83,9.46   c5.44,11.1,10.56,22.34,16.01,33.43c0.89,1.82,2.87,3.2,4.34,4.78c0.31-0.17,0.62-0.33,0.93-0.5c-1.6-4.95-3.2-9.91-4.8-14.86   c0.32-0.1,0.64-0.2,0.95-0.3c1.92,5.04,4.15,10,5.66,15.14c1.36,4.63,2.7,8.9,8.31,10.74c1.37,0.45,2.43,1.65,4.01,2.54   c0.37,0.03,0.61,0.03,0.61,0.03c1.09,1.18,2.19,2.37,3.28,3.55c0.09-0.07,0.18-0.15,0.27-0.22c2.31,2.58,4.52,5.24,6.94,7.72   c8.65,8.84,15.98,18.52,22.32,28.86c5.19,8.45,7.53,17.66,9.48,27.02c0.28,1.36,0.58,2.72,1.62,4.12c0.06-0.94,0.23-1.88,0.16-2.81   c-1.04-13.83-2.47-27.65-3.09-41.5c-1.09-24.25-13.06-44.14-29.42-62.23c-11.16-12.34-25.68-21.11-40.25-29.72   c-2.57-1.52-5.13-3.06-7.46-4.93c18.01,6.45,33.93,16.05,49.28,26.94c-1.69-2.32-3.38-4.65-5.19-7.14   c4.92,2.85,16.55,18.99,23.46,32.73c6,11.94,9.84,24.46,11.72,37.55c-0.32-3.92-0.52-7.86-0.99-11.76   c-1.34-11.08-2.23-22.24-4.42-33.17c-1.32-6.58-4.12-13.09-7.38-19.12c-3.96-7.34-8.69-14.42-13.88-21.1   c-4.18-5.36-10.12-9.23-17.1-11.47c-2.09-0.67-4.2-1.31-6.29-1.96c0.07-0.27,0.14-0.54,0.21-0.82c2.38,0.4,4.75,0.8,8.06,1.35   c-7.49-5.94-14.38-11.41-21.27-16.88c0.24-0.3,0.48-0.6,0.72-0.91c6,3.68,12,7.37,18,11.05c0.13-0.11,0.26-0.23,0.39-0.34   c-5.22-6.12-10.44-12.23-15.91-18.65c9.36,1.39,31.95,23.58,31.94,30.61c7.97,8.07,15.78,15.97,23.16,23.44   c-0.27-6.89-5.82-12.66-8.5-19.6c1.65,1.8,3.3,3.59,5.58,6.09c-2.3-7.09-5.19-12.94-9.52-18.1c-4.26-5.07-8.82-9.92-13.25-14.87   c-0.08-0.08-0.14-0.2-0.24-0.24c-4.95-1.71-7.95-5.7-11.97-8.46c-8.87-6.08-18.12-11.69-27.21-17.51c-0.24-0.15-0.33-0.5-0.03-1.51   c9.35,4.48,18.69,8.96,28.25,13.54c-0.88-1.23-1.77-2.49-2.66-3.74c12.1,8.35,22.43,18.22,31.46,29.66   c-0.38-2.22-0.72-4.45-1.15-6.67c-0.43-2.23-0.94-4.45-1.44-6.67c-0.16-0.74-0.35-1.48-0.6-2.2c-1.51-4.32-2.61-8.43-7-11.81   c-5.15-3.96-8.8-9.56-13.08-14.46c-0.35-0.41-0.52-0.95-1.26-2.36c2.37,1.31,3.94,2.19,5.51,3.06c0.22-0.17,0.44-0.34,0.66-0.51   c-4.14-5.91-8.29-11.83-12.43-17.74c0.22-0.18,0.44-0.35,0.66-0.53c2.4,2.37,4.91,4.66,7.19,7.13c2.28,2.47,4.38,5.08,6.5,7.68   c2.17,2.66,4.26,5.37,6.38,8.05c0.25-0.14,0.51-0.29,0.76-0.43c-2.48-3.76-4.96-7.52-7.44-11.27c5.94,3.98,9.77,9.34,11.48,15.6   c3.43,12.53,6.31,25.18,9.45,37.78c0.19,0.76,0.59,1.47,0.9,2.21c0.35-0.05,0.7-0.1,1.06-0.15c-0.52-4.22-0.92-8.45-1.58-12.65   c-1.5-9.4-3.12-18.79-4.72-28.17c-0.14-0.82-0.29-1.85-0.88-2.37c-5.18-4.59-6.03-11.11-9-16.67c-0.86-1.6-1.44-3.33-1.51-5.33   c2.18,3.05,4.35,6.11,6.63,9.31c0.51-1.55,0.93-2.82,1.4-4.23c0.99,0.19,1.73,0.33,2.98,0.58c0-7.6,0-15.01,0-22.41   c0.33-0.03,0.66-0.06,0.99-0.09c0.42,1.99,1.08,3.96,1.22,5.97c0.66,9.49,1.28,18.99,1.66,28.49c0.07,1.83-1.02,3.71-2.38,5.46   c1.85,9.34,4.01,18.64,5.46,28.03c1.7,11.03,2.8,22.14,4.13,33.21c0.79,6.56,1.11,13.2,2.46,19.65c0.78,3.69,3.21,7.1,5.03,10.9   c3.91-16.51,7.78-32.85,12.08-50.97c-0.63-2.37-1.76-6.66-2.89-10.94c0.11-0.06,0.23-0.12,0.34-0.17c1.13,2.19,2.25,4.38,3.68,7.16   c7.79-19.9,18.36-37.94,35.03-52.53c-11.82,14.71-21.32,30.57-28.29,47.65c-6.94,17-12.35,34.36-14.67,52.69   c6.13-6.08,12.01-11.91,18.52-18.38c0.2-1.15,0.56-3.26,0.92-5.37c0.15,0.01,0.3,0.01,0.45,0.02c0,1.59,0,3.19,0,4.78   c0.26,0.15,0.53,0.3,0.79,0.44c1.6-1.54,3.19-3.08,4.79-4.61c0.02,0,0.04,0,0.06,0c1.48-1.54,2.96-3.09,4.58-4.78   c0.66,0.18,1.39,0.39,1.82,0.51c17.41-16.91,38.25-27.6,63.48-31c-36.58,12.59-66.02,32.19-80.01,67.13   c1.31-1.43,2.6-2.88,3.94-4.28c1.31-1.38,2.68-2.71,4.21-3.98c-4.01,6.52-9.13,12.54-10.47,20.41c3.1-3.08,6.2-6.16,9.3-9.24   c0.34,0.21,0.68,0.42,1.02,0.63c0,1.39,0,2.79,0,4.54c4.77-4.81,9.45-9.47,14.06-14.18c10.98-11.21,23.22-21.03,37.73-28.32   c2.42-1.21,5.06-2.05,7.84-2.68c-14.01,9-26.46,19.39-36.94,31.39c9.01-2.42,18.15-4.88,27.28-7.34c1.96-3.02,3.92-6.05,5.88-9.08   c0.29,0.12,0.58,0.23,0.87,0.35c-0.98,2.67-1.95,5.33-3.01,8.22c0.45,0.18,0.93,0.39,1.64,0.68c-0.92,0.71-1.77,1.37-2.76,2.14   c-2.93,8.68-8.13,16.88-8.62,26.48c2.85-1.91,5.58-3.75,8.32-5.58c0.32,0.21,0.63,0.42,0.95,0.62   c-8.85,6.12-11.37,15.46-15.27,24.25c3.89-3.25,7.77-6.5,11.66-9.76c0.23,0.19,0.47,0.39,0.7,0.58c-2.51,2.78-4.65,5.96-7.63,8.22   c-4.04,3.07-5.04,7.23-6.6,11.13c5.19-2.94,10.76-5.52,15.54-8.99c3.62-2.63,6.41-6.28,9.28-9.68c7.49-8.85,15.51-17.24,24.97-24.4   c0.87-0.66,1.89-1.15,2.84-1.72c0.25,0.2,0.49,0.41,0.74,0.61c-8.24,10.63-16.47,21.26-25.08,32.37   c16.18-1.11,30.94,0.71,44.81,6.77c-0.06,0.31-0.13,0.61-0.19,0.92c-4.16-0.78-8.3-1.71-12.5-2.31   c-11.42-1.61-22.88-2.07-34.35-0.45c-1.09,0.15-2.46,0.57-3.07,1.3c-4.28,5.13-8.4,10.37-12.93,16.03   c9.01-1.48,17.4-2.32,25.88,0.22c-1.14,0.14-2.28,0.28-3.42,0.42c-5.98,0.7-12,1.25-17.94,2.15c-4.59,0.7-8.29,2.86-10.61,6.72   c-2.76,4.59-5.59,9.15-8.48,13.87c8.33-1.1,15.87-2.09,23.42-3.08c0.06,0.3,0.13,0.6,0.19,0.89c-8.08,2.06-16.16,4.13-24.45,6.24   c0,3.86,0,6.91,0,9.96c0.13-0.02,0.27-0.03,0.4-0.05c-0.56,3.75-1.13,7.5-1.67,11.15c5.09-2.82,10.32-5.71,15.93-8.82   c-0.98-3.09-2.01-6.34-3.04-9.58c0.17-0.05,0.33-0.1,0.5-0.15c1.27,3.08,2.54,6.15,4.14,10.02c3.21-2.55,6.56-4.43,8.77-7.1   c6.79-8.19,13.13-16.7,19.7-25.05c0.69-0.87,1.71-1.52,2.58-2.27c0.33,0.21,0.66,0.42,1,0.63c-4.95,8.66-9.9,17.32-14.76,25.84   c18.34-1.06,35.33,3.21,50.99,12.24c-18.27-5.23-36.68-8.54-56.16-5.08c-2.12,5.67-4.17,11.12-6.35,16.93   c5.94-4.07,11.47-7.86,17.01-11.65c0.07,0.14,0.14,0.27,0.22,0.41c-5.26,4.7-10.63,9.31-15.72,14.16c-1.49,1.42-2.61,3.4-3.22,5.3   c-3.64,11.45-7.14,22.94-10.53,34.45c-0.7,2.39-0.78,4.93-1.26,8.16c4.76-6.74,9.04-12.82,13.33-18.9c-4,14-11.62,26.4-20.68,38.18   c0.41,0.25,0.83,0.49,1.24,0.74c2.97-1.72,5.95-3.43,8.92-5.15c0.26,0.21,0.53,0.42,0.79,0.62c-10.3,5.57-11.69,15.95-17.51,24.98   c7.8-2.85,14.79-4.64,22.62-2.04c1.98-2.19,4.01-4.44,6.42-7.1c0-13.79,0-28.38,0-42.97c0.38-0.02,0.76-0.04,1.14-0.05   c0.5,9.86,1.01,19.72,1.51,29.58c0.23,0.01,0.45,0.02,0.68,0.03c1.31-2.62,2.62-5.24,3.93-7.86c-1.27,6.67-6.33,12.63-3.85,19.98   c3.82-1.62,7.69-3.4,11.69-4.92c11.68-4.43,23.88-6.89,36.47-7.9c1.41-0.11,2.95-0.8,4.09-1.62c3.74-2.67,7.15-5.74,10.99-8.26   c6.05-3.97,12.53-7.42,18.52-11.45c10.98-7.39,21.73-15.06,32.62-22.56c1.73-1.19,3.73-2.03,5.61-3.04   c0.19,0.26,0.38,0.52,0.57,0.77c-10.34,8.16-20.69,16.31-30.94,24.39c7.04,0.42,14.01,0.44,20.85,1.33   c15.32,1.99,29.31,7.48,42.66,14.45c26.49,13.83,45.64,33.75,58.54,58.82c1.39,2.7,2.33,5.59,3.47,8.4   c-0.26,0.12-0.53,0.24-0.79,0.36c-0.64-1.01-1.29-2.01-1.9-3.03c-18.02-30.13-44.17-52.21-78.8-65.72   c-13.2-5.15-27.1-7.76-41.55-7.69c-11.91,0.06-20.33,6.09-28.95,13.7c24.52,1.23,47.29,5.65,67.74,17.38   c-7.38-2.17-14.72-4.49-22.16-6.46c-14.75-3.91-29.8-6.12-45.2-6.17c-5.74-0.02-10.77,1.14-15.1,5.12   c-14.99,13.8-28.85,28.41-40.16,44.93c-0.67,0.97-1.07,2.1-1.2,3.61c16.22-19.28,37.93-29.9,63.65-34.2   c-4.89,1.7-9.77,3.43-14.68,5.1c-20.58,7.01-36.29,19.31-47.49,36.44c-1.33,2.03-1.73,4.57-2.46,6.59   c1.16,4.19,2.24,8.1,3.35,12.13c0.35,2.97,1.09,6.17,1.01,9.36c-0.08,3.42-0.91,6.82-1.42,10.23c-0.29-0.04-0.58-0.08-0.88-0.12   c1.27,10.7,2.54,21.41,3.86,32.49c5.72-6.55,11.15-12.77,16.58-18.98c0.25,0.15,0.51,0.31,0.76,0.46   c-0.34,0.52-0.64,1.07-1.02,1.56c-5.16,6.72-10.48,13.34-15.38,20.21c-1.07,1.5-0.65,3.88-0.92,5.85c0.28,0.13,0.57,0.26,0.85,0.39   c1.34-1.32,2.69-2.63,4.03-3.95c-3.03,5.78-7.41,11.18-4.15,18.03c8.67-10.83,15.79-22.96,26.75-32.43   c-3.9,4.86-7.51,9.95-11.77,14.53c-5.59,6.03-5.07,12.94-4.54,19.98c0.08,1.07,0.28,2.14,0.47,3.55   c5.45-4.45,10.72-8.74,16.67-13.6c2.89-10.36,5.96-21.39,9.05-32.43c0.26-0.92,0.63-1.8,1.51-2.58   c-2.38,10.72-4.76,21.45-7.31,32.95c17.65-11.84,35.72-21.44,56.99-24.75c-2.9,0.77-5.84,1.44-8.69,2.34   c-2.91,0.92-5.74,2.03-8.59,3.11c-13.68,5.21-26.18,12.22-37.55,20.86c-1.66,1.26-2.98,3.4-3.46,5.33   c-1.53,6.23-1.85,12.69-4.67,18.67c-0.62,1.31-0.58,2.88-0.89,4.6c1.35-0.96,2.44-1.74,3.53-2.51c0.38,0.1,0.75,0.19,1.13,0.29   c-7.46,7.28-6.44,15.94-5.53,24.81c1.1-1.14,2.2-2.28,3.56-3.69c-0.25,2.55-0.47,4.85-0.7,7.15c0.32,0.18,0.64,0.36,0.96,0.54   c4.65-5.97,9.31-11.94,13.69-17.56c0-1.77,0-3.1,0-5.4c1.33,1.64,2.04,2.51,2.9,3.56c3.72-3.98,7.4-7.92,11.08-11.86   c0.17,0.13,0.34,0.25,0.51,0.38c-3.49,4.4-6.98,8.8-10.36,13.05c0.62,1.54,1.05,2.63,1.51,3.79c0.75-0.18,1.41-0.35,1.8-0.44   c1.34,2.96,2.63,5.84,4,8.86c7.13-7.76,14.69-15.14,23.88-20.92c0.21,0.19,0.42,0.38,0.63,0.58c-5.09,4.57-10.39,8.97-15.21,13.77   c-4.76,4.73-9.2,9.79-9.5,16.93c7.34-8.1,14.59-16.1,21.84-24.11c0.34,0.22,0.68,0.45,1.02,0.67   c-14.19,15.44-26.44,32.04-36.94,49.66c0.26,0.18,0.53,0.35,0.79,0.53c1.47-1.68,2.99-3.33,4.41-5.05c1.5-1.81,2.97-3.64,4.34-5.54   c1.36-1.88,2.57-3.85,4.06-6.09c0.23,0.73,0.38,1.2,0.65,2.08c13.65-18.4,28.87-35.18,48.32-48.4   c-13.39,11.31-26.28,22.98-34.14,38.73c2.5-1.18,5-2.35,6.37-3c-6.22,6.39-13.24,13.62-20.27,20.85c0.28,0.25,0.56,0.49,0.84,0.74   c10.86-5.66,20.67-13.32,33.65-15c-10.94,3.07-19.72,9.67-29.27,15.14c1.54-0.49,3.07-0.99,4.61-1.48   c0.07,0.16,0.15,0.32,0.22,0.49c-5.68,4.94-11.37,9.88-17.05,14.82c0.45,0.49,0.89,0.99,1.34,1.48   c24.87-16.32,51.71-28.34,82.49-31.73c-25.77,4.41-49.17,13.66-70.52,27.83c2.6,1.73,4.67,3.11,6.73,4.48   c-0.11,0.22-0.22,0.44-0.34,0.66c-2.63-0.92-5.27-1.83-8.31-2.89c-1.75,1.46-3.75,3.13-5.6,4.67c0,2.23,0,4.22,0,6.21   c0.28,0.07,0.57,0.13,0.85,0.2c0.48-1.38,0.97-2.77,1.48-4.24c0.3,0.76,0.59,1.51,0.99,2.51c2.07-1.08,3.88-2.05,5.73-2.97   c1.76-0.88,3.55-1.7,5.67-2.14c-4.7,2.98-9.4,5.97-14.68,9.33c3.97,0.65,7.27,1.2,10.57,1.74c0.01,0.15,0.01,0.3,0.02,0.45   c-3.42,0.15-6.84,0.29-9.55,0.41c-10.76,9.56-24.84,11.03-37.64,15.47c-4.15-1.59-17.81,0.77-21.22,3.11   c-5.24,0.59-9.02,1.01-13.38,1.5c0.06,0.09-0.39-0.63-0.98-1.58c-0.18,0.2-0.37,0.64-0.63,0.68c-2.67,0.42-5.35,0.8-8.03,1.15   c-7.64,0.98-15.27,1.96-22.92,2.89c-1.87,0.23-3.78,0.27-5.67,0.38c-6.85,0.4-13.69,1.06-20.54,1.13   c-7.56,0.08-15.13-0.4-22.69-0.62c-7.56-0.21-15.13-0.49-22.69-0.58c-8.54-0.1-17.08-0.02-25.62-0.02   c0.01-0.29,0.01-0.58,0.02-0.87c-1.66,1-3.32,2-4.56,2.75c-6.1-3.11-12.24-1.43-17.91-2.62c-3.27-0.71-6.53-1.42-9.75-2.12   c-0.64,0.94-1,1.46-1.69,2.48c-5.44-7.96-14.46-7.63-21.54-8.65c-5.43-2.58-9.77-4.64-13.96-6.63c-1.57,0.39-2.79,0.7-3.7,0.92   c0.79-2.23,1.57-4.47,2.5-6.85c0.14-0.15,0.12-0.23,0.12-0.23c-0.64-0.33-1.29-0.65-1.87-1.26c0.06-0.28,0.22-0.41,0.22-0.41   c-2.96-2.2-6.18-3.79-8.45-7.1c-3.19-4.66-7.53-8.94-12.26-12.36c-6.44-4.65-13.71-8.33-19.63-11.84   c12.34,4.45,24.39,11.25,33.88,21.32c4.41,0.45,5.12,4.55,8.56,6.92c-3.86-6.96-7.39-13.32-10.7-19.9   c3.04,3.73,5.83,7.68,8.71,11.58c0.38,0.52,1.22,0.75,1.85,1.12c-2.09-5.93-5.46-10.66-10.84-14.01   c-7.31-5.82-14.62-11.64-21.93-17.46c0.18-0.22,0.37-0.43,0.55-0.65c8.91,6.28,17.82,12.57,26.73,18.85c0.2-0.1,0.4-0.2,0.6-0.3   c-5.73-7.69-11.46-15.39-17.19-23.08c0.22-0.16,0.44-0.32,0.66-0.47c3.95,4.57,7.92,9.13,11.85,13.71   c3.96,4.62,7.88,9.27,12.52,13.46c-3.83-8.03-8.55-15.53-14.55-22.31c-6.02-6.81-12.19-13.51-18.2-20.35   c4.79,4.24,9.58,8.48,14.37,12.72c-13.32-20.72-33.5-34.8-55.17-47.45c30.05,12.73,50.69,34.87,69.22,59.11   c0.32-0.24,0.63-0.48,0.95-0.72c1.49-0.97,2.97-1.94,4.56-2.81c-1.04,1.28-2.19,2.46-3.48,3.78c5.74,6.51,11.29,12.81,17.4,19.75   c-0.59-1.82-0.75-3.02-1.34-3.99C159.93,587.69,155.83,581.09,151.76,574.48z M237.78,377.88c-1.82-2.37-3.63-4.74-5.45-7.11   c-0.35,0.23-0.69,0.46-1.04,0.69c1.24,1.88,2.49,3.76,3.17,5.75c0.23,2.3,0.47,4.59,0.7,6.92c1.35-0.42,1.89-0.59,2.03-0.23   c0.35,5.22,0.67,10.45,1.08,15.67c0.04,0.56,0.44,1.24,0.91,1.61c2.4,1.89,4.87,3.71,7.87,5.96c-0.94-2.29-1.7-3.85-2.21-5.47   c-1.62-5.24-3.05-10.52-4.78-15.73c-0.32-0.97-1.7-1.65-2.63-2.89C237.46,381.47,237.47,379.88,237.78,377.88z M195.7,545.69   c-0.27,1.02-0.54,2.04-0.93,3.51c1.81,0.99,3.54,1.93,5.28,2.88c0.28-0.26,0.57-0.52,0.85-0.78c-0.87-2.38-1.73-4.77-2.66-7.31   c-1.11,0.32-1.88,0.54-2.31,0.28c0.52-0.8,1.05-1.61,1.68-2.58c-0.49-1.32-1.04-2.82-1.91-5.19c-1.86,2.69-3.2,4.63-4.5,6.51   c0.64,1.23,1.14,2.16,1.64,3.11C193.94,545.74,194.8,545.45,195.7,545.69z M338.72,528.68c-2.63,6.42-6.82,12.52-5.59,19.74   c0.45,0.09,0.91,0.18,1.36,0.27c1.38-6.84,2.76-13.67,4.7-20.17c0.21,2.1,0.42,4.2,0.63,6.3c0.33-0.02,0.66-0.05,1-0.07   c0.59-3.43,2.66-6.77,0.73-10.63C340.45,525.65,339.54,526.92,338.72,528.68z M302.26,511.97c-1.56,5.2-3.12,10.41-4.68,15.61   c0.39,0.13,0.78,0.26,1.17,0.39c1.41-2.76,3.32-5.41,4.08-8.31c0.65-2.48-0.02-5.24,0.31-8.15c0.56-2.85,1.11-5.7,1.67-8.55   c-0.45-0.04-0.9-0.08-1.35-0.12C303.25,505.84,303.02,508.85,302.26,511.97z M188.9,534.55c1.14,1.36,2.29,2.71,3.5,4.15   c0.91-1.01,1.72-1.91,2.53-2.81c0.31-0.14,0.61-0.27,0.92-0.41c-2.36-4.81-4.72-9.62-7.57-14.45c-1.18-1.29-2.35-2.58-4.1-4.5   c0.95,3.26,1.67,5.73,2.35,8.04c0.77-1.21,1.5-2.37,1.95-2.98c-0.25,3.84-0.5,7.68-1.28,11.8c0,3.07,0,6.13,0,9.53   c2.55-0.93,3.63-2.13,2.85-4.28C189.54,537.21,188.99,535.81,188.9,534.55z M322.41,504.09c1.6-2.35,3.21-4.7,5.07-7.42   c2.69-7.8,2.32-16.19,4.11-24.24c-1.38,1.21-2.57,2.44-3.38,3.85c-3.73,6.45-7.62,12.83-10.91,19.46   c-1.86,3.76-2.75,7.95-3.89,11.99c-0.34,1.21-0.05,2.58-0.05,4.03c3.04-2.44,5.49-4.41,7.89-5.87c-1.93,3.11-3.86,6.21-5.74,9.24   c-0.23-0.13-0.76-0.44-2.31-1.34c0,6.04,0.03,11.3-0.01,16.56c-0.04,5.19-3.14,10.13-2.01,16.2c2.08-6.24,3.87-11.71,5.72-17.16   c1.84-5.42,3.91-10.8,2.93-16.61c0.92-1.63,2.04-3.19,2.68-4.9C322.87,506.9,322.44,505.68,322.41,504.09z M183.69,460.64   c6.51,8.28,13.03,16.57,19.55,24.87c0.24-0.17,0.74-0.53,1.46-1.04c-0.2,0.94-0.36,1.63-0.41,1.87c2.95,3.53,5.62,6.72,8.48,10.15   c-0.3-1.4-0.47-2.56-0.81-3.68c-2.58-8.64-5.2-17.18-12.74-23.71c-3.04-2.63-5.17-6.14-7.64-9.3c-2.36-3.04-4.61-6.14-7.41-9.9   c-0.4,4.14-0.71,7.36-1.08,11.2c-0.88,4.15-0.51,7.95,2.53,11.52c3.03,3.57,4.94,7.97,10.1,9.95c-3.21-6.42-6.89-12.6-10.56-18.78   C184.5,462.68,183.83,461.57,183.69,460.64z M286.77,257.89c0.62,1.45,1.25,2.91,1.81,4.23c3.12-4.78,6.95-9.31,9.23-14.41   c5.01-11.24,12.1-21.12,20.55-30.23c0.39-0.83,0.78-1.66,1.04-3.07c0-4.82,0-9.63,0-13.97c0.91,1.84,2.12,4.3,3.33,6.77   c0.27-0.06,0.53-0.12,0.8-0.17c-0.82-5.94-1.65-11.88-2.47-17.83c0.25-0.04,0.51-0.08,0.76-0.13c1.34,4.53,2.68,9.06,4.27,14.46   c2.15-7.48,4.07-14.14,5.99-20.8c-0.04-0.01-0.09-0.03-0.13-0.04c1.14-3.55,2.29-7.09,3.7-11.46c1.08,3.8,1.88,6.59,2.79,9.8   c2.45-5.35,4.67-10.22,7.14-15.63c-11.74,3.13-22.13,7.2-31.79,13.09c-9.54,5.81-14.2,14.29-17.62,23.69   c-0.49,1.34-0.81,2.72-1.39,4.71c2.12-1.56,3.63-2.67,4.4-3.23c-2.42,5.74-5.11,12.11-7.79,18.48c0.38,0.15,0.76,0.3,1.15,0.46   c1.94-2.42,3.79-4.92,5.86-7.25c1.98-2.22,4.19-4.27,6.3-6.39c0.08,0.14,0.16,0.27,0.24,0.41c-4.73,9.46-9.46,18.92-14.19,28.39   c0.31,0.15,0.61,0.3,0.92,0.46c6.67-10.88,15.68-19.92,26.51-28.34c0.52,1.93,0.94,3.53,0.8,4.78c-0.36-0.83-0.73-1.66-1.2-2.73   c-0.84,0.6-1.64,1.05-2.27,1.64c-9.74,9.09-18.03,19.24-24.62,30.38c-2.42,4.09-2.94,9.1-4.94,13.51   c-0.72,0.72-1.62,1.34-2.14,2.17c-5.68,8.99-8.12,18.74-8.4,29.07c-0.1,3.78-0.97,7.53-1.49,11.3c1.74-3.51,2.73-7.15,3.95-10.72   c1.23-3.6,2.64-7.15,4.08-10.68c2.61-6.41,5.07-12.84,4.01-19.87C285.93,258.37,286.3,257.96,286.77,257.89z M279.86,370.81   c-0.62,6.23-1.23,12.47-1.85,18.7c0.15,0,0.3,0.01,0.45,0.01c1.95-8.4,3.9-16.8,5.83-25.12c-0.3,0.15-0.71,0.36-1.05,0.07   c3.12-4.32,6.23-8.64,9.19-12.75c0-4.98,0.11-9.66-0.03-14.34c-0.15-4.76-0.56-9.52-0.87-14.57   c-10.71,11.98-16.46,34.21-12.84,48.69C279.07,371.1,279.48,370.64,279.86,370.81z M198.25,283.5   c9.79,14.99,16.88,30.92,20.91,48.03c1.71,7.25,4.2,14.35,6.34,21.51c0.36-0.06,0.73-0.13,1.09-0.19c0-16.16,0-32.32,0-46.75   c-10.04-12.49-20.44-22.38-31.95-31.27c-0.33,0.19-0.66,0.39-1,0.58c1.42,2.67,2.85,5.34,3.81,8.12c-2.12-0.62-1.99,0.58-1.41,1.65   c2.86,5.36,5.82,10.68,8.75,16.02c-1.43-4.68-3.61-9.02-5.64-13.42C198.51,286.36,198.25,284.8,198.25,283.5z M212.68,525.68   c-1.9,1.72-3.81,3.43-5.85,5.27c0.89,1.78,1.74,3.49,2.82,5.64c1.79-3.01,3.54-5.54,4.8-8.27c0.48-1.03,1.89-3.53-1.79-3.39   c0.11-1.19,0.6-2.48,0.26-3.54c-0.81-2.53-2.01-4.95-3.05-7.42c0.12-0.06,0.24-0.12,0.36-0.18c0.7,0.77,1.4,1.55,2.1,2.32   c-4.03-8.26-6.09-17.22-13.03-24.35c-5.54-5.68-9.7-12.48-14.45-18.8c-0.8-1.06-1.5-2.19-2.65-3.88   c-1.01,9.16-1.92,17.43-2.88,26.14c4.96,5.4,10.14,11.04,15.33,16.68c0.22-0.15,0.43-0.3,0.65-0.45   c-1.65-5.98-3.3-11.96-4.95-17.95c0.32-0.1,0.64-0.19,0.96-0.29c5.22,11.78,10.45,23.56,15.73,35.47   C209.13,527.45,210.98,526.35,212.68,525.68z M222.25,466.83c0.84,3.59,1.5,7.22,2.57,10.75c1.03,3.4,2.5,6.69,3.77,10.02   c0.32-0.07,0.65-0.14,0.97-0.21c0.85-13.36,0.55-26.69-1.52-39.99c4.95,12.94,5.76,26.32,3.27,39.59   c-1.4,7.43,0.02,13.77,3.77,20.31c1.93-7.35,3.86-14.7,6.21-23.66c-3.57-14.01-10.84-28.88-12.32-45.03   c-1.47-16.06-3.13-32.1-4.81-49.29c-6.11-2.18-12.91-4.61-19.7-7.04c0.08-0.25,0.15-0.5,0.23-0.74c6.53,1.68,13.05,3.37,19.49,5.03   c-0.26-5.38-0.45-11.21-0.91-17.01c-0.1-1.27-0.91-2.71-1.87-3.68c-10.86-10.93-23.96-19.44-37.15-28.36   c1.42,4.87,2.59,9.47,4.11,13.96c2.7,7.99,5.93,15.84,8.38,23.88c4.98,16.31,9.73,32.69,14.3,49.1   C214.93,438.35,218.43,452.34,222.25,466.83z M342.23,444.08c4.06-8.02,8.12-16.04,12.24-24.17c-0.29-2.57-0.6-5.35-0.93-8.25   c0.55-0.42,1.14-0.88,1.37-1.05c-0.33-4.4-0.63-8.41-0.99-13.21c-0.14,0.18,0.31-0.42,0.38-0.51c-0.45-5.6-0.86-10.65-1.32-16.32   c-4.87,4.39-9.82,7.91-13.46,12.32c-7.82,9.5-14.8,19.57-22.48,29.17c-2.97,3.71-4.06,7.63-4.38,12c-1.59,21.5-3.27,43-4.82,64.5   c-0.26,3.55-0.04,7.13-0.04,10.7c1.66-1.86,2.74-3.85,3.54-5.93c0.82-2.13,0.98-4.52,2.09-6.5c5.41-9.66,5.75-20.18,6.31-30.6   c0.46-8.51,0.09-17.06,0.09-25.6c0.55,0,1.11,0,1.66-0.01c0,6.98,0,13.96,0,20.94c0.27-0.02,0.53-0.04,0.8-0.06   c3.18-6.56,6.36-13.13,9.54-19.69c-5.65,13.45-9.89,27.16-11.88,42.2c4.75-5.82,8.97-10.85,12.98-16.02   c1.06-1.37,1.56-3.13,2.17-4.76C337.44,457.01,339.69,450.76,342.23,444.08z M336.13,468c-1.44,6.77-3.16,13.5-4.27,20.31   c-2.28,14.07-4.24,28.18-6.31,42.28c-0.63,4.32-1.19,8.65-1.78,12.97c0.98-0.53,1.32-1.18,1.49-1.87   c1.41-5.78,3.25-11.5,4.08-17.35c1.24-8.75,6.84-16.91,4.42-26.22c0.66,1.05,1.32,2.09,1.98,3.14c0.22-0.04,0.45-0.07,0.67-0.11   c0-8.24,0-16.49,0-24.73c0.11-0.01,0.22-0.01,0.33-0.02c0.87,5.29,1.73,10.58,2.67,16.27c2.31-5.24,4.49-10.17,6.66-15.11   c0.56,0.59,0.51,0.98,0.38,1.35c-2.38,6.55-4.64,13.13-7.19,19.62c-3.34,8.49-1.28,15.99,4.84,23.66c5-8.77,9.7-17.1,14.53-25.37   c1.01-1.73,2.56-3.2,4.37-5.42c-0.67-10.72-1.39-22.28-2.11-33.84c-0.25,0.07-0.49,0.14-0.74,0.22c-1.34-3.73-2.68-7.47-4.01-11.18   c0.58-0.3,1.01-0.52,0.66-0.34c-0.48-4.73-0.91-8.9-1.4-13.75C348.88,444.49,342.61,456,336.13,468z M244.87,360.38   c4.98,13.17,9.95,26.34,15.05,39.84c0.95-15.68,1.88-31.1,2.84-47.03c-11.89-14.04-19.11-31.75-33.66-45.91   c-0.03,13.92,3.27,26.41,8.89,38.88c0.37-0.91,0.58-1.41,0.77-1.87C240.76,349.54,242.74,354.71,244.87,360.38z M219.8,480.86   c-3.56-16.99-8.76-33.58-14.87-49.93c-2.11-5.65-4.46-11.15-9.73-15.19c-1.64-1.26-2.65-3.19-3.96-4.82   c0.14-0.08,0.28-0.15,0.43-0.23c2.58,2.22,5.16,4.43,7.75,6.65c-4.01-10.81-8.45-21.24-13.05-31.6c-0.59-1.33-2.02-2.35-3.69-4.22   c0.14,2.04,0.29,3.01,0.26,3.96c-0.16,4.45,0.62,9.17-0.77,13.29c-3.27,9.66-1.89,18.22,4.33,26.47   c10.56,14,17.94,29.42,24.07,45.39c0.82,2.15,2.21,4.11,3.33,6.16c0.27-0.08,0.54-0.16,0.81-0.23c0.19-0.79,0.38-1.58,0.38-1.57   C216.36,476.74,218.01,479.01,219.8,480.86z M318.43,372.32c1.83-2.65,3.48-5.42,5.54-7.92c3.02-3.67,5.12-7.51,4.3-12.23   c-0.27-1.57-0.65-3.14-1.17-4.65c-0.9-2.62-1-5.17,0.12-8.52c-0.06-0.18-0.42-1.19-0.78-2.2c0.18,0.01,0.37,0.02,0.55,0.03   c0.14-1.28,0.29-2.56,0.43-3.84c0.1,0.03,0.2,0.05,0.3,0.08c0.47-2.68,0.93-5.37,1.4-8.05c0.08,0.02,0.16,0.03,0.24,0.05   c0.99-4.79,1.97-9.58,3.12-15.15c-8.82,7.95-15.52,16.22-19.06,28.94c-0.82,3.86-4.55,9.69-3.69,16.38   c0.84,6.5,1.33,13.04,2.06,20.47c1.5-3.21,2.6-5.57,3.7-7.92c0.38,0.12,0.77,0.24,1.15,0.36c-1.08,3.92-2.17,7.85-3.25,11.77   c0.18,0.06,0.37,0.12,0.55,0.18C315.36,377.64,316.79,375.2,318.43,372.32z M251.23,316.85c1.26,3.96,2.53,7.92,3.79,11.89   c1.76-2.64,4.09-5.64,3.57-8.15c-2.45-11.95-5.49-23.82-8.71-35.63c-1.72-6.32-4.23-12.46-6.38-18.68   c6.51,7.46,10.41,16.11,14.03,24.94c-0.26-4.49-0.45-8.96-1.55-13.23c-0.72-2.82-2.17-5.83-4.28-7.94   c-4.47-4.46-9.52-8.44-14.46-12.49c-2.66-2.18-5.59-4.08-9.1-6.63C236.02,273.33,243.58,294.83,251.23,316.85z M249.67,488.02   c0.28,1.24,0.56,2.47,0.97,4.27c1.72-3.51,3.37-6.28,4.44-9.23c1.09-3,2.35-6.19,2.24-9.26c-0.35-9.73-1.07-19.45-2.09-29.14   c-1.07-10.15-0.93-20.47-6.11-30.05c-2.24-4.13-5.14-7.32-8.58-9.74c2.13,18.14,4.38,36.51,6.42,54.89   C247.98,469,248.65,478.27,249.67,488.02z M156.06,384.13c3.08,12.57,14.28,19.84,22.63,29.33c1.58-6.59,0.35-12.27-3.93-17.41   c0.45-0.03,0.91-0.05,1.36-0.08c-0.31-2.54-0.61-5.08-0.92-7.62c0.19-0.05,0.38-0.1,0.57-0.14c-0.48-0.97-0.97-1.93-1.45-2.9   c0.22-0.04,0.45-0.07,0.67-0.11c-0.32-2.11-0.65-4.23-0.97-6.34c0.16,0,0.33,0.01,0.49,0.01c-0.2-1.62-0.4-3.24-0.69-5.61   c-8.5-4.06-17.4-8.3-27.26-13C149.92,368.75,152.86,376.22,156.06,384.13z M157.18,488.45c1.95,1.09,3.89,2.18,5.84,3.27   c0.37-0.19,0.75-0.37,1.12-0.56c-1.04-3.92-2.13-7.83-3.08-11.77c-0.36-1.49-2.45-3.12-0.16-4.3c-0.22-2.77-0.42-5.32-0.62-7.87   c0.17-0.03,0.33-0.06,0.5-0.1c0-2.45,0-4.89,0-7.34c0.09,0.01,0.17,0.01,0.26,0.02c0.32-2.5,0.65-5,1.07-8.24   c-6.77-2.78-13.81-5.68-21.7-8.93c3.34,14.84,6.46,28.72,9.52,42.31C152.53,486.22,154.62,487.23,157.18,488.45z M192.47,304.12   c-2.22-3.88-4.44-7.76-6.67-11.64c-0.45,0.15-0.89,0.29-1.34,0.44c0.53,5.45,1.08,10.9,1.57,16.36c0.06,0.71-0.19,1.45-0.31,2.17   c-0.33,2.06-0.66,4.13-1.02,6.38c0.45,0.33,1.05,0.77,1.45,1.06c0,2.5,0,4.73,0,7.57c0.08,0.13,1.08,1.16,0.83,1.55   c-1.77,2.84,0.57,3.92,2.45,5.17c3.16,2.1,6.44,4.06,9.55,6.22c5.02,3.49,9.95,7.09,14.92,10.65c0.16-0.08,0.32-0.17,0.47-0.25   C207.17,334.72,199.94,319.64,192.47,304.12z M363.21,371.48c-2.69,1.48-5.37,2.95-7.93,4.35c1.59,8.85,3.08,17.08,4.69,26.01   c10.8-14.36,21.97-27.61,35.68-38.96C384.32,363.91,373.64,366.47,363.21,371.48z M171.83,234.45c-5.68-1.8-11.36-3.59-17.03-5.39   c-0.17,0.32-0.34,0.64-0.52,0.96c6.6,5.03,13.58,9.71,19.71,15.19c6.14,5.49,11.42,11.77,17.56,18.2c1.13-5.14,2-9.11,3.02-13.79   c6.52,4.72,12.51,9.07,18.77,13.6c-0.23-4.36-1.6-7.72-5.47-10.46C197.01,245.07,184.92,239.47,171.83,234.45z M300.43,346.18   c-0.71,2.2-2.08,4.42-2.02,6.61c0.42,15,1.58,30.02-2.25,44.84c-0.3,1.16-0.4,2.37-0.59,3.56c4.49-4.38,8.39-8.97,12.12-13.67   c0.6-0.76,0.61-2.03,0.59-3.06c-0.21-11.36-0.31-22.72-0.84-34.07c-0.16-3.43-1.57-6.81-2.61-11.05   C303.1,342.08,301.93,343.94,300.43,346.18z M275.47,486.56c1.89,4.17,3.78,8.33,5.83,12.85c6.35-12.45,10.39-32.74,8.85-41.52   c-4.35,3.61-9.28,7.65-14.12,11.77c-0.63,0.54-1.23,1.48-1.22,2.22C274.89,476.6,275.15,481.31,275.47,486.56z M326.46,290.5   c-3.91,2.98-1.88,7.6-4.67,11.65c1.93-0.91,2.89-1.36,3.89-1.84c-1.87,4.31-3.67,8.46-5.46,12.61c0.23,0.07,0.46,0.14,0.7,0.2   c-0.78,2.75-1.56,5.49-2.38,8.39c3.11-3.18,5.61-6.69,9.05-9.03c4.99-3.4,6.78-8.01,8.27-13.05c2.11-7.13,4.42-14.21,6.86-21.98   c-6.29,3.55-12.66,5.78-16.18,11.49c1.41-0.84,2.82-1.68,4.22-2.52c0.11,0.14,0.21,0.29,0.32,0.43   C329.67,287.97,328.25,289.08,326.46,290.5z M298.65,258.65c-2.44,3.81-4.88,7.62-7.23,11.29c0.9,3.25,1.71,6.16,2.52,9.06   c2.9-3.55,5.36-7,8.32-10.06c4.79-4.95,10.06-9.5,14.82-14.47c3.15-3.29,3.86-7.29,2.33-11.9   C311.62,247.12,303.9,251.17,298.65,258.65z M315.59,402.87c1.55-0.5,3.09-0.99,4.64-1.49c0.08,0.22,0.16,0.44,0.25,0.66   c7.1-8.06,14.19-16.12,21.62-24.55c-2.38,0-4.62-0.29-6.73,0.05c-8.94,1.45-15.61,6.4-21.63,12.21c-0.61,0.59-1.13,1.51-1.15,2.28   c-0.11,4.03-0.05,8.07-0.05,12.32C313.49,403.88,314.3,403.47,315.59,402.87z M316.06,269.2c0-1.02,0-2.04,0-4.06   c-4.13,3.73-7.76,6.65-10.91,9.95c-3.25,3.41-6.03,7.18-9.18,10.99c0.34,4.86,0.68,9.78,1.01,14.69c0.43,0.07,0.87,0.15,1.3,0.22   c3.41-3.36,6.82-6.71,10.23-10.07c0.77-0.5,1.37-1.3,1.84-2.15c1.65-3,3.79-5.9,4.74-9.08   C316.04,276.52,315.79,273.04,316.06,269.2z M292.91,432.42c0,1,0,2,0,3.01c0.41,0.16,0.82,0.32,1.23,0.49   c3.32-4.1,6.63-8.2,9.9-12.24c0.05,0.75,0.12,1.69,0.19,2.63c0.34,0.02,0.69,0.03,1.03,0.05c0.66-4.36,1.32-8.73,1.97-13.09   c-0.27-0.09-0.55-0.19-0.82-0.28c-1.99,2.17-3.99,4.35-5.98,6.52c-0.32-0.24-0.63-0.48-0.95-0.72c2.9-3.74,5.8-7.48,8.55-11.03   c0-3.67,0-7.17,0-10.67c-5.25,5.14-9.76,10.62-14.18,16.15c-0.43,0.54-0.43,1.43-0.46,2.16   C293.22,420.9,293.09,426.41,292.91,432.42z M290.41,287.47c0-5.23,0-10.46,0-15.7c-11.3,16.26-18.92,48.29-14.66,59.78   C278.82,316.07,282.97,301.56,290.41,287.47z M212.52,268.91c-5.58-5.65-11.17-11.3-17.3-17.51c-0.6,4.89-1.09,8.82-1.59,12.86   c7.39,5.74,14.69,11.42,22,17.1c0.22-0.16,0.45-0.31,0.67-0.47c-1.22-2.96-2.44-5.92-3.67-8.88c4.45,4.95,4.82,12.11,11.8,16.23   C222.52,280.55,217.38,275.06,212.52,268.91z M179.46,469.6c-0.11-1.02,0.2-2.34-0.38-3c-3.32-3.78-6.85-7.41-10.72-11.52   c-0.32,1.19-0.41,1.39-0.42,1.59c-0.3,7.01-0.63,14.02-0.82,21.04c-0.03,0.97,0.45,2.13,1.11,2.92c2.77,3.34,5.7,6.57,9.02,10.34   C177.99,483.68,178.68,476.91,179.46,469.6z M284.35,400.38c2.54-14.87,5.08-29.74,7.74-45.32c-4.07,5.1-7.16,9.72-8.03,15.34   c-1.04,6.72-2.42,13.4-3.35,20.14c-1.25,9.07-2.2,18.17-3.28,27.25c0.41,0.09,0.81,0.17,1.22,0.26   C280.5,412.33,282.33,406.62,284.35,400.38z M277.08,246.84c-0.67,3.4-1.4,6.79-1.98,10.2c-0.49,2.88-0.99,5.81,1.17,9.25   c2.15-3.44,3.98-6.32,5.76-9.22c1.82-2.97,2.9-6.02,2.03-9.56c-1.15-4.7-2.33-9.4-1.38-14.35c0.36-1.89-0.7-3.98-0.8-5.99   c-0.15-3.21-0.04-6.44-0.04-9.66c-0.28-0.01-0.56-0.03-0.84-0.04C279.75,227.07,278.49,236.68,277.08,246.84z M287.69,447.55   c0.73-1.28,2.07-2.55,2.1-3.85c0.19-8.19,0.1-16.38,0.1-24.53c-0.25,0.62-0.56,1.37-0.85,2.13c-3.91,9.98-5.21,20.72-10.74,30.24   c-1.26,2.17-2.16,4.54-3.04,6.88c-0.42,1.12-0.38,2.37-0.55,3.57c0.34,0.14,0.67,0.27,1.01,0.41   C279.58,457.56,283.46,452.73,287.69,447.55z M173.79,521.36c0.29-2.25,0.27-4.57,0.91-6.73c2.41-8.13-3.85-12.44-8.82-17.98   c-1.26,14.57-0.97,15.73,3.33,23.74c1.07,2,1.18,4.44,1.73,6.68c-0.31,0.07-0.61,0.15-0.92,0.22c0.69,2.11,1.39,4.23,2.24,6.83   C172.77,529.62,173.2,525.77,173.79,521.36z M243.14,257.89c2.82,2.37,5.65,4.73,8.47,7.1c-6.94-12.69-16.2-23.54-29.31-31.5   c2.24,5.16,4.83,10.13,7.51,15.06c0.28,0.52,1.09,0.8,1.65,1.19C235.23,252.35,239,254.96,243.14,257.89z M268.27,478.84   c0-2.09,0-4.18,0-6.27c-0.48-0.13-0.95-0.27-1.43-0.4c-1.76,3.18-4.97,6.34-5.02,9.54c-0.16,10.04,0.85,20.1,1.44,30.15   c0.1,1.63,0.37,3.24,0.57,4.87c0.75-8.51-1.27-17.1,2.92-25.8c0,5.78,0,11,0,16.22c0.5,0,1,0,1.5,0   C268.25,497.91,268.25,488.68,268.27,478.84z M182.22,539.64c-1.03-2.88-2.06-5.76-3.09-8.65c0.23-0.09,0.46-0.19,0.69-0.28   c1.51,2.33,3.02,4.66,4.68,7.22c1.25-9.87,1.71-19.27-7.33-27.63c0,7.42,0.36,14.09-0.11,20.71c-0.37,5.27,3.04,8.51,6.36,12.04   C183.1,542.06,182.78,541.07,182.22,539.64z M394.04,511.33c0.15-0.39,0.29-0.78,0.52-1.39c-14.91,11.01-15.89,13.86-14.55,25.05   c3.08-3.05,6.39-5.98,9.21-9.27c1.52-1.78,2.47-4.08,3.18-6.28C393.19,516.97,393.44,514.36,394.04,511.33z M296.65,462.38   c3.91-8.34,8.94-16.34,9.45-26.63c-4.42,5.35-8.31,10.04-12.17,14.75c-0.34,0.41-0.59,1-0.59,1.5c-0.04,5.89-0.03,11.79-0.03,17.68   c0.2,0.03,0.39,0.05,0.59,0.08C294.72,467.44,295.54,465.13,296.65,462.38z M305.58,460.02c0-4.15,0-8.31,0-13.17   c-7.09,14.81-5.17,30.19-7.04,45.07C300.9,481.49,306.98,471.78,305.58,460.02z M237.75,294.05c-3.16-4.87-6.31-9.75-9.46-14.62   c-1,2.33-1.89,4.4-2.89,6.7c6.79,8.82,13.64,17.71,20.49,26.6c0.14-0.07,0.28-0.14,0.42-0.2   C243.55,306.51,240.79,300.49,237.75,294.05z M218.03,511.73c-3.15-12.18-8.91-19.03-15.41-22.92c0.42,1.87,0.38,3.29,1.04,4.35   c5.62,8.91,10.92,17.92,13.08,28.76c1.38-1.51,2.33-2.54,3.09-3.37C219.25,516.19,218.76,514.21,218.03,511.73z M298.54,468.72   c0.56-3.27,1.11-6.54,1.62-9.56c-7.28,9.68-6.79,20.97-6.79,32.19c0,4.82-0.25,9.64-0.36,14.47c-0.04,1.64-0.01,3.28-0.01,4.93   c0.49,0.02,0.97,0.04,1.46,0.06C295.8,496.97,297.14,483.14,298.54,468.72z M244.44,240.45c-5.28-6.93-10.55-13.87-16.21-21.3   c-1.28,2.81-2.12,4.68-2.99,6.59c11.97,8.17,20.23,18.9,26.92,30.79c0.34-0.19,0.67-0.37,1.01-0.56   C250.36,250.92,247.55,245.88,244.44,240.45z M161.49,493.9c-3.41-1.98-6.81-3.96-10.61-6.16c0.25,9.71,7.77,15.52,11.48,23.08   c0.5-4.71,0.55-9.33,0.46-13.95C162.81,495.98,162.25,495.1,161.49,493.9z M358.96,511.28c0.47-1.72,0.94-3.45,1.48-5.43   c-8.37,4.08-16.08,19.78-14.84,31.1C350.01,528.56,354.43,520.17,358.96,511.28z M263.27,417.52c-0.53,2.09-0.84,4.25-1.64,6.25   c-1.96,4.91-0.8,7.96,4.09,10.45c0-13.61,0-27.32,0-41.03c-0.49-0.01-0.98-0.02-1.47-0.03C263.93,401.08,263.6,409,263.27,417.52z    M290.38,295.54c-4.36,9.32-7.64,18.93-9.12,29c2.27-2.92,4.18-5.97,6.2-8.95c1.11-1.64,3.21-3.09,3.45-4.78   c0.76-5.53,0.87-11.13,1.22-16.7c-0.33-0.03-0.66-0.05-0.99-0.08C290.94,294.39,290.72,294.75,290.38,295.54z M187.67,507.76   c1.44,3.52,3.35,6.95,4.22,10.58c1.49,6.25,7.65,8.58,11.72,12.65c0.15,0.15,0.63,0.02,0.8,0.02c-1.29-10.82-10.41-17-17.41-25.41   C187.3,506.74,187.38,507.05,187.67,507.76z M172.96,489.08c-1.91-2.34-3.81-4.69-5.72-7.03c-0.24,0.12-0.48,0.24-0.72,0.36   c0,3.84,0,7.67,0,11.26c3.02,3.45,5.89,6.73,9.19,10.5C175.07,498.77,178.19,493.58,172.96,489.08z M308.99,318.02   c0.6-1.45,1.21-2.91,1.81-4.36c0.37,0.21,0.73,0.42,1.1,0.63c1.9-2.26,3.81-4.52,5.41-6.42c-0.61-2.64-1.11-4.81-1.71-7.4   c-2.92,1.98-5.64,3.82-7.51,5.09c-0.92,3.73-1.63,6.64-2.38,9.66c0.6,1.55,1.27,3.29,2.15,5.58   C308.42,319.64,308.7,319.08,308.99,318.02z M221.19,507.55c1.39,4.62,3.22,9.03,6.89,12.36c1.35-11.18-4.27-19.95-12.66-28.24   C217.39,497.11,219.19,502.09,221.19,507.55z M168.95,530.53c-1.08-2.38-2.17-4.76-3.25-7.14c-1.88,15.11-0.54,19.19,7.82,24.78   c-2.32-3.46,1.51-8.23-2.9-11.06C170.11,534.97,169.65,532.99,168.95,530.53z M233.47,521.63c0.36,7.44,3.44,14.02,7.56,20.47   c2.79-6.28-1.74-20.91-7.81-25.37C233.29,518.27,233.36,519.67,233.47,521.63z M257.63,450.76c0.3,2.77,0.6,5.54,0.93,8.63   c2.07-6.12,4-11.84,5.96-17.63c-2.24-2.77-4.58-5.65-6.9-8.51C257.62,439.02,257.62,444.58,257.63,450.76z M185.01,438.94   c-0.15-0.16-0.3-0.32-0.46-0.47c-0.06,0.05-0.17,0.1-0.17,0.15c-0.01,3.33-0.01,6.67-0.01,10.6c4.38,4.35,9.13,9.07,13.88,13.79   c0.35-0.24,0.71-0.47,1.06-0.71C194.63,454.62,189.95,446.94,185.01,438.94z M233.73,385.42c-1.77-11.92-3.22-15.24-6.77-16.42   c0,2.55,0,5.22,0,7.9c0,2.66,0,5.33,0,6.69c3.47,3.65,5.95,6.25,8.34,8.76C234.87,390.33,234.4,388.14,233.73,385.42z    M266.89,450.53c0-0.92,0-1.85,0-3.24c-3.74,6.12-6.91,22.23-5.37,25.45c5.87-4.25,7.13-9.94,5.62-16.47   C266.75,454.6,266.97,452.81,266.89,450.53z M258.46,492.96c-0.21-2.58-0.42-5.15-0.65-8.05c-5.45,6.33-4.58,12.48-0.56,18.51   c-0.85,0.51-1.35,0.81-1.9,1.15c1.17,2.43,2.25,4.68,3.32,6.92C260.42,505.43,258.8,499.5,258.46,492.96z M263.53,191.18   c0.85,9.89,1.7,19.79,2.54,29.68c0.71-14.22,2.06-28.47-2.2-42.46c-0.33,0.01-0.67,0.03-1,0.04   C263.07,182.5,263.27,186.55,263.53,191.18z M407.67,556.48c1.04-2.29,2.28-4.52,3.04-6.88c0.39-1.21-0.08-2.65-0.16-3.99   c-0.43-0.04-0.85-0.08-1.28-0.11c-2.96,5.46-5.92,10.92-8.6,15.86c3.5,4.21-1.42,6.73-0.81,10.14   C404.79,567.49,405.08,561.76,407.67,556.48z M299.07,336.93c0.43-1.61,1.49-3.32,1.18-4.8c-1.16-5.53-2.77-10.98-4.11-16.04   c-0.05,0.78-0.13,2.06-0.21,3.34c-2.21,7.21-0.77,14.35,0.06,22.42C297.29,339.77,298.04,338.56,299.07,336.93z M406.03,565.86   c-0.55,1.05-1.1,2.11-1.64,3.16c0.27,0.17,0.55,0.35,0.82,0.52c3.12-3.05,6.51-5.91,9.3-9.21c3.32-3.93,2.96-6.03-0.97-10.48   C411.03,555.18,408.62,560.3,406.03,565.86z M218.44,534.04c-0.37-1.39-0.74-2.79-1.1-4.18c-0.3-0.06-0.6-0.11-0.9-0.17   c-1.57,2.54-3.13,5.07-4.66,7.54c3.49,3.84,6.69,7.36,9.89,10.88c0.25-0.09,0.49-0.17,0.74-0.26   C221.12,543.43,219.83,538.99,218.44,534.04z M381.33,536.57c-0.85,5.14-1.7,10.28-2.56,15.42c2.89-7.66,10.57-13.58,9.51-22.44   C386.11,531.72,383.9,533.96,381.33,536.57z M180.57,509.97c1.3,1.67,2.53,3.39,3.93,4.99c1.31,1.49,2.81,2.85,4.23,4.27   c-2.09-7.23-4.1-14.33-10.06-20.45C178.78,502.9,176.97,506.54,180.57,509.97z M237.3,514.09c2.39,4.89,4.78,9.79,7.17,14.68   c0.4-0.11,0.79-0.21,1.19-0.32c-1.77-7.48-3.53-14.96-5.3-22.44c-0.44,0-0.87,0.01-1.31,0.01   C238.39,508.55,237.74,511.08,237.3,514.09z M244.35,474.61c-0.51-3.97-0.9-7.95-1.55-11.9c-0.66-4.05-1.46-8.08-2.39-12.09   c-0.87-3.75-2-7.45-3.01-11.17c-0.27,0.05-0.55,0.11-0.82,0.16c2.38,13.41,4.76,26.82,7.14,40.24c0.37-0.05,0.75-0.11,1.12-0.16   C244.71,478.19,244.58,476.69,244.35,474.61z M254.22,533.27c0.86,1.65,1.72,3.3,2.92,5.61c0.19-8.03,0.62-15.28-5.01-21.27   c-0.36,0.06-0.72,0.12-1.09,0.18C252.05,522.79,253.05,527.79,254.22,533.27z M319.03,226.5c-4.2,5.33-8.4,10.66-12.6,16   c0.22,0.11,0.45,0.23,0.67,0.34c3.89-2.55,7.77-5.09,11.97-7.84C319.21,232.38,319.36,229.39,319.03,226.5z M372.39,524.19   c5.67-5.1,3.04-11.49,3.96-18.13C370.42,511.87,370.3,517.89,372.39,524.19z M274.19,182.67c0.13,3.87,0.25,7.74,0.38,11.61   c0.14-0.02,0.28-0.05,0.43-0.07c-0.52,2.88-1.04,5.77-1.62,8.94c2.2-2.99,4.15-5.63,6.63-9C278.4,190.7,276.53,186.7,274.19,182.67   z M276.94,528.31c-1.68,3.91,2.81,5.13,3.75,7.9c0.39-0.03,0.78-0.07,1.17-0.1c0.29-5.45,0.58-10.9,0.87-16.35   c-0.25,0.02-0.5,0.03-0.75,0.05C280.4,522.52,278.83,525.23,276.94,528.31z M371.81,547.53c0,4.38,0,8.76,0,13.14   c0.46,0.02,0.91,0.04,1.37,0.06c1.36-6.38,2.72-12.75,4.09-19.13c-0.34-0.11-0.67-0.22-1.01-0.32   C374.81,543.19,373.36,545.1,371.81,547.53z M244.12,510.47c0.33,0.54,0.66,1.08,0.99,1.62c0.13-0.04,0.27-0.08,0.4-0.13   c-1.16-7.28-2.32-14.57-3.48-21.85c-0.3,0.04-0.6,0.08-0.91,0.12C239.67,497.08,239.83,503.76,244.12,510.47z M286.73,208.26   c0.08,0.75,0.17,1.5,0.32,2.88c2.95-6.55,5.65-12.56,8.35-18.57c-0.2-0.11-0.4-0.23-0.59-0.34c-2.7,2.81-5.4,5.62-8.14,8.48   C286.67,203.09,286.67,205.43,286.73,208.26z M196.07,561.02c2.62,5.78,5.24,11.55,8.05,17.74c-1.55-9.7-8.62-25.38-12.83-26.67   C192.78,554.92,194.28,557.76,196.07,561.02z M191.43,560.56c-0.7-1.75-1.4-3.5-2.18-5.47c-2.66,6.71-0.86,9.87,7.79,16.06   C195.26,567.77,193.48,564.38,191.43,560.56z M275.68,518.31c-0.41,2.9-0.82,5.81-1.22,8.71c0.35,0.04,0.7,0.08,1.05,0.12   c2.59-4.27,6.52-8.09,5.41-14.53C278.97,514.76,277.53,516.36,275.68,518.31z M274.7,495.78c0,3.45,0,6.91,0,10.25   c1.9,1.29,3.6,2.44,5.59,3.8c-0.47-2.54-0.53-4.66-1.3-6.54C277.87,500.53,276.23,497.95,274.7,495.78z M260.7,336.15   c0.94,2,1.88,3.99,2.82,5.99c0.2-0.06,0.4-0.13,0.59-0.19c-0.73-6.1-1.46-12.19-2.18-18.29   C260.28,327.6,257.68,331.42,260.7,336.15z M332.19,530.69c-0.06,0.43-0.13,0.85-0.19,1.28c0.23,0.12,0.47,0.23,0.7,0.35   c2.2-3.54,4.41-7.08,6.46-10.38c-0.57-1.38-0.93-2.24-1.36-3.29C333.59,521.73,332.77,525.9,332.19,530.69z M258.28,428.21   c2.86-5.51,3.27-11.21,1.81-17.21c-1.31,5.44-2.63,10.7-3.78,15.99C256.22,427.38,257.25,427.98,258.28,428.21z M182.1,433.54   c-1.06-2.26-2.12-4.51-3.18-6.77c-0.4,0.14-0.81,0.27-1.21,0.41c1.03,5.44,2.05,10.88,3.08,16.32c0.43-0.04,0.87-0.07,1.3-0.11   C182.09,440.31,182.09,437.22,182.1,433.54z M283.67,500.05c-0.13,1.25-0.27,2.51-0.49,4.54c4.81-5.17,6.61-10.39,5.67-16.45   C287.22,491.96,285.58,495.78,283.67,500.05z M299.62,501.6c0.42-2.59,0.83-5.19,1.34-8.35c-4.28,7.11-4.35,14.24-3.26,21.54   C298.34,510.59,298.98,506.39,299.62,501.6z M181.35,546.38c-1.42-2.43-2.84-4.85-4.26-7.28c0.96,11.04,1.25,11.7,5.35,13.31   C182.12,550.36,181.84,548.59,181.35,546.38z M321.68,538.4c1.04-6,2.08-12.01,3.12-18.01c-2.36,7.49-5.74,14.82-4.46,22.85   C320.73,541.8,321.12,540.36,321.68,538.4z M200.22,540.83c0.89,1.9,1.78,3.8,2.68,5.7c0.47-0.1,0.95-0.19,1.42-0.29   c-0.72-4.18-1.45-8.35-2.27-13.11c-1.37,1.34-2.22,2.17-3.03,2.96C199.37,537.65,199.68,539,200.22,540.83z M373.36,540.67   c4.54-2.79,2.91-6.83,2.92-11.03c-4.53,3.48-4.08,7.77-4.51,12.41C372.57,541.42,372.82,541.22,373.36,540.67z M157.18,234.17   c-0.2-0.02-0.39-0.05-0.59-0.07c0.02,0.28-0.08,0.68,0.08,0.84c5.47,5.1,10.96,10.18,16.47,15.24c0.6,0.55,1.38,0.92,2.08,1.38   c0.16-0.17,0.33-0.35,0.49-0.52C169.66,245.52,163.6,240.01,157.18,234.17z M358.72,504.44c1.27-1.05,2.54-2.1,3.56-2.95   c0-2.67,0-5.13,0-7.59c-0.28-0.05-0.57-0.1-0.85-0.15c-1.82,4.03-3.65,8.06-5.47,12.09c0.18,0.09,0.36,0.19,0.54,0.28   C357.11,505.65,357.73,505.18,358.72,504.44z M159.37,509.09c-1.77-2.85-3.54-5.69-5.31-8.54c-0.22,0.08-0.44,0.16-0.65,0.24   c1.35,4.42,2.69,8.85,4.04,13.27c0.36-0.05,0.71-0.1,1.07-0.15c0.19-0.82,0.37-1.64,0.54-2.38c0.53,0.19,1,0.37,1.96,0.72   C160.4,511.01,160.01,510.24,159.37,509.09z M413.88,593.33c-2.37,2.78-4.75,5.55-7.12,8.33c0.24,0.17,0.48,0.34,0.72,0.51   c3.89-3.74,7.8-7.46,11.63-11.25c0.31-0.31,0.04-1.1,0.04-1.67c-0.32-0.12-0.63-0.24-0.95-0.35   C416.87,590.26,415.55,591.62,413.88,593.33z M276.3,542.5c-0.82-1.5-1.64-3-2.46-4.5c0.11,4.54,0.36,8.96,3.64,12.42   c0.43-0.12,0.85-0.23,1.28-0.35C278.05,547.68,277.34,545.29,276.3,542.5z M408.8,570.49c0.47-1.04,0.93-2.09,1.61-3.61   c-5.15,3.67-7.35,8.12-7.32,13.61C404.91,577.29,406.72,574.1,408.8,570.49z M168.76,577.27c-0.46-3.16-0.91-6.31-1.36-9.41   c-1.28,1.04-2.7,2.2-4.15,3.37c0.94,1.36,1.57,2.53,2.46,3.51C166.65,575.8,167.83,576.69,168.76,577.27z M297.19,543.65   c-0.51,3.71-1.01,7.41-1.52,11.12c1.58-5.02,4.74-9.76,3.88-15.17c-0.33-0.08-0.67-0.16-1-0.25   C298.17,540.62,297.79,541.89,297.19,543.65z M361.69,514.86c-0.03-0.1-0.02-0.23-0.09-0.31c-0.04-0.06-0.24-0.09-0.26-0.07   c-2.75,3.81-4.86,7.83-5.12,12.5C358.79,523.37,361.73,519.92,361.69,514.86z M381.68,561.97c1.6-4.96,3.21-9.92,4.81-14.87   c-0.36-0.09-0.72-0.18-1.08-0.28c-2.04,6.32-4.08,12.65-6.13,18.97c0.25,0.07,0.49,0.14,0.74,0.21   C380.52,564.81,381.02,563.63,381.68,561.97z M280.75,177.53c1.73-3.75,3.47-7.5,5.2-11.25c-0.28-0.11-0.56-0.23-0.84-0.34   c-1.19,1.42-2.46,2.79-3.56,4.27C279.7,172.69,279.26,176.32,280.75,177.53z M221.72,564.07c0.23,0.51,0.46,1.01,0.68,1.52   c1.49-5.62-3.09-8.39-4.84-12.34c-0.28,0.11-0.56,0.21-0.84,0.32C218.28,556.95,219.84,560.33,221.72,564.07z M287.69,510.87   c0.22-2.33,0.45-4.66,0.67-6.99c-3.59,5.64-1.68,11.48-0.7,17.28C287.66,517.93,287.66,514.71,287.69,510.87z M360.49,544.15   c-0.62,2.01-1.24,4.02-1.92,6.18c1.63-0.78,3.08-1.47,4.37-2.08c0-2.55,0-4.83,0-7.79C361.92,541.94,361.31,542.83,360.49,544.15z    M234.6,420.01c-0.4-1.2-0.8-2.41-1.2-3.61c-1.2,6.59,0.04,11.85,2.82,13.13C235.7,426.42,235.22,423.48,234.6,420.01z    M223.94,265.68c-0.96-2.11-1.91-4.22-2.87-6.32c-0.22,0.06-0.45,0.13-0.67,0.19c0.78,3.53,1.56,7.07,2.37,10.71   c0.94,0.26,1.74,0.48,3.2,0.87C225.2,269.1,224.65,267.64,223.94,265.68z M272,256.23c-0.09-0.59-0.17-1.18-0.26-1.77   c-0.25,0.01-0.5,0.03-0.75,0.04c0,4.68,0,9.35,0,14.03c0.35,0.01,0.7,0.02,1.05,0.02C272.05,264.6,272.05,260.64,272,256.23z    M165.2,544.62c-0.08-0.08-0.15-0.17-0.25-0.23c-0.09-0.05-0.2-0.06-0.31-0.08c-0.79,3.58-0.8,7.02,2.79,9.82   C166.78,551.08,166.13,548.04,165.2,544.62z M369.56,524.5c0-2.13,0-4.26,0-6.39c-0.45-0.04-0.9-0.08-1.35-0.12   c-0.56,2.86-1.11,5.72-1.67,8.57c0.34,0.13,0.68,0.26,1.02,0.4C368.2,526.31,368.85,525.67,369.56,524.5z M210.34,205.94   c0.51,0.17,1.03,0.33,1.54,0.5c0.2-0.22,0.39-0.44,0.59-0.66c-2.18-2.71-4.37-5.42-6.55-8.13c-0.44,0.3-0.88,0.6-1.32,0.9   C206.39,200.9,208.18,203.25,210.34,205.94z M219.07,551.1c1.27,1.72,2.54,3.45,4.27,5.79c-1.53-6.25-3.35-8.63-8-10.63   C216.63,547.95,217.7,549.34,219.07,551.1z M178.12,561.81c-0.57-1.44-1.15-2.88-1.72-4.32c-0.41,0.12-0.82,0.24-1.23,0.36   c1.01,4.01,2.02,8.03,3.02,12.04c0.29-0.05,0.57-0.1,0.86-0.16C178.79,567.27,178.53,564.8,178.12,561.81z M360.29,529.47   c-0.73,1.86-1.46,3.72-2.19,5.58c3.82-2.38,4.45-4.17,4.03-9.53C361.52,526.71,360.95,527.85,360.29,529.47z M230.58,335.9   c-0.08-0.52-0.16-1.04-0.24-1.56c-0.17,0.02-0.33,0.04-0.5,0.05c0.43,3.68,0.87,7.36,1.28,10.89c1.07,0.57,1.83,0.97,2.8,1.48   C232.81,343.12,231.78,339.74,230.58,335.9z M301.82,530.15c-0.61,1.3-1.21,2.6-1.82,3.9c0.28,0.11,0.55,0.22,0.83,0.34   c2.23-2.69,5.06-5.12,4.58-9.67C304.05,526.68,303.02,528.19,301.82,530.15z M348.49,545.32c-0.32,0.84-0.64,1.67-1.02,2.67   c1.29-0.4,2.18-0.68,3.24-1.01c0.63-2.09,1.26-4.15,1.88-6.2c-0.28-0.11-0.55-0.23-0.83-0.34   C350.76,541.93,349.76,543.43,348.49,545.32z M233.64,238.3c0.26,0.15,0.51,0.31,0.77,0.46c0.09-0.09,0.19-0.18,0.28-0.27   c-3.4-3.16-6.79-6.32-10.19-9.48c-0.27,0.25-0.55,0.49-0.82,0.74C226.91,232.48,230.14,235.22,233.64,238.3z M270.63,562.68   c0.13,0.95,0.26,1.91,0.39,2.86c0.36-0.02,0.72-0.05,1.09-0.07c0-3.1,0-6.21,0-9.31c-0.18,0-0.36-0.01-0.53-0.01   C271.27,558.14,270.97,560.14,270.63,562.68z M303.33,325.11c0,2.87,0,5.75,0,8.62c0.33,0.01,0.65,0.02,0.98,0.03   c0.23-3.81,0.47-7.61,0.7-11.42c-0.24-0.02-0.48-0.05-0.72-0.07C303.99,323.04,303.7,323.8,303.33,325.11z M336.46,513.23   c-0.23-0.36-0.45-0.73-0.9-1.45c-0.62,3.05-1.16,5.72-1.7,8.4c0.24,0.06,0.47,0.12,0.71,0.18c1.03-1.26,2.06-2.51,2.97-3.63   C337.2,515.52,336.93,514.59,336.46,513.23z M252.53,508.47c-0.3-0.42-0.59-0.84-0.89-1.25c-0.33,0.14-0.67,0.27-1,0.41   c1.24,2.86,2.49,5.72,3.73,8.58c0.47-0.17,0.94-0.34,1.41-0.51C254.74,513.42,253.7,511.16,252.53,508.47z M260.51,543.88   c0.33,0.99,0.66,1.99,0.98,2.98c0.19-0.02,0.39-0.04,0.58-0.06c0-2.65,0-5.29,0-7.94c-0.41-0.03-0.81-0.05-1.22-0.08   C260.71,540.32,260.56,541.86,260.51,543.88z M258.75,169.5c1.96-2.72,0.11-4.65-1.46-6.65c-0.4,0.1-0.8,0.2-1.2,0.3   C256.82,165.2,257.55,167.23,258.75,169.5z M238.84,504.57c0.15-0.88,0.3-1.75,0.45-2.63c-0.38-0.09-0.75-0.18-1.13-0.26   c-1.01,2.83-2.02,5.66-3.03,8.5c0.4,0.13,0.81,0.26,1.21,0.38C237.08,508.7,237.82,506.84,238.84,504.57z M170.26,551.69   c-0.23-0.29-0.47-0.58-0.7-0.87c-0.18,0.07-0.36,0.14-0.54,0.21c0.64,2.34,1.27,4.67,1.91,7.01c0.25-0.04,0.5-0.08,0.74-0.13   c0.39-0.85,0.78-1.71,1.17-2.55C172,554.18,171.25,553.12,170.26,551.69z M235.77,368.52c-1.28-1.75-2.56-3.49-3.84-5.24   c-0.46,0.3-0.92,0.6-1.38,0.89c1.64,2.1,3.28,4.2,4.92,6.3c0.22-0.11,0.43-0.22,0.65-0.33   C236.08,369.74,236.05,369.33,235.77,368.52z M200.18,555.15c-0.92-0.98-1.83-1.96-2.75-2.94c-0.16,0.11-0.33,0.21-0.49,0.32   c1.39,2.45,2.78,4.9,4.17,7.35c0.23-0.07,0.45-0.15,0.68-0.22c0-1.64,0-3.29,0-4.68C201.36,555.13,200.93,555.29,200.18,555.15z    M195.41,577.62c-1.34-2.4-2.67-4.79-4.01-7.19c-0.32,0.16-0.64,0.32-0.96,0.49c1.68,2.93,3.36,5.87,5.05,8.8   c0.2-0.08,0.4-0.16,0.6-0.23C195.91,579,195.73,578.52,195.41,577.62z M196.67,529.93c0.6,1.25,1.2,2.5,1.95,4.06   c0.88-0.72,1.51-1.24,2.57-2.1c-1.51-1.48-2.81-2.75-4.81-4.71C196.38,528.71,196.38,529.12,196.67,529.93z M233.67,352.46   c0.9,2.15,1.8,4.31,2.7,6.46c0.4-0.14,0.8-0.28,1.2-0.43c-1.49-3.11-2.98-6.21-4.48-9.32c-0.12,0.04-0.24,0.08-0.36,0.11   C232.99,350.19,233.25,351.09,233.67,352.46z M217.75,525.58c0.48,0.38,0.96,0.77,2.33,1.85c0.27-2.45,0.45-4.11,0.64-5.77   c-0.5-0.14-0.99-0.28-1.49-0.42C218.69,522.53,218.16,523.82,217.75,525.58z M216.3,480.28c-0.17-0.02-0.35-0.05-0.51-0.03   c-0.05,0.01-0.13,0.21-0.09,0.28c1.56,2.75,3.14,5.5,4.71,8.25c0.41-0.22,0.83-0.44,1.24-0.66   C219.97,485.61,218.3,483.11,216.3,480.28z M315.96,409.06c0.75-1.45,1.5-2.91,2.25-4.36c-0.28-0.12-0.56-0.24-0.84-0.36   c-1.78,3.05-3.55,6.1-5.33,9.15c0.32,0.16,0.64,0.31,0.96,0.47C313.89,412.46,314.78,410.96,315.96,409.06z M227.81,566   c-0.11-1.26-0.22-2.52-0.33-3.78c-0.27,0.03-0.54,0.06-0.81,0.09c0,2.67,0,5.33,0,8c0.24,0.01,0.48,0.01,0.73,0.02   C227.53,569.07,227.66,567.82,227.81,566z M227.72,363.24c0.45,0.89,0.89,1.78,1.34,2.67c0.35-0.13,0.69-0.26,1.04-0.39   c-0.66-2.33-1.31-4.66-1.97-6.99c-0.44,0.09-0.89,0.18-1.33,0.27C227.08,360.12,227.36,361.45,227.72,363.24z M222.86,245.06   c0.99,0.75,1.99,1.5,2.98,2.25c0.12-0.13,0.25-0.26,0.37-0.39c-1.67-2.08-3.34-4.15-5-6.23c-0.32,0.2-0.64,0.39-0.97,0.59   C220.98,242.45,221.72,243.62,222.86,245.06z M212.62,317.66c-1.37-3.52-2.75-7.03-4.12-10.55c-0.34,0.12-0.67,0.24-1.01,0.36   C209.12,310.98,210.74,314.49,212.62,317.66z M253.75,548.1c0-3.17,0-6.34,0-9.5c-0.48,0.02-0.96,0.04-1.44,0.06   C252.73,541.71,253.14,544.75,253.75,548.1z M399.33,578.28c0.3-0.74,0.6-1.48,0.91-2.21c-0.19-0.07-0.38-0.13-0.57-0.2   C399.43,576.69,399.18,577.5,399.33,578.28z"/>

</g>

</svg>