<?xml version="1.0" ?>

<!-- Uploaded to: SVG Repo, www.svgrepo.com, Generator: SVG Repo Mixer Tools -->
<svg width="800px" height="800px" viewBox="-52.05 0 684.34 684.34" id="Layer_1" version="1.1" xml:space="preserve" xmlns="http://www.w3.org/2000/svg" xmlns:xlink="http://www.w3.org/1999/xlink">

<style type="text/css">
	.st0{clip-path:url(#SVGID_2_);}
	.st1{clip-path:url(#SVGID_4_);}
	.st2{clip-path:url(#SVGID_6_);}
	.st3{clip-path:url(#SVGID_8_);}
	.st4{clip-path:url(#SVGID_10_);}
	.st5{clip-path:url(#SVGID_12_);}
	.st6{clip-path:url(#SVGID_14_);}
	.st7{clip-path:url(#SVGID_16_);}
	.st8{clip-path:url(#SVGID_18_);}
	.st9{clip-path:url(#SVGID_20_);}
	.st10{clip-path:url(#SVGID_22_);}
	.st11{clip-path:url(#SVGID_24_);}
	.st12{clip-path:url(#SVGID_26_);}
	.st13{clip-path:url(#SVGID_28_);}
	.st14{clip-path:url(#SVGID_30_);}
	.st15{clip-path:url(#SVGID_32_);}
	.st16{clip-path:url(#SVGID_34_);}
	.st17{clip-path:url(#SVGID_36_);}
	.st18{clip-path:url(#SVGID_38_);}
	.st19{clip-path:url(#SVGID_40_);}
</style>

<g>

<defs>

<rect height="684.34" id="SVGID_33_" width="580.24" y="0"/>

</defs>

<clipPath id="SVGID_2_">

<use style="overflow:visible;" xlink:href="#SVGID_33_"/>

</clipPath>

<g class="st0">

<path d="M373.86,308.65c0.72-1.92,1.43-3.83,2.29-6.14c-1.04-3.2,0.03-6.38,1.84-9.56c1.24-2.17,2-4.62,3.22-7.03    c0.25-0.08,0.21-0.11,0.21-0.11c0.08,0.33,0.17,0.66,0.12,0.48c7.53-5.45,15.16-10.98,23.37-16.93c0.22,1.67,0.3,2.27,0.43,3.28    c7.49-6.4,14.73-12.58,22.14-18.91c1.07-9.49,2.17-19.19,3.27-28.88c0.17,0.01,0.34,0.02,0.51,0.02    c-0.36,8.17-0.71,16.35-1.1,25.32c4.28-3.77,7.97-7.02,11.67-10.27c0.14,0.13,0.28,0.27,0.42,0.4c-2.76,2.86-5.4,5.84-8.3,8.54    c-2.58,2.41-3.84,5.17-3.95,8.69c-0.33,10.87-0.79,21.74-0.65,32.8c0.39-0.61,0.83-1.19,1.15-1.84    c6.23-12.76,13.82-24.67,21.95-36.29c1.6-2.28,1.71-5.7,2.17-8.65c3.2-20.88,6.23-41.78,9.47-62.65    c2.89-18.57,5.78-37.15,9.07-55.66c2.28-12.81,5.23-25.49,8.39-38.16c-1.67,39.08-3.22,78.13-7.45,117.14    c26.45-32.12,56.37-60,93.15-79.86c0.39,0.39,0.78,0.78,1.16,1.17c-0.86,0.3-1.77,0.5-2.55,0.93c-0.74,0.4-1.35,1.04-2.01,1.59    c-18.04,14.91-35.22,30.7-49.93,48.97c-11.43,14.2-21.48,29.34-30.37,45.27c-4.21,7.55-8.89,14.85-13.37,22.25    c-0.44,0.73-0.94,1.47-1.58,2.01c-4.52,3.83-6.82,8.55-7.05,14.59c-0.22,5.58-1.24,11.12-1.6,16.89    c26.76-35.61,61.11-60.96,102.57-76.85c-2.05,1.38-4.06,2.82-6.15,4.14c-16.2,10.29-32.11,20.95-46.34,33.96    c-19.68,18-35.58,38.84-48.03,62.39c-2.9,5.49-6.21,10.78-9.55,16.03c-1.44,2.27-2.19,4.48-2.07,7.19    c0.84,18.69,1.58,37.39,2.39,56.08c0.03,0.75,0.53,1.47,0.66,1.81c-0.42,2.63-0.81,5.05-1.2,7.53c6.77-2.09,13.11-4.06,19.45-6.02    c0.07,0.22,0.13,0.43,0.2,0.65c-6.4,2.55-12.8,5.11-19.16,7.64c0.52,12.69,1.01,24.77,1.54,37.61c2.62-3.09,4.87-5.83,7.2-8.5    c10.04-11.51,19.97-23.11,30.23-34.42c2.69-2.96,4.17-5.96,4.81-9.84c5.56-33.83,11.07-67.67,17.04-101.43    c2.26-12.81,5.69-25.41,8.78-38.04c-7.54,46.6-15.07,93.19-22.61,139.79c0.33,0.16,0.66,0.31,1,0.47    c4.31-3.46,8.63-6.91,12.94-10.37c0.14,0.16,0.28,0.32,0.42,0.48c-3.56,3.34-6.98,6.84-10.72,9.96    c-3.23,2.69-4.66,5.98-5.19,10.03c-3.18,24.46-6.49,48.91-9.7,73.36c-1.61,12.23-3.2,24.46-4.6,36.71    c-1.05,9.22-1.76,18.49-2.65,27.73c-0.53,5.44-1.12,10.87-1.42,16.32c4.5-19.51,9-39.02,13.51-58.53    c0.44,0.09,0.88,0.18,1.32,0.27c-4.62,27.04-9.23,54.07-13.89,81.35c6.78-8.09,13.32-15.89,20.12-24.01    c-5.22,32.52-6.21,64.76-3.7,96.77c5.42-39.1,12.35-78.27,24.11-116.44c-10.53,41.56-20.64,83.16-18.62,126.58    c7.76-40.9,19.89-80.34,38.45-117.7c-5.03,14.17-10.43,28.23-14.99,42.55c-4.66,14.63-8.8,29.44-12.62,44.3    c-3.8,14.75-6.52,29.74-6.42,45.11c14.55-40.06,36.8-75.4,64.65-107.38c-27.23,36.44-51.94,74.19-63.33,119.62    c-13.89,0-28.24,0-42.6,0c-0.13,0.14-0.26,0.29-0.39,0.43c0.43,0.09,0.86,0.18,1.28,0.28c-0.07,0.13-0.13,0.25-0.2,0.38    c-10.47,0.33-20.94,0.55-31.4,1.03c-6.83,0.31-13.63,1-20.45,1.52c-8.88,0.67-17.77,1.38-26.66,1.99    c-13.89,0.96-27.77,1.89-41.66,2.79c-5.48,0.35-10.98,0.78-16.47,0.84c-11.47,0.12-22.96,0.29-34.42-0.05    c-13.3-0.39-26.58-1.35-39.88-1.97c-7.93-0.37-15.89-0.33-23.8-0.91c-14.73-1.07-29.44-2.39-44.14-3.75    c-3.59-0.33-7.13-1.25-10.89-1.93c2.92,0,5.73,0,8.54,0c0-0.21-0.01-0.43-0.01-0.64c-10.08,0-20.15,0-30.56,0    c-10.55-69.55-29.99-136.11-62.46-198.6c18.94,30.03,31.1,63.28,46.16,95.13c0.25-0.09,0.5-0.19,0.75-0.28    c-3.64-16.55-7.28-33.09-10.92-49.64c0.17-0.05,0.35-0.1,0.52-0.14c1.75,6.05,3.66,12.07,5.21,18.17    c2.64,10.38,4.71,20.92,7.67,31.2c3.37,11.68,7.45,23.16,11.23,34.73c0.89,2.72,1.84,5.41,2.85,8.39    c-0.92-20.19-0.88-40.14-5.35-59.7c5.16,17.28,6.71,35.42,13.21,52.39c-0.33-8.27-0.78-16.54-0.94-24.81    c-0.16-8.3-0.04-16.61,0.43-24.94c2.22,11.34,1.99,22.89,3.21,34.3c1.22,11.4,2.54,22.78,3.81,34.18    c0.28-0.01,0.57-0.03,0.85-0.04c-0.39-12.81-0.64-25.62-1.2-38.42c-0.62-14.16-1.5-28.36-5.02-42.14    c-7.33-28.75-16.8-56.8-29.19-83.78c-12.97-28.23-28.08-55.26-46.3-80.48c-5.07-7.02-10.41-13.84-15.85-21.06    c-23.25,7.75-44.68,18.5-64.82,33.19c6.15-8.03,32.46-27.07,58.07-37.15c-4.97-6.24-9.87-12.38-14.76-18.53    c0.17-0.15,0.34-0.31,0.51-0.46c5.38,6.09,10.76,12.19,16.21,18.36c18.05-7.31,36.5-11.01,56.25-8.64    c-14.71-19.92-30.78-38.5-47.1-57.05c0.3,0.16,0.65,0.28,0.91,0.5c18.09,15.72,36.27,31.37,52.35,49.21    c5.18,5.74,10.2,11.13,17.49,14.43c6.65,3.02,11.48,8.62,15.63,14.62c2.67,3.86,5.25,7.78,7.87,11.67    c0.28-0.08,0.56-0.16,0.83-0.24c-0.82-5.33-1.64-10.67-2.16-14.04c-4.04-4.18-7.14-6.76-9.46-9.91    c-8.2-11.16-14.41-23.51-20.31-35.97C127,290.16,108.65,264.2,85.3,241.77c-4.4-4.23-8.23-9.05-10.36-11.42    c39.57,26.81,71.98,63.64,94.41,109.65c-0.5-4.82-0.98-9.64-1.51-14.46c-0.54-4.86-1.13-9.7-1.73-14.75    c-5.86-3.5-5.99-9.89-6.89-15.65c-0.52-3.32-1.71-6.02-3.57-8.59c-10.61-14.64-21.24-29.26-31.76-43.99    c13.05,12.94,24.44,27.31,35.4,42.21c1.21-3.65,2.34-7.07,3.51-10.63c7.33,7.57,9.97,29.92,4.26,36.78    c0.55,4.7,1.14,9.65,1.71,14.61c1.14,9.95,2.36,19.89,3.32,29.86c0.25,2.56-0.35,5.19-0.94,7.72c0.71,4.2,1.34,8.42,2.15,12.6    c1.12,5.74,2.4,11.44,3.55,17.17c0.29,1.43,0.61,2.92,0.48,4.35c-0.42,4.77,0.97,9.09,2.74,13.42    c10.32,25.24,21.1,50.32,29.44,76.45c0.52-8.32,1.11-16.63,1.56-24.95c1.29-23.93,2.47-47.87,3.81-71.8    c0.39-6.95,1.36-13.87,1.75-20.82c0.11-1.9-0.71-3.98-1.53-5.78c-0.88-1.94-2.25-3.65-3.41-5.46c0.21-0.17,0.42-0.33,0.62-0.5    c1.87,2.07,3.73,4.13,6.15,6.8c0.47-5.04,1.02-9.43,1.25-13.84c0.69-13.19,1.32-26.38,1.79-39.58c0.06-1.68-0.72-3.48-1.41-5.09    c-2.13-4.96-2.68-10.11-2.15-15.41c0.31-3.03,0.8-6.03,1.27-9.57c-14.04-19.12-32.59-34.15-50.32-50.08    c9.27,4.92,17.87,10.89,26.14,17.27c8.29,6.39,16.19,13.29,24.53,20.19c-0.61-24.44-1.22-49.03-1.84-73.62    c0.29-0.01,0.59-0.02,0.88-0.03c0.88,25.59,1.77,51.17,2.64,76.55c5.83,6.65,11.5,13.12,17.42,19.87    c0.32-4.76,0.61-9.13,0.91-13.49c0.48-0.11,0.95-0.23,1.43-0.34c2.1,3.88,4.67,7.58,6.18,11.67c2.09,5.68,3.36,11.67,5.05,17.5    c0.39,1.36,0.66,3.21,1.64,3.87c6.39,4.34,9.49,11.06,12.96,17.46c3.71,6.86,6.94,13.97,10.45,20.93    c0.76,1.51,1.84,2.87,2.92,4.52c0.27-0.5,0.53-0.76,0.54-1.03c0.78-25.29,5.57-49.95,11.66-74.4c2.15-8.63,4.5-17.22,7.15-25.71    c1.32-4.24,1.18-8.03-0.64-12c-3.01-6.54-5.83-13.16-8.74-19.75c-0.47-1.06-0.92-2.13-1.38-3.19c0.23-0.1,0.45-0.2,0.68-0.3    c3.7,7.84,7.41,15.68,11.11,23.52c0.33,0,0.66,0.01,0.98,0.01c0.61-4.42,2.01-8.9,1.7-13.25c-2.69-37.72-3.93-75.47-3.41-113.28    c0.01-0.48,0.06-0.97,0.1-1.45c0.24-0.04,0.49-0.08,0.73-0.11c1.27,8.03,2.65,16.05,3.78,24.11c1.15,8.22,2.03,16.48,3.1,24.72    c1.06,8.24,2.28,16.45,3.3,24.69c1.01,8.24,1.85,16.5,2.99,24.83c4.68-19.96,7.42-40.42,14.51-59.83    c-1.02,9.17-2.17,18.34-3.02,27.53c-1.24,13.39-2.4,26.78-3.32,40.19c-1.14,16.59-1.44,33.25-3.21,49.76    c-0.96,9.02,0.26,17.45,2.34,25.97c1.7,6.96,3.68,13.85,5.61,21.01c9.9-19.06,21.73-36.7,38.4-50.7    c-16.64,18.95-28.36,40.65-36.66,64.46c6.23,13.54,14.5,25.56,27.79,34.01c4.47-18.58,9.66-36.89,17.53-54.28    c-3.27,10.9-7.03,21.59-10.3,32.43c-2.36,7.79-4.07,15.78-5.78,22.56c5.6,8,10.55,15.04,15.43,22.01    c2.36-7.36,5.14-14.92,10.23-21.39c-3.24,8.31-6.47,16.62-9.52,24.43c5.17,12.55,10.06,24.39,15.03,36.47    c5.94-11.33,11.52-22.45,17.57-33.31c3.71-6.65,6.02-13.56,6.46-21.13c0.06-1.09,0.31-2.18,0.48-3.26    c0.75-4.82,1.74-9.63,2.2-14.48c0.53-5.55,0.81-11.14,0.81-16.72c0-6.77,2.7-13.43,0.7-20.3c-0.35-1.2,0.07-2.68,0.34-3.99    c1.77-8.44,3.81-16.82,5.35-25.3c1.84-10.17,3.27-20.42,5.02-31.48c-7.8,7.26-14.94,13.9-22.07,20.56    c-0.34,0.32-0.64,0.74-0.83,1.17c-3.38,7.87-8.72,14.25-14.86,20.1c-3.73,3.56-7.61,6.47-12.99,6.12    C375.95,305.25,374.91,306.95,373.86,308.65z M292.72,533.85c0.14-1.17,0.37-2.34,0.4-3.51c0.14-6.18,0.26-12.36,0.34-18.53    c0.05-3.5,0.01-7.01,0.01-10.51c-0.31,0.01-0.62,0.01-0.93,0.02c0,4.33,0.04,8.66-0.02,12.99c-0.02,1.92-0.27,3.84-0.33,5.76    c-0.05,1.57,0.02,3.15,0.03,4.72c0.02,3.14,0.03,6.28-0.05,10.09c-0.02,8.05-2.79,15.98-1.16,24.12c0.39-0.4,0.65-0.83,0.67-1.28    c0.34-6.78,0.67-13.57,0.93-20.36C292.65,536.3,292.36,535.21,292.72,533.85z M425.52,558.6c-0.56,1.32-1.12,2.63-1.79,4.23    c0.33,0.85,0.74,1.9,1.16,2.95c0.17-0.02,0.35-0.03,0.52-0.05c0.53-2.91,1.05-5.82,1.64-9.07c-0.83,0.69-1.33,1.11-1.76,0.89    c0.62-3.31,1.23-6.61,1.83-9.83c-1.54-1.57-2.85-2.89-3.84-3.9c-0.9,4.42-1.8,8.85-2.73,13.43c0.68,1.26,1.44,2.66,2.25,4.16    C423.77,560.14,424.55,559.11,425.52,558.6z M322.63,480.36c3.22-8.02,3.7-16.34,2.83-24.81c-0.33-0.07-0.65-0.15-0.98-0.22    c-1.62,7.01-3.23,14.03-5.32,21.36c-1.88,6.45-3.77,12.89,0.62,19.64C320.93,490.9,323.01,485.93,322.63,480.36z M419.61,529.09    c0.64,6.93,3.71,12.53,9.4,16.8c-1.36-8.29-2.71-16.59-4.09-25.01c-1.34,1.68-2.65,3.34-3.98,4.44c1.24-3.12,3.36-6.19,3.52-9.37    c0.31-5.92-0.52-11.9-0.88-17.86c-0.25-0.04-0.5-0.07-0.74-0.11c-1.59,6.54-3.5,13.03-4.66,19.65    C417.55,521.2,417.26,525.12,419.61,529.09z M376.59,534.53c-1.51-3.28-3.02-6.56-4.52-9.85c-0.26,0.04-0.52,0.08-0.78,0.11    c0.89,8.61,1.77,17.22,2.68,26.05c2.52,3.53,5.11,7.15,7.69,10.77c-1.5-6.9,1.22-14.05-1.29-20.5c0.47,0.63,0.94,1.27,1.41,1.9    c0.29-0.13,0.57-0.26,0.86-0.39c-1.17-3.22-2.35-6.45-3.03-9.57c0.66,0.95,1.31,1.89,1.97,2.84c-0.14-14.34,3.94-28.22,3.41-42.37    c-0.34-0.09-0.67-0.19-1.01-0.28c-1.82,2.74-3.65,5.48-5.62,7.73c2.68-5.02,5.36-10.05,8.04-15.08c-1.84-4-3.68-8-5.51-11.99    c-6.05,13.76-9.37,29.53-7.98,37.57c1.86-3.29,3.79-6.71,5.61-9.55c-1.35,3.12-2.6,6.28-4.07,9.34    c-2.09,4.36-3.88,8.66-0.38,13.62C375.1,528.13,376.12,531.38,376.59,534.53z M304.43,510.68c-0.62,16.81-1.25,33.61-1.87,50.42    c0.09-0.02,0.19-0.04,0.28-0.05c1.19-6.51,2.38-13.02,3.56-19.53c0.36,0.05,0.71,0.1,1.07,0.16c0,3.47,0,6.94,0,10.41    c1.47-7.72,4.23-15.12,4.32-23.08c0.05-4.08,1.59-8.16,0.18-12.36c0.13-2.68,0.21-5.35,0.41-8.03c0.49-6.55,0.77-13.12,1.67-19.61    c0.49-3.56,0.77-6.96,0.24-10.28c0.48,0.64,0.95,1.29,1.69,2.3c4.25-17.35,8.27-34.28,12.6-51.13c1.78-6.92,4.25-13.67,6.4-20.5    c0.27,0.09,0.54,0.17,0.81,0.26c-2.15,8.71-4.67,17.34-6.35,26.14c-1.68,8.74-3.4,17.58-2.06,26.62    c10.57-31.42,20.17-63.1,28.52-95.29c-10.9-7.49-20.53-15.82-28.24-27.09c-0.58,2.6-0.94,4.34-1.35,6.07    c-2.8,11.73-5.42,23.49-11.6,34.11c-1.48,2.55-2.41,5.65-2.78,8.59c-0.86,6.9-1.33,13.86-1.76,20.81    c-0.99,15.97-1.82,31.96-2.79,47.93c-0.34,5.52-0.89,11.01,3.49,15.44c0.15,0.15,0.13,0.46-0.33,0.64    c-1.15-1.33-2.3-2.66-4.09-4.73c-0.63,12.12-1.25,23.33-1.77,34.54C304.58,505.71,304.82,507.99,304.43,510.68z M332.06,526.4    c0.16-0.9,0.55-1.83,0.45-2.7c-0.44-3.94-1.01-7.87-1.53-11.8c0.06,0,0.12-0.01,0.17-0.01c2.05,6.67,4.1,13.33,6.35,20.65    c3.54-7.6,2.8-14.82,2.42-21.97c-0.37-6.9-3.06-12.95-7.1-18.47c-1.06-1.44-1.89-3.05-2.32-4.52c4.96,5.78,9.46,11.84,11.74,19.36    c1.23-12.44,5.32-23.84,11.09-34.64c1.62-3.02,4.04-5.62,6.09-7.86c-5.4,9.09-8.82,18.91-11.28,29.17    c-1.81,7.54-3.23,15.06-3.67,22.84c-0.29,5.15-1.6,10.23-2.45,15.35c0.87-0.03,1.09-0.14,1.18-0.33    c4.37-8.38,8.76-16.76,13.08-25.18c0.49-0.95,0.73-2.08,0.83-3.16c1.23-13.12,2.42-26.25,3.58-39.37c0.04-0.4-0.35-0.85-0.24-1.71    c0.83-3.28,2.03-6.52,2.44-9.86c2.54-20.57,4.68-41.2,9.7-61.57c-3.43-5.59-6.84-11.15-10.42-16.98    c-12.69,18.88-17.97,39.76-23.39,60.71c5.54-3.3,10.82-6.44,16.09-9.57c0.2,0.31,0.39,0.62,0.59,0.94    c-0.92,0.69-1.88,1.32-2.74,2.07c-4.14,3.6-8.45,7.04-12.28,10.94c-1.78,1.81-3.11,4.4-3.81,6.87c-2.75,9.84-5.06,19.8-7.75,29.66    c-1.19,4.38-1.81,8.52,0.7,12.35c-0.74-0.67-1.47-1.34-2.68-2.45c-0.71,9.84-1.51,19.02-1.92,28.22c-0.08,1.8,1.17,3.75,2.08,5.49    c1.38,2.63,3.01,5.12,3.99,7.65c-2.14-2.97-4.27-5.93-6.41-8.9c-0.35,0.14-0.69,0.28-1.04,0.42c0.39,2.08,0.61,4.2,1.2,6.22    c1.13,3.82,2.5,7.57,3.73,11.37c1.03,3.2,1.99,6.43,3.11,10.06c1.63-3.52,3.04-6.59,4.28-9.26c-0.42-2.03-0.45-3.72-1.14-5.07    c-0.73-1.45-2.1-2.57-3.14-3.88C331.46,527.23,331.52,526.78,332.06,526.4z M243.64,425.51c-0.24,1.3-0.63,2.59-0.71,3.9    c-0.61,9.73-1.24,19.47-1.7,29.21c-0.21,4.53-0.04,9.07-0.04,14.15c0.62-1.43,1.06-2.49,1.54-3.55c2.71-5.96,5-12.17,8.27-17.8    c2.72-4.68,4.24-8.91,1.62-13.7c0.44,0.5,0.88,1.01,1.88,2.15c0.88-14.28,1.71-27.74,2.53-40.88c-7.98-4.57-8.07-12.08-9.18-19.21    c-1.48,7.15-2.54,14.24-3.74,21.3c-0.62,3.66-0.33,7.15,0.32,10.81c0.57,3.17-0.28,6.58-0.51,9.89c-0.31,0-0.62,0-0.93,0    C243.38,422.93,243.76,424.07,243.64,425.51z M393.17,477.55c-0.33,0.78-0.52,1.67-1.03,2.31c-3.2,4.01-3.08,7.87-0.58,12.36    c4.18,7.52,5.6,15.94,6.77,24.39c0.39,2.81,1.34,5.54,2.03,8.3c0.53-3.67,0.13-7.22,0.6-10.64c1.39-10.13,3.15-20.23,0.93-30.44    c-1.07-4.89-2.47-9.71-3.71-15.16c-2.82-10.94-5.65-21.88-8.47-32.82c-0.24-0.02-0.49-0.04-0.73-0.06    c-3.76,8.26-7.51,16.52-11.04,24.29c1.33,2.99,2.32,5.24,3.34,7.54c1.94-1.73,3.84-3.43,6.02-5.38c-1.97,3.41-3.77,6.52-5.71,9.88    c2.07,3.92,4.08,7.72,6.27,11.87C389.91,481.33,391.58,479.15,393.17,477.55z M226.25,308.56c5.65,6.94,11.29,13.87,17.24,21.18    c0.57-3.91,1.08-7.39,1.58-10.83c-6-8.54-11.91-16.96-18.14-25.84c-0.78,5.45-1.43,10.02-2.7,14.65c-0.5,0.65-1.42,1.29-1.45,1.96    c-0.76,19.15-1.44,38.31-2.15,58.28c2.92,4.48,6.37,9.8,9.79,15.05c3.96-16.56,7.85-32.87,11.8-49.4    c-1.18-1.76-2.48-3.67-3.74-5.61C234.24,321.48,230,314.96,226.25,308.56z M385.84,426.9c0.03-0.81,0.27-1.69,0.04-2.43    c-1.44-4.64-2.77-9.33-4.56-13.84c-2.23-5.61-4.88-11.06-7.35-16.58c-0.42,0.02-0.85,0.05-1.27,0.07    c-2.67,17.82-5.34,35.64-8.01,53.46c0.29,0.07,0.59,0.14,0.88,0.21c3.36-6.17,5.76-12.95,11.47-17.8    c-12,16.84-13.41,36.3-14.32,55.94c1.4-2.35,2.81-4.71,4.21-7.06c-0.98,4.04-3.04,7.67-4.05,11.56c-0.99,3.82-1.17,7.92-1.21,11.9    c-0.05,3.96,0.52,7.93,0.81,11.89c0.64-2.32,0.93-4.62,1.45-6.86c1.37-5.92,2.89-11.8,4.26-17.71c2.25-9.71,2.83-19.77,6.49-29.2    c1.58-4.07,2.62-8.35,3.86-12.55c1.22-4.13,2.39-8.28,3.59-11.9c0,0.8,0,1.61,0,2.41c1.94-2.56,3.45-5.26,4.79-8.04    C387.49,429.17,387.89,427.73,385.84,426.9z M285.44,489.19c2.1-4.16,2.13-8.53,0.23-12.6c-1.43-3.05-3.85-5.61-5.68-8.48    c-2.27-3.58-5.05-7.03-6.45-10.94c-4.51-12.61-8.48-25.4-12.66-38.12c-0.42-1.28-0.87-2.54-1.31-3.81    c-3.66,24.83-4.67,49.56-4.36,74.93c2.78-6.29,5.33-12.05,7.88-17.82c0.29,0.12,0.58,0.24,0.87,0.35c-0.17,0.68-0.3,1.37-0.5,2.04    c-2.32,7.68-4.85,15.31-6.89,23.06c-0.8,3.06-0.49,6.41-1.16,9.65c-0.3,0.56-0.87,1.13-0.87,1.69c0.03,7.65,0.03,15.26,2.31,22.76    c1.77,5.81,2.72,11.87,4.18,18.48c2.7-7.12,8.01-13,4.32-20.85c-0.09-0.2-0.01-0.48,0.49-0.91c0.6-4.8,1.28-9.6,1.75-14.41    c0.29-2.98,0.64-6.04,0.28-8.99c-0.94-7.75-1.42-15.46,0.3-23.2c-0.45,10.13,0.15,20.11,4.03,29.87c0.75-0.43,1.25-0.71,1.37-0.48    c0.91,4.88,1.82,9.76,2.87,15.39c2.74-5.4,5.38-9.91,7.34-14.69c1.39-3.39,2.2-7.12,2.64-10.77c0.35-2.84-0.22-5.79-0.47-8.69    C285.85,491.66,285.5,490.69,285.44,489.19z M157.74,506.83c1.25,3.57,2.5,7.13,3.75,10.7c0.13-0.04,0.25-0.07,0.38-0.11    c-1.49-12.75-2.97-25.51-4.46-38.26c0.3-0.05,0.6-0.09,0.9-0.14c7.04,30.95,9.41,62.83,17.84,93.51c0.47-2.49,0.73-4.91,0.9-7.35    c0.55-8.03,1.63-16.07,1.49-24.08c-0.74-42.78-1.78-85.55-2.76-128.32c-0.05-2.29-0.49-4.57-0.75-6.85    c-0.23,0.14-0.47,0.28-0.7,0.42c-1.87-2.09-3.83-4.11-5.58-6.3c-10.62-13.24-21.44-26.33-31.64-39.89    c-3.38-4.49-7.18-6.35-12.43-6.98c-12.57-1.5-24.85,0.26-37.09,2.74c-4.06,0.82-8.05,1.97-12.43,3.06    C101.6,386.89,138.5,448.03,157.74,506.83z M478.67,506.7c4.99-39.46,9.97-78.92,14.94-118.19    c-15.33,13.21-25.72,31.12-38.9,46.83c2.77,55.71,3.85,111.53,11.35,166.91c0.52-4.02,0.5-8.13,1.45-12.01    c0.93-3.82,1.17-7.36-0.13-11.07c-1.4-3.98-2.63-8.01-3.93-12.02c0.11-0.04,0.22-0.08,0.33-0.12c1.12,2.35,2.25,4.7,3.37,7.05    c1.5-48.71,4.06-97.2,8.42-145.58c-1.41,46.42-2.82,92.83-4.23,139.25c0.42,0.03,0.84,0.05,1.26,0.08    C474.59,547.67,476.57,527.51,478.67,506.7z M226.72,392.89c0.7-8.53-3.71-15.14-8.08-21.84c-1.33,12.25-2.44,24.41-3.17,36.6    c-1.29,21.59-2.5,43.19-3.45,64.8c-0.44,10.1-2.4,20.13,1.16,30.33c2.63,7.51,3.29,15.72,4.93,24.17    c1.75-6.72,3.36-12.87,4.96-19.01c0.33,0.05,0.67,0.09,1,0.14c-3.13,13.85-5.8,27.71-2.63,42.31c0.8-2.67,1.68-4.95,2.14-7.31    c2.36-11.97,5.35-23.72,9.7-35.16c1.62-4.25,2.05-8.97,2.84-13.5c0.19-1.11-0.03-2.51-0.58-3.5c-4.34-7.89-8.7-15.78-13.28-23.54    c-2.07-3.51-4.65-6.73-7-10.08c9.47,7.6,15.81,17.53,21.58,28.15c3.45-20.9,2.57-42.1,5.23-62.36    C232.74,414.83,229.12,404.53,226.72,392.89z M309.33,331.63c-0.23-10.51-0.46-21.01-0.68-31.23c-7.4-6.47-7.12-15.75-9.93-24.06    c-4.24,24.8-8.8,49.26-12.44,73.86c-1.67,11.3-2.56,22.92-2.02,34.3c1.22,25.51,3.56,50.96,5.45,76.43    c0.34,4.58,0.7,9.16,1.05,13.74c0.38,0.08,0.75,0.16,1.13,0.23c0.66-1.81,1.67-3.57,1.92-5.43c0.45-3.38,0.09-6.89,0.69-10.22    c2.85-15.71,5.89-31.4,8.93-47.07c0.91-4.66,2.6-9.22,3.01-13.91c0.77-8.76,0.88-17.57,1.25-26.36    C308.25,358.73,308.79,345.55,309.33,331.63z M178.96,446.75c0.69,32.03,1.4,64.06,2.06,96.09c0.11,5.26,0.57,10.34,2.08,15.49    c3,10.25,5.27,20.71,7.4,29.29c0-8.37,0.04-18.5-0.05-28.63c-0.01-1.14-0.7-2.27-1.08-3.41c0.22-0.01,0.43-0.01,0.65-0.02    c-0.84-6.95-1.67-13.89-2.51-20.84c0.22-0.03,0.43-0.06,0.65-0.09c0.4,2.1,0.81,4.21,1.25,6.5c2.09-4.45,1.25-9.77,5.73-13.27    c-3.05-16.38-6.14-32.94-9.27-49.74c9.72,23.92,11.35,49.43,16.85,74.77c2.32-5.43,3.74-10.41,3.94-15.66    c0.53-13.44,0.96-26.88,1.4-40.32c0.04-1.08-0.05-2.21-0.29-3.26c-4.33-18.81-9.85-37.25-17.41-55.03    c-3.8-8.93-7.68-17.82-11.42-26.49C178.94,423.42,178.94,434.73,178.96,446.75z M429.89,386c1.02,6.43,2.04,12.85,3.06,19.21    c4.86-4.06,10.04-8.39,15.2-12.69c-0.54-19.52-1.08-38.9-1.61-58.28c-6.57,9.19-12.62,18.35-18.14,27.81    c-2.73,4.68-5.42,9.74-6.51,14.96c-2.19,10.47-3.47,21.14-4.78,31.77c-1.57,12.72-2.79,25.48-4.13,38.23    c-0.1,0.99-0.01,1.99-0.01,3.19c7.18-8.21,12.14-16.95,11.27-28.82c-2.75-2.56-2.43-6.69-1.68-10.87    c0.93-5.15,1.82-10.32,2.93-15.44c0.8-3.69,1.94-7.31,2.93-10.96c0.26,0.03,0.52,0.06,0.78,0.1    C429.38,384.62,429.57,385.03,429.89,386z M271.23,397.75c-6.49-21.41-15.93-41.48-27.02-60.81c-0.28,0.05-0.56,0.11-0.84,0.16    c-3.86,16.42-7.73,32.85-11.29,47.98c4.14,6.47,7.48,11.71,10.71,16.76c1.81-12.18,3.39-24.94,7.07-38.25    c1.2,1.8,2.1,2.77,2.58,3.93c2.42,5.82,4.99,11.59,6.98,17.56c1.46,4.4,1.97,9.07-0.71,13.23c6.34,9.93,12.54,19.67,18.75,29.4    c0.23-0.11,0.45-0.22,0.68-0.33C277.32,417.37,274.09,407.9,271.23,397.75z M397.62,421.25c5.38-7.43,10.39-15.15,17.07-21.51    c0.22,0.17,0.45,0.33,0.67,0.5c-8.25,11.21-16.5,22.42-24.8,33.69c3.17,12.04,6.31,23.92,9.42,35.75c3.29-4.61,6.55-9,9.59-13.53    c0.9-1.33,1.55-3.03,1.72-4.63c1.49-13.96,2.88-27.93,4.24-41.9c0.99-10.09,1.9-20.19,2.88-30.68    c-11.02,15.03-16.72,32.54-26.36,47.92c0.27,0.16,0.53,0.32,0.8,0.49C394.36,425.47,395.87,423.59,397.62,421.25z M448.29,298    c0.56-9.61,1.13-19.22,1.69-28.83c-1.8,2.96-3.23,6.04-4.72,9.09c-5.59,11.5-11.13,23.02-16.85,34.45    c-1.98,3.95-4.47,7.6-9.42,8.2c-0.73,6.62-1.44,12.99-2.14,19.36c3.64-8.47,7.38-16.84,14.78-23.2c1.76,4.49,1.04,8.6,0.4,12.68    c-1,6.38-2.12,12.76-5.86,18.26c-2.3,3.39-4.84,6.5-9.8,6.3c-1.07,8.29-2.12,16.4-3.16,24.51c3.65-4.82,6.88-9.82,9.89-14.94    c7.91-13.45,15.75-26.95,23.56-40.46c0.52-0.9,0.76-2.05,0.81-3.1C447.78,313.12,448,305.91,448.29,298z M430.58,530.46    c0.08,0.29,0.16,0.58,0.25,0.93c0.69-1.82,1.35-3.55,2.01-5.29c0.21,4.59-0.44,9.03-0.3,13.45c0.22,7.19,1.07,9.14,3.83,12.23    c2.54-14.09,5.09-28.2,7.76-43.04c-0.31-3.3-0.51-7.52-1.16-11.67c-1.21-7.78,0.15-15.78-2.15-23.45    c-0.59-1.98-0.96-4.02-1.51-6.01c-1.65-6.02-3.34-12.04-5.11-18.38c-4.5,5.41-5.27,11.25-5.12,17.96c1.16-1.34,1.9-2.26,2.71-3.1    c0.84-0.87,1.77-1.66,2.66-2.48c-3.65,5.91-7.37,11.5-8.26,18.6c-0.84,6.76-1.3,13.41,0.37,20.25c2.13-3.39,4.11-6.56,6.1-9.73    c0.31,0.12,0.61,0.25,0.92,0.37c-4.66,6.37-8.19,12.95-3.89,21.05c1.59-4.14,3.17-8.25,4.75-12.35    c-0.49,3.51-1.27,6.95-2.65,10.12c-2.11,4.85-2.92,9.75-1.96,14.96C430.15,526.54,430.33,528.24,430.58,530.46z M437.18,449.02    c0.61,1.89,1.21,3.78,1.98,6.15c3.74-3.93,7.07-7.44,10.63-11.18c-0.38-15.83-0.75-31.78-1.13-47.74    c-0.32-0.13-0.64-0.25-0.96-0.38c-4.43,3.97-8.96,7.83-13.22,11.97c-1.39,1.35-2.42,3.31-3.02,5.19c-1.19,3.68-2.8,6.96-6.1,9.17    c-0.28,3.36-0.55,6.65-0.82,9.93c0.22,0.05,0.44,0.09,0.67,0.14c1.82-2.65,3.64-5.3,5.8-8.46c0.85,4.8,1.58,8.96,2.36,13.38    c1.32-1.77,2.3-3.07,3.27-4.38c0.24,0.11,0.47,0.21,0.71,0.32c-2.55,3.51-3.74,7.15-1.69,11.24    C436.29,445.66,436.69,447.07,437.18,449.02z M281.02,377.81c0-6.72,0-13.43,0-19.9c-6.58-9.23-15.24-15.65-23.43-22.68    c-0.36,2.57-0.03,4.95-0.43,7.2c-1.03,5.87,0.79,10.72,3.76,15.78c8.77,14.95,16.18,30.57,21.04,47.29    C281.66,396.51,281.35,387.52,281.02,377.81z M384.23,545.01c2.23,4.05,4.46,8.11,6.87,12.47c1.26-3.42,2.34-6.6,3.6-9.7    c1.66-4.08,1.8-8.05,0.8-12.43c-3.01-13.29-6.35-26.55-6.92-40.28c-0.08-2.07-0.82-4.11-1.25-6.16c-0.41,0.03-0.81,0.06-1.22,0.09    c-0.11,1.6-0.29,3.2-0.32,4.81c-0.07,4,0.16,8.02-0.14,12c-0.43,5.59-1.6,11.13-1.8,16.72    C383.6,529.81,383.97,537.12,384.23,545.01z M493.3,604.29c1.72-18.93,3.44-37.87,5.2-57.21c-1.81,2.65-3,5.36-5.02,7.1    c-2.39,2.05-3.38,4.3-3.49,7.24c-0.19,5.01-0.54,10.01-0.64,15.02c-0.11,5.54-0.03,11.08-0.03,15.92    c0.25-1.58,0.63-3.93,1.01-6.27c0.57,2.78,0.62,5.53,0.56,8.28c-0.28,12.58-0.63,25.17-0.83,37.75c-0.03,2.17,0.56,4.35,0.87,6.52    c0.23-0.02,0.45-0.03,0.68-0.05C492.14,627.38,492.67,616.17,493.3,604.29z M481.92,609.81c0.38,1.85,0.75,3.69,1.13,5.54    c0.23-0.04,0.47-0.08,0.7-0.12c-1.4-8.22-2.81-16.44-4.21-24.67c0.2-0.04,0.4-0.09,0.6-0.13c1.21,4,2.42,8,3.62,11.97    c1.74-14.83,3.46-29.53,5.25-44.88c-3.98,6.17-9.17,11.03-9.61,18.51c-0.52,9.01-1.38,18.01-1.68,27.02    c-0.31,9.29,1.6,18.3,4.56,27.06c0.26-0.03,0.52-0.07,0.78-0.1c-1.09-9.01-2.17-18.02-3.26-27.03c0.14-0.03,0.28-0.05,0.43-0.08    C480.78,605.01,481.31,607.11,481.92,609.81z M189.04,600.27c-0.69-15-4.7-29.42-7.85-44.06c-0.87,7.82-2.25,15.76-1.22,23.38    c2.05,15.03,5.43,29.88,8.26,44.8c0.27-0.04,0.54-0.08,0.81-0.12C189.05,616.51,189.05,608.75,189.04,600.27z M418.01,464.39    c0.5-5.41,1-10.83,1.53-16.55c-6.17,5.23-8.36,11.79-8.8,19.24c-0.31,5.21-0.74,10.42-1.46,15.58    c-0.96,6.79-1.43,13.43,2.74,20.55c0.8-4.44,1.46-8.06,2.12-11.69C417.07,482.96,416.82,473.9,418.01,464.39z M315.14,303.92    c-0.58-3.93-1.17-7.87-1.75-11.8c-1.56,3.16-3.38,6.53-3.41,9.93c-0.08,8.77,0.73,17.55,1,26.34c0.18,6.06,0.03,12.12,0.03,18.18    c0.32,0.02,0.63,0.04,0.95,0.06c0.18-0.27,0.43-0.52,0.54-0.82c2.25-6.03,4.56-12.04,6.67-18.12c0.45-1.29,0.47-2.89,0.19-4.24    C318.09,317.12,316.64,310.84,315.14,303.92z M252.21,451.11c-2.39,6.09-4.59,12.27-7.24,18.25c-2.15,4.85-1.91,9.33,0.46,13.96    c2.58,5.04,4.05,10.42,4.29,16.12c0.09,2.18,0.37,4.34,0.56,6.51c0.27,0.01,0.53,0.01,0.8,0.02c0.12-1.27,0.3-2.54,0.34-3.81    c0.18-5.85,0.26-11.71,0.48-17.56c0.41-11.1,0.88-22.19,1.28-33.29C253.18,451.11,252.65,450.9,252.21,451.11z M426.19,591.52    c-0.47,4.82-0.13,9.36,3.87,12.38c6.17-17.36,4.62-34.76-0.53-51.59C428.46,564.83,427.33,577.83,426.19,591.52z M304.84,443.67    c0.44-11.87,0.87-23.74,1.31-35.61c-0.26-0.04-0.53-0.08-0.79-0.13c-3.01,16.84-6.01,33.69-8.9,49.87    c2.68,3.01,4.63,5.2,7.15,8.03C304.05,458.01,304.43,451.19,304.84,443.67z M432.67,443.99c-1.07-4.4-2.14-8.81-3.23-13.27    c-5.89,7.54-11.04,26.7-9.41,35.75c4.7-6.46,9.18-12.62,13.43-18.46C433.14,446.48,432.94,445.53,432.67,443.99z M399.05,571.64    c-2.36,10.03-4.79,20.05-7.05,30.1c-0.58,2.58-0.99,5.3-0.86,7.93c0.22,4.68,0.9,9.33,1.39,14c0.39,0.04,0.77,0.07,1.16,0.11    c1.3-8.35,2.6-16.7,3.8-24.41c0.02,0.22,0.12,1.13,0.28,2.63c2.71-6.42,3.76-12.49,3.17-18.88c0.19,0.59,0.38,1.18,0.81,2.48    C402.36,580.03,401.39,575.52,399.05,571.64z M447.99,549.86c-0.92-8.1-1.83-16.19-2.74-24.16c-1.17,7.18-2.56,14.59-3.55,22.05    c-1.21,9.07-2.17,18.19,2.64,26.83C447.01,566.75,450.31,559.08,447.99,549.86z M303.38,470.62c0.14-4.64-3.67-6.74-6.34-10.61    c-0.74,8.75-2.17,16.57,1.04,24.22c-0.25,0.06-0.93,0.17-0.92,0.23c0.55,6.74-0.73,13.87,4.3,19.97    c-0.22-5.37,1.77-10.61-1.62-15.98c1,0.76,1.49,1.13,2.41,1.82C302.64,483.62,303.02,477.44,303.38,470.62z M211.73,560.78    c0.33,3.64,0.66,7.27,1.04,11.55c2.95-8.65,5.7-16.74,4.72-25.43c-1.45-12.79-3.16-25.55-4.76-38.32    c-0.32,0.03-0.64,0.06-0.96,0.09c0.32,8,0.64,16,0.96,24c0.16,0,0.31,0,0.47,0c0.14-2.26,0.28-4.52,0.43-6.78    c0.24-0.01,0.49-0.03,0.73-0.04c0.31,4.91,0.62,9.82,0.94,14.99c-1.02-0.34-1.44-0.48-2.09-0.69    C212.06,546.77,210.6,553.33,211.73,560.78z M194.19,597.13c1.28,2.31,2.56,4.63,3.84,6.94c0.96-9.15,1.28-18.06,1.69-26.96    c0.31-6.73-1.3-11.22-5.97-16.25c0,9.74-0.02,19.62,0.02,29.5C193.77,592.42,193.96,594.48,194.19,597.13z M384.31,581.92    c1.31-3.36,0.64-6.4-0.62-9.76c-2.47-6.61-5.47-12.8-10.7-18c2.47,12.59,4.95,25.17,7.42,37.76c0.28-0.03,0.56-0.06,0.84-0.08    C382.25,588.73,383.25,585.62,384.31,581.92z M248.52,520.43c-7.78,14.02-4.7,30.93,1.49,43.28c0-7.71,0-15.16,0-22.61    c0-7.55,0-15.1,0-23.37C249.27,518.92,248.96,519.43,248.52,520.43z M296.82,502.09c-1.75,13.38-0.86,49.53,1.38,53.48    c1.44-3.44,1.11-6.62-0.46-9.12c1.77-5.36,1.47-10.33,0.9-15.52c3.61-5.02,2.65-26.28-1.64-31.3    C296.96,500.33,296.91,500.94,296.82,502.09z M309.33,594.94c0.67-4.71,1.37-9.41,2-14.13c0.76-5.7,2.04-11.52-2.87-16.11    c-3.52,17.47-2.87,35.18-2.41,52.9c0.44-1.76,0.87-3.53,1.11-5.32C307.89,606.73,308.56,601.16,309.33,594.94z M351.6,535.18    c1.97-7.88,4.62-15.64,4.43-23.96c-3.77,6.98-6.97,14.2-10.72,21.12c-2.93,5.42-1.15,9.88,1.79,15.08    C348.66,543.16,350.02,539.45,351.6,535.18z M242.27,478.11c-0.83,3.16-1.78,6.3-2.46,9.49c-0.34,1.62-0.75,3.56-0.19,4.98    c2.58,6.6,5.48,13.07,8.27,19.58c0.98-1.33,1.57-2.52,1.46-3.65c-0.69-7.38-0.53-14.9-3.61-21.9    C244.56,483.95,243.63,481.18,242.27,478.11z M418.33,616.72c-0.51,10.85-0.34,21.66,2.27,32.36c0.89,0.34,1.82,0.69,3.07,1.17    c1.12-14.03-0.93-27.27-3.8-40.42c-0.24,0.02-0.48,0.05-0.72,0.07C418.9,611.96,418.66,614.01,418.33,616.72z M440.79,462.38    c1.17,4.3,2.35,8.59,3.44,12.61c6.73-8.17,6.04-17.58,5.24-26.08c-3.16,2.76-6.62,5.77-9.99,8.71    C439.95,459.25,440.31,460.53,440.79,462.38z M246.88,514.93c-2.35-5.96-4.71-11.92-7.06-17.89c-2.24,7.14-1.55,19.22,1.3,32.02    C243.11,524.13,244.88,519.79,246.88,514.93z M252.72,344.96c0.7,0.85,1.4,1.71,2.61,3.19c0.26-5.39,0.48-9.87,0.66-13.74    c-3.36-4.72-6.33-8.91-9.5-13.36c-0.76,3.85-1.44,7.28-2.1,10.63C247.14,336.09,249.77,340.32,252.72,344.96z M242.76,561.96    c-1.08-4.69-2.16-9.37-3.42-14.83c-1.61,6.76-2.85,12.61-1.94,18.81c0.87,5.85-0.94,12.02,1.74,18.2    c6.48-6.31,2.56-12.75,1.6-19.11c0.75,1.05,1.5,2.1,2.25,3.15c0.18-0.08,0.36-0.16,0.54-0.23    C243.3,566.16,243.08,564.37,242.76,561.96z M270.49,551.83c0.32-4.09-0.53-7.92-2.68-12.1c-1.97,6.29-3.95,12.01-5.52,17.85    c-0.85,3.17-0.04,6.31,1.86,9.29c2.1-2.7,3.99-5.11,6.33-8.11C270.47,557.17,270.47,554.85,270.49,551.83z M220.64,569.72    c-3.32,9.5-2.66,18.89,0.85,28.25c0.76-1.16,1.38-2.34,1.61-3.58c0.78-4.3,1.51-8.61,2.07-12.94c0.21-1.61,0.18-3.35-0.21-4.91    c-0.38-1.49-1.49-2.78-2.07-4.23c-0.56-1.41-0.85-2.92-1.35-4.7C221.15,568.36,220.94,568.79,220.64,569.72z M232.72,517.68    c-2.6,7.51-4.96,15.07-3.99,23.2c2.34-2.04,4.39-4.11,6.18-6.38c0.87-1.1,1.82-2.6,1.77-3.88c-0.25-6.08-0.83-12.14-1.3-18.21    c-0.21,0-0.42,0-0.63,0.01C234.16,514,233.56,515.58,232.72,517.68z M154.5,643.65c0.38,1.72,0.76,3.45,1.14,5.17    c-2.48-25.65-9.71-50.06-18.83-74.43C142.72,597.58,148.53,620.32,154.5,643.65z M364.13,643.97c0.49,1.09,0.97,2.19,1.46,3.28    c0.37-0.08,0.75-0.17,1.12-0.25c1.88-11.73,2.7-23.47-0.52-35.26c-0.53,1.11-0.89,2.24-0.98,3.39    c-0.49,6.81-0.97,13.62-1.34,20.44C363.73,638.21,363.87,640.85,364.13,643.97z M192.96,553.58c2.1,4.19,4.2,8.37,6.3,12.56    c0.41-0.12,0.81-0.23,1.22-0.35c-1.68-10.43-3.37-20.86-5.05-31.29c-0.26,0.01-0.51,0.03-0.77,0.04c-0.57,2.45-1.19,4.9-1.7,7.36    C192.21,545.59,191.13,549.29,192.96,553.58z M407.05,483.44c0.97-7.67,1.95-15.34,2.97-23.37c-9.21,10.25-10.37,18.57-4.15,28.95    C406.26,487.25,406.62,485.65,407.05,483.44z M445.81,487.44c0.54,5.57,1.09,11.14,1.71,17.51c5.14-12.22,1.65-23.91,1.85-35.48    C447.05,475.04,443.81,480.38,445.81,487.44z M448.17,594.41c1.09,4.6,2.19,9.21,3.28,13.81c0.21-0.03,0.42-0.06,0.63-0.09    c-0.64-13.29-1.28-26.58-1.92-39.87C447.19,576.63,445.08,585.03,448.17,594.41z M164.12,639.61c1.05-15.22-2.97-29.63-6.99-44.04    c-0.29,0.04-0.58,0.08-0.87,0.13c2.3,15.91,4.6,31.82,6.9,47.73c0.27-0.03,0.55-0.05,0.82-0.08    C164.03,642.31,164.07,641.28,164.12,639.61z M422.41,579.6c3.48-8.5-0.07-15.48-4.81-22.21c0.55,10.24,1.1,20.49,1.66,30.73    c0.28,0.02,0.55,0.04,0.83,0.07C420.83,585.53,421.57,582.87,422.41,579.6z M325.6,548.89c-3.27,7.07-4.53,14.43-3.3,22.31    c6.81-5.64,7.9-14.1,4.31-25.5C326.33,546.58,326.03,547.47,325.6,548.89z M450.95,541.67c0.36,2.08,0.72,4.15,1.09,6.23    c0.19-0.02,0.38-0.05,0.58-0.07c-0.57-15.33-1.13-30.66-1.7-45.99c-0.34,0-0.68,0-1.01,0.01    C447.47,514.91,449.45,527.97,450.95,541.67z M229.62,559.29c-0.76-2.74-1.52-5.48-2.45-8.85c-5.17,13.2-5.22,19.25-0.16,24.36    C227.92,569.67,228.78,564.81,229.62,559.29z M284.39,532.51c-3.1,6.29,0.67,11.41,2.88,16.82c1.09-8.3,2.86-16.56,1.13-25.52    C284.09,525.76,285.38,529.32,284.39,532.51z M324.19,607.59c0.38-3.74,0.68-7.49,1.17-11.21c0.49-3.73,0.34-7.14-3.38-9.77    c-1.98,4.77-2.38,9.32-0.87,14.01c0.17,0.52,0.23,1.08,0.28,1.62c0.38,4.78,0.75,9.56,1.13,14.35c0.45-0.02,0.89-0.03,1.34-0.05    C323.97,613.79,324.08,611.04,324.19,607.59z M261.83,589.03c-0.24-0.3-0.49-0.6-0.73-0.89c-0.2,0.13-0.4,0.27-0.61,0.4    c-0.12-0.7-0.25-1.41-0.37-2.11c-1.23,10.38,2.35,19.77,5.96,29.22c0.42-2.24,0.79-4.54,0.35-6.68    C265.11,602.43,263.47,595.97,261.83,589.03z M285.67,587.18c0.42,0.85,0.84,1.7,1.26,2.56c1.12-7.64,5.56-14.83,2.02-23.04    C284.04,572.99,282.56,579.45,285.67,587.18z M254.14,539.11c0,9.97,0,19.94,0,29.91c0.27,0.02,0.53,0.04,0.8,0.06    c0.92-4.12,2.73-8.27,2.58-12.36c-0.28-7.8-1.68-15.56-2.61-23.34c-0.25,0.01-0.5,0.03-0.75,0.04    C254.15,535.1,254.15,536.78,254.14,539.11z M389.25,563.9c0.89-6.27-3.37-10.42-6.01-15.25c-0.08,3.98,0.28,7.84,0.35,11.71    c0.08,4.07,0.73,7.89,3.38,11.39C387.67,569.23,388.33,566.84,389.25,563.9z M390.62,500.85c1.16,9.77,6.54,32.8,8.14,34.9    c0.06-9.6-5.6-35.76-8.6-39.3C390.29,497.83,390.4,499.04,390.62,500.85z M403.43,605.17c-2.19,9.61-3.38,19.31-2.61,29.18    c2.52-5.78,3.7-11.83,3.78-18.03c0.05-3.99-0.35-7.99-0.57-11.99c0-0.01-0.34-0.02-0.51,0.02    C403.48,604.36,403.49,604.58,403.43,605.17z M282.44,564.55c0.21,1.39,0.43,2.77,0.73,4.75c1.96-2.14,3.56-3.88,5.46-5.97    c-1.93-5.88-3.87-11.77-5.8-17.66c-0.15,0.04-0.3,0.08-0.45,0.12C282.39,551.83,282.39,557.87,282.44,564.55z M263.17,580.45    c-0.76,7.23,1.82,13.76,4.36,21.06c-0.18-10,1.42-19.52-4.38-27.98C263.16,575.6,263.16,577.67,263.17,580.45z M339.14,591.09    c-0.8,5.05-0.18,9.93,2.19,14.75c1.17-3.01,2.62-6.16,2.41-9.19c-0.32-4.64-1.8-9.2-2.78-13.79c-0.22,0.01-0.44,0.03-0.66,0.04    C339.95,585.42,339.61,587.93,339.14,591.09z M415.9,508.67c2.17-8.58,4.35-17.15,6.52-25.73c-8.69,8.99-7.3,20.32-7.58,31.26    C415.16,512.56,415.48,510.91,415.9,508.67z M424.02,473.95c0.68-3.81,1.35-7.61,2.08-11.72c-7.07,6.48-8.05,14.73-8.16,23.36    C419.91,481.89,421.88,478.2,424.02,473.95z M344.01,577.36c0.98,2.81,1.96,5.62,2.97,8.55c4.92-6.09,2.68-11.73-0.43-17.61    c-1.14,1.69-2.19,3.25-3.26,4.83C343.52,574.41,343.73,575.59,344.01,577.36z M233.98,542.97c-0.26-1.27-0.53-2.54-0.79-3.81    c-5.02,6.73-2.01,13.54-1.09,20.31C234.43,554.38,235.12,549.1,233.98,542.97z M224.37,637.66c-0.34,2.73-0.69,5.45-1.06,8.39    c1.67,0.54,2.79,0.91,4.33,1.41c0-8.09,0-15.55,0-23.01c-0.19-0.04-0.38-0.08-0.57-0.12C226.18,628.57,225.3,632.8,224.37,637.66z     M374.07,589.31c0.54,3.22,1.06,6.44,1.63,9.66c0.54,3.09,1.13,6.18,1.69,9.27c-0.1-13.79-3.21-27.11-6.26-40.44    c0.06,4.02,0.58,7.97,1.22,11.9C372.84,582.69,373.49,585.66,374.07,589.31z M444.52,617.78c0.31,5.42,0.45,10.87,2.5,16.43    c1.87-5.23,1.22-12.73-2.5-28.05C444.51,609.8,444.51,613.43,444.52,617.78z M325.6,540.64c-0.76-2.39-1.52-4.77-2.42-7.58    c-2.37,5.58-3.72,17.12-2.54,19.52c1.61-2.85,3.33-5.75,4.86-8.74C325.88,543.13,325.64,542.1,325.6,540.64z M343.27,554.33    c-0.58-2.68-1.16-5.36-1.74-8.03c-0.4,0.03-0.81,0.06-1.21,0.08c-0.98,4.03-1.96,8.05-2.75,11.3c1.36,1.64,2.51,3.02,3.84,4.62    C342.03,559.72,342.62,557.32,343.27,554.33z M267.2,524.91c-0.65,3.7,0.73,6.93,2.11,10.71c4.41-6.57,0.11-12.16-0.11-17.94    c-0.25-0.01-0.51-0.03-0.76-0.04C268.06,519.86,267.69,522.08,267.2,524.91z M417.42,542.04c-2.67,4.71-1.2,8.79,2.07,13.34    c0.66-2.62,1.32-4.56,1.61-6.56C421.52,545.78,420.95,543.05,417.42,542.04z M330.75,578.91c-0.22-4.52-0.43-9.03-0.65-13.55    c-0.26-0.01-0.51-0.02-0.77-0.03c-1.53,2.5-3.06,5-4.39,7.18c2.01,2.84,3.79,5.36,5.62,7.96    C330.63,580.09,330.69,579.76,330.75,578.91z M310.72,558.65c0.63,2.79,1.27,5.59,1.9,8.38c0.47-0.08,0.95-0.17,1.42-0.25    c-0.7-7.81-1.4-15.62-2.11-23.43c-0.11-0.02-0.21-0.04-0.32-0.06C311.28,548.2,310.94,553.12,310.72,558.65z M196.96,607.59    c-0.86-2.54-1.73-5.08-2.59-7.62c-0.33,0.07-0.66,0.14-0.99,0.21c0,6.38,0,12.75,0,19.13c0.11,0.07,0.21,0.13,0.32,0.2    C194.78,615.73,195.85,611.95,196.96,607.59z M247.04,587.73c-0.73-3.29-1.46-6.57-2.31-10.43c-0.88,3.68-1.58,6.58-2.2,9.18    c1.88,3.14,3.64,6.08,5.41,9.02c0.26-0.09,0.51-0.19,0.77-0.28C248.16,592.92,247.61,590.63,247.04,587.73z M374.69,477.58    c0.92-1.71,1.61-3.6,2.81-5.1c2.56-3.2,1.53-6.26,0.35-9.41c-0.3-0.06-0.6-0.13-0.9-0.19c-1.58,6.05-3.17,12.1-4.75,18.16    c0.25,0.08,0.51,0.17,0.76,0.25C373.44,480.21,373.93,479.13,374.69,477.58z M355.67,557.1c-0.39-1.97-0.78-3.95-1.24-6.26    c-3.14,1.9-3.66,4.3-3.06,6.94c0.48,2.1,1.47,4.02,4.31,4.58C355.69,560.64,355.69,559.19,355.67,557.1z M230.82,575.02    c0.45,1.31,0.89,2.62,1.34,3.93c0.42-0.08,0.83-0.17,1.25-0.25c0.29-4.89,0.58-9.79,0.87-14.68c-0.49-0.06-0.97-0.12-1.46-0.19    C232.18,567.35,231.54,570.87,230.82,575.02z M268.34,564.49c-1.05,1.45-2.09,2.9-2.98,4.13c1.04,3.51,1.96,6.57,2.87,9.64    c0.19-0.04,0.38-0.09,0.56-0.13C268.79,573.51,268.79,568.89,268.34,564.49z M265.2,628.21c0.98-8.08-3.13-15.12-4.54-22.72    c-0.3,0.07-0.61,0.13-0.91,0.2C261.54,613.32,263.34,620.95,265.2,628.21z M233.49,635.71c0-8.86,0-17.73,0-26.59    c-0.24,0-0.48,0-0.72,0c0,8.85,0,17.69,0.02,26.54C232.79,635.79,233.11,635.92,233.49,635.71z M217.47,596.86    c-0.29-1.82-0.59-3.64-0.88-5.46c-0.21,0.01-0.42,0.03-0.63,0.04c0,5.98,0,11.97,0,17.59    C218.12,605.68,218.32,601.65,217.47,596.86z M358.63,369.93c-0.38-0.27-0.77-0.54-1.41-1c-1.23,4.1-2.39,7.99-3.56,11.88    c0.24,0.1,0.47,0.2,0.71,0.29c2.07-2.79,4.15-5.58,6.3-8.48C360.09,371.8,359.55,371.02,358.63,369.93z M328.25,590.71    c1.89-4.74-0.92-8.24-3.21-12.38c-0.66,1.75-1.16,3.09-1.64,4.36C324.95,585.35,326.4,587.87,328.25,590.71z M359.28,537.15    c-0.04-0.33-0.07-0.67-0.13-1.27c-4.02,4.09-4.15,8.6-1.89,13.54C357.93,545.51,358.6,541.6,359.28,537.15z M408.71,525.77    c0.79,2.56,1.59,5.12,2.38,7.67c0.33-3.12,0.45-6.17,0.3-9.21c-0.11-2.27-0.58-4.52-0.88-6.77c-0.18-0.03-0.36-0.05-0.54-0.08    C409.51,519.98,409.05,522.57,408.71,525.77z M314.82,497.2c-0.19,1.33-0.4,2.65-0.55,3.98c-0.16,1.45-0.32,2.91-0.36,4.37    c-0.03,1.2,0.11,2.41,0.17,3.62c0.27,0,0.53,0,0.8,0c1-5.18,2.8-10.29,0.73-15.72C315.43,494.52,315.23,495.58,314.82,497.2z     M318.55,536.05c-0.66-1.23-1.33-2.46-1.99-3.7c-0.22,0.06-0.44,0.11-0.66,0.17c0,4.57,0,9.13,0,13.7c0.33,0.04,0.66,0.09,1,0.13    C317.47,543.1,318.05,539.85,318.55,536.05z M227.44,609.79c0,1.19,0,2.37,0,3.56c2.67-4.31,3.17-9.05,3.51-14.51    C228.19,602.25,227.92,605.75,227.44,609.79z M337.32,561.89c0,4.12,0,8.23,0,12.35c0.44,0.03,0.88,0.07,1.32,0.1    c0.52-3.23,1.25-6.45,1.44-9.71C340.13,563.73,338.64,562.72,337.32,561.89z M434.8,602.92c1.26-5.34,2.52-10.69,3.79-16.03    c-2.46,6.27-5.33,12.43-4.99,19.45C433.95,605.39,434.3,604.45,434.8,602.92z M389.77,573.32c0.13,1.74,0.26,3.48,0.4,5.21    c1.64-4.57,3.35-9.04,1.49-13.88C391.07,567.35,390.5,570.04,389.77,573.32z M243.4,596.27c0.41,2.92,0.81,5.85,1.3,9.34    c3.24-4.39,2.71-8.12-1-10.98C243.64,595,243.58,595.36,243.4,596.27z M349.76,613.63c0.57-3.41,3.07-6.6,0.72-10.41    c-1.06,4.42-2.12,8.83-3.18,13.25c0.26,0.06,0.51,0.12,0.77,0.18C348.61,615.79,349.17,614.93,349.76,613.63z M290.7,488.4    c-0.57,2.95,1.2,4.75,3.05,6.85c0-3.49,0-6.58,0-9.67c-0.21-0.09-0.41-0.18-0.62-0.28C292.44,486.19,291.75,487.08,290.7,488.4z     M259.71,576.81c1.08-2.31,2.17-4.63,3.26-6.95c-0.7-1.81-1.36-3.52-2.02-5.24c-0.26,0.05-0.52,0.1-0.78,0.15    C259.99,568.63,259.8,572.49,259.71,576.81z M317.55,615.62c0.65,3.67,1.29,7.35,1.94,11.02c0.14-0.03,0.28-0.07,0.42-0.1    c-1-7.91-2-15.82-2.99-23.73c-0.04-0.01-0.07-0.01-0.11-0.02C317.04,606.85,317.26,610.9,317.55,615.62z M270.62,517.93    c0.92,2.31,1.83,4.61,2.75,6.92c0.36-0.12,0.72-0.24,1.09-0.37c-1.1-4.27-2.2-8.54-3.3-12.82c-0.28,0.03-0.55,0.06-0.83,0.08    C270.41,513.62,270.49,515.49,270.62,517.93z M238.61,632.11c0,3.01,0,6.02,0,9.03c0.4,0,0.8,0,1.19,0c0-4.76,0-9.51,0-14.27    c-0.3-0.01-0.59-0.02-0.89-0.03C238.82,628.38,238.72,629.93,238.61,632.11z M239.69,616.88c-0.11-0.04-0.23-0.11-0.34-0.11    c-0.07,0-0.21,0.1-0.21,0.14c0.88,4.77,1.78,9.54,2.67,14.3c0.47-0.1,0.94-0.21,1.41-0.31C242.11,626.38,241,621.87,239.69,616.88    z M352.73,572.8c0.27-3.64-0.23-7.02-3.4-10.15C349.12,567.06,350.67,570.21,352.73,572.8z M246.6,571.64    c0.73,3.49,1.46,6.98,2.19,10.47c0.32-0.06,0.65-0.13,0.97-0.19c-0.81-4.38-1.63-8.76-2.44-13.14c-0.28,0.05-0.57,0.1-0.85,0.15    C246.52,569.65,246.57,570.37,246.6,571.64z M479.87,642.43c0.49,1.05,0.98,2.1,1.48,3.15c0.25-0.06,0.5-0.12,0.75-0.18    c-0.27-4.09-0.54-8.18-0.81-12.26c-0.14,0.02-0.28,0.04-0.42,0.06C480.52,636.08,480.17,638.96,479.87,642.43z M184.46,636.44    c-0.56-3.67-1.12-7.33-1.68-11c-0.31,0.05-0.62,0.09-0.93,0.14c0.51,4.25,1.02,8.51,1.53,12.76c0.16-0.01,0.32-0.03,0.48-0.04    C184.04,637.85,184.21,637.4,184.46,636.44z M477.1,629.72c0.23,1.03,0.45,2.06,0.71,3.26c1.54-4.64,1.26-8.47-0.8-11.24    C477.01,624.25,477.01,626.68,477.1,629.72z M205.13,568.54c0.28-3.36,0.56-6.72,0.84-10.08c-0.83,3.17-1.39,6.37-1.69,9.59    c-0.31,3.24-0.37,6.5-0.54,9.76c0.1,0,0.2,0.01,0.29,0.01C204.39,574.94,204.74,572.08,205.13,568.54z M276.33,545.6    c0.14,0.13,0.28,0.27,0.44,0.37c0.05,0.03,0.25-0.09,0.27-0.17c0.8-3.92,1.59-7.85,2.38-11.77c-0.36-0.06-0.73-0.13-1.09-0.19    C277.65,537.58,276.98,541.33,276.33,545.6z M235.23,541.99c0.08,0.46,0.16,0.93,0.23,1.39c0.15,0.01,0.31,0.03,0.46,0.04    c0.59-3.09,1.19-6.19,1.78-9.28c-0.27-0.08-0.54-0.16-0.81-0.24c-0.8,1.29-1.6,2.59-2.38,3.85    C234.75,539.08,234.96,540.26,235.23,541.99z M403.26,510.61c-0.28,3.06-0.57,6.12-0.85,9.19c0.38,0.01,0.76,0.03,1.14,0.04    c0-6.2,0-12.4,0-18.6c-0.1-0.01-0.21-0.02-0.31-0.03C403.24,504.1,403.24,507,403.26,510.61z M336,601.47c0,3.53,0,7.06,0,10.59    C338,608.37,337.36,604.7,336,601.47z M240.58,595.83c0.09,0.3,0.19,0.6,0.31,0.97c2.3-3.81,2.28-5.04-0.87-8.05    C240.22,591.48,240.37,593.41,240.58,595.83z M242.82,612.93c-0.11-0.59-0.23-1.18-0.34-1.76c-1.09,3.25-0.84,6.32,0.8,9.21    c0.31-0.05,0.62-0.09,0.93-0.14C243.79,617.97,243.38,615.71,242.82,612.93z M291.48,485.17c2.17-1.88,2.16-4.19,1.45-7.13    C291.07,480.3,289.62,482.17,291.48,485.17z M183.94,620.65c-0.56-2.18-1.12-4.37-1.68-6.55c-0.29,0.08-0.59,0.16-0.88,0.24    c0.84,3.41,1.68,6.82,2.52,10.23c0.29-0.07,0.58-0.14,0.87-0.21C184.52,623.31,184.28,622.26,183.94,620.65z M409.38,548.23    c0.04,0.44,0.07,0.88,0.11,1.32c0.17,0.01,0.33,0.03,0.5,0.04c0.57-4.15,1.13-8.3,1.7-12.45c-0.29-0.04-0.58-0.08-0.87-0.12    C410.34,540.58,409.87,544.14,409.38,548.23z"/>

<path d="M402.22,238.98c-2.81,3.41-5.47,6.59-8.16,9.82c-5.33-7.11-2.39-13.81-0.01-20.05c2.37-6.19,6.05-11.88,9.21-17.76    c0.44-0.81,1.2-1.44,2.12-2.51C408.05,219.28,406.17,229.11,402.22,238.98z"/>

<path d="M381.48,285.84c0.7-3.16,1.17-6.39,2.1-9.49c1.82-6.04,3.89-12,5.85-17.99c0.23,0.07,0.46,0.14,0.69,0.21    c-2.75,8.98-5.5,17.95-8.48,27.07C381.42,285.8,381.46,285.83,381.48,285.84z"/>

<path d="M335.14,377.61c0.56-3,1.1-5.67,1.63-8.33c0.43-0.06,0.87-0.11,1.3-0.17c1.42,3.52,3.32,6.94,4.12,10.59    c1.06,4.83,1.48,9.83,1.75,14.79c0.2,3.54-1.15,6.71-4.76,9.01c-0.73,7.4-1.48,15.02-2.23,22.64c-0.24-0.02-0.48-0.03-0.73-0.05    c0.43-5.9,0.68-11.83,1.38-17.7c0.34-2.85,0.22-5.34-0.88-8.07c-2.28-5.63-2.25-11.66-2.05-17.64    C334.74,381.1,334.97,379.52,335.14,377.61z"/>

<path d="M282.83,492.43c-0.51,1.33-1.2,2.82-2,4.26c-1.05,1.89-2.18,3.73-3.49,5.76c0.29-2.8,0.79-5.78,1.23-8.38    c0.12,0.21,0.59,1.04,1.21,2.12C280.77,494.92,281.69,493.74,282.83,492.43z"/>

</g>

</g>

</svg>