<?xml version="1.0" ?>

<!-- Uploaded to: SVG Repo, www.svgrepo.com, Generator: SVG Repo Mixer Tools -->
<svg width="800px" height="800px" viewBox="-52.05 0 684.34 684.34" id="Layer_1" version="1.1" xml:space="preserve" xmlns="http://www.w3.org/2000/svg" xmlns:xlink="http://www.w3.org/1999/xlink">

<style type="text/css">
	.st0{clip-path:url(#SVGID_2_);}
	.st1{clip-path:url(#SVGID_4_);}
	.st2{clip-path:url(#SVGID_6_);}
	.st3{clip-path:url(#SVGID_8_);}
	.st4{clip-path:url(#SVGID_10_);}
	.st5{clip-path:url(#SVGID_12_);}
	.st6{clip-path:url(#SVGID_14_);}
	.st7{clip-path:url(#SVGID_16_);}
	.st8{clip-path:url(#SVGID_18_);}
	.st9{clip-path:url(#SVGID_20_);}
	.st10{clip-path:url(#SVGID_22_);}
	.st11{clip-path:url(#SVGID_24_);}
	.st12{clip-path:url(#SVGID_26_);}
	.st13{clip-path:url(#SVGID_28_);}
	.st14{clip-path:url(#SVGID_30_);}
	.st15{clip-path:url(#SVGID_32_);}
	.st16{clip-path:url(#SVGID_34_);}
	.st17{clip-path:url(#SVGID_36_);}
	.st18{clip-path:url(#SVGID_38_);}
	.st19{clip-path:url(#SVGID_40_);}
</style>

<g>

<defs>

<rect height="684.34" id="SVGID_3_" width="580.24" y="0"/>

</defs>

<clipPath id="SVGID_2_">

<use style="overflow:visible;" xlink:href="#SVGID_3_"/>

</clipPath>

<g class="st0">

<path d="M475.53,641.38c-1.8,2.91-3.83,5.65-5.34,8.79c-1.45,3.01-2.36,6.43-3.65,10.09c-31.55-1.37-63.88-2.77-96.21-4.18    c-0.01,0.48-0.02,0.97-0.03,1.45c5.35,0,10.69,0,16.04,0c0,0.19,0,0.37,0.01,0.56c-0.46,0.03-0.92,0.05-1.38,0.1    c-8.73,0.98-17.46,1.98-26.19,2.93c-7.76,0.84-15.53,1.68-23.3,2.43c-8.88,0.86-17.76,2.06-26.66,2.31    c-10.09,0.28-20.19-0.18-30.28-0.6c-7.28-0.31-14.55-1.03-21.82-1.66c-12.11-1.06-24.24-2-36.33-3.39    c-6.19-0.71-12.31-2.31-18.12-3.45c8.37,0,17.16,0,25.96,0c-0.01-0.48-0.02-0.95-0.03-1.43c-47,1.63-93.99,3.25-141.45,4.89    c-9.32-23.67-20.75-46.65-38.15-64.02c11.56,8.88,21.67,19.66,28.32,35.02c0.27-0.2,0.54-0.39,0.82-0.59    c-4.93-23.03-9.86-46.05-14.8-69.08c0.25-0.1,0.49-0.21,0.74-0.31c3.76,14.44,7.48,28.89,11.3,43.3    c3.81,14.39,4.48,30.08,11.03,43.38c-2.76-18.6-5.51-37.14-8.26-55.68c0.35-0.09,0.69-0.17,1.04-0.26    c2.03,11.69,4.06,23.39,6.09,35.08c0.25-0.07,0.5-0.13,0.75-0.2c-2.55-16.06-5.09-32.11-7.64-48.17    c3.38,8.64,5.36,18.05,10.32,25.53c0.25-0.12,0.5-0.25,0.75-0.37c-1.3-5.12-2.37-10.36-3.96-15.33    c-1.69-5.25-3.84-10.28-5.86-15.35c-1.98-4.96-4.05-9.85-6.08-14.78c0.29-0.22,0.58-0.43,0.87-0.65    c4.05,8.03,8.09,16.06,12.14,24.1c0.2-0.01,0.4-0.03,0.61-0.04c-0.06-1.48,0.02-3-0.2-4.44c-0.24-1.57-0.75-3.07-0.69-4.87    c3.63,6.26,7.26,12.52,10.9,18.78c-1.68-10.07-0.7-21.39-8.94-28.29c0.23-0.24,0.45-0.48,0.68-0.72c1.22,1.09,2.45,2.19,3.96,3.54    c-0.35-1.66-0.63-3-0.95-4.53c4.53,9.1,8.97,18.02,13.41,26.94c0.32,0.01,0.63,0.02,0.95,0.03c0.73-9.86,1.46-19.72,2.19-29.58    c0.09,0.01,0.19,0.02,0.28,0.03c0,7.56,0,15.13,0,22.69c0.17,0.04,0.34,0.08,0.51,0.12c0.13-0.41,0.18-0.9,0.39-1.2    c5.04-7.15,3.84-14.39,0.75-22.16c-3.09-7.77-5.54-15.94-8.45-24.44c6.93,9.57,10.05,21.33,14.28,32.47    c1.3-3.09,2.53-5.98,3.94-9.34c-1.12-1.87-2.48-4.13-4.36-7.26c1.6,0.82,2.46,1.25,3.46,1.76c-0.21-1.56-0.41-3.02-0.61-4.47    c0.12-0.05,0.23-0.09,0.35-0.14c0.85,2.82,1.7,5.63,2.45,8.14c2.93-2.06,5.65-3.98,8.89-6.25c-3.5-10.23-7.21-21.08-10.93-31.93    c0.17-0.12,0.35-0.23,0.52-0.35c5.08,11.31,10.15,22.62,15.67,34.91c0-12.8,0-24.47,0-36.89c-4.58-8.18-10.82-15.5-18.49-20.84    c-7.33-5.1-13.49-3.72-18.84,4.34c-0.55,0.84-1.08,1.7-1.63,2.58c-2.7-3.14-1.86-8.33,1.57-11.34c3.56-3.13,7.57-2.51,11.44-1.74    c9.92,1.97,18.8,6.7,25.63,16.44c0.19,0.27,0.49,0.41,0.78,0.64c-0.47-4.28-0.93-8.49-1.46-13.39    c-13.92-30.8-28.66-61.89-45.68-91.18c19.59,23.87,34.69,52.04,49.09,81.97c0.86-26.14,5.55-51.18,4.27-77.64    c-4.31-5.36-8.77-11.48-13.71-16.92c-7.77-8.56-15.87-16.65-23.8-24.97c-3.4-3.56-7.16-3.97-11.39-3.01    c-15.71,3.6-25.94,16.11-33.58,32.71c-7.95,17.26-11.86,36.32-14.74,55.73c-1.71,11.52-3.01,23.13-4.51,34.69    c-0.08,0.58-0.33,1.13-0.59,1.97c-3.76-34.47,0.46-66.83,13.06-97.3c4.6-11.12,10.73-20.68,19.54-27.09    c6.8-4.95,14.18-6.39,21.89-6.07c0.88,0.04,1.75,0.11,3.34,0.21c-8.23-9.64-16-18.73-23.76-27.82    c11.7,7.37,21.89,17.65,32.67,27.35c6.61-4.24,13.48-7.59,21.01-8.85c7.63-1.28,14.88,0.32,22.95,3.25    c-3.84-14.08-7.52-27.58-11.2-41.07c0.19-0.12,0.37-0.24,0.56-0.36c2.78,6.91,5.76,13.7,8.3,20.75c2.71,7.5,4.97,15.25,7.52,22.84    c0.44,1.32,1.21,2.69,2.13,3.49c14.52,12.59,26.81,27.92,36.31,46.71c0.1,0.19,0.31,0.28,0.79,0.7c0.49-4.79,0.92-9.37,1.42-13.94    c0.66-5.94,1.49-11.84,2-17.8c0.16-1.82-0.14-3.97-0.8-5.6c-4.89-12.2-9.92-24.31-14.9-36.45c0.27-0.22,0.53-0.43,0.8-0.65    c3.82,5.93,7.63,11.85,11.45,17.78c0.11-14.41,5.14-28.53,0.58-42.82c1.07,2.62,2.14,5.25,3.41,8.35    c4.7-28.45,12.54-54.98,20.67-82.52c-9.2-29.57-18.66-59.97-28.11-90.37c0.04-0.1,0.08-0.2,0.13-0.3    c3.48,6.38,7.1,12.65,10.41,19.17c3.43,6.75,6.63,13.69,9.79,20.65c3.1,6.85,6.09,13.78,9,20.76c2.9,6.97,5.62,14.05,8.72,21.82    c6.53-25.72,16.03-48.99,26.24-71.8c10.19-22.76,20.77-45.24,34-65.51c-21.47,51.58-38.68,105.37-52.82,160.02    c7.84,28.7,15.56,56.93,23.27,85.15c2.8-47.81,4.25-95.81,10.51-143.19c0,11.05,0.2,22.1-0.04,33.14    c-0.89,41.43-2.06,82.85-2.82,124.28c-0.23,12.4,0.52,24.83,0.83,37.24c0.33,0.04,0.66,0.09,0.99,0.13    c0.72-4.38,1.49-8.75,2.16-13.14c5.82-38.07,13.12-75.67,22.57-112.56c9.78-38.15,23.56-73.93,40.84-107.57    c0.6-1.16,1.3-2.24,2.49-4.29c-29.48,93.74-45.89,190.34-56.94,288.6c0.46,0.26,0.93,0.53,1.39,0.79c0.7-1.38,1.63-2.66,2.05-4.17    c6.04-21.52,11.63-43.25,18.1-64.57c7.98-26.31,17.1-52.04,27.99-76.69c2.55-5.77,5.68-11.12,8.34-16.81    c0.93-1.99,1.64-4.37,1.85-6.67c1.28-14.07,2.18-28.2,3.62-42.23c1.64-15.91,3.61-31.77,5.64-47.61    c0.98-7.62,2.42-15.15,3.65-22.73c-8.53-8.22-9.48-19.17-7.54-31.33c1.68-10.52,1.07-21.1-0.05-31.64    c-0.29-2.71-0.58-5.42-0.71-8.19c4.26,12.34,5.48,26.44,14.14,36.34c-0.46-2.3-0.62-4.79-1.42-6.88    c-2.63-6.86-4.43-13.97-4.47-21.61c-0.08-15.09-0.02-30.18,0.43-45.34c2.62,16.17,5.24,32.34,7.72,47.63    c1.77-14.3,3.65-29.5,5.54-44.69c0.29,0.04,0.58,0.07,0.87,0.11c0.25,7.32,0.6,14.65,0.72,21.97c0.12,7.39,0.03,14.78,0.03,20.98    c5.8-14.64,12.1-30.52,18.39-46.41c0.17,0.08,0.34,0.16,0.51,0.24c-1.42,6.45-2.96,12.86-4.23,19.35    c-1.77,9-3.26,18.08-5.01,27.08c-1.82,9.37-6.5,16.5-11.89,22.95c-1.49,1.79-3.23,3.24-2.4,6.93    c5.34-5.91,11.51-10.21,15.52-17.67c6.06-11.27,12.15-22.51,18.72-33.44c-1.58,4.92-3.08,9.89-4.76,14.75    c-1.67,4.81-3.52,9.52-5.68,15.3c5.87-5.2,11.06-9.81,16.25-14.41c0.2,0.27,0.4,0.53,0.6,0.8c-3.88,5.25-7.62,10.69-11.68,15.71    c-4.33,5.36-9.24,10.01-13.35,15.6c-1.75,2.37-2.2,6.33-3.08,9.64c-1.3,4.92-2.03,10.13-3.74,14.8    c-3.27,8.94-8.89,13.6-17.57,12.44c-5.77,33.65-7.93,67.89-10.29,102.32c46.17-87.09,108.85-141.45,191.31-156.37    c-12.77,5.12-26.16,9.72-39.09,15.84c-27.81,13.16-53.7,31.01-77.19,53.99c-15.37,15.04-29.72,31.56-42.67,50    c-11.36,16.18-21.61,33.35-30.79,51.56c-0.61,1.21-0.96,2.8-1.03,4.24c-1.1,24.25-2.12,48.51-3.19,72.77    c-0.7,15.78-1.45,31.55-2.19,47.41c6.29-5.75,12.42-11.27,18.44-16.96c0.77-0.73,1.24-2.31,1.46-3.59    c7.31-42.7,17.77-84.16,30.88-124.54c6.29-19.37,13.07-38.48,19.67-57.69c0.54-1.58,1.36-3.01,2.13-4.46    c-15.62,56.61-24.33,115.41-35.17,174.05c4.38-3.11,8.4-6,12.44-8.84c22.83-16.03,47.05-27.36,72.93-31.98    c9.41-1.68,18.05-6.28,27.23-8.48c2.27-0.54,4.55-0.99,7.06-0.61c-5.51,2.94-11.01,5.88-16.84,9    c17.16,2.87,33.22,8.22,47.62,19.94c14.48,11.79,25.67,27.15,32.53,47.33c-3.79-5.42-7.53-10.91-11.39-16.25    c-10.78-14.9-23.3-27.07-36.94-37.51c-10.43-7.98-21.8-9.81-33.59-8.01c-15.49,2.37-30.16,8.84-44.58,15.98    c-11.11,5.51-21.92,12.01-32.86,18.08c-0.82,0.46-1.6,1.04-1.63,1.06c-1.09,33.22-2.16,65.74-3.21,97.74    c7.47-34.76,16.19-69.55,29.62-102.16c-18.22,62.81-27.52,127.94-33.07,194.07c0.42,0.14,0.83,0.28,1.25,0.42    c0.62-2.32,1.26-4.63,1.85-6.97c6.27-24.89,12.05-49.99,18.94-74.59c5.43-19.36,11.58-38.48,19.96-56.26    c0.48-1.02,0.98-2.03,1.68-2.91c-10.01,32.1-17.21,65.28-24.49,98.45c3.18-7.73,6.2-15.58,9.59-23.17    c3.46-7.74,7.16-15.33,11-22.78c3.8-7.37,7.92-14.48,12.02-21.49c-10.91,27.61-21.81,55.21-31.94,80.83    c0.65,22.42,1.23,42.5,1.82,62.78c4.47-8.92,9.18-17.18,12.87-26.11c2.13-5.15,2.61-11.38,3.89-17.11    c0.79-3.54,1.68-7.05,2.91-10.46c-1.41,8.51-2.81,17.02-4.28,25.88c0.98,0.1,1.83,0.19,2.75,0.29    c4.95-20.25,13.19-38.22,23.79-54.56c-8.38,17.56-15.15,36.07-20.79,55.33c2.03,1.19,4.08,2.39,6.52,3.81    c2.42-3.22,4.98-6.64,7.73-9.85c-2,3.98-4.19,7.76-6.53,11.77c1.53,1.56,3.06,3.13,4.52,4.62c2.19-6.84,4.34-13.48,6.45-20.14    c0.51-1.62,0.92-3.28,1.38-4.92c0.64-0.92,1.28-1.84,2.5-3.6c-2.72,10.59-5.16,20.1-7.51,29.24c2.09,3.58,3.87,6.62,5.56,9.72    c-1.95-2.18-3.81-4.42-5.78-6.79c-2.46,10.85-4.81,21.21-6.86,30.24c1.88-2.07,4.37-4.82,7.03-7.75c0.69-0.12,1.58-0.28,2.42-0.18    c-5.94,6.46-10.9,13.4-11.41,24.38c0.48,1.67,1.14,3.98,1.74,6.07c1.54-3.49,3.16-6.82,4.53-10.3c2.95-7.53,5.78-15.13,8.7-22.99    c0.86-2.28,1.69-4.27,2.51-6.27c-0.2-0.93-0.4-1.86-0.6-2.79c0.7-0.44,1.61-0.67,2.08-1.36c3.11-4.65,6.13-9.4,9.19-14.09    c0.34-0.52,0.83-0.89,1.54-0.99c-3.3,6.06-6.6,12.12-9.96,18.3c0.63,0.96,1.12,1.69,1.76,2.66c0.58-1,1.02-1.76,1.51-2.51    c-0.31,1.48-0.66,2.95-1.23,4.41c-0.8-0.65-1.37-1.3-2.06-2.07c-0.57,1.5-1.21,2.75-1.54,4.11c-0.51,2.09-0.81,4.25-1.39,6.48    c-3.37,4.9-4.59,10.73-6.1,16.93c1.73-0.55,2.95-0.94,3.98-1.13c-4.13,3.19-5.7,8.4-4.46,15.33c2.35-5.21,4.5-10.01,6.74-14.97    c-0.99-0.24-1.57-0.37-2.08-0.73c0.98-0.95,2.01-1.51,2.79-2.43c2.14-2.53,4.79-4.9,3.1-9.58c1.13-2.39,2.08-4.63,2.81-6.36    c-0.68-2.32-1.17-4-1.46-5.67c0.82,0.91,1.44,1.79,2.06,2.68c3.38-5.49,3.89-7.88,2.76-12.04c-1.18,1.35-2.47,2.83-3.77,4.31    c1.28-2.55,2.57-5.11,4.04-8.05c0.54,1.68,1.04,3.21,1.74,5.39c1.42-4.79,2.72-9.18,4.03-13.58c-1.93,13.45-4.8,26.66-5.18,41.5    c7.83-14.66,14.25-29.31,24.75-39.94c-2.9,4.83-5.92,9.56-8.68,14.52c-2.83,5.09-5.68,10.23-8,15.7    c-1.46,3.45-2.01,7.54-2.87,11.38c-1.61,7.18-3.14,14.39-4.93,21.41c1.61-9.13,3.43-18.1,5.38-27.68    c-4.69,5.25-6.99,23.73-7.79,34.14c0.36-0.51,0.71-1,1.05-1.49c0,1.22,0,2.45,0,4.32c3.98-7.39,7.63-14.17,11.48-21.3    c2.44-1.88,5.23-4.01,8.01-6.14c-3.32,4.26-8.16,6.67-9.36,13.68c-0.17,0.28-0.38,0.27-0.58,0.35c-2.95,5.9-5.7,11.74-8.29,17.23    c0.27,1.72,0.45,2.87,0.71,4.52c1.75-2.44,3.22-4.49,4.8-6.38C475.21,641,475.37,641.19,475.53,641.38z M132.41,607.82    c0.23,6.88,0.46,13.76,0.69,20.63c0.24-0.02,0.47-0.04,0.71-0.06c-0.08-1.32-0.17-2.63-0.29-4.56c0.46,1.16,0.69,1.73,0.92,2.3    c0.25-0.05,0.5-0.1,0.75-0.15c-0.16-4.11-0.33-8.21-0.08-12.09c0.39,1.46,0.79,2.92,0.93,3.46c0-8.2,0-17.31,0-27.09    C133.27,594.86,132.94,596.82,132.41,607.82z M432.12,604.7c-1.1-1-2.2-2.01-3.59-3.27c-2.63,9.65-1.93,18.43-0.03,27.28    c0.12-2.88,0.24-5.77,0.36-8.65c0.24-0.01,0.48-0.02,0.72-0.02c0,3.15,0,6.31,0,9.46c0.29,0,0.57,0,0.86,0    c0.69-8.18,1.37-16.36,2.18-25.17c0.71-3.36,1.41-6.72,2.12-10.08c-0.26-0.24-0.52-0.48-0.78-0.72c-1.91,1.78-3.82,3.55-5.5,5.12    C430.19,601.35,431.35,603.17,432.12,604.7z M110.18,599.91c2.2-3.53,6.42-5.25,6.02-11.12c-0.27-4.03-0.24-8.09-0.43-12.13    c-0.04-0.82-0.48-1.62-0.73-2.43c-3.52,5.56-5.56,11.44-5.39,18.35c0.03,1.24-0.34,2.49-0.73,3.15c-0.35-2.63-0.69-5.26-1.08-8.21    C106.04,591.88,107.07,597.78,110.18,599.91z M400.82,602.86c0.98,7.73,1.97,15.46,2.84,22.38c0.61-4.56,1.45-10.03,2.04-15.55    c0.34-3.21,0.28-6.5,0.72-10.09c0.27-3.07,0.55-6.13,0.82-9.2c0.94-5.21,2.79-10.28,1.64-15.67c0.53,1.27,1.06,2.54,1.59,3.81    c0.19-0.05,0.37-0.11,0.56-0.16c0-8.32,0-16.63,0-24.79c-2.24-1.62-4.7-1.95-5.55,0.72c-1.33,4.18-1.72,8.83-2.91,13.57    c-0.36,1.58-0.9,3.14-1.04,4.76c-0.55,6.27-0.97,12.56-1.75,19.12c0.2,3.61,0.4,7.21,0.37,11.42c-1.3,11.51-1.03,23.01,0.31,34.52    C401.61,625.98,401.4,614.24,400.82,602.86z M418.92,598.05c-0.29,1.84-0.94,3.73-0.8,5.52c0.5,6.2,1.27,12.36,1.94,18.54    c0.19,0.03,0.39,0.07,0.58,0.1c0.4-5.34,0.8-10.69,1.6-16.17c2.69-15.47,5.39-30.94,8.08-46.41c-1.27,1.12-2.31,2.4-2.86,3.96    c-2.08,5.87-4.39,11.68-5.85,17.8C420.35,586.72,420.1,592.43,418.92,598.05z M443.19,584c1.43-5.13,2.86-10.27,4.35-15.62    c-1.86-1.61-3.38-2.93-4.82-4.17c-6.47,7.53-8.42,16.47-6.47,28.08c0.67-0.55,1.39-1.13,2.18-1.19c0.49,1.76,0.98,3.52,1.58,5.7    c0.82-2.65,1.45-4.39,1.89-6.19C442.4,588.63,442.7,586.58,443.19,584z M129.18,598.45c-0.66-8.12-1.32-16.23-1.98-24.35    c0.24-0.03,0.49-0.06,0.73-0.1c0.59,3.97,1.28,7.91,1.74,11.9c0.45,3.92,0.67,7.88,0.95,11.35c2.47-6.21,5.87-12.64,2.85-20.47    c-2.6-6.74-5.38-13.26-10.91-16.98c-5.01,7.34-4.86,16.83,0.3,26.37c0.63-1.17,1.24-2.32,1.85-3.47    c-1.16,4.71-1.7,9.21,0.75,14.09c1.05,5.69,2.09,11.37,3.14,17.06C128.83,608.82,132.33,603.96,129.18,598.45z M225.31,492.46    c1.37,0.91,2.75,1.83,4.21,2.8c-1.05-6.72-2.07-13.3-3.1-19.89c-0.28-0.15-0.56-0.31-0.84-0.46c-2.22,4-4.45,8.01-6.46,11.63    c2.01,2.35,3.49,4.1,4.54,5.89c-1.18-0.66-2.37-1.32-4.08-2.27c0.84,3.97,1.53,7.25,2.5,11.83c0.32,14.17,3.32,29.07,7.98,44.02    c2.68-4.97,5.22-9.67,7.72-14.31c-0.09-0.79-0.09-1.45-0.24-2.04c-1.61-6.25-3.6-12.38-4.77-18.75    c-1.16-6.36-2.69-12.11-7.02-16.17C225.28,494.3,225.16,493.24,225.31,492.46z M375.02,526.45c-0.05-0.35-0.09-0.71-0.14-1.06    c-8.72,34.74-11.12,70.44-10.7,106.65c0.7-0.58,1.06-1.27,1.1-2c0.43-6.88,0.92-13.75,1.19-20.64    c0.88-22.69,2.12-45.32,6.12-67.56c0.9-5.01,1.7-10.05,2.57-14.33c-1.14,16-1.96,32.06-3.5,48c-1.45,14.99-2.45,29.94-1.95,45.04    c0,0.08,0.26,0.14,0.75,0.39c0.36-3.86,0.53-7.65,1.08-11.35c3.45-23.5,7-46.98,10.49-70.48c2.15-14.5,4.76-28.93,6.2-43.55    c1.64-16.7,2.2-33.57,3.19-50.37c0.04-0.62-0.35-1.28-0.36-2.39c0.22-0.69,0.59-1.36,0.64-2.07c1.76-23.48,3.5-46.97,5.24-70.46    c0.25-3.43,0.48-6.86,0.79-11.23c-8.5,6.35-16.27,12.15-23.84,17.8c-3.86,30.69-7.64,60.68-11.41,90.66    c0.25,0.05,0.5,0.1,0.75,0.14c1.75-5.01,3.5-10.02,5.24-15.03c-4.77,33.46-8.8,66.86-9.89,100.68    c6.01-23.53,11.61-47.15,17.84-70.51c3.68-13.8,7.82-27.48,14.4-39c-1.94,8.75-4.01,17.47-5.79,26.27    c-3.12,15.43-6.12,30.9-9.02,46.39C375.37,519.84,375.36,523.41,375.02,526.45z M252.73,432.95c1.87,5.14,3.73,10.28,5.81,16.02    c0.41-5.53,0.42-10.39,1.17-15.07c2.23-13.81,1.57-27.36-1.39-40.86c-6.2-28.25-12.26-56.54-18.5-84.78    c-1.52-6.89-3.51-13.61-5.44-21c-3.59,16.02-4.6,31.69-4.76,47.5c-0.12,11.61-2.71,22.21-8.1,31.73    c-0.82,1.45-0.83,3.65-1.36,6.19c11.12-11.51,12.46-28.46,18.45-42.75c0.05,0.81,0.15,1.2,0.08,1.55    c-3.17,17.12-6.2,34.17-5.8,52.04c0.24,10.53-2.72,20.1-11.11,25.04c3.3,19.22,6.59,38.33,9.9,57.64c1.31-1.1,2.76-2.31,4.06-3.4    c-3.56-15.61-7.01-30.73-10.46-45.86c10.61,24.07,17.08,50.28,25.26,75.69c0.88-5.66,1.79-11,2.52-16.38    c0.59-4.35,2.1-9.14,1.25-13.06c-3.54-16.37-7.76-32.5-11.84-48.68c-1.5-5.96-3.31-11.79-4.98-17.68    c0.32-0.18,0.64-0.36,0.96-0.54C243.15,408.33,247.85,420.38,252.73,432.95z M300.44,384.83c-4.23,14.71-8.46,29.42-12.55,43.65    c7.01,1.53,13.42,2.93,20.27,4.42c3.07-4.45,6.44-9.33,10-14.5c0-3.97,0-8.16,0-12.35c0.13-0.01,0.26-0.03,0.39-0.04    c0.6,2.86,1.2,5.71,1.83,8.74c4.14-4.97,8.13-9.67,12.01-14.5c0.65-0.8,1.13-2.16,1.2-3.3c0.69-11.56,1.28-23.13,1.89-34.7    c0.7-13.24,1.33-26.49,2.1-39.72c0.8-13.67,1.73-27.32,2.68-42.14C323.71,313.82,311.3,348.52,300.44,384.83z M161.44,376.95    c-1.85-5.76-3.54-11.62-5.64-17.22c-0.73-1.96-2.29-3.94-3.85-4.78c-3.4-1.82-6.98-3.27-10.59-4.24    c-10.91-2.92-21.3-0.4-31.19,5.25c7.96,7.61,16.2,14.79,23.79,22.94c7.61,8.18,14.8,17.06,21.75,26.14    c6.85,8.94,13.17,18.53,20.11,28.38C170.95,414.4,166.23,395.97,161.44,376.95z M221.71,333.85c3.8-16.43,7.62-32.86,11.38-49.32    c0.29-1.28,0.49-2.85,0.16-4.04c-4.3-15.87-8.7-31.69-13.2-48c-0.36,1.26-0.65,2.05-0.82,2.88    c-5.06,24.42-10.12,48.85-15.12,73.29c-0.6,2.92-1.72,6.41-0.99,8.88c2.79,9.44,6.23,18.58,9.43,27.82    c-0.01-16.88,2.31-33.17,5.83-49.37c0.4,16.54,0.8,33.08,1.2,49.36C220.24,341.87,220.94,338.18,221.71,333.85z M168.3,490.64    c0.74-11.21,1.33-22.44,2.28-33.62c0.44-5.2,0.59-9.84-2.45-14.17c-5.36-7.65-10.36-15.7-15.6-23.49    c-3.04-4.53-6.24-8.89-9.37-13.33c-0.17,0.13-0.34,0.26-0.51,0.39c3.86,32.91,7.72,65.81,11.57,98.61    c5.37,1.87,9.93,4.57,12.86,11.74C167.52,507.6,167.9,499.49,168.3,490.64z M318.93,484.54c0-1.57,0-3.14,0-5.34    c-9.93,14.51-16.9,30.53-24.21,46.03c2.66,9.6,5.23,18.87,7.8,28.15c0.37-0.09,0.75-0.19,1.12-0.28c0-12.21,0-24.42,0-36.63    c2.67,14.54,2.63,29.18,1.57,43.82c-0.42,5.85,0.56,10.95,3.17,15.76c5.76-7.77,6.4-17.75,8.39-27.22c0,1.63,0,3.27,0,4.9    c0.17-0.01,0.33-0.02,0.5-0.02C317.81,530.9,318.36,508.08,318.93,484.54z M215.67,470.51c0.99,4.09,1.97,8.17,2.9,11.99    c2.43-3.48,4.84-6.93,7.19-10.29c-0.53-10.25-5.71-17.88-9.62-26.4c2.37,3.17,4.73,6.35,7.01,9.4c-0.38-7.8-0.61-15.56-1.17-23.29    c-0.56-7.69-1.47-15.33-2.2-22.79c-8.64-1.48-14.27-8.24-15.68-18.6c-0.69-5.11-0.94-10.32-1.43-15.97    c-0.26,0.82-0.44,1.15-0.47,1.5c-0.8,12.6-1.58,25.19-2.35,37.79c-0.05,0.75-0.11,1.68,0.17,2.25c3.91,7.97,6.5,16.61,8.13,25.76    c3.04-7.13,5.98-14.04,8.92-20.94c0.15,0.13,0.3,0.26,0.45,0.39c-2.53,9.81-5.06,19.62-7.44,28.86    C212.04,457.23,213.81,463.57,215.67,470.51z M260.66,472.81c-1.18,6.96-2.44,13.91-3.51,20.9c-0.44,2.91-1.18,6.17-0.55,8.81    c1.03,4.33,2.93,8.37,4.72,12.35c1.18,2.63,2.82,4.93,4.48,7.77c1.64-5.08,3.59-9.26,4.28-13.75c0.71-4.56,0.23-9.43,0.17-14.16    c-0.03-2.16-0.41-4.31-0.46-6.47c-0.42-17.87-0.86-35.74-1.18-53.61c-0.15-8.56,0.08-17.14-0.15-25.7    c-0.16-5.98-0.83-11.93-1.27-17.89c-0.28,0.03-0.56,0.05-0.84,0.08c-0.06,1.5-0.17,3-0.18,4.5c-0.13,17.88-0.68,35.72-3.04,53.41    C262.11,456.7,261.49,464.44,260.66,472.81z M348.28,453.62c2.45-20,4.89-40,7.47-61.06c-5.88,5.76-11.01,10.8-16.11,15.79    c-0.47,18.98-0.94,37.6-1.39,55.78c2.61,3.56,4.98,6.79,7.43,10.12C346.54,467.54,347.39,460.92,348.28,453.62z M305.65,454.32    c-7.09,13.26-14.09,26.61-21.35,39.73c-2.05,3.7-2.7,7.49-2.57,11.76c0.13,4.39,0.22,8.78,0.33,13.17c1.1-0.37,1.43-0.81,1.7-1.3    c5.7-10.48,11.25-21.1,17.18-31.38c1.92-3.33,2.83-6.6,2.76-10.54c-0.04-2.1-0.01-4.21-0.01-6.31c0.31,0.01,0.62,0.03,0.93,0.04    c0,3.29,0,6.58,0,10.41c10.25-14.98,11.18-19.59,7.15-34.9C309.73,448.06,307.78,450.95,305.65,454.32z M176,457.77    c-1.04,22.25-2.09,44.51-3.09,65.77c3.74,4.43,6.68,7.92,9.82,11.65c0.26-3.62,0.5-6.79,0.7-9.97c0.74-11.7,1.15-23.46,2.31-35.1    c0.87-8.69,0.57-16.58-4.22-23.53C179.53,463.7,177.92,460.39,176,457.77z M192.16,463.59c0.29-0.41,0.8-0.8,0.82-1.23    c0.54-12.49,1.04-24.98,1.5-36.56c-5.06-17.15-14.51-29.65-22.8-44.32c0.25,1.46,0.32,1.94,0.42,2.41    c3.52,15.33,7.3,30.58,10.48,46.02C184.96,441.38,187.22,452.8,192.16,463.59z M290.47,459.78c4.68-7.77,9.37-15.54,14.07-23.33    c-5.8-1.72-11.9-3.61-18.35-2.43c-0.48,1.59-0.9,2.86-1.24,4.17c-1.82,6.97-3.3,14.12-5.52,20.89    c-2.26,6.88-0.75,13.17,0.48,20.18C283.51,472.58,286.85,466.4,290.47,459.78z M185.87,536.52c0,1.51,0,3.03,0,4.02    c3.26,3.79,6.21,7.2,8.84,10.25c2.57-21.35-0.88-60.14-6.29-68.81C187.58,499.92,186.74,517.87,185.87,536.52z M339.1,473.16    c-0.26-0.28-0.51-0.55-1.03-1.12c0.33,26.45-1.11,52.41,0.86,78.88c4.98-9.97,4.95-9.97,5.06-15.74    c0.26-13.29,0.58-26.57,0.81-39.85c0.04-2.38,0.23-4.98-0.41-7.12C342.92,483.25,340.98,478.5,339.1,473.16z M277.67,560.27    c-1.41,3.36-2.97,6.64-4.18,10.11c-0.87,2.49-2.06,5.43-1.71,7.84c1.05,7.27,2.79,14.38,4,20.26c0.94-1.65,1.84-3.22,2.73-4.78    c0.5,0.63,0.99,1.26,1.49,1.88c1.85-7.35,3.71-14.69,5.51-22.06c0.2-0.82,0.25-1.82,0.07-2.64c-1.37-6.34-2.81-12.66-4.3-19.34    C280.06,554.4,278.93,557.05,277.67,560.27z M178.52,552.68c-1.67-2.31-3.34-4.62-5.43-7.5c-1.01,20.72-1.15,40.65,0.9,60.9    c1.07-0.31,2.1-0.6,3.37-0.97c0.93-12.93,1.86-25.74,2.79-38.63c0.4-1,0.91-2.14,1.32-3.33    C182.97,558.81,180.97,555.91,178.52,552.68z M327.91,462.49c-1.84,2.86-3.69,5.71-5.37,8.31c0.66,12.37,1.32,24.61,1.96,36.61    c2.1-4.95,4.36-10.14,6.5-15.42c0.44-1.08,0.54-2.45,0.57-3.69c0.1-4.34,0.12-8.68,0.14-13.02c0.02-5.68,0-11.36,0-17.34    C330.37,459.53,329.29,460.81,327.91,462.49z M322.91,430.07c-2.34,3.62-4.68,7.23-7.1,10.97c3.48,2.95,6.68,5.67,10.64,9.03    c1.72-3.07,3.46-6.19,5.21-9.32c0.39,0.33,0.79,0.66,1.18,0.99c0-8.28,0-16.56,0-25.17C329.5,421.1,326.35,425.38,322.91,430.07z     M243.13,569.71c0.54-1.94,1.85-4.14,1.5-5.77c-1.85-8.51-4.12-16.87-6.36-25.74c-2.28,5.51-4.45,10.63-6.5,15.83    c-0.36,0.92-0.52,2.32-0.24,3.24c2.14,7.06,4.41,14.07,6.78,21.54C240.04,575.66,241.52,572.95,243.13,569.71z M250.76,558.95    c-1.55-9.16-3.09-18.33-4.64-27.49c0.23-0.08,0.46-0.15,0.68-0.23c1.94,8.2,3.88,16.4,5.82,24.61c0.26,0.1,0.51,0.2,0.77,0.3    c0.99-3.89,3.32-8.16,2.71-11.59c-1.74-9.78-4.67-19.23-7.24-29.2c-2.07,4.28-3.94,8.15-5.81,12.03    c2.46,11.73,4.89,23.36,7.32,34.98c0.16-0.05,0.32-0.09,0.48-0.14C250.84,561.33,250.84,560.44,250.76,558.95z M140.86,502.33    c0.2,3.04,0.31,6.09,0.61,9.12c0.27,2.75,0.46,5.59,1.16,8.18c1.89,6.92,4.14,13.68,6.04,20.59c2.06,7.51,3.89,15.13,5.82,22.7    c0.18-0.05,0.36-0.1,0.55-0.15c-2.27-18.28-4.55-36.57-6.59-52.98c-3.25-4.04-5.44-6.77-7.58-9.43    C140.87,500.72,140.87,501.23,140.86,502.33z M156.62,513.66c-0.15,0.02-0.41,0.01-0.43,0.07c-0.05,0.23-0.04,0.5,0,0.74    c2.46,14.88,4.93,29.77,7.39,44.65c0.45,2.71,0.9,5.43,1.35,8.14c0.2-0.06,0.41-0.12,0.61-0.18c0.43-12.85,0.86-25.71,1.29-38.71    C163.56,523.56,160.27,518.76,156.62,513.66z M195.14,465.33c-0.09,1.9-0.18,3.8-0.27,5.53c1.95,3.57,3.8,6.92,5.96,10.88    c0.52-6.73,0.98-12.54,1.43-18.35c0.22-2.89,1.09-6,0.54-8.64c-1.46-7.01-3.53-13.82-5.35-20.71c-0.27,0.06-0.55,0.13-0.82,0.19    C196.14,444.36,195.65,454.49,195.14,465.33z M236.07,467.06c-1.17,1.17-2.34,2.34-3.61,3.61c1.35,7.16,2.79,14.14,3.95,21.2    c0.85,5.18,2.29,9.46,6.49,11.74c1.6,0.87,2.82,2.86,4.31,4.44c0-0.57,0.07-0.97-0.01-1.32c-3.25-13.29-6.51-26.57-9.81-39.84    C237.34,466.73,236.76,466.78,236.07,467.06z M292.94,534.99c-0.26-1.47-0.51-2.93-0.88-5.03c-2.48,5.43-4.68,10.25-6.82,14.94    c1.31,6.12,2.58,12.05,3.81,17.81c2.42-3.69,4.71-7.16,7.15-10.87C295.16,546.6,294.08,541.11,292.94,534.99z M148.18,581.65    c0.46,1.51,0.92,3.03,1.38,4.54c-1.87-18.77-3.17-37.66-9.13-55.8c-0.3,7.19-0.6,13.81-0.81,20.44c-0.04,1.34,0.13,2.79,0.5,4.05    C142.74,563.62,145.44,572.33,148.18,581.65z M331.94,583.38c0-3.89,0-7.78,0-11.67c-2.35,4.52-4.08,9.17-5.61,13.92    c-1.05,3.26-2.15,6.59-2.63,10.02c-0.38,2.66-0.2,5.72,2.3,7.55c0.41-2.21,0.74-4.04,1.08-5.86c0.08,0.03,0.17,0.05,0.25,0.08    c0,2.92,0,5.85,0,9.31c0.47,0.78,1.23,2.01,1.99,3.25c0.24-0.04,0.48-0.09,0.72-0.14C330.67,601.28,331.31,592.71,331.94,583.38z     M242.94,600.37c0.29,1.51,0.59,3.01,1.07,5.48c1.86-5.49,3.42-10.11,4.99-14.73c0.43,0,0.87,0,1.3,0    c-1.36-6.57-2.72-13.14-4.09-19.71c-0.25,0.01-0.5,0.01-0.74,0.02c-1.91,5.54-3.82,11.07-5.61,16.26    C240.92,592.06,241.87,595.91,242.94,600.37z M202.75,595.8c0.09,1.32,0.17,2.64,0.31,4.62c1.73-3.41,3.17-6.26,5.08-10.02    c-2.33-10.23-4.82-21.11-7.3-32c-0.29,0.09-0.57,0.17-0.86,0.26c-0.05,0.86-0.15,1.73-0.14,2.59    C200.01,572.65,199.46,584.16,202.75,595.8z M341,590.84c0.26,1.26,0.52,2.52,0.79,3.78c0.34-0.04,0.68-0.08,1.01-0.11    c0-15.85,0-31.71,0-46.84c-3.87,11.05-4.03,11.06-3.6,24.05C339.41,577.9,340.36,584.05,341,590.84z M216.79,511.84    c0.06,0.24,0.08,0.52,0.2,0.72c0.1,0.16,0.3,0.21,1.19,0.77c-2.85-15.39-5.58-30.13-8.31-44.88c-0.23,0.08-0.45,0.16-0.68,0.24    c-0.44,6.86-0.88,13.72-1.3,20.2C210.85,496.57,213.7,503.98,216.79,511.84z M213.72,546.58c1.6,5.75,3.19,11.51,5.04,18.18    c1.54-4.03,2.67-6.97,3.99-10.4c-2.35-7.21-4.8-14.74-7.26-22.27c-0.28,0.02-0.56,0.04-0.84,0.06    C214.3,536.76,213.95,541.36,213.72,546.58z M298.98,569.69c-0.23-1.19-0.46-2.37-0.79-4.05c-2.72,0.61-5.21,1.16-8.02,1.79    c1.7,9.52,5.77,16.64,9.14,24.21c0.37-0.09,0.74-0.18,1.11-0.27C299.94,584.37,299.47,577.37,298.98,569.69z M283.61,590.1    c0.26,3.46,0.31,6.96,0.83,10.35c0.7,4.53,1.76,8.97,2.77,13.99c4.23-7.89,4.27-7.91,2.65-16.04c-1.17-5.86-2.48-11.67-3.72-17.5    c-0.29,0.06-0.59,0.12-0.88,0.18C284.75,583.88,284.25,586.67,283.61,590.1z M89.73,594.71c1.72,5.92,3.45,11.84,5.17,17.76    c0.4,0.01,0.81,0.03,1.21,0.04c0.47-2.89,1.93-6.25,1.23-8.57c-2.48-8.19-5.7-16.02-8.64-23.99c-0.37,0.18-0.73,0.35-1.1,0.53    C86.5,585.38,88.87,589.58,89.73,594.71z M143.26,445.19c-0.38,10.71-0.51,21.45-1.24,32.13c-0.49,7.2,0.93,13.4,3.89,18.9    c-0.75-21.52-1.51-43.35-2.27-65.18c-0.12,0-0.25,0-0.37,0C143.26,435.5,143.26,439.96,143.26,445.19z M205.91,353.73    c-1.42-4.98-2.83-9.96-3.9-13.7c-2.83,14.85,3.87,25.21,13.68,33.68c-0.28-2.04-0.63-4.13-1.52-5.76    C211.62,363.27,208.85,358.78,205.91,353.73z M120.29,610.45c0.73-2.7,2.42-5.66,2.03-8.07c-1.26-7.65-3.3-15.1-5.04-22.62    c-0.39,0.12-0.77,0.25-1.16,0.37c0.58,3.99,1.16,7.98,1.84,12.68c-0.28,0.6-0.94,2-1.55,3.3c0.65,5.65,1.28,11.11,2,17.3    C119.24,612.23,119.68,611.61,120.29,610.45z M204.01,516.78c-0.84-2.97-1.68-5.95-2.51-8.92c-0.2,9.51-3,19.12,0.81,28.11    c0.28,0,0.56,0,0.84,0c0.17-3.1,0.33-6.2,0.5-9.3c0.09,0.01,0.17,0.02,0.26,0.03c0.35,5.56,0.69,11.12,1.04,16.68    C205.36,534.68,206.41,525.95,204.01,516.78z M211.53,573.81c0.47,2.01,0.93,4.02,1.65,7.11c1.8-4.61,3.25-8.35,4.71-12.09    c-1.64-6.05-3.23-11.96-4.89-18.11C212.45,558.49,211.94,565.83,211.53,573.81z M257.1,577.2c0.26-1.64,0.52-3.29,0.82-5.19    c0.3,0.84,0.49,1.38,0.98,2.76c1.77-6.15-1.45-9.81-2.61-14.53c-3.6,7.27-4.38,18.47-1.64,23.39    C255.48,581.57,256.24,579.68,257.1,577.2z M238.13,598.92c-0.43-1.34-0.86-2.69-1.26-3.95c-3.24,8.17-2.62,15.86,1.76,24.08    c0.83-2.74,2.18-5.02,1.99-7.07C240.25,607.77,239.04,603.67,238.13,598.92z M132.21,560.55c-0.79-2.54-1.57-5.07-2.59-8.36    c-2.4,1.88-4.35,3.41-5.96,4.67c3.83,5.93,7.47,11.58,11.25,17.43C134.03,569.89,133.16,565.52,132.21,560.55z M219.01,600.73    c-0.28,0.66-0.75,1.28-0.81,1.97c-0.48,5.81-0.89,11.62-1.29,17.43c-0.04,0.6,0.1,1.22,0.16,1.93c0.71,0,1.28,0,1.74,0    c1.83-7.63,3.62-15.11,5.53-23.09C222.35,599.6,220.92,600.05,219.01,600.73z M228.02,567.89c-0.14-0.93-0.28-1.87-0.57-3.83    c-1.39,3.36-2.58,5.82-3.45,8.46c-0.55,1.66-1.18,3.82-0.78,5.32c1.06,3.9,2.68,7.56,4.18,11.61c0.38-4.68,0.82-8.96,1.03-13.25    C228.57,573.62,228.33,571.01,228.02,567.89z M176.02,533.51c-0.71-0.52-1.41-1.03-2.36-1.72c0,3.23,0,5.9,0,8.37    c2.73,3.16,5.34,6.18,8.24,9.53c0.15-3.19,0.27-5.82,0.4-8.44C180.24,538.69,178.3,536.28,176.02,533.51z M415.83,607.53    c0.1,9.66-3.48,19-1.69,28.82c4.27-10.28,3.32-21.22,2.48-32.2C416.36,605.06,416.1,605.98,415.83,607.53z M185.84,553.64    c2.6,3.88,5.19,7.77,7.79,11.65c0.2-0.2,0.41-0.4,0.61-0.6c0-2.14,0-4.29,0-6.83c-2.5-3.9-5.16-8.04-7.82-12.18    c-0.2,0.16-0.4,0.32-0.6,0.48C185.83,548.44,185.83,550.72,185.84,553.64z M243.4,517.79c0.97-2.32,1.93-4.64,3.08-7.41    c-2.63-2.78-5.1-5.39-7.57-8c-0.17,0.15-0.34,0.31-0.52,0.46c1.08,5.93,2.16,11.87,3.41,18.73    C242.52,519.81,242.83,519.03,243.4,517.79z M185.83,564.21c0,3.38,0,6.75,0,10.87c2.47-1.27,4.26-2.19,6.44-3.3    c-2.06-5.08-4.03-9.91-5.99-14.74c-0.15,0.05-0.29,0.1-0.44,0.15C185.83,559.29,185.83,561.39,185.83,564.21z M408.08,536.07    c-0.98,4.05-1.95,8.11-2.92,12.13c2.02,0.29,3.78,0.54,5.92,0.84c-0.3-6.09-0.59-12.15-0.89-18.21c-0.17-0.04-0.34-0.08-0.51-0.12    C409.22,532.33,408.77,533.94,408.08,536.07z M269.54,541.04c-0.13-1.26-0.21-2.52-0.39-3.76c-0.18-1.22-0.47-2.41-0.91-4.63    c-1.72,7.09-7.06,12.26-2.43,20.64C267.19,548.81,268.3,545.21,269.54,541.04z M433.2,566.1c-0.39,1.82-0.79,3.64-1.16,5.47    c-0.37,1.82-0.75,3.65-1.05,5.49c-0.27,1.67-0.42,3.37-0.67,5.42c2.95-7.64,5.72-14.79,8.62-22.3c-1.04-0.35-2.49-0.84-4.2-1.42    C434.23,561.41,433.81,563.46,433.2,566.1z M176.91,621.19c0-4.68,0-9.36,0-14.26c-0.54-0.04-1.12-0.12-1.69-0.1    c-0.27,0.01-0.53,0.21-1.34,0.57c0.58,7.45,1.17,14.96,1.75,22.47c0.42-0.04,0.85-0.07,1.27-0.11    C176.9,627.14,176.9,624.52,176.91,621.19z M255.86,605.56c-0.47-1.97-0.95-3.94-1.5-6.25c-0.9,1.39-1.58,2.44-2.27,3.5    c2.07,6.79,3.44,13.8,6.66,19.73c0.25-0.12,0.49-0.25,0.74-0.37C258.35,616.82,257.2,611.47,255.86,605.56z M144.92,602.48    c0.54,1.02,1.08,2.05,1.62,3.07c0.27-0.22,0.54-0.44,0.81-0.66c-1.29-9.15-2.01-18.49-5.78-26.81    C142.61,586.03,143.65,593.99,144.92,602.48z M139.6,571.65c-0.09-0.37-0.19-0.74-0.28-1.11c0.09,11.19-1.09,22.47,1.88,33.3    c0.5-0.74,0.75-1.48,0.7-2.19c-0.35-4.94-0.76-9.87-1.14-14.8C140.4,581.96,140.04,577.07,139.6,571.65z M294.11,565.38    c1.35-0.09,2.71-0.17,4.32-0.28c-0.7-3.52-1.3-6.55-1.9-9.59c-0.29-0.06-0.58-0.12-0.87-0.18c-1.79,3.25-3.59,6.49-5.38,9.74    c0.23,0.27,0.47,0.55,0.7,0.82C291.86,565.74,292.73,565.58,294.11,565.38z M220.66,585.97c-0.59,4.27-1.18,8.55-1.82,13.19    c2.09-0.52,3.98-0.98,6.7-1.65C223.89,593.21,222.48,589.57,220.66,585.97z M226.62,604.25c-0.07-0.58-0.13-1.15-0.22-1.95    c-2.1,4.67-3.35,16.96-1.92,21.25C225.86,616.98,228.66,611.44,226.62,604.25z M232.61,579.11c-0.42-1.22-0.84-2.43-1.32-3.84    c0,7.89,0,15.49,0,23.09C232.36,592.15,235.24,586.14,232.61,579.11z M102.41,591.11c-1.61-4.63-3.23-9.25-4.84-13.88    c-0.19,0.1-0.38,0.2-0.57,0.3c0.81,5.95,1.63,11.91,2.44,17.86c0.31,0.05,0.61,0.1,0.92,0.15    C101.05,594.26,101.74,592.97,102.41,591.11z M250.8,611.49c-0.26-0.46-0.52-0.91-0.85-1.47c-1.49,4.12-0.6,12.14,2.24,17.16    c0.55-1.35,1.14-2.87,0.94-4.2C252.57,619.3,251.67,615.7,250.8,611.49z M141.96,634.94c0.11,2.06,0.22,4.13,0.33,6.19    c0.43-0.06,0.87-0.11,1.3-0.17c-0.6-9.26-1.2-18.52-1.81-27.78c-0.41,0.05-0.83,0.09-1.24,0.14    C141,620.3,141.46,627.27,141.96,634.94z M440.12,639.74c0.05,0.93,0.1,1.87,0.2,3.65c0.87-1.8,1.37-2.84,1.9-3.94    c0.32,0.65,0.58,1.17,1.19,2.42c0-5.67,0-10.46,0-15.26c-0.36-0.06-0.72-0.12-1.08-0.18    C441.59,630.67,440.87,634.91,440.12,639.74z M107.67,618.16c-0.26,1.06-0.92,2.27-0.72,3.16c1.45,6.24,3.08,12.42,4.66,18.62    c0.34-0.11,0.68-0.22,1.02-0.32c-0.1-1.3-0.03-2.67-0.33-3.89C110.89,630,109.37,624.3,107.67,618.16z M435.16,622.41    c0.78-3.72,1.57-7.43,2.26-10.72c-1.03-1.79-1.73-3.02-2.65-4.61c-0.45,7.02-0.87,13.47-1.28,19.91c0.2,0,0.41,0,0.61,0    C434.39,625.62,434.68,624.24,435.16,622.41z M327.6,533.91c0,1.12,0,2.24,0,3.36c0.28,0.03,0.57,0.06,0.85,0.09    c0.9-7.02,1.81-14.05,2.71-21.07c-0.3-0.06-0.6-0.12-0.91-0.19C328.08,521.48,327.26,527.21,327.6,533.91z M262.65,531.74    c1.07-2.06,2.14-4.13,3.17-6.12c-2-3.01-3.73-5.61-5.46-8.21c-0.14,0.1-0.27,0.19-0.41,0.29    C260.8,522.22,261.65,526.74,262.65,531.74z M124.37,615.52c0.21,3.15,0.3,6.32,0.65,9.45c0.33,2.98,0.93,5.92,1.41,8.87    c0.18-0.03,0.36-0.06,0.53-0.09c-0.56-8.41-1.12-16.82-1.69-25.23c-0.31,0.03-0.62,0.05-0.93,0.08    C124.35,610.71,124.35,612.82,124.37,615.52z M430.17,595.23c1.26-1.16,2.51-2.32,3.64-3.36c0.3-3.87,0.59-7.59,0.88-11.31    c-1.82,3.86-3.36,7.77-4.73,11.77C429.63,593.26,429.87,594.5,430.17,595.23z M318.47,449.03c0,3.64,0,7.28,0,11.29    c1.65-2.72,3.13-5.14,4.93-8.1C321.63,450.85,320.08,449.65,318.47,449.03z M415.72,596.7c1.4-5.62,2.8-11.24,4.2-16.86    c-0.26-0.1-0.51-0.2-0.77-0.3C416.2,584.64,414.62,590.26,415.72,596.7z M408.53,618.25c0.06,0.82,0.12,1.64,0.2,2.68    c2.31-2.89,2.98-12.74,1.03-17.92C409.3,608.39,408.91,612.99,408.53,618.25z M333.07,614.02c0.67,2.44,1.35,4.88,2.02,7.32    c0.19-0.05,0.39-0.11,0.58-0.16c-0.54-6.03-1.07-12.07-1.61-18.1c-0.35,0.02-0.71,0.03-1.06,0.05    C333,606.55,333,609.98,333.07,614.02z M461.55,632.84c-0.26-1.3-0.52-2.6-0.86-4.33c-1.81,4.91-3.66,9.26-1.83,15.39    C459.92,639.9,460.79,636.64,461.55,632.84z M148.3,619.14c-0.22-3.11-0.45-6.21-0.74-10.24c-2.09,3.29-0.96,14.57,1.19,18.37    C148.63,624.61,148.52,622.22,148.3,619.14z M465.08,604.93c-0.55,3.35-1.09,6.71-1.74,10.68c3.78-4.25,3.7-9.38,4.31-15.35    C466.51,602.2,465.86,603.3,465.08,604.93z M435.82,600.23c0.43,2.51,0.85,5.03,1.28,7.54c0.82-2.57,0.72-5.19,1.35-7.49    c0.95-3.46,1.17-3.36-2.11-5.07C436.11,596.74,435.92,598.15,435.82,600.23z M270.13,591.27c-0.44,4.18-0.88,8.36-1.26,11.92    c1.29,2.25,2.17,3.77,3.21,5.58C271.47,602.85,270.9,597.32,270.13,591.27z M109.74,640.79c-0.8-3.36-1.61-6.73-2.41-10.09    c-0.29,0.09-0.57,0.18-0.86,0.27c0.38,4.21,0.77,8.42,1.15,12.63c0.49,0.09,0.97,0.17,1.46,0.26    C109.31,643.03,109.54,642.21,109.74,640.79z M85.96,613.38c-0.91-6.32-0.58-13.06-4.59-18.3    C82.83,601.33,84.29,607.58,85.96,613.38z M448.04,614.9c-0.88,2.74-1.75,5.49-2.81,8.79c3.66-2.02,5.06-6.01,4.48-11.85    C449.11,612.83,448.65,613.6,448.04,614.9z M207.57,606.27c-1.74,3.44-3.04,7-2.37,11.77    C208.18,613.88,208.99,609.65,207.57,606.27z M467.23,616.3c0.1-0.73,0.2-1.46,0.34-2.44c-4.24,5.83-4.62,7.93-2.12,11.95    C466,622.74,466.54,619.8,467.23,616.3z M361.88,656.7c1.47,0,2.95,0,4.42,0c0-0.13,0-0.26,0-0.38c-8.34,0-16.69,0-25.03,0    c0,0.13,0,0.26,0,0.39C347.95,656.7,354.63,656.7,361.88,656.7z M98.86,617.92c0.56-1.32,1.12-2.64,1.57-3.7    c-0.31-1.78-0.57-3.27-0.93-5.35c-1.57,3.99-3.92,7.07-1.51,11.29C98.29,619.51,98.54,618.99,98.86,617.92z M122.39,616.12    c0.07-1.98,0.15-3.96,0.24-6.47c-3.06,4.62-3.2,8.42-0.81,12.74C121.92,620.49,122.03,618.6,122.39,616.12z M111.15,606.05    c-0.64-1.29-1.28-2.57-1.91-3.86c-0.32,0.34-0.65,0.69-0.97,1.03c0.39,2.96,0.77,5.93,1.23,9.46c1.12-1.86,1.9-3.16,2.79-4.62    C112.09,607.66,111.77,607.02,111.15,606.05z M396.93,605.6c0-3.77,0-7.53,0-11.3c-0.17,0-0.33-0.01-0.5-0.01    c-0.26,6.7-0.51,13.39-0.77,20.09c0.27,0.03,0.54,0.05,0.82,0.08C396.63,611.75,396.78,609.05,396.93,605.6z M280.94,609.22    c0.9,0.76,1.81,1.52,3.4,2.86c-0.77-3.93-1.3-6.68-1.84-9.43c-0.27-0.01-0.54-0.01-0.81-0.02    C281.35,604.69,281.01,606.74,280.94,609.22z M98.87,621.18c0.22,1.56,0.43,3.13,0.66,4.8c4.06-2.6,1.38-6.25,1.11-9.59    C100.08,617.79,99.51,619.19,98.87,621.18z M320.33,546.67c0,0.5,0,1,0,1.5c0.22,0.04,0.44,0.08,0.66,0.11    c0.65-5.2,1.3-10.41,1.95-15.61c-0.37-0.07-0.75-0.15-1.12-0.22C321.32,536.99,320.83,541.54,320.33,546.67z M396.34,636.17    c0,1.25,0,2.5,0,3.75c0.26,0.02,0.51,0.04,0.77,0.05c0.31-5.72,0.62-11.44,0.92-17.15c-0.23-0.03-0.46-0.06-0.69-0.08    C397.01,626.98,396.68,631.23,396.34,636.17z M448.24,638.51c0.34,2.06,0.67,4.13,1.01,6.19c0.26-0.04,0.53-0.08,0.79-0.12    c-0.17-4.35-0.33-8.71-0.5-13.06c-0.22,0.01-0.44,0.02-0.66,0.03C448.65,633.66,448.42,635.77,448.24,638.51z M198.04,502.5    c-0.28-3-0.55-6-0.83-9c-0.16,0.01-0.32,0.03-0.49,0.04c0,4.41,0,8.82,0,13.24c0.18,0,0.36,0.01,0.54,0.01    C197.51,505.57,197.76,504.36,198.04,502.5z M110.84,614.95c0.13,1.84,0.25,3.69,0.38,5.53c0.22,0.05,0.43,0.1,0.65,0.15    c0.57-1.64,1.15-3.28,1.75-5c-0.48-1.32-0.91-2.52-1.72-4.75C111.45,612.78,111.24,613.62,110.84,614.95z M283.03,612.82    c-0.85-0.72-1.69-1.43-2.54-2.15c-0.13,0.17-0.25,0.33-0.38,0.5c1.34,2.99,2.68,5.98,4.02,8.97c0.28-0.11,0.56-0.22,0.85-0.33    C284.44,617.61,283.9,615.41,283.03,612.82z M103.84,612.28c0.44,1.78,0.87,3.56,1.31,5.34c0.18,0,0.37,0,0.55,0.01    c0.16-3.02,0.32-6.03,0.47-9.05c-0.41-0.17-0.83-0.33-1.24-0.5C104.52,609.28,104.12,610.48,103.84,612.28z M112.9,605.41    c0.27,0.8,0.55,1.6,0.96,2.79c0-3.7,0-6.88,0-11.22c-1.15,2.18-1.82,3.44-2.49,4.7C111.93,602.93,112.37,603.9,112.9,605.41z     M100.65,599.51c0.09,0.57,0.19,1.14,0.36,2.16c2.26-2.03,3.36-3.97,1.13-8.12C101.47,595.84,101.02,597.39,100.65,599.51z     M114.58,623.72c-0.1-1.63-0.19-3.26-0.29-4.89c-0.39,0.04-0.78,0.08-1.17,0.12c0.19,3.6,0.38,7.2,0.57,10.81    c0.29-0.02,0.58-0.04,0.86-0.07C114.55,627.92,114.55,626.14,114.58,623.72z M424.56,634.39c-0.09-0.59-0.17-1.17-0.26-1.76    c-0.06,0.02-0.12,0.04-0.18,0.06c0,4.45,0,8.89,0,13.34c0.17,0,0.33-0.01,0.5-0.01C424.61,642.33,424.61,638.65,424.56,634.39z     M120.71,638.01c-0.41-3.77-0.83-7.53-1.24-11.3c-0.28,0.06-0.56,0.11-0.84,0.17c0.44,4.27,0.88,8.54,1.32,12.8    c0.2-0.03,0.41-0.06,0.61-0.09C120.6,639.25,120.64,638.91,120.71,638.01z M272.22,521.27c-0.22,2.58-1.04,5.29,1.11,7.83    c0-4.18,0-7.88,0-11.57c-0.13-0.02-0.25-0.04-0.38-0.05C272.72,518.55,272.49,519.62,272.22,521.27z M209.58,520.44    c0.46,3.52,0.93,7.03,1.5,11.36c0.68-2.11,1.11-3.47,1.61-5.02C211.7,524.52,210.71,522.23,209.58,520.44z M461.76,652.08    c0.36-3.79,0.71-7.57,1.07-11.36c-0.27-0.04-0.54-0.07-0.81-0.11c-0.43,4.23-0.86,8.46-1.29,12.68c0.17,0.04,0.34,0.07,0.51,0.11    C461.34,653.09,461.44,652.78,461.76,652.08z M445.62,629.18c0.09,1,0.18,2,0.27,3c0.15,0,0.3,0.01,0.45,0.01    c0.63-2.69,1.27-5.38,1.9-8.08c-0.47-0.18-0.95-0.36-1.42-0.54C446.4,625.24,445.97,626.91,445.62,629.18z M440.76,621.96    c-0.17-0.89-0.35-1.78-0.52-2.67c-0.25,0.02-0.49,0.04-0.74,0.06c-0.26,2.88-0.51,5.77-0.77,8.65c0.27,0.06,0.53,0.12,0.8,0.19    C439.95,626.32,440.36,624.45,440.76,621.96z M428.38,644.17c0.21,0.33,0.42,0.66,0.63,0.99c0.19-0.08,0.39-0.17,0.58-0.25    c-0.24-3.14-0.48-6.28-0.71-9.42c-0.1-0.01-0.2-0.01-0.3-0.02C428.44,638.19,428.32,640.92,428.38,644.17z M200.13,604.75    c0.18,0.26,0.37,0.53,1.05,1.53c-0.33-4.6-0.6-8.35-0.87-12.11c-0.08,0.01-0.16,0.02-0.24,0.03    C200.06,597.52,200.06,600.83,200.13,604.75z M188.81,582.18c-0.5-0.83-1-1.67-1.5-2.5c-0.26,0.18-0.52,0.36-0.78,0.55    c0.37,2.17,0.74,4.35,1.11,6.52c0.28-0.02,0.56-0.04,0.84-0.06C188.6,585.39,188.72,584.09,188.81,582.18z"/>

<path d="M56.57,621.68c8.25,7.54,15.46,16.05,21.17,26.53c-8.84-10.25-17.68-20.49-26.57-30.8    C52.9,618.77,54.65,620.14,56.57,621.68z"/>

<path d="M477.92,625.21c0,0,0.21,0,0.31,0.01c0.1,3.41,0.1,6.83,0.1,10.54c2.25-1.9,4.64-3.93,7.02-5.95    c0.06,0.11,0.12,0.22,0.18,0.34c-3.21,3.68-6.42,7.35-9.81,11.13c-0.35-0.09-0.51-0.28-0.7-0.87    C478.46,635.86,477.43,630.3,477.92,625.21z"/>

<path d="M187.06,657.74c2.92,0,5.54,0,8.16,0c0,0.08,0,0.16,0,0.25c-4.62,0-9.23,0-13.85,0c0-0.08,0-0.16-0.01-0.24    C183.17,657.75,184.97,657.75,187.06,657.74z"/>

</g>

</g>

</svg>