<?xml version="1.0" ?>

<!-- Uploaded to: SVG Repo, www.svgrepo.com, Generator: SVG Repo Mixer Tools -->
<svg width="800px" height="800px" viewBox="-52.05 0 684.34 684.34" id="Layer_1" version="1.1" xml:space="preserve" xmlns="http://www.w3.org/2000/svg" xmlns:xlink="http://www.w3.org/1999/xlink">

<style type="text/css">
	.st0{clip-path:url(#SVGID_2_);}
	.st1{clip-path:url(#SVGID_4_);}
	.st2{clip-path:url(#SVGID_6_);}
	.st3{clip-path:url(#SVGID_8_);}
	.st4{clip-path:url(#SVGID_10_);}
	.st5{clip-path:url(#SVGID_12_);}
	.st6{clip-path:url(#SVGID_14_);}
	.st7{clip-path:url(#SVGID_16_);}
	.st8{clip-path:url(#SVGID_18_);}
	.st9{clip-path:url(#SVGID_20_);}
	.st10{clip-path:url(#SVGID_22_);}
	.st11{clip-path:url(#SVGID_24_);}
	.st12{clip-path:url(#SVGID_26_);}
	.st13{clip-path:url(#SVGID_28_);}
	.st14{clip-path:url(#SVGID_30_);}
	.st15{clip-path:url(#SVGID_32_);}
	.st16{clip-path:url(#SVGID_34_);}
	.st17{clip-path:url(#SVGID_36_);}
	.st18{clip-path:url(#SVGID_38_);}
	.st19{clip-path:url(#SVGID_40_);}
</style>

<g>

<defs>

<rect height="684.34" id="SVGID_31_" width="580.24" y="0"/>

</defs>

<clipPath id="SVGID_2_">

<use style="overflow:visible;" xlink:href="#SVGID_31_"/>

</clipPath>

<g class="st0">

<path d="M343.73,585.8c-4.72,28.36-9.3,56.43-13.93,84.76c-7.52,0-15.29,0-23.41,0c-1.83-8.72-3.88-17.29-5.39-25.96    c-3.72-21.33-7.99-42.61-10.54-64.09c-2.97-25.05-4.8-50.26-6.3-75.45c-1.59-26.66-2.12-53.37-3.27-80.06    c-0.85-19.65-1.66-39.31-3.04-58.93c-1.48-21.01-3.63-41.98-5.45-62.97c-1.53-17.56-2.85-35.15-4.56-52.7    c-1.2-12.3-2.93-24.56-4.4-36.83c-1.59-13.16-3.09-26.34-4.76-39.49c-1.4-10.98-3-21.93-4.55-33.15    c-10.58,0.14-18.13-5.46-24.33-12.97c-2.82-3.42-5.07-7.57-6.59-11.76c-4-11.07-7.47-22.33-11.21-33.73    c12.11,5.55,23.39,12,33.47,22.25c-0.81-6.14-1.46-11.06-2.09-15.86c-4.69-1.96-6.11-5.19-5.31-11.66    c0.41-3.26,0.83-6.52,1.24-9.72c-5.06-3.93-9.66-7.69-6.57-14.73c1.54-3.51,4.35-2.81,7.08-2.42c4.96,5.66,4.97,7.33,2.08,14.19    c-0.88,2.09-0.14,4.88-0.14,7.26c6.4,2.92,8.27,7.89,7.68,14.07c-3.11,3.69-2.87,13.22,0.57,23.84    c5.21-14.57,13.83-26.84,23.66-38.32c0.34,0.11,0.69,0.22,1.03,0.33c0,12.11-0.01,24.21,0,36.32c0.01,7.47-1.12,14.74-5.36,21.02    c-2.45,3.62-5.69,6.7-9.16,10.69c1.04,7.49,2.27,16.12,3.44,24.77c1.74,12.83,3.5,25.65,5.12,38.49    c1.48,11.73,2.85,23.48,4.15,35.24c1.51,13.67,2.92,27.35,4.31,41.03c1.26,12.41,2.49,24.82,3.61,37.25    c0.94,10.43,1.71,20.87,2.52,31.3c1.02,13.07,2.2,26.12,2.96,39.2c0.76,13.13,1.05,26.29,1.62,39.43    c0.96,22.31,1.99,44.63,2.95,66.94c0.38,8.8,0.34,17.63,1.03,26.41c1.14,14.46,2.6,28.9,4.13,43.33    c1.25,11.76,2.51,23.53,4.29,35.22c1.84,12.07,4.3,24.04,6.49,36.05c0.36-0.02,0.71-0.04,1.07-0.05c0-2.29-0.09-4.57,0.01-6.86    c0.92-19.91,2.16-39.82,2.74-59.74c0.64-21.86,0.66-43.75,1.01-65.62c0.57-35.31,0.97-70.63,1.9-105.93    c0.44-16.45,1.96-32.88,3-49.32c0.32-0.01,0.63-0.03,0.95-0.04c0,5.07,0,10.14,0,15.21c0.36,0.01,0.71,0.01,1.07,0.02    c0.08-1.34,0.15-2.68,0.23-4.02c0.1,0,0.2,0,0.3,0c0,51.98,0,103.95,0,155.93c0.06,0,0.12,0.01,0.18,0.01    c0.42-12.77,0.85-25.55,1.27-38.32c0.22,0.03,0.44,0.06,0.66,0.1c0.41-2.22,1.17-4.44,1.18-6.66c0.13-32.34,0.27-64.67,0.18-97.01    c-0.04-14.3,0.07-28.66-1.02-42.9c-1.24-16.33-3.73-32.56-5.68-48.83c-0.55-4.63-1.12-9.26-0.8-14.25    c1.66,3.99,4.03,7.83,4.84,11.98c2.47,12.64,4.99,25.34,6.34,38.14c6.27,59.23,4.49,118.68,4.58,178.08    c0.01,5.61-0.01,11.21-0.01,16.82c0,0.45,0.1,0.91,0.17,1.53c1.4-8.08,1.9-16.19,4.31-23.69c4.55-14.15,9.76-28.12,15.48-41.84    c10.81-25.96,24.95-50.22,38.56-73.75c0-9.91,0.01-19.09,0-28.28c-0.01-12.41,0.38-24.85-0.14-37.24    c-0.98-23.37-2.06-46.74-3.94-70.05c-1.1-13.65-3.92-27.15-5.73-40.75c-0.96-7.17-1.42-14.4-2.1-21.61    c0.41-0.08,0.81-0.15,1.22-0.23c2.55,10.27,5.3,20.48,7.58,30.81c2.03,9.22,3.75,18.53,5.18,27.86    c1.16,7.52,1.75,15.13,2.49,22.72c1.2,12.3,2.39,24.6,3.43,36.92c1.01,11.92,2.11,23.84,2.65,35.78    c0.43,9.69,0.09,19.41,0.74,29.32c16.1-20.83,33.56-40.13,51.89-58.58c18.36-18.48,37.23-36.44,57.56-52.81    c20.13-16.21,39.62-33.29,62.48-45.65c0.36,0.41,0.71,0.82,1.07,1.24c-3.88,4.38-7.58,8.94-11.67,13.12    c-10.71,10.93-21.52,21.78-32.43,32.51c-18.05,17.74-36.68,34.92-54.22,53.15c-18.73,19.47-36.62,39.77-54.6,59.94    c-5.92,6.64-11.03,14-16.43,21.1c-0.64,0.84-1.1,2.06-1.11,3.11c-0.1,6.88-0.05,13.76-0.05,21.83    C442,366.85,487.67,340.9,542.5,332.4c0.23,0.45,0.46,0.91,0.7,1.36c-4.23,1.95-8.45,3.91-12.69,5.84    c-22.55,10.27-45.31,20.17-65.95,34.07c-6.27,4.22-11.85,9.46-17.54,14.94c12.97-3.2,25.92-5.37,39.22-5.57    c13.67-0.2,26.55,3.29,39.48,7.2c-6.56,0-13.12,0.1-19.68-0.02c-18.76-0.35-37.04,2.81-54.78,8.53    c-13.48,4.35-25.69,11.29-35.74,21.62c-3.74,3.85-7.77,7.41-10.49,9.99c-0.62,36.33-1.21,71.06-1.79,104.84    c7.57-13.54,15.71-28.12,23.86-42.71c-0.25-0.24-0.51-0.48-0.76-0.71c-4.79,2.72-9.58,5.44-14.62,8.3    c-0.5-0.42-1.12-0.93-1.82-1.52c8.65-9.46,18.6-16.8,29-23.67c3.27-2.16,5.73-5.61,8.37-8.63c10.57-12.11,20.86-24.48,31.66-36.38    c6.5-7.17,13.76-13.65,20.68-20.44c0.49,0.27,0.97,0.54,1.46,0.81c-0.25,1.08-0.22,2.34-0.79,3.22    c-5.84,9.08-11.8,18.08-17.69,27.13c-6.34,9.74-12.65,19.51-18.95,29.27c-0.75,1.16-1.4,2.39-2.76,4.73    c16.04-0.69,30.77,1.65,45.15,9.97c-1.69,0.41-2.45,0.83-3.13,0.72c-16.28-2.72-32.48-2.33-48.45,1.85    c-2.27,0.6-4.71,2.7-5.95,4.78c-10.66,17.92-21.12,35.97-31.52,54.04c-4.72,8.2-9.34,16.46-13.63,24.88    c-1.39,2.72-1.81,6-2.29,9.09c-1.44,9.17-2.71,18.36-4.01,27.55c-0.14,0.96-0.02,1.96-0.02,3.97c1.94-1.59,3.71-2.38,4.45-3.74    c6.33-11.5,15.89-20.22,25.07-29.21c10.03-9.82,21.34-18.04,33.26-25.46c13.2-8.22,26.85-15.46,41.89-19.68    c7.85-2.2,15.85-3.89,23.79-5.81c0.16,0.49,0.32,0.99,0.48,1.48c-3.61,1.88-7.18,3.85-10.84,5.62    c-31.26,15.12-58.61,35.55-82.02,61.11c-10.27,11.21-20.56,22.79-26.44,36.95c-4.61,11.11-7.04,23.12-10.44,34.72    c-0.28,0.97-0.56,1.95-0.93,3.24c-5.87,0-11.78,0-17.8,0c0.37-8.38,0.72-16.42,1.07-24.47c-0.17-0.03-0.34-0.05-0.51-0.08    c-2.4,8.25-4.8,16.51-7.16,24.65c-9.4,0-18.41,0-27.76,0c7.14-23.9,16.75-46.38,28.01-68.17c3.43-6.64,7.64-12.89,11.44-19.34    c0.55-0.93,1.15-2,1.22-3.04c0.87-12.88,1.59-25.77,2.47-38.65c1.41-20.64,3.06-41.27,4.31-61.92c0.46-7.59,0.07-15.22,0.07-23.82    c-5.08,10.17-10.4,19.29-14.31,28.99c-7.79,19.28-15.4,38.67-21.92,58.4C349.92,557.01,347.33,571.4,343.73,585.8z M342.97,515.53    c-2.2,11.07-4.41,22.14-6.61,33.21c6.26-15.8,11.83-31.67,17.61-47.46c8.31-22.69,18.82-44.39,30.26-65.64    c4.64-8.62,8.26-17.22,6.11-27.77c-2.62,3.86-5.44,7.18-7.33,10.96c-7.2,14.41-14.83,28.67-20.93,43.55    C355.03,479.6,349.43,497.39,342.97,515.53z M325.38,382.18c0-10.12,0-20.24,0-30.36c-0.27,0.01-0.54,0.01-0.81,0.02    c0,33.99,0,67.98,0,101.97c0.27,0,0.54,0,0.8,0C325.38,430.18,325.38,406.56,325.38,382.18z M331.51,555.91    c0-9.66,0-19.31,0-28.97c-0.22,0-0.44,0-0.66,0c0,16.73,0,33.46,0,50.19c0.21,0.01,0.43,0.01,0.64,0.02    C331.48,570.3,331.48,563.44,331.51,555.91z M314.68,412.89c0-5.48,0-10.97,0-16.45c-0.14,0-0.28,0-0.42,0    c0,12.39,0,24.78,0,37.17c0.15,0,0.3,0,0.45,0C314.71,426.96,314.71,420.31,314.68,412.89z M312.79,488.94c0,5.45,0,10.91,0,16.36    c0.06,0,0.11,0,0.17,0c0-8.51,0-17.01,0-25.52c-0.07,0-0.14,0-0.2,0C312.76,482.58,312.76,485.38,312.79,488.94z M281.33,418.37    c0-7.1,0-14.19,0-21.29c-0.01,0-0.03,0-0.04,0C281.29,404.06,281.29,411.04,281.33,418.37z M324.99,470.45c0,2.47,0,4.94,0,7.42    c0.11,0,0.21,0,0.32,0c0-6.97,0-13.94,0-20.91c-0.11,0-0.22,0-0.32,0C324.98,461.2,324.98,465.45,324.99,470.45z M283.95,460.47    c0-0.62,0-1.25,0-1.88c-0.12,0-0.24,0-0.36,0c0,6.64,0,13.28,0,19.93c0.13,0,0.25,0,0.38,0    C283.97,472.71,283.97,466.9,283.95,460.47z M390.57,351.29c0-5.62,0-11.23,0-16.85c-0.06,0-0.11,0-0.17,0c0,6.09,0,12.19,0,18.28    c0.03,0,0.07,0,0.1,0C390.53,352.4,390.55,352.08,390.57,351.29z"/>

<path d="M210.77,233.13c4.78-7.43,10.21-13.9,17.96-19.21c0,3.3,0.06,6.03-0.01,8.77c-0.19,6.9-0.25,13.82-0.73,20.7    c-0.55,7.91-1.96,15.68-6.79,22.29c-1.71,2.34-3.81,4.4-5.91,6.77c7.1-1.4,14-3.45,21.23-2.01c0.46,1.42,0.87,2.48,1.14,3.58    c1.19,4.76-0.17,7.08-4.78,8.54c-6.07,1.92-11.76,0.97-17.22-2.04c-2.7-6.59-2.7-6.59-7.35-4.48c-1.15,5.5,3.04,8.24,5.94,11.83    c5.07,6.28,10.5,12.45,14.39,19.44c5.18,9.32,9.62,19.17,13.3,29.18c4.18,11.39,7.62,23.1,10.57,34.87    c3.51,14.05,6.48,28.26,9.05,42.52c1.69,9.38,2.53,18.94,3.29,28.46c1.42,17.66,2.86,35.33,3.64,53.03    c0.78,17.75,1,35.54,1.06,53.32c0.14,39.03,0.02,78.06,0.01,117.1c0,1.5,0,3,0,4.79c-10.19,0-19.98,0-30.01,0    c-4.43-24.6-8.83-49.05-13.24-73.5c-0.2,0-0.39,0.01-0.59,0.01c0.68,24.33,1.36,48.66,2.05,73.47c-11.72,0-22.77,0-34.02,0    c-6.79-30.04-15.97-59.24-30.67-86.56c4.39,28.72,6.13,57.53,4.78,86.57c-5.01,0-9.97,0-14.96,0c-0.28-6.37-0.53-12.25-0.81-18.12    c-0.78-15.83-1.2-31.68-2.49-47.47c-0.97-11.77-3.1-23.44-4.67-35.17c-0.64-4.79-4.37-7.29-7.55-10.02    c-11.43-9.81-24.93-15.66-39-20.69c-20.22-7.23-41.07-9.11-62.29-9.15c-9.62-0.02-19.01-1.74-28.07-5.08    c-0.41-0.15-0.77-0.43-1.52-0.85c6.37-1.12,12.34-1.96,18.21-3.25c15.07-3.3,30.31-4.91,45.68-3.72    c18.61,1.45,36.25,6.63,52.32,16.33c6.44,3.89,12.48,8.44,18.91,12.84c-0.93-4.7-1.75-9.68-2.91-14.58    c-2.28-9.62-4.82-19.18-7.09-28.8c-0.86-3.65-2.79-6.12-5.84-8.34c-12.85-9.33-27.32-15.01-42.29-19.84    c-7.43-2.4-14.59-5.66-21.83-8.64c-1.02-0.42-1.77-1.5-2.39-2.63c21.35,1.6,42.19,4.5,62.15,14.92c-0.4-2.39-0.5-3.96-0.93-5.43    c-1.53-5.19-3.16-10.34-4.77-15.51c-0.82-2.65-2.61-4.06-5.35-4.71c-19.14-4.56-38.38-4.62-57.7-1.46    c-8.38,1.37-16.76,2.76-25.12,4.24c-2.18,0.39-4.28,1.18-6.67,1.85c1.27-4.54,26.69-15.74,41.22-18.87    c15.35-3.31,30.66-4.22,46.27,0.2c-15.94-42.12-37.93-80.97-52.82-122.84c0.44-0.28,0.87-0.57,1.31-0.85    c1.97,2.42,4.27,4.65,5.85,7.3c10.16,17.02,20.73,33.83,30.08,51.3c11.21,20.94,21.58,42.34,31.75,63.81    c2.22,4.68,5.29,6.98,9.49,9.23c8.51,4.57,16.68,9.76,25.02,14.63c1.31,0.76,2.81,1.18,5.03,1.22    c-28.04-41.04-56.08-82.08-84.11-123.13c0.21-0.26,0.43-0.51,0.64-0.77c2.82,2.27,5.79,4.37,8.42,6.85    c6.96,6.57,14.15,12.96,20.54,20.06c9.75,10.83,19.27,21.91,28.21,33.41c11,14.14,21.57,28.63,31.85,43.3    c13.27,18.94,25.26,38.68,35.56,59.42c3.46,6.96,7.04,13.86,10.54,20.81c0.46,0.92,0.75,1.93,1.62,2.86    c-0.31-3.7-0.71-7.4-0.91-11.1c-1.03-19.41-1.97-38.82-3-58.23c-0.98-18.47-2.03-36.93-3.04-55.4c-0.79-14.5-1.44-29.01-2.39-43.5    c-1-15.28-2.35-30.54-3.42-45.81c-0.61-8.65-0.97-17.32-1.51-27.24c-5.6,10.99-14.66,8.82-23.34,8.34    c-1.73-3.64-3.96-6.82-0.28-10.86c7.86-2.23,15.76-0.69,23.75,3.08c0-2.97,0-5.56,0-8.47c-7.26-0.26-13.8-2.88-19.11-8.01    c-2.73-2.63-5.04-5.71-7.38-8.71c-3.04-3.88-5.93-7.87-8.53-12.69c1.35,0.22,2.77,0.23,4.02,0.7c5.17,1.94,10.26,4.09,15.44,6    c2,0.74,4.15,1.05,6.92,1.72c-1.8-3.84-2.78-7.17-4.76-9.73c-1.43-1.84-4.41-2.39-6.3-3.99c-2.28-1.94-4.79-4.07-6.02-6.67    c-3.34-7.07-6.08-14.42-8.99-21.69c-0.27-0.66-0.04-1.52-0.04-2.95c8.84,5.05,16.44,10.39,22,18.08    c2.39,3.31,3.19,7.17,2.58,11.49c-0.38,2.67,0.4,5.6,1.09,8.3c0.67,2.63,1.89,5.12,3.39,7.6c-0.41-18.72-0.82-37.45-1.25-56.63    c-3.7-0.98-5.58-3.63-5.88-7.58c-0.28-3.65,2.04-6.7,5.47-6.87c3.11-0.15,5.47,2.29,5.29,5.94c-0.14,2.86-0.78,5.69-2.08,8.43    c0,2.37,0,4.74,0,7.84c2.89-2.37,5.28-4.32,8.43-6.9c-0.38,7.18-0.25,13.7-1.31,20.02c-0.43,2.55-3.46,4.66-5.43,7.13    c0,7.55,0,15.63,0,23.71c0.31,0.06,0.62,0.13,0.92,0.19C204.65,244.97,207.63,239.16,210.77,233.13z M190.42,612.48    c-2.08-6.84-3.75-13.85-6.32-20.5c-5.73-14.81-11.72-29.54-18-44.13c-3.28-7.63-7.37-14.92-11.19-22.31    c-0.46-0.9-1.54-1.48-2.58-2.43c-0.16,0.87-0.3,1.14-0.24,1.36c3.1,10.97,5.86,21.99,6.27,33.49c0.08,2.29,0.79,4.84,2.02,6.74    c2.45,3.79,5.28,7.38,8.29,10.75c6.55,7.35,10.15,16.29,14.07,25.09c2.07,4.66,4.19,9.29,6.13,14.46    c1.47,4.65,2.94,9.3,4.41,13.95c0.33-0.08,0.66-0.16,0.98-0.24C194.06,623.27,192.46,618.13,190.42,612.48z M244.56,363.23    c-0.91-2.52-1.93-5.01-2.7-7.57c-1.68-5.56-2.86-11.31-4.94-16.71c-3.46-8.95-7.42-17.71-11.3-26.5c-0.7-1.58-1.97-2.91-3-4.34    c-1.46-2.02-3.04-3.95-4.41-6.04c-2.87-4.39-5.63-8.85-8.44-13.28c0.14,11.77,1.16,23.05,2.04,34.33    c1.59,20.35,3.26,40.69,4.58,61.05c1.24,19.1,2.09,38.22,3.06,57.34c1.15,22.84,2.21,45.68,3.39,68.52    c0.36,6.88,0.19,13.92,1.64,20.58c3.13,14.31,7.28,28.39,10.78,42.62c3.62,14.74,7.18,29.5,10.36,44.34    c2.59,12.11,4.57,24.34,6.88,36.79c0.27-3.36,0.75-6.5,0.72-9.64c-0.1-11.37-0.38-22.74-0.58-34.11    c-0.26-14.06-0.39-28.13-0.8-42.19c-0.98-34.12-2-68.23-3.23-102.34c-0.28-7.88-1.24-15.75-2.25-23.58    c-1.32-10.18-3.01-20.32-4.52-30.48c-0.53-3.56-0.85-7.16-1.54-10.68c-1.17-5.95-2.56-11.86-3.86-17.79    c-0.05-0.21-0.15-0.41-0.31-0.81c-0.24,0.4-0.39,0.69-0.57,0.96c-0.03,0.04-0.18,0.01-0.49,0.01c-1.18-5.86-2.38-11.75-3.57-17.63    c0.43-0.1,0.85-0.21,1.28-0.31c0.25,0.39,0.51,0.78,0.76,1.17c5.92,9.44,8.82,20.07,11.31,30.72c2.77,11.83,5.35,23.77,6.83,35.81    c2.36,19.22,4.35,38.52,5.38,57.84c1.35,25.41,1.71,50.87,2.32,76.31c0.4,16.35,0.49,32.72,0.71,49.07    c0.88-1.62,0.88-3.24,0.88-4.86c0.01-29.05,0.11-58.09,0-87.14c-0.05-12.91-0.26-25.84-0.87-38.73    c-0.64-13.63-1.82-27.24-2.78-40.86c-0.57-8.12-0.75-16.29-1.85-24.34c-1.6-11.6-3.87-23.11-5.87-34.65    c-0.82-4.73-1.56-9.47-2.55-14.16c-0.56-2.66-1.55-5.23-2.42-8.13C244.62,363.81,244.32,363.82,244.56,363.23z M181.49,514.02    c-0.87-2.24-1.54-4.58-2.66-6.69c-3.74-7.05-7.29-14.24-11.58-20.94c-5.75-8.99-14.68-14.77-23.16-20.85    c-3.55-2.55-7.69-4.28-12.57-6.92c4.2,12.23,7.42,23.68,12.15,34.46c2.36,5.37,7.42,9.58,11.39,14.22    c9.9,11.57,18.55,23.98,24.5,38.04c4.53,10.72,8.71,21.6,12.75,32.52c3.35,9.04,6.46,18.18,9.3,27.39    c2.27,7.36,3.97,14.9,5.92,22.36c0.42-0.82,0.52-1.59,0.4-2.33c-1.47-9.07-2.55-18.24-4.57-27.19    c-4.21-18.62-8.77-37.17-13.48-55.67C187.5,533.05,184.5,523.84,181.49,514.02z M204.15,530.66c-0.97-2.03-1.94-4.06-2.91-6.09    c-0.38,0.1-0.76,0.21-1.14,0.31c5.32,19.23,10.63,38.47,15.95,57.7c0.4-0.1,0.79-0.2,1.19-0.3    C215.69,564.6,210.5,547.79,204.15,530.66z M254.03,587.99c0-4.96,0-9.92,0-14.88c-0.13,0-0.25,0-0.38,0c0,13.78,0,27.57,0,41.35    c0.13,0,0.26,0,0.39,0C254.04,605.9,254.04,597.33,254.03,587.99z M251.89,522.99c0.06,0.82,0.12,1.65,0.14,1.94    c0-12.87,0-26.23,0-39.59c-0.05,0-0.1,0-0.14,0.01C251.89,497.68,251.89,510.01,251.89,522.99z M253.34,557.27    c0-9.34,0-18.68,0-28.03c-0.16,0-0.31,0-0.47,0c0,13.41,0,26.81,0,40.22c0.16,0,0.31,0,0.47,0    C253.34,565.66,253.34,561.85,253.34,557.27z"/>

<path d="M119.27,608.03c11.65,19.75,22.35,39.6,26.22,62.66c-3.81,0-7.56,0-11.75,0c-14.8-54.97-48.77-97.39-88.52-136.13    C77.65,551.04,100.69,577.07,119.27,608.03z"/>

</g>

</g>

</svg>