<?xml version="1.0" ?>

<!-- Uploaded to: SVG Repo, www.svgrepo.com, Generator: SVG Repo Mixer Tools -->
<svg width="800px" height="800px" viewBox="-52.05 0 684.34 684.34" id="Layer_1" version="1.1" xml:space="preserve" xmlns="http://www.w3.org/2000/svg" xmlns:xlink="http://www.w3.org/1999/xlink">

<style type="text/css">
	.st0{clip-path:url(#SVGID_2_);}
	.st1{clip-path:url(#SVGID_4_);}
	.st2{clip-path:url(#SVGID_6_);}
	.st3{clip-path:url(#SVGID_8_);}
	.st4{clip-path:url(#SVGID_10_);}
	.st5{clip-path:url(#SVGID_12_);}
	.st6{clip-path:url(#SVGID_14_);}
	.st7{clip-path:url(#SVGID_16_);}
	.st8{clip-path:url(#SVGID_18_);}
	.st9{clip-path:url(#SVGID_20_);}
	.st10{clip-path:url(#SVGID_22_);}
	.st11{clip-path:url(#SVGID_24_);}
	.st12{clip-path:url(#SVGID_26_);}
	.st13{clip-path:url(#SVGID_28_);}
	.st14{clip-path:url(#SVGID_30_);}
	.st15{clip-path:url(#SVGID_32_);}
	.st16{clip-path:url(#SVGID_34_);}
	.st17{clip-path:url(#SVGID_36_);}
	.st18{clip-path:url(#SVGID_38_);}
	.st19{clip-path:url(#SVGID_40_);}
</style>

<g>

<defs>

<rect height="700" id="SVGID_27_" width="580.24" y="50"/>

</defs>

<clipPath id="SVGID_2_">

<use style="overflow:visible;" xlink:href="#SVGID_27_"/>

</clipPath>

<g class="st0">

<path d="M478.66,648.31c0.89-1.88,1.78-3.76,2.24-4.73c0.44,5.48,0.96,11.83,1.47,18.18c0.35,0.07,0.71,0.15,1.06,0.22    c1.33-1.79,2.66-3.57,4.16-5.59c-0.15,1.59-0.29,3.07-0.44,4.56c0.13,0.04,0.25,0.07,0.38,0.1c1.56-5.09,3.12-10.17,4.68-15.26    c0.59,5.42-1.63,10.77,0.38,17.22c0.92-2.23,1.41-3.42,2.04-4.97c0.48,1.5,0.85,2.63,1.47,4.56c1.09-1.62,1.8-2.68,2.59-3.85    c0.17,0.77,0.34,1.55,0.68,3.12c0.53-2.47,0.9-4.2,1.32-6.18c0.75,2.29,1.42,4.33,2.35,7.16c1.59-2.61,2.73-4.49,4.29-7.05    c-0.37,2.43-0.63,4.1-0.88,5.76c0.41,0.14,0.81,0.27,1.22,0.41c1.57-4.07,3.14-8.14,4.82-12.49c0,4.49,0,8.79,0,13.1    c0.38,0.12,0.76,0.25,1.15,0.37c0.61-0.73,1.22-1.46,2.08-2.49c0.19,4.88,3.88,0.17,5.54,2.6c0.6-1.75,1.11-3.25,1.58-4.62    c0.67,1.31,1.47,2.87,2.26,4.43c0.33-0.13,0.66-0.25,1-0.38c-0.27-2.57-0.54-5.14-0.81-7.7c0.14-0.03,0.28-0.05,0.42-0.08    c0.74,2.66,1.47,5.32,2.28,8.25c0.81-0.4,1.5-0.73,2.4-1.17c0.54,0.29,1.49,0.79,2.63,1.39c0.93-2.83,1.66-5.08,2.4-7.33    c0.13,0.02,0.26,0.04,0.39,0.07c0,2.2,0,4.4,0,6.75c4.69,0.39,9.33,0.78,14.36,1.2c0.13-2.67,0.24-4.79,0.34-6.92    c0.11,0,0.22,0,0.33,0c0,2.07,0,4.15,0,6.45c3.49,0.26,6.77,0.5,10.06,0.75c-0.02,0.42-0.04,0.84-0.06,1.26    c-34.87,0-69.75,0-104.62,0c-0.01,0.4-0.03,0.8-0.04,1.2c2.07,0.13,4.14,0.27,6.21,0.4c-0.02-0.11-0.04-0.22-0.07-0.33    c-10.75,2.08-21.45,4.46-32.26,6.15c-12.03,1.87-24.12,3.57-36.24,4.51c-17.89,1.4-35.83,2.41-53.76,2.96    c-19.33,0.59-38.68,0.66-58.02,0.58c-15.8-0.07-31.61-0.4-47.4-1.17c-17.04-0.83-34.04-2.28-51.06-3.53    c-7.89-0.58-15.8-1.04-23.63-2.06c-9.55-1.25-19.02-3.14-28.55-4.56c-6.31-0.94-12.66-1.54-19.22-2.32c0.2-0.36,0.4-0.71,1.06-1.9    c-35.26,0-70.01,0-104.76,0c-0.01-0.46-0.02-0.91-0.04-1.37c7.4-0.36,14.81-0.72,22.56-1.09c0-2.1,0-4.21,0-6.32    c0.19-0.03,0.38-0.06,0.57-0.09c0.43,2.2,0.86,4.4,1.29,6.57c2.42-0.18,4.52-0.34,6.89-0.51c-0.28-1.67-0.57-3.38-1.03-6.12    c1.11,2.17,1.76,3.43,2.47,4.81c1.07,0.11,2.25,0.24,3.65,0.39c1.08-1.8,2.23-3.71,3.46-5.77c0,2.1,0,4.23,0,6.36    c0.21,0.05,0.41,0.11,0.62,0.16c0.49-1.16,0.97-2.32,1.5-3.58c0.26,1.19,0.49,2.25,0.8,3.65c1.33-0.74,2.38-1.32,3.96-2.2    c0.05-0.79,0.15-2.42,0.31-5.09c0.51,1.56,0.73,2.22,0.95,2.9c0.26-0.4,0.5-0.78,0.93-1.46c0.2,1.88,0.36,3.49,0.55,5.31    c0.96-0.08,1.79-0.15,2.78-0.24c0-0.87,0-1.79,0-3.22c0.8,1.4,1.33,2.34,1.93,3.39c1.95,0,3.92,0,5.54,0c0-5.05,0-9.97,0-14.9    c0.32-0.05,0.64-0.1,0.95-0.15c0.28,0.65,0.56,1.29,0.87,2c2.22-6.21,1.12-12.38,0.1-18.53c-2.34-14-3.14-28.1-2.65-42.26    c0.27-7.75,4.16-13.79,9.99-19.23c-12.61-2.79-24.42-2.03-35.92,3.05c-0.09-0.39-0.18-0.78-0.27-1.16    c4.24-1.18,8.42-2.73,12.73-3.44c4.43-0.73,8.98-0.74,13.48-0.87c4.56-0.13,9.12-0.03,14.39-0.03    c-1.92-7.53-3.63-14.92-5.83-22.15c-0.42-1.36-2.7-2.56-4.35-3.04c-11.92-3.44-22.84-1.92-32.02,7.35    c-0.35,0.36-0.79,0.63-1.74,0.53c0.74-0.95,1.35-2.09,2.25-2.83c3.02-2.48,5.83-5.6,9.3-7.05c7.25-3.04,12.15-8.84,17.79-13.87    c-0.3-1.17-0.59-2.26-0.91-3.53c-8.66-4.16-17.73-6.73-27.48-6.46c8.78-2.51,17.31-1.34,26.69,2.4    c-4.14-10.43-7.85-20.03-11.84-29.52c-0.46-1.09-2.36-1.64-3.68-2.22c-2.02-0.88-4.12-1.58-6.02-3.03    c2.16,0.24,4.33,0.49,6.49,0.73c-4.16-8.91-8.3-17.81-12.45-26.7c0.2-0.1,0.4-0.2,0.6-0.3c4.42,7.39,8.85,14.79,13.51,22.58    c2.6,2.83,4.64,5.82,7.41,7.59c4.9,3.14,10.24,5.55,15.41,8.25c0.87,0.45,1.77,0.83,2.65,1.24c0.24-0.38,0.49-0.76,0.73-1.14    c-2.75-2.26-5.26-4.93-8.28-6.69c-5.79-3.38-11.86-6.24-17.82-9.32c8.88,0.43,16.62,4.22,23.27,9.73    c6.21,5.14,11.57,11.36,17.28,17.13c1.04,1.05,1.98,2.21,3.44,3.86c0-1.59,0-2.44,0-3.7c4.93,8.12,7.68,17.28,15.5,22.62    c0.38-0.24,0.76-0.49,1.14-0.73c-4.98-9.02-9.33-18.47-15.08-26.94c-8.5-12.52-17.81-24.47-27.1-36.4    c-6.55-8.41-15.91-13-24.91-18.24c4.28,1.58,8.56,3.16,12.83,4.74c0.23-0.21,0.47-0.43,0.7-0.64c-5-4.26-10-8.52-15.01-12.78    c0.58-0.59,1.17-1.19,1.75-1.78c28.19,24.27,55.01,49.93,76.9,81.36c-10.85-51.46-32.99-98.07-49.98-146.57    c20.11,44.03,43.71,86.44,58.17,133.05c-11.93-55.71-36.43-106.42-59.36-157.85c1.59,2.87,3.19,5.75,4.78,8.63    c1.59,2.89,3.19,5.78,4.75,8.69c9.81,18.4,20.02,36.59,29.28,55.27c6.14,12.37,11.15,25.36,16.26,38.23    c7.52,18.93,14.66,38.02,21.99,57.03c1.59,4.13,2.76,8.56,6.55,11.4c-0.96-0.22-1.7-0.67-2.05-0.89    c6.76,24.13,13.61,48.55,20.45,72.97c0.42-0.09,0.83-0.19,1.25-0.28c-1.44-8.66-2.69-17.36-4.36-25.98    c-2.7-13.93-5.67-27.8-8.52-41.69c-2.5-7.81-4.48-15.84-7.64-23.36c-3.02-7.21-7.25-13.89-10.85-21.21c0.29-0.6,0.48-0.8,0.67-1    c3.88,7.07,7.76,14.13,11.63,21.2c0.14-0.04,0.28-0.07,0.41-0.11c-0.51-1.82-0.98-3.65-1.53-5.46    c-8.72-28.85-17.7-57.6-29.27-85.42c-0.73-1.76-1.64-3.48-2.06-5.32c-1.72-7.53-6.43-12.1-13.3-14.76    c-1.32-0.51-2.47-1.5-3.37-2.94c3.54,1.6,7.07,3.2,10.37,4.7c-1.31-11.32-10.45-15.19-18.27-20.62c3.6,1.77,7.2,3.55,10.8,5.32    c0.25-0.13,0.5-0.27,0.74-0.4c-3.13-5.15-6.06-10.45-9.44-15.42c-3.51-5.16-7.44-10-11.2-14.98c-3.83-5.08-7.63-10.18-11.53-15.2    c-3.83-4.93-7.69-9.83-11.67-14.63c-3.98-4.8-7.96-9.62-12.25-14.11c-4.27-4.47-8.93-8.54-13.42-12.78    c0.45-0.45,0.91-0.91,1.36-1.36c22.4,19.28,42.15,41.17,60.77,64.54c-5.41-13.67-10.83-27.34-16.24-41.01    c0.28-0.14,0.57-0.27,0.85-0.41c3.4,7.08,6.9,14.1,10.18,21.23c12.81,27.79,25.69,55.56,38.22,83.48    c3.05,6.8,6.63,12.75,12.7,17.12c3.15,2.27,5.87,5.16,8.93,7.9c-1.53-6.18-3.01-12.17-4.5-18.17c0.32-0.11,0.65-0.21,0.97-0.32    c2,5.8,3.48,11.87,6.14,17.34c2.62,5.38,6.44,10.16,9.73,15.2c0.43-0.18,0.86-0.35,1.29-0.53c-0.51-9.84-1.02-19.68-1.53-29.65    c-12.5-13.22-27.11-23.97-41.86-34.57c18.4,8.41,34.53,20.12,48.59,35.4c-0.77-8.1-1.32-15.75-2.34-23.33    c-0.24-1.79-1.95-3.47-3.21-5c-0.82-0.99-2.04-1.63-3.09-2.43c0.32-0.34,0.64-0.68,0.96-1.02c1.49,1.23,2.97,2.46,4.58,3.79    c-5.69-39.56-17.73-76.99-33.17-113.39c0.35-0.15,0.69-0.29,1.04-0.44c2.72,5.73,5.6,11.4,8.13,17.21    c11.78,27.04,19.12,55.47,25,84.34c2.5,12.26,4.38,24.64,6.89,36.9c0.88,4.29,2.82,8.36,4.27,12.52c0.49-0.1,0.97-0.19,1.46-0.29    c-0.56-7.61-1-15.22-1.7-22.82c-1.98-21.59-5.62-43.04-4.77-64.85c0.04-1.08-0.37-2.24-0.79-3.27    c-12.75-31.05-25.81-61.96-42.43-91.12c-0.28-0.49-0.44-1.05-0.29-1.76c22.7,32.63,38.66,68.86,54.22,105.46    c-0.97-6.09-2.01-12.17-2.9-18.28c-1.44-9.88-2.66-19.8-4.23-29.66c-0.36-2.27-1.46-4.55-2.71-6.5    c-4.96-7.75-10.11-15.36-15.19-23.03c0.34-0.25,0.69-0.5,1.03-0.75c4.98,6.64,9.95,13.28,15.61,20.83    c-0.74-7.01-1.36-13-2.02-18.99c-1.38-12.36-2.78-24.72-3.98-37.19c3.35,16.44,6.39,33.02,9.75,49.53    c0.87,4.28,2.73,8.35,4.17,12.5c0.06,0.19,0.45,0.26,0.87,0.49c-0.22-1.38-0.39-2.44-0.57-3.49c1.34,2.76,2.05,5.68,3.02,8.5    c6.9,19.91,10.27,40.61,11.8,61.51c0.93,12.81,3.82,24.32,11.66,33.42c-2.21-23.94-4.49-48.65-6.78-73.37    c0.33-0.03,0.66-0.06,1-0.1c0.86,6.95,1.8,13.9,2.56,20.86c1.86,17.22,3.59,34.45,5.47,51.66c0.22,1.99,0.82,4.03,1.65,5.84    c7.23,15.65,14.58,31.24,21.82,46.89c2.18,4.71,4.11,9.55,6.16,14.33c0.34-0.1,0.68-0.2,1.02-0.3c-0.32-2.06-0.25-4.29-1.03-6.14    c-3.54-8.39-7.05-16.81-11.13-24.93c-2.09-4.16-2.91-8.18-2.9-12.78c0.02-14-0.31-28-0.52-42c-0.02-1.22,0.27-2.72-0.31-3.6    c-6.98-10.71-11.84-22.25-13.71-35.05c-0.44-3.03-1.05-6.09-2.06-8.96c-1.32-3.76-3.12-7.34-4.71-10.99    c0.22-0.11,0.44-0.21,0.66-0.32c1.21,1.81,2.42,3.61,4.08,6.11c-0.16-2.47-0.26-4.05-0.32-5c-2.1-4.29-3.96-8.08-5.82-11.86    c0.14-0.07,0.29-0.13,0.43-0.2c1.45,1.67,2.9,3.33,4.36,5c0.23-0.15,0.46-0.31,0.69-0.46c-1.58-3.33-3.15-6.65-4.73-9.98    c0.21-0.11,0.43-0.22,0.64-0.33c1.48,1.35,2.95,2.7,4.26,3.89c-0.8-2.12-1.61-4.28-2.3-6.59c0.28-0.36,0.43-0.58,0.39-0.98    c-0.89-2.01-1.36-3.97-2.32-5.63c-6.79-11.72-13.53-23.49-20.6-35.04c-5.29-8.64-11.03-16.99-16.57-25.48    c-2.31-4.46-4.62-8.91-6.93-13.37c0.28-0.2,0.56-0.41,0.84-0.61c16.2,22.85,32.4,45.69,48.61,68.54c0.27-0.2,0.55-0.41,0.82-0.61    c2.47,3.32,4.95,6.65,7.64,10.26c0.37-0.89,0.76-1.84,1.36-2.95c0.2-0.16,0.16-0.21,0.25,0.09c0.92,4.1,1.75,7.91,2.58,11.71    c0.13-0.07,0.26-0.14,0.39-0.22c0-2.63,0-5.25,0-7.88c0,0,0.02-0.02,0.02-0.02c1.74,5.07,3.48,10.14,5.16,15.03    c0.22-1.09,0.51-2.53,0.8-3.98c0.25-0.01,0.49-0.01,0.74-0.02c0.67,4.17,1.34,8.34,2.14,13.31c0.57-1.87,0.94-3.08,1.6-5.24    c1.39,8.7,2.64,16.49,3.72,23.2c0.1-1.62,0.26-4.43,0.42-7.23c0.23-0.04,0.45-0.09,0.68-0.13c0.96,5.5,1.87,11.01,2.9,16.49    c0.62,3.27,1.76,6.47,2.09,9.76c0.88,8.68-0.99,17.07-2.94,25.46c-1.03,4.42-1.3,9.01-1.91,13.53c0.36,0.04,0.72,0.08,1.08,0.12    c0-2.06,0-4.12,0-6.18c0.24-0.03,0.48-0.06,0.72-0.09c3.24,14.85,6.48,29.7,9.85,45.13c-0.28-6.12-0.52-11.7-0.79-17.27    c-0.96-19.76-2.16-39.51-2.84-59.29c-0.78-22.35-1.05-44.72-1.72-67.07c-0.06-2.13-1.16-4.34-2.14-6.32    c-4.01-8.06-9.02-15.73-11.98-24.15c-2.51-7.14-2.72-15.13-3.9-22.5c0.24-0.37,0.36-0.56,0.37-0.56c0.32,0.19,0.63,0.4,1.11,0.73    c-0.74-4.26-1.41-8.13-2.08-12c0.16-0.08,0.32-0.15,0.48-0.23c0.66,1.41,1.31,2.83,1.97,4.24c0.1-0.03,0.2-0.06,0.29-0.1    c-1.02-5.17-2.04-10.34-3.06-15.51c0.22-0.08,0.44-0.17,0.67-0.25c0.76,1.35,1.53,2.69,2.61,4.61c-0.96-5.18-1.8-9.73-2.64-14.27    c0.24-0.07,0.48-0.13,0.72-0.2c0.77,1.61,1.53,3.22,2.3,4.84c0.11-0.04,0.22-0.08,0.33-0.11c-0.78-4.95-1.57-9.9-2.35-14.85    c0.15-0.03,0.3-0.06,0.45-0.09c0.97,2.56,1.95,5.13,2.93,7.69c0.19-0.03,0.39-0.05,0.58-0.08c-0.87-5.62-1.74-11.23-2.6-16.85    c0.22-0.07,0.45-0.13,0.67-0.2c0.96,2.39,1.91,4.77,2.87,7.16c0.24-0.03,0.49-0.06,0.73-0.1c-0.79-5.48-1.58-10.95-2.36-16.43    c0.12-0.03,0.25-0.07,0.37-0.1c0.65,2.07,1.3,4.14,1.96,6.21c0.23,0.01,0.46,0.02,0.69,0.03c0-2.63,0-5.26,0-8.82    c0.49,1.61,0.73,2.38,0.97,3.15c0.2-0.01,0.4-0.02,0.6-0.03c-0.8-14.09-1.61-28.19-2.41-42.28c0.05,0,0.09,0.01,0.14,0.01    c2.82,18.92,5.64,37.85,8.46,56.77c0.1,0,0.2,0.01,0.3,0.01c0-3.3,0-6.61,0-9.91c0.2-0.01,0.4-0.03,0.6-0.04    c0.6,4.64,1.21,9.29,1.81,13.93c0.15,0.01,0.29,0.01,0.44,0.02c0.15-1.06,0.3-2.11,0.45-3.17c0.13-0.01,0.27-0.01,0.4-0.02    c0,4.99,0,9.97,0,14.96c0.32,0.03,0.64,0.05,0.97,0.08c0.4-3.35,0.8-6.7,1.2-10.05c0.15-0.01,0.29-0.03,0.44-0.04    c0,5.24,0,10.48,0,16.11c1.05-1.56,1.89-2.8,3.02-4.48c0.93,9.77,1.82,19.2,2.7,28.41c0.05-0.13,0.22-0.64,0.4-1.14    c0.2-0.02,0.4-0.04,0.61-0.06c0.2,2.95,0.6,5.9,0.56,8.84c-0.1,7.36,0.25,14.81-0.8,22.05c-0.86,5.98-3.54,11.67-5.24,17.55    c-0.59,2.03-1.03,4.23-0.95,6.33c0.51,13.61,1.16,27.22,1.83,40.83c0.1,2.03,0.52,4.04,1.22,6.07c2.52-13.76,5.24-27.5,7.4-41.32    c0.46-2.92-1.19-6.15-1.75-9.26c-1.57-8.82-2.87-17.5,0.19-26.47c3.7-10.81,4.79-22.17,5.74-33.59    c2.37-28.44,9.08-55.97,17.92-82.99c0.63-1.91,1.28-3.82,2.29-5.64c-7.16,35.07-18.79,69.37-16.71,105.61    c2.28-4.73,4.73-9.82,7.47-15.52c0.21,1.41,0.33,2.18,0.45,3c0.17-0.11,0.4-0.16,0.46-0.3c5.2-11.64,6.87-24.24,9.09-36.64    c0.67-3.77-1.12-7.98-1.65-12c-1.09-8.27-0.98-16.51,0.55-25.26c0.44,1.02,0.65,1.5,0.53,1.24c1.45-4.98,3.06-10.5,4.66-16.03    c0.36,0.06,0.73,0.12,1.09,0.19c0.15,0.85,0.3,1.7,0.37,2.08c2.11-5.45,4.34-11.2,6.58-16.95c0.25,0.09,0.51,0.17,0.76,0.26    c-0.25,1.58-0.5,3.16-0.8,5.03c3.19-6.75,6.23-13.18,9.26-19.6c0.25,0.08,0.5,0.16,0.75,0.24c-0.53,2.49-1.05,4.98-1.58,7.47    c-0.1-0.1-0.2-0.21-0.31-0.31c5.03-8.59,10.06-17.17,15.09-25.76c0.29,0.16,0.58,0.31,0.87,0.47c-2.47,5.29-4.94,10.58-7.41,15.88    c0.21,0.11,0.43,0.22,0.64,0.32c4.91-7.62,9.82-15.24,14.73-22.86c0.2,0.1,0.41,0.2,0.61,0.3c-1.23,2.77-2.46,5.54-3.6,8.09    c9.21-10.59,18.43-21.19,27.66-31.79c0.26,0.21,0.53,0.42,0.79,0.63c-5.73,9.62-11.46,19.24-17.18,28.86    c0.11,0.11,0.21,0.22,0.32,0.33c0.95-0.85,1.89-1.71,2.84-2.56c0.19,0.15,0.38,0.3,0.57,0.45c-2.5,3.29-5.01,6.58-7.51,9.87    c0.12,0.17,0.24,0.35,0.36,0.52c2.2-1.67,4.39-3.34,6.59-5.01c0.17,0.1,0.34,0.21,0.51,0.31c-3.81,5.18-7.62,10.35-11.43,15.53    c0.17,0.15,0.34,0.31,0.51,0.46c2.88-2.52,5.76-5.03,8.64-7.55c0.19,0.15,0.38,0.3,0.57,0.44c-4.33,5.69-8.66,11.38-13.64,17.93    c3.34-2.68,5.9-4.73,8.46-6.79c0.26,0.22,0.53,0.45,0.79,0.67c-2.88,3.76-5.76,7.53-9.21,12.03c2.39-1.17,4.12-2.01,6.44-3.15    c-3.34,5.18-6.44,10-9.46,14.67c0.63-0.26,1.65-0.68,2.68-1.09c0.23,0.17,0.46,0.33,0.69,0.5c-2.34,3.07-4.67,6.14-7.7,10.11    c1.74-0.82,2.51-1.19,4.26-2.02c-2.4,3.46-4.29,6.17-6.26,9c0.16,0.14,0.55,0.47,1.28,1.1c-2.14,2.32-4.26,4.62-6.38,6.93    c0.22,0.1,0.44,0.19,0.66,0.29c-0.28,0.98-0.27,2.23-0.88,2.89c-5.25,5.66-10.25,11.66-16.07,16.64    c-3.79,3.23-6.26,6.51-7.32,11.43c-1.63,7.59-3.82,15.05-5.75,22.58c-0.28,1.09-0.46,2.2-0.52,2.47    c3.43-3.91,7.72-7.91,10.92-12.67c3.85-5.73,6.92-12.04,10.07-18.24c2.51-4.94,4.63-10.09,7.29-14.98    c-2.62,11.93-7.32,22.95-14.46,32.9c0.31,0.18,0.62,0.36,0.93,0.53c1.86-2.12,3.72-4.24,5.58-6.37c0.13,0.06,0.27,0.12,0.4,0.19    c-0.9,1.85-1.8,3.71-3.09,6.36c2.67-2.34,4.61-4.05,6.56-5.76c0.31,0.36,0.62,0.72,0.93,1.07c9.79-8.25,19.57-16.51,29.36-24.76    c0.09,0.1,0.19,0.21,0.28,0.31c-9.78,11.57-19.56,23.13-29.89,35.33c2.81-1.23,5.03-2.21,7.24-3.18c0.12,0.21,0.23,0.42,0.35,0.63    c-3.27,2.42-6.54,4.85-9.81,7.27c0.13,0.24,0.27,0.49,0.4,0.74c3.2-1.47,6.4-2.94,9.6-4.4c0.04,0.1,0.08,0.19,0.12,0.29    c-3.68,2.84-7.35,5.69-11.67,9.03c5.51,0.8,6.7-3.55,9.96-6.19c-3.39,8.25-6.52,15.78-9.6,23.34    c-8.64,21.2-14.06,43.33-17.69,65.92c-2.28,14.16-4.69,28.37-5.66,42.65c-1.31,19.21-1.31,38.52-1.83,57.79    c-0.1,3.84-0.01,7.69-0.01,11.41c1.45-8.73,2.9-17.57,4.39-26.4c0.19-1.12,0.29-2.35,0.8-3.32c4.6-8.7,2.12-18.17,2.97-27.27    c2.2-23.45,4.61-46.88,12.04-69.38c0.56-1.69,1.28-3.32,2.18-4.76c-2.16,12.21-4.89,24.15-6.92,36.21    c-2.24,13.31-5.37,26.63-2.61,39.7c3.03-10.32,6.34-21.11,9.3-31.99c0.85-3.12,0.97-6.52,0.98-9.8    c0.02-7.65-0.29-15.31-0.33-22.96c-0.02-3.84,0.26-7.67,0.4-11.51c0.78-1.84,1.56-3.68,2.34-5.52c0.08,0.06,0.16,0.12,0.24,0.18    c0.67-3.5,1.35-6.99,2.23-11.57c0.43,1.86,0.62,2.67,0.75,3.22c1.1-4.01,2.22-8.14,3.35-12.27c0.18,0.04,0.36,0.08,0.54,0.12    c0,2.64,0,5.29,0,7.93c-0.13-0.04-0.26-0.08-0.4-0.12c1.29-5.11,2.58-10.22,3.86-15.34c0.23,0.04,0.46,0.08,0.69,0.12    c0,1.38,0,2.76,0,4.14c0.1,0.01,0.2,0.02,0.31,0.03c0.95-3.63,1.9-7.25,2.85-10.88c0.16,0.02,0.31,0.03,0.47,0.05    c0,1.52,0,3.04,0,5.62c1.25-4.29,2.2-7.54,3.15-10.8c0.28,0.07,0.55,0.13,0.83,0.2c0,1.6,0,3.19,0,4.93    c2.24-5.95,4.41-11.72,6.58-17.48c0.26,0.07,0.52,0.15,0.78,0.22c-0.41,1.74-0.83,3.49-1.24,5.23c0.31,0.11,0.62,0.21,0.93,0.32    c5.51-12.74,11.01-25.48,16.52-38.22c0.12,0.05,0.24,0.11,0.36,0.16c-3.24,11.94-6.49,23.87-9.8,36.05c1.07,0,1.71,0,2.83,0    c-0.95,2.5-1.81,4.78-3.02,7.99c1.66-1.86,2.63-2.95,3.6-4.05c0.24,0.13,0.47,0.27,0.71,0.4c-2,3.9-4.01,7.8-6.18,12.02    c1.05-0.4,1.86-0.71,3.77-1.43c-2.03,3.56-3.58,6.27-5.59,9.79c2.72-2.38,4.74-4.13,6.65-5.79c-1.98,3.53-4.11,7.32-6.24,11.12    c0.12,0.11,0.24,0.23,0.36,0.34c1.22-1.54,2.43-3.07,3.65-4.61c0.29,0.24,0.57,0.48,0.86,0.72c-2.12,4.07-4.24,8.15-6.36,12.22    c0.13,0.13,0.27,0.26,0.4,0.39c0.83-0.77,1.67-1.55,3.31-3.07c-1.99,4.31-3.57,7.71-5.41,11.7c0.96-0.66,1.49-1.02,2.01-1.38    c0.17,0.13,0.35,0.27,0.52,0.4c-1.44,3.06-2.88,6.11-4.45,9.46c0.21,0.06,0.62,0.19,1.03,0.31    c-4.02,13.76-11.39,25.04-22.61,33.91c-2.37,1.87-3.47,6.02-4.21,9.34c-1.58,7.11-2.91,14.32-3.64,21.57    c-0.55,5.44,0.28,11.02-0.07,16.5c-0.28,4.29-0.67,8.87-2.35,12.7c-3.31,7.53-2.2,15.02-1.46,22.66    c0.73,7.53,1.27,15.07,1.89,22.55c0.11-0.16,0.52-0.54,0.64-1c4.84-17.86,14.86-32.82,25.56-47.33c3.2-4.34,5.12-8.77,5.82-14.2    c1.13-8.71,5.31-16.26,10.74-22.92c3.84-4.71,8.08-9.13,12.51-13.28c2.95-2.77,6.52-4.86,9.88-7.16c0.4-0.27,1.18,0.02,2.47,0.09    c2.8-4.11,7.96-5.1,13.31-6.49c0.36-0.05,0.48-0.19,0.48-0.19c3.67-0.79,7.35-1.58,11.43-2.45c-1.02,0.88-1.73,1.49-2.67,2.31    c13.48-3.31,26.65-6.55,39.82-9.78c-11.08,5.75-23.53,8.48-33.83,16.51c3.05,0,6.05,0,9.05,0c0.02,0.28,0.05,0.56,0.07,0.85    c-4.13,0.71-8.26,1.42-12.39,2.13c-0.03,0.24-0.06,0.48-0.09,0.72c5.02,0.29,10.03,0.57,15.98,0.91    c-6.85,0.78-12.82,1.46-18.78,2.14c-0.04,0.3-0.07,0.59-0.11,0.89c3.17,0.16,6.34,0.33,9.65,0.5c-4.04,1.3-7.98,2.57-11.91,3.84    c0.05,0.19,0.1,0.39,0.15,0.58c1.87,0,3.74,0,6.27,0c-3.76,2.98-8.78,1.97-11.76,5.06c0.13,0.35,0.27,0.7,0.4,1.05    c1.24-0.22,2.48-0.44,3.72-0.66c0.07,0.2,0.15,0.41,0.22,0.61c-3.92,1.92-7.83,3.84-12.14,5.95c1.51,0.08,2.68,0.14,3.86,0.2    c0.07,0.21,0.15,0.42,0.22,0.63c-2.6,1.25-5.2,2.49-8.11,3.89c1.16,0.21,2.1,0.37,3.75,0.66c-2.44,1.18-4.31,2.09-6.17,3    c0.12,2.11-7.1,8.96-14.53,12.68c-5.88,2.94-12.21,4.94-19.16,7.68c-6.89,24.75-10.36,51.04-12.11,78.08    c0.85-1.03,1.46-1.89,2.18-2.64c4.71-4.98,9.51-9.87,14.12-14.94c2.34-2.57,4.78-5.22,6.42-8.26c4.95-9.18,9.18-18.77,14.36-27.81    c5.12-8.93,11.04-17.38,16.24-25.45c2.4-0.82,4.02-1.38,4.96-1.71c-5.81,8.48-12.38,17.07-17.85,26.34    c-5.48,9.3-9.87,19.27-14.74,28.95c0.38,0.31,0.75,0.62,1.13,0.92c4.92-3.34,10.02-6.42,14.71-10.06    c8.9-6.9,17.62-14.04,26.26-21.28c1.94-1.63,3.7-3.88,4.7-6.22c14.99-35.02,34.66-67.2,57.3-97.43    c10.11-13.5,21.9-25.69,32.92-38.48c0.27,0.25,0.54,0.49,0.82,0.74c-6.68,8.46-13.64,16.72-19.97,25.45    c-6.41,8.83-12.34,18.03-18.23,27.25c-5.8,9.09-11.41,18.31-16.87,27.62c-5.48,9.35-10.66,18.89-15.98,28.35    c0.42,0.31,0.85,0.62,1.27,0.93c6.2-7.44,12.4-14.89,18.6-22.33c0.17,0.13,0.34,0.26,0.51,0.39c-3.38,4.53-6.76,9.07-10.66,14.29    c6.33-3.52,12.02-6.57,17.56-9.86c1.05-0.63,1.61-2.21,2.26-3.42c4.86-9.06,9.68-18.14,14.53-27.2c0.22-0.42,0.6-0.75,1.33-0.9    c-3.5,7.87-7,15.74-10.58,23.79c7.27-4.78,14.23-9.37,21.2-13.95c0.23,0.35,0.46,0.7,0.7,1.05c-3.66,2.71-7.1,5.81-11.01,8.07    c-9.72,5.6-15.6,13.93-19.88,24.39c-10.64,26.04-19.93,52.52-27.05,80.07c6.67-6.32,13.01-12.7,19.76-18.61    c6.73-5.9,13.86-11.33,20.82-16.96c0.23,0.28,0.47,0.56,0.7,0.85c-1.95,1.71-4.06,3.27-5.84,5.16    c-11.52,12.19-22.86,24.55-34.49,36.63c-4.05,4.21-3.45,9.65-4.82,14.58c-0.46,1.64-0.53,3.4-0.87,5.72    c5.15-5.93,9.85-11.37,14.56-16.8c0.25,0.12,0.51,0.25,0.76,0.37c-0.76,1.67-1.25,3.56-2.34,4.95    c-3.21,4.08-6.43,8.19-10.07,11.84c-4.55,4.56-4.75,10.2-5.23,16.7c2.39-2.83,4.26-5.05,6.14-7.27c0.2,0.16,0.4,0.32,0.59,0.49    c-2.45,5.01-5.51,9.81-7.19,15.07c-1.75,5.46-2.18,11.36-2.84,17.19c6.82-13.22,15.36-25.54,19.03-40.69    c0.16,1.38,0.28,2.47,0.43,3.76c11.01-17.72,21.92-35.29,32.83-52.86c0.31,0.19,0.61,0.38,0.92,0.57    c-5.17,9.79-10.37,19.55-15.49,29.36c-9.34,17.89-18.74,35.77-25.25,55.01c-0.58,1.72-0.5,3.71-0.52,5.58    c-0.06,5.48-0.02,10.95-0.02,16.65c1.37-1.22,2.63-2.33,3.88-3.44c-9.53,8.9-8.35,20.61-8.19,32.27    c6.17-3.99,10.69-8.42,12.62-16.35c8.5-34.86,19.16-69.12,31.75-102.64c12.73-33.89,30.28-65.39,49.48-95.87    c6.9-10.96,14.35-21.56,22.08-32c-36.58,58.17-62.05,121.49-83.56,186.82c2.81-4.26,5.58-8.46,8.56-12.38    c-0.39,1.94-0.9,3.64-1.58,5.26c-5.51,13.1-12.43,25.62-15.42,39.77c-1.14,5.38-2.77,10.64-4.18,15.96    c0.42,0.18,0.83,0.35,1.25,0.53c0.9-1.81,2.01-3.54,2.68-5.44c6.09-17.43,12.1-34.89,18.12-52.35c0.98-2.84,1.86-5.71,2.79-8.57    c2.94-6.74,5.86-13.49,8.83-20.21c16.34-36.93,34.06-73.14,53.62-108.41c1.59-2.87,3.36-5.65,5.58-8.19    c-8.82,19.56-17.89,39.01-26.38,58.72c-8.6,19.95-16.8,40.09-24.83,60.29c-8.01,20.14-15.59,40.45-23.15,60.95    c7.64-5.95,16.52-6.84,25.6-7.14c-9.83,1.89-20.23,2.54-26.46,12.71c0,3.25,0,6.84-0.17,10.62c-0.47-2.99-0.77-6.16-1.07-9.33    c-0.34-0.12-0.67-0.24-1.01-0.35c-2.02,4.15-4.04,8.3-6.38,13.1c3.62-1.17,6.29-2.04,8.96-2.9c5.53-1.94,10.99-4.07,16.6-5.71    c2.32-0.68,3.41-1.79,4.39-3.97c7.84-17.44,15.67-34.91,28.38-49.45c12.99-14.87,28.06-26.67,46.53-33.55    c0.45-0.17,0.94-0.24,1.59-0.4c-7.84,5.36-15.91,10.07-23.03,15.97c-7.29,6.04-14.19,12.78-20.28,20.07    c-6.07,7.26-11.41,15.3-16.2,23.53c-4.76,8.17-8.44,16.99-12.97,26.31c12.64-2.02,24.22-3.88,37.24-5.96    c3.04-4.27,7.12-10.01,11.2-15.74c0.24,0.17,0.48,0.33,0.71,0.5c-3.56,5.72-7.13,11.45-10.88,17.48c2.27,0.67,4.13,1.21,6.73,1.97    c9.18-13.35,18.49-26.9,27.81-40.45c0.34,0.22,0.68,0.45,1.03,0.67c-8.15,13.48-16.3,26.95-24.65,40.77    c18.49,7.21,33.77,18.65,42.83,37.5c-12.46-16.24-27.89-28.04-48.18-33.8c-4.07,5.45-8.36,11.18-12.93,17.29    c4.99,0.41,9.4,0.78,13.8,1.14c0,0.2,0,0.39-0.01,0.59c-4.31,0.6-8.67,0.98-12.92,1.9c-1.96,0.43-4.26,1.47-5.43,3.01    c-5.9,7.75-11.48,15.76-17.49,24.12c8.68,1.68,16.77,3.3,23.45,8.76c-7.68-4.3-15.83-6.7-25.12-6.8    c-4.36,7.81-8.88,15.58-12.99,23.56c-0.74,1.43-0.14,3.82,0.36,5.62c1.29,4.64,2.88,9.19,4.21,13.91    c-1.54-2.92-2.94-5.96-4.7-9.81c-0.54,2.47-0.83,3.8-1.31,4.9c-0.5-2.76-0.82-5.28-1.13-7.8c-0.29-0.02-0.58-0.04-0.86-0.06    c-2.38,4.43-4.75,8.87-7.12,13.29c0.47,0.35,0.82,0.62,1.18,0.88c-0.72,0.28-1.24,0.49-1.77,0.7c0.54,0.78,0.96,1.39,1.4,2.03    c0.79-0.96,1.29-1.57,1.84-2.23c-1.46,4.5-2.89,8.89-4.32,13.28c0.32,0.1,0.65,0.2,0.97,0.3c2.05-2.42,4.1-4.84,6.09-7.2    c1.32-4.32,2.66-8.68,3.96-12.71c-0.97,7.39-1.5,14.43,0.28,22.09c1.19-1.37,2-2.3,2.83-3.26c0.4,0.85,0.75,1.59,1.45,3.08    C476.94,657.12,477.8,652.71,478.66,648.31z M117.78,646.76c-0.14,0.13-0.28,0.26,0.11,0.58c0.39,0.13,0.79,0.26,1.18,0.38    c0.15-0.28,0.3-0.57,0.45-0.85c-0.52-0.37-1.03-0.73-1.56-1.08c0,0-0.03-0.01-0.14-0.39c-0.2-0.33-0.41-0.67-0.61-1.53    c0-0.35,0-0.71-0.15-1.66c-1.5-8.84-5.35-16.64-10.38-23.94c2.55,8.06,5.42,15.99,8.36,23.89c0.17,0.46,0.93,0.69,1.54,1.37    c0.18,0.31,0.36,0.62,0.68,1.32c0.19,0.37,0.38,0.74,0.64,1.44c0,0,0.05,0.34,0.07,0.37    C117.97,646.65,117.93,646.63,117.78,646.76z M400.89,533.2c0,0,0.02,0,0.21-0.23c0.08-0.38,0.16-0.75-0.06-1.47    c0.14-0.22,0.28-0.45,0.57-0.81c0.12-0.17,0.15-0.37-0.04-0.97c0.04-0.13,0.09-0.26,0.39-0.59c0.17-0.14,0.33-0.28,0.53-0.62    c0,0,0.18,0.05,0.31-0.32c-0.05-0.64-0.11-1.28-0.74-2.03c0.19-1.16,0.19-2.39,0.59-3.46c1.13-3.04,2.43-6.01,3.66-9.01    c-1.46,0.83-2.3,2-3.25,3.07c-6.16,6.96-6.49,17.37-13.45,23.87c-0.32,0.3-0.15,1.19-0.15,1.81c0.03,6.63-0.27,13.15-2.7,19.48    c-1.24,3.23-1.58,6.82-2.33,10.25c0.41,0.14,0.83,0.28,1.24,0.42c3.85-6.49,4.29-14.26,6.74-21.37c0.13,1.15,0.25,2.29,0.43,3.92    c2.7-7.16,5.19-13.79,7.81-20.78C400.73,533.97,400.82,533.6,400.89,533.2z M357.35,564.91c-4.5,4.49-5.79,10.37-6.76,16.5    c1.14-0.69,2-1.57,2.67-2.58c2.49-3.79,4.01-7.97,4.57-11.84c0,1.53,0,3.07,0,5.45c4.43-4.3,3.95-8.91,3.76-13.62    C360.34,560.78,359.09,562.75,357.35,564.91z M401.74,509.44c-0.51,0.19-1.01,0.38-1.51-0.02c0.34-1.05,0.52-2.19,1.06-3.13    c2.58-4.5,2.36-6.11-2-10.41c-7.85,16.06-13.52,32.68-17.88,49.83c1.46-1.96,2.68-4.02,3.7-6.18c4.01-8.45,7.94-16.95,11.98-25.38    c0.47-0.97,1.46-1.68,2.28-1.95c-2.32,4.75-4.63,9.5-6.95,14.24c0.35,0.21,0.7,0.42,1.04,0.63c3.49-5.39,6.99-10.77,10.96-16.41    c1.4-3.32,2.8-6.64,4.19-9.95c-1.69,1.11-2.67,2.56-3.63,4.02C404.01,506.18,403.04,507.66,401.74,509.44z M349.93,553.6    c-4.58,6.36-4.57,13.91-4.92,21.41c1.72-3.44,2.89-7.05,3.8-10.73c0.74-3.02,1.17-6.12,1.62-8.51c0,3.12,0,6.24,0,9.75    c1.91-2.9,3.62-5.5,5.72-8.45c7.48-7.14,8.01-16.79,8.55-26.55c-2.78,4.08-5.57,8.24-7.26,12.83c-1.51,4.08-1.79,8.64-3.09,13.26    c-0.16,0.56-0.32,1.11-0.48,1.67c-0.25-0.05-0.5-0.1-0.75-0.15c1.04-5.25,2.07-10.49,3.11-15.74c-0.33-0.11-0.65-0.23-0.98-0.34    C353.61,545.78,351.97,549.52,349.93,553.6z M478.06,600.55c6.83-0.71,7.18-7.13,10.2-11.19c-0.37-0.33-0.73-0.67-1.1-1    c-3.55,4.02-7.09,8.04-10.97,12.44c1.1,0.1,1.46,0.14,1.36,0.53c-2.93,1.15-5.87,2.31-8.09,3.18c0,5.06,0,9.23,0,13.4    c0.28,0.06,0.56,0.11,0.84,0.17c3.5-5.52,7-11.04,10.78-17.01C479.6,601.07,478.74,601.07,478.06,600.55z M189.31,476.85    c0.46,0.65,0.92,1.3,1.19,1.68c0-5.85-0.37-11.77,0.11-17.61c0.45-5.58-1.98-9.53-5.43-13.6c0.48,8.24,0.95,16.15,0.97,24.55    c-0.76,8.02-0.36,15.72,5.56,21.89C192.86,487.75,190.83,482.26,189.31,476.85z M387.71,593.67c-1.38,6.21-2.75,12.41-4.13,18.62    c0.58,0.2,1.16,0.39,1.74,0.59c1.66-3.45,3.32-6.89,5.46-10.22c0.48-0.01,1.21,0.19,1.4-0.05c5.67-7.24,6.88-15.92,7.32-25.19    c-3.62,2.94-6.54,6.44-9.6,9.81C388.23,589.07,387.36,590.98,387.71,593.67z M243.99,521.29c0.23,0.16,0.46,0.31,0.6,1.06    c0.8,2.44,1.6,4.87,2.4,7.31c0.73-7.29,0.06-14.47,0.9-21.46c1.13-9.56-3.66-16.8-7.32-25.45c-0.37,2.2-0.45,3.58-0.84,4.86    C236.14,499.37,239.57,510.17,243.99,521.29z M98.5,552.22c4.63,5.13,9.27,10.26,13.81,15.29c2.43-4.98,2.62-9.61-1.76-13.77    c-2.55-2.42-4.76-5.22-6.85-7.56c-1.53,0.43-2.3,0.65-3.13,0.37c0.32-0.57,0.64-1.14,1.25-2.25    c-6.98-5.68-14.03-11.42-21.22-17.28c-2.26,3.47-3.96,6.08-5.96,9.17C82.67,541.48,90.47,546.62,98.5,552.22z M107.15,588.92    c0.91,1.2,1.82,2.41,2.72,3.59c0.22-4.48,0.58-8.86,0.57-13.25c0-1.35-0.63-3.45-1.58-3.92c-5.69-2.83-11.56-5.29-18.07-8.18    c3.22,7.66,5.95,14.12,9.13,21.68c0.74,6.08,7.8,7.6,11.77,12.02c-0.28-1.57-0.82-2.95-1.53-4.24c-1.13-2.07-2.37-4.08-3.54-6.65    C106.62,589.6,106.63,589.25,107.15,588.92z M229.67,458.53c0.93-10.45-5.82-17.92-9.91-26.53c0.66,12.24,2.1,24.29,3.51,36.34    c0.53,4.55,1.74,8.73,5.78,12.1c1.82,2.55,3.64,5.09,5.5,7.7c2.47-6.77,0.81-19.89-3.82-30.84    C230.36,457.92,229.98,458.54,229.67,458.53z M220.56,570.75c-1.73,5.37,0.03,11.89,4.33,13.76c0.54-9.94,1.02-19.89,1.63-29.83    c0.53-8.66-4.86-14.73-8.63-21.58c-0.36,4.29-0.25,8.49-0.39,12.68C217.22,554.27,217.72,562.62,220.56,570.75z M422.97,425.33    c-9.03,3.21-18.05,6.42-27.14,9.65c-6.26,25.28-12.36,49.89-18.46,74.5c0.31,0.14,0.63,0.27,0.94,0.41    c10.5-14.6,21.05-29.16,31.46-43.83c1.5-2.11,2.61-4.63,3.44-7.12c3.02-9.05,5.87-18.15,8.7-27.27c0.66-2.14,0.98-4.39,2.01-6.73    c4.92-13.22,9.76-26.48,14.81-39.65c2.15-5.61,4.76-11.03,7.16-16.54c-0.22-0.2-0.43-0.39-0.65-0.59    c-8.91,5.84-17.81,11.67-27.16,17.8c-3.11,6.6-6.48,13.74-9.85,20.87c0.27,0.18,0.54,0.36,0.8,0.54c2.71-2.46,5.41-4.92,7.82-7.11    c1.74-0.17,3.22-0.3,4.69-0.44c-12.59,7.1-20.09,18.04-23.71,31.88c3.72-1.21,7.55-2.7,11.5-3.69    C414.01,426.84,418.78,426.1,422.97,425.33z M300.24,277.22c4.61-8.45,7.21-16.18,6.39-17.45c-1.56,1.93-3.23,3.98-4.27,5.27    c0.2,4.76-2.79,6.79-5.15,9.25c0.63-0.04,1.13-0.08,2.1-0.15c-1.89,2.99-3.58,5.65-5.7,8.99c1.8-1.05,2.87-1.67,3.97-1.74    c-1.14,1.81-2.27,3.62-3.43,5.46c-0.13,1.03,0.07,2.41-0.49,3.3c-3.71,5.9-7.43,11.81-11.45,17.5c-3.46,4.9-7.27,9.59-7.52,15.96    c-0.39,9.88-0.97,19.79-0.73,29.66c0.88,37.14,1.81,74.29,3.23,111.41c0.74,19.33,2.55,38.61,3.87,57.91    c0.39-0.02,0.78-0.05,1.17-0.07c0-3.45-0.05-6.91,0.01-10.36c0.23-12.72,0.76-25.43,0.68-38.15c-0.1-15.67-1.14-31.35-0.98-47.01    c0.2-18.37,1.84-36.73,1.71-55.08c-0.07-9.86-2.52-19.71-3.9-29.56c-0.97-6.9-1.97-13.8-2.96-20.71c0.51-0.1,1.03-0.2,1.54-0.31    c2.23,10.74,4.47,21.48,6.71,32.26c0.38-2.63,0.8-5.15,1.1-7.68c2.46-20.61,6.48-40.87,12.63-60.68    C299.53,282.83,299.61,280.2,300.24,277.22z M102.83,625.53c-2.35,7.24-3.19,14.68-2.23,22.24c0.52,4.09,1.6,8.11,2.42,12.17    c0.39-0.09,0.79-0.18,1.18-0.26c-0.2-1.4-0.39-2.8-0.56-4.02c1.61,1.97,3.19,3.9,4.76,5.83c0.25-0.15,0.49-0.3,0.74-0.45    c-0.68-4.17-1.36-8.33-2.05-12.5c0.3-0.06,0.61-0.11,0.91-0.17c1.02,2.04,2.04,4.08,3.06,6.12c0.74-0.9,1-1.66,0.8-2.27    c-2.95-9.09-5.95-18.16-9.01-27.84c-1.52-6.3-2.68-12.73-4.69-18.87c-1.44-4.41-1.85-9.62-6.78-12.77    c1.07,0.09,1.68,0.14,2.86,0.23c-2.71-8.02-5.33-15.77-7.97-23.56c-11.92,5.36-17.63,16.55-15.38,29.29    c0.82,4.64,1.37,9.34,2.04,14.01c-0.32,0.05-0.64,0.11-0.97,0.16c-0.77-3.5-1.54-7-2.31-10.5c-0.32,0.07-0.64,0.14-0.96,0.2    c0.55,7.03,0.84,14.1,1.73,21.08c1.14,8.92,1.8,17.78,1.01,26.8c-0.33,3.71,0.94,7.57,1.48,11.36c-0.28-0.64-0.57-1.27-0.85-1.91    c1.18-1.44,2.35-2.89,3.53-4.33c0.69,0.7,1.39,1.4,2.08,2.1c0.38-1.19,0.77-2.38,1.41-4.36c0.29,2.82,0.48,4.71,0.67,6.6    c0.42-0.02,0.85-0.04,1.27-0.06c0-3.33,0-6.66,0-10.97c1.78,4.12,3.14,7.27,4.21,9.73c1.66,0.16,2.44,0.23,3.36,0.32    c0.3-2.27,0.59-4.56,0.89-6.86c0.25,0.02,0.5,0.04,0.74,0.06c0,3.15,0,6.29,0,10.04c1.25-1,1.94-1.56,2.67-2.14    c0.16,0.5,0.32,0.98,0.48,1.48c0.89-0.39,1.77-0.78,2.93-1.29c-1.44-4.3-2.82-8.43-4.2-12.56c0.25-0.09,0.5-0.18,0.75-0.26    c1.12,2.18,2.23,4.35,3.35,6.53c0.3-0.15,0.6-0.3,0.89-0.46c-2.8-6-5.6-11.99-8.39-17.99c0.19-0.11,0.37-0.23,0.56-0.34    c2.36,3.59,4.72,7.17,7.63,11.58c0-4.91-0.2-8.76,0.05-12.59C97.26,629.98,99.21,626.74,102.83,625.53z M367.67,510.45    c6.38-23.97,12.77-47.95,19.12-71.83c-21.59,9.4-40.9,27.8-53.8,44.95c-1.62,2.15-2.77,5.28-2.79,7.97    c-0.05,7.31,0.63,14.62,1.03,22.2c3.08-4.49,6.01-8.76,9.43-13.74c-0.25,8.03-6.6,11.51-9.03,17.19c0.7,8.11,1.4,16.21,2.03,23.57    c2.98-6.31,5.78-13.25,9.4-19.71c7.39-13.19,16.49-25.35,22.61-39.31c0.81-1.85,2.09-3.49,3.23-5.17    c1.14-1.68,2.37-3.28,3.56-4.92c-5.12,11.77-10.03,23.47-14.66,35.29c-4.68,11.96-7.58,24.36-7.5,37.61    c4.98-6.48,9.96-12.96,14.56-18.94C365.86,520.39,366.74,515.74,367.67,510.45z M260.77,371.46c0.25,3.88,0.5,7.76,0.75,11.58    c0.61-0.22,0.9-0.32,0.54-0.19c0,5.34-0.17,10.57,0.03,15.78c0.74,19.38,1.6,38.76,2.42,58.14c0.2,4.62,0.39,9.25,0.68,13.86    c0.95,15.11,1.76,30.24,2.97,45.33c0.92,11.5,2.07,22.99,3.65,34.41c1.24,8.93,3.28,17.74,4.97,26.61    c-4.77-83.41-7.5-166.88-7.71-250.45c-1,3.9-2.25,7.79-2.96,11.77C264.21,349.1,262.53,359.93,260.77,371.46z M195.46,386.39    c-4.32-11.3-8.63-22.59-12.95-33.89c-0.44,0.14-0.88,0.28-1.32,0.42c0.63,8.02,1.15,16.05,1.92,24.05    c1.62,16.96,3.03,33.95,5.26,50.83c0.75,5.65-1.55,11.74,3.12,17.12c5.21,5.99,9.31,12.99,13.9,19.55    c0.29-0.16,0.58-0.32,0.86-0.48c-1.52-14.78-2.96-29.57-4.59-44.33C200.45,408.62,199.61,397.49,195.46,386.39z M193.19,572.42    c2.8,14.04,2.05,28.75,7.78,42.26c-2.47-16.26-4.95-32.52-7.42-48.77c0.25-0.05,0.51-0.1,0.76-0.16    c2.55,12.14,5.09,24.28,7.64,36.41c0.31,0.03,0.63,0.06,0.94,0.09c0.67-5.75,2.08-11.52,1.85-17.23    c-0.39-9.85-1.64-19.68-2.79-29.49c-1.23-10.47-2.76-20.91-4.18-31.47c-0.47,0.36-0.75,0.57-1.41,1.07c0.3-1.84,0.5-3.09,0.7-4.3    c-0.51-0.07-1.24-0.07-1.27-0.2c-0.58-3-1.68-6.05-1.47-9.01c0.47-6.75-4.39-9.6-8.35-14.21    C185.38,523.13,189.96,547.37,193.19,572.42z M320.59,444.79c0.24-0.23,0.48-0.47,0.77-0.74c0.09,0.33,0.26,0.62,0.19,0.8    c-3.73,9.4-7.52,18.78-11.19,28.21c-0.52,1.34-0.61,2.92-0.63,4.39c-0.03,3.68,0.2,7.37,0.11,11.05    c-0.05,2.34-0.48,4.66-0.87,8.14c2.45-3.83,3.85-7.11,6.17-9.41c3.88-3.84,4.91-8.69,5.66-13.64c2.58-16.87,4.94-33.78,7.39-50.68    c0.83-5.69,1.67-11.39,2.63-17.96c-1.05,1.48-1.57,2.17-2.04,2.89c-8.53,13.34-14.36,27.88-18.49,43.21    c-2.91,10.81-3,10.78-1.63,17.83C312.63,460.87,316.48,453.06,320.59,444.79z M437.01,591.33c-1.44,6.76-2.87,13.52-4.31,20.29    c0.31,0.11,0.62,0.21,0.93,0.32c4.68-6.2,9.36-12.4,14.65-19.41c0-5.15,0-11.18,0-17.21c0.2,0,0.4,0,0.6,0    c0.14,3.1,0.28,6.2,0.47,10.39c3.81-6.42,10.92-7.86,13.31-14.53c2.15-5.99,5.18-11.64,8.31-18.52    c-7.26,2.71-13.66,5.11-20.06,7.48c-4.34,1.61-6.7,4.71-7.83,9.34C441.34,576.62,439.11,583.63,437.01,591.33z M162.47,495.04    c4.45,16.28,8.91,32.57,13.36,48.85c0.44-0.1,0.88-0.19,1.31-0.29c-0.87-7.72-1.24-15.54-2.71-23.15    c-3.47-17.97-7.93-35.74-11.03-53.77c-1.59-9.25-4.53-16.94-12.09-22.54c-2.3-1.71-4.24-3.93-6.89-6.42    c0.07,1.39-0.01,1.81,0.12,2.14C151.89,457.56,157.73,475.78,162.47,495.04z M473.17,574.34c-8.85,9.14-12.28,21.01-16,32.77    c4.77-3.28,10.52-5.06,13.06-11.02c4.57-10.72,11.89-19.51,19.86-27.66c6.75-6.9,13.99-13.28,20.71-19.6    c-5.46-1.09-10.77,0.76-15.93,4.14C486.37,558.52,480.18,566.46,473.17,574.34z M101.43,525.91c-3.49-4.87-6.48-10.26-10.62-14.47    c-4.2-4.28-9.52-7.43-14.37-11.04c-5.65-4.2-11.39-8.25-18.27-10.38c3.78,9.62,7.43,18.94,11.34,28.87    C80.32,518.99,91.01,521.25,101.43,525.91z M193.54,471.85c0.49,6.39,0.76,12.81,1.56,19.17c0.64,5.18,1.13,10.61,3.11,15.31    c2.16,5.12,5.96,9.52,9.42,14.8c0.17-1.17,0.31-1.64,0.29-2.1c-0.39-11.68-1.16-23.36-1.1-35.04    c0.05-11.07-6.69-17.94-13.29-25.69C193.53,462.96,193.53,467.04,193.54,471.85z M237.83,418.6c-0.03,3.47-0.09,6.93-0.07,10.4    c0.01,2.17-0.57,4.75,0.36,6.43c3.32,5.97,7.18,11.62,10.98,17.63c0-1.51,0.08-2.67-0.01-3.82c-1.18-13.91-2.97-27.79-3.36-41.72    c-0.23-8.12-2.91-13.93-8.84-18.25C237.2,398.65,237.52,408.24,237.83,418.6z M389.73,432.61c1.45-3.63,2.9-7.25,4.08-10.18    c-7.76,5.64-15.37,12.24-23.91,17.14c-16.54,9.51-30.65,21.58-41.98,37.04c0.27,1.77,0.53,3.46,0.85,5.58    c0.67-0.81,1.14-1.38,1.6-1.94c9.76-11.92,20.09-23.36,32.76-32.04C371.47,442.49,380.67,438.11,389.73,432.61z M452.22,651.45    c5.46-9.97,10.92-19.95,15.94-29.12c-0.76-5.59-1.39-10.19-2.11-15.43c-6.11,7-11.44,14.07-13.38,22.7    c-1.55,6.91-1.27,14.25-1.75,21.41C450.91,651.26,451.57,651.56,452.22,651.45z M473.42,598.37c-0.14,0.6-0.28,1.21-0.43,1.81    c1.37-0.8,2.09-1.96,2.97-2.98c2.72-3.14,5.34-6.4,8.3-9.29c7.22-7.04,14.89-13.64,21.85-20.94c4.52-4.74,8.12-10.41,12.2-15.76    c-5.38-0.31-8.75,3.08-12.14,6.28C493.54,569.43,481.1,581.55,473.42,598.37z M289.99,430.25c-0.48,10.29-0.96,20.58-1.44,30.87    c0.99-0.2,1.24-0.47,1.29-0.78c2.53-13.51,4.89-27.06,7.61-40.53c1.85-9.19,1.57-14.69-2.97-22.78    C292.98,407.87,291.49,418.69,289.99,430.25z M452.22,596.93c0.57-1.79,1.14-3.57,2-6.27c-12.8,10.54-23.31,40.12-18.41,50.07    C441.26,626.31,446.7,611.92,452.22,596.93z M304.18,471.17c0-1.36,0-2.72,0-4.08c-8.08,25.77-11.57,52.2-11.57,79.18    c1.43-5.28,2.62-10.61,3.37-16c1.58-11.41,2.82-22.86,4.4-34.27C301.5,487.92,302.96,479.89,304.18,471.17z M99.89,568.99    c2.65,0.97,5.29,1.94,8.11,2.97c-1.68-7.64-15.31-19.25-27.33-25.83c3.04,6.76,6.08,13.53,8.93,19.88    C93.3,567.07,96.31,567.93,99.89,568.99z M316.46,508.96c-0.1-0.2-0.16-0.49-0.32-0.58c-0.11-0.06-0.48,0.09-0.54,0.23    c-2.31,5.48-4.78,10.9-6.84,16.49c-1.93,5.26-1.4,20.25,1.08,24.91c2.12-4.52,4.78-9.08,5.36-13.91    C316.27,527.34,316.1,518.43,316.46,508.96z M177.53,503.49c-0.73-8.14-2.31-16.33-1.98-24.42c0.41-9.85-6.07-14.87-10.95-21.21    c-0.35,0.14-0.7,0.29-1.05,0.43c5.03,18.56,10.07,37.12,15.1,55.68c-0.11,0.05-0.22,0.11-0.33,0.16    C178.08,510.82,177.84,507.51,177.53,503.49z M345.82,531.34c0.94-3.28,1.83-6.58,2.83-9.85c0.95-3.1,2.01-6.16,3.02-9.24    c-11.05,14.87-17.52,31.3-16.64,50.26c0.9-2.26,1.8-4.52,2.72-6.83c0.45,0.62,0.69,0.95,1.08,1.49c0.88-2.08,1.85-3.76,2.31-5.58    C342.78,545.08,344.25,538.52,345.82,531.34z M102.09,601.52c4.86,10.95,12.18,19.84,21.24,27.28    c-8.65-24.63-12.65-26.14-23.62-34.18C100.5,596.92,101.2,598.94,102.09,601.52z M310.85,572.39c1.24,6.73,2.49,13.47,3.72,20.14    c2.23-6.77,2.57-31.68,0.59-45.03C310.19,554.87,308.41,562.93,310.85,572.39z M176.06,460.18c0.23,4.98,1.02,9.72,4.7,12.95    c0-8.02-0.34-16.19,0.11-24.31c0.38-6.8-1.87-12.01-7.19-16.42C174.48,441.56,175.27,450.52,176.06,460.18z M196.94,332.48    c-1.87-7.16-2.34-14.81-7.67-20.83c4.37,22,8.73,44.01,13.1,66.01c0.5-0.09,1.01-0.18,1.51-0.27    C201.62,362.64,199.36,347.88,196.94,332.48z M326.08,522.8c-2.22,2.48-3.01,5.35-2.95,8.74c0.16,8.07,0.03,16.15,0.09,24.23    c0.01,1.64,0.36,3.27,0.53,4.73c8.6-12.57,4.74-26.18,3.89-40.33C326.91,521.3,326.58,521.8,326.08,522.8z M105.16,535.21    c-6.46-7.05-18.94-12.44-22.7-10c9.11,7.25,18.27,14.55,27.43,21.84c0.18-0.16,0.36-0.33,0.54-0.49    C108.78,542.93,107.14,539.3,105.16,535.21z M296.34,441.82c-3.44,19.47-4.07,39.12-3.77,58.82c1.82-20.22,8.52-40.07,4.73-61.32    C296.93,440.36,296.76,440.84,296.34,441.82z M122.26,604.79c0.67-2.83,1.34-5.67,2.21-9.35c-3.4-4.88-7.19-10.33-11.53-16.55    c0.05,15.08,1.94,20.91,8.67,27.89C121.72,606.27,121.83,605.77,122.26,604.79z M243.98,561.22c0.31,1.37,0.63,2.75,0.81,3.57    c0-6.39,0.09-13.25-0.04-20.12c-0.06-2.85-0.08-5.89-1.02-8.5c-1.96-5.46-4.52-10.7-6.84-16.03c-0.44,0.16-0.87,0.32-1.31,0.49    c0.65,4.45,1.04,8.96,2,13.34C239.54,542.87,241.81,551.71,243.98,561.22z M383.13,513.15c0.36-1.37,0.72-2.73,1.19-4.53    c-9.69,10-14.12,21.65-14.25,36.12C376.31,534.54,379.04,523.87,383.13,513.15z M415.77,607.87c0.18-0.57,0.36-1.13,0.54-1.7    c0.37,0.05,0.73,0.1,1.1,0.16c-0.49,4.8-0.98,9.61-1.47,14.41c4.67-10.97,6.3-22.56,7.14-34.45c-6.32,4.8-9.85,17.33-8.1,24.58    C415.19,610.03,415.4,609.19,415.77,607.87z M403.96,575.43c-1.08,7.9-2.17,15.8-3.22,23.5c3.55-2.48,6.51-5.8,6.92-10.93    c0.19-2.42,0.6-4.82,0.7-7.24c0.2-5.02,0.12-10.03-2.54-15.51C405.08,569.06,404.53,571.9,403.96,575.43z M256.99,459.23    c-1.73-9.67-3.46-19.34-5.18-29c-0.38,0.08-0.76,0.15-1.14,0.23c1.45,17.33,3.14,34.61,9.33,51.01c0.33-0.06,0.66-0.12,0.99-0.18    C259.74,474.13,258.49,466.98,256.99,459.23z M352.24,591.22c-2.34,6.52-4.8,13.01-4.05,20.36c5.66-3.96,8.3-17.11,10.73-30.96    C356.44,584.55,354.5,587.64,352.24,591.22z M256.14,532.74c-1.1-2.19-2.2-4.38-3.15-6.25c-4.41,10.95,1.93,19.41,6.5,28.35    C259.3,547.51,259.7,540.1,256.14,532.74z M128.59,606.07c-1.13-2.78-2.26-5.55-3.57-8.78c-0.93,3.94-1.74,7.38-2.42,10.29    c2.53,6.09,4.89,11.74,7.1,17.06C131.77,618.73,132.31,612.55,128.59,606.07z M222.43,520.38c1.49,5.46,2.99,10.93,4.48,16.39    c0.55-0.12,1.11-0.23,1.66-0.35c-1.57-9.15,2.91-18.7-3.07-28.67C224.38,512.31,223.46,516.04,222.43,520.38z M130.2,549.58    c1.04,2.07,2.08,4.13,3.53,7.01c0.19-1.34,0.36-1.7,0.27-1.97c-3.05-8.98-5.88-18.06-9.37-26.87c-0.92-2.31-3.9-3.77-5.94-5.62    c-0.21,0.23-0.41,0.47-0.62,0.7C122.06,531.56,126.04,540.29,130.2,549.58z M253.06,565.1c-1.36-3.61-2.73-7.22-4.09-10.84    c-0.43,1.91-0.17,3.81-0.47,5.62c-1.78,10.59,5.44,17.21,9.92,25.05c0.47-0.17,0.93-0.35,1.4-0.52    C257.66,578.14,255.5,571.88,253.06,565.1z M210.74,427.99c0.43,14.98,2.39,26.72,5.57,31.43c-0.05-16.88-3.55-32.52-6.87-48.18    c-0.33,0.05-0.66,0.1-0.99,0.15C209.2,416.69,209.94,422,210.74,427.99z M407.04,498.08c3.7-6.14,3.43-13.11,3.64-20.12    c-3.33,5.52-6.65,11.05-9.79,16.25c1.54,2.73,2.78,4.92,4.11,7.27C405.66,500.44,406.25,499.52,407.04,498.08z M406.95,561.82    c1.33,4.35,2.67,8.71,4,13.06c0.24-0.03,0.48-0.06,0.72-0.09c0-9.16,0-18.31,0-27.47c-0.53-0.08-1.05-0.17-1.58-0.25    C409.04,551.77,407.98,556.46,406.95,561.82z M362.42,598.39c0.63-7.74,1.25-15.48,1.88-23.22c-0.48-0.06-0.96-0.13-1.44-0.19    c-1.89,12.58-3.79,25.16-5.68,37.73c0.38,0.11,0.76,0.23,1.14,0.34C359.68,608.39,361.04,603.73,362.42,598.39z M482.97,556.58    c2.37-2.01,4.74-4.03,7.3-6.21c-1.77,0.23-3.31,0.19-4.68,0.66c-2.96,1.03-6.92,1.5-8.51,3.69c-3.02,4.15-4.65,9.35-7.02,14.45    C474.48,564.85,478.52,560.89,482.97,556.58z M234.95,586.64c0.65,3.78,1.31,7.57,1.96,11.35c3.09-6.33,0.62-31.74-2.91-36.35    c0.62,2.77,1.58,5.1,1.58,7.44C235.6,574.69,235.17,580.3,234.95,586.64z M123.24,582.24c2.09,2.83,4.18,5.67,6.27,8.5    c0.11-0.08,0.21-0.17,0.32-0.25c-4.07-8.75-8.15-17.49-12.43-26.69c-0.71,3.48-1.33,6.52-1.95,9.55    C118.06,576.33,120.47,579.08,123.24,582.24z M119.95,629.7c-0.78-0.48-1.55-0.96-3.08-1.9c3.28,8.29,6.22,15.72,9.17,23.14    c0.39-0.14,0.78-0.28,1.18-0.42c-1.07-5.43-1.94-10.91-3.33-16.25C123.47,632.66,121.6,631.45,119.95,629.7z M324.64,577.35    c0.1,1.34,0.2,2.67,0.3,4.01c0.33,0.02,0.67,0.03,1,0.05c3.59-8.2,2.29-17.07,2.8-25.7C325.57,562.33,325.04,569.49,324.64,577.35    z M254.02,482.53c2.76,12.16,5.53,24.32,8.29,36.47c-1.39-14.85-3.72-29.47-9.97-43.16C252.86,477.9,253.36,479.95,254.02,482.53z     M305.28,484.99c0-0.8,0-1.6,0-2.39c-3.76,10.75-3.08,21.62-1.6,32.51c0.49,0,0.99,0.01,1.48,0.01    C305.17,505.29,305.17,495.45,305.28,484.99z M323.94,506c-0.22,4.86-0.44,9.71-0.66,14.57c0.47,0.09,0.93,0.18,1.4,0.27    c0.8-1.63,2.21-3.24,2.28-4.91c0.27-6.52,0.11-13.07,0.11-19.6c-0.25-0.02-0.5-0.04-0.75-0.06    C325.53,499.28,324.75,502.3,323.94,506z M282.5,549.29c0.26,15.37,0.15,30.77,3.17,45.93c-0.31-12.16-1.07-24.29-1.93-36.4    C283.5,555.45,282.95,552.12,282.5,549.29z M417.07,545.34c0.5-5.51,1.01-11.02,1.51-16.53c-0.33-0.03-0.66-0.07-0.98-0.1    c-3.42,7.38-5.31,14.99-2.88,23.87C415.55,549.97,416.2,547.95,417.07,545.34z M403.94,622.31c-0.78,6.5-1.56,13-2.33,19.5    c0.41,0.06,0.82,0.12,1.24,0.19c1.75-10.56,3.49-21.11,5.24-31.67c-0.7-0.13-1.4-0.26-2.1-0.39    C405.3,613.84,404.62,617.73,403.94,622.31z M421.66,580.24c2.21-1.94,3.71-4.19,3.15-7.99c-5.65,5.06-12.16,8.66-13.5,17.41    C414.93,586.34,418.07,583.46,421.66,580.24z M220.58,606.34c0.33-8.62-0.95-16.97-3.76-25.09c0.91,9.17-0.67,18.66,3.48,27.46    C220.37,608.13,220.45,607.54,220.58,606.34z M63.98,530.86c-1.96,1.46-3.92,2.93-6.02,4.5c4.88,0.67,9.33,1.28,14.07,1.93    c-1.34-3.2-2.64-6.3-3.98-9.51C66.6,528.85,65.49,529.68,63.98,530.86z M135.3,645.58c-1.82-4.14-3.63-8.28-5.45-12.42    c-0.3,0.11-0.6,0.21-0.89,0.32c2.21,8.27,4.42,16.54,6.64,24.81c0.47-0.1,0.94-0.21,1.41-0.31    C136.48,654.05,135.96,650.11,135.3,645.58z M398.71,573.71c0.84-1.23,1.69-2.46,2.66-3.88c0-1.75,0-3.81,0-5.87    c-0.27-0.1-0.55-0.2-0.82-0.3c-3.28,6.09-6.56,12.19-9.84,18.28c0.36,0.25,0.72,0.49,1.08,0.74    C394.07,579.88,396.33,577.08,398.71,573.71z M223.6,608.62c0.01,5.52,0.02,11.04,0.03,16.55c0.37,0,0.74,0,1.11,0    c2.76-5.51,2.35-16.7-0.75-19.09C223.86,606.72,223.74,607.35,223.6,608.62z M314.72,497.93c1.12-2.98,4.05-5.51,2.24-10.25    c-2.74,6.16-8.75,9.97-6.3,18.13C312.15,502.85,313.27,500.63,314.72,497.93z M387.83,620.83c0.19,2.22,0.39,4.43,0.58,6.65    c0.2-0.02,0.4-0.04,0.59-0.06c1.72-6.42,3.45-12.84,5.17-19.26c-0.37-0.14-0.74-0.28-1.11-0.41    C390.45,611.44,387.8,615.11,387.83,620.83z M443.42,661.26c0.86-1.13,1.73-2.26,2.33-3.05c0.41-3.23,0.77-6.11,1.14-8.99    c0.21,0.01,0.41,0.03,0.62,0.04c0.11,0.93,0.22,1.87,0.33,2.8c0.11-0.02,0.22-0.04,0.33-0.05c0.35-4.51,0.7-9.01,1.05-13.52    c-0.52-0.07-1.04-0.15-1.56-0.22C446.18,645.78,444.72,653.28,443.42,661.26z M255.71,564.37c0.1,0.24,0.15,0.51,0.31,0.7    c0.13,0.16,0.38,0.22,0.75,0.42c-0.08-6.88-1.94-12.93-6.22-18.07c-0.41,0.15-0.83,0.31-1.24,0.46    C251.35,553.24,253.38,558.59,255.71,564.37z M335.69,610.23c0.5-6.67,1-13.35,1.5-20.02c-0.4-0.03-0.8-0.07-1.2-0.1    c-0.85,7.58-1.69,15.16-2.54,22.74c0.41,0.07,0.83,0.14,1.24,0.2C334.92,612.3,335.16,611.54,335.69,610.23z M117.57,541.74    c-1.52-2.46-3.04-4.92-4.57-7.38c-0.5,0.31-1,0.62-1.5,0.94c2.72,5.31,4.85,10.95,8.64,15.65c0.4-0.19,0.79-0.39,1.19-0.58    C120.18,547.65,119.04,544.94,117.57,541.74z M206.42,538.31c0.46,6.43,0.91,12.86,1.37,19.3c0.31-0.02,0.62-0.04,0.92-0.06    c-0.38-9.28-0.77-18.57-1.15-27.85c-0.17-0.01-0.34-0.02-0.5-0.03C206.86,532.31,206.66,534.94,206.42,538.31z M215.57,516.8    c0.09,0.63,0.13,1.28,0.28,1.9c0.11,0.45,0.38,0.85,0.58,1.28c0.21-0.04,0.41-0.09,0.62-0.13c-0.4-9.7-0.79-19.4-1.19-29.1    c-0.11,0.02-0.22,0.05-0.33,0.07C215.53,499.25,215.53,507.69,215.57,516.8z M453.8,582.29c-2,2.88-4,5.75-6.01,8.63    c0.45,0.34,0.9,0.69,1.35,1.03c3.44-4.1,6.89-8.2,10.33-12.31c-0.33-0.33-0.65-0.66-0.98-1    C457.06,579.74,455.63,580.83,453.8,582.29z M424.15,646.93c0.34-6.26,0.67-12.53,1.01-18.79c-0.4-0.02-0.8-0.04-1.2-0.05    c-1.28,6.43-1.78,12.91-0.46,19.46C423.5,647.55,423.91,647.48,424.15,646.93z M380.61,563.16c-1.23,5.4-2.45,10.81-3.68,16.21    c0.53,0.14,1.07,0.28,1.6,0.43c0.93-3.46,2.12-6.88,2.71-10.4C381.61,567.23,381.08,564.9,380.61,563.16z M200.35,520.37    c0.84,5.19,1.69,10.38,2.7,16.58c0.72-8.22,1.4-15.4-3.52-22.28C199.84,516.75,200.06,518.24,200.35,520.37z M227.26,489.46    c0.89-4.27-1.22-7.12-4.08-9.6c-0.38,0.15-0.76,0.3-1.15,0.45c1.38,3.94,2.76,7.88,4.14,11.82c0.33-0.1,0.66-0.21,0.99-0.31    C227.16,491.21,227.16,490.61,227.26,489.46z M250.79,595.74c-0.38-6.13-0.75-12.27-1.13-18.4c-0.44,0.04-0.88,0.08-1.32,0.12    c0.55,7.21,1.11,14.42,1.66,21.62c0.27-0.02,0.54-0.04,0.81-0.05C250.82,598.14,250.82,597.26,250.79,595.74z M374.38,551.79    c0.19-2.57,0.39-5.14,0.58-7.72c-1.66,6.36-4.35,12.58-2.36,19.42C373.17,559.8,373.74,556.1,374.38,551.79z M178.79,481.57    c0.53,4.88,1.05,9.76,1.58,14.64c0.41-0.05,0.82-0.11,1.23-0.16c-0.65-6.43-1.29-12.87-1.94-19.3c-0.46,0.05-0.91,0.1-1.37,0.14    C178.41,478.23,178.53,479.58,178.79,481.57z M230.56,490.61c-0.65,4.19,0.33,7.82,3.87,11.35    C235.28,496.79,233.32,493.33,230.56,490.61z M311.95,246.32c0.43,0.01,1.14,0.19,1.25,0c1.2-2.01,2.31-4.07,3.44-6.12    c-0.19-0.11-0.37-0.22-0.56-0.33c-2.63,2.42-5.26,4.84-7.89,7.26c0.15,0.22,0.3,0.44,0.45,0.66    C309.63,247.42,310.61,247.03,311.95,246.32z M137.21,491.46c1.82,5.88,3.64,11.75,5.45,17.63c0.46-0.17,0.92-0.33,1.37-0.5    C141.86,503,139.69,497.41,137.21,491.46z M376.12,591.47c0.02,0.25,0.04,0.51,0.08,0.76c0.01,0.04,0.19,0.11,0.22,0.08    c2.24-1.83,4.09-7.21,2.92-10.36C378.12,585.41,377.14,588.19,376.12,591.47z M72.81,528.16c3.3,1.1,3.21-1.29,3.69-3.64    c-2.07-0.49-3.89-0.91-6-1.41C71.37,524.88,72.04,526.23,72.81,528.16z M397.82,553.36c1.6-3.33,3.21-6.65,4.81-9.98    c-0.59-0.25-1.18-0.5-1.77-0.75C399.68,546.27,398.51,549.91,397.82,553.36z M479.43,651.63c-0.99,3.41-2.33,6.82-0.94,10.22    c0.4,0,0.8,0,1.19,0C479.68,658.54,479.68,655.23,479.43,651.63z M131.42,623.37c0,1.4,0,2.79,0,4.19    c0.41-0.01,0.82-0.02,1.23-0.03c0-2.08,0-4.15,0-5.72c0.46-2.22,0.83-4,1.2-5.78c-0.32-0.07-0.63-0.14-0.95-0.21    C132.43,618.13,131.95,620.45,131.42,623.37z M182.8,550.89c0.08,0.09,0.17,0.19,0.25,0.28c0.08-0.08,0.23-0.17,0.22-0.24    c-0.69-5.42-1.38-10.84-2.08-16.26c-0.31,0.05-0.62,0.09-0.94,0.14C181.06,540.03,181.86,545.24,182.8,550.89z M214.46,466.42    c0.2,3.83,0.4,7.65,0.6,11.48c0.38-0.04,0.75-0.07,1.13-0.11c-0.29-3.82-0.57-7.64-0.9-11.45    C215.27,466.15,214.76,466,214.46,466.42z M377.54,623.19c0.46-2.78,0.92-5.55,1.38-8.33c-0.35-0.05-0.71-0.11-1.06-0.16    c-0.72,5.09-1.45,10.18-2.17,15.27c0.26,0.04,0.53,0.09,0.79,0.13C376.81,628.02,377.15,625.94,377.54,623.19z M384.35,634.7    c0.33-3.09,0.65-6.17,0.98-9.26c-0.31-0.01-0.61-0.03-0.92-0.04c-0.46,4.48-0.93,8.97-1.39,13.45c0.16,0.03,0.31,0.06,0.47,0.08    C383.75,637.73,384.02,636.52,384.35,634.7z M434.71,576.67c0.63-2.5,1.25-5,1.88-7.5c-0.33-0.08-0.65-0.16-0.98-0.24    C434.12,571.41,432.13,573.77,434.71,576.67z M385.79,547.52c-0.81,2.26-1.63,4.52-2.44,6.78c0.33,0.1,0.67,0.21,1,0.31    c1.39-3.82,2.79-7.63,4.18-11.45c-0.18-0.08-0.36-0.15-0.54-0.23C387.34,544.28,386.67,545.63,385.79,547.52z"/>

<path d="M229.64,304.01c0.02-13.45,0.02-26.92,0.02-40.39c0.24-0.01,0.48-0.02,0.72-0.03c0.78,14.53,1.56,29.06,2.31,43.91    c-0.04,0.33-0.05,0.34-0.29,0.26c-1.11-1.33-1.97-2.58-2.83-3.83C229.57,303.94,229.62,303.99,229.64,304.01z"/>

<path d="M144.32,483.51c-0.12,0.46-0.31,0.65-0.66,0.98c-2.4-3.52-4.64-7.18-6.89-10.83c0.38-0.23,0.76-0.47,1.14-0.7    C140.03,476.39,142.14,479.82,144.32,483.51z"/>

<path d="M458.79,326.22c1.02-0.84,1.84-1.51,2.66-2.18c0.15,0.18,0.3,0.37,0.45,0.55c-3.99,3.67-7.98,7.34-11.98,11.01    c-0.18-0.2-0.37-0.4-0.55-0.6C452.44,332.12,455.51,329.25,458.79,326.22z"/>

<path d="M201.17,265.51c-0.8-3.85-1.5-7.44-2.2-11.03c0.26-0.06,0.52-0.11,0.77-0.17c0.91,4.38,1.82,8.75,2.74,13.13    c-0.14,0.05-0.29,0.09-0.43,0.14C201.8,266.98,201.54,266.37,201.17,265.51z"/>

<path d="M106.59,590.22c-2.16-3.01-4.3-6.28-6.45-9.55c0.57-0.34,1.14-0.69,1.71-1.03c1.44,2.98,2.89,5.96,4.56,9.1    C106.63,589.25,106.62,589.6,106.59,590.22z"/>

<path d="M402.73,528.37c-0.08-0.39-0.09-0.96-0.1-1.82C402.68,526.91,402.74,527.55,402.73,528.37z"/>

<path d="M401,533.09c-0.02-0.19,0.05-0.51,0.23-1.03C401.26,532.22,401.18,532.59,401,533.09z"/>

<path d="M400.59,534.54c-0.06-0.23-0.07-0.64,0.12-1.18C400.82,533.6,400.73,533.97,400.59,534.54z"/>

<path d="M116.52,643.35c0.06-0.24,0.18-0.31,0.5-0.47c0.19,0.27,0.19,0.63,0.17,1.26c-0.03,0.28-0.07,0.32-0.07,0.32    C116.93,644.14,116.76,643.83,116.52,643.35z"/>

<path d="M117.83,645.95c-0.19-0.37-0.38-0.74-0.65-1.3c-0.07-0.19-0.03-0.23,0-0.25c0.23,0.32,0.44,0.66,0.68,1.23    C117.9,645.87,117.83,645.95,117.83,645.95z"/>

<path d="M401.83,529.23c-0.02-0.12,0.09-0.34,0.4-0.55C402.28,528.85,402.12,529,401.83,529.23z"/>

<path d="M401.53,530.77c-0.07,0.07-0.02-0.31,0.07-0.48C401.76,530.33,401.73,530.52,401.53,530.77z"/>

<path d="M117.97,645.78c0.11,0.2,0.21,0.4,0.14,0.72c-0.16,0.11-0.21-0.22-0.25-0.39c-0.03-0.17,0.03-0.24,0.05-0.29    C117.93,645.78,117.96,645.79,117.97,645.78z"/>

<path d="M117.86,646.7c0.02,0.07-0.04,0.2-0.31,0.39C117.5,647.02,117.64,646.89,117.86,646.7z"/>

<path d="M216.16,310.02c-0.04-0.13,0.05-0.4,0.36-0.73C216.59,309.45,216.44,309.66,216.16,310.02z"/>

</g>

</g>

</svg>