<?xml version="1.0" ?>

<!-- Uploaded to: SVG Repo, www.svgrepo.com, Generator: SVG Repo Mixer Tools -->
<svg width="800px" height="800px" viewBox="-52.05 0 684.34 684.34" id="Layer_1" version="1.1" xml:space="preserve" xmlns="http://www.w3.org/2000/svg" xmlns:xlink="http://www.w3.org/1999/xlink">

<style type="text/css">
	.st0{clip-path:url(#SVGID_2_);}
	.st1{clip-path:url(#SVGID_4_);}
	.st2{clip-path:url(#SVGID_6_);}
	.st3{clip-path:url(#SVGID_8_);}
	.st4{clip-path:url(#SVGID_10_);}
	.st5{clip-path:url(#SVGID_12_);}
	.st6{clip-path:url(#SVGID_14_);}
	.st7{clip-path:url(#SVGID_16_);}
	.st8{clip-path:url(#SVGID_18_);}
	.st9{clip-path:url(#SVGID_20_);}
	.st10{clip-path:url(#SVGID_22_);}
	.st11{clip-path:url(#SVGID_24_);}
	.st12{clip-path:url(#SVGID_26_);}
	.st13{clip-path:url(#SVGID_28_);}
	.st14{clip-path:url(#SVGID_30_);}
	.st15{clip-path:url(#SVGID_32_);}
	.st16{clip-path:url(#SVGID_34_);}
	.st17{clip-path:url(#SVGID_36_);}
	.st18{clip-path:url(#SVGID_38_);}
	.st19{clip-path:url(#SVGID_40_);}
</style>

<g>

<defs>

<rect height="684.34" id="SVGID_11_" width="580.24" y="0"/>

</defs>

<clipPath id="SVGID_2_">

<use style="overflow:visible;" xlink:href="#SVGID_11_"/>

</clipPath>

<g class="st0">

<path d="M449.22,595.09c0.92-2.26,1.87-4.5,2.75-6.78c2.97-7.7,5.91-15.41,9.3-23.06c-2.43,9.67-4.85,19.35-7.4,29.53    c-0.35-0.98-0.48-1.35-0.61-1.72c-0.29-0.07-0.57-0.13-0.86-0.2c-1.19,7.49-2.38,14.97-3.57,22.46c0.42,0.1,0.84,0.2,1.27,0.3    c0.89-6.29,1.78-12.58,2.67-18.87c0.19,0.03,0.39,0.07,0.58,0.1c-0.78,7.02-1.56,14.04-2.34,21.06c-0.11-0.04-0.23-0.08-0.34-0.11    c-0.54,2.09-1.5,4.17-1.56,6.28c-0.29,10.75-0.36,21.51-0.48,32.26c-0.01,0.79,0.25,1.58,0.86,2.38    c2.45-10.9,2.78-22.01,3.05-33.33c0.6,3.41,1.29,6.8,1.78,10.24c0.52,3.66,0.93,7.34,1.24,11.04c0.31,3.69,0.43,7.4,1.14,11.16    c6.27-22.35,7.7-45.74,11.27-68.7c-0.3,5.97-0.6,11.94-0.9,17.91c0.21,0.05,0.43,0.09,0.64,0.14c0.45-1.38,0.89-2.76,1.34-4.14    c0.23,0.05,0.47,0.09,0.7,0.14c-2.44,19.61-4.89,39.23-7.35,58.96c-125.51,0-250.55,0-376.06,0c-1.41-6.5-2.84-13.13-4.48-20.74    c1.31,1.04,1.73,1.38,2.89,2.3c-1.14-3.26-1.98-5.65-2.82-8.04c-0.3,0.05-0.61,0.11-0.91,0.16c0.66,8.72,1.32,17.43,1.99,26.31    c-3.4,0-7.13,0-11.05,0c-0.59-2.75-1.18-5.48-1.77-8.2c-0.14,0-0.28,0-0.42,0c0,2.23,0,4.47,0,6.7c-0.09-0.01-0.17-0.01-0.26-0.02    c-2.26-16.58-4.52-33.16-6.71-49.26c-8.17-10.58-16.05-20.8-23.94-31.02c0.26-0.29,0.52-0.58,0.78-0.88    c7.73,8.69,15.46,17.37,23.3,26.2c0-0.79,0-1.49,0.06-2.43c0.06-0.24,0.02-0.2,0.02-0.2c0.8,2.89,1.6,5.78,2.61,9.43    c-0.68-8.73-1.29-16.6-1.9-24.47c0.16-0.03,0.32-0.05,0.48-0.08c2,8.49,4.14,16.95,5.93,25.5c0.85,4.05,2.15,7.46,5.13,9.99    c-0.75,0.13-1.38-0.06-1.5-0.1c1.46,5.64,2.94,11.4,4.39,17.01c0.62-2.52,1.31-5.29,2.07-8.33c-1.17-2.24-2.34-4.49-3.52-6.75    c0.67,0.27,1.34,0.53,2.85,1.14c-14.39-41.47-25.1-83.71-32.13-127.24c5.25,20.07,10.15,40.27,15.85,60.16    c5.74,20.01,12.27,39.71,18.45,59.55c0.5-0.21,0.99-0.42,1.49-0.63c-7.39-23.96-14.78-47.92-22.17-71.88    c0.36-0.16,0.72-0.31,1.09-0.47c9.14,25.96,18.28,51.93,27.3,77.56c0.68-1.7,1.64-4.11,2.71-6.78c-1.65-4.07-3.38-8.35-5.11-12.62    c0.17-0.12,0.35-0.25,0.52-0.37c0.75,1.23,1.49,2.45,2.24,3.68c0.35-0.18,0.69-0.35,1.04-0.53c-0.25-4.69-3.8-7.92-4.9-12.27    c-1.24-4.89-2.95-9.64-4.61-14.36c-1.63-4.6-3.41-9.13-5.22-13.64c-1.81-4.47-3.74-8.87-5.38-13.46    c10.12,14.17,15.55,31.58,23.11,47.5c0.4-0.21,0.8-0.43,1.21-0.64c-7.12-21.79-14.23-43.58-21.35-65.37    c0.13-0.08,0.26-0.15,0.4-0.23c3.85,9.44,8,18.73,11.5,28.36c5.36,14.77,10.07,29.86,15.49,44.6c1.75,4.74,4.87,8.78,7.77,12.86    c-6.56-26.72-15.58-52.17-25.79-77.22c2.51,5.15,5.11,10.24,7.5,15.46c2.41,5.27,4.66,10.64,6.86,16.04    c2.25,5.52,4.38,11.11,6.5,16.7c2.06,5.43,4.04,10.9,6.67,16.11c-1.02-5.35-2.05-10.7-3.07-16.05    c7.33,16.33,8.05,34.99,14.03,51.89c-0.26-2.21-0.47-4.44-0.79-6.64c-0.36-2.52-0.8-5.04-1.24-7.54    c-0.42-2.37-0.71-4.81-1.39-7.08c-6.04-20.08-12.17-40.14-18.26-60.2c-1.62-5.35-3.2-10.72-4.61-16.29    c0.71,1.16,1.17,2.58,1.76,3.91c0.76,1.7,1.64,3.32,2.48,5.28c4.04,8.91,8.06,17.52,12.08,26.13c-2.2-7.94-4.92-15.59-7.96-23.06    c-0.86-2.13-2.62-3.75-3.98-5.92c-1.57-4.21-3.13-8.1-5.03-12.83c0.11,2.72,0.17,4.39,0.24,6.07c-3-10.16-6.2-20.25-8.95-30.5    c-1.7-6.32-4.24-11.87-8.04-16.7c-3.19-4.06-6.34-8.16-8.96-12.97c3.55,3.88,7.4,7.46,10.61,11.7    c9.7,12.8,17.89,26.87,24.46,42.23c0.8,1.87,1.99,3.49,3.07,5.77c5.89,11.65,7,25.65,15.89,35.03    c-2.41-9.38-4.82-18.75-7.24-28.13c0.6,0,1.19,0,2.03,0c0-2.2,0-4.4,0-6.6c0.34-0.2,0.67-0.39,1.01-0.59    c-1.72,9.59,4.92,12.68,9.25,18.37c0-5.99,0-11.47,0-16.95c1.3,9.45-0.84,19.76,6.34,27.54c0-6.72,0-13.42,0-20.11    c1.52,27.44,8.68,53.24,17.71,78.46c-2.18-9.13-4.44-18.24-6.51-27.4c-2.12-9.34-4.06-18.74-5.4-28.37    c4.02,12.49,8.04,24.98,12.07,37.47c0.26-0.06,0.51-0.13,0.77-0.19c-1.19-7.52-2-15.15-3.63-22.53    c-7.54-34.07-15.33-68.06-22.99-102.09c-0.83-3.68-1.45-7.42-1.8-11.21c4.32,15.69,8.63,31.38,12.95,47.06    c3.24,11.78,6.48,23.56,9.94,35.88c2.45,7.73,4.65,14.92,6.94,22.07c0.13,0.41,0.9,0.55,1.37,0.81    c2.83,11.85,5.65,23.7,8.48,35.55c0.48-0.12,0.96-0.23,1.43-0.35c-0.98-6.39-1.44-12.96-3.03-19.13    c-6.25-24.33-12.51-48.66-19.39-72.75c-12.55-43.94-25.54-87.7-38.34-131.55c-0.38-1.29-0.62-2.64-0.57-4.13    c16.89,46.13,32.12,93.12,53.83,136.65c-14.72-40.25-29.44-80.49-44.17-120.74c0.3-0.16,0.61-0.32,0.91-0.48    c13.69,35.09,27.37,70.17,41.06,105.26c0.19-0.09,0.37-0.18,0.56-0.26c-4.1-12.49-8.19-24.97-12.29-37.46    c0.35-0.17,0.7-0.33,1.06-0.5c1.07,3.13,2.16,6.25,3.19,9.39c5.38,16.41,10.73,32.84,16.15,49.23c0.32,0.95,1.17,1.66,1.68,2.93    c-0.03,1.73-0.14,3.06,0.12,4.29c3.37,16.04,6.83,32.06,10.19,48.1c0.96,4.57,1.62,9.23,2.55,13.82c0.92,4.56,2,9.08,3.08,13.95    c0.75-22.28-4.7-42.84-9.46-63.53c1.4,3.38,2.8,6.76,4.21,10.14c0.34-0.2,0.69-0.4,1.03-0.6c-3.46-8.94-4.53-19.26-11.55-26.15    c0.68,0.17,1.37,0.34,2.79,0.69c-1.5-6.05-2.85-11.89-4.38-17.65c-10.9-41.05-22.61-81.83-32.55-123.2    c-9.17-38.15-16.46-76.93-24.55-115.43c-0.19-0.89-0.12-1.86,0.32-2.95c18.03,84.26,45.66,164.85,67.46,247.66    c-15.4-61.45-34.13-121.74-46.14-184.4c3.18,12.18,6.38,24.35,9.53,36.54c3.21,12.4,6.15,24.9,9.62,37.19    c3.47,12.28,7.46,24.35,11.42,36.46c-8.44-34.73-17.91-69.14-22.64-105.03c14.76,54.58,29.51,109.15,44.27,163.73    c0.2-0.03,0.39-0.06,0.59-0.09c-1.63-10.91-3.09-21.86-4.93-32.73c-1.89-11.17-4.11-22.27-6.25-33.38    c-2.11-10.99-4.33-21.94-6.43-32.93c-2.13-11.14-4.12-22.32-6.26-33.45c-2.11-10.98-4.35-21.92-5.74-33.17    c0.65,2.28,1.4,4.53,1.95,6.84c8.57,35.82,17.52,71.53,25.54,107.52c6.08,27.26,10.25,55.12,17.94,81.9    c1.18,4.11,2.24,8.28,3.94,12.47c0.39-4.36,0.94-8.72,1.14-13.09c1.16-25.58-5.76-49.35-11.88-73.3    c-0.9-3.52-1.77-7.05-2.65-10.58c0.31-0.14,0.62-0.28,0.93-0.41c3.57,10.29,7.13,20.57,10.7,30.86c0.11,0,0.23,0,0.34,0    c-2.55-20.35-5.05-40.71-7.76-61.03c-0.27-2.03-1.69-4-2.91-5.67c-1.82-2.49-3.92-4.68-5.47-7.63c2.48,2.4,4.96,4.79,7.71,7.45    c-0.57-7.7-1.12-15.16-1.68-22.61c-0.05-0.71-0.29-1.43-0.24-2.13c1.08-14.29-5.03-25.44-11.28-36.59    c-2.45-4.37-4.45-9.09-6.79-13.55c-8.33-15.89-19.1-29.21-31.28-41.01c-0.47-0.45-0.93-0.9-0.95-2.2c3.81,2.9,7.76,5.59,11.4,8.76    c3.8,3.31,7.42,6.95,10.93,10.69c3.6,3.85,7.04,7.92,10.42,12.05c3.25,3.98,6.58,7.93,9.42,12.3c2.83,4.36,5.09,9.24,7.66,13.99    c1.53-6.74-2.31-11.2-5.14-16.43c0.95-0.49,1.63-0.84,2.72-1.4c-1.76-2.9-3.46-5.72-5.17-8.54c0.15-0.16,0.29-0.33,0.44-0.49    c0.63,0.58,1.26,1.15,2.11,1.92c0-0.7,0.1-1.12-0.02-1.44c-1.26-3.36-2.43-6.8-3.91-10.02c-0.65-1.42-1.96-2.42-3-3.58    c-3.22-3.57-6.59-6.97-9.6-10.77c-0.97-1.22-1-3.48-0.67-5.59c-0.79-1.7-1.58-3.4-2.9-6.22c1.59,1.25,2.29,1.8,3.19,2.5    c-0.2-1.17-0.38-2.17-0.55-3.17c0.22-0.3,0.44-0.6,0.66-0.9c1.83,1.48,4.48,2.48,5.36,4.53c4.94,11.53,9.46,23.32,14.13,35.02    c0.29,0.72,0.69,1.38,1.02,2.03c1.05-1.8,1.99-3.42,2.94-5.04c0.35,0.01,0.7,0.03,1.05,0.04c-2.52-18.15-5.05-36.3-7.37-53    c-4.17-3.58-7.04-6.04-9.91-8.51c0.23-0.46,0.45-0.92,0.68-1.38c1.93,1.19,3.85,2.38,6.24,3.85c-2.57-4.67-4.81-8.74-6.18-11.24    c-4.05-2.79-7.01-4.82-10.32-7.09c0.93-1.28,1.35-1.85,1.86-2.55c-1-2.21-2.05-4.54-3.1-6.87c0.19-0.24,0.37-0.48,0.56-0.72    c1.49,1.09,2.97,2.18,4.84,3.55c-0.92-2.74-1.73-5.13-2.56-7.59c-7.1-5.67-8.41-7.6-6.34-9.85c-0.99-2.09-2.01-4.25-3.02-6.41    c0.11-0.12,0.22-0.24,0.34-0.36c0.77,0.73,1.54,1.46,2.77,2.63c-0.67-2.42-1.15-4.19-1.64-5.96c0.19-0.11,0.37-0.21,0.56-0.32    c0.65,1.09,1.31,2.18,2.15,3.58c0.21-0.75,0.36-1.3,0.76-2.71c1.03,1.61,2.05,2.73,2.56,4.11c0.91,2.46,1.47,5.11,2.27,7.64    c1.96,6.19,3.97,12.36,6.26,19.46c0.75-1.67,1.03-2.3,1.39-3.1c6.68,4.86,6.05,14.46,9.73,21.16c0.3-0.09,0.6-0.19,0.91-0.28    c-0.8-5.91-1.48-11.84-2.42-17.72c-1.06-6.6-2.21-13.19-3.6-19.7c-0.64-2.98-2.21-5.68-2.88-8.65c-0.63-2.79-0.63-5.78-0.91-8.68    c0.41,0.06,0.81,0.11,1.22,0.17c0.35-3.51,0.7-7.02,1.13-11.37c0.66,3.19,1.19,5.75,1.93,9.29c0.31-3.47,0.53-5.95,0.8-8.98    c1.3,3.97,2.87,7.16,3.33,10.56c0.8,5.93,1.07,12.04-3.4,17.24c1.2,5.5,2.64,11.23,3.67,17.06c1.22,6.97,2.27,13.99,3.05,21.04    c0.58,5.18,1.33,7.34,4.36,8.47c0-3.76,0-7.38,0-11.4c6.61,4.24,10.12,10.19,11.08,18.51c0.33,2.88,1.81,5.58,2.72,8.38    c1.03,3.18,1.92,6.42,3.04,9.55c2.16,6.08,4.44,12.1,6.67,18.15c0.56-0.23,1.12-0.46,1.69-0.69c-0.49-2.54-0.47-5.44-1.56-7.54    c-3.35-6.46-2.46-13.15-1.8-20.33c0.99,0.23,1.69,0.4,3.57,0.84c-2.08-8.49-3.97-16.17-6.13-24.99c1.82,1,2.51,1.37,3.7,2.02    c0-3.87,0-7.41,0-10.94c0.36-0.05,0.73-0.1,1.09-0.14c0.4,2.58,0.8,5.17,1.2,7.75c0.31-0.09,0.61-0.18,0.92-0.27    c-1.79-17.72-8.45-34.1-10.7-52.27c-12.34-4.21-20.68-13.77-26.02-26.57c1.02-1.26,1.75-2.16,2.48-3.07    c1.87,1.09,3.81,2.23,5.99,3.51c-0.63-2-1.23-3.89-1.82-5.77c6.13,6.48,10.71,14.09,13.09,23.49c0.29-0.19,0.59-0.38,0.88-0.57    c-0.23-2.6-0.46-5.21-0.74-8.36c3.65,1.59,3.77,5.17,4.58,8.04c3.08,10.88,6,21.82,9.26,33.74c0.62-2.74,1.01-4.47,1.52-6.73    c1.4,1.16,2.45,2.02,3.49,2.88c0.26-0.13,0.52-0.27,0.78-0.4c-8.78-23.2-17.11-46.67-26.52-69.5    c-6.12-14.84-13.08-29.38-21.01-42.95c-10.88-18.6-24.53-34.41-40.16-48.08c11.92,4.2,41.89,33.1,57.31,60.35    c14.58,25.78,22.33,54.93,29.41,84.43c0.68-0.36,1.28-0.67,2.26-1.19c0,6.82-0.66,13.35,0.16,19.6    c1.04,7.97,3.62,15.64,4.92,23.58c1.72,10.48,3.45,20.9,1.6,31.88c-0.93,5.51,0.66,11.63,1.16,17.47    c0.91,10.82,2.23,21.62,2.7,32.47c0.93,21.37,3.68,42.42,7.13,63.37c0.22,1.33,0.4,2.66,0.77,5.11    c3.09-8.19,5.86-15.41,8.53-22.68c0.42-1.13,0.6-2.5,0.55-3.74c-0.48-12.9-0.97-25.79-1.63-38.67c-0.08-1.49-1.05-3.05-1.88-4.32    c-2.83-4.31-5.78-8.5-8.84-12.95c1.44-1.38,2.11-2.03,2.5-2.4c-1-1.91-2-3.81-3.23-6.17c1.41-0.24,1.98-0.34,2.66-0.46    c-0.71-2.35-1.41-4.67-2.11-7c0.15-0.09,0.3-0.18,0.46-0.27c1.54,2.48,3.08,4.95,5.25,8.44c-0.65-2.64-1.03-4.19-1.61-6.53    c2.42,4.01,4.38,7.27,6.34,10.52c0.36-0.13,0.71-0.26,1.07-0.39c0.87,18.58,1.73,37.17,2.64,56.69c1.19-3.03,2.11-5.37,3.25-7.86    c0.22-0.14,0.18-0.17,0.18-0.17c-3.72,11.7-1.56,23.72-1.08,35.73c2.06-7.81,4.28-15.56,6.14-23.43    c1.47-6.24,2.25-12.71,3.8-18.92c0.87-3.48,2.27-7.02,4.17-9.85c2.39-3.58,2.8-7.43,2.83-11.6c0.07-10.04,0.18-20.08,0.2-30.12    c0.03-22.95,0.01-45.89,0.01-69.16c-6.35-5.05-12.74-10.12-19.13-15.2c0.14-0.33,0.27-0.65,0.41-0.98    c0.85,0.17,1.69,0.34,2.6,0.52c-2.03-2.81-4.11-5.45-5.96-8.3c-1.81-2.78-4.95-4.64-4.94-9.26c2.64,2.15,4.97,4.04,7.3,5.94    c0.18-0.2,0.37-0.41,0.55-0.61c-3.03-4.97-6.05-9.94-9.08-14.91c0.32-0.27,0.64-0.54,0.96-0.81c2.6,3.29,5.21,6.57,7.81,9.86    c0.18-0.15,0.37-0.3,0.55-0.44c-1.53-3.6-3.05-7.2-4.77-11.25c3.48-0.03,3.91,3.4,5.34,5.29c1.48,1.96,2.62,4.28,4.51,6.13    c-0.7-2.21-1.4-4.42-2.1-6.63c0.24-0.17,0.48-0.34,0.72-0.51c3.53,5.96,7.91,11.48,10.35,18.01c2.36,6.32,2.74,13.67,3.99,20.58    c0.32-0.06,0.65-0.11,0.97-0.17c0-3.5,0.01-7,0-10.51c-0.08-22.51-0.22-45.02-0.19-67.53c0-3.68-0.61-6.67-3.73-7.91    c-9.39-3.73-12.82-13.68-17.24-22.63c-0.67-1.35-1.35-2.7-1.86-3.72c1.91-4.34-2.55-6.04-2.37-9.7c0.91,0.84,1.7,1.57,2.72,2.51    c0.52-0.87,1.03-1.7,1.6-2.66c1.5,1.6,2.91,3.12,4.33,4.63c0.23-0.27,0.45-0.53,0.68-0.8c-1.65-3.1-3.31-6.2-4.96-9.31    c4.92,4.52,10.59,8.29,11.52,16.54c-0.18-1.61-0.36-3.22-0.56-4.99c3.67,3.68,4.1,8.78,4.93,13.71c0.59,3.48,1.11,7.02,2.06,10.37    c0.56,1.98,1.91,3.64,3.48,5.19c-0.18-12.95-5.46-25.18-2.5-38.94c-4.46-2.42-8.98-4.87-13.62-7.39    c0.25-8.86-7.39-10.72-10.23-17.16c1.41,0.77,2.83,1.54,4.24,2.31c0.1-0.15,0.19-0.31,0.29-0.46c-1.99-1.86-3.99-3.73-5.98-5.59    c0.2-0.36,0.41-0.71,0.61-1.07c1.27,0.81,2.54,1.62,3.8,2.44c0.13-0.14,0.26-0.28,0.4-0.41c-2-2.17-4-4.34-6.16-6.67    c0.48-0.7,0.89-1.31,1.38-2.04c1.04,0.81,1.93,1.51,3,2.35c0.34-1.62,0.65-3.09,1.07-5.11c4.98,5.36,12.22,7.83,14.13,17.19    c1.76-16.96,1.05-33.68,1.16-50.14c1.37-5.16,2.75-10.33,4.12-15.49c0.2,0.04,0.39,0.08,0.59,0.11c0.13,2.31,0.27,4.62,0.46,8.08    c1.1-4.98,1.97-8.89,2.84-12.8c0.14,0.04,0.29,0.09,0.43,0.13c0,5.28,0,10.57,0,15.85c0.2,0.06,0.41,0.13,0.61,0.19    c0.76-3.36,1.51-6.71,2.27-10.07c0.15,0.06,0.3,0.13,0.45,0.19c0,4.28,0.01,8.56,0,12.84c-0.01,3.11,0.04,6.23-0.13,9.34    c-0.39,7.16-3.21,12.35-10.12,15.38c1.36,13.92,2.75,28.14,4.14,42.36c0.34,0.06,0.68,0.12,1.02,0.17    c1.56-20.66,3.92-41.12,11.06-61.18c-0.65,5.88-1.22,11.01-1.79,16.14c0.24,0.1,0.47,0.21,0.71,0.31    c1.45-4.22,2.9-8.45,4.36-12.67c0.25,0.06,0.5,0.13,0.75,0.19c-0.29,4.76-0.58,9.52-0.87,14.28c0.37,0.24,0.73,0.48,1.1,0.72    c1.04-1.58,2.08-3.16,3.49-5.31c-1.27,11.64-5.44,30.92-15.65,33.96c-0.58,8.49-1.17,17.15-1.76,25.82    c0.38,0.08,0.76,0.17,1.15,0.25c1.75-5.56,3.51-11.11,5.5-17.43c0.24,1.98,0.76,3.25,0.43,4.02c-2.16,5.02-0.08,10.03,0.02,15.15    c0.19,0.13,0.14,0.09,0.14,0.09c1.49-0.76,2.99-1.51,4.91-2.48c0.25,1.06,0.97,2.41,0.79,3.56c-1.38,8.69-2.65,17.47-8.92,23.64    c-0.75,0.74-1.52,2.08-1.53,3.16c-0.11,11.72-0.07,23.43-0.07,35.15c0.3,0.05,0.6,0.1,0.91,0.15c1.75-7.58,3.51-15.15,5.27-22.79    c1.75,0,3.18,0,4.26,0c2.9-2.62,5.54-5.01,8.93-8.06c-0.42,2.51-0.62,3.76-1.02,6.2c2.65-2.38,4.54-4.08,6.43-5.78    c0.3,0.27,0.6,0.54,0.91,0.8c-2.11,3.55-4.23,7.11-7,11.77c2.34-1.32,3.81-2.15,4.88-2.76c-2.99,9.65-9.85,14.95-17.35,19.62    c-2.19,1.36-3.91,3.77-5.55,5.41c0,11.53,0,22.49,0,33.44c0.39,0.14,0.78,0.28,1.17,0.41c1.04-12.23,2.54-24.22,11.47-32.38    c-0.66,2.31-1.31,4.63-1.97,6.94c0.17,0.14,0.34,0.28,0.51,0.42c3.2-4.63,6.39-9.26,9.59-13.9c0.31,0.26,0.61,0.51,0.92,0.77    c-1.35,3.34-2.69,6.67-4.04,10.01c0.23,0.17,0.47,0.35,0.7,0.52c2.44-3.28,4.87-6.55,7.31-9.83c0.35,0.34,0.71,0.67,1.06,1.01    c-2.03,4.14-4.07,8.27-6.1,12.41c0.18,0.15,0.35,0.29,0.53,0.44c1.11-0.94,2.21-1.89,3.32-2.83c0.21,0.19,0.43,0.37,0.64,0.56    c-1.35,2.12-2.77,4.18-4.04,6.36c-1.83,3.13-3.45,6.43-5.35,9.49c-1.26,2.03-2.64,4.11-4.33,5.59c-3.69,3.24-7.6,6.11-11.07,8.85    c0,28.18,0,55.92,0,83.67c0.2,0.03,0.4,0.06,0.6,0.08c2.04-5.64,4.09-11.28,6.13-16.92c0.24,0.1,0.48,0.21,0.72,0.31    c-0.25,1.59-0.5,3.17-0.91,5.77c1.45-2.41,2.38-3.96,3.31-5.51c0.18,0.09,0.36,0.17,0.54,0.26c-1.19,4.65-2.39,9.3-3.66,14.25    c0.93-0.28,1.51-0.46,2.97-0.9c-2.87,7.09-5.51,13.43-7.99,19.84c-0.88,2.26-1.93,4.7-1.97,7.08    c-0.19,13.19-0.09,26.38-0.09,39.08c7.23-9.84,6.91-22.81,8.46-35.01c5.39-42.25,14.48-83.31,27.59-123.14    c0.34-1.04,0.74-2.06,1.41-2.99c-10.47,47.9-22.38,95.38-27.96,144.58c3.93-19.43,7.32-39.03,11.92-58.23    c4.69-19.6,10.13-38.99,16.03-58.13c5.86-19.02,12.07-37.95,19.26-56.3c7.2-18.37,15.81-35.97,24.23-53.66    c-22.28,70.35-46.63,139.79-61.22,213.63c2.8-4.16,5.32-8.17,8.08-11.94c2.84-3.88,5.92-7.52,8.89-11.26    c0.23,0.23,0.47,0.46,0.7,0.69c-3.39,5.19-6.86,10.3-10.13,15.59c-3.31,5.35-6.42,10.87-9.62,16.31c0.31,0.33,0.63,0.66,0.94,0.99    c1.54-1.4,3.08-2.79,4.73-4.3c-6.11,16.54-12.13,32.84-18.15,49.15c0.38,0.24,0.77,0.48,1.15,0.72c2.17-3.83,4.51-7.55,6.49-11.51    c12.26-24.44,24.71-48.76,36.51-73.5c4.23-8.86,6.34-19.09,10.26-28.19c11.5-26.67,23.81-52.8,40.54-75.59    c2.93-3.99,5.96-7.89,9.18-11.62c-21.02,33.7-36.82,71.06-55.08,106.68c0.31,0.23,0.62,0.45,0.93,0.68    c6.82-12.79,13.63-25.57,20.45-38.36c0.25,0.18,0.5,0.36,0.76,0.54c-2.3,4.59-4.62,9.17-6.88,13.78    c-6.9,14.06-14.6,27.68-20.4,42.35c-4.7,11.9-7.58,24.91-10.42,37.69c-3.64,16.4-6.44,33.06-9.59,49.61    c-0.13,0.68-0.08,1.41-0.15,3.03c2.3-4,4.2-7.29,6.1-10.58c-2.73,9.68-8.99,17.6-9.86,29.02c0.91-1.29,1.37-1.94,1.83-2.59    c-5.94,12.19-6.58,26-9.33,39.13c0.28,0.12,0.56,0.24,0.84,0.37c3.51-9.63,7.01-19.26,10.52-28.89c0.46,0.17,0.93,0.34,1.39,0.5    c-14.05,33.17-19.13,69.04-22.98,105.28c4.33-20.16,8.66-40.32,12.67-58.98c0,1.89,0,5.43,0,8.96c0.28,0.1,0.57,0.2,0.85,0.3    c1.96-6.54,4.1-13.02,5.85-19.63c9.76-36.87,18.55-74.14,29.37-110.56c10.51-35.38,23.05-69.93,34.78-104.8    c1.2-3.55,2.98-6.83,4.92-10.02c-2.92,9.49-5.86,18.98-8.77,28.47c-19.25,62.85-38.29,125.77-54.64,189.79    c-3.17,12.39-7.89,24.23-11.1,36.6c-3.55,13.65-5.69,27.69-6.45,42.05c-0.36,6.86-2.34,13.6-3.58,20.4    c0.42,0.11,0.83,0.22,1.25,0.33c0.98-5.46,1.96-10.93,2.96-16.48c0.41,1.16,0.87,2.43,1.8,5.06c1.6-7.79,3.13-14.4,4.3-21.1    c12.62-72.22,31.46-142.2,54.71-210.56c4.77-14.02,10.13-27.77,15.22-41.64c0.09-0.25,0.28-0.45,0.7-1.1    c-10.54,38.36-20.94,76.23-31.35,114.11c0.17,0.09,0.34,0.19,0.52,0.28c1.15-1.87,2.3-3.74,3.19-5.2    c-14.25,46.02-23.74,94.14-34.45,141.96c1.11-2.45,2.22-4.91,3.33-7.36c0.3,0.1,0.6,0.21,0.9,0.31c-0.53,2.74-0.93,5.52-1.6,8.21    c-3.02,12.09-6.12,24.15-9.2,36.21c0.39,0.16,0.77,0.32,1.16,0.47c1.01-2.36,2.01-4.71,3.02-7.07c0.31,0.07,0.62,0.13,0.93,0.2    c-5.95,16.89-8.45,34.4-7.54,52.53c4.3-25.69,12.05-50.58,13-77.11c0,4.62,0,9.24,0,13.86c3.81-13.87,5.65-28.13,7.34-42.51    c1.18-9.99,3.97-19.72,6.03-29.56c0.35,0.1,0.71,0.2,1.06,0.3c-2.12,13.98-4.23,27.96-6.35,41.94c0.57,0.17,1.15,0.33,1.72,0.5    c1.8-7.4,3.76-14.75,5.37-22.21c6.97-32.26,15.78-63.87,28.62-93.46c8.85-20.4,19.46-39.92,30.71-58.64    c10.7-17.81,21.74-35.54,35.76-50.24c23-24.12,49.48-41.11,78.12-53.74c15.8-6.97,31.94-12.55,48.56-16.07    c0.81-0.17,1.64-0.23,3.49-0.49c-26.86,9.32-51.33,22.14-74.57,38.04c-26.41,18.07-50.54,39.8-70.23,67.53    c-13.2,18.59-25.01,38.53-35.27,59.6c-7.39,15.18-14.26,30.72-21.24,46.17c-1.32,2.93-2.05,6.24-3.05,9.38    c0.38,0.25,0.76,0.49,1.14,0.74c9.41-16.24,18.83-32.48,28.24-48.72c-0.34-0.29-0.68-0.59-1.03-0.88    c-1.15,1.74-2.31,3.49-3.46,5.23c-0.22-0.15-0.44-0.29-0.66-0.44c1.16-2.36,2.32-4.73,3.48-7.09c-0.11-0.14-0.22-0.28-0.33-0.41    c-0.92,0.9-1.84,1.8-3.57,3.49c6.41-18.11,16.03-32.52,25.35-47.27c-1.49,5.01-3,10.01-4.47,15.03    c-6.39,21.86-9.49,44.48-11.69,67.38c-1.66,17.35-4.07,34.6-6.06,51.91c-1.73,15.02-3.33,30.05-4.38,45.34    c1.19-1.97,2.37-3.94,3.56-5.91c0.36,0.12,0.72,0.25,1.08,0.37c-7.7,9.29-6.69,20.68-6.51,32.46c3.46-4.24,4.07-9.36,5.32-14.26    c4.43-17.45,8.92-34.88,13.7-52.19c11.54-41.78,23.23-83.49,34.92-125.21c1.32-4.72,3.02-9.3,4.78-13.84    c-14.77,60.56-33.16,119.78-48.59,180.08c0.43,0.21,0.86,0.43,1.29,0.64c2.35-3.81,4.7-7.62,7.05-11.43    c-3.83,11.19-13.17,19.95-9.99,34.73c2.52-7.97,9.94-11.88,10.33-21.1c0.39,1.84,0.77,3.68,1.17,5.54    c-4.96,28.24-8.33,56.78-9.06,86.57c4.33-26.14,8.54-51.49,12.74-76.84c0.53,0.11,1.06,0.22,1.59,0.33    c-2.08,15.9-4.15,31.79-6.36,48.67c3.97-13.84,7.67-26.72,11.37-39.6c0.13,0.03,0.25,0.06,0.38,0.09    c-0.25,1.75-0.51,3.5-0.87,5.97c6.31-10.01,6.86-21.31,8.92-32.25c-0.13,2.05-0.23,4.11-0.39,6.16c-0.17,2.2-0.4,4.4-0.22,6.76    c5.51-10.71,10.64-21.57,18.92-31.02c-3.71,7.66-6.84,14.52-10.29,21.15c-3.53,6.79-3.11,14.57-4.25,21.93    c-1.48,9.55-2.41,19.22-3.5,28.85c-0.24,2.12-0.2,4.28,0.05,6.56c6.34-20.36,11.91-41.07,21.96-59.53    c-9.86,30.53-21.05,60.61-22.44,93.89c0.33,0.08,0.66,0.15,0.99,0.23c0.92-7.24,1.51-14.56,2.84-21.69    c1.36-7.34,3.13-14.62,5.3-21.68c2.14-6.95,4.7-13.77,7.63-20.3c2.97-6.63,6.62-12.84,9.97-19.23c0.34,0.22,0.68,0.44,1.01,0.66    c-2.09,6.32-4.19,12.64-6.28,18.96c0.31,0.16,0.63,0.31,0.94,0.47c6.47-10.22,10.96-21.65,14.53-34.19    c0.26,0.97,0.43,1.61,0.69,2.61c1.49-2.37,2.9-4.62,4.31-6.87c0.08,0.08,0.15,0.15,0.23,0.23c-5.77,14.22-11.54,28.45-17.64,42.72    c-0.42-0.33-0.51-0.71-0.84-2.1c-3.99,11.19-7.67,21.54-11.36,31.89c0.51,0.25,1.02,0.49,1.53,0.74    c2.23-6.68,4.41-13.38,6.72-20.02c1.21-3.5,2.64-6.89,3.97-10.32c-1.67,10.4-3.48,20.76-4.95,31.2    c-0.81,5.76-1.04,11.63-0.72,17.72c0.38-0.9,0.79-1.79,1.14-2.71c2.27-5.97,4.73-11.86,6.71-17.96c0.94-2.91,1.95-6.6,1.22-9.3    c-1.98-7.33-1.44-14.21,0.63-21.21c0.91-3.07,1.68-6.19,3.09-9.17c-0.62,3.82-1.12,7.66-1.89,11.44    c-1.8,8.93-1.85,8.91,0.98,18.98c2.33-5.61,4.31-10.85,6.65-15.85c1.86-3.98,3.86-7.97,6.33-11.43c4.28-6,5.95-13.28,8.14-20.36    c0.57-1.86,1.1-3.74,2.22-5.44c-0.53,2.77-1.06,5.53-1.59,8.3c0.38,0.17,0.75,0.33,1.13,0.5c2.96-9.07,5.93-18.13,8.89-27.2    c0.12,0.04,0.25,0.08,0.37,0.12c-1.23,5.15-2.46,10.29-3.73,15.62c5.86-7.91,11.59-15.64,17.31-23.36    c0.27,0.28,0.55,0.56,0.82,0.84c-2.96,3.96-5.99,7.85-8.88,11.88c-11.01,15.34-16.63,33.9-22.3,52.4    c-0.77,2.51-0.69,5.39-0.93,8.47c-0.74,4.66-1.57,8.95-2.39,13.24c0.21,0.04,0.43,0.08,0.64,0.12c1.25-4.82,2.49-9.64,3.8-14.72    C450.18,594.36,449.7,594.72,449.22,595.09z M198.72,368.37c2.15,5.36,4.29,10.72,6.44,16.08c0.14-3.78-0.03-7.19-0.69-10.46    c-0.51-2.5-1.65-4.82-2.05-7.61c-0.05-1.03,0.24-2.36-0.2-3.04c-2.02-3.13-4.25-6.08-6.4-9.1c-0.26,0.16-0.52,0.32-0.77,0.48    c0.58,4.39,1.17,8.78,1.74,13.09C197.59,367.82,198.19,367.82,198.72,368.37z M235.87,481.81c-1.04-0.79-2.08-1.58-3.3-2.51    c0,4.58,0,8.54,0,12.16c1.22-3.05,2.5-6.27,3.5-8.82c-3.57,12.25-3.29,24.43,0.68,37.21C243.26,506.72,238.5,494.37,235.87,481.81    z M440.47,605.25c-1.73,3.66-4.44,7.13-5,11.03c-1.39,9.72-1.79,19.64-2.59,29.47c0.46,0.08,0.93,0.15,1.39,0.23    c0.78-3.93,1.89-7.81,2.26-11.8c0.39-4.22,0.09-8.52,0.09-12.79c0.14-0.01,0.29-0.02,0.43-0.02c0.34,3.28,0.68,6.56,1.15,11.08    c1.78-7.69,3.48-14.06,4.67-20.57c0.74-4.03,0.72-8.27,1.2-12.96c1.06-6.43,2.12-12.87,3.19-19.3    c-3.41,8.35-7.55,16.34-9.62,25.99C439.09,605.08,439.76,604.83,440.47,605.25z M213.5,543.09c1.52,23.83,1.06,48.02,9.36,70.67    c0.22-8.32-0.09-16.58-0.67-24.82c-0.61-8.8-1.43-17.58-2.26-26.36c-0.33-3.48-0.96-6.93-0.86-10.7    c-0.69-9.49-1.41-18.98-2.05-28.47c-1.23-18.4-2.4-36.8-3.6-55.31c-0.25,1.74-0.62,3.41-0.72,5.09    c-0.62,10.84-1.82,21.7-1.58,32.51C211.39,518.02,212.96,530.32,213.5,543.09z M279.24,523.1c-1.82,3.52-3.93,6.89-5.38,10.61    c-2.28,5.86-5.56,11.88-5.84,17.99c-0.71,14.98-0.01,30.05,0.27,45.08c0.06,3.43,0.72,6.85,1.11,10.27    c0.39-0.01,0.77-0.03,1.16-0.04c0.24-3.02,0.37-6.06,0.74-9.07c2.19-17.82,4.56-35.61,6.59-53.45c0.83-7.32,0.97-14.74,1.34-22.68    c0.43-1.31,1.03-2.58,1.28-3.94c1.62-8.93,3.13-17.89,4.76-26.82c1.23-6.69,2.63-13.34,3.88-20.03    c1.25-6.67,2.41-13.37,3.61-20.06c-0.34-0.15-0.68-0.3-1.02-0.45c-7.18,16.9-18.71,31.28-19.67,51.8    c-0.44,9.35-2.25,18.59,1.65,27.53C275.57,527.34,277.45,524.84,279.24,523.1z M346.12,558.79c-2.56,9.24-5.12,18.47-7.67,27.71    c0.4,0.16,0.81,0.32,1.21,0.49c2.64-8.74,5.34-17.46,7.9-26.23c0.81-2.76,1.26-5.66,2.17-9.03c1.36-2.78,2.73-5.56,4.09-8.34    c-6.02,18.77-10.99,37.89-16.08,56.97c0.32,0.13,0.64,0.26,0.96,0.4c1.61-2.8,3.21-5.6,4.82-8.4c-0.62,3.9-1.9,7.43-2.69,11.1    c-0.76,3.55-1,7.26-1.47,10.9c0.23,0.03,0.47,0.06,0.7,0.09c0.16-0.67,0.33-1.35,0.49-2.02c0.17,0,0.33,0,0.5,0    c0,6.69,0,13.38,0,20.07c0.7-1.75,1.14-3.53,1.26-5.34c1.1-17.81,4.81-35.04,10.68-51.27c6.7-18.53,8.28-38.06,10.58-57.51    c1.71-14.47,2.89-29.02,4.17-43.55c0.68-7.69,1.06-15.42,1.58-23.12c-0.17-0.02-0.35-0.04-0.52-0.06    c-6.73,27.71-13.46,55.42-20.39,83.94c2.14-2.1,3.69-3.63,5.23-5.15c-2.61,5.41-5.76,10.17-8.05,15.44    c-2.23,5.16-3.62,10.84-5.31,16.31c-1.73,5.6-3.6,11.16-4.98,16.88c-1.33,5.51-2.13,11.2-3.15,16.81    c3.6-9.33,6.42-18.86,9.56-28.26C342.82,564.27,344.69,561.29,346.12,558.79z M234.29,372.95c-2.4-25.11-4.8-50.22-7.2-75.33    c-0.38-0.06-0.76-0.13-1.14-0.19c-3.4,6.01-8.11,10.7-7.72,19.58c0.9,20.75,0.82,41.56,1.26,62.35c0.07,3.11,0.31,6.41,1.27,9.26    c4.3,12.81,8.88,25.49,13.39,38.28c4.1-8.56,4.67-11.93,3.86-19.06C236.7,396.47,235.57,385.09,234.29,372.95z M203.97,307.12    c-5.43-3.01-5.03-9.73-7.58-15.84c2.49,1.77,4.16,2.96,5.87,4.18c1.2-4.12-0.33-7.58-3.69-9.49c-3.67-2.1-7.25-4.43-10.75-6.59    c2.14,21.93,6.95,44.43,5.74,68.64c2.83,3.13,6.34,7,10.63,11.74c-0.53-4.1-0.89-6.89-1.22-9.48c-6.29-3.81-10.06-16.5-6.62-23.39    c0.29,2.71,0.51,4.81,0.76,7.12c1.3,0.18,2.43,0.34,4.1,0.57c0.87,3.03,2.36,6.17,2.61,9.44c1.15,15.02,7.49,27.36,14.37,39.63    c-0.06-18.04-0.1-36.06-1.11-54C216.54,319.9,212.82,311.53,203.97,307.12z M276.67,462.89c-0.55,3.9-1.1,7.8-1.65,11.7    c1.18-0.45,1.66-1.18,2.08-1.97c5.07-9.56,10.16-19.09,15.14-28.71c0.93-1.79,1.6-3.85,2.03-5.89    c3.6-17.16,7.02-34.37,10.68-51.51c2.52-11.83,5.34-23.58,8.01-35.32c-0.13,0.16-0.37,0.39-0.52,0.67    c-9.5,17.74-18.95,35.53-28.51,53.23c-8.71,16.15-11.95,32.19-9.56,48.2c4.31-17.85,11.91-34,19.71-50.08    c-0.27,2.55-0.9,4.94-1.64,7.28C286.98,427.63,279.47,443.89,276.67,462.89z M345.38,490.53c-3.36,10.67-6.72,21.33-10.08,32    c0.4,0.2,0.8,0.4,1.19,0.6c2.6-4.63,5.21-9.25,7.31-12.98c-2,13.72-4.13,28.27-6.25,42.82c0.31,0.07,0.61,0.13,0.92,0.2    c12.77-35.06,18.08-72.7,27.51-108.91c-0.42-0.21-0.84-0.42-1.27-0.63C358.34,459.06,351.97,474.5,345.38,490.53z M367.64,425.77    c-4.15,7.15-7.77,14.84-12.57,21.32c-8.26,11.15-16.18,22.2-19.1,37.22c-1.74,8.93-4.54,17.58-6.86,26.35    c0.29,0.15,0.58,0.31,0.87,0.46c4.76-8.74,9.77-17.3,14.18-26.27c3.26-6.64,5.48-13.98,8.64-20.7c3.79-8.06,7.72-16.1,12.27-23.56    c3.17-5.2,3.94-10.7,4.53-17.82C368.65,424.23,368.3,424.77,367.64,425.77z M198.76,438.95c1.96,17.56,3.81,35.13,5.97,52.66    c0.64,5.15,2.16,10.15,3.28,15.22c0.5-0.1,0.99-0.2,1.49-0.3c0-21.45,0-42.9,0-64.59c-3.94-5.5-6.09-13.15-12.64-17.68    C197.56,429.49,198.13,433.84,198.76,438.95z M256.58,456c1.37-7.57,3.13-15.08,4.04-22.73c2.35-19.8,4.23-39.67,6.52-59.47    c0.54-4.62,1.98-9.09,3.01-13.63c-1.89,2.89-3.41,5.98-4.31,9.29c-2.98,10.95-5.86,21.93-8.51,33c-1.3,5.43-2.84,11.08-2.77,16.61    C254.7,431.22,255.78,443.36,256.58,456z M332.83,543.7c-7.5,28.25-9.91,57.41-11.28,86.8c0.72-0.76,1.08-1.62,1.2-2.53    c1.25-9.02,2.52-18.04,3.66-27.08c1.87-14.79,4.26-29.32,8.36-43.62c3.32-11.62,4.39-24.13,6.46-36.24    c-0.31-0.12-0.62-0.24-0.94-0.36c-1.54,3.49-3.35,6.85-4.53,10.49C334.52,534.97,333.88,539.05,332.83,543.7z M262.89,453.81    c-2.48,9.88-2.7,20.01-2.47,30.29c2.55-4.19,5.96-8.22,6.77-12.88c3.1-17.84,3.44-36.02,2.93-54.53c-0.34,0.54-0.61,0.8-0.69,1.13    c-2.61,10.83-5.24,21.65-7.74,32.52C261.52,451.13,262.31,452.22,262.89,453.81z M225.51,485.48c0.22,0.56,0.44,1.13,0.76,1.98    c3.86-16.15,0.51-39.4-8.91-60.68c0,7.06-0.78,13.22,0.16,19C219.65,458.92,222.61,471.87,225.51,485.48z M243.02,427.22    c0.83,6.79,1.67,13.58,2.5,20.37c5.08-16.72,5.42-33.73,4.04-51.86c-2.1,4.64-3.67,8.62-5.63,12.31    c-2.1,3.96-2.88,8.01-1.98,12.56C242.34,422.55,242.51,424.54,243.02,427.22z M154.72,549.52c1.58,5.52,3.11,11.06,4.75,16.56    c1.63,5.49,3.36,10.94,5.04,16.41c0.46-0.2,0.92-0.4,1.37-0.6c-6.08-32.46-16.37-63.18-28.7-93.04    C142.95,508.88,148.7,528.89,154.72,549.52z M222.9,247.75c-0.6-2.6-1.21-5.2-1.81-7.8c-0.3,0.03-0.59,0.07-0.89,0.1    c-0.22,1.99-0.44,3.99-0.69,6.33c-0.95-1.99-1.77-3.69-2.58-5.39c-0.34,0.18-0.69,0.37-1.03,0.55c1.75,9.79,3.51,19.57,5.11,28.54    c5.68,4.43,4.18,12.32,7.17,17.5c0.33-0.08,0.66-0.15,0.99-0.23C227.13,274.39,225.09,261.41,222.9,247.75z M125.7,602.74    c-3.36-12.23-7.83-23.82-14.23-34.36c5.37,20.03,10.75,40.06,16.12,60.09c0.47-0.16,0.94-0.33,1.42-0.49    c-1.45-6.98-2.9-13.96-4.4-21.16c0.83,1.2,1.57,2.26,2.32,3.33c0.15-0.09,0.29-0.18,0.44-0.28    C126.85,607.72,126.33,605.57,125.7,602.74z M209.86,421.59c-0.47-8.38-7.13-27.08-12.03-33.36c3.03,16.13,5.1,32.17,12.11,47.15    C209.94,430.52,209.94,426.44,209.86,421.59z M224.99,526.52c0.07,0.66,0.14,1.31,0.32,3.14c1.15-9.31-5.08-55.86-8.91-68.73    C216.15,483.28,219.29,504.81,224.99,526.52z M238.43,595.28c-1.85-22.44-3.7-44.88-5.56-67.31c-0.41,0.05-0.83,0.09-1.24,0.14    c0.23,29.15,4.26,57.9,7.41,86.75C240.86,608.44,239.34,602.23,238.43,595.28z M390.52,629.87c-0.2,2.49-0.41,4.97-0.61,7.46    c0.24,0.03,0.48,0.05,0.73,0.08c0.52-3.92,1.05-7.85,1.69-12.63c0.59,2.41,0.95,3.89,1.43,5.85c0.61-6.8,1.16-12.92,1.72-19.03    c0.31,0.04,0.61,0.08,0.92,0.12c-0.21,3.05-0.42,6.1-0.63,9.15c0.16,0,0.32,0.01,0.47,0.01c2.02-12.48,4.04-24.96,6.06-37.44    C395.16,597.57,391.41,612.83,390.52,629.87z M243.74,582.21c0.33,4.41,0.48,8.86,1.05,13.22c0.55,4.27,1.53,8.46,2.31,12.69    c0.48-0.1,0.96-0.21,1.44-0.31c-1.09-18.39-2.18-36.78-3.27-55.17c-0.35,0.02-0.7,0.05-1.05,0.07    C241.05,562.17,243.2,571.83,243.74,582.21z M265.4,404.8c-0.94,8.48-1.88,16.96-2.83,25.43c7.19-17.08,8.17-41.17,7.14-60.82    C268.32,380.96,266.92,392.5,265.4,404.8z M266.65,485.42c0.46-3.02,0.92-6.05,1.45-9.49c-7.7,7.02-12.04,24.39-8.82,37.74    C261.71,504.49,264.15,495.31,266.65,485.42z M353.71,585.67c-1.05,5.26-2.29,10.48-3.08,15.8c-0.8,5.33-1.17,10.75-1.7,16.14    c-0.51,5.16-0.98,10.33-1.47,15.49c0.57,0.08,1.15,0.16,1.72,0.25c2.79-19.82,5.57-39.64,8.36-59.45c-0.3-0.07-0.6-0.14-0.9-0.22    C355.74,577.46,354.85,581.25,353.71,585.67z M280.29,568.71c-4.59,19.86-6.24,43.16-4.21,50.01c2.4-19.66,5.01-40.99,7.61-62.33    c-0.11-0.04-0.22-0.09-0.32-0.13C282.39,560.18,281.42,564.1,280.29,568.71z M368.85,571.09c-0.56,2.58-1.36,5.12-1.64,7.74    c-1.22,11.17-2.41,22.35-3.36,33.56c-0.65,7.62-0.88,15.3-1.3,22.95c0.25,0.01,0.49,0.02,0.74,0.03    c2.55-22.01,5.09-44.03,7.64-66.04c-0.23-0.09-0.46-0.18-0.69-0.27C369.86,569.54,369.49,570.03,368.85,571.09z M239.78,457.31    c2.28,9.45,4.55,18.91,6.83,28.36c1.74-12.4-1.1-24.06-2.63-35.9c-0.34-0.1-0.68-0.2-1.02-0.31    C241.8,451.91,240.65,454.36,239.78,457.31z M87.64,515.22c5.44,15.1,11.23,29.98,19.29,43.42c0.32-0.2,0.64-0.39,0.97-0.59    c-1.73-3.9-3.46-7.8-5.15-11.6c0.35,0.1,0.86,0.24,1.72,0.48c-2.66-5.76-5.08-11.28-7.72-16.64c-2.6-5.26-5.42-10.38-8.2-15.51    C88.42,514.54,87.76,514.72,87.64,515.22z M124.9,572.62c1.1,4.8,2.15,9.62,3.33,14.4c1.13,4.59,2.41,9.12,3.7,13.94    c1.15-17.18-2.97-32.01-12.15-44.83C121.41,561.41,123.04,566.7,124.9,572.62z M372.3,584.26c-0.77,7.99-1.54,15.98-2.31,23.97    c0.26,0.04,0.52,0.08,0.78,0.12c2.99-15.38,5.98-30.77,8.97-46.15C375.52,568.55,372.7,575.47,372.3,584.26z M140.45,609.3    c-2.09-7.71-4.19-15.42-6.28-23.13c-0.46,0.18-0.92,0.36-1.38,0.54c2.17,15.62,7.07,30.22,11.98,44.82c0.3-0.1,0.6-0.21,0.9-0.31    C144,624.14,142.33,617.04,140.45,609.3z M336.71,504.6c-4.71,10.26-8.98,20.71-10.97,32.8c4.77-3.04,8.69-14.44,12.92-36.54    C337.94,502.24,337.45,503.16,336.71,504.6z M241.8,526.12c-0.26-2.56-0.52-5.11-0.83-8.09c-4.07,6.53-2.94,24.75-0.92,33.87    c0.34,0.01,0.68,0.03,1.02,0.04C241.32,543.61,241.56,535.27,241.8,526.12z M218.08,293.51c0.53-0.58,1.05-1.16,2.16-2.38    c0.38,4.31,0.68,7.68,1.02,11.43c1.77-4.27,3.32-8,5.49-13.22c-2.07-1.6-4.81-3.71-7.94-6.13c-0.13,0.33-0.87,1.49-0.98,2.73    C217.59,288.34,217.71,290.78,218.08,293.51z M197.42,547.23c-2.57-9.99-5.13-19.97-7.7-29.96c-0.37,0.13-0.74,0.26-1.1,0.39    c3.46,15.32,6.91,30.64,10.37,45.97c0.4-0.12,0.8-0.23,1.21-0.35C199.35,558.14,198.52,553.01,197.42,547.23z M194.35,396.44    c0.19,11.13-1.01,22.79,8.84,30.27c-1.48-5-2.98-9.86-4.34-14.78C197.42,406.82,196.13,401.66,194.35,396.44z M263.92,521.91    c0.95-7.57,1.89-15.14,2.84-22.7c-5.16,10.51-6.26,34.21-5.18,43.24C262.31,535.85,263.05,529.25,263.92,521.91z M286.69,608.1    c0.5-2.94,1.05-5.87,1.49-8.82c0.42-2.82,0.77-5.65,1.05-8.49c0.28-2.78,0.43-5.58,0.64-8.38c-0.31-0.04-0.63-0.08-0.94-0.12    c-2.83,11.07-5.72,22.14-4.08,34.16C285.39,613.9,285.93,611.34,286.69,608.1z M105.41,626.6c1.68,5.99,3.36,11.98,5.04,17.97    c0.47-11.2-0.66-21.77-8.3-30.23C103.27,618.42,104.3,622.17,105.41,626.6z M206.41,579.8c-0.6-2.51-1.19-5.02-1.79-7.53    c-0.53,0.16-1.06,0.31-1.6,0.47c1.84,11.93,3.68,23.87,5.52,35.8c0.41-0.08,0.82-0.16,1.23-0.24    C208.72,599.03,207.68,589.76,206.41,579.8z M236.66,440.54c0.25,1.13,0.49,2.25,0.74,3.38c0.26-0.04,0.51-0.09,0.77-0.13    c0.6-7.59,1.2-15.19,1.8-22.78c-0.35-0.04-0.69-0.07-1.04-0.11C235.98,426.83,234.45,433.02,236.66,440.54z M441.89,644.97    c0,3.81,0,7.63,0,11.44c0.44-0.01,0.89-0.02,1.33-0.02c0.7-11.65,1.4-23.31,2.1-34.96c-0.28-0.04-0.56-0.07-0.84-0.11    C443.61,628.94,442.75,636.56,441.89,644.97z M252.54,452.55c-1.87,6.7-3.93,13.37-2.21,21.12c4.31-7.87,3.11-16.09,2.55-24.21    C252.81,450.28,252.75,451.11,252.54,452.55z M309.2,574.77c-0.06,0.93-0.12,1.86-0.18,2.8c0.3,0.08,0.6,0.17,0.9,0.25    c2-8.39,4-16.79,6-25.18c-0.45-0.16-0.9-0.32-1.35-0.47C311.72,559.08,310.39,566.57,309.2,574.77z M251.84,500.37    c3.97-7.77,1.39-16.36,2.18-24.54C251.49,483.76,251.26,492.04,251.84,500.37z M326.37,559.67c0.2-0.66,0.49-1.31,0.59-1.99    c0.1-0.68,0.02-1.41,0.02-2.98c-3.3,8.19-6.26,15.54-5.48,24.02c0.4,0.12,0.81,0.23,1.21,0.35    C323.87,572.82,325.04,566.58,326.37,559.67z M251.92,445.35c0-3.93,0-7.87,0-12.31c-1.02,4.64-2.11,8.68-2.76,12.83    c-0.62,3.92-0.77,7.93-1.13,11.91c0.36,0.06,0.72,0.12,1.08,0.18C250,454.01,250.89,450.05,251.92,445.35z M278.22,379.36    c0-1.13,0-2.25,0-3.79c-4.29,5.35-4.97,9.13-3.84,21.46C275.77,390.58,276.91,385.31,278.22,379.36z M418.32,622.32    c0.48-2.46,0.95-4.92,1.62-8.39c-5.48,8.81-4.71,18.2-5.85,27.08c0.29,0.08,0.59,0.16,0.88,0.23    C416.06,635.17,417.15,629.1,418.32,622.32z M210.07,383.46c-0.91-2.29-1.82-4.59-2.73-6.88c0.96,7.33,1.52,14.79,5.44,20.89    c0.41-0.16,0.81-0.32,1.22-0.48C212.77,392.68,211.55,388.36,210.07,383.46z M93.62,636.84c-0.3-0.11-0.6-0.21-0.91-0.3    c-0.01,0-0.12,0.25-0.09,0.34c1.94,6.37,3.9,12.73,5.85,19.09c-0.11-4.89-0.81-9.61-1.9-14.19    C96.17,640.11,94.84,638.75,93.62,636.84z M229.29,505.27c-0.11-0.05-0.23-0.14-0.34-0.13c-0.06,0-0.16,0.17-0.16,0.25    c0.49,7.13,0.99,14.27,1.49,21.4c0.32-0.03,0.64-0.05,0.96-0.08C231.75,519.65,232.44,512.59,229.29,505.27z M311.63,588.13    c-2.88,9.66-4.86,19.54-5.37,29.76c1.16-4.79,2.18-9.6,3.13-14.44c1.06-5.4,2.05-10.81,3.07-16.22c-0.19-0.01-0.38-0.05-0.55-0.02    C311.86,587.22,311.84,587.47,311.63,588.13z M402.59,577.83c0.42-1.91,0.83-3.82,1.25-5.73c-0.43-0.17-0.85-0.34-1.28-0.52    c-2.17,5.9-4.34,11.8-6.51,17.7c0.38,0.22,0.75,0.43,1.13,0.65C398.91,586.09,400.64,582.27,402.59,577.83z M208.74,526.31    c-0.61-4.32-1.22-8.64-1.82-12.95c-0.31,0.06-0.62,0.12-0.93,0.19c0.76,7.94,1.53,15.88,2.29,23.83c0.18-0.02,0.36-0.05,0.55-0.07    C208.82,533.9,208.82,530.5,208.74,526.31z M271.64,527.94c-0.37-1.1-0.74-2.19-1.12-3.29c-0.24,0.05-0.48,0.1-0.71,0.15    c-0.41,4.69-0.82,9.39-1.24,14.08C271.11,535.83,273.02,532.74,271.64,527.94z M72.67,643.35c0.31,0.79,0.63,1.59,0.94,2.38    c0.25-0.09,0.51-0.18,0.76-0.27c-1.53-7.6-3.05-15.2-4.58-22.8c-0.37,0.1-0.73,0.2-1.1,0.3    C69.99,629.55,71.28,636.14,72.67,643.35z M432.2,634.41c0.28-2.36,0.55-4.72,0.83-7.08c-0.37-0.07-0.75-0.15-1.12-0.22    c-1.01,6.86-2.02,13.71-3.03,20.57c0.37,0.08,0.75,0.16,1.12,0.24C430.73,643.66,431.45,639.4,432.2,634.41z M168.18,557.43    c-2.29-8.02-4.58-16.04-6.87-24.06c-0.31,0.13-0.62,0.27-0.93,0.4c2.65,9.07,5.31,18.13,7.96,27.2c0.17-0.06,0.34-0.12,0.52-0.17    C168.69,559.89,168.51,558.97,168.18,557.43z M95.71,631.77c-0.81-3.26-1.62-6.53-2.43-9.79c-1.17,5.19-1.96,10.22,2.76,13.77    C95.96,634.37,95.9,633.39,95.71,631.77z M205.3,557.4c-0.48-1.29-0.95-2.58-1.43-3.87c-0.57,5.34-1.54,10.55,1.88,15    C205.61,565.06,205.46,561.59,205.3,557.4z M324.38,555.28c4.67-3.44,4.22-9.54,5.66-14.66c-0.36-0.17-0.72-0.34-1.08-0.52    C327.38,544.95,325.81,549.8,324.38,555.28z M314.76,609.49c-0.73,6.69-1.47,13.39-2.2,20.08c0.36,0.04,0.72,0.09,1.09,0.13    c0.79-8.3,1.58-16.6,2.37-24.91c-0.1-0.02-0.2-0.04-0.31-0.06C315.41,606.09,315.12,607.45,314.76,609.49z M246.09,492.89    c-0.46-0.99-0.92-1.97-1.37-2.96c-0.21,0.11-0.43,0.23-0.64,0.34c0.5,5.47,0.99,10.94,1.49,16.41c0.21-0.02,0.41-0.03,0.62-0.05    C246.17,502.27,246.17,497.9,246.09,492.89z M316.39,543.3c-0.06,1.71-0.13,3.41-0.19,5.12c0.26,0.01,0.51,0.03,0.77,0.04    c0.72-4.45,1.43-8.9,2.15-13.35c-0.36-0.09-0.71-0.18-1.07-0.28C317.52,537.42,316.99,540,316.39,543.3z M263.69,567.77    c0.27-5.08,0.54-10.16,0.82-15.24c-0.31-0.02-0.62-0.04-0.93-0.06c-0.26,6.3-0.52,12.6-0.77,18.9c0.26,0.01,0.51,0.03,0.77,0.04    C263.6,570.44,263.64,569.46,263.69,567.77z M220.37,403.14c-0.71-2.64-1.43-5.27-2.14-7.91c-0.29,0.1-0.57,0.21-0.86,0.31    c1.34,5.44,2.68,10.87,4.02,16.31c0.27-0.09,0.54-0.18,0.81-0.26C221.66,408.99,221.11,406.4,220.37,403.14z M126.06,634.62    c-0.49-3.47-0.98-6.95-1.47-10.42c-0.33,0.07-0.67,0.15-1,0.22c0.85,4.75,1.7,9.5,2.55,14.25c0.1-0.01,0.19-0.03,0.29-0.04    C126.35,637.51,126.28,636.4,126.06,634.62z M187.06,614.51c-0.27-2.61-0.54-5.22-0.81-7.84c-0.28,0.04-0.56,0.08-0.84,0.12    c0.25,4.11,0.49,8.22,0.74,12.33c0.31-0.02,0.62-0.05,0.93-0.07C187.08,617.77,187.08,616.49,187.06,614.51z"/>

<path d="M268.15,193.24c-1.69-1.27-3.2-2.48-4.82-3.4c-4.53-2.57-8.34-5.73-11.2-11.03c-2.96-5.49-7.32-9.9-10.72-15.09    c-1.85-2.82-2.96-6.31-3.69-10.03c1.11,1.15,2.22,2.31,3.34,3.46c0.29-0.2,0.57-0.4,0.86-0.61c-2.04-3.98-4.09-7.96-6.13-11.94    c0.25-0.25,0.5-0.49,0.74-0.74c3.25,4.32,6.5,8.63,9.75,12.95c0.13-0.07,0.26-0.14,0.39-0.21c-2.13-4.89-4.27-9.78-6.4-14.66    c0.16-0.1,0.32-0.21,0.47-0.31c1.9,2.14,3.79,4.27,6.16,6.93c-0.6-2.08-0.99-3.47-1.39-4.86c0.23-0.17,0.45-0.35,0.68-0.52    c2.55,4.13,5.11,8.27,7.4,11.97c0.74,2.67,1.36,4.88,2.09,7.51c1.32-1.03,2.09-1.62,2.83-2.21c6.73,9.99,6.13,23.13,11.34,34.58    C268.97,194.13,268.63,193.79,268.15,193.24z"/>

<path d="M368.97,378.39c-0.46,0.84-0.77,1.44-1.47,2.81c8.36-40.61,13.67-81.24,27.46-119.19c-1.78,10.02-3.8,19.99-5.3,30.07    c-2.76,18.57-5.28,37.2-7.73,55.83c-0.66,5.01-1.72,9.62-4.22,13.88C374.63,367.06,371.97,372.68,368.97,378.39z"/>

<path d="M303.63,133.38c-1.48,3.57-2.51,7.11-4.23,10.1c-1.65,2.88-3.69,5.83-6.15,7.61c-4.42,3.2-8.3,6.75-10.69,12.29    c-0.24,0.56-0.85,0.9-1.35,1.41c-1.12-4.28,6.07-31.54,10.02-38.14c0.13,1.22,0.23,2.24,0.32,3.11    c3.72-5.74,7.42-11.45,11.12-17.16c0.42,0.3,0.85,0.6,1.27,0.9c-1.53,3.95-3.05,7.9-4.58,11.85c0.15,0.11,0.3,0.22,0.45,0.32    c2.65-3.54,5.3-7.09,7.95-10.63c0.19,0.15,0.37,0.3,0.56,0.45c-2.51,4.68-5.01,9.36-7.52,14.04c0.12,0.16,0.25,0.32,0.37,0.48    c2.16-2.79,4.31-5.58,6.47-8.37c0.21,0.13,0.42,0.27,0.63,0.4C306.78,125.73,305.28,129.43,303.63,133.38z"/>

<path d="M398.81,352.62c3.23-4.76,6.3-9.27,9.38-13.78c0.26,0.2,0.52,0.39,0.78,0.59c-7.47,28.39-15.87,56.37-26.06,83.56    c-0.57-0.19-1.13-0.39-1.7-0.58c2.73-13.27,5.35-26.57,8.23-39.79c1.34-6.17,3.03-12.25,4.85-18.25    C395.48,360.42,397.18,356.69,398.81,352.62z"/>

<path d="M236.88,42.4c2.03,2.82,3.88,5.43,5.73,8.04c0.16-0.09,0.31-0.18,0.47-0.27c-0.89-2.41-1.77-4.82-2.66-7.23    c0.28-0.23,0.56-0.45,0.83-0.68c2.78,4.32,5.56,8.64,8.35,12.97c0.13-0.53,0.34-1.44,0.86-3.61c1.32,2.19,2.42,3.44,2.93,4.97    c2.43,7.2,4.7,14.48,7.45,23.08c-5.88-3.71-11.07-6.78-16.06-10.28c-1.09-0.76-1.43-3.01-2.24-4.42    c-2.55-4.08-5.1-8.16-7.99-12.78c1.28,0.19,1.82,0.26,2.94,0.43c-1.91-2.85-3.55-5.3-5.19-7.74c0.11-0.11,0.21-0.22,0.32-0.33    c1.16,1.03,2.32,2.06,4.2,3.73c-0.3-2.65-0.49-4.34-0.67-6.03c-0.01-0.05,0.12-0.18,0.19-0.18    C236.47,42.08,236.59,42.15,236.88,42.4z"/>

<path d="M414.57,297.1c5.62-12.66,11.14-25.02,17.11-38.39c-3.96,14.71-7.57,28.22-11.26,41.71c-0.4,1.45-1.12,2.91-1.99,4.04    c-10.99,14.27-22.04,28.49-32.98,42.6c1.48-2.84,2.9-6.19,4.79-9.11c5.46-8.41,11.31-16.46,16.59-25.01    C409.8,308.12,411.94,302.6,414.57,297.1z"/>

<path d="M466.35,662.21c-0.6-0.83-1.29-1.77-1.16-2.49c3.82-20.51,7.72-41,12.31-61.35c-1.76,14.95-3.52,29.89-5.27,44.84    c0.16,0.04,0.33,0.09,0.49,0.13c0.17-0.71,0.34-1.43,0.52-2.14c0.2,0.02,0.41,0.04,0.61,0.05c-0.55,6.85-1.1,13.7-1.65,20.65    C470.19,662.01,468.42,662.11,466.35,662.21z"/>

<path d="M254.95,372.22c-0.53-5.72-1.14-11.44-1.61-17.19c-0.14-1.69,0.12-3.42,0.19-5.18c1.01-0.7,1.93-1.33,3.09-2.12    c1.02-2.99,2.13-6.23,3.23-9.47c0.16,0.05,0.33,0.1,0.49,0.15c-0.27,2.29-0.54,4.57-0.94,8c1.26-3.25,2.13-5.52,3.01-7.78    c0.24,0.09,0.48,0.17,0.72,0.26c-0.65,3.77-1.3,7.54-2.11,12.22c1.76-1.8,3.02-3.09,5.08-5.21c-2.86,7.58-5.38,14.43-8.03,21.21    c-0.69,1.77-1.76,3.33-2.92,5.02C254.9,372.17,254.94,372.2,254.95,372.22z"/>

<path d="M194.56,263.71c-5.94-6.89-7.64-13.39-5.15-19.34c0.67,0.33,1.34,0.69,2.03,0.97c0.14,0.06,0.38-0.21,0.58-0.34    c0.11,0.94,0.22,1.85,0.44,3.7c0.98-3.86,1.72-6.76,2.46-9.66c0.28,0,0.56,0,0.84,0c0.42,2.35,0.83,4.69,1.27,7.15    c0.44,0.13,1.08,0.32,2.22,0.66c-0.86,6.04-1.69,11.92-2.59,18.31C195.57,264.43,195.18,264.16,194.56,263.71z"/>

<path d="M61.61,642.63c0.86,6.54,1.7,12.72,2.61,19.35c-1.83-0.19-3.07-0.32-4.38-0.46c-0.39-10.19-0.76-20.17-1.14-30.15    c0.19-0.05,0.39-0.1,0.58-0.15C60.04,634.9,60.82,638.58,61.61,642.63z"/>

<path d="M317.52,384.07c2.36-4.98,4.58-9.69,6.79-14.4c0.32,0.21,0.65,0.42,0.97,0.63c-5.12,11.24-10.23,22.47-15.35,33.71    c-0.3-0.17-0.6-0.34-0.9-0.51c1.28-3.14,2.51-6.31,3.86-9.41C314.33,390.8,315.88,387.58,317.52,384.07z"/>

<path d="M49.6,643.05c1.44,16.77,1.44,16.77-1.01,18.67c0-8.67,0-16.99,0-25.31c0.11-0.03,0.22-0.05,0.32-0.08    C49.13,638.44,49.34,640.56,49.6,643.05z"/>

<path d="M481.64,648.36c0.43-2.56,0.79-4.78,1.15-6.99c-0.37,6.81,1.07,13.98-1.75,20.28c-0.56-0.11-1.11-0.22-1.67-0.34    C480.1,657.11,480.83,652.91,481.64,648.36z"/>

<path d="M32.75,659.82c0.49-6.74,0.92-13.12,1.35-19.5c0.13,0,0.27,0,0.4,0.01c0,6.94,0,13.89,0,22.15    C33.47,661.17,33.08,660.67,32.75,659.82z"/>

<path d="M63.07,602.96c-0.73-2.43-1.58-4.81-2.19-7.27c-0.63-2.55-1.02-5.19-1.52-7.78c0.3-0.09,0.6-0.17,0.91-0.26    c0.98,4.9,1.97,9.81,2.85,15.04C63.01,603.01,63.05,602.98,63.07,602.96z"/>

<path d="M278.41,125.25c0.56-3.74,1.09-7.51,1.62-11.27c2.92,4.47-0.5,7.35-1.48,11.05C278.35,125.18,278.39,125.23,278.41,125.25    z"/>

<path d="M55.83,656.39c-0.42,2.06-0.78,3.78-1.14,5.51c-0.48-0.16-0.96-0.32-1.44-0.48c0.88-3.42,1.77-6.83,2.65-10.25    c0.19,0.02,0.38,0.04,0.57,0.06C56.28,652.85,56.09,654.45,55.83,656.39z"/>

</g>

</g>

</svg>