<?xml version="1.0" encoding="utf-8"?>
<!-- Uploaded to: SVG Repo, www.svgrepo.com, Generator: SVG Repo Mixer Tools -->
<svg width="800px" height="800px" viewBox="0 0 1024 1024" class="icon"  version="1.1" xmlns="http://www.w3.org/2000/svg"><path d="M838.4 860.3h-301c-70 0-126.7-56.7-126.7-126.7l-29.2-499.8c0-70 56.7-126.7 126.7-126.7h359.3c70 0 126.7 56.7 126.7 126.7L965 733.6c0.1 70-56.7 126.7-126.6 126.7z" fill="#B6B7B7" /><path d="M838.4 870.3h-301c-75.3 0-136.6-61.2-136.7-136.4l-29.1-499.5v-0.6c0-75.4 61.3-136.7 136.7-136.7h359.3c75.4 0 136.7 61.3 136.7 136.7v0.6l-29.1 499.5c-0.3 75.3-61.6 136.4-136.8 136.4z m-447-636.8L420.6 733v0.6c0 64.4 52.4 116.7 116.7 116.7h301c64.4 0 116.7-52.4 116.7-116.7v-0.6l29.1-499.5c-0.2-64.2-52.5-116.4-116.7-116.4H508.2c-64.3 0-116.6 52.2-116.8 116.4z" fill="" /><path d="M390.3 386.1l20.3 347.5c0 70 56.7 126.7 126.7 126.7h301c70 0 126.7-56.7 126.7-126.7l20.3-347.5h-595z" fill="#75736F" /><path d="M838.4 870.3h-301c-75.3 0-136.6-61.2-136.7-136.4l-20.9-357.8H996l-20.9 357.8c-0.2 75.3-61.4 136.4-136.7 136.4zM400.9 396.1l19.7 337.2v0.3c0 64.4 52.4 116.7 116.7 116.7h301c64.4 0 116.7-52.4 116.7-116.7v-0.6l19.7-337H400.9z" fill="" /><path d="M856.8 322H518.9c-1.6 0-2.9-1.3-2.9-2.9v-212h343.6v212.1c0.1 1.5-1.2 2.8-2.8 2.8z" fill="#75736F" /><path d="M856.8 332H518.9c-7.1 0-12.9-5.8-12.9-12.9v-222h363.6v222.1c0.1 7.1-5.7 12.8-12.8 12.8zM526 312h323.6V117.1H526V312z" fill="" /><path d="M472.9 677.4c0-102.7 29.1-191.5 71.5-235.7-26.6-26.7-60-42.7-97.3-45.4-48.5-3.5-94 16.1-128.5 54.5-34.6-38.5-80-58-128.5-54.5-32.1 2.3-61.3 14.6-85.8 34.9 48.5 39.4 82.8 134.7 82.8 246.2 0 81.6-18.4 154.5-47.2 203.3 26.8 22.4 56.7 34.9 87.4 32.7 35-2.5 66.2-23.8 91.3-56.4 25.1 32.7 56.3 53.9 91.3 56.4 36.6 2.6 72-15.5 102.5-46.7-24.4-48.3-39.5-115.2-39.5-189.3z" fill="#FCD170" /><path d="M417 923.6c-2.6 0-5.2-0.1-7.8-0.3-32.8-2.4-63.9-19.8-90.6-50.6-26.7 30.8-57.8 48.2-90.6 50.6-31.8 2.3-64.5-9.8-94.5-35l-6.5-5.5 4.3-7.3c29.1-49.2 45.8-121.4 45.8-198.2 0-52.9-7.8-103.7-22.7-146.9-14.1-41.4-33.6-73-56.4-91.4l-9.5-7.7 9.4-7.8c26.4-21.9 58-34.8 91.4-37.2 47.9-3.5 93.4 14.2 129.2 50 35.8-35.7 81.3-53.4 129.2-50 39.2 2.8 75 19.5 103.6 48.3l6.9 6.9-6.8 7c-20.1 21-37.2 52.8-49.4 92-12.7 40.9-19.4 88.3-19.4 136.8 0 70.1 13.7 135.7 38.5 184.7l3.2 6.4-5 5.1c-31.7 32.9-67 50.1-102.3 50.1z m-98.4-83.1l7.9 10.3c24.8 32.2 53.8 50.4 84.1 52.5 30 2.2 60.9-11.2 89.6-38.8-24.2-50.9-37.4-117-37.4-187.2 0-96.9 25.7-185.6 67.6-235.2-23.9-21.3-52.8-33.7-84-36-45-3.2-87.8 15-120.4 51.2l-7.4 8.3-7.4-8.3c-32.6-36.3-75.4-54.5-120.4-51.2-25.4 1.8-49.7 10.6-70.8 25.5 47.2 46.4 77.2 140.7 77.2 245.6 0 76.4-16.1 149-44.3 200.8 24.1 18.2 49.4 26.9 73.7 25.2 30.3-2.2 59.3-20.3 84.1-52.5l7.9-10.2z" fill="" /><path d="M187.4 545.9c34.6 0 66.5 8.6 92.7 23.3 33.2 18.6 73 18.6 106.2 0 26.1-14.7 58.1-23.3 92.7-23.3 51.3 0 96.9 19 126.2 48.6-6.8-116.5-72.6-192.1-158.1-198.2-48.5-3.5-94 16.1-128.5 54.5-34.6-38.5-80-58-128.5-54.5-96.3 6.9-167.9 101.9-157.8 244.4 17.8-54.5 80.4-94.8 155.1-94.8z" fill="#D64F34" /><path d="M32.3 650.7c-0.4 0-0.8 0-1.2-0.1-4.7-0.6-8.4-4.5-8.8-9.2-5-70.5 9.1-132.6 40.7-179.3 30.5-45.2 75.4-72.1 126.3-75.8 47.9-3.5 93.4 14.2 129.2 50 35.8-35.7 81.3-53.4 129.2-50 45.4 3.3 85.4 24.5 115.5 61.4 30.5 37.3 48.4 87.8 51.8 146.2 0.2 4.1-2.1 8-5.9 9.7-3.8 1.7-8.2 0.9-11.2-2.1-28.8-29-72.2-45.6-119.1-45.6-31.7 0-62.1 7.6-87.8 22-36.3 20.4-79.7 20.4-116 0-25.7-14.4-56-22-87.8-22-68.8 0-128.7 36.1-145.6 87.9-1.2 4.1-5 6.9-9.3 6.9zM201 405.9c-3.4 0-6.8 0.1-10.2 0.4-44.7 3.2-84.2 27-111.2 67-23.4 34.5-36.3 78.5-38.1 128.7 30.2-40.2 85-66 145.9-66 35.2 0 68.9 8.5 97.6 24.6 30.2 16.9 66.3 16.9 96.5 0 28.7-16.1 62.4-24.6 97.6-24.6 42.6 0 82.8 12.5 113.9 35-6-43.9-21.4-81.7-44.9-110.5-26.6-32.5-61.7-51.2-101.5-54.1-45-3.2-87.8 15-120.4 51.2-1.9 2.1-4.6 3.3-7.4 3.3s-5.5-1.2-7.4-3.3c-30.3-33.6-69.1-51.7-110.4-51.7z" fill="" /><path d="M479 798.6c-33.1 0-63.8-7.9-89.3-21.5-35.7-19-77.2-19-112.9 0-25.5 13.6-56.2 21.5-89.3 21.5-57.1 0-107-23.6-135.5-58.9 33 100.7 101.8 178.9 175.3 173.6 35-2.5 66.2-23.8 91.3-56.4 25.1 32.7 56.3 53.9 91.3 56.4 64.6 4.7 125.5-55.2 161.8-138.1-26.2 14.7-58.1 23.4-92.7 23.4z" fill="#D64F34" /><path d="M220.2 923.6c-35.5 0-70.9-17.3-102.9-50.3-31.2-32.3-57.8-78.6-74.9-130.5-1.5-4.6 0.5-9.6 4.7-11.9 4.2-2.3 9.5-1.2 12.6 2.5 27.8 34.6 75.5 55.2 127.7 55.2 30.4 0 59.6-7 84.6-20.3 38.9-20.6 83.4-20.6 122.3 0 25 13.3 54.3 20.3 84.6 20.3 31.6 0 62-7.6 87.8-22.1 3.7-2.1 8.4-1.6 11.6 1.3 3.2 2.9 4.2 7.5 2.4 11.4-39.3 89.8-101.6 144.3-164 144.3-2.6 0-5.1-0.1-7.7-0.3-32.8-2.4-63.9-19.8-90.6-50.6-26.7 30.8-57.8 48.2-90.6 50.6-2.4 0.3-5 0.4-7.6 0.4zM76.8 775.9c14.9 32.8 33.8 61.6 54.8 83.4 30.2 31.1 63 46.4 95 44 30.3-2.2 59.3-20.3 84.1-52.5 1.9-2.5 4.8-3.9 7.9-3.9 3.1 0 6 1.4 7.9 3.9 24.8 32.2 53.8 50.4 84.1 52.5 28 2 57.1-9.6 84.2-33.7 20.9-18.6 39.9-43.7 55.8-73.7-22.3 8.3-46.6 12.6-71.6 12.6-33.6 0-66.1-7.8-94-22.6-32.9-17.5-70.6-17.5-103.5 0-27.9 14.8-60.4 22.6-94 22.6-41.4 0.1-80.3-11.7-110.7-32.6z" fill="" /><path d="M315.7 452.5c-1.2 0-2.4-0.2-3.5-0.6-5.2-1.9-7.8-7.7-5.9-12.9 5.3-14.2 8-29.2 8-44.8 0-62.9-44.9-114.1-100-114.1-5.5 0-10-4.5-10-10s4.5-10 10-10c66.2 0 120 60.2 120 134.1 0 18-3.1 35.4-9.3 51.8-1.4 4-5.2 6.5-9.3 6.5z" fill="" /></svg>