<?xml version="1.0" encoding="utf-8"?>
<!-- Uploaded to: SVG Repo, www.svgrepo.com, Generator: SVG Repo Mixer Tools -->
<svg width="800px" height="800px" viewBox="0 0 1024 1024" class="icon"  version="1.1" xmlns="http://www.w3.org/2000/svg"><path d="M817.2 865.3H485.4c-77.2 0-139.7-62.5-139.7-139.7l-32.1-550.9C313.6 97.5 376.1 35 453.3 35h396.1C926.5 35 989 97.5 989 174.7l-32.1 550.9c0 77.1-62.5 139.7-139.7 139.7z" fill="#F7DDAD" /><path d="M817.2 875.3H485.4c-82.4 0-149.5-67-149.7-149.4l-32.1-550.6v-0.6C303.6 92.2 370.7 25 453.3 25h396.1C931.9 25 999 92.2 999 174.7v0.6l-32.1 550.6c-0.2 82.4-67.2 149.4-149.7 149.4zM323.6 174.4L355.7 725v0.6c0 71.5 58.2 129.7 129.7 129.7h331.8c71.5 0 129.7-58.2 129.7-129.7v-0.6L979 174.4C978.9 103 920.8 45 849.4 45H453.3c-71.5 0-129.6 58-129.7 129.4z" fill="" /><path d="M323.3 342.5l22.4 383.1c0 77.2 62.5 139.7 139.7 139.7h331.8c77.2 0 139.7-62.5 139.7-139.7l22.4-383.1h-656z" fill="#FCD170" /><path d="M817.2 875.3H485.4c-82.4 0-149.5-67-149.7-149.4l-22.3-382.8c-0.2-2.7 0.8-5.4 2.7-7.4 1.9-2 4.5-3.1 7.3-3.1h655.9c2.8 0 5.4 1.1 7.3 3.1 1.9 2 2.9 4.7 2.7 7.4L967 725.9c-0.3 82.4-67.3 149.4-149.8 149.4zM334 352.5L355.7 725v0.6c0 71.5 58.2 129.7 129.7 129.7h331.8c71.5 0 129.7-58.2 129.7-129.7v-0.6l21.7-372.5H334z" fill="" /><path d="M837.8 271.9h-373c-1.6 0-2.9-1.3-2.9-2.9V35h378.8v234c0 1.6-1.3 2.9-2.9 2.9z" fill="#FCD170" /><path d="M837.8 281.9h-373c-7.1 0-12.9-5.8-12.9-12.9V35c0-5.5 4.5-10 10-10h378.8c5.5 0 10 4.5 10 10v234c0 7.1-5.8 12.9-12.9 12.9z m-365.9-20h358.8V45H471.9v216.9z" fill="" /><path d="M36.9 398.5H511v584.4H36.9z" fill="#B6B7B7" /><path d="M511 992.9H37c-5.5 0-10-4.5-10-10V398.5c0-5.5 4.5-10 10-10h474c5.5 0 10 4.5 10 10v584.4c0 5.5-4.4 10-10 10z m-464-20h454V408.5H47v564.4z" fill="" /><path d="M36.9 470.6H511v440.3H36.9z" fill="#75736F" /><path d="M511 920.8H37c-5.5 0-10-4.5-10-10V470.6c0-5.5 4.5-10 10-10h474c5.5 0 10 4.5 10 10v440.3c0 5.4-4.4 9.9-10 9.9z m-464-20h454V480.6H47v420.2z" fill="" /><path d="M183.7 621.3H37c-5.5 0-10-4.5-10-10s4.5-10 10-10h146.8c5.5 0 10 4.5 10 10s-4.5 10-10.1 10zM108.6 708.5h-70c-5.5 0-10-4.5-10-10s4.5-10 10-10h70c5.5 0 10 4.5 10 10s-4.4 10-10 10zM266.2 795.7H38.7c-5.5 0-10-4.5-10-10s4.5-10 10-10h227.5c5.5 0 10 4.5 10 10s-4.5 10-10 10z" fill="" /></svg>